<svg width="36" height="36" viewBox="0 0 36 36" fill="none" xmlns="http://www.w3.org/2000/svg">
<path d="M14.4402 31.9401C13.0633 31.9391 11.7147 31.5493 10.5497 30.8155C9.38464 30.0816 8.45053 29.0337 7.85492 27.7923C7.2593 26.5509 7.0264 25.1666 7.18302 23.7986C7.33964 22.4307 7.87942 21.1348 8.74021 20.0601L7.32021 18.6401C5.81714 20.4208 5.03735 22.7009 5.13516 25.0292C5.23296 27.3574 6.20124 29.564 7.84836 31.2124C9.49547 32.8608 11.7014 33.8307 14.0295 33.9303C16.3577 34.0299 18.6383 33.2518 20.4202 31.7501L19.0002 30.3301C17.7077 31.37 16.0991 31.9379 14.4402 31.9401Z" fill="#01070E"/>
<path d="M25.3605 1.66993C24.5448 1.66796 23.7468 1.90816 23.0678 2.36011C22.3887 2.81206 21.8591 3.45542 21.546 4.20865C21.2329 4.96189 21.1505 5.79111 21.3091 6.59125C21.4678 7.39138 21.8604 8.12641 22.4372 8.7032C23.014 9.28 23.749 9.67259 24.5491 9.83124C25.3493 9.9899 26.1785 9.90746 26.9317 9.59439C27.685 9.28132 28.3283 8.7517 28.7803 8.07264C29.2322 7.39358 29.4724 6.59564 29.4705 5.77993C29.4678 4.69071 29.034 3.64684 28.2638 2.87664C27.4935 2.10644 26.4497 1.67257 25.3605 1.66993ZM25.3605 7.89993C24.9407 7.90191 24.5299 7.77926 24.1799 7.54752C23.83 7.31578 23.5567 6.98538 23.3947 6.59818C23.2327 6.21098 23.1893 5.7844 23.27 5.37251C23.3506 4.96061 23.5518 4.58193 23.8479 4.28444C24.1439 3.98695 24.5217 3.78404 24.9332 3.70143C25.3447 3.61882 25.7715 3.66021 26.1594 3.82037C26.5474 3.98053 26.8791 4.25225 27.1125 4.60109C27.3459 4.94994 27.4705 5.36021 27.4705 5.77993C27.4705 6.34047 27.2485 6.87819 26.8531 7.27548C26.4576 7.67277 25.921 7.89729 25.3605 7.89993Z" fill="#01070E"/>
<path d="M26.5601 18.1798H21.5601C21.4783 18.1866 21.3977 18.2034 21.3201 18.2298L24.4101 14.6798C24.6894 14.3665 24.8955 13.9951 25.0136 13.5923C25.1316 13.1895 25.1586 12.7656 25.0925 12.3511C25.0265 11.9366 24.8691 11.542 24.6317 11.1959C24.3943 10.8497 24.0829 10.5607 23.7201 10.3498L15.7201 5.74981C15.5468 5.64951 15.3475 5.60351 15.1478 5.61778C14.9481 5.63204 14.7573 5.7059 14.6001 5.82981L9.83008 9.57981C9.72442 9.66096 9.63603 9.7624 9.57012 9.87819C9.50421 9.99397 9.4621 10.1218 9.44627 10.254C9.43043 10.3863 9.44118 10.5204 9.4779 10.6485C9.51462 10.7766 9.57656 10.896 9.66008 10.9998C9.75425 11.119 9.87434 11.2152 10.0112 11.281C10.1481 11.3468 10.2982 11.3806 10.4501 11.3798C10.671 11.3791 10.8855 11.3053 11.0601 11.1698L15.3301 7.82981L18.4401 9.59981L13.3601 15.3798C11.7137 15.5742 10.1495 16.2061 8.83008 17.2098L10.2601 18.6398C11.6664 17.6584 13.3733 17.2034 15.0816 17.3546C16.7898 17.5058 18.3903 18.2536 19.6023 19.4668C20.8143 20.68 21.5605 22.2812 21.7101 23.9896C21.8596 25.698 21.4029 27.4045 20.4201 28.8098L21.8401 30.2398C22.9262 28.8164 23.5769 27.109 23.7136 25.3237C23.8502 23.5385 23.467 21.7519 22.6101 20.1798H25.4301L24.6601 26.6898C24.6448 26.8205 24.6554 26.953 24.6913 27.0795C24.7273 27.2061 24.7879 27.3244 24.8697 27.4275C24.9514 27.5306 25.0527 27.6166 25.1678 27.6805C25.2828 27.7444 25.4093 27.7849 25.5401 27.7998H25.6601C25.9058 27.8016 26.1435 27.7129 26.3279 27.5506C26.5124 27.3882 26.6306 27.1637 26.6601 26.9198L27.5601 19.2998C27.5758 19.1595 27.5617 19.0175 27.5186 18.883C27.4755 18.7486 27.4044 18.6248 27.3101 18.5198C27.2164 18.4131 27.101 18.3277 26.9717 18.269C26.8424 18.2104 26.7021 18.18 26.5601 18.1798ZM20.1901 10.6198L22.7101 12.0798C22.8183 12.1399 22.9109 12.2246 22.9804 12.3271C23.0499 12.4296 23.0943 12.547 23.1101 12.6698C23.1321 12.7925 23.1254 12.9185 23.0908 13.0382C23.0561 13.1579 22.9942 13.2679 22.9101 13.3598L19.7501 16.9998C18.6315 16.2096 17.3501 15.68 16.0001 15.4498L20.1901 10.6198Z" fill="#01070E"/>
</svg>
