<svg width="36" height="36" viewBox="0 0 36 36" fill="none" xmlns="http://www.w3.org/2000/svg">
<path d="M30.0605 11H6.06055C5.79533 11 5.54098 11.1054 5.35344 11.2929C5.1659 11.4804 5.06055 11.7348 5.06055 12C5.06055 12.2652 5.1659 12.5196 5.35344 12.7071C5.54098 12.8946 5.79533 13 6.06055 13H14.0005V22.65L10.2505 32.65C10.2039 32.7728 10.1819 32.9036 10.1858 33.0348C10.1897 33.1661 10.2195 33.2954 10.2733 33.4151C10.3272 33.5349 10.4041 33.6429 10.4997 33.733C10.5953 33.8231 10.7078 33.8934 10.8305 33.94C10.9465 33.9794 11.0681 33.9996 11.1905 34C11.3932 33.9986 11.5906 33.9357 11.7567 33.8197C11.9227 33.7036 12.0496 33.5398 12.1205 33.35L15.6205 24H20.3805L23.9005 33.35C23.9715 33.5398 24.0984 33.7036 24.2644 33.8197C24.4305 33.9357 24.6279 33.9986 24.8305 34C24.953 33.9996 25.0746 33.9794 25.1905 33.94C25.3133 33.8934 25.4258 33.8231 25.5214 33.733C25.617 33.6429 25.6939 33.5349 25.7478 33.4151C25.8016 33.2954 25.8314 33.1661 25.8353 33.0348C25.8392 32.9036 25.8172 32.7728 25.7705 32.65L22.0005 22.68V13H30.0605C30.3258 13 30.5801 12.8946 30.7677 12.7071C30.9552 12.5196 31.0605 12.2652 31.0605 12C31.0605 11.7348 30.9552 11.4804 30.7677 11.2929C30.5801 11.1054 30.3258 11 30.0605 11ZM20.0005 22H16.0005V13H20.0005V22Z" fill="#01070E"/>
<path d="M18 10C18.7911 10 19.5645 9.76541 20.2223 9.32588C20.8801 8.88635 21.3928 8.26164 21.6955 7.53074C21.9983 6.79983 22.0775 5.99556 21.9231 5.21964C21.7688 4.44372 21.3878 3.73098 20.8284 3.17157C20.269 2.61216 19.5563 2.2312 18.7804 2.07686C18.0044 1.92252 17.2002 2.00173 16.4693 2.30448C15.7384 2.60723 15.1136 3.11992 14.6741 3.77772C14.2346 4.43552 14 5.20888 14 6C14 7.06087 14.4214 8.07828 15.1716 8.82843C15.9217 9.57857 16.9391 10 18 10ZM18 4C18.3956 4 18.7822 4.1173 19.1111 4.33706C19.44 4.55683 19.6964 4.86918 19.8478 5.23463C19.9991 5.60009 20.0387 6.00222 19.9616 6.39018C19.8844 6.77814 19.6939 7.13451 19.4142 7.41422C19.1345 7.69392 18.7781 7.8844 18.3902 7.96157C18.0022 8.03874 17.6001 7.99914 17.2346 7.84776C16.8692 7.69639 16.5568 7.44004 16.3371 7.11114C16.1173 6.78224 16 6.39556 16 6C16 5.46957 16.2107 4.96086 16.5858 4.58579C16.9609 4.21072 17.4696 4 18 4Z" fill="#01070E"/>
</svg>
