<svg width="36" height="36" viewBox="0 0 36 36" fill="none" xmlns="http://www.w3.org/2000/svg">
<path d="M31 21H13C12.7348 21 12.4804 21.1054 12.2929 21.2929C12.1054 21.4804 12 21.7348 12 22C12 22.2652 12.1054 22.5196 12.2929 22.7071C12.4804 22.8946 12.7348 23 13 23H31C31.2652 23 31.5196 22.8946 31.7071 22.7071C31.8946 22.5196 32 22.2652 32 22C32 21.7348 31.8946 21.4804 31.7071 21.2929C31.5196 21.1054 31.2652 21 31 21Z" fill="#01070E"/>
<path d="M12 16C12 16.2652 12.1054 16.5196 12.2929 16.7071C12.4804 16.8946 12.7348 17 13 17H31C31.2652 17 31.5196 16.8946 31.7071 16.7071C31.8946 16.5196 32 16.2652 32 16C32 15.7348 31.8946 15.4804 31.7071 15.2929C31.5196 15.1054 31.2652 15 31 15H13C12.7348 15 12.4804 15.1054 12.2929 15.2929C12.1054 15.4804 12 15.7348 12 16Z" fill="#01070E"/>
<path d="M27 27H13C12.7348 27 12.4804 27.1054 12.2929 27.2929C12.1054 27.4804 12 27.7348 12 28C12 28.2652 12.1054 28.5196 12.2929 28.7071C12.4804 28.8946 12.7348 29 13 29H27C27.2652 29 27.5196 28.8946 27.7071 28.7071C27.8946 28.5196 28 28.2652 28 28C28 27.7348 27.8946 27.4804 27.7071 27.2929C27.5196 27.1054 27.2652 27 27 27Z" fill="#01070E"/>
<path d="M15.8906 8.99996C15.8906 8.73474 15.7853 8.48039 15.5977 8.29285C15.4102 8.10532 15.1558 7.99996 14.8906 7.99996H10.0006V3.20996C10.0006 2.94474 9.89527 2.69039 9.70773 2.50285C9.5202 2.31532 9.26584 2.20996 9.00063 2.20996C8.73541 2.20996 8.48105 2.31532 8.29352 2.50285C8.10598 2.69039 8.00063 2.94474 8.00063 3.20996V7.99996H2.89063C2.62541 7.99996 2.37105 8.10532 2.18352 8.29285C1.99598 8.48039 1.89062 8.73474 1.89062 8.99996C1.89062 9.26518 1.99598 9.51953 2.18352 9.70707C2.37105 9.8946 2.62541 9.99996 2.89063 9.99996H8.00063V15.21C8.00063 15.4752 8.10598 15.7295 8.29352 15.9171C8.48105 16.1046 8.73541 16.21 9.00063 16.21C9.26584 16.21 9.5202 16.1046 9.70773 15.9171C9.89527 15.7295 10.0006 15.4752 10.0006 15.21V9.99996H14.8906C15.1558 9.99996 15.4102 9.8946 15.5977 9.70707C15.7853 9.51953 15.8906 9.26518 15.8906 8.99996Z" fill="#01070E"/>
</svg>
