<svg width="36" height="36" viewBox="0 0 36 36" fill="none" xmlns="http://www.w3.org/2000/svg">
<path d="M30.0007 17H19.0007V6C19.0007 5.73478 18.8953 5.48043 18.7078 5.29289C18.5202 5.10536 18.2659 5 18.0007 5C17.7354 5 17.4811 5.10536 17.2935 5.29289C17.106 5.48043 17.0007 5.73478 17.0007 6V17H6.00066C5.73544 17 5.48109 17.1054 5.29355 17.2929C5.10601 17.4804 5.00066 17.7348 5.00066 18C4.99572 18.13 5.0187 18.2595 5.06805 18.3798C5.1174 18.5001 5.19197 18.6085 5.28673 18.6976C5.3815 18.7867 5.49425 18.8544 5.61741 18.8962C5.74056 18.938 5.87124 18.953 6.00066 18.94H17.0007V30C17.0007 30.2652 17.106 30.5196 17.2935 30.7071C17.4811 30.8946 17.7354 31 18.0007 31C18.2659 31 18.5202 30.8946 18.7078 30.7071C18.8953 30.5196 19.0007 30.2652 19.0007 30V19H30.0007C30.2659 19 30.5202 18.8946 30.7078 18.7071C30.8953 18.5196 31.0007 18.2652 31.0007 18C31.0007 17.7348 30.8953 17.4804 30.7078 17.2929C30.5202 17.1054 30.2659 17 30.0007 17Z" fill="#01070E"/>
</svg>
