<svg width="36" height="36" viewBox="0 0 36 36" fill="none" xmlns="http://www.w3.org/2000/svg">
<path d="M14.6799 14.81C13.3425 14.81 12.0351 14.4133 10.9232 13.6701C9.81133 12.9268 8.94489 11.8705 8.43354 10.6347C7.92219 9.39886 7.7889 8.03913 8.05055 6.72755C8.3122 5.41597 8.95702 4.21147 9.90342 3.26646C10.8498 2.32146 12.0553 1.67842 13.3672 1.41872C14.6792 1.15901 16.0387 1.29431 17.2738 1.80749C18.5088 2.32067 19.5639 3.18868 20.3055 4.30167C21.0471 5.41466 21.4419 6.72262 21.4399 8.06004C21.4346 9.85036 20.7204 11.5657 19.4535 12.8307C18.1866 14.0957 16.4702 14.8074 14.6799 14.81ZM14.6799 3.30004C13.7385 3.30004 12.8182 3.57921 12.0354 4.10225C11.2526 4.62528 10.6425 5.36869 10.2823 6.23847C9.92198 7.10824 9.82771 8.06532 10.0114 8.98867C10.195 9.91202 10.6484 10.7602 11.3141 11.4259C11.9798 12.0916 12.8279 12.5449 13.7513 12.7286C14.6746 12.9122 15.6317 12.818 16.5015 12.4577C17.3713 12.0974 18.1147 11.4873 18.6377 10.7046C19.1607 9.92178 19.4399 9.00148 19.4399 8.06004C19.4399 6.79761 18.9384 5.58689 18.0457 4.69421C17.1531 3.80154 15.9423 3.30004 14.6799 3.30004Z" fill="#01070E"/>
<path d="M16.42 31.6798C16.2014 31.4611 16.0329 31.1978 15.9258 30.9077C15.8188 30.6177 15.7759 30.308 15.8 29.9998H4V24.2198C5.4179 22.7068 7.13771 21.5085 9.04809 20.7023C10.9585 19.8961 13.0169 19.5 15.09 19.5398H15.81C15.7641 19.2045 15.7962 18.8632 15.9037 18.5423C16.0112 18.2214 16.1913 17.9297 16.43 17.6898L16.55 17.5798C16.08 17.5798 15.55 17.5198 15.09 17.5198C12.6504 17.4619 10.2284 17.9468 7.99917 18.9395C5.76993 19.9322 3.78913 21.4078 2.2 23.2598C2.07018 23.4329 2 23.6434 2 23.8598V29.9998C2 30.5302 2.21071 31.0389 2.58579 31.414C2.96086 31.7891 3.46957 31.9998 4 31.9998H16.7L16.42 31.6798Z" fill="#01070E"/>
<path d="M26.8691 16.2899C26.9186 16.2797 26.9697 16.2797 27.0191 16.2899C26.9695 16.2809 26.9187 16.2809 26.8691 16.2899Z" fill="#01070E"/>
<path d="M33.6803 23.32L31.6803 22.71C31.5373 22.2208 31.3429 21.7482 31.1003 21.3L32.1003 19.44C32.1328 19.3656 32.1406 19.2827 32.1226 19.2035C32.1046 19.1243 32.0618 19.053 32.0003 19L30.5503 17.55C30.4954 17.4906 30.4222 17.4514 30.3424 17.4387C30.2626 17.426 30.1808 17.4406 30.1103 17.48L28.2703 18.48C27.8172 18.2253 27.3377 18.0207 26.8403 17.87L26.2303 15.87C26.2044 15.7964 26.1553 15.7331 26.0903 15.6899C26.0254 15.6466 25.9482 15.6256 25.8703 15.63H23.8203C23.7415 15.6291 23.6646 15.654 23.6014 15.701C23.5382 15.7479 23.4921 15.8143 23.4703 15.89L22.8603 17.89C22.3594 18.0357 21.8764 18.2369 21.4203 18.49L19.6003 17.49C19.5312 17.4513 19.4511 17.4372 19.373 17.4499C19.295 17.4626 19.2235 17.5014 19.1703 17.56L17.6903 19C17.6354 19.0578 17.6001 19.1313 17.5893 19.2103C17.5785 19.2893 17.5929 19.3696 17.6303 19.44L18.6303 21.26C18.3658 21.7107 18.1544 22.1906 18.0003 22.69L16.0003 23.29C15.9246 23.3118 15.8582 23.3579 15.8112 23.4211C15.7643 23.4844 15.7393 23.5612 15.7403 23.64V25.69C15.7462 25.7622 15.7744 25.8308 15.8209 25.8863C15.8675 25.9419 15.9302 25.9816 16.0003 26L18.0003 26.61C18.1481 27.1005 18.3493 27.5733 18.6003 28.02L17.6003 29.93C17.5621 29.9984 17.5473 30.0774 17.5581 30.155C17.569 30.2326 17.6048 30.3046 17.6603 30.36L19.1103 31.81C19.1669 31.8665 19.2399 31.9037 19.3189 31.9162C19.3979 31.9288 19.4789 31.9161 19.5503 31.88L21.4203 30.88C21.8653 31.1193 22.3346 31.3104 22.8203 31.45L23.4203 33.45C23.4449 33.524 23.4916 33.5886 23.5543 33.6352C23.6169 33.6817 23.6923 33.7078 23.7703 33.71H25.8203C25.8986 33.7093 25.9747 33.6837 26.0376 33.637C26.1005 33.5903 26.147 33.5248 26.1703 33.45L26.7803 31.4C27.2595 31.2603 27.7222 31.0692 28.1603 30.83L30.0503 31.83C30.1197 31.8669 30.1994 31.88 30.277 31.8674C30.3547 31.8548 30.4261 31.817 30.4803 31.76L32.0003 30.4C32.0411 30.3413 32.063 30.2715 32.063 30.2C32.063 30.1285 32.0411 30.0587 32.0003 30L31.0003 28.12C31.243 27.6788 31.4375 27.2128 31.5803 26.73L33.5803 26.12C33.6559 26.0981 33.7223 26.052 33.7693 25.9888C33.8162 25.9256 33.8412 25.8487 33.8403 25.77V23.67C33.8494 23.6025 33.8393 23.5338 33.811 23.4718C33.7826 23.4098 33.7373 23.3572 33.6803 23.32ZM24.8503 28C24.1888 28.0019 23.5417 27.8075 22.9909 27.4412C22.4401 27.075 22.0105 26.5535 21.7564 25.9428C21.5024 25.332 21.4354 24.6597 21.564 24.0108C21.6925 23.362 22.0108 22.766 22.4785 22.2983C22.9462 21.8305 23.5423 21.5122 24.1911 21.3837C24.8399 21.2551 25.5123 21.3221 26.123 21.5761C26.7338 21.8302 27.2553 22.2598 27.6215 22.8106C27.9878 23.3614 28.1822 24.0085 28.1803 24.67C28.1776 25.5523 27.8259 26.3978 27.202 27.0217C26.5781 27.6456 25.7326 27.9973 24.8503 28Z" fill="#01070E"/>
</svg>
