<svg width="36" height="36" viewBox="0 0 36 36" fill="none" xmlns="http://www.w3.org/2000/svg">
<path d="M35.7694 8.15995C35.6928 7.67328 35.4701 7.22139 35.1307 6.8642C34.7914 6.50702 34.3515 6.26141 33.8694 6.15995L27.9994 4.86995C27.3699 4.73266 26.7183 4.73215 26.0886 4.86844C25.4589 5.00473 24.8658 5.27465 24.3494 5.65995L6.99943 18.3L2.13943 18.1C1.74874 18.086 1.36358 18.1954 1.03866 18.4128C0.713728 18.6302 0.465552 18.9444 0.329378 19.3109C0.193204 19.6773 0.175956 20.0774 0.280082 20.4542C0.384209 20.831 0.604416 21.1654 0.909428 21.41L5.90943 25.34C6.50943 26.07 6.90943 25.93 16.8394 20.52L17.7694 29.94C17.7849 30.1969 17.873 30.4442 18.0235 30.6531C18.1739 30.862 18.3806 31.0239 18.6194 31.12C18.7913 31.1879 18.9747 31.2218 19.1594 31.22C19.5313 31.2086 19.8866 31.0629 20.1594 30.81L22.5494 28.63C22.7874 28.4095 22.9486 28.1186 23.0094 27.8L25.1994 15.9C28.7694 13.9 32.1494 12.02 34.5594 10.65C34.9906 10.4074 35.3375 10.0391 35.5537 9.59411C35.7699 9.14916 35.8452 8.64882 35.7694 8.15995ZM33.5694 8.90995C31.0694 10.33 27.5694 12.32 23.8094 14.38L23.3994 14.61L21.0694 27.28L19.5994 28.62L18.4994 17.32L17.1694 18C9.99943 22 7.60943 23.16 6.78943 23.52L2.48943 20.11L7.56943 20.33L25.5694 7.26995C25.8524 7.05843 26.1768 6.90901 26.5214 6.83146C26.866 6.75392 27.2232 6.75 27.5694 6.81995L33.4194 8.07995C33.5096 8.09629 33.5921 8.141 33.6551 8.20756C33.7181 8.27411 33.7581 8.35904 33.7694 8.44995C33.79 8.53794 33.7817 8.63022 33.7456 8.71309C33.7096 8.79596 33.6478 8.86499 33.5694 8.90995Z" fill="#01070E"/>
<path d="M7.00058 12.5398L10.5606 13.5398L12.2006 12.3498L8.20058 11.1898L10.0006 10.0898L15.4706 9.92977L17.7706 8.25977L10.0006 8.49977C9.75562 8.48652 9.51218 8.54564 9.30058 8.66977L6.67058 10.1998C6.45315 10.3286 6.27871 10.5189 6.16925 10.7466C6.0598 10.9744 6.02022 11.2295 6.05551 11.4798C6.0908 11.73 6.19938 11.9642 6.36756 12.1529C6.53575 12.3415 6.756 12.4761 7.00058 12.5398Z" fill="#01070E"/>
</svg>
