<svg width="36" height="36" viewBox="0 0 36 36" fill="none" xmlns="http://www.w3.org/2000/svg">
<path d="M31.4696 3.84021C30.5085 2.89022 29.245 2.307 27.8986 2.19191C26.5522 2.07681 25.208 2.43712 24.0996 3.21021C27.6624 4.69357 30.5728 7.40882 32.2996 10.8602C32.9661 9.76578 33.2466 8.47952 33.0961 7.20696C32.9457 5.93441 32.373 4.74902 31.4696 3.84021Z" fill="#01070E"/>
<path d="M11.4192 3.42989C10.3155 2.55327 8.92899 2.11099 7.52149 2.18652C6.114 2.26205 4.78283 2.85017 3.77922 3.83989C2.7839 4.8418 2.19441 6.1765 2.12425 7.58702C2.0541 8.99755 2.50823 10.3842 3.39922 11.4799C5.00375 7.90992 7.85527 5.04774 11.4192 3.42989Z" fill="#01070E"/>
<path d="M16.399 4.09019C13.7882 4.39518 11.3159 5.42907 9.26515 7.07352C7.21442 8.71797 5.66809 10.9066 4.80311 13.3888C3.93813 15.871 3.78946 18.5467 4.37411 21.1094C4.95876 23.6722 6.25311 26.0187 8.10903 27.8802L5.55903 30.4302C5.46645 30.5247 5.3934 30.6366 5.34405 30.7594C5.29469 30.8822 5.27001 31.0135 5.2714 31.1458C5.2728 31.2781 5.30024 31.4089 5.35216 31.5306C5.40409 31.6523 5.47948 31.7626 5.57403 31.8552C5.66858 31.9478 5.78044 32.0208 5.90323 32.0702C6.02601 32.1195 6.15731 32.1442 6.28964 32.1428C6.42196 32.1414 6.55271 32.114 6.67443 32.0621C6.79615 32.0101 6.90645 31.9347 6.99903 31.8402L9.65903 29.1802C12.0916 31.021 15.0621 32.0104 18.1126 31.9959C21.163 31.9815 24.1241 30.9639 26.539 29.1002L29.279 31.8402C29.4703 32.004 29.7164 32.0896 29.9681 32.0799C30.2198 32.0702 30.4585 31.9658 30.6366 31.7878C30.8147 31.6097 30.919 31.3709 30.9287 31.1192C30.9385 30.8676 30.8529 30.6215 30.689 30.4302L27.999 27.7802C30.0177 25.7124 31.347 23.0706 31.8045 20.2173C32.2621 17.364 31.8255 14.4391 30.5547 11.8438C29.2839 9.24844 27.2411 7.10997 24.7067 5.72175C22.1722 4.33354 19.2703 3.76362 16.399 4.09019ZM19.579 29.9002C17.0936 30.2257 14.5687 29.7648 12.3586 28.582C10.1485 27.3993 8.36432 25.5542 7.25641 23.3057C6.1485 21.0572 5.77252 18.5182 6.18126 16.0451C6.58999 13.572 7.76291 11.289 9.53537 9.51652C11.3078 7.74406 13.5908 6.57114 16.0639 6.16241C18.537 5.75368 21.076 6.12966 23.3245 7.23756C25.573 8.34547 27.4181 10.1297 28.6009 12.3398C29.7836 14.5498 30.2446 17.0748 29.919 19.5602C29.5756 22.1821 28.3758 24.6172 26.5059 26.4871C24.6361 28.3569 22.201 29.5568 19.579 29.9002Z" fill="#01070E"/>
<path d="M24.9205 20.3401L18.8605 17.3401V9.5001C18.8605 9.2614 18.7657 9.03248 18.5969 8.8637C18.4282 8.69492 18.1992 8.6001 17.9605 8.6001C17.7219 8.6001 17.4929 8.69492 17.3242 8.8637C17.1554 9.03248 17.0605 9.2614 17.0605 9.5001V18.5001L24.1205 22.0001C24.3354 22.1049 24.583 22.12 24.809 22.0422C25.035 21.9643 25.2208 21.7999 25.3255 21.5851C25.4303 21.3703 25.4454 21.1226 25.3676 20.8966C25.2898 20.6707 25.1254 20.4849 24.9105 20.3801L24.9205 20.3401Z" fill="#01070E"/>
</svg>
