<svg width="36" height="36" viewBox="0 0 36 36" fill="none" xmlns="http://www.w3.org/2000/svg">
<path d="M31.4696 3.84021C30.5085 2.89022 29.245 2.307 27.8986 2.19191C26.5522 2.07681 25.208 2.43712 24.0996 3.21021C27.6624 4.69357 30.5728 7.40882 32.2996 10.8602C32.9661 9.76578 33.2466 8.47952 33.0961 7.20696C32.9457 5.93441 32.373 4.74902 31.4696 3.84021Z" fill="#01070E"/>
<path d="M25.3307 21.5398C25.4346 21.3261 25.4497 21.0801 25.3729 20.8553C25.2961 20.6305 25.1336 20.4452 24.9207 20.3398L21.7207 18.7798L24.8907 21.9998C25.0891 21.9059 25.2458 21.7421 25.3307 21.5398Z" fill="#01070E"/>
<path d="M17.9996 8.6001C17.7609 8.6001 17.532 8.69492 17.3632 8.8637C17.1944 9.03248 17.0996 9.2614 17.0996 9.5001V14.1001L18.8996 15.9101V9.5001C18.8996 9.2614 18.8048 9.03248 18.636 8.8637C18.4672 8.69492 18.2383 8.6001 17.9996 8.6001Z" fill="#01070E"/>
<path d="M11.4194 3.4299C10.6104 2.79064 9.64555 2.3786 8.62433 2.23622C7.60311 2.09385 6.56239 2.22629 5.60938 2.6199L8.29938 5.3199C9.26392 4.57302 10.3107 3.9389 11.4194 3.4299Z" fill="#01070E"/>
<path d="M17.9992 4C15.0089 4.00068 12.0984 4.96501 9.69922 6.75L11.1192 8.18C13.4311 6.56643 16.2374 5.81839 19.0457 6.06709C21.854 6.3158 24.4851 7.54536 26.4775 9.54011C28.4699 11.5349 29.6963 14.1674 29.9416 16.9761C30.187 19.7847 29.4356 22.59 27.8192 24.9L29.2392 26.33C30.7812 24.2471 31.7147 21.7771 31.936 19.1951C32.1572 16.613 31.6574 14.0202 30.4922 11.7054C29.327 9.39062 27.5422 7.44465 25.3365 6.08421C23.1308 4.72377 20.5907 4.00225 17.9992 4Z" fill="#01070E"/>
<path d="M1.56055 4.2098L2.73055 5.3798C2.24877 6.35459 2.05586 7.44683 2.17458 8.52767C2.29329 9.6085 2.71868 10.6328 3.40055 11.4798C3.9441 10.2781 4.63616 9.14932 5.46055 8.1198L6.88055 9.5498C4.82894 12.2351 3.82266 15.5743 4.04891 18.9461C4.27517 22.3179 5.71856 25.4927 8.11055 27.8798L5.56055 30.4298C5.46796 30.5244 5.39491 30.6362 5.34556 30.759C5.29621 30.8818 5.27153 31.0131 5.27292 31.1454C5.27431 31.2777 5.30175 31.4085 5.35368 31.5302C5.4056 31.6519 5.48099 31.7622 5.57555 31.8548C5.6701 31.9474 5.78196 32.0204 5.90474 32.0698C6.02753 32.1191 6.15883 32.1438 6.29115 32.1424C6.42348 32.141 6.55423 32.1136 6.67595 32.0617C6.79767 32.0097 6.90797 31.9344 7.00055 31.8398L9.66055 29.1798C12.0766 31.0144 15.0269 32.0076 18.0605 32.0076C21.0942 32.0076 24.0445 31.0144 26.4605 29.1798L30.6005 33.3298L32.0005 31.8998L3.00055 2.7998L1.56055 4.2098ZM25.0005 27.7198C22.9672 29.2012 20.5163 29.9995 18.0005 29.9998C14.8179 29.9998 11.7657 28.7355 9.51527 26.4851C7.26483 24.2346 6.00055 21.1824 6.00055 17.9998C6.00375 15.4829 6.80557 13.0319 8.29055 10.9998L25.0005 27.7198Z" fill="#01070E"/>
</svg>
