<svg width="36" height="36" viewBox="0 0 36 36" fill="none" xmlns="http://www.w3.org/2000/svg">
<path d="M11.4192 3.42989C10.3155 2.55327 8.92899 2.11099 7.52149 2.18652C6.114 2.26205 4.78283 2.85017 3.77922 3.83989C2.7839 4.8418 2.19441 6.1765 2.12425 7.58702C2.0541 8.99755 2.50823 10.3842 3.39922 11.4799C5.00375 7.90992 7.85527 5.04774 11.4192 3.42989Z" fill="#01070E"/>
<path d="M18.8605 9.5001C18.8605 9.2614 18.7657 9.03248 18.5969 8.8637C18.4282 8.69492 18.1992 8.6001 17.9605 8.6001C17.7219 8.6001 17.4929 8.69492 17.3242 8.8637C17.1554 9.03248 17.0605 9.2614 17.0605 9.5001V18.5001L24.1205 22.0001C24.3354 22.1049 24.583 22.12 24.809 22.0422C25.035 21.9643 25.2208 21.7999 25.3255 21.5851C25.4303 21.3703 25.4454 21.1226 25.3676 20.8966C25.2898 20.6707 25.1254 20.4849 24.9105 20.3801L18.8505 17.3801L18.8605 9.5001Z" fill="#01070E"/>
<path d="M27.9997 27.7798C29.5865 26.1777 30.759 24.2132 31.4158 22.0561C32.0727 19.899 32.1942 17.6144 31.7697 15.3998H29.7697C30.3516 17.9706 30.076 20.6612 28.9849 23.0606C27.8938 25.46 26.0473 27.4363 23.7275 28.6876C21.4076 29.9388 18.742 30.3964 16.1376 29.9902C13.5333 29.5841 11.1335 28.3366 9.30485 26.4383C7.47618 24.54 6.31916 22.0953 6.01053 19.4777C5.7019 16.86 6.25863 14.2132 7.59567 11.9417C8.93272 9.6702 10.9766 7.8988 13.415 6.89809C15.8535 5.89738 18.5525 5.72239 21.0997 6.39984L22.0997 4.59984C19.1153 3.69107 15.9129 3.80514 13.0007 4.92394C10.0886 6.04273 7.63353 8.10216 6.02526 10.7753C4.41698 13.4485 3.74764 16.5823 4.12347 19.6792C4.49929 22.7762 5.89875 25.6589 8.09973 27.8698L5.55973 30.4298C5.46715 30.5244 5.39409 30.6363 5.34474 30.759C5.29539 30.8818 5.27071 31.0131 5.2721 31.1454C5.27349 31.2778 5.30094 31.4085 5.35286 31.5302C5.40479 31.652 5.48018 31.7623 5.57473 31.8548C5.66928 31.9474 5.78114 32.0205 5.90392 32.0698C6.02671 32.1192 6.15801 32.1439 6.29033 32.1425C6.42266 32.1411 6.55341 32.1136 6.67513 32.0617C6.79685 32.0098 6.90715 31.9344 6.99973 31.8398L9.65973 29.1798C12.0923 31.0206 15.0628 32.01 18.1133 31.9956C21.1637 31.9811 24.1248 30.9636 26.5397 29.0998L29.2797 31.8398C29.471 32.0037 29.7171 32.0893 29.9688 32.0796C30.2205 32.0698 30.4592 31.9655 30.6373 31.7874C30.8154 31.6093 30.9197 31.3706 30.9294 31.1189C30.9392 30.8672 30.8536 30.6211 30.6897 30.4298L27.9997 27.7798Z" fill="#01070E"/>
<path d="M26.8504 1.13981L21.1304 10.9998C20.9973 11.1951 20.9209 11.4235 20.9097 11.6596C20.8984 11.8957 20.9527 12.1303 21.0666 12.3374C21.1806 12.5445 21.3496 12.716 21.555 12.8329C21.7604 12.9498 21.9942 13.0076 22.2304 12.9998H33.6804C33.9166 13.0076 34.1504 12.9498 34.3558 12.8329C34.5612 12.716 34.7302 12.5445 34.8441 12.3374C34.958 12.1303 35.0123 11.8957 35.0011 11.6596C34.9898 11.4235 34.9135 11.1951 34.7804 10.9998L29.0604 1.13981C28.9476 0.946869 28.7862 0.786825 28.5923 0.675603C28.3985 0.564381 28.1789 0.505859 27.9554 0.505859C27.7319 0.505859 27.5123 0.564381 27.3184 0.675603C27.1245 0.786825 26.9632 0.946869 26.8504 1.13981Z" fill="#01070E"/>
</svg>
