<svg width="36" height="36" viewBox="0 0 36 36" fill="none" xmlns="http://www.w3.org/2000/svg">
<path d="M34 17H30V11C30 10.7348 29.8946 10.4804 29.7071 10.2929C29.5196 10.1054 29.2652 10 29 10H21C20.7348 10 20.4804 10.1054 20.2929 10.2929C20.1054 10.4804 20 10.7348 20 11V17H16V5C16 4.73478 15.8946 4.48043 15.7071 4.29289C15.5196 4.10536 15.2652 4 15 4H7C6.73478 4 6.48043 4.10536 6.29289 4.29289C6.10536 4.48043 6 4.73478 6 5V17H2C1.73478 17 1.48043 17.1054 1.29289 17.2929C1.10536 17.4804 1 17.7348 1 18C1 18.2652 1.10536 18.5196 1.29289 18.7071C1.48043 18.8946 1.73478 19 2 19H6V31C6 31.2652 6.10536 31.5196 6.29289 31.7071C6.48043 31.8946 6.73478 32 7 32H15C15.2652 32 15.5196 31.8946 15.7071 31.7071C15.8946 31.5196 16 31.2652 16 31V19H20V25C20 25.2652 20.1054 25.5196 20.2929 25.7071C20.4804 25.8946 20.7348 26 21 26H29C29.2652 26 29.5196 25.8946 29.7071 25.7071C29.8946 25.5196 30 25.2652 30 25V19H34C34.2652 19 34.5196 18.8946 34.7071 18.7071C34.8946 18.5196 35 18.2652 35 18C35 17.7348 34.8946 17.4804 34.7071 17.2929C34.5196 17.1054 34.2652 17 34 17ZM14 30H8V6H14V30ZM28 24H22V12H28V24Z" fill="#01070E"/>
</svg>
