<svg width="36" height="36" viewBox="0 0 36 36" fill="none" xmlns="http://www.w3.org/2000/svg">
<path d="M20.25 26H6V28.2H20.25C20.5417 28.2 20.8215 28.0841 21.0278 27.8778C21.2341 27.6715 21.35 27.3917 21.35 27.1C21.35 26.8083 21.2341 26.5285 21.0278 26.3222C20.8215 26.1159 20.5417 26 20.25 26Z" fill="#01070E"/>
<path d="M28 20H6V22.2H28C28.2917 22.2 28.5715 22.0841 28.7778 21.8778C28.9841 21.6715 29.1 21.3917 29.1 21.1C29.1 20.8083 28.9841 20.5285 28.7778 20.3222C28.5715 20.1159 28.2917 20 28 20Z" fill="#01070E"/>
<path d="M22.6 15.1C22.6 14.9555 22.5715 14.8125 22.5163 14.679C22.461 14.5456 22.38 14.4243 22.2778 14.3222C22.1757 14.22 22.0544 14.139 21.921 14.0837C21.7875 14.0285 21.6445 14 21.5 14H6V16.2H21.5C21.6445 16.2 21.7875 16.1715 21.921 16.1163C22.0544 16.061 22.1757 15.98 22.2778 15.8778C22.38 15.7757 22.461 15.6544 22.5163 15.521C22.5715 15.3875 22.6 15.2445 22.6 15.1Z" fill="#01070E"/>
<path d="M29.25 8H6V10.2H29.25C29.5417 10.2 29.8215 10.0841 30.0278 9.87782C30.2341 9.67153 30.35 9.39174 30.35 9.1C30.35 8.80826 30.2341 8.52847 30.0278 8.32218C29.8215 8.11589 29.5417 8 29.25 8Z" fill="#01070E"/>
</svg>
