<svg width="36" height="36" viewBox="0 0 36 36" fill="none" xmlns="http://www.w3.org/2000/svg">
<path d="M5 1C4.73478 1 4.48043 1.10536 4.29289 1.29289C4.10536 1.48043 4 1.73478 4 2V34C4 34.2652 4.10536 34.5196 4.29289 34.7071C4.48043 34.8946 4.73478 35 5 35C5.26522 35 5.51957 34.8946 5.70711 34.7071C5.89464 34.5196 6 34.2652 6 34V2C6 1.73478 5.89464 1.48043 5.70711 1.29289C5.51957 1.10536 5.26522 1 5 1Z" fill="#01070E"/>
<path d="M31 20H8V30H31C31.2652 30 31.5196 29.8946 31.7071 29.7071C31.8946 29.5196 32 29.2652 32 29V21C32 20.7348 31.8946 20.4804 31.7071 20.2929C31.5196 20.1054 31.2652 20 31 20ZM30 28H10V22H30V28Z" fill="#01070E"/>
<path d="M24 15V7C24 6.73478 23.8946 6.48043 23.7071 6.29289C23.5196 6.10536 23.2652 6 23 6H8V16H23C23.2652 16 23.5196 15.8946 23.7071 15.7071C23.8946 15.5196 24 15.2652 24 15ZM22 14H10V8H22V14Z" fill="#01070E"/>
</svg>
