<svg width="36" height="36" viewBox="0 0 36 36" fill="none" xmlns="http://www.w3.org/2000/svg">
<path d="M14.6504 27.1C14.6504 27.3917 14.7663 27.6715 14.9726 27.8778C15.1789 28.0841 15.4587 28.2 15.7504 28.2H30.0004V26H15.7504C15.4587 26 15.1789 26.1159 14.9726 26.3222C14.7663 26.5285 14.6504 26.8083 14.6504 27.1Z" fill="#01070E"/>
<path d="M6.90039 21.1C6.90039 21.3917 7.01628 21.6715 7.22257 21.8778C7.42886 22.0841 7.70865 22.2 8.00039 22.2H30.0004V20H8.00039C7.85594 20 7.7129 20.0285 7.57944 20.0837C7.44598 20.139 7.32472 20.22 7.22257 20.3222C7.12043 20.4243 7.0394 20.5456 6.98412 20.679C6.92884 20.8125 6.90039 20.9555 6.90039 21.1Z" fill="#01070E"/>
<path d="M13.4004 15.1C13.4004 15.3917 13.5163 15.6715 13.7226 15.8778C13.9289 16.0841 14.2087 16.2 14.5004 16.2H30.0004V14H14.5004C14.2087 14 13.9289 14.1159 13.7226 14.3222C13.5163 14.5285 13.4004 14.8083 13.4004 15.1Z" fill="#01070E"/>
<path d="M6.75039 8C6.60594 8 6.4629 8.02845 6.32944 8.08373C6.19598 8.13901 6.07472 8.22004 5.97257 8.32218C5.87043 8.42433 5.7894 8.54559 5.73412 8.67905C5.67884 8.81251 5.65039 8.95555 5.65039 9.1C5.65039 9.24445 5.67884 9.38749 5.73412 9.52095C5.7894 9.65441 5.87043 9.77567 5.97257 9.87782C6.07472 9.97996 6.19598 10.061 6.32944 10.1163C6.4629 10.1715 6.60594 10.2 6.75039 10.2H30.0004V8H6.75039Z" fill="#01070E"/>
</svg>
