<svg width="36" height="36" viewBox="0 0 36 36" fill="none" xmlns="http://www.w3.org/2000/svg">
<path d="M34 30H2C1.73478 30 1.48043 30.1054 1.29289 30.2929C1.10536 30.4804 1 30.7348 1 31C1 31.2652 1.10536 31.5196 1.29289 31.7071C1.48043 31.8946 1.73478 32 2 32H34C34.2652 32 34.5196 31.8946 34.7071 31.7071C34.8946 31.5196 35 31.2652 35 31C35 30.7348 34.8946 30.4804 34.7071 30.2929C34.5196 30.1054 34.2652 30 34 30Z" fill="#01070E"/>
<path d="M16 5C16 4.73478 15.8946 4.48043 15.7071 4.29289C15.5196 4.10536 15.2652 4 15 4H7C6.73478 4 6.48043 4.10536 6.29289 4.29289C6.10536 4.48043 6 4.73478 6 5V28H16V5ZM14 26H8V6H14V26Z" fill="#01070E"/>
<path d="M30 13C30 12.7348 29.8946 12.4804 29.7071 12.2929C29.5196 12.1054 29.2652 12 29 12H21C20.7348 12 20.4804 12.1054 20.2929 12.2929C20.1054 12.4804 20 12.7348 20 13V28H30V13ZM28 26H22V14H28V26Z" fill="#01070E"/>
</svg>
