<svg width="36" height="36" viewBox="0 0 36 36" fill="none" xmlns="http://www.w3.org/2000/svg">
<path d="M31 1C30.7348 1 30.4804 1.10536 30.2929 1.29289C30.1054 1.48043 30 1.73478 30 2V34C30 34.2652 30.1054 34.5196 30.2929 34.7071C30.4804 34.8946 30.7348 35 31 35C31.2652 35 31.5196 34.8946 31.7071 34.7071C31.8946 34.5196 32 34.2652 32 34V2C32 1.73478 31.8946 1.48043 31.7071 1.29289C31.5196 1.10536 31.2652 1 31 1Z" fill="#01070E"/>
<path d="M4 21V29C4 29.2652 4.10536 29.5196 4.29289 29.7071C4.48043 29.8946 4.73478 30 5 30H28V20H5C4.73478 20 4.48043 20.1054 4.29289 20.2929C4.10536 20.4804 4 20.7348 4 21ZM6 22H26V28H6V22Z" fill="#01070E"/>
<path d="M12 7V15C12 15.2652 12.1054 15.5196 12.2929 15.7071C12.4804 15.8946 12.7348 16 13 16H28V6H13C12.7348 6 12.4804 6.10536 12.2929 6.29289C12.1054 6.48043 12 6.73478 12 7ZM14 8H26V14H14V8Z" fill="#01070E"/>
</svg>
