<svg width="36" height="36" viewBox="0 0 36 36" fill="none" xmlns="http://www.w3.org/2000/svg">
<path d="M34 4H2C1.73478 4 1.48043 4.10536 1.29289 4.29289C1.10536 4.48043 1 4.73478 1 5C1 5.26522 1.10536 5.51957 1.29289 5.70711C1.48043 5.89464 1.73478 6 2 6H34C34.2652 6 34.5196 5.89464 34.7071 5.70711C34.8946 5.51957 35 5.26522 35 5C35 4.73478 34.8946 4.48043 34.7071 4.29289C34.5196 4.10536 34.2652 4 34 4Z" fill="#01070E"/>
<path d="M6 31C6 31.2652 6.10536 31.5196 6.29289 31.7071C6.48043 31.8946 6.73478 32 7 32H15C15.2652 32 15.5196 31.8946 15.7071 31.7071C15.8946 31.5196 16 31.2652 16 31V8H6V31ZM8 10H14V30H8V10Z" fill="#01070E"/>
<path d="M20 23C20 23.2652 20.1054 23.5196 20.2929 23.7071C20.4804 23.8946 20.7348 24 21 24H29C29.2652 24 29.5196 23.8946 29.7071 23.7071C29.8946 23.5196 30 23.2652 30 23V8H20V23ZM22 10H28V22H22V10Z" fill="#01070E"/>
</svg>
