<svg width="36" height="36" viewBox="0 0 36 36" fill="none" xmlns="http://www.w3.org/2000/svg">
<path d="M29.5198 22.5201L17.9998 10.6001L6.4798 22.5201C6.16684 22.845 5.99577 23.2809 6.0042 23.7319C6.01264 24.1829 6.19991 24.6121 6.5248 24.9251C6.84969 25.2381 7.28559 25.4091 7.73662 25.4007C8.18764 25.3922 8.61684 25.205 8.9298 24.8801L17.9998 15.4901L27.0798 24.8801C27.3928 25.205 27.822 25.3922 28.273 25.4007C28.724 25.4091 29.1599 25.2381 29.4848 24.9251C29.8097 24.6121 29.9969 24.1829 30.0054 23.7319C30.0138 23.2809 29.8428 22.845 29.5298 22.5201H29.5198Z" fill="#01070E"/>
</svg>
