<svg width="32" height="32" viewBox="0 0 32 32" fill="none" xmlns="http://www.w3.org/2000/svg">
<path d="M8.15993 29.7103C7.37184 30.0047 6.5159 30.0669 5.69353 29.8897C4.87115 29.7124 4.11682 29.3031 3.51993 28.7103C3.10859 28.304 2.78258 27.8196 2.56106 27.2855C2.33953 26.7515 2.22695 26.1785 2.22993 25.6003C2.23435 25.1939 2.29492 24.7901 2.40993 24.4003C1.97641 23.5896 1.64073 22.7302 1.40993 21.8403C0.490929 23.1079 0.0684537 24.6684 0.222454 26.2265C0.376455 27.7845 1.09625 29.2321 2.24562 30.2952C3.39499 31.3584 4.8942 31.9633 6.45953 31.9956C8.02487 32.0279 9.54773 31.4852 10.7399 30.4703C9.85327 30.3183 8.9874 30.0633 8.15993 29.7103Z" fill="#01070E"/>
<path d="M16.41 25.6803C14.9652 26.4856 13.2974 26.7982 11.659 26.5709C10.0206 26.3435 8.50092 25.5885 7.32999 24.4203C6.16031 23.2546 5.40329 21.7388 5.17405 20.1035C4.94481 18.4681 5.25589 16.8026 6.05999 15.3603C5.841 14.4251 5.71703 13.4703 5.68999 12.5103C3.98838 14.3257 3.05986 16.7319 3.10092 19.2198C3.14198 21.7077 4.1494 24.082 5.90999 25.8403C7.67535 27.5953 10.0517 28.5985 12.5407 28.6395C15.0296 28.6805 17.4378 27.7561 19.26 26.0603C18.2997 26.0286 17.345 25.9013 16.41 25.6803Z" fill="#01070E"/>
<path d="M19.6601 24.2102C16.8613 24.2061 14.1504 23.2318 11.9893 21.4532C9.82813 19.6747 8.35039 17.202 7.80774 14.4562C7.26509 11.7105 7.6911 8.86149 9.01321 6.39457C10.3353 3.92764 12.4717 1.99535 15.0586 0.926794C17.6455 -0.141759 20.5228 -0.280477 23.2004 0.534268C25.8781 1.34901 28.1905 3.06683 29.7438 5.39513C31.2971 7.72342 31.9952 10.5182 31.7192 13.3034C31.4432 16.0887 30.2102 18.6921 28.2301 20.6702C27.1042 21.7943 25.7678 22.6855 24.2974 23.293C22.8269 23.9004 21.2511 24.2121 19.6601 24.2102ZM19.6601 2.00024C18.3316 1.99893 17.0159 2.25946 15.7881 2.76695C14.5604 3.27444 13.4447 4.01893 12.5048 4.95786C11.565 5.89679 10.8194 7.01175 10.3107 8.239C9.80197 9.46626 9.54014 10.7817 9.54014 12.1102C9.54033 13.4401 9.80575 14.7565 10.3209 15.9825C10.836 17.2084 11.5905 18.3194 12.5401 19.2502C14.4379 21.1475 17.0116 22.2134 19.6951 22.2134C22.3787 22.2134 24.9523 21.1475 26.8501 19.2502C28.2635 17.8334 29.2246 16.029 29.6116 14.0655C29.9987 12.102 29.7943 10.0678 29.0243 8.22058C28.2544 6.37335 26.9535 4.79619 25.2865 3.68885C23.6195 2.58152 21.6614 1.99384 19.6601 2.00024Z" fill="#01070E"/>
</svg>
