<svg width="36" height="36" viewBox="0 0 36 36" fill="none" xmlns="http://www.w3.org/2000/svg">
<path d="M8 8H4V10H10V4H8V8Z" fill="#01070E"/>
<path d="M19 8H15V10H21V4H19V8Z" fill="#01070E"/>
<path d="M30 4V8H26V10H32V4H30Z" fill="#01070E"/>
<path d="M8 19H4V21H10V15H8V19Z" fill="#01070E"/>
<path d="M19 19H15V21H21V15H19V19Z" fill="#01070E"/>
<path d="M30 19H26V21H32V15H30V19Z" fill="#01070E"/>
<path d="M8 30H4V32H10V26H8V30Z" fill="#01070E"/>
<path d="M19 30H15V32H21V26H19V30Z" fill="#01070E"/>
<path d="M30 30H26V32H32V26H30V30Z" fill="#01070E"/>
</svg>
