<svg width="36" height="36" viewBox="0 0 36 36" fill="none" xmlns="http://www.w3.org/2000/svg">
<path d="M8 8H4V10H10V4H8V8Z" fill="#01070E"/>
<path d="M8 19H4V21H10V15H8V19Z" fill="#01070E"/>
<path d="M19 19H15V21H21V15H19V19Z" fill="#01070E"/>
<path d="M30 15V19H26V21H32V15H30Z" fill="#01070E"/>
<path d="M8 30H4V32H10V26H8V30Z" fill="#01070E"/>
<path d="M19 30H15V32H21V26H19V30Z" fill="#01070E"/>
<path d="M30 30H26V32H32V26H30V30Z" fill="#01070E"/>
<path d="M19 8H15V10H19V9.89L21 6.5V4H19V8Z" fill="#01070E"/>
<path d="M26.8504 1.13981L21.1304 10.9998C20.9973 11.1951 20.9209 11.4235 20.9097 11.6596C20.8984 11.8957 20.9527 12.1303 21.0666 12.3374C21.1806 12.5445 21.3496 12.716 21.555 12.8329C21.7604 12.9498 21.9942 13.0076 22.2304 12.9998H33.6804C33.9166 13.0076 34.1504 12.9498 34.3558 12.8329C34.5612 12.716 34.7302 12.5445 34.8441 12.3374C34.958 12.1303 35.0123 11.8957 35.0011 11.6596C34.9898 11.4235 34.9135 11.1951 34.7804 10.9998L29.0604 1.13981C28.9476 0.946869 28.7862 0.786825 28.5923 0.675603C28.3985 0.564381 28.1789 0.505859 27.9554 0.505859C27.7319 0.505859 27.5123 0.564381 27.3184 0.675603C27.1245 0.786825 26.9632 0.946869 26.8504 1.13981Z" fill="#01070E"/>
</svg>
