<svg width="36" height="36" viewBox="0 0 36 36" fill="none" xmlns="http://www.w3.org/2000/svg">
<path d="M18.0008 17.0001C19.4767 17.0021 20.92 16.5662 22.1481 15.7477C23.3762 14.9292 24.3339 13.7648 24.9 12.4018C25.4662 11.0389 25.6154 9.5386 25.3287 8.09084C25.0419 6.64308 24.3322 5.3129 23.2893 4.2686C22.2464 3.2243 20.9172 2.51281 19.4698 2.22416C18.0225 1.9355 16.522 2.08265 15.1583 2.64698C13.7946 3.21132 12.6289 4.16748 11.8087 5.39448C10.9886 6.62149 10.5508 8.0642 10.5508 9.54007C10.5508 11.5169 11.3354 13.4128 12.7322 14.8116C14.1291 16.2103 16.024 16.9974 18.0008 17.0001ZM18.0008 4.07008C19.0815 4.0681 20.1385 4.38689 21.038 4.98608C21.9374 5.58527 22.6387 6.43791 23.0532 7.436C23.4677 8.43409 23.5767 9.53274 23.3663 10.5928C23.156 11.6529 22.6358 12.6267 21.8716 13.3909C21.1074 14.1551 20.1336 14.6753 19.0735 14.8856C18.0134 15.096 16.9148 14.987 15.9167 14.5725C14.9186 14.158 14.066 13.4567 13.4668 12.5572C12.8676 11.6578 12.5488 10.6008 12.5508 9.52008C12.5534 8.07546 13.1285 6.69076 14.15 5.66926C15.1715 4.64776 16.5562 4.07272 18.0008 4.07008Z" fill="#01070E"/>
<path d="M6.00063 31.8901V25.7701C7.5445 24.1498 9.40868 22.8685 11.4746 22.0077C13.5405 21.1469 15.763 20.7254 18.0006 20.7701C21.0633 20.7289 24.0777 21.5352 26.7106 23.1001L28.0606 21.5901C25.0504 19.6941 21.558 18.7047 18.0006 18.7401C15.3978 18.6738 12.8125 19.1825 10.4288 20.23C8.0452 21.2775 5.92201 22.8379 4.21063 24.8001C4.07723 24.972 4.0035 25.1826 4.00063 25.4001V31.8901C3.98718 32.4348 4.19008 32.9627 4.56491 33.3581C4.93975 33.7536 5.45598 33.9844 6.00063 34.0001H18.3906L16.4906 32.0001L6.00063 31.8901Z" fill="#01070E"/>
<path d="M30.0008 31.8902V32.0002H26.8508L25.0508 34.0002H30.0008C30.5384 33.9845 31.0486 33.7592 31.4223 33.3724C31.796 32.9856 32.0036 32.468 32.0008 31.9302V26.2002L30.0008 28.4302V31.8902Z" fill="#01070E"/>
<path d="M34.76 18.6198C34.5623 18.4437 34.3028 18.3533 34.0385 18.3683C33.7742 18.3833 33.5266 18.5025 33.35 18.6998L21.73 31.6998L16.53 26.1098C16.4447 26.0099 16.3405 25.9279 16.2234 25.8684C16.1064 25.8088 15.9787 25.7729 15.8478 25.7627C15.7169 25.7525 15.5852 25.7682 15.4603 25.8089C15.3355 25.8495 15.2198 25.9144 15.12 25.9998C15.0223 26.0887 14.9431 26.1961 14.8871 26.3159C14.8311 26.4356 14.7994 26.5652 14.7939 26.6972C14.7883 26.8293 14.8089 26.9611 14.8546 27.0851C14.9003 27.2092 14.9701 27.3229 15.06 27.4198L21.75 34.6198L34.84 19.9998C35.0069 19.8037 35.0918 19.5508 35.0769 19.2937C35.062 19.0366 34.9485 18.7952 34.76 18.6198Z" fill="#01070E"/>
</svg>
