<svg width="36" height="36" viewBox="0 0 36 36" fill="none" xmlns="http://www.w3.org/2000/svg">
<path d="M28.8898 20.91L23.8898 18L28.7598 15.14C29.2259 14.8834 29.6184 14.5116 29.8998 14.06C30.2516 13.4885 30.4016 12.8155 30.3258 12.1486C30.25 11.4818 29.9528 10.8596 29.4817 10.3816C29.0106 9.90362 28.3928 9.59738 27.7272 9.51188C27.0615 9.42638 26.3864 9.56656 25.8098 9.91L20.9998 12.76V7C20.9998 6.20435 20.6837 5.44129 20.1211 4.87868C19.5585 4.31607 18.7954 4 17.9998 4C17.2041 4 16.4411 4.31607 15.8785 4.87868C15.3159 5.44129 14.9998 6.20435 14.9998 7V12.76L10.1498 9.91C9.80884 9.68012 9.42427 9.52278 9.01996 9.44776C8.61565 9.37274 8.20024 9.38164 7.79951 9.47391C7.39879 9.56618 7.02131 9.73984 6.69052 9.98412C6.35973 10.2284 6.08269 10.5381 5.87661 10.8939C5.67052 11.2497 5.53979 11.6442 5.49253 12.0526C5.44528 12.4611 5.4825 12.875 5.60189 13.2685C5.72129 13.662 5.92031 14.0267 6.18658 14.3401C6.45286 14.6534 6.78072 14.9087 7.14979 15.09L12.1498 18L7.19979 20.86C6.73366 21.1166 6.34115 21.4884 6.05979 21.94C5.71281 22.5115 5.5667 23.1826 5.64465 23.8466C5.72259 24.5107 6.02013 25.1296 6.49002 25.6053C6.95991 26.0809 7.57523 26.3859 8.23827 26.4719C8.90132 26.558 9.57409 26.42 10.1498 26.08L14.9998 23.24V28.9C14.9762 29.5393 15.1575 30.1693 15.5173 30.6982C15.8771 31.2272 16.3965 31.6272 16.9998 31.84C17.4532 32.0003 17.9385 32.0493 18.4148 31.9827C18.8911 31.9162 19.3444 31.7361 19.7366 31.4577C20.1287 31.1793 20.4482 30.8107 20.668 30.383C20.8879 29.9552 21.0016 29.4809 20.9998 29V23.24L25.8498 26.09C26.1907 26.3199 26.5753 26.4772 26.9796 26.5522C27.3839 26.6273 27.7993 26.6184 28.2001 26.5261C28.6008 26.4338 28.9783 26.2602 29.3091 26.0159C29.6398 25.7716 29.9169 25.4619 30.123 25.1061C30.3291 24.7502 30.4598 24.3558 30.507 23.9474C30.5543 23.5389 30.5171 23.125 30.3977 22.7315C30.2783 22.338 30.0793 21.9733 29.813 21.6599C29.5467 21.3466 29.2189 21.0913 28.8498 20.91H28.8898ZM28.2398 24C28.1736 24.1138 28.0857 24.2133 27.9809 24.293C27.8762 24.3727 27.7568 24.4309 27.6295 24.4644C27.5022 24.4978 27.3696 24.5058 27.2393 24.4879C27.1089 24.47 26.9833 24.4265 26.8698 24.36L18.9998 19.75V29C18.9998 29.2652 18.8944 29.5196 18.7069 29.7071C18.5194 29.8946 18.265 30 17.9998 30C17.7346 30 17.4802 29.8946 17.2927 29.7071C17.1051 29.5196 16.9998 29.2652 16.9998 29V19.75L9.12979 24.36C8.9042 24.462 8.64881 24.4766 8.41304 24.4011C8.17726 24.3256 7.97787 24.1654 7.85345 23.9514C7.72902 23.7373 7.6884 23.4848 7.73944 23.2425C7.79049 23.0003 7.92958 22.7856 8.12979 22.64L15.9998 18L8.09979 13.36C7.97228 13.3024 7.85829 13.2186 7.76518 13.1142C7.67207 13.0097 7.60191 12.8869 7.55925 12.7537C7.51658 12.6204 7.50236 12.4797 7.51749 12.3406C7.53263 12.2015 7.57679 12.0671 7.64712 11.9461C7.71745 11.8252 7.81238 11.7203 7.92578 11.6383C8.03917 11.5563 8.16851 11.4991 8.30542 11.4702C8.44234 11.4414 8.58379 11.4416 8.72062 11.4708C8.85745 11.5001 8.98663 11.5577 9.09979 11.64L16.9998 16.25V7C16.9998 6.73478 17.1051 6.48043 17.2927 6.29289C17.4802 6.10536 17.7346 6 17.9998 6C18.265 6 18.5194 6.10536 18.7069 6.29289C18.8944 6.48043 18.9998 6.73478 18.9998 7V16.25L26.8698 11.63C27.0954 11.528 27.3508 11.5134 27.5865 11.5889C27.8223 11.6644 28.0217 11.8246 28.1461 12.0386C28.2706 12.2527 28.3112 12.5052 28.2601 12.7475C28.2091 12.9897 28.07 13.2044 27.8698 13.35L19.9998 18L27.8998 22.64C28.1234 22.7769 28.2844 22.9961 28.348 23.2504C28.4116 23.5048 28.3727 23.774 28.2398 24Z" fill="#01070E"/>
</svg>
