<svg width="36" height="36" viewBox="0 0 36 36" fill="none" xmlns="http://www.w3.org/2000/svg">
<path d="M18 14.0498C17.2089 14.0498 16.4355 14.2844 15.7777 14.7239C15.1199 15.1635 14.6072 15.7882 14.3045 16.5191C14.0017 17.25 13.9225 18.0542 14.0769 18.8302C14.2312 19.6061 14.6122 20.3188 15.1716 20.8782C15.731 21.4376 16.4437 21.8186 17.2196 21.9729C17.9956 22.1273 18.7998 22.0481 19.5307 21.7453C20.2616 21.4426 20.8864 20.9299 21.3259 20.2721C21.7654 19.6143 22 18.8409 22 18.0498C22 16.9889 21.5786 15.9715 20.8284 15.2214C20.0783 14.4712 19.0609 14.0498 18 14.0498ZM18 20.4898C17.5214 20.4898 17.0535 20.3479 16.6555 20.082C16.2576 19.816 15.9474 19.4381 15.7642 18.9959C15.581 18.5537 15.5331 18.0671 15.6265 17.5977C15.7199 17.1283 15.9504 16.697 16.2888 16.3586C16.6272 16.0202 17.0584 15.7897 17.5279 15.6963C17.9973 15.6029 18.4839 15.6509 18.9261 15.834C19.3683 16.0172 19.7462 16.3274 20.0122 16.7253C20.2781 17.1233 20.42 17.5912 20.42 18.0698C20.42 18.3876 20.3574 18.7023 20.2358 18.9959C20.1142 19.2895 19.9359 19.5563 19.7112 19.781C19.4865 20.0057 19.2197 20.184 18.9261 20.3056C18.6325 20.4272 18.3178 20.4898 18 20.4898Z" fill="#01070E"/>
<path d="M24.2307 11.7098C22.8102 10.2878 21.2824 8.97723 19.6607 7.78984C20.7698 7.11888 21.934 6.54347 23.1407 6.06984C23.4607 5.94984 23.7607 5.85984 24.0607 5.76984C24.3041 6.06434 24.6176 6.29295 24.9724 6.43466C25.3273 6.57636 25.712 6.62663 26.0913 6.58083C26.4707 6.53503 26.8324 6.39464 27.1433 6.17255C27.4542 5.95047 27.7043 5.65381 27.8707 5.30984C28.5847 5.3745 29.2585 5.66928 29.7907 6.14984C30.9807 7.33984 31.0107 9.73984 29.8907 12.7298C30.3807 13.3798 30.8307 14.0398 31.2407 14.7298C31.4107 14.3298 31.5907 13.9398 31.7307 13.5498C33.2007 9.69984 33.0107 6.54984 31.2007 4.76984C30.2951 3.91231 29.1157 3.4023 27.8707 3.32984C27.6629 2.8968 27.3243 2.54003 26.9027 2.31C26.4811 2.07997 25.9978 1.98833 25.5212 2.04804C25.0447 2.10775 24.5989 2.31578 24.2471 2.64272C23.8953 2.96965 23.6551 3.39894 23.5607 3.86984C23.1907 3.97984 22.8207 4.08984 22.4307 4.23984C20.8329 4.86907 19.302 5.65632 17.8607 6.58984C16.4164 5.64429 14.8823 4.84374 13.2807 4.19984C9.43065 2.73984 6.28065 2.91984 4.51065 4.72984C2.85065 6.39984 2.58065 9.16984 3.68065 12.5898C3.42959 12.9127 3.26998 13.2971 3.21856 13.7028C3.16713 14.1085 3.22578 14.5206 3.38836 14.8959C3.55095 15.2712 3.81147 15.5958 4.14264 15.8358C4.4738 16.0757 4.86342 16.2222 5.27065 16.2598C5.59065 16.8698 5.94065 17.4798 6.33065 18.0798C5.40199 19.5243 4.62137 21.0587 4.00065 22.6598C2.53065 26.4998 2.72065 29.6598 4.53065 31.4298C5.08134 31.9445 5.72977 32.3434 6.43749 32.6027C7.1452 32.8621 7.8978 32.9768 8.65065 32.9398C10.248 32.8878 11.8231 32.549 13.3007 31.9398C14.9007 31.3087 16.4348 30.5216 17.8807 29.5898C19.3131 30.5429 20.8374 31.3503 22.4307 31.9998C23.6019 32.4607 24.8294 32.7634 26.0807 32.8998C26.3003 33.3669 26.6706 33.7465 27.1321 33.9776C27.5936 34.2087 28.1194 34.2779 28.6249 34.174C29.1305 34.0701 29.5864 33.7992 29.9194 33.4049C30.2523 33.0105 30.443 32.5157 30.4607 31.9998C30.7262 31.8357 30.9742 31.6447 31.2007 31.4298C33.0107 29.6198 33.2007 26.4998 31.7307 22.6598C30.006 18.5353 27.4533 14.8084 24.2307 11.7098ZM12.5707 30.0898C9.57065 31.2398 7.12065 31.2198 5.92065 30.0098C4.72065 28.7998 4.69065 26.3898 5.85065 23.3698C6.32067 22.1633 6.89274 20.9991 7.56065 19.8898C8.75161 21.5056 10.0619 23.0299 11.4807 24.4498C11.9107 24.8798 12.3507 25.2998 12.7907 25.6998C13.3907 25.3932 14.0007 25.0432 14.6207 24.6498C14.0407 24.1298 13.4607 23.6498 12.9007 23.0398C10.65 20.8283 8.71808 18.3141 7.16065 15.5698C7.47342 15.2457 7.68363 14.8365 7.76499 14.3934C7.84635 13.9504 7.79524 13.4932 7.61806 13.079C7.44087 12.6649 7.14548 12.3122 6.76886 12.0651C6.39223 11.818 5.9511 11.6875 5.50065 11.6898C4.75065 9.18984 4.88065 7.19984 5.93065 6.14984C6.30047 5.82393 6.73136 5.57476 7.19831 5.41683C7.66525 5.25889 8.15893 5.19533 8.65065 5.22984C10.0001 5.27491 11.3307 5.55932 12.5807 6.06984C13.7873 6.54347 14.9515 7.11888 16.0607 7.78984C14.4389 8.97723 12.9111 10.2878 11.4907 11.7098C11.0507 12.1498 10.6207 12.6098 10.2007 13.0698C10.5017 13.7034 10.8355 14.3209 11.2007 14.9198C11.7407 14.3098 12.2907 13.7098 12.8807 13.1198C14.4192 11.583 16.0925 10.1874 17.8807 8.94984C19.6497 10.1921 21.306 11.5875 22.8307 13.1198C24.3678 14.6581 25.7634 16.3315 27.0007 18.1198C25.7603 19.9058 24.3649 21.5789 22.8307 23.1198C19.9209 26.1175 16.4295 28.4893 12.5707 30.0898ZM29.7907 29.9998L29.6307 30.1298C29.368 29.9072 29.0583 29.7473 28.7247 29.6621C28.3912 29.5768 28.0426 29.5686 27.7054 29.638C27.3682 29.7073 27.0512 29.8525 26.7784 30.0624C26.5056 30.2724 26.2841 30.5417 26.1307 30.8498C25.1027 30.7178 24.0951 30.4592 23.1307 30.0798C21.9222 29.6102 20.7577 29.0346 19.6507 28.3598C21.2724 27.1725 22.8002 25.8619 24.2207 24.4398C25.6449 23.025 26.9556 21.5003 28.1407 19.8798C28.8115 20.989 29.3869 22.1532 29.8607 23.3598C31.0007 26.3898 31.0007 28.8098 29.7907 29.9998Z" fill="#01070E"/>
</svg>
