<svg width="36" height="36" viewBox="0 0 36 36" fill="none" xmlns="http://www.w3.org/2000/svg">
<path d="M32 5H4C2.895 5 2 5.895 2 7V29C2 30.105 2.895 31 4 31H32C33.105 31 34 30.105 34 29V7C34 5.895 33.105 5 32 5ZM4 29V7H32V29H4Z" fill="#01070E"/>
<path d="M6.007 26.7308L27.73 26.7298C28.49 26.6698 28.91 25.7998 28.47 25.1698C28.3 24.9198 28.03 24.7598 27.73 24.7398L8.001 24.7358L8.01 11.0098C8.01 10.2298 7.17 9.74984 6.5 10.1398C6.19 10.3098 6 10.6498 6 11.0098L6.007 26.7308Z" fill="#01070E"/>
</svg>
