<svg width="36" height="36" viewBox="0 0 36 36" fill="none" xmlns="http://www.w3.org/2000/svg">
<path d="M30 22H6V24H30V22Z" fill="#01070E"/>
<path d="M30 26H26V28H30V26Z" fill="#01070E"/>
<path d="M13.0006 9.92016L17.0006 6.00016V19.0002C17.0006 19.2654 17.106 19.5197 17.2935 19.7073C17.4811 19.8948 17.7354 20.0002 18.0006 20.0002C18.2659 20.0002 18.5202 19.8948 18.7077 19.7073C18.8953 19.5197 19.0006 19.2654 19.0006 19.0002V6.00016L20.4706 7.46016L21.4706 5.67016L18.0006 2.16016L11.6106 8.50016C11.4558 8.69074 11.3764 8.93164 11.3878 9.17695C11.3991 9.42225 11.5003 9.65481 11.6721 9.8303C11.8439 10.0058 12.0742 10.1119 12.3192 10.1285C12.5642 10.1451 12.8068 10.0709 13.0006 9.92016Z" fill="#01070E"/>
<path d="M31.58 15.4H29.46C30.46 18.25 31.77 21.77 32 22.48V30H4V22.48C4.28 21.65 7.05 14 7.05 14H15V12H7.07C6.65285 11.9836 6.24171 12.1035 5.89886 12.3417C5.55601 12.5799 5.30014 12.9234 5.17 13.32C2 22 2 22.1 2 22.33V30C2 30.5305 2.21071 31.0392 2.58579 31.4142C2.96086 31.7893 3.46957 32 4 32H32C32.5304 32 33.0391 31.7893 33.4142 31.4142C33.7893 31.0392 34 30.5305 34 30V22.33C34 22.12 34 22 31.58 15.4Z" fill="#01070E"/>
<path d="M26.8504 1.13981L21.1304 10.9998C20.9973 11.1951 20.9209 11.4235 20.9097 11.6596C20.8984 11.8957 20.9527 12.1303 21.0666 12.3374C21.1806 12.5445 21.3496 12.716 21.555 12.8329C21.7604 12.9498 21.9942 13.0076 22.2304 12.9998H33.6804C33.9166 13.0076 34.1504 12.9498 34.3558 12.8329C34.5612 12.716 34.7302 12.5445 34.8441 12.3374C34.958 12.1303 35.0123 11.8957 35.0011 11.6596C34.9898 11.4235 34.9135 11.1951 34.7804 10.9998L29.0604 1.13981C28.9476 0.946869 28.7862 0.786825 28.5923 0.675603C28.3985 0.564381 28.1789 0.505859 27.9554 0.505859C27.7319 0.505859 27.5123 0.564381 27.3184 0.675603C27.1245 0.786825 26.9632 0.946869 26.8504 1.13981Z" fill="#01070E"/>
</svg>
