<svg width="36" height="36" viewBox="0 0 36 36" fill="none" xmlns="http://www.w3.org/2000/svg">
<path d="M30 22H6V24H30V22Z" fill="#01070E"/>
<path d="M30 26H26V28H30V26Z" fill="#01070E"/>
<path d="M18.0005 19.84L22.4705 15.4H22.2405C21.5288 15.3949 20.8339 15.183 20.2405 14.79L19.0005 16V4C19.0005 3.73478 18.8951 3.48043 18.7076 3.29289C18.5201 3.10536 18.2657 3 18.0005 3C17.7353 3 17.4809 3.10536 17.2934 3.29289C17.1058 3.48043 17.0005 3.73478 17.0005 4V16L13.0005 12.05C12.8122 11.863 12.5573 11.7585 12.2919 11.7594C12.0266 11.7604 11.7725 11.8667 11.5855 12.055C11.3985 12.2433 11.294 12.4982 11.2949 12.7635C11.2959 13.0289 11.4022 13.283 11.5905 13.47L18.0005 19.84Z" fill="#01070E"/>
<path d="M31.58 15.4H29.46C30.46 18.25 31.77 21.77 32 22.48V30H4V22.48C4.28 21.65 7.05 14 7.05 14H9.58C9.30536 13.3691 9.25593 12.663 9.44 12H7.07C6.65285 11.9836 6.24171 12.1035 5.89886 12.3417C5.55601 12.5799 5.30014 12.9234 5.17 13.32C2 22 2 22.1 2 22.33V30C2 30.5305 2.21071 31.0392 2.58579 31.4142C2.96086 31.7893 3.46957 32 4 32H32C32.5304 32 33.0391 31.7893 33.4142 31.4142C33.7893 31.0392 34 30.5305 34 30V22.33C34 22.12 34 22 31.58 15.4Z" fill="#01070E"/>
<path d="M26.8504 1.13981L21.1304 10.9998C20.9973 11.1951 20.9209 11.4235 20.9097 11.6596C20.8984 11.8957 20.9527 12.1303 21.0666 12.3374C21.1806 12.5445 21.3496 12.716 21.555 12.8329C21.7604 12.9498 21.9942 13.0076 22.2304 12.9998H33.6804C33.9166 13.0076 34.1504 12.9498 34.3558 12.8329C34.5612 12.716 34.7302 12.5445 34.8441 12.3374C34.958 12.1303 35.0123 11.8957 35.0011 11.6596C34.9898 11.4235 34.9135 11.1951 34.7804 10.9998L29.0604 1.13981C28.9476 0.946869 28.7862 0.786825 28.5923 0.675603C28.3985 0.564381 28.1789 0.505859 27.9554 0.505859C27.7319 0.505859 27.5123 0.564381 27.3184 0.675603C27.1245 0.786825 26.9632 0.946869 26.8504 1.13981Z" fill="#01070E"/>
</svg>
