<svg width="36" height="36" viewBox="0 0 36 36" fill="none" xmlns="http://www.w3.org/2000/svg">
<path d="M30 22H6V24H30V22Z" fill="#01070E"/>
<path d="M30 26H26V28H30V26Z" fill="#01070E"/>
<path d="M13.0006 9.92016L17.0006 6.00016V19.0002C17.0006 19.2654 17.106 19.5197 17.2935 19.7073C17.4811 19.8948 17.7354 20.0002 18.0006 20.0002C18.2659 20.0002 18.5202 19.8948 18.7077 19.7073C18.8953 19.5197 19.0006 19.2654 19.0006 19.0002V6.00016L23.0006 9.95016C23.0958 10.0408 23.208 10.1117 23.3306 10.159C23.4532 10.2063 23.584 10.229 23.7154 10.2257C23.8468 10.2225 23.9762 10.1934 24.0964 10.1401C24.2165 10.0868 24.325 10.0104 24.4156 9.91516C24.5062 9.81995 24.5772 9.70782 24.6245 9.58519C24.6718 9.46255 24.6944 9.3318 24.6912 9.20041C24.6879 9.06901 24.6588 8.93954 24.6056 8.8194C24.5523 8.69925 24.4758 8.59077 24.3806 8.50016L18.0006 2.16016L11.6106 8.50016C11.4558 8.69074 11.3764 8.93164 11.3878 9.17695C11.3991 9.42225 11.5003 9.65481 11.6721 9.8303C11.8439 10.0058 12.0742 10.1119 12.3192 10.1285C12.5642 10.1451 12.8068 10.0709 13.0006 9.92016Z" fill="#01070E"/>
<path d="M30.84 13.37C30.7154 12.9641 30.4611 12.6103 30.1161 12.3628C29.7711 12.1154 29.3544 11.9879 28.93 12H21V14H28.95C30 16.94 31.72 21.65 32 22.48V30H4V22.48C4.28 21.65 7.05 14 7.05 14H15V12H7.07C6.65285 11.9836 6.24171 12.1035 5.89886 12.3417C5.55601 12.5799 5.30014 12.9234 5.17 13.32C2 22 2 22.1 2 22.33V30C2 30.5305 2.21071 31.0392 2.58579 31.4142C2.96086 31.7893 3.46957 32 4 32H32C32.5304 32 33.0391 31.7893 33.4142 31.4142C33.7893 31.0392 34 30.5305 34 30V22.33C34 22.1 34 22 30.84 13.37Z" fill="#01070E"/>
</svg>
