<svg width="36" height="36" viewBox="0 0 36 36" fill="none" xmlns="http://www.w3.org/2000/svg">
<path d="M24 33H12C11.7348 33 11.4804 32.8946 11.2929 32.7071C11.1054 32.5196 11 32.2652 11 32C11 31.7348 11.1054 31.4804 11.2929 31.2929C11.4804 31.1054 11.7348 31 12 31H24C24.2652 31 24.5196 31.1054 24.7071 31.2929C24.8946 31.4804 25 31.7348 25 32C25 32.2652 24.8946 32.5196 24.7071 32.7071C24.5196 32.8946 24.2652 33 24 33Z" fill="#01070E"/>
<path d="M19 9H17V31.5H19V9Z" fill="#01070E"/>
<path d="M28 7H8C7.73478 7 7.48043 6.89464 7.29289 6.70711C7.10536 6.51957 7 6.26522 7 6C7 5.73478 7.10536 5.48043 7.29289 5.29289C7.48043 5.10536 7.73478 5 8 5H28C28.2652 5 28.5196 5.10536 28.7071 5.29289C28.8946 5.48043 29 5.73478 29 6C29 6.26522 28.8946 6.51957 28.7071 6.70711C28.5196 6.89464 28.2652 7 28 7Z" fill="#01070E"/>
<path d="M26.9295 24.7901C25.8029 24.7944 24.6908 24.5353 23.6821 24.0336C22.6733 23.5318 21.7958 22.8012 21.1195 21.9001L20.5195 21.1001L22.1095 19.8901L22.7095 20.6901C23.2019 21.3406 23.8382 21.8681 24.5687 22.2313C25.2991 22.5945 26.1038 22.7836 26.9195 22.7836C27.7353 22.7836 28.54 22.5945 29.2704 22.2313C30.0009 21.8681 30.6372 21.3406 31.1295 20.6901L31.7295 19.8901L33.3195 21.1001L32.7195 21.9001C32.0453 22.7985 31.1709 23.5274 30.1659 24.0291C29.1609 24.5307 28.0528 24.7913 26.9295 24.7901Z" fill="#01070E"/>
<path d="M30.5096 19.2502C30.3545 19.2496 30.2029 19.2039 30.0733 19.1186C29.9437 19.0334 29.8417 18.9124 29.7796 18.7702L26.9296 12.2002L24.0796 18.7702C23.9947 18.9651 23.8359 19.1184 23.6381 19.1962C23.4402 19.274 23.2195 19.2701 23.0246 19.1852C22.8297 19.1003 22.6764 18.9415 22.5986 18.7436C22.5208 18.5458 22.5247 18.3251 22.6096 18.1302L26.1996 9.8702C26.2699 9.73613 26.3756 9.62386 26.5052 9.54552C26.6347 9.46719 26.7832 9.42578 26.9346 9.42578C27.086 9.42578 27.2345 9.46719 27.3641 9.54552C27.4936 9.62386 27.5993 9.73613 27.6696 9.8702L31.2496 18.1302C31.3026 18.2517 31.3246 18.3845 31.3136 18.5166C31.3026 18.6487 31.259 18.776 31.1866 18.887C31.1142 18.9981 31.0154 19.0894 30.8989 19.1528C30.7825 19.2162 30.6522 19.2497 30.5196 19.2502H30.5096Z" fill="#01070E"/>
<path d="M9.6793 24.7899C8.55434 24.7926 7.44427 24.5328 6.43739 24.0311C5.4305 23.5294 4.55458 22.7996 3.8793 21.8999L3.2793 21.0999L4.8593 19.8999L5.4593 20.6999C5.95163 21.3504 6.58798 21.8779 7.31842 22.2411C8.04886 22.6043 8.85353 22.7933 9.6693 22.7933C10.4851 22.7933 11.2897 22.6043 12.0202 22.2411C12.7506 21.8779 13.387 21.3504 13.8793 20.6999L14.4793 19.8999L16.0693 21.1099L15.4693 21.9099C14.794 22.8064 13.9192 23.5334 12.9142 24.0333C11.9093 24.5332 10.8017 24.7922 9.6793 24.7899Z" fill="#01070E"/>
<path d="M13.2594 19.2502C13.1043 19.2496 12.9527 19.2039 12.8231 19.1186C12.6935 19.0334 12.5914 18.9124 12.5294 18.7702L9.67937 12.2002L6.83937 18.7702C6.7545 18.9651 6.59567 19.1184 6.39782 19.1962C6.19997 19.274 5.97931 19.2701 5.78437 19.1852C5.58944 19.1003 5.4362 18.9415 5.35838 18.7436C5.28055 18.5458 5.2845 18.3251 5.36937 18.1302L8.94937 9.8702C9.0197 9.73613 9.12536 9.62386 9.25492 9.54552C9.38447 9.46719 9.53298 9.42578 9.68437 9.42578C9.83577 9.42578 9.98428 9.46719 10.1138 9.54552C10.2434 9.62386 10.349 9.73613 10.4194 9.8702L13.9994 18.1302C14.0524 18.2517 14.0744 18.3845 14.0634 18.5166C14.0524 18.6487 14.0088 18.776 13.9364 18.887C13.864 18.9981 13.7651 19.0894 13.6487 19.1528C13.5323 19.2162 13.4019 19.2497 13.2694 19.2502H13.2594Z" fill="#01070E"/>
</svg>
