<svg width="36" height="36" viewBox="0 0 36 36" fill="none" xmlns="http://www.w3.org/2000/svg">
<path d="M18 2C14.8355 2 11.7421 2.93838 9.11088 4.69649C6.4797 6.45459 4.42894 8.95345 3.21793 11.8771C2.00693 14.8007 1.69008 18.0177 2.30744 21.1214C2.92481 24.2251 4.44866 27.0761 6.6863 29.3137C8.92394 31.5513 11.7749 33.0752 14.8786 33.6926C17.9823 34.3099 21.1993 33.9931 24.1229 32.7821C27.0466 31.5711 29.5454 29.5203 31.3035 26.8891C33.0616 24.2579 34 21.1645 34 18C34 13.7565 32.3143 9.68687 29.3137 6.68629C26.3131 3.68571 22.2435 2 18 2ZM4.00001 18C4.00096 14.6359 5.21931 11.3858 7.43001 8.85L27.15 28.57C25.1219 30.3213 22.6338 31.4538 19.9812 31.833C17.3285 32.2122 14.6228 31.8222 12.1852 30.7092C9.74764 29.5963 7.68069 27.8072 6.22979 25.5543C4.7789 23.3015 4.005 20.6796 4.00001 18ZM28.57 27.15L8.85001 7.43C11.5334 5.18793 14.9586 4.0312 18.4519 4.18737C21.9452 4.34355 25.2535 5.80133 27.7261 8.27391C30.1987 10.7465 31.6565 14.0549 31.8126 17.5481C31.9688 21.0414 30.8121 24.4666 28.57 27.15Z" fill="#01070E"/>
</svg>
