<svg width="36" height="36" viewBox="0 0 36 36" fill="none" xmlns="http://www.w3.org/2000/svg">
<path d="M3.49937 13.5599L17.9994 5.22992L32.4994 13.5599C32.7279 13.6795 32.9938 13.7061 33.2415 13.6342C33.4892 13.5624 33.6996 13.3976 33.8287 13.1743C33.9577 12.951 33.9955 12.6864 33.9342 12.4359C33.8728 12.1854 33.717 11.9683 33.4994 11.8299L17.9994 2.91992L2.49937 11.8299C2.37986 11.8924 2.27424 11.9785 2.18885 12.0829C2.10346 12.1873 2.04007 12.3079 2.00249 12.4374C1.96491 12.5669 1.95392 12.7027 1.97019 12.8366C1.98645 12.9705 2.02963 13.0997 2.09712 13.2165C2.16462 13.3332 2.25503 13.4351 2.36293 13.516C2.47083 13.597 2.59398 13.6552 2.72498 13.6873C2.85598 13.7194 2.99211 13.7246 3.12519 13.7027C3.25827 13.6809 3.38555 13.6323 3.49937 13.5599Z" fill="#01070E"/>
<path d="M4 25.9999C4 26.2651 4.10536 26.5195 4.29289 26.707C4.48043 26.8945 4.73478 26.9999 5 26.9999H31C31.2652 26.9999 31.5196 26.8945 31.7071 26.707C31.8946 26.5195 32 26.2651 32 25.9999C32 25.7347 31.8946 25.4803 31.7071 25.2928C31.5196 25.1052 31.2652 24.9999 31 24.9999H28V17.6299H26V24.9999H19V17.6299H17V24.9999H10V17.6299H8V24.9999H5C4.73478 24.9999 4.48043 25.1052 4.29289 25.2928C4.10536 25.4803 4 25.7347 4 25.9999Z" fill="#01070E"/>
<path d="M31.0195 14H5.01953V16H31.0195V14Z" fill="#01070E"/>
<path d="M33 29H3C2.73478 29 2.48043 29.1054 2.29289 29.2929C2.10536 29.4804 2 29.7348 2 30C2 30.2652 2.10536 30.5196 2.29289 30.7071C2.48043 30.8946 2.73478 31 3 31H33C33.2652 31 33.5196 30.8946 33.7071 30.7071C33.8946 30.5196 34 30.2652 34 30C34 29.7348 33.8946 29.4804 33.7071 29.2929C33.5196 29.1054 33.2652 29 33 29Z" fill="#01070E"/>
<path d="M22.1509 11.58H25.3609L18.6509 7.71997C18.5292 7.64976 18.3913 7.61279 18.2509 7.61279C18.1104 7.61279 17.9725 7.64976 17.8509 7.71997L11.1309 11.58H14.3409L18.2409 9.33997L22.1509 11.58Z" fill="#01070E"/>
</svg>
