<svg width="36" height="36" viewBox="0 0 36 36" fill="none" xmlns="http://www.w3.org/2000/svg">
<path d="M4 25.9999C4 26.2651 4.10536 26.5195 4.29289 26.707C4.48043 26.8945 4.73478 26.9999 5 26.9999H31C31.2652 26.9999 31.5196 26.8945 31.7071 26.707C31.8946 26.5195 32 26.2651 32 25.9999C32 25.7347 31.8946 25.4803 31.7071 25.2928C31.5196 25.1052 31.2652 24.9999 31 24.9999H28V17.6299H26V24.9999H19V17.6299H17V24.9999H10V17.6299H8V24.9999H5C4.73478 24.9999 4.48043 25.1052 4.29289 25.2928C4.10536 25.4803 4 25.7347 4 25.9999Z" fill="#01070E"/>
<path d="M33 29H3C2.73478 29 2.48043 29.1054 2.29289 29.2929C2.10536 29.4804 2 29.7348 2 30C2 30.2652 2.10536 30.5196 2.29289 30.7071C2.48043 30.8946 2.73478 31 3 31H33C33.2652 31 33.5196 30.8946 33.7071 30.7071C33.8946 30.5196 34 30.2652 34 30C34 29.7348 33.8946 29.4804 33.7071 29.2929C33.5196 29.1054 33.2652 29 33 29Z" fill="#01070E"/>
<path d="M22.5 15C22.038 15.0061 21.5793 14.9209 21.1503 14.7493C20.7213 14.5777 20.3304 14.323 20 14H5V16H31V15H22.5Z" fill="#01070E"/>
<path d="M19.4609 9.73997L20.1409 8.56997L18.6509 7.71997C18.5292 7.64976 18.3913 7.61279 18.2509 7.61279C18.1104 7.61279 17.9725 7.64976 17.8509 7.71997L11.1309 11.58H14.3409L18.2409 9.33997L19.3409 9.96997C19.3909 9.88997 19.4209 9.80997 19.4609 9.73997Z" fill="#01070E"/>
<path d="M22.0494 5.24992L17.9994 2.91992L2.49937 11.8299C2.37986 11.8924 2.27424 11.9785 2.18885 12.0829C2.10346 12.1873 2.04007 12.3079 2.00249 12.4374C1.96491 12.5669 1.95392 12.7027 1.97019 12.8366C1.98645 12.9705 2.02963 13.0997 2.09712 13.2165C2.16462 13.3332 2.25503 13.4351 2.36293 13.516C2.47083 13.597 2.59398 13.6552 2.72498 13.6873C2.85598 13.7194 2.99211 13.7246 3.12519 13.7027C3.25827 13.6809 3.38555 13.6323 3.49937 13.5599L17.9994 5.22992L21.0494 6.99992L22.0494 5.24992Z" fill="#01070E"/>
<path d="M26.8504 1.13981L21.1304 10.9998C20.9973 11.1951 20.9209 11.4235 20.9097 11.6596C20.8984 11.8957 20.9527 12.1303 21.0666 12.3374C21.1806 12.5445 21.3496 12.716 21.555 12.8329C21.7604 12.9498 21.9942 13.0076 22.2304 12.9998H33.6804C33.9166 13.0076 34.1504 12.9498 34.3558 12.8329C34.5612 12.716 34.7302 12.5445 34.8441 12.3374C34.958 12.1303 35.0123 11.8957 35.0011 11.6596C34.9898 11.4235 34.9135 11.1951 34.7804 10.9998L29.0604 1.13981C28.9476 0.946869 28.7862 0.786825 28.5923 0.675603C28.3985 0.564381 28.1789 0.505859 27.9554 0.505859C27.7319 0.505859 27.5123 0.564381 27.3184 0.675603C27.1245 0.786825 26.9632 0.946869 26.8504 1.13981Z" fill="#01070E"/>
</svg>
