<svg width="36" height="36" viewBox="0 0 36 36" fill="none" xmlns="http://www.w3.org/2000/svg">
<path d="M18.5891 11.7702C18.4507 11.5525 18.2336 11.3967 17.9831 11.3354C17.7325 11.274 17.468 11.3118 17.2447 11.4409C17.0214 11.57 16.8566 11.7803 16.7847 12.028C16.7129 12.2757 16.7395 12.5416 16.8591 12.7702L19.3591 17.1102L13.2891 16.1102L18.5791 26.7002C18.7019 26.9292 18.909 27.1014 19.1566 27.1803C19.4042 27.2593 19.6728 27.2387 19.9056 27.123C20.1383 27.0073 20.3168 26.8055 20.4033 26.5605C20.4898 26.3154 20.4775 26.0463 20.3691 25.8102L16.8391 18.7302L23.2191 19.7902L18.5891 11.7702Z" fill="#01070E"/>
<path d="M25.12 4H23V3.58C23 3.16096 22.8335 2.75908 22.5372 2.46277C22.2409 2.16646 21.839 2 21.42 2H14.58C14.161 2 13.7591 2.16646 13.4628 2.46277C13.1665 2.75908 13 3.16096 13 3.58V4H10.88C10.6331 4 10.3886 4.04863 10.1606 4.14311C9.93246 4.23759 9.72521 4.37607 9.55064 4.55064C9.37607 4.72521 9.23759 4.93246 9.14311 5.16056C9.04863 5.38865 9 5.63312 9 5.88V32.12C9 32.3669 9.04863 32.6114 9.14311 32.8394C9.23759 33.0675 9.37607 33.2748 9.55064 33.4494C9.72521 33.6239 9.93246 33.7624 10.1606 33.8569C10.3886 33.9514 10.6331 34 10.88 34H25.12C25.6186 34 26.0968 33.8019 26.4494 33.4494C26.8019 33.0968 27 32.6186 27 32.12V5.88C27 5.38139 26.8019 4.90321 26.4494 4.55064C26.0968 4.19807 25.6186 4 25.12 4ZM25 32H11V6H15V4H21V6H25V32Z" fill="#01070E"/>
</svg>
