<svg width="36" height="36" viewBox="0 0 36 36" fill="none" xmlns="http://www.w3.org/2000/svg">
<path d="M33 29H3C2.73478 29 2.48043 28.8946 2.29289 28.7071C2.10536 28.5196 2 28.2652 2 28C2 27.7348 2.10536 27.4804 2.29289 27.2929C2.48043 27.1054 2.73478 27 3 27H33C33.2652 27 33.5196 27.1054 33.7071 27.2929C33.8946 27.4804 34 27.7348 34 28C34 28.2652 33.8946 28.5196 33.7071 28.7071C33.5196 28.8946 33.2652 29 33 29Z" fill="#01070E"/>
<path d="M33 25H32.38C30.4756 25.0044 28.6304 24.3385 27.1677 23.119C25.705 21.8995 24.7181 20.2041 24.38 18.33C23.62 14.44 21.89 7.94 18 7.94C14.11 7.94 12.31 14.45 11.62 18.33C11.2777 20.2005 10.289 21.8912 8.82672 23.1067C7.36443 24.3222 5.52152 24.9853 3.62 24.98H3C2.73478 24.98 2.48043 24.8746 2.29289 24.6871C2.10536 24.4996 2 24.2452 2 23.98C2 23.7148 2.10536 23.4604 2.29289 23.2729C2.48043 23.0854 2.73478 22.98 3 22.98H3.6C5.02364 22.9789 6.40221 22.4808 7.49767 21.5715C8.59313 20.6623 9.33671 19.3991 9.6 18C11.01 10.12 13.9 6 17.95 6C22 6 24.88 10.16 26.28 18C26.5391 19.4028 27.2809 20.6706 28.3768 21.5838C29.4727 22.4971 30.8535 22.9981 32.28 23H33C33.2652 23 33.5196 23.1054 33.7071 23.2929C33.8946 23.4804 34 23.7348 34 24C34 24.2652 33.8946 24.5196 33.7071 24.7071C33.5196 24.8946 33.2652 25 33 25Z" fill="#01070E"/>
</svg>
