<svg width="36" height="36" viewBox="0 0 36 36" fill="none" xmlns="http://www.w3.org/2000/svg">
<path d="M7.21094 14.07H10.2109C10.4296 14.0422 10.6515 14.0596 10.8632 14.1211C11.0748 14.1826 11.2715 14.2869 11.4412 14.4275C11.6109 14.5681 11.7499 14.7421 11.8496 14.9386C11.9493 15.1351 12.0076 15.35 12.0209 15.57C12.0269 15.8509 11.9506 16.1275 11.8014 16.3656C11.6521 16.6037 11.4364 16.7929 11.1809 16.91C11.497 17.0246 11.7711 17.232 11.9673 17.505C12.1636 17.778 12.2729 18.1039 12.2809 18.44C12.2668 18.6822 12.2025 18.9188 12.0921 19.1349C11.9817 19.3509 11.8275 19.5416 11.6395 19.6949C11.4514 19.8482 11.2335 19.9607 10.9996 20.0252C10.7658 20.0898 10.521 20.105 10.2809 20.07H7.21094V14.07ZM9.92094 16.49C10.4009 16.49 10.7409 16.21 10.7409 15.82C10.7409 15.43 10.4009 15.17 9.92094 15.17H8.49094V16.49H9.92094ZM10.1209 18.97C10.2299 18.9921 10.3423 18.9897 10.4502 18.963C10.5581 18.9363 10.6588 18.886 10.7448 18.8157C10.8309 18.7453 10.9002 18.6567 10.9479 18.5563C10.9955 18.4559 11.0202 18.3461 11.0202 18.235C11.0202 18.1238 10.9955 18.0141 10.9479 17.9136C10.9002 17.8132 10.8309 17.7246 10.7448 17.6543C10.6588 17.5839 10.5581 17.5336 10.4502 17.5069C10.3423 17.4802 10.2299 17.4779 10.1209 17.5H8.49094V19L10.1209 18.97Z" fill="#01070E"/>
<path d="M14.5498 15.2298V16.4298H17.5498V17.5898H14.5498V18.9098H17.8798V20.0698H13.2598V14.0698H17.8798V15.2298H14.5498Z" fill="#01070E"/>
<path d="M20.4091 15.2298H18.5391V14.0698H23.5391V15.2298H21.6991V20.0698H20.4091V15.2298Z" fill="#01070E"/>
<path d="M28 19.1198H25.32L24.94 20.0698H23.5L25.94 14.0698H27.38L29.83 20.0698H28.38L28 19.1198ZM27.55 17.9998L26.66 15.8098L25.77 17.9998H27.55Z" fill="#01070E"/>
<path d="M8.06055 30C7.92937 30.0034 7.79923 29.976 7.68055 29.92C7.49793 29.845 7.3416 29.7176 7.23127 29.5539C7.12093 29.3901 7.06153 29.1974 7.06055 29V25H3.06055C2.79533 25 2.54098 24.8946 2.35344 24.7071C2.1659 24.5196 2.06055 24.2652 2.06055 24V10C2.06055 9.73478 2.1659 9.48043 2.35344 9.29289C2.54098 9.10536 2.79533 9 3.06055 9H33.0605C33.3258 9 33.5801 9.10536 33.7677 9.29289C33.9552 9.48043 34.0605 9.73478 34.0605 10V24C34.0605 24.2652 33.9552 24.5196 33.7677 24.7071C33.5801 24.8946 33.3258 25 33.0605 25H13.4805L8.77055 29.71C8.67711 29.8027 8.56629 29.876 8.44445 29.9258C8.32262 29.9755 8.19215 30.0008 8.06055 30ZM4.06055 23H8.06055C8.32576 23 8.58012 23.1054 8.76765 23.2929C8.95519 23.4804 9.06055 23.7348 9.06055 24V26.59L12.3605 23.29C12.5468 23.1053 12.7982 23.0011 13.0605 23H32.0605V11H4.06055V23Z" fill="#01070E"/>
</svg>
