<svg width="36" height="36" viewBox="0 0 36 36" fill="none" xmlns="http://www.w3.org/2000/svg">
<path d="M8.5 29.65C6.77691 29.6474 5.12514 28.9617 3.90673 27.7433C2.68831 26.5249 2.00264 24.8731 2 23.15C2.00385 22.3041 2.17563 21.4673 2.50539 20.6882C2.83515 19.9092 3.31631 19.2034 3.92098 18.6117C4.52564 18.0201 5.24176 17.5544 6.02781 17.2417C6.81385 16.929 7.65416 16.7754 8.5 16.79C9.34584 16.7754 10.1862 16.929 10.9722 17.2417C11.7582 17.5544 12.4744 18.0201 13.079 18.6117C13.6837 19.2034 14.1649 19.9092 14.4946 20.6882C14.8244 21.4673 14.9962 22.3041 15 23.15C14.9974 24.8731 14.3117 26.5249 13.0933 27.7433C11.8749 28.9617 10.2231 29.6474 8.5 29.65ZM8.5 18.65C7.60998 18.65 6.73995 18.9139 5.99993 19.4084C5.25991 19.9029 4.68314 20.6057 4.34254 21.4279C4.00195 22.2502 3.91283 23.155 4.08647 24.0279C4.2601 24.9008 4.68868 25.7027 5.31802 26.332C5.94736 26.9613 6.74918 27.3899 7.62209 27.5635C8.49501 27.7372 9.39981 27.6481 10.2221 27.3075C11.0443 26.9669 11.7471 26.3901 12.2416 25.6501C12.7361 24.9101 13 24.04 13 23.15C12.9974 21.9573 12.5224 20.8143 11.6791 19.9709C10.8357 19.1276 9.69266 18.6527 8.5 18.65Z" fill="#01070E"/>
<path d="M27.5 29.6499C25.7769 29.6473 24.1251 28.9616 22.9067 27.7432C21.6883 26.5248 21.0026 24.873 21 23.1499C21 21.426 21.6848 19.7727 22.9038 18.5537C24.1228 17.3347 25.7761 16.6499 27.5 16.6499C29.2239 16.6499 30.8772 17.3347 32.0962 18.5537C33.3152 19.7727 34 21.426 34 23.1499C33.9974 24.873 33.3117 26.5248 32.0933 27.7432C30.8749 28.9616 29.2231 29.6473 27.5 29.6499ZM27.5 18.6499C26.61 18.6499 25.74 18.9138 24.9999 19.4083C24.2599 19.9028 23.6831 20.6056 23.3425 21.4278C23.0019 22.2501 22.9128 23.1549 23.0865 24.0278C23.2601 24.9007 23.6887 25.7025 24.318 26.3319C24.9474 26.9612 25.7492 27.3898 26.6221 27.5634C27.495 27.7371 28.3998 27.648 29.2221 27.3074C30.0443 26.9668 30.7471 26.39 31.2416 25.65C31.7361 24.9099 32 24.0399 32 23.1499C31.9974 21.9572 31.5224 20.8142 30.6791 19.9708C29.8357 19.1275 28.6927 18.6525 27.5 18.6499Z" fill="#01070E"/>
<path d="M19.0009 24.66H8.00088C7.83042 24.6594 7.66291 24.6154 7.51428 24.5319C7.36565 24.4484 7.24082 24.3284 7.15164 24.1831C7.06247 24.0378 7.01192 23.8721 7.00478 23.7018C6.99765 23.5315 7.03417 23.3622 7.11088 23.21L12.1109 13.21L13.8909 14.11L9.62088 22.73H19.0009V24.66Z" fill="#01070E"/>
<path d="M24 12.6802H13V14.5902H24V12.6802Z" fill="#01070E"/>
<path d="M28 24.6601C27.7945 24.66 27.594 24.5966 27.4258 24.4785C27.2576 24.3604 27.1299 24.1934 27.06 24.0001L22.29 10.6601H20C19.7348 10.6601 19.4804 10.5548 19.2929 10.3672C19.1054 10.1797 19 9.92535 19 9.66013C19.0177 9.40723 19.1309 9.17051 19.3165 8.99786C19.5022 8.8252 19.7465 8.72951 20 8.73013H23C23.2002 8.71672 23.3994 8.76772 23.5686 8.87568C23.7377 8.98364 23.8679 9.14289 23.94 9.33013L28.94 23.3301C29.027 23.5782 29.0128 23.8505 28.9005 24.0882C28.7882 24.3259 28.5869 24.5098 28.34 24.6001C28.231 24.6397 28.116 24.66 28 24.6601Z" fill="#01070E"/>
<path d="M13.0001 14.6598C12.8685 14.6605 12.738 14.6353 12.6162 14.5855C12.4944 14.5358 12.3835 14.4624 12.2901 14.3698L10.5901 12.6598H8.0001C7.73488 12.6598 7.48053 12.5544 7.29299 12.3669C7.10545 12.1793 7.0001 11.925 7.0001 11.6598C6.99126 11.5262 7.01107 11.3922 7.05819 11.2669C7.10532 11.1415 7.17868 11.0277 7.27337 10.933C7.36805 10.8384 7.48187 10.765 7.6072 10.7179C7.73253 10.6707 7.86649 10.6509 8.0001 10.6598H11.0001C11.2754 10.6508 11.5437 10.7474 11.7501 10.9298L13.7501 12.9298C13.9363 13.1171 14.0409 13.3706 14.0409 13.6348C14.0409 13.899 13.9363 14.1524 13.7501 14.3398C13.6546 14.4428 13.5384 14.5245 13.4092 14.5797C13.28 14.6348 13.1406 14.6621 13.0001 14.6598Z" fill="#01070E"/>
</svg>
