<svg width="36" height="36" viewBox="0 0 36 36" fill="none" xmlns="http://www.w3.org/2000/svg">
<path d="M24.11 16.88C25.0197 16.1982 25.6952 15.2508 26.0435 14.1687C26.3917 13.0865 26.3954 11.9229 26.0541 10.8386C25.7127 9.75421 25.0432 8.80256 24.1379 8.11498C23.2326 7.4274 22.1362 7.03781 21 7V4C21 3.73478 20.8946 3.48043 20.7071 3.29289C20.5196 3.10536 20.2652 3 20 3C19.7348 3 19.4804 3.10536 19.2929 3.29289C19.1054 3.48043 19 3.73478 19 4V7H16V4C16 3.73478 15.8946 3.48043 15.7071 3.29289C15.5196 3.10536 15.2652 3 15 3C14.7348 3 14.4804 3.10536 14.2929 3.29289C14.1054 3.48043 14 3.73478 14 4V7H11C10.7348 7 10.4804 7.10536 10.2929 7.29289C10.1054 7.48043 10 7.73478 10 8V28C10 28.2652 10.1054 28.5196 10.2929 28.7071C10.4804 28.8946 10.7348 29 11 29H14V32C14 32.2652 14.1054 32.5196 14.2929 32.7071C14.4804 32.8946 14.7348 33 15 33C15.2652 33 15.5196 32.8946 15.7071 32.7071C15.8946 32.5196 16 32.2652 16 32V29H19V32C19 32.2652 19.1054 32.5196 19.2929 32.7071C19.4804 32.8946 19.7348 33 20 33C20.2652 33 20.5196 32.8946 20.7071 32.7071C20.8946 32.5196 21 32.2652 21 32V29H21.08C22.6847 28.9607 24.2085 28.2873 25.318 27.1272C26.4274 25.9672 27.0322 24.4149 27 22.81V22.19C27.0068 21.1327 26.7452 20.091 26.2397 19.1623C25.7343 18.2337 25.0015 17.4484 24.11 16.88ZM12 9H20.69C21.4361 8.98813 22.1673 9.20903 22.7821 9.63199C23.3968 10.055 23.8644 10.6589 24.12 11.36C24.2998 11.8888 24.3508 12.4529 24.2688 13.0054C24.1868 13.5578 23.9742 14.0828 23.6485 14.5365C23.3228 14.9903 22.8936 15.3598 22.3964 15.6143C21.8993 15.8689 21.3485 16.0011 20.79 16H12V9ZM25 22.81C25.0297 23.8871 24.632 24.9323 23.8939 25.7173C23.1557 26.5023 22.1369 26.9634 21.06 27H12V18H21.06C22.1369 18.0366 23.1557 18.4977 23.8939 19.2827C24.632 20.0677 25.0297 21.1129 25 22.19V22.81Z" fill="#01070E"/>
</svg>
