<svg width="36" height="36" viewBox="0 0 36 36" fill="none" xmlns="http://www.w3.org/2000/svg">
<path d="M31.42 9.09003L18.42 3.09003C18.2884 3.02911 18.1451 2.99756 18 2.99756C17.855 2.99756 17.7116 3.02911 17.58 3.09003L4.58 9.09003C4.40642 9.17037 4.25952 9.29879 4.15672 9.46008C4.05392 9.62138 3.99953 9.80877 4 10V27C3.99953 27.1913 4.05392 27.3787 4.15672 27.54C4.25952 27.7013 4.40642 27.8297 4.58 27.91L17.58 33.91C17.7116 33.971 17.855 34.0025 18 34.0025C18.1451 34.0025 18.2884 33.971 18.42 33.91L31.42 27.91C31.5936 27.8297 31.7405 27.7013 31.8433 27.54C31.9461 27.3787 32.0005 27.1913 32 27V10C32.0005 9.80877 31.9461 9.62138 31.8433 9.46008C31.7405 9.29879 31.5936 9.17037 31.42 9.09003ZM18 5.10003L28.61 10L18 14.9L7.39 10L18 5.10003ZM6 11.56L17 16.64V31.44L6 26.36V11.56ZM19 31.44V16.64L30 11.56V26.36L19 31.44Z" fill="#01070E"/>
</svg>
