<svg width="36" height="36" viewBox="0 0 36 36" fill="none" xmlns="http://www.w3.org/2000/svg">
<path d="M30 15.53V26.36L19 31.44V16.64L21.57 15.45C20.7482 15.2956 20.0038 14.8652 19.46 14.23L18 14.9L7.39 10L18 5.10003L21.08 6.52003L22.08 4.78003L18.42 3.09003C18.2884 3.02911 18.1451 2.99756 18 2.99756C17.855 2.99756 17.7116 3.02911 17.58 3.09003L4.58 9.09003C4.40642 9.17037 4.25952 9.29879 4.15672 9.46008C4.05392 9.62138 3.99953 9.80877 4 10V27C3.99953 27.1913 4.05392 27.3787 4.15672 27.54C4.25952 27.7013 4.40642 27.8297 4.58 27.91L17.58 33.91C17.7116 33.971 17.855 34.0025 18 34.0025C18.1451 34.0025 18.2884 33.971 18.42 33.91L31.42 27.91C31.5936 27.8297 31.7405 27.7013 31.8433 27.54C31.9461 27.3787 32.0005 27.1913 32 27V15.53H30ZM17 31.44L6 26.36V11.56L17 16.64V31.44Z" fill="#01070E"/>
<path d="M26.87 1.25993L21.15 11.1699C21.038 11.3639 20.9789 11.5838 20.9785 11.8078C20.9781 12.0318 21.0365 12.2519 21.1479 12.4463C21.2592 12.6406 21.4196 12.8023 21.613 12.9153C21.8064 13.0282 22.0261 13.0884 22.25 13.0899H33.7C33.924 13.0884 34.1436 13.0282 34.337 12.9153C34.5304 12.8023 34.6908 12.6406 34.8022 12.4463C34.9135 12.2519 34.9719 12.0318 34.9715 11.8078C34.9711 11.5838 34.912 11.3639 34.8 11.1699L29.08 1.25993C28.9672 1.06699 28.8059 0.906942 28.612 0.79572C28.4181 0.684499 28.1985 0.625977 27.975 0.625977C27.7515 0.625977 27.5319 0.684499 27.338 0.79572C27.1442 0.906942 26.9828 1.06699 26.87 1.25993Z" fill="#01070E"/>
</svg>
