<svg width="36" height="36" viewBox="0 0 36 36" fill="none" xmlns="http://www.w3.org/2000/svg">
<path d="M33.5296 18.7598L26.5996 15.5698V6.42978C26.5964 6.23802 26.5382 6.05123 26.4318 5.89166C26.3254 5.73208 26.1754 5.60647 25.9996 5.52978L18.4996 2.07978C18.368 2.01886 18.2247 1.9873 18.0796 1.9873C17.9346 1.9873 17.7912 2.01886 17.6596 2.07978L10.1596 5.52978C9.98603 5.61011 9.83913 5.73854 9.73633 5.89983C9.63353 6.06112 9.57914 6.24851 9.57961 6.43978V15.5798L2.67961 18.7598C2.50603 18.8401 2.35913 18.9685 2.25633 19.1298C2.15353 19.2911 2.09914 19.4785 2.09961 19.6698V29.4498C2.09914 29.641 2.15353 29.8284 2.25633 29.9897C2.35913 30.151 2.50603 30.2794 2.67961 30.3598L10.1796 33.8098C10.3112 33.8707 10.4546 33.9023 10.5996 33.9023C10.7447 33.9023 10.888 33.8707 11.0196 33.8098L18.0996 30.5498L25.1796 33.8098C25.3112 33.8707 25.4546 33.9023 25.5996 33.9023C25.7447 33.9023 25.888 33.8707 26.0196 33.8098L33.5196 30.3598C33.6932 30.2794 33.8401 30.151 33.9429 29.9897C34.0457 29.8284 34.1001 29.641 34.0996 29.4498V19.6698C34.101 19.4796 34.0481 19.293 33.9471 19.1318C33.8462 18.9706 33.7013 18.8416 33.5296 18.7598ZM30.7196 19.6698L25.6096 21.9998L20.4996 19.6698L25.6096 17.3198L30.7196 19.6698ZM18.0996 4.07978L23.2096 6.42978L18.0996 8.77978L12.9996 6.42978L18.0996 4.07978ZM10.5996 17.3098L15.7096 19.6598L10.5996 21.9998L5.48961 19.6698L10.5996 17.3098ZM17.0996 28.7998L10.5996 31.7998L4.09961 28.7998V21.2298L10.1796 23.9998C10.3085 24.0577 10.4483 24.0877 10.5896 24.0877C10.731 24.0877 10.8707 24.0577 10.9996 23.9998L17.0796 21.1998L17.0996 28.7998ZM11.5996 15.5698V7.99978L17.6796 10.7998C17.8112 10.8607 17.9546 10.8923 18.0996 10.8923C18.2447 10.8923 18.388 10.8607 18.5196 10.7998L24.5996 7.99978V15.5798L18.0996 18.5798L11.5996 15.5698ZM32.1096 28.8098L25.6096 31.8098L19.0996 28.8098V21.2198L25.1896 23.9998C25.3172 24.0563 25.4551 24.0855 25.5946 24.0855C25.7341 24.0855 25.8721 24.0563 25.9996 23.9998L32.0796 21.1998L32.1096 28.8098Z" fill="#01070E"/>
</svg>
