<svg width="36" height="36" viewBox="0 0 36 36" fill="none" xmlns="http://www.w3.org/2000/svg">
<path d="M33.5296 18.7598L26.5996 15.5698H24.5996L18.0996 18.5698L11.5996 15.5698V7.99978L17.6796 10.7998C17.8112 10.8607 17.9546 10.8923 18.0996 10.8923C18.2447 10.8923 18.388 10.8607 18.5196 10.7998L18.7596 10.6898C18.8376 10.4652 18.9346 10.2478 19.0496 10.0398L20.3796 7.72978L18.0996 8.72978L12.9996 6.42978L18.0996 4.07978L21.5696 5.67978L22.5696 3.94978L18.4996 2.07978C18.368 2.01886 18.2247 1.9873 18.0796 1.9873C17.9346 1.9873 17.7912 2.01886 17.6596 2.07978L10.1596 5.52978C9.98603 5.61011 9.83913 5.73854 9.73633 5.89983C9.63353 6.06112 9.57914 6.24851 9.57961 6.43978V15.5798L2.67961 18.7598C2.50603 18.8401 2.35913 18.9685 2.25633 19.1298C2.15353 19.2911 2.09914 19.4785 2.09961 19.6698V29.4498C2.09914 29.641 2.15353 29.8284 2.25633 29.9897C2.35913 30.151 2.50603 30.2794 2.67961 30.3598L10.1796 33.8098C10.3112 33.8707 10.4546 33.9023 10.5996 33.9023C10.7447 33.9023 10.888 33.8707 11.0196 33.8098L18.0996 30.5498L25.1796 33.8098C25.3112 33.8707 25.4546 33.9023 25.5996 33.9023C25.7447 33.9023 25.888 33.8707 26.0196 33.8098L33.5196 30.3598C33.6932 30.2794 33.8401 30.151 33.9429 29.9897C34.0457 29.8284 34.1001 29.641 34.0996 29.4498V19.6698C34.101 19.4796 34.0481 19.293 33.9471 19.1318C33.8462 18.9706 33.7013 18.8416 33.5296 18.7598ZM10.5996 17.3098L15.7096 19.6598L10.5996 21.9998L5.48961 19.6698L10.5996 17.3098ZM10.5996 31.7998L4.09961 28.7998V21.2298L10.1796 23.9998C10.3085 24.0577 10.4483 24.0877 10.5896 24.0877C10.731 24.0877 10.8707 24.0577 10.9996 23.9998L17.0796 21.1998V28.7998L10.5996 31.7998ZM25.5996 17.3198L30.7096 19.6698L25.6096 21.9998L20.4996 19.6698L25.5996 17.3198ZM25.5996 31.8098L19.0896 28.8098V21.2198L25.1896 23.9998C25.3172 24.0563 25.4551 24.0855 25.5946 24.0855C25.7341 24.0855 25.8721 24.0563 25.9996 23.9998L32.0796 21.1998V28.8098L25.5996 31.8098Z" fill="#01070E"/>
<path d="M26.8492 1.13981L21.1292 11.0498C21.0061 11.2438 20.938 11.4676 20.9321 11.6973C20.9261 11.927 20.9826 12.154 21.0955 12.3541C21.2084 12.5542 21.3734 12.72 21.5731 12.8337C21.7727 12.9474 21.9995 13.0048 22.2292 12.9998H33.6792C33.9029 13.0004 34.1228 12.9418 34.3165 12.8301C34.5103 12.7184 34.6712 12.5575 34.7828 12.3636C34.8944 12.1698 34.9529 11.9499 34.9523 11.7262C34.9516 11.5026 34.8919 11.283 34.7792 11.0898L29.0592 1.13981C28.9464 0.946869 28.785 0.786825 28.5912 0.675603C28.3973 0.564381 28.1777 0.505859 27.9542 0.505859C27.7307 0.505859 27.5111 0.564381 27.3172 0.675603C27.1234 0.786825 26.962 0.946869 26.8492 1.13981Z" fill="#01070E"/>
</svg>
