<svg width="36" height="36" viewBox="0 0 36 36" fill="none" xmlns="http://www.w3.org/2000/svg">
<path d="M19 2.99997L25.22 9.39997L19.56 15.2L21 16.63L26.68 10.8C27.0405 10.427 27.242 9.92865 27.242 9.40997C27.242 8.89129 27.0405 8.3929 26.68 8.01997L20.48 1.69997C20.2805 1.46577 20.0296 1.28077 19.7469 1.15936C19.4642 1.03795 19.1572 0.983408 18.85 0.99997C18.346 1.03788 17.875 1.26521 17.5318 1.63625C17.1886 2.0073 16.9986 2.49453 17 2.99997V14.4L19 16.4V2.99997Z" fill="#01070E"/>
<path d="M4.76938 5L3.35938 6.42L15.8894 19L9.05938 26C8.92177 26.1404 8.82859 26.3182 8.79148 26.5113C8.75438 26.7043 8.775 26.904 8.85075 27.0854C8.92651 27.2668 9.05405 27.4218 9.21744 27.5311C9.38082 27.6405 9.5728 27.6992 9.76938 27.7C9.90408 27.6995 10.0373 27.6718 10.161 27.6185C10.2847 27.5652 10.3964 27.4875 10.4894 27.39L16.9994 20.68V32.94C16.9899 33.2473 17.0487 33.5528 17.1714 33.8347C17.2942 34.1165 17.4779 34.3677 17.7094 34.57C18.076 34.8596 18.5324 35.0117 18.9994 35C19.264 34.9989 19.5258 34.9453 19.7695 34.8423C20.0133 34.7393 20.2341 34.589 20.4194 34.4L25.8294 28.86L29.3694 32.39L30.7694 31L4.76938 5ZM18.9994 33.05V22.05L24.4094 27.46L18.9994 33.05Z" fill="#01070E"/>
</svg>
