<svg width="36" height="36" viewBox="0 0 36 36" fill="none" xmlns="http://www.w3.org/2000/svg">
<path d="M26.6408 25.2698L19.0008 17.5298V2.9998L25.2108 9.3998L19.5608 15.1898L21.0008 16.6198L26.6808 10.7998C27.0413 10.4269 27.2428 9.92848 27.2428 9.4098C27.2428 8.89113 27.0413 8.39274 26.6808 8.0198L20.4808 1.6998C20.2775 1.47017 20.026 1.28834 19.7442 1.16732C19.4624 1.0463 19.1573 0.989098 18.8508 0.999803C18.3468 1.03771 17.8758 1.26504 17.5326 1.63609C17.1894 2.00713 16.9994 2.49436 17.0008 2.9998V15.3798L10.0508 8.2698C9.86191 8.10288 9.61693 8.01347 9.36491 8.01946C9.11289 8.02545 8.87243 8.1264 8.69167 8.30211C8.5109 8.47782 8.40317 8.71532 8.39003 8.96707C8.3769 9.21881 8.45932 9.46623 8.62082 9.6598L16.7908 17.9998L9.06082 25.9998C8.87457 26.1872 8.77003 26.4406 8.77003 26.7048C8.77003 26.969 8.87457 27.2224 9.06082 27.4098C9.24708 27.5945 9.49848 27.6987 9.76082 27.6998C9.89552 27.6993 10.0287 27.6716 10.1525 27.6183C10.2762 27.565 10.3879 27.4873 10.4808 27.3898L17.0008 20.6798V32.9998C16.9921 33.3055 17.0513 33.6093 17.1741 33.8895C17.2968 34.1696 17.4801 34.419 17.7108 34.6198C18.0841 34.8916 18.5398 35.0258 19.0008 34.9998C19.2659 35.0021 19.5287 34.9501 19.773 34.8469C20.0172 34.7437 20.2377 34.5915 20.4208 34.3998L26.6508 28.0198C27.0011 27.6471 27.1953 27.1543 27.1935 26.6428C27.1916 26.1313 26.9938 25.64 26.6408 25.2698ZM19.0008 33.0498V20.2898L25.2108 26.6498L19.0008 33.0498Z" fill="#01070E"/>
</svg>
