<svg width="36" height="36" viewBox="0 0 36 36" fill="none" xmlns="http://www.w3.org/2000/svg">
<path d="M29.1 27.1C28 27 26.9 27.4 26 28.2C24.9 29.3 23.1 29.3 21.9 28.2C20.9 27.5 19.8 27.1 18.6 27.1C17.4 27 16.2 27.4 15.3 28.2C14.7 28.7 14 29 13.2 29C12.4 29 11.7 28.7 11.1 28.2C10.1 27.4 8.9 27 7.7 27C6.5 27 5.3 27.4 4.3 28.2C3.7 28.7 2.8 29 2 29V31C3.3 31.1 4.6 30.7 5.6 29.8C6.2 29.3 7.1 29 7.9 29C8.6 29 9.4 29.3 10 29.8C11.8 31.4 14.6 31.4 16.5 29.8C17.1 29.3 17.8 29 18.6 29C19.3 29 20 29.3 20.6 29.8C22.5 31.4 25.2 31.4 27.1 29.8C27.6 29.3 28.4 29 29.1 29C29.8 29 30.5 29.3 31 29.8C31.9 30.5 32.9 30.9 34 31V29C33 29 32.8 28.6 32.3 28.2C31.4 27.5 30.3 27.1 29.1 27.1Z" fill="#01070E"/>
<path d="M5.99961 23C5.99961 22.4 6.49961 22 7.09961 22H31.9996L28.4996 25.1H28.6996C29.4996 25.1 30.2996 25.3 30.8996 25.6L33.3996 23.4L33.5996 23.2C34.2996 22.4 34.1996 21.1 33.3996 20.4C32.9996 20.2 32.5996 20 32.0996 20H7.09961C5.39961 20 4.09961 21.3 4.09961 23V26.2C4.59961 25.7 5.29961 25.4 5.99961 25.1V23Z" fill="#01070E"/>
<path d="M8.90017 19.0001H15.0002V11.2001C15.0002 10.6001 14.7002 10.0001 14.2002 9.60013C13.3002 8.90013 12.0002 9.10013 11.4002 10.0001L7.30017 15.9001C6.90017 16.5001 6.90017 17.3001 7.20017 18.0001C7.50017 18.6001 8.20017 19.0001 8.90017 19.0001ZM13.1002 11.2001L13.0002 17.0001H8.90017L13.1002 11.2001Z" fill="#01070E"/>
<path d="M26 18.0001C26.4 17.4001 26.4 16.6001 26 16.0001L19.7 5.6001C19.3 5.0001 18.7 4.6001 18 4.6001C16.9 4.6001 16 5.5001 16 6.6001V19.0001H24.3C25 19.0001 25.7 18.6001 26 18.0001ZM17.9 6.6001L24.3 17.1001H17.9V6.6001Z" fill="#01070E"/>
</svg>
