<svg width="36" height="36" viewBox="0 0 36 36" fill="none" xmlns="http://www.w3.org/2000/svg">
<path d="M22.4301 17.5399C23.2768 17.1702 23.9947 16.5576 24.4931 15.7797C24.9915 15.0018 25.248 14.0936 25.2301 13.1699V13.1099C25.2443 12.5076 25.1354 11.9087 24.9101 11.3499C24.6849 10.7911 24.348 10.2841 23.9201 9.85993C22.5063 8.6274 20.6617 8.00533 18.7901 8.12993H11.7901C11.5572 8.11901 11.3246 8.15582 11.1064 8.23811C10.8883 8.32041 10.6893 8.44644 10.5216 8.60847C10.354 8.7705 10.2212 8.9651 10.1316 9.18031C10.0419 9.39552 9.99716 9.6268 10.0001 9.85993V25.9999C9.99746 26.2292 10.0406 26.4566 10.1271 26.669C10.2136 26.8813 10.3417 27.0742 10.5038 27.2363C10.6659 27.3984 10.8588 27.5265 11.0711 27.6129C11.2834 27.6994 11.5109 27.7426 11.7401 27.7399H19.0701C23.4401 27.7399 26.3201 25.8599 26.3201 22.3599V22.2999C26.3201 19.6399 24.7301 18.3199 22.4301 17.5399ZM13.6801 11.3999H18.2201C20.2201 11.3999 21.3701 12.2899 21.3701 13.7299V13.7899C21.3701 15.4699 20.0101 16.2799 17.9901 16.2799H13.6801V11.3999ZM22.3701 21.9999C22.3701 23.5899 21.0601 24.4299 18.9101 24.4299H13.6801V19.6199H18.6801C21.1701 19.6199 22.3701 20.4999 22.3701 21.9899V21.9999Z" fill="#01070E"/>
</svg>
