<svg width="36" height="36" viewBox="0 0 36 36" fill="none" xmlns="http://www.w3.org/2000/svg">
<path d="M10.5205 34.0001H7.52055C7.3523 33.9971 7.18753 33.9517 7.04151 33.8681C6.89549 33.7845 6.77293 33.6653 6.68518 33.5218C6.59744 33.3782 6.54734 33.2148 6.53954 33.0467C6.53174 32.8786 6.56648 32.7112 6.64054 32.5601L12.5505 21.0001H6.00055C5.82033 21.0016 5.64306 20.9544 5.48747 20.8635C5.33189 20.7725 5.20378 20.6412 5.11669 20.4834C5.0296 20.3256 4.98678 20.1472 4.99273 19.9671C4.99869 19.787 5.05322 19.6118 5.15055 19.4601L15.8305 2.46014C15.9181 2.32349 16.0376 2.21021 16.1787 2.13007C16.3198 2.04993 16.4783 2.00533 16.6405 2.00014H30.0705C30.2702 1.99069 30.4682 2.04131 30.6388 2.14546C30.8094 2.2496 30.9449 2.4025 31.0278 2.58441C31.1107 2.76632 31.1371 2.9689 31.1038 3.166C31.0704 3.36309 30.9787 3.54566 30.8405 3.69014L21.7805 14.0001H27.1605C27.351 14.0042 27.5364 14.0625 27.6948 14.1683C27.8533 14.2741 27.9782 14.423 28.0549 14.5974C28.1316 14.7718 28.1568 14.9644 28.1277 15.1527C28.0986 15.341 28.0163 15.517 27.8905 15.6601L11.2605 33.6601C11.168 33.7656 11.0542 33.8503 10.9267 33.9089C10.7992 33.9675 10.6608 33.9986 10.5205 34.0001ZM9.18055 32.0001H10.0905L24.8605 16.0001H19.5905C19.3909 16.0096 19.1929 15.959 19.0223 15.8548C18.8517 15.7507 18.7162 15.5978 18.6333 15.4159C18.5504 15.234 18.5239 15.0314 18.5573 14.8343C18.5907 14.6372 18.6824 14.4546 18.8205 14.3101L27.8805 4.00014H17.1905L7.77055 19.0001H14.2005C14.3688 19.0032 14.5336 19.0486 14.6796 19.1322C14.8256 19.2158 14.9482 19.3349 15.0359 19.4785C15.1237 19.6221 15.1737 19.7855 15.1816 19.9536C15.1894 20.1217 15.1546 20.289 15.0805 20.4401L9.18055 32.0001Z" fill="#01070E"/>
</svg>
