<svg width="36" height="36" viewBox="0 0 36 36" fill="none" xmlns="http://www.w3.org/2000/svg">
<path d="M26.0005 34C25.4723 34.0004 24.9655 33.7919 24.5905 33.42L18.0005 26.82L11.4605 33.34C11.1838 33.6357 10.8239 33.8405 10.4284 33.9272C10.0328 34.0139 9.62024 33.9785 9.24524 33.8257C8.87023 33.6729 8.55045 33.4099 8.32818 33.0714C8.10592 32.7328 7.99165 32.3349 8.00048 31.93V4C8.00048 3.46957 8.21119 2.96086 8.58626 2.58579C8.96134 2.21071 9.47004 2 10.0005 2H26.0005C26.5309 2 27.0396 2.21071 27.4147 2.58579C27.7898 2.96086 28.0005 3.46957 28.0005 4V32C28.0005 32.5304 27.7898 33.0391 27.4147 33.4142C27.0396 33.7893 26.5309 34 26.0005 34ZM26.0005 32V4H10.0005V31.93L18.0005 24L26.0005 32Z" fill="#01070E"/>
</svg>
