<svg width="36" height="36" viewBox="0 0 36 36" fill="none" xmlns="http://www.w3.org/2000/svg">
<path d="M32 5H4C3.46957 5 2.96086 5.21071 2.58579 5.58579C2.21071 5.96086 2 6.46957 2 7V29C2 29.5304 2.21071 30.0391 2.58579 30.4142C2.96086 30.7893 3.46957 31 4 31H32C32.5304 31 33.0391 30.7893 33.4142 30.4142C33.7893 30.0391 34 29.5304 34 29V7C34 6.46957 33.7893 5.96086 33.4142 5.58579C33.0391 5.21071 32.5304 5 32 5ZM4 29V7H32V29H4Z" fill="#01070E"/>
<path d="M7 12H17V26H7V12ZM8.6 24.4H15.4V18.8H8.6V24.4ZM15.4 13.6H8.6V17.2H15.4V13.6Z" fill="#01070E"/>
<path d="M19 24H29V10H19V24ZM20.6 11.6H27.4V17.2H20.6V11.6ZM27.4 22.4H20.6V18.8H27.4V22.4Z" fill="#01070E"/>
</svg>
