<svg width="36" height="36" viewBox="0 0 36 36" fill="none" xmlns="http://www.w3.org/2000/svg">
<path d="M34 29C34 30.105 33.105 31 32 31H4C2.895 31 2 30.105 2 29V7C2 5.895 2.895 5 4 5H21.958L20.786 7H4V29H32V15.357H34V29Z" fill="#01070E"/>
<path d="M7 12H17V26H7V12ZM8.6 24.4H15.4V18.8H8.6V24.4ZM15.4 13.6H8.6V17.2H15.4V13.6Z" fill="#01070E"/>
<path d="M29 24.0002H19V15.3452C19.021 15.3482 20.6 15.3602 20.6 15.3602V17.2002H27.4V15.3602L29 15.3572V24.0002ZM27.4 18.8002H20.6V22.4002H27.4V18.8002Z" fill="#01070E"/>
<path d="M26.8541 1.144L21.1341 11.004C20.5791 11.818 21.1141 12.928 22.0971 13.001C22.1421 13.005 22.1881 13.006 22.2341 13.004H33.6841C34.6691 13.036 35.3191 11.991 34.8551 11.122C34.8341 11.081 34.8101 11.042 34.7841 11.004L29.0641 1.144C28.5701 0.299004 27.3481 0.299004 26.8541 1.144Z" fill="#01070E"/>
</svg>
