<svg width="36" height="36" viewBox="0 0 36 36" fill="none" xmlns="http://www.w3.org/2000/svg">
<path d="M32 28.0001H4V21.3201C3.25525 20.9634 2.57843 20.4795 2 19.8901V28.0001C2 28.5306 2.21071 29.0393 2.58579 29.4144C2.96086 29.7894 3.46957 30.0001 4 30.0001H32C32.5304 30.0001 33.0391 29.7894 33.4142 29.4144C33.7893 29.0393 34 28.5306 34 28.0001V19.8901C33.4258 20.4818 32.7479 20.9631 32 21.3101V28.0001Z" fill="#01070E"/>
<path d="M25 22.3999C25.2652 22.3999 25.5196 22.2946 25.7071 22.107C25.8946 21.9195 26 21.6652 26 21.3999V15.9399H24V17.9999H14V19.9999H24V21.3999C24 21.6652 24.1054 21.9195 24.2929 22.107C24.4804 22.2946 24.7348 22.3999 25 22.3999Z" fill="#01070E"/>
<path d="M33 6.00019H24V4.38019C23.9895 3.7401 23.7257 3.13025 23.2665 2.68418C22.8074 2.23812 22.1901 1.99217 21.55 2.00019H14.45C13.8099 1.99217 13.1926 2.23812 12.7335 2.68418C12.2743 3.13025 12.0105 3.7401 12 4.38019V6.00019H3C2.73478 6.00019 2.48043 6.10555 2.29289 6.29308C2.10536 6.48062 2 6.73497 2 7.00019V15.0002C2 16.3263 2.52678 17.598 3.46447 18.5357C4.40215 19.4734 5.67392 20.0002 7 20.0002H10V21.4002C10 21.6654 10.1054 21.9198 10.2929 22.1073C10.4804 22.2948 10.7348 22.4002 11 22.4002C11.2652 22.4002 11.5196 22.2948 11.7071 22.1073C11.8946 21.9198 12 21.6654 12 21.4002V15.9402H10V18.0002H7C6.20435 18.0002 5.44129 17.6841 4.87868 17.1215C4.31607 16.5589 4 15.7958 4 15.0002V8.00019H32V15.0002C32 15.7958 31.6839 16.5589 31.1213 17.1215C30.5587 17.6841 29.7956 18.0002 29 18.0002H28V20.0002H29C30.3261 20.0002 31.5979 19.4734 32.5355 18.5357C33.4732 17.598 34 16.3263 34 15.0002V7.00019C34 6.73497 33.8946 6.48062 33.7071 6.29308C33.5196 6.10555 33.2652 6.00019 33 6.00019ZM22 6.00019H14V4.43019C14.0052 4.31434 14.0548 4.20496 14.1387 4.12484C14.2225 4.04473 14.334 4.00008 14.45 4.00019H21.56C21.6165 3.99886 21.6727 4.00867 21.7253 4.02906C21.778 4.04945 21.8262 4.08002 21.867 4.11903C21.9079 4.15803 21.9407 4.2047 21.9635 4.25638C21.9863 4.30805 21.9987 4.36372 22 4.42019V6.00019Z" fill="#01070E"/>
</svg>
