<svg width="36" height="36" viewBox="0 0 36 36" fill="none" xmlns="http://www.w3.org/2000/svg">
<path d="M18 2.5C9.18 2.5 2 8.78 2 16.5C2 24.22 9.18 30.5 18 30.5C19.6501 30.4981 21.2922 30.2693 22.88 29.82L28.41 33.34C28.561 33.4369 28.7352 33.4913 28.9145 33.4977C29.0937 33.5041 29.2714 33.4621 29.4289 33.3762C29.5863 33.2903 29.7178 33.1637 29.8095 33.0095C29.9012 32.8554 29.9497 32.6794 29.95 32.5V25.77C31.2012 24.5697 32.1997 23.1312 32.8867 21.5392C33.5736 19.9472 33.9352 18.2338 33.95 16.5C34 8.78 26.82 2.5 18 2.5ZM28.29 24.61C28.1895 24.7032 28.1092 24.8162 28.0541 24.9417C27.9991 25.0673 27.9704 25.2029 27.97 25.34V30.68L23.59 27.89C23.4678 27.8128 23.3304 27.7629 23.1871 27.744C23.0438 27.725 22.8981 27.7373 22.76 27.78C21.2187 28.2587 19.6139 28.5014 18 28.5C10.28 28.5 4 23.12 4 16.5C4 9.88 10.28 4.5 18 4.5C25.72 4.5 32 9.88 32 16.5C31.9772 18.0351 31.6356 19.5487 30.997 20.9448C30.3583 22.3408 29.4365 23.589 28.29 24.61Z" fill="#01070E"/>
<path d="M18.0002 20.63C18.2654 20.63 18.5198 20.5246 18.7073 20.3371C18.8948 20.1496 19.0002 19.8952 19.0002 19.63V8.47998C19.0002 8.21476 18.8948 7.96041 18.7073 7.77287C18.5198 7.58534 18.2654 7.47998 18.0002 7.47998C17.735 7.47998 17.4806 7.58534 17.2931 7.77287C17.1056 7.96041 17.0002 8.21476 17.0002 8.47998V19.61C16.9975 19.743 17.0214 19.8752 17.0705 19.9988C17.1196 20.1225 17.1928 20.2351 17.2859 20.3301C17.3791 20.425 17.4902 20.5005 17.6128 20.552C17.7355 20.6035 17.8672 20.63 18.0002 20.63Z" fill="#01070E"/>
<path d="M17.9999 25.37C18.7345 25.37 19.3299 24.7745 19.3299 24.04C19.3299 23.3054 18.7345 22.71 17.9999 22.71C17.2654 22.71 16.6699 23.3054 16.6699 24.04C16.6699 24.7745 17.2654 25.37 17.9999 25.37Z" fill="#01070E"/>
</svg>
