<svg width="36" height="36" viewBox="0 0 36 36" fill="none" xmlns="http://www.w3.org/2000/svg">
<path d="M32 5H4C2.895 5 2 5.895 2 7V29C2 30.105 2.895 31 4 31H32C33.105 31 34 30.105 34 29V7C34 5.895 33.105 5 32 5ZM4 29V7H32V29H4Z" fill="#01070E"/>
<path d="M29 18C29 19.657 27.657 21 26 21C24.343 21 23 19.657 23 18C23 16.343 24.343 15 26 15C27.657 15 29 16.343 29 18ZM26 16.6C25.227 16.6 24.6 17.227 24.6 18C24.6 18.773 25.227 19.4 26 19.4C26.773 19.4 27.4 18.773 27.4 18C27.4 17.227 26.773 16.6 26 16.6Z" fill="#01070E"/>
<path d="M15 14C15 16.209 13.209 18 11 18C8.791 18 7 16.209 7 14C7 11.791 8.791 10 11 10C13.209 10 15 11.791 15 14ZM11 11.6C9.675 11.6 8.6 12.675 8.6 14C8.6 15.325 9.675 16.4 11 16.4C12.325 16.4 13.4 15.325 13.4 14C13.4 12.675 12.325 11.6 11 11.6Z" fill="#01070E"/>
<path d="M21 23C21 24.657 19.657 26 18 26C16.343 26 15 24.657 15 23C15 21.343 16.343 20 18 20C19.657 20 21 21.343 21 23ZM18 21.6C17.227 21.6 16.6 22.227 16.6 23C16.6 23.773 17.227 24.4 18 24.4C18.773 24.4 19.4 23.773 19.4 23C19.4 22.227 18.773 21.6 18 21.6Z" fill="#01070E"/>
</svg>
