<svg width="36" height="36" viewBox="0 0 36 36" fill="none" xmlns="http://www.w3.org/2000/svg">
<path d="M23.5594 19.69C24.6363 19.69 25.5094 18.817 25.5094 17.74C25.5094 16.6631 24.6363 15.79 23.5594 15.79C22.4824 15.79 21.6094 16.6631 21.6094 17.74C21.6094 18.817 22.4824 19.69 23.5594 19.69Z" fill="#01070E"/>
<path d="M22.4198 27.4598C23.2925 27.4598 23.9998 26.7524 23.9998 25.8798C23.9998 25.0072 23.2925 24.2998 22.4198 24.2998C21.5472 24.2998 20.8398 25.0072 20.8398 25.8798C20.8398 26.7524 21.5472 27.4598 22.4198 27.4598Z" fill="#01070E"/>
<path d="M12.8602 19.69C13.9371 19.69 14.8102 18.817 14.8102 17.74C14.8102 16.6631 13.9371 15.79 12.8602 15.79C11.7832 15.79 10.9102 16.6631 10.9102 17.74C10.9102 18.817 11.7832 19.69 12.8602 19.69Z" fill="#01070E"/>
<path d="M13.9902 27.4598C14.8628 27.4598 15.5702 26.7524 15.5702 25.8798C15.5702 25.0072 14.8628 24.2998 13.9902 24.2998C13.1175 24.2998 12.4102 25.0072 12.4102 25.8798C12.4102 26.7524 13.1175 27.4598 13.9902 27.4598Z" fill="#01070E"/>
<path d="M30.8299 20.0001H28.9999C28.9002 18.0412 28.5023 16.109 27.8199 14.2701L29.2799 13.4801C29.5133 13.3541 29.6871 13.1406 29.7631 12.8865C29.839 12.6324 29.8109 12.3585 29.6849 12.1251C29.5589 11.8917 29.3454 11.7179 29.0913 11.642C28.8372 11.566 28.5633 11.5941 28.3299 11.7201L25.3299 13.3601C26.4107 15.6643 26.9804 18.1751 26.9999 20.7201C26.9999 27.0001 23.7999 31.2301 18.7999 31.6201V15.0001H17.1999V31.6201C12.2199 31.2101 8.99992 27.0001 8.99992 20.7201C9.04389 18.1777 9.63388 15.6745 10.7299 13.3801L7.69992 11.7201C7.46653 11.5941 7.19266 11.566 6.93854 11.642C6.68443 11.7179 6.4709 11.8917 6.34492 12.1251C6.21894 12.3585 6.19084 12.6324 6.26679 12.8865C6.34274 13.1406 6.51653 13.3541 6.74992 13.4801L8.24992 14.2801C7.5699 16.1162 7.17205 18.0448 7.06992 20.0001H5.16992C4.90471 20.0001 4.65035 20.1055 4.46281 20.293C4.27528 20.4805 4.16992 20.7349 4.16992 21.0001C4.16992 21.2653 4.27528 21.5197 4.46281 21.7072C4.65035 21.8948 4.90471 22.0001 5.16992 22.0001H7.09992C7.19158 24.154 7.75845 26.261 8.75992 28.1701L6.86992 29.4901C6.74362 29.5554 6.63269 29.6469 6.54455 29.7585C6.4564 29.87 6.39306 29.9991 6.35875 30.1371C6.32444 30.2751 6.31995 30.4188 6.34557 30.5586C6.3712 30.6985 6.42636 30.8313 6.50737 30.9481C6.58838 31.065 6.69337 31.1632 6.81535 31.2363C6.93733 31.3093 7.07348 31.3556 7.21473 31.3718C7.35598 31.3881 7.49908 31.3741 7.63448 31.3307C7.76988 31.2873 7.89446 31.2155 7.99992 31.1201L9.83992 29.8301C10.8246 31.0409 12.0697 32.014 13.4825 32.6771C14.8952 33.3402 16.4394 33.6762 17.9999 33.6601C19.5555 33.6756 21.0947 33.3413 22.5037 32.6818C23.9126 32.0223 25.1553 31.0546 26.1399 29.8501L27.9999 31.1201C28.1076 31.1956 28.2291 31.2492 28.3575 31.2777C28.4859 31.3063 28.6186 31.3093 28.7482 31.2865C28.8777 31.2638 29.0015 31.2157 29.1125 31.1451C29.2234 31.0746 29.3194 30.9828 29.3949 30.8751C29.4704 30.7674 29.524 30.6459 29.5525 30.5175C29.5811 30.3892 29.5841 30.2564 29.5613 30.1269C29.5386 29.9973 29.4905 29.8735 29.42 29.7626C29.3494 29.6516 29.2576 29.5556 29.1499 29.4801L27.2899 28.1801C28.2897 26.2673 28.8532 24.1567 28.9399 22.0001H30.8299C31.0951 22.0001 31.3495 21.8948 31.537 21.7072C31.7246 21.5197 31.8299 21.2653 31.8299 21.0001C31.8299 20.7349 31.7246 20.4805 31.537 20.293C31.3495 20.1055 31.0951 20.0001 30.8299 20.0001Z" fill="#01070E"/>
<path d="M11.5092 5.3602C11.9162 5.32676 12.2969 5.14532 12.5792 4.8502C13.0659 5.12434 13.4726 5.52073 13.7592 6.0002C12.7633 6.85395 11.8736 7.82424 11.1092 8.8902C10.8887 9.18805 10.7553 9.5413 10.7238 9.91054C10.6924 10.2798 10.7642 10.6505 10.9311 10.9813C11.0981 11.3122 11.3537 11.5901 11.6694 11.7841C11.9852 11.9782 12.3486 12.0807 12.7192 12.0802H23.3192C23.6864 12.081 24.0468 11.9806 24.3608 11.7901C24.6748 11.5996 24.9302 11.3263 25.0992 11.0002C25.2691 10.669 25.3432 10.297 25.3131 9.926C25.2831 9.555 25.1501 9.19975 24.9292 8.9002C24.1564 7.82875 23.2565 6.85498 22.2492 6.0002C22.5384 5.53666 22.9411 5.1546 23.4192 4.8902C23.6782 5.15462 24.0173 5.32611 24.3838 5.37801C24.7502 5.42991 25.1236 5.35933 25.4459 5.17722C25.7681 4.99512 26.0212 4.71169 26.1658 4.37096C26.3104 4.03023 26.3385 3.65129 26.2456 3.29299C26.1527 2.93469 25.9441 2.6171 25.6521 2.38955C25.3602 2.16201 25.0013 2.03725 24.6311 2.03465C24.261 2.03205 23.9004 2.15176 23.6053 2.37519C23.3101 2.59861 23.0971 2.91324 22.9992 3.2702C22.1828 3.64686 21.4895 4.24657 20.9992 5.0002C20.1309 4.408 19.1183 4.06239 18.0692 4.0002C16.9961 4.05078 15.9579 4.39685 15.0692 5.0002C14.56 4.23636 13.8413 3.63567 12.9992 3.2702C12.9199 2.95989 12.7536 2.67869 12.5199 2.45975C12.2862 2.2408 11.9947 2.09323 11.6799 2.03442C11.3651 1.97562 11.04 2.00802 10.743 2.12783C10.446 2.24763 10.1894 2.44984 10.0035 2.71062C9.81753 2.9714 9.71003 3.27989 9.69362 3.59974C9.6772 3.91959 9.75255 4.23746 9.91079 4.51591C10.069 4.79436 10.3036 5.02177 10.5867 5.17136C10.8699 5.32094 11.19 5.38647 11.5092 5.3602ZM17.9992 6.0702C19.4492 6.0702 21.5292 7.6402 23.3092 10.0702H12.7092C14.4892 7.6302 16.5592 6.0702 17.9992 6.0702Z" fill="#01070E"/>
</svg>
