<svg width="36" height="36" viewBox="0 0 36 36" fill="none" xmlns="http://www.w3.org/2000/svg">
<path d="M10 8H8V10H10V8Z" fill="#01070E"/>
<path d="M14 8H12V10H14V8Z" fill="#01070E"/>
<path d="M18 8H16V10H18V8Z" fill="#01070E"/>
<path d="M10 13H8V15H10V13Z" fill="#01070E"/>
<path d="M14 13H12V15H14V13Z" fill="#01070E"/>
<path d="M18 13H16V15H18V13Z" fill="#01070E"/>
<path d="M10 18H8V20H10V18Z" fill="#01070E"/>
<path d="M14 18H12V20H14V18Z" fill="#01070E"/>
<path d="M18 18H16V20H18V18Z" fill="#01070E"/>
<path d="M10 23H8V25H10V23Z" fill="#01070E"/>
<path d="M14 23H12V25H14V23Z" fill="#01070E"/>
<path d="M18 23H16V25H18V23Z" fill="#01070E"/>
<path d="M25 18H23V20H25V18Z" fill="#01070E"/>
<path d="M29 18H27V20H29V18Z" fill="#01070E"/>
<path d="M25 23H23V25H25V23Z" fill="#01070E"/>
<path d="M29 23H27V25H29V23Z" fill="#01070E"/>
<path d="M20 31.0001H17V28.0001H9V31.0001H6V5.12009C6 5.10434 6.0031 5.08873 6.00913 5.07417C6.01516 5.05961 6.024 5.04638 6.03515 5.03524C6.04629 5.0241 6.05952 5.01526 6.07408 5.00923C6.08864 5.0032 6.10424 5.00009 6.12 5.00009H19.88C19.8958 5.00009 19.9114 5.0032 19.9259 5.00923C19.9405 5.01526 19.9537 5.0241 19.9649 5.03524C19.976 5.04638 19.9848 5.05961 19.9909 5.07417C19.9969 5.08873 20 5.10434 20 5.12009V8.24009L22 4.83009C21.9295 4.31947 21.6754 3.85202 21.2852 3.51519C20.895 3.17837 20.3954 2.99525 19.88 3.00009H6.12C5.55774 3.00009 5.01851 3.22345 4.62093 3.62103C4.22336 4.0186 4 4.55783 4 5.12009V33.0001H22V15.3801C21.2749 15.3362 20.579 15.0787 20 14.6401V31.0001Z" fill="#01070E"/>
<path d="M31 15.3999V30.9999H23V32.9999H33V15.3999H31Z" fill="#01070E"/>
<path d="M26.8504 1.13981L21.1304 10.9998C20.9973 11.1951 20.9209 11.4235 20.9097 11.6596C20.8984 11.8957 20.9527 12.1303 21.0666 12.3374C21.1806 12.5445 21.3496 12.716 21.555 12.8329C21.7604 12.9498 21.9942 13.0076 22.2304 12.9998H33.6804C33.9166 13.0076 34.1504 12.9498 34.3558 12.8329C34.5612 12.716 34.7302 12.5445 34.8441 12.3374C34.958 12.1303 35.0123 11.8957 35.0011 11.6596C34.9898 11.4235 34.9135 11.1951 34.7804 10.9998L29.0604 1.13981C28.9476 0.946869 28.7862 0.786825 28.5923 0.675603C28.3985 0.564381 28.1789 0.505859 27.9554 0.505859C27.7319 0.505859 27.5123 0.564381 27.3184 0.675603C27.1245 0.786825 26.9632 0.946869 26.8504 1.13981Z" fill="#01070E"/>
</svg>
