<svg width="36" height="36" viewBox="0 0 36 36" fill="none" xmlns="http://www.w3.org/2000/svg">
<path d="M31 8H23V10H31V31H23V33H33V10C33 9.46957 32.7893 8.96086 32.4142 8.58579C32.0391 8.21071 31.5304 8 31 8Z" fill="#01070E"/>
<path d="M19.88 3H6.12C5.55774 3 5.01851 3.22336 4.62093 3.62093C4.22336 4.01851 4 4.55774 4 5.12V33H22V5.12C22 4.55774 21.7766 4.01851 21.3791 3.62093C20.9815 3.22336 20.4423 3 19.88 3ZM20 31H17V28H9V31H6V5.12C6 5.10424 6.0031 5.08864 6.00913 5.07408C6.01516 5.05952 6.024 5.04629 6.03515 5.03515C6.04629 5.024 6.05952 5.01516 6.07408 5.00913C6.08864 5.0031 6.10424 5 6.12 5H19.88C19.8958 5 19.9114 5.0031 19.9259 5.00913C19.9405 5.01516 19.9537 5.024 19.9649 5.03515C19.976 5.04629 19.9848 5.05952 19.9909 5.07408C19.9969 5.08864 20 5.10424 20 5.12V31Z" fill="#01070E"/>
<path d="M10 8H8V10H10V8Z" fill="#01070E"/>
<path d="M14 8H12V10H14V8Z" fill="#01070E"/>
<path d="M18 8H16V10H18V8Z" fill="#01070E"/>
<path d="M10 13H8V15H10V13Z" fill="#01070E"/>
<path d="M14 13H12V15H14V13Z" fill="#01070E"/>
<path d="M18 13H16V15H18V13Z" fill="#01070E"/>
<path d="M10 18H8V20H10V18Z" fill="#01070E"/>
<path d="M14 18H12V20H14V18Z" fill="#01070E"/>
<path d="M18 18H16V20H18V18Z" fill="#01070E"/>
<path d="M10 23H8V25H10V23Z" fill="#01070E"/>
<path d="M14 23H12V25H14V23Z" fill="#01070E"/>
<path d="M18 23H16V25H18V23Z" fill="#01070E"/>
<path d="M25 13H23V15H25V13Z" fill="#01070E"/>
<path d="M29 13H27V15H29V13Z" fill="#01070E"/>
<path d="M25 18H23V20H25V18Z" fill="#01070E"/>
<path d="M29 18H27V20H29V18Z" fill="#01070E"/>
<path d="M25 23H23V25H25V23Z" fill="#01070E"/>
<path d="M29 23H27V25H29V23Z" fill="#01070E"/>
</svg>
