<svg width="36" height="36" viewBox="0 0 36 36" fill="none" xmlns="http://www.w3.org/2000/svg">
<path d="M5.21094 11.1699C6.31551 11.1699 7.21094 10.2745 7.21094 9.16992C7.21094 8.06535 6.31551 7.16992 5.21094 7.16992C4.10637 7.16992 3.21094 8.06535 3.21094 9.16992C3.21094 10.2745 4.10637 11.1699 5.21094 11.1699Z" fill="#01070E"/>
<path d="M5.21094 19.1699C6.31551 19.1699 7.21094 18.2745 7.21094 17.1699C7.21094 16.0654 6.31551 15.1699 5.21094 15.1699C4.10637 15.1699 3.21094 16.0654 3.21094 17.1699C3.21094 18.2745 4.10637 19.1699 5.21094 19.1699Z" fill="#01070E"/>
<path d="M5.21094 27.1699C6.31551 27.1699 7.21094 26.2745 7.21094 25.1699C7.21094 24.0654 6.31551 23.1699 5.21094 23.1699C4.10637 23.1699 3.21094 24.0654 3.21094 25.1699C3.21094 26.2745 4.10637 27.1699 5.21094 27.1699Z" fill="#01070E"/>
<path d="M32.42 9C32.42 8.73478 32.3146 8.48043 32.1271 8.29289C31.9396 8.10536 31.6852 8 31.42 8H10V10H31.42C31.6852 10 31.9396 9.89464 32.1271 9.70711C32.3146 9.51957 32.42 9.26522 32.42 9Z" fill="#01070E"/>
<path d="M31.42 16H10V18H31.42C31.6852 18 31.9396 17.8946 32.1271 17.7071C32.3146 17.5196 32.42 17.2652 32.42 17C32.42 16.7348 32.3146 16.4804 32.1271 16.2929C31.9396 16.1054 31.6852 16 31.42 16Z" fill="#01070E"/>
<path d="M31.42 24H10V26H31.42C31.6852 26 31.9396 25.8946 32.1271 25.7071C32.3146 25.5196 32.42 25.2652 32.42 25C32.42 24.7348 32.3146 24.4804 32.1271 24.2929C31.9396 24.1054 31.6852 24 31.42 24Z" fill="#01070E"/>
</svg>
