<svg width="36" height="36" viewBox="0 0 36 36" fill="none" xmlns="http://www.w3.org/2000/svg">
<path d="M17.9995 2.00012C16.5627 2.0041 15.1331 2.20257 13.7495 2.59012L14.5195 4.45012C17.5102 3.65827 20.6785 3.87418 23.534 5.06444C26.3896 6.2547 28.7733 8.35296 30.3162 11.0345C31.8591 13.716 32.4752 16.8313 32.0691 19.8983C31.663 22.9652 30.2574 25.8128 28.0698 28.0004C25.8822 30.188 23.0346 31.5936 19.9676 31.9997C16.9007 32.4058 13.7854 31.7897 11.1039 30.2468C8.42234 28.7039 6.32409 26.3202 5.13383 23.4647C3.94356 20.6091 3.72765 17.4408 4.51951 14.4501L2.65951 13.6701C1.75182 16.8991 1.88185 20.3317 3.03123 23.4828C4.1806 26.6338 6.29119 29.344 9.0647 31.2302C11.8382 33.1165 15.1344 34.0834 18.4873 33.9944C21.8403 33.9053 25.0805 32.7648 27.7499 30.734C30.4194 28.7031 32.3831 25.8848 33.3636 22.6771C34.3441 19.4695 34.2917 16.0348 33.2139 12.8586C32.1361 9.68232 30.0874 6.92511 27.3572 4.97662C24.6271 3.02814 21.3536 1.98692 17.9995 2.00012Z" fill="#01070E"/>
<path d="M7.44916 15.7001C6.95005 17.9807 7.20265 20.3615 8.16917 22.4866C9.1357 24.6117 10.7642 26.3668 12.8111 27.4894C14.8581 28.612 17.2134 29.0417 19.5249 28.7144C21.8364 28.3871 23.9798 27.3202 25.6346 25.6734C27.2893 24.0267 28.3665 21.8884 28.705 19.5785C29.0435 17.2687 28.6251 14.9113 27.5124 12.8589C26.3997 10.8066 24.6525 9.16964 22.5321 8.19286C20.4117 7.21608 18.0321 6.95199 15.7492 7.44008L16.3692 9.00008C18.3115 8.63642 20.3193 8.90505 22.0977 9.76652C23.8761 10.628 25.3315 12.0369 26.2503 13.7865C27.169 15.536 27.5026 17.534 27.2022 19.4871C26.9017 21.4402 25.983 23.2456 24.581 24.6381C23.1789 26.0307 21.3673 26.9371 19.4122 27.2242C17.4571 27.5113 15.4614 27.1641 13.7182 26.2335C11.9749 25.3029 10.5759 23.838 9.72659 22.0537C8.87725 20.2694 8.6223 18.2599 8.99917 16.3201L7.44916 15.7001Z" fill="#01070E"/>
<path d="M17.9991 22.0899C16.9968 22.075 16.0349 21.6917 15.2971 21.0129C14.5594 20.3342 14.0973 19.4076 13.9991 18.4099L12.3691 17.7299C12.3691 17.8199 12.3691 17.9099 12.3691 17.9999C12.3692 19.1278 12.7045 20.2303 13.3324 21.1672C13.9603 22.1042 14.8525 22.8334 15.8958 23.2623C16.939 23.6911 18.0861 23.8002 19.1915 23.5758C20.2968 23.3513 21.3105 22.8034 22.1038 22.0016C22.8972 21.1999 23.4343 20.1804 23.647 19.0727C23.8598 17.965 23.7385 16.8191 23.2986 15.7805C22.8587 14.7419 22.1201 13.8575 21.1765 13.2395C20.2329 12.6216 19.127 12.298 17.9991 12.3099H17.7591L18.4291 13.9999C19.4286 14.1515 20.3359 14.6696 20.9744 15.4533C21.6129 16.2371 21.9368 17.2304 21.8832 18.2399C21.8295 19.2494 21.4021 20.2028 20.6841 20.9144C19.9662 21.6261 19.0091 22.0451 17.9991 22.0899Z" fill="#01070E"/>
<path d="M8.20079 13.3402C8.2931 13.4344 8.41891 13.4883 8.55079 13.4902H12.2008L17.5708 18.8602C17.7591 19.0499 18.015 19.1569 18.2823 19.1579C18.5495 19.1588 18.8062 19.0535 18.9958 18.8652C19.1854 18.6769 19.2925 18.421 19.2934 18.1538C19.2944 17.8865 19.1891 17.6299 19.0008 17.4402L13.5308 12.0002V8.51022C13.5289 8.37834 13.475 8.25254 13.3808 8.16022L7.79079 2.57022C7.7209 2.5017 7.63244 2.4552 7.53638 2.43648C7.44031 2.41776 7.34087 2.42764 7.25037 2.46491C7.15986 2.50217 7.08229 2.56518 7.02726 2.64612C6.97223 2.72705 6.94216 2.82236 6.94079 2.92022V6.92022H3.00079C2.90293 6.9216 2.80762 6.95166 2.72668 7.00669C2.64575 7.06172 2.58274 7.1393 2.54547 7.2298C2.50821 7.3203 2.49832 7.41975 2.51704 7.51581C2.53577 7.61188 2.58227 7.70034 2.65079 7.77022L8.20079 13.3402Z" fill="#01070E"/>
</svg>
