<svg width="36" height="36" viewBox="0 0 36 36" fill="none" xmlns="http://www.w3.org/2000/svg">
<path d="M32.4302 8.3501L19.4302 2.1401C19.2946 2.07456 19.1459 2.04053 18.9952 2.04053C18.8446 2.04053 18.6959 2.07456 18.5602 2.1401L3.56024 9.3801C3.39007 9.46115 3.24627 9.58864 3.14542 9.74788C3.04457 9.90711 2.99077 10.0916 2.99024 10.2801V26.8301C2.98956 27.0253 3.04601 27.2164 3.15262 27.3798C3.25924 27.5433 3.41136 27.672 3.59024 27.7501L16.5902 33.9401C16.7259 34.0056 16.8746 34.0397 17.0252 34.0397C17.1759 34.0397 17.3246 34.0056 17.4602 33.9401L32.4602 26.7001C32.6304 26.619 32.7742 26.4916 32.8751 26.3323C32.9759 26.1731 33.0297 25.9886 33.0302 25.8001V9.2501C33.0271 9.05834 32.9688 8.87154 32.8624 8.71197C32.756 8.5524 32.606 8.42678 32.4302 8.3501ZM19.0002 4.1501L29.9302 9.3701L24.8802 11.8101L14.2102 6.4601L19.0002 4.1501ZM17.0002 15.6401L6.00024 10.4101L11.9002 7.5601L22.6002 12.9101L17.0002 15.6401ZM5.00024 12.1301L16.0002 17.4001V31.4601L5.00024 26.2001V12.1301ZM18.0002 31.4501V17.3601L31.0002 11.0701V25.1701L18.0002 31.4501Z" fill="#01070E"/>
</svg>
