<svg width="36" height="36" viewBox="0 0 36 36" fill="none" xmlns="http://www.w3.org/2000/svg">
<path d="M28 2H8C7.46957 2 6.96086 2.21071 6.58579 2.58579C6.21071 2.96086 6 3.46957 6 4V32C6 32.5304 6.21071 33.0391 6.58579 33.4142C6.96086 33.7893 7.46957 34 8 34H28C28.5304 34 29.0391 33.7893 29.4142 33.4142C29.7893 33.0391 30 32.5304 30 32V4C30 3.46957 29.7893 2.96086 29.4142 2.58579C29.0391 2.21071 28.5304 2 28 2ZM8 32V4H28V32H8Z" fill="#01070E"/>
<path d="M12 8H25.67V6H11C10.7348 6 10.4804 6.10536 10.2929 6.29289C10.1054 6.48043 10 6.73478 10 7V11.67H12V8Z" fill="#01070E"/>
<path d="M12 16H10V18H14V14H12V16Z" fill="#01070E"/>
<path d="M24 16H22V18H26V14H24V16Z" fill="#01070E"/>
<path d="M18 16H16V18H20V14H18V16Z" fill="#01070E"/>
<path d="M12 22H10V24H14V20H12V22Z" fill="#01070E"/>
<path d="M24 22H22V24H26V20H24V22Z" fill="#01070E"/>
<path d="M18 22H16V24H20V20H18V22Z" fill="#01070E"/>
<path d="M12 28H10V30H14V26H12V28Z" fill="#01070E"/>
<path d="M24 28H22V30H26V26H24V28Z" fill="#01070E"/>
<path d="M18 28H16V30H20V26H18V28Z" fill="#01070E"/>
</svg>
