<svg width="36" height="36" viewBox="0 0 36 36" fill="none" xmlns="http://www.w3.org/2000/svg">
<path d="M32 8H24.7L23.64 5.28C23.495 4.90413 23.2398 4.58083 22.9079 4.35243C22.576 4.12403 22.1829 4.00119 21.78 4H14.22C13.8154 3.99918 13.4201 4.12107 13.0862 4.3496C12.7524 4.57813 12.4957 4.90254 12.35 5.28L11.3 8H4C3.46957 8 2.96086 8.21072 2.58579 8.58579C2.21071 8.96086 2 9.46957 2 10V30C2 30.5304 2.21071 31.0391 2.58579 31.4142C2.96086 31.7893 3.46957 32 4 32H32C32.5304 32 33.0391 31.7893 33.4142 31.4142C33.7893 31.0391 34 30.5304 34 30V10C34 9.46957 33.7893 8.96086 33.4142 8.58579C33.0391 8.21072 32.5304 8 32 8ZM32 30H4V10H12.67L14.22 6H21.78L23.33 10H32V30Z" fill="#01070E"/>
<path d="M9 19C9 20.78 9.52784 22.5201 10.5168 24.0001C11.5057 25.4802 12.9113 26.6337 14.5558 27.3149C16.2004 27.9961 18.01 28.1743 19.7558 27.8271C21.5016 27.4798 23.1053 26.6226 24.364 25.364C25.6226 24.1053 26.4798 22.5016 26.8271 20.7558C27.1743 19.01 26.9961 17.2004 26.3149 15.5558C25.6337 13.9113 24.4802 12.5057 23.0001 11.5168C21.5201 10.5278 19.78 10 18 10C15.6131 10 13.3239 10.9482 11.636 12.636C9.94821 14.3239 9 16.6131 9 19ZM25.4 19C25.4 20.4636 24.966 21.8943 24.1529 23.1112C23.3398 24.3281 22.184 25.2766 20.8319 25.8367C19.4797 26.3968 17.9918 26.5433 16.5563 26.2578C15.1209 25.9723 13.8023 25.2675 12.7674 24.2326C11.7325 23.1977 11.0277 21.8791 10.7422 20.4437C10.4567 19.0082 10.6032 17.5203 11.1633 16.1681C11.7234 14.816 12.6719 13.6602 13.8888 12.8471C15.1057 12.034 16.5364 11.6 18 11.6C19.9618 11.6026 21.8425 12.3831 23.2297 13.7703C24.6169 15.1575 25.3974 17.0382 25.4 19Z" fill="#01070E"/>
<path d="M9.36914 12.8298C9.36914 12.6176 9.28485 12.4141 9.13483 12.2641C8.9848 12.1141 8.78131 12.0298 8.56914 12.0298H6.16914C5.95697 12.0298 5.75348 12.1141 5.60346 12.2641C5.45343 12.4141 5.36914 12.6176 5.36914 12.8298C5.36914 13.042 5.45343 13.2454 5.60346 13.3955C5.75348 13.5455 5.95697 13.6298 6.16914 13.6298H8.56914C8.78131 13.6298 8.9848 13.5455 9.13483 13.3955C9.28485 13.2454 9.36914 13.042 9.36914 12.8298Z" fill="#01070E"/>
<path d="M12.34 18.9999C12.3512 20.0546 12.6617 21.0844 13.2353 21.9695C13.8088 22.8546 14.6219 23.5587 15.58 23.9999L16.43 22.6299C15.8574 22.4381 15.3356 22.1192 14.9038 21.697C14.472 21.2749 14.1415 20.7604 13.9368 20.1923C13.7322 19.6241 13.6589 19.017 13.7224 18.4165C13.7859 17.816 13.9845 17.2376 14.3033 16.7248C14.6222 16.212 15.053 15.778 15.5635 15.4554C16.074 15.1329 16.6509 14.9301 17.251 14.8622C17.851 14.7944 18.4586 14.8633 19.0283 15.0638C19.5979 15.2643 20.1147 15.5912 20.54 16.0199L21.4 14.6399C20.5813 13.9766 19.591 13.5596 18.5445 13.4374C17.498 13.3152 16.4383 13.493 15.4888 13.9499C14.5394 14.4068 13.7393 15.124 13.1819 16.0181C12.6244 16.9122 12.3324 17.9463 12.34 18.9999Z" fill="#01070E"/>
</svg>
