<svg width="36" height="36" viewBox="0 0 36 36" fill="none" xmlns="http://www.w3.org/2000/svg">
<path d="M15 34.0599C14.7348 34.0599 14.4804 33.9545 14.2929 33.767C14.1054 33.5795 14 33.3251 14 33.0599V3.1499C14 2.88469 14.1054 2.63033 14.2929 2.4428C14.4804 2.25526 14.7348 2.1499 15 2.1499C15.2652 2.1499 15.5196 2.25526 15.7071 2.4428C15.8946 2.63033 16 2.88469 16 3.1499V33.0599C16 33.3251 15.8946 33.5795 15.7071 33.767C15.5196 33.9545 15.2652 34.0599 15 34.0599Z" fill="#01070E"/>
<path d="M21 34.0599C20.7348 34.0599 20.4804 33.9545 20.2929 33.767C20.1054 33.5795 20 33.3251 20 33.0599V3.1499C20 2.88469 20.1054 2.63033 20.2929 2.4428C20.4804 2.25526 20.7348 2.1499 21 2.1499C21.2652 2.1499 21.5196 2.25526 21.7071 2.4428C21.8946 2.63033 22 2.88469 22 3.1499V33.0599C22 33.3251 21.8946 33.5795 21.7071 33.767C21.5196 33.9545 21.2652 34.0599 21 34.0599Z" fill="#01070E"/>
<path d="M14.46 19H3C2.73478 19 2.48043 18.8946 2.29289 18.7071C2.10536 18.5196 2 18.2652 2 18C2 17.7348 2.10536 17.4804 2.29289 17.2929C2.48043 17.1054 2.73478 17 3 17H14.46C14.7252 17 14.9796 17.1054 15.1671 17.2929C15.3546 17.4804 15.46 17.7348 15.46 18C15.46 18.2652 15.3546 18.5196 15.1671 18.7071C14.9796 18.8946 14.7252 19 14.46 19Z" fill="#01070E"/>
<path d="M32.9991 19H21.5391C21.2738 19 21.0195 18.8946 20.832 18.7071C20.6444 18.5196 20.5391 18.2652 20.5391 18C20.5391 17.7348 20.6444 17.4804 20.832 17.2929C21.0195 17.1054 21.2738 17 21.5391 17H32.9991C33.2643 17 33.5186 17.1054 33.7062 17.2929C33.8937 17.4804 33.9991 17.7348 33.9991 18C33.9991 18.2652 33.8937 18.5196 33.7062 18.7071C33.5186 18.8946 33.2643 19 32.9991 19Z" fill="#01070E"/>
</svg>
