<svg width="36" height="36" viewBox="0 0 36 36" fill="none" xmlns="http://www.w3.org/2000/svg">
<path d="M13.5 21C11 21 9 23 9 25.5C9 28 11 30 13.5 30C16 30 18 28 18 25.5C18 23 16 21 13.5 21ZM13.5 28C12.1 28 11 26.9 11 25.5C11 24.1 12.1 23 13.5 23C14.9 23 16 24.1 16 25.5C16 26.9 14.9 28 13.5 28Z" fill="#01070E"/>
<path d="M33 24H31V16.5C31 16 30.9 15.5 30.6 15L26.4 7.5C25.9 6.5 24.9 6 23.8 6H5C3.3 6 2 7.3 2 9V23C2 24.7 3.3 26 5 26H7V24H5C4.4 24 4 23.6 4 23V9C4 8.4 4.4 8 5 8H23.8C24.2 8 24.5 8.2 24.7 8.5L28.9 16C29 16.1 29 16.3 29 16.5V24H25V12H18V20H20V14H23V24H20V26H33C33.6 26 34 25.6 34 25C34 24.4 33.6 24 33 24Z" fill="#01070E"/>
<path d="M16 12H7V18H16V12ZM14 16H9V14H14V16Z" fill="#01070E"/>
</svg>
