<svg width="36" height="36" viewBox="0 0 36 36" fill="none" xmlns="http://www.w3.org/2000/svg">
<path d="M18 2C14.8355 2 11.7421 2.93838 9.11088 4.69649C6.4797 6.45459 4.42894 8.95345 3.21793 11.8771C2.00693 14.8007 1.69008 18.0177 2.30744 21.1214C2.92481 24.2251 4.44866 27.0761 6.6863 29.3137C8.92394 31.5513 11.7749 33.0752 14.8786 33.6926C17.9823 34.3099 21.1993 33.9931 24.1229 32.7821C27.0466 31.5711 29.5454 29.5203 31.3035 26.8891C33.0616 24.2579 34 21.1645 34 18C34 13.7565 32.3143 9.68687 29.3137 6.68629C26.3131 3.68571 22.2435 2 18 2ZM18 32C15.2311 32 12.5243 31.1789 10.222 29.6406C7.91974 28.1022 6.12532 25.9157 5.06569 23.3576C4.00607 20.7994 3.72882 17.9845 4.26901 15.2687C4.80921 12.553 6.14258 10.0584 8.10051 8.1005C10.0584 6.14257 12.553 4.8092 15.2687 4.26901C17.9845 3.72881 20.7994 4.00606 23.3576 5.06569C25.9157 6.12531 28.1022 7.91973 29.6406 10.222C31.1789 12.5243 32 15.2311 32 18C32 21.713 30.525 25.274 27.8995 27.8995C25.274 30.525 21.713 32 18 32Z" fill="#01070E"/>
<path d="M22.3302 18C22.3302 17.1175 22.0683 16.2548 21.5778 15.5212C21.0873 14.7875 20.3901 14.2159 19.5746 13.8786C18.7591 13.5413 17.8618 13.4536 16.9964 13.6265C16.1309 13.7994 15.3363 14.2251 14.7129 14.8499C14.0896 15.4746 13.6656 16.2703 13.4946 17.1361C13.3237 18.0019 13.4134 18.899 13.7525 19.7137C14.0916 20.5285 14.6648 21.2244 15.3996 21.7133C16.1344 22.2021 16.9976 22.462 17.8802 22.46C19.0613 22.4574 20.1931 21.9863 21.0274 21.1502C21.8616 20.3141 22.3302 19.1812 22.3302 18ZM17.8802 20.9C17.3158 20.9019 16.7635 20.7369 16.2928 20.4255C15.822 20.1142 15.4539 19.6706 15.2348 19.1505C15.0157 18.6304 14.9553 18.0571 15.0614 17.5028C15.1674 16.9485 15.435 16.4379 15.8306 16.0354C16.2262 15.6329 16.732 15.3564 17.2844 15.2407C17.8368 15.1251 18.411 15.1755 18.9349 15.3855C19.4587 15.5956 19.9087 15.9559 20.2281 16.4211C20.5476 16.8864 20.7223 17.4357 20.7302 18C20.7354 18.3781 20.6657 18.7535 20.525 19.1045C20.3842 19.4554 20.1753 19.775 19.9103 20.0447C19.6452 20.3144 19.3293 20.5289 18.9809 20.6757C18.6324 20.8225 18.2583 20.8987 17.8802 20.9Z" fill="#01070E"/>
<path d="M17.8797 7.42984H17.9997V5.83984H17.8797C14.6944 5.84149 11.6359 7.08779 9.35669 9.31285C7.07746 11.5379 5.75795 14.5656 5.67969 17.7498H7.27969C7.3552 14.9882 8.50492 12.3649 10.4844 10.4377C12.4639 8.51051 15.117 7.43142 17.8797 7.42984Z" fill="#01070E"/>
<path d="M30.08 18H28.49C28.4969 20.7545 27.4323 23.4036 25.5213 25.3874C23.6103 27.3711 21.0028 28.534 18.25 28.63V30.23C21.4264 30.1312 24.4393 28.7989 26.6497 26.5156C28.8601 24.2324 30.0941 21.1779 30.09 18H30.08Z" fill="#01070E"/>
<path d="M17.9993 10.9999V9.43994H17.8793C15.6476 9.44377 13.5044 10.3129 11.9005 11.8646C10.2966 13.4164 9.35696 15.5296 9.2793 17.7599H10.8793C10.9517 15.9524 11.721 14.243 13.026 12.9902C14.331 11.7374 16.0703 11.0385 17.8793 11.0399L17.9993 10.9999Z" fill="#01070E"/>
<path d="M18.25 25V26.6C20.4653 26.5021 22.5574 25.5533 24.0905 23.9513C25.6237 22.3492 26.4796 20.2174 26.48 18H24.88C24.8825 19.7942 24.196 21.5208 22.9622 22.8234C21.7285 24.126 20.0416 24.9052 18.25 25Z" fill="#01070E"/>
</svg>
