<svg width="36" height="36" viewBox="0 0 36 36" fill="none" xmlns="http://www.w3.org/2000/svg">
<path d="M30.8795 8H5.11953C4.82779 8 4.548 8.11589 4.34171 8.32218C4.13542 8.52847 4.01953 8.80826 4.01953 9.1C4.01953 9.39174 4.13542 9.67153 4.34171 9.87782C4.548 10.0841 4.82779 10.2 5.11953 10.2H30.8795C31.1713 10.2 31.4511 10.0841 31.6573 9.87782C31.8636 9.67153 31.9795 9.39174 31.9795 9.1C31.9795 8.80826 31.8636 8.52847 31.6573 8.32218C31.4511 8.11589 31.1713 8 30.8795 8Z" fill="#01070E"/>
<path d="M25.5004 16.2C25.7921 16.2 26.0719 16.0841 26.2782 15.8778C26.4845 15.6715 26.6004 15.3917 26.6004 15.1C26.6004 14.8083 26.4845 14.5285 26.2782 14.3222C26.0719 14.1159 25.7921 14 25.5004 14H10.5004C10.2087 14 9.92886 14.1159 9.72257 14.3222C9.51628 14.5285 9.40039 14.8083 9.40039 15.1C9.40039 15.3917 9.51628 15.6715 9.72257 15.8778C9.92886 16.0841 10.2087 16.2 10.5004 16.2H25.5004Z" fill="#01070E"/>
<path d="M30.2504 20H5.75039C5.45865 20 5.17886 20.1159 4.97257 20.3222C4.76628 20.5285 4.65039 20.8083 4.65039 21.1C4.65039 21.3917 4.76628 21.6715 4.97257 21.8778C5.17886 22.0841 5.45865 22.2 5.75039 22.2H30.2504C30.5421 22.2 30.8219 22.0841 31.0282 21.8778C31.2345 21.6715 31.3504 21.3917 31.3504 21.1C31.3504 20.8083 31.2345 20.5285 31.0282 20.3222C30.8219 20.1159 30.5421 20 30.2504 20Z" fill="#01070E"/>
<path d="M24.8795 26H11.1195C10.9751 26 10.832 26.0285 10.6986 26.0837C10.5651 26.139 10.4439 26.22 10.3417 26.3222C10.2396 26.4243 10.1585 26.5456 10.1033 26.679C10.048 26.8125 10.0195 26.9555 10.0195 27.1C10.0195 27.2445 10.048 27.3875 10.1033 27.521C10.1585 27.6544 10.2396 27.7757 10.3417 27.8778C10.4439 27.98 10.5651 28.061 10.6986 28.1163C10.832 28.1715 10.9751 28.2 11.1195 28.2H24.8795C25.024 28.2 25.167 28.1715 25.3005 28.1163C25.4339 28.061 25.5552 27.98 25.6573 27.8778C25.7595 27.7757 25.8405 27.6544 25.8958 27.521C25.9511 27.3875 25.9795 27.2445 25.9795 27.1C25.9795 26.9555 25.9511 26.8125 25.8958 26.679C25.8405 26.5456 25.7595 26.4243 25.6573 26.3222C25.5552 26.22 25.4339 26.139 25.3005 26.0837C25.167 26.0285 25.024 26 24.8795 26Z" fill="#01070E"/>
</svg>
