<svg width="36" height="36" viewBox="0 0 36 36" fill="none" xmlns="http://www.w3.org/2000/svg">
<path d="M32 6H4C3.46957 6 2.96086 6.21071 2.58579 6.58579C2.21071 6.96086 2 7.46957 2 8V28C2 28.5304 2.21071 29.0391 2.58579 29.4142C2.96086 29.7893 3.46957 30 4 30H19L19.57 29.3L20.5 28.16L20.41 28H4V8H32V16.56C32.7597 17.0518 33.4351 17.663 34 18.37V8C34 7.46957 33.7893 6.96086 33.4142 6.58579C33.0391 6.21071 32.5304 6 32 6Z" fill="#01070E"/>
<path d="M24 12H7V13.6H24V12Z" fill="#01070E"/>
<path d="M18 16H7V17.6H18V16Z" fill="#01070E"/>
<path d="M17 23H7V24.6H17V23Z" fill="#01070E"/>
<path d="M27.4593 17.2302C26.1797 17.22 24.9267 17.5961 23.8642 18.3094C22.8016 19.0226 21.979 20.0398 21.5037 21.2279C21.0284 22.4161 20.9227 23.72 21.2002 24.9693C21.4777 26.2185 22.1257 27.355 23.0593 28.2302L21.1193 30.6002L22.0193 34.2102L25.6793 29.7502C26.8379 30.0927 28.0708 30.0927 29.2293 29.7502L32.8893 34.2102L33.7893 30.6002L31.8493 28.2302C32.783 27.355 33.4309 26.2185 33.7085 24.9693C33.986 23.72 33.8802 22.4161 33.4049 21.2279C32.9297 20.0398 32.107 19.0226 31.0445 18.3094C29.982 17.5961 28.729 17.22 27.4493 17.2302H27.4593ZM27.4593 27.9102C26.6095 27.8983 25.7822 27.6356 25.0814 27.1548C24.3806 26.6741 23.8375 25.9969 23.5204 25.2084C23.2034 24.4199 23.1266 23.5552 23.2996 22.7232C23.4726 21.8911 23.8878 21.1288 24.4928 20.532C25.0979 19.9352 25.8659 19.5306 26.7003 19.3691C27.5347 19.2076 28.3982 19.2964 29.1823 19.6243C29.9663 19.9522 30.6359 20.5046 31.1069 21.212C31.5779 21.9194 31.8292 22.7503 31.8293 23.6002C31.8188 24.7504 31.3531 25.8496 30.5341 26.6573C29.7151 27.4651 28.6096 27.9155 27.4593 27.9102Z" fill="#01070E"/>
</svg>
