<svg width="36" height="36" viewBox="0 0 36 36" fill="none" xmlns="http://www.w3.org/2000/svg">
<path d="M13.7193 27.6898L3.28929 17.2698C3.12546 17.0785 3.03985 16.8324 3.04957 16.5807C3.0593 16.329 3.16363 16.0903 3.34172 15.9122C3.51982 15.7341 3.75856 15.6298 4.01023 15.6201C4.26191 15.6103 4.50798 15.6959 4.69929 15.8598L13.6993 24.8598L31.2893 7.28977C31.4806 7.12595 31.7267 7.04034 31.9783 7.05006C32.23 7.05978 32.4688 7.16412 32.6468 7.34221C32.8249 7.5203 32.9293 7.75904 32.939 8.01072C32.9487 8.2624 32.8631 8.50847 32.6993 8.69977L13.7193 27.6898Z" fill="#01070E"/>
</svg>
