<svg width="36" height="36" viewBox="0 0 36 36" fill="none" xmlns="http://www.w3.org/2000/svg">
<path d="M31.43 16H10V18H31.43C31.6952 18 31.9496 17.8946 32.1371 17.7071C32.3246 17.5196 32.43 17.2652 32.43 17C32.43 16.7348 32.3246 16.4804 32.1371 16.2929C31.9496 16.1054 31.6952 16 31.43 16Z" fill="#01070E"/>
<path d="M31.43 24H10V26H31.43C31.6952 26 31.9496 25.8946 32.1371 25.7071C32.3246 25.5196 32.43 25.2652 32.43 25C32.43 24.7348 32.3246 24.4804 32.1371 24.2929C31.9496 24.1054 31.6952 24 31.43 24Z" fill="#01070E"/>
<path d="M15.4492 10H31.4492C31.7144 10 31.9688 9.89464 32.1563 9.70711C32.3439 9.51957 32.4492 9.26522 32.4492 9C32.4492 8.73478 32.3439 8.48043 32.1563 8.29289C31.9688 8.10536 31.7144 8 31.4492 8H17.4492L15.4492 10Z" fill="#01070E"/>
<path d="M17.5007 3.42021C17.3993 3.31771 17.2786 3.23634 17.1456 3.18081C17.0126 3.12527 16.8699 3.09668 16.7257 3.09668C16.5816 3.09668 16.4388 3.12527 16.3058 3.18081C16.1728 3.23634 16.0521 3.31771 15.9507 3.42021L7.89071 11.4802L4.51071 7.84021C4.3118 7.62671 4.03622 7.50097 3.7446 7.49066C3.45298 7.48035 3.16921 7.5863 2.95571 7.78521C2.74221 7.98412 2.61647 8.2597 2.60616 8.55132C2.59584 8.84294 2.7018 9.12671 2.90071 9.34021L7.84071 14.6402L17.5007 5.00021C17.6066 4.89766 17.6907 4.77488 17.7482 4.63917C17.8057 4.50346 17.8353 4.35759 17.8353 4.21021C17.8353 4.06283 17.8057 3.91696 17.7482 3.78125C17.6907 3.64554 17.6066 3.52276 17.5007 3.42021Z" fill="#01070E"/>
</svg>
