<svg width="36" height="36" viewBox="0 0 36 36" fill="none" xmlns="http://www.w3.org/2000/svg">
<path d="M24.82 15.7998C24.6326 15.6135 24.3792 15.509 24.115 15.509C23.8508 15.509 23.5974 15.6135 23.41 15.7998C23.2237 15.9871 23.1192 16.2406 23.1192 16.5048C23.1192 16.769 23.2237 17.0224 23.41 17.2098L27.2 20.9998H9V3.77979C9 3.51457 8.89464 3.26021 8.70711 3.07268C8.51957 2.88514 8.26522 2.77979 8 2.77979C7.73478 2.77979 7.48043 2.88514 7.29289 3.07268C7.10536 3.26021 7 3.51457 7 3.77979V20.9998C7 21.5302 7.21071 22.0389 7.58579 22.414C7.96086 22.7891 8.46957 22.9998 9 22.9998H27.15L23.41 26.7498C23.2237 26.9371 23.1192 27.1906 23.1192 27.4548C23.1192 27.719 23.2237 27.9724 23.41 28.1598C23.5963 28.3445 23.8477 28.4487 24.11 28.4498C24.2416 28.4505 24.3721 28.4253 24.4939 28.3756C24.6157 28.3258 24.7266 28.2525 24.82 28.1598L31 21.9998L24.82 15.7998Z" fill="#01070E"/>
</svg>
