<svg width="33" height="33" viewBox="0 0 33 33" fill="none" xmlns="http://www.w3.org/2000/svg">
<path d="M22.5289 17.8104C21.9739 17.8121 21.4205 17.7517 20.8789 17.6304C21.1946 18.3126 21.436 19.0267 21.5989 19.7605C21.8989 19.7605 22.2089 19.7605 22.5289 19.7605C23.5487 19.7589 24.5616 19.5934 25.5289 19.2705L24.5989 17.4604C23.9282 17.6714 23.2317 17.7892 22.5289 17.8104Z" fill="#01070E"/>
<path d="M17.3584 15.8703L16.9984 15.4903C16.2176 14.7269 15.6155 13.8003 15.2351 12.7768C14.8547 11.7532 14.7056 10.6582 14.7984 9.57027C14.9005 8.11302 15.4369 6.71978 16.3384 5.57028L16.2584 7.00027C16.2574 7.25061 16.3503 7.49222 16.5188 7.67737C16.6872 7.86252 16.9191 7.97775 17.1684 8.00027H17.2584C17.5087 8.00129 17.7503 7.90838 17.9355 7.73989C18.1206 7.5714 18.2358 7.3396 18.2584 7.09027L18.5984 3.00027C18.6103 2.85543 18.5906 2.70972 18.5405 2.57328C18.4904 2.43685 18.4112 2.31297 18.3084 2.21027C18.1989 2.1216 18.072 2.05706 17.9358 2.02087C17.7997 1.98468 17.6574 1.97766 17.5184 2.00027L13.4284 2.35027C13.1632 2.37282 12.9178 2.4998 12.7462 2.70327C12.5746 2.90675 12.4908 3.17006 12.5134 3.43527C12.5359 3.70049 12.6629 3.94589 12.8664 4.11749C13.0698 4.28908 13.3332 4.37282 13.5984 4.35027L14.8884 4.24027C13.6736 5.76027 12.9577 7.61818 12.8384 9.56028C12.735 10.8912 12.9201 12.2288 13.3809 13.4817C13.8416 14.7347 14.5673 15.8734 15.5084 16.8203L15.8184 17.1903C17.0962 18.5109 17.8314 20.2633 17.8784 22.1003C17.9317 22.9324 17.8438 23.7675 17.6184 24.5703L19.4184 25.4803C19.8056 24.3531 19.9587 23.1587 19.8684 21.9703C19.807 19.6982 18.9138 17.5276 17.3584 15.8703Z" fill="#01070E"/>
<path d="M31.3993 15.9102L30.1893 16.0002C31.2934 14.5712 31.9744 12.861 32.1548 11.0642C32.3352 9.2673 32.0078 7.45588 31.2097 5.83588C30.4117 4.21588 29.1751 2.85231 27.6406 1.90023C26.1061 0.948157 24.3352 0.445778 22.5293 0.450225C21.5092 0.448462 20.4958 0.613992 19.5293 0.940225L20.4393 2.74022C21.5809 2.4169 22.782 2.36286 23.9481 2.58234C25.1141 2.80182 26.2134 3.28884 27.1593 4.00509C28.1053 4.72135 28.8722 5.64731 29.3997 6.71014C29.9272 7.77297 30.2009 8.94369 30.1993 10.1302C30.199 11.8449 29.6173 13.5088 28.5493 14.8502L28.6493 13.3102C28.6578 13.1789 28.6404 13.0472 28.5981 12.9226C28.5557 12.798 28.4892 12.683 28.4024 12.5841C28.3155 12.4852 28.2101 12.4044 28.092 12.3462C27.974 12.2881 27.8456 12.2538 27.7143 12.2452C27.583 12.2367 27.4513 12.2541 27.3267 12.2965C27.2021 12.3388 27.087 12.4053 26.9882 12.4922C26.8893 12.579 26.8084 12.6844 26.7503 12.8025C26.6922 12.9205 26.6578 13.0489 26.6493 13.1802L26.3693 17.2602C26.3614 17.4049 26.385 17.5496 26.4385 17.6843C26.492 17.819 26.5742 17.9404 26.6793 18.0402C26.7692 18.1314 26.8767 18.2033 26.9954 18.2515C27.114 18.2996 27.2413 18.323 27.3693 18.3202H27.4693L31.5493 17.9002C31.6809 17.8877 31.8087 17.8493 31.9253 17.7871C32.0419 17.7249 32.145 17.6402 32.2287 17.5379C32.3124 17.4357 32.375 17.3178 32.4129 17.1912C32.4507 17.0645 32.4631 16.9317 32.4493 16.8002C32.4215 16.5456 32.2971 16.3114 32.1018 16.1458C31.9064 15.9802 31.655 15.8959 31.3993 15.9102Z" fill="#01070E"/>
<path d="M3.06961 18.4405H3.14961L7.23961 18.0905C7.37093 18.0793 7.49877 18.0424 7.61582 17.9818C7.73288 17.9213 7.83686 17.8382 7.92182 17.7375C8.00679 17.6367 8.07108 17.5202 8.11102 17.3946C8.15096 17.269 8.16577 17.1368 8.15461 17.0055C8.14345 16.8741 8.10653 16.7463 8.04596 16.6293C7.9854 16.5122 7.90237 16.4082 7.80161 16.3233C7.70086 16.2383 7.58436 16.174 7.45877 16.1341C7.33317 16.0941 7.20093 16.0793 7.06961 16.0905L5.67961 16.2105C6.98888 15.2446 8.57262 14.7225 10.1996 14.7205C10.7477 14.7238 11.294 14.7841 11.8296 14.9005C11.5155 14.2187 11.2774 13.5044 11.1196 12.7705C10.8196 12.7705 10.5096 12.7705 10.1996 12.7705C8.06604 12.7673 5.99145 13.4705 4.29961 14.7705L4.41961 13.4605C4.43055 13.3291 4.41539 13.1968 4.375 13.0713C4.33462 12.9457 4.26981 12.8294 4.1843 12.7291C4.09879 12.6287 3.99428 12.5462 3.87677 12.4864C3.75926 12.4266 3.63109 12.3906 3.49961 12.3805C3.2358 12.3583 2.97397 12.4416 2.77151 12.6122C2.56906 12.7828 2.44251 13.0267 2.41961 13.2905L2.06961 17.3705C2.05854 17.5084 2.07621 17.647 2.12148 17.7778C2.16676 17.9085 2.23866 18.0284 2.33265 18.1299C2.42663 18.2314 2.54065 18.3123 2.66751 18.3675C2.79436 18.4226 2.93128 18.4509 3.06961 18.4505V18.4405Z" fill="#01070E"/>
<path d="M17.4193 26.2304L13.3293 26.5005C13.0641 26.5177 12.8166 26.6396 12.6412 26.8393C12.4659 27.039 12.3771 27.3002 12.3943 27.5655C12.4115 27.8307 12.5334 28.0782 12.7332 28.2535C12.9329 28.4289 13.1941 28.5177 13.4593 28.5005L14.9993 28.3904C13.8668 29.3007 12.5001 29.8724 11.0568 30.0396C9.61346 30.2069 8.15226 29.9629 6.84159 29.3358C5.53092 28.7086 4.42413 27.7239 3.64879 26.4951C2.87344 25.2663 2.4611 23.8434 2.4593 22.3904C2.4665 21.7138 2.56403 21.0412 2.7493 20.3904L0.999297 19.4604C0.689502 20.4132 0.530911 21.4086 0.529297 22.4104C0.54103 24.2215 1.05954 25.993 2.02612 27.5246C2.9927 29.0561 4.36874 30.2865 5.99847 31.0764C7.6282 31.8663 9.44651 32.1841 11.2476 31.994C13.0486 31.8038 14.7605 31.1133 16.1893 30.0005L16.0693 31.1805C16.0554 31.3111 16.0675 31.4433 16.1047 31.5693C16.1419 31.6953 16.2037 31.8128 16.2863 31.9149C16.369 32.0171 16.4709 32.1019 16.5864 32.1647C16.7019 32.2274 16.8286 32.2667 16.9593 32.2804H17.0693C17.3181 32.2817 17.5584 32.1902 17.7433 32.0238C17.9282 31.8573 18.0444 31.628 18.0693 31.3805L18.4893 27.3204C18.5042 27.1758 18.4873 27.0296 18.4398 26.8921C18.3924 26.7546 18.3155 26.6292 18.2146 26.5244C18.1137 26.4197 17.9911 26.3382 17.8555 26.2857C17.7199 26.2332 17.5744 26.211 17.4293 26.2204L17.4193 26.2304Z" fill="#01070E"/>
</svg>
