<svg width="36" height="36" viewBox="0 0 36 36" fill="none" xmlns="http://www.w3.org/2000/svg">
<path d="M18 2C14.8355 2 11.7421 2.93838 9.11088 4.69649C6.4797 6.45459 4.42894 8.95345 3.21793 11.8771C2.00693 14.8007 1.69008 18.0177 2.30744 21.1214C2.92481 24.2251 4.44866 27.0761 6.6863 29.3137C8.92394 31.5513 11.7749 33.0752 14.8786 33.6926C17.9823 34.3099 21.1993 33.9931 24.1229 32.7821C27.0466 31.5711 29.5454 29.5203 31.3035 26.8891C33.0616 24.2579 34 21.1645 34 18C34 13.7565 32.3143 9.68687 29.3137 6.68629C26.3131 3.68571 22.2435 2 18 2ZM18 32C15.2311 32 12.5243 31.1789 10.222 29.6406C7.91974 28.1022 6.12532 25.9157 5.06569 23.3576C4.00607 20.7994 3.72882 17.9845 4.26901 15.2687C4.80921 12.553 6.14258 10.0584 8.10051 8.1005C10.0584 6.14257 12.553 4.8092 15.2687 4.26901C17.9845 3.72881 20.7994 4.00606 23.3576 5.06569C25.9157 6.12531 28.1022 7.91973 29.6406 10.222C31.1789 12.5243 32 15.2311 32 18C32 21.713 30.525 25.274 27.8995 27.8995C25.274 30.525 21.713 32 18 32Z" fill="#01070E"/>
<path d="M18.0806 8.25977L10.4706 15.8698C10.366 15.9594 10.2809 16.0697 10.2209 16.1938C10.1609 16.3179 10.1272 16.453 10.1218 16.5907C10.1165 16.7284 10.1397 16.8658 10.19 16.9941C10.2403 17.1224 10.3165 17.239 10.414 17.3364C10.5114 17.4339 10.628 17.5101 10.7563 17.5604C10.8846 17.6107 11.022 17.6339 11.1597 17.6286C11.2974 17.6232 11.4325 17.5895 11.5566 17.5295C11.6807 17.4695 11.791 17.3844 11.8806 17.2798L17.0006 12.1798V27.1798C17.0006 27.445 17.106 27.6993 17.2935 27.8869C17.4811 28.0744 17.7354 28.1798 18.0006 28.1798C18.2659 28.1798 18.5202 28.0744 18.7077 27.8869C18.8953 27.6993 19.0006 27.445 19.0006 27.1798V11.9998L24.2806 17.2798C24.3703 17.3844 24.4806 17.4695 24.6047 17.5295C24.7287 17.5895 24.8639 17.6232 25.0016 17.6286C25.1393 17.6339 25.2766 17.6107 25.405 17.5604C25.5333 17.5101 25.6498 17.4339 25.7473 17.3364C25.8447 17.239 25.921 17.1224 25.9713 16.9941C26.0216 16.8658 26.0448 16.7284 26.0394 16.5907C26.0341 16.453 26.0004 16.3179 25.9404 16.1938C25.8803 16.0697 25.7953 15.9594 25.6906 15.8698L18.0806 8.25977Z" fill="#01070E"/>
</svg>
