<svg width="36" height="36" viewBox="0 0 36 36" fill="none" xmlns="http://www.w3.org/2000/svg">
<path d="M29.29 4.99996H27V6.99996H29V32H7V6.99996H9V4.99996H7C6.7551 4.96454 6.50548 4.98145 6.2676 5.04959C6.02972 5.11773 5.809 5.23554 5.62 5.39525C5.43099 5.55496 5.27801 5.75293 5.17114 5.9761C5.06426 6.19928 5.00594 6.44258 5 6.68996V32.31C5.00131 32.5332 5.04658 32.754 5.13322 32.9598C5.21987 33.1655 5.34619 33.3522 5.50498 33.5091C5.66377 33.666 5.85191 33.7902 6.05867 33.8744C6.26543 33.9586 6.48675 34.0013 6.71 34H29.29C29.5132 34.0013 29.7346 33.9586 29.9413 33.8744C30.1481 33.7902 30.3362 33.666 30.495 33.5091C30.6538 33.3522 30.7801 33.1655 30.8668 32.9598C30.9534 32.754 30.9987 32.5332 31 32.31V6.68996C30.9987 6.46671 30.9534 6.2459 30.8668 6.04015C30.7801 5.8344 30.6538 5.64773 30.495 5.49079C30.3362 5.33386 30.1481 5.20974 29.9413 5.12553C29.7346 5.04131 29.5132 4.99864 29.29 4.99996Z" fill="#01070E"/>
<path d="M26 7.33003C25.9974 6.71289 25.751 6.12177 25.3147 5.68538C24.8783 5.24899 24.2871 5.00266 23.67 5.00003H21.87C21.6497 4.13962 21.1493 3.37699 20.4477 2.83239C19.7461 2.28779 18.8832 1.99219 17.995 1.99219C17.1068 1.99219 16.2439 2.28779 15.5423 2.83239C14.8407 3.37699 14.3403 4.13962 14.12 5.00003H12.33C11.7129 5.00266 11.1217 5.24899 10.6853 5.68538C10.249 6.12177 10.0026 6.71289 10 7.33003V11H26V7.33003ZM24 9.00003H12V7.33003C12 7.28669 12.0085 7.24378 12.0251 7.20374C12.0417 7.16371 12.066 7.12733 12.0967 7.09669C12.1273 7.06604 12.1637 7.04173 12.2037 7.02515C12.2438 7.00857 12.2867 7.00003 12.33 7.00003H16V6.00003C16 5.4696 16.2107 4.96089 16.5858 4.58582C16.9609 4.21074 17.4696 4.00003 18 4.00003C18.5304 4.00003 19.0391 4.21074 19.4142 4.58582C19.7893 4.96089 20 5.4696 20 6.00003V7.00003H23.67C23.7575 7.00003 23.8415 7.0348 23.9033 7.09669C23.9652 7.15857 24 7.24251 24 7.33003V9.00003Z" fill="#01070E"/>
<path d="M25 14H11V16H25V14Z" fill="#01070E"/>
<path d="M25 18H11V20H25V18Z" fill="#01070E"/>
<path d="M25 22H11V24H25V22Z" fill="#01070E"/>
<path d="M25 26H11V28H25V26Z" fill="#01070E"/>
</svg>
