<svg width="36" height="36" viewBox="0 0 36 36" fill="none" xmlns="http://www.w3.org/2000/svg">
<path d="M18.9199 10.75C18.9199 10.4848 18.8146 10.2304 18.627 10.0429C18.4395 9.85536 18.1851 9.75 17.9199 9.75C17.6547 9.75 17.4004 9.85536 17.2128 10.0429C17.0253 10.2304 16.9199 10.4848 16.9199 10.75V19.47L22.8199 23.47C22.9286 23.5517 23.0528 23.6105 23.185 23.6426C23.3171 23.6747 23.4544 23.6795 23.5885 23.6567C23.7226 23.6339 23.8506 23.584 23.9647 23.5101C24.0789 23.4362 24.1767 23.3397 24.2523 23.2267C24.3279 23.1136 24.3796 22.9864 24.4044 22.8526C24.4291 22.7189 24.4263 22.5815 24.3961 22.4489C24.3659 22.3163 24.309 22.1913 24.2289 22.0814C24.1487 21.9716 24.047 21.8792 23.9299 21.81L18.9299 18.42L18.9199 10.75Z" fill="#01070E"/>
<path d="M33.77 15.3898H31.77C32.3409 18.3936 31.9128 21.5018 30.551 24.2393C29.1892 26.9769 26.9686 29.1934 24.2285 30.5502C21.4884 31.907 18.3794 32.3294 15.3767 31.7529C12.3739 31.1764 9.64241 29.6327 7.59954 27.3577C5.55668 25.0827 4.31477 22.2015 4.06356 19.1542C3.81235 16.1069 4.56565 13.0612 6.20837 10.4824C7.85109 7.90352 10.2929 5.93337 13.1607 4.87293C16.0286 3.81249 19.1647 3.72006 22.09 4.60977L23.09 2.84977C19.8797 1.77253 16.4104 1.74159 13.1814 2.7614C9.95236 3.78121 7.13015 5.79919 5.12093 8.5249C3.1117 11.2506 2.01905 14.5435 2.00025 17.9297C1.98144 21.3159 3.03744 24.6207 5.01626 27.3686C6.99509 30.1164 9.7947 32.1656 13.0122 33.2212C16.2297 34.2769 19.6991 34.2845 22.9212 33.2429C26.1433 32.2014 28.9518 30.1645 30.9427 27.4253C32.9335 24.6862 34.004 21.386 34 17.9998C33.9948 17.1249 33.9179 16.252 33.77 15.3898Z" fill="#01070E"/>
<path d="M17.9999 7.99994C18.6727 8.00782 19.3429 8.08489 19.9999 8.22994L20.8499 6.76994C19.3613 6.40513 17.815 6.34025 16.3011 6.57907C14.7871 6.81789 13.3358 7.35564 12.0318 8.16098C10.7278 8.96632 9.59709 10.0231 8.70561 11.2699C7.81413 12.5166 7.17969 13.9283 6.83928 15.4226C6.49886 16.917 6.45927 18.4642 6.72282 19.974C6.98636 21.4839 7.54777 22.9262 8.37433 24.2168C9.20089 25.5075 10.2761 26.6208 11.5372 27.4918C12.7983 28.3627 14.2202 28.974 15.7199 29.2899L15.9999 27.6999C13.6617 27.1221 11.6106 25.7198 10.2236 23.7507C8.8366 21.7817 8.20685 19.3782 8.45013 16.9819C8.6934 14.5857 9.79334 12.3578 11.5478 10.7077C13.3022 9.05753 15.5933 8.09605 17.9999 7.99994Z" fill="#01070E"/>
<path d="M26.8504 1.13981L21.1304 10.9998C20.9973 11.1951 20.9209 11.4235 20.9097 11.6596C20.8984 11.8957 20.9527 12.1303 21.0666 12.3374C21.1806 12.5445 21.3496 12.716 21.555 12.8329C21.7604 12.9498 21.9942 13.0076 22.2304 12.9998H33.6804C33.9166 13.0076 34.1504 12.9498 34.3558 12.8329C34.5612 12.716 34.7302 12.5445 34.8441 12.3374C34.958 12.1303 35.0123 11.8957 35.0011 11.6596C34.9898 11.4235 34.9135 11.1951 34.7804 10.9998L29.0604 1.13981C28.9476 0.946869 28.7862 0.786825 28.5923 0.675603C28.3985 0.564381 28.1789 0.505859 27.9554 0.505859C27.7319 0.505859 27.5123 0.564381 27.3184 0.675603C27.1245 0.786825 26.9632 0.946869 26.8504 1.13981Z" fill="#01070E"/>
</svg>
