<svg width="36" height="36" viewBox="0 0 36 36" fill="none" xmlns="http://www.w3.org/2000/svg">
<path d="M27.14 33.0002H10.62C5.67 33.0002 1 28.1902 1 23.1002C1.01102 20.8035 1.81229 18.5806 3.26915 16.805C4.72601 15.0295 6.74966 13.8095 9 13.3502C9.25886 10.7431 10.5119 8.3359 12.499 6.62843C14.486 4.92095 17.0544 4.04441 19.6707 4.18083C22.2871 4.31724 24.7503 5.45613 26.549 7.36099C28.3478 9.26586 29.3437 11.7903 29.33 14.4102C29.3053 15.1702 29.1946 15.925 29 16.6602C30.7346 17.1587 32.2592 18.2098 33.3421 19.6536C34.425 21.0975 35.0071 22.8554 35 24.6602C35 29.1002 31.33 33.0002 27.14 33.0002ZM19.09 6.23018C16.9542 6.24224 14.9066 7.08311 13.3787 8.57552C11.8509 10.0679 10.9622 12.0953 10.9 14.2302V15.1002L10.04 15.2002C8.10068 15.4214 6.3108 16.3493 5.01219 17.8065C3.71359 19.2638 2.99725 21.1483 3 23.1002C3 27.1002 6.77 31.0002 10.62 31.0002H27.14C30.21 31.0002 33 28.0002 33 24.6502C33.0049 23.136 32.4652 21.6706 31.4793 20.5214C30.4935 19.3722 29.1273 18.6157 27.63 18.3902L26.45 18.2102L26.84 17.0802C27.266 15.8466 27.3906 14.5289 27.2035 13.2373C27.0164 11.9457 26.5229 10.7176 25.7644 9.65564C25.0058 8.59364 24.0041 7.72856 22.843 7.13265C21.6819 6.53675 20.3951 6.22731 19.09 6.23018Z" fill="#01070E"/>
</svg>
