<svg width="36" height="36" viewBox="0 0 36 36" fill="none" xmlns="http://www.w3.org/2000/svg">
<path d="M26.5406 20.8202C26.5406 20.5868 26.4479 20.363 26.2829 20.1979C26.1178 20.0329 25.894 19.9402 25.6606 19.9402H20.7506L21.8506 18.8402C22.0151 18.6744 22.1069 18.4501 22.106 18.2167C22.105 17.9832 22.0114 17.7596 21.8456 17.5952C21.6799 17.4308 21.4556 17.3389 21.2221 17.3399C20.9886 17.3408 20.7651 17.4344 20.6006 17.6002L17.3906 20.8202L20.6006 24.0002C20.682 24.0823 20.7788 24.1475 20.8855 24.1922C20.9921 24.2369 21.1065 24.2601 21.2221 24.2605C21.3377 24.261 21.4523 24.2387 21.5593 24.1949C21.6662 24.1511 21.7635 24.0866 21.8456 24.0052C21.9277 23.9238 21.9929 23.827 22.0376 23.7204C22.0823 23.6137 22.1055 23.4993 22.106 23.3837C22.1064 23.2681 22.0841 23.1536 22.0403 23.0466C21.9965 22.9396 21.932 22.8423 21.8506 22.7602L20.7606 21.7002H25.6606C25.894 21.7002 26.1178 21.6075 26.2829 21.4425C26.4479 21.2774 26.5406 21.0536 26.5406 20.8202Z" fill="#01070E"/>
<path d="M29.2705 21.6999C29.5039 21.6999 29.7278 21.6072 29.8928 21.4422C30.0578 21.2772 30.1505 21.0533 30.1505 20.8199C30.1505 20.5866 30.0578 20.3627 29.8928 20.1977C29.7278 20.0327 29.5039 19.9399 29.2705 19.9399H28.6905C28.4572 19.9399 28.2333 20.0327 28.0683 20.1977C27.9033 20.3627 27.8105 20.5866 27.8105 20.8199C27.8105 21.0533 27.9033 21.2772 28.0683 21.4422C28.2333 21.6072 28.4572 21.6999 28.6905 21.6999H29.2705Z" fill="#01070E"/>
<path d="M32.2094 20H32.1494C32.0352 19.9999 31.9221 20.0229 31.817 20.0674C31.7119 20.112 31.6168 20.1773 31.5375 20.2595C31.4581 20.3416 31.3962 20.4389 31.3552 20.5455C31.3143 20.6521 31.2953 20.7659 31.2994 20.88C31.3071 21.1161 31.4064 21.3399 31.5763 21.5042C31.7461 21.6684 31.9731 21.7601 32.2094 21.76C32.4427 21.76 32.6666 21.6673 32.8316 21.5023C32.9966 21.3372 33.0894 21.1134 33.0894 20.88C33.0894 20.6466 32.9966 20.4228 32.8316 20.2577C32.6666 20.0927 32.4427 20 32.2094 20Z" fill="#01070E"/>
<path d="M32.5904 11.0001C32.426 10.8343 32.2024 10.7407 31.9689 10.7398C31.7354 10.7388 31.5112 10.8307 31.3454 10.9951C31.1796 11.1595 31.086 11.3831 31.085 11.6166C31.0841 11.85 31.176 12.0743 31.3404 12.2401L32.4404 13.3401H27.5304C27.297 13.3401 27.0732 13.4328 26.9081 13.5978C26.7431 13.7629 26.6504 13.9867 26.6504 14.2201C26.6504 14.4535 26.7431 14.6773 26.9081 14.8424C27.0732 15.0074 27.297 15.1001 27.5304 15.1001H32.4304L31.3404 16.1901C31.176 16.3559 31.0841 16.5802 31.085 16.8136C31.086 17.0471 31.1796 17.2707 31.3454 17.4351C31.5112 17.5995 31.7354 17.6914 31.9689 17.6904C32.2024 17.6895 32.426 17.5959 32.5904 17.4301L35.8004 14.2101L32.5904 11.0001Z" fill="#01070E"/>
<path d="M24.4991 15.0701C24.7325 15.0701 24.9563 14.9773 25.1213 14.8123C25.2863 14.6473 25.3791 14.4234 25.3791 14.1901C25.3791 13.9567 25.2863 13.7328 25.1213 13.5678C24.9563 13.4028 24.7325 13.3101 24.4991 13.3101H23.9191C23.6857 13.3101 23.4618 13.4028 23.2968 13.5678C23.1318 13.7328 23.0391 13.9567 23.0391 14.1901C23.0391 14.4234 23.1318 14.6473 23.2968 14.8123C23.4618 14.9773 23.6857 15.0701 23.9191 15.0701H24.4991Z" fill="#01070E"/>
<path d="M21.8991 14.2701C21.9032 14.156 21.8842 14.0422 21.8433 13.9356C21.8023 13.829 21.7404 13.7317 21.661 13.6496C21.5817 13.5675 21.4866 13.5022 21.3815 13.4576C21.2764 13.413 21.1633 13.3901 21.0491 13.3901H20.9991C20.8836 13.3901 20.7691 13.4129 20.6624 13.4571C20.5556 13.5013 20.4586 13.5662 20.3769 13.6479C20.2952 13.7296 20.2304 13.8266 20.1861 13.9334C20.1419 14.0401 20.1191 14.1546 20.1191 14.2701C20.1191 14.3857 20.1419 14.5001 20.1861 14.6069C20.2304 14.7137 20.2952 14.8107 20.3769 14.8924C20.4586 14.9741 20.5556 15.0389 20.6624 15.0832C20.7691 15.1274 20.8836 15.1501 20.9991 15.1501C21.2336 15.1477 21.4581 15.0548 21.6258 14.8908C21.7935 14.7269 21.8914 14.5045 21.8991 14.2701Z" fill="#01070E"/>
<path d="M30.3606 23.6502C30.3606 23.7802 30.3606 23.9102 30.3606 24.0402C30.393 25.0351 30.0306 26.0026 29.3524 26.7314C28.6742 27.4601 27.7353 27.8911 26.7406 27.9302H7.28057C5.87468 27.8806 4.54566 27.2762 3.58427 26.2492C2.62288 25.2222 2.10738 23.8563 2.15057 22.4502C2.11544 21.0492 2.63454 19.6909 3.59508 18.6705C4.55562 17.65 5.88002 17.0498 7.28057 17.0002H8.91057L9.00057 16.1202C9.22284 13.9681 10.2197 11.9702 11.8055 10.4984C13.3913 9.0267 15.4579 8.18147 17.6206 8.12016H17.7006C18.9705 8.14293 20.2191 8.45034 21.3544 9.01974C22.4897 9.58913 23.4828 10.406 24.2606 11.4102H26.6306C25.721 9.84382 24.4235 8.53803 22.863 7.61853C21.3024 6.69903 19.5315 6.19678 17.7206 6.16016H17.6106C15.1271 6.21705 12.7389 7.12674 10.8469 8.73646C8.95495 10.3462 7.67449 12.5579 7.22057 15.0002C5.3125 15.0732 3.5095 15.8929 2.20013 17.2827C0.89075 18.6725 0.179828 20.5211 0.220567 22.4302C0.177586 24.3533 0.89858 26.2152 2.22562 27.6078C3.55265 29.0004 5.37755 29.8104 7.30057 29.8602H26.7706C27.5218 29.842 28.2621 29.676 28.9491 29.3716C29.6362 29.0673 30.2565 28.6305 30.7747 28.0863C31.2929 27.5421 31.6988 26.9011 31.9692 26.2C32.2396 25.4989 32.3692 24.7514 32.3506 24.0002C32.3573 23.8702 32.3573 23.7401 32.3506 23.6102L30.3606 23.6502Z" fill="#01070E"/>
</svg>
