<svg width="36" height="36" viewBox="0 0 36 36" fill="none" xmlns="http://www.w3.org/2000/svg">
<path d="M34 29C34 30.105 33.105 31 32 31H4C2.895 31 2 30.105 2 29V7C2 5.895 2.895 5 4 5H21.958L20.786 7H4V29H32V15.357H34V29Z" fill="#01070E"/>
<path d="M18.849 21.8489C15.334 25.3639 10.586 26.3139 8.24296 23.9699C5.89896 21.6269 6.84896 16.8779 10.364 13.3639C13.049 10.6789 16.453 9.49193 18.956 10.1239L18.008 11.7409C16.18 11.5179 13.695 12.5779 11.636 14.6369C8.82396 17.4489 7.87496 21.0579 9.51496 22.6979C11.155 24.3379 14.764 23.3889 17.576 20.5769C19.228 18.9249 20.237 16.9979 20.456 15.3569H22.22C22.006 17.4769 20.838 19.8609 18.849 21.8489Z" fill="#01070E"/>
<path d="M28 22C28 23.657 26.657 25 25 25C23.343 25 22 23.657 22 22C22 20.343 23.343 19 25 19C26.657 19 28 20.343 28 22ZM25 20.6C24.226 20.6 23.6 21.226 23.6 22C23.6 22.773 24.226 23.4 25 23.4C25.773 23.4 26.4 22.773 26.4 22C26.4 21.226 25.773 20.6 25 20.6Z" fill="#01070E"/>
<path d="M26.8541 1.144L21.1341 11.004C20.5791 11.818 21.1141 12.928 22.0971 13.001C22.1421 13.005 22.1881 13.006 22.2341 13.004H33.6841C34.6691 13.036 35.3191 11.991 34.8551 11.122C34.8341 11.081 34.8101 11.042 34.7841 11.004L29.0641 1.144C28.5701 0.299004 27.3481 0.299004 26.8541 1.144Z" fill="#01070E"/>
</svg>
