<svg width="36" height="36" viewBox="0 0 36 36" fill="none" xmlns="http://www.w3.org/2000/svg">
<path d="M29.0002 16.66C29.0949 16.2314 29.1617 15.7972 29.2002 15.36H27.2002C27.1383 15.9448 27.0142 16.5214 26.8302 17.08L26.4402 18.21L27.6202 18.39C29.1174 18.6155 30.4836 19.3719 31.4695 20.5212C32.4553 21.6704 32.9951 23.1358 32.9902 24.65C32.9502 28 30.1602 31 27.0902 31H10.5702C6.73016 31 2.95016 27.09 2.95016 23.1C2.94873 21.1559 3.66056 19.2789 4.95074 17.8247C6.24092 16.3705 8.01978 15.4401 9.95016 15.21L10.8102 15.11V14.24C10.8303 13.0068 11.1297 11.7942 11.6859 10.6934C12.242 9.59257 13.0405 8.63215 14.0213 7.88431C15.002 7.13648 16.1395 6.62069 17.3483 6.37572C18.5571 6.13074 19.8056 6.16296 21.0002 6.46995L22.0002 4.66995C20.5635 4.23456 19.0484 4.12196 17.5632 4.34019C16.078 4.55843 14.6594 5.10212 13.4087 5.93238C12.1581 6.76265 11.1063 7.85898 10.3287 9.14299C9.55098 10.427 9.0666 11.867 8.91016 13.36C6.65981 13.8193 4.63617 15.0392 3.17931 16.8148C1.72245 18.5903 0.921177 20.8132 0.910156 23.11C0.910156 28.2 5.58016 33.0099 10.5302 33.0099H27.0902C31.2802 33.0099 34.9502 29.11 34.9502 24.66C34.9604 22.8615 34.3855 21.1086 33.3122 19.6655C32.2389 18.2225 30.7255 17.1676 29.0002 16.66Z" fill="#01070E"/>
<path d="M26.8504 1.13981L21.1304 10.9998C20.9973 11.1951 20.9209 11.4235 20.9097 11.6596C20.8984 11.8957 20.9527 12.1303 21.0666 12.3374C21.1806 12.5445 21.3496 12.716 21.555 12.8329C21.7604 12.9498 21.9942 13.0076 22.2304 12.9998H33.6804C33.9166 13.0076 34.1504 12.9498 34.3558 12.8329C34.5612 12.716 34.7302 12.5445 34.8441 12.3374C34.958 12.1303 35.0123 11.8957 35.0011 11.6596C34.9898 11.4235 34.9135 11.1951 34.7804 10.9998L29.0604 1.13981C28.9476 0.946869 28.7862 0.786825 28.5923 0.675603C28.3985 0.564381 28.1789 0.505859 27.9554 0.505859C27.7319 0.505859 27.5123 0.564381 27.3184 0.675603C27.1245 0.786825 26.9632 0.946869 26.8504 1.13981Z" fill="#01070E"/>
</svg>
