<svg width="36" height="36" viewBox="0 0 36 36" fill="none" xmlns="http://www.w3.org/2000/svg">
<path d="M30.7105 15.1801V14.1801C30.7292 11.1987 29.5668 8.33121 27.4774 6.20438C25.3881 4.07754 22.5417 2.86438 19.5605 2.83008H19.4505C16.8725 2.83751 14.3749 3.72773 12.3735 5.35254C10.372 6.97735 8.98753 9.2387 8.45047 11.7601C6.4693 11.7601 4.56928 12.5471 3.16838 13.948C1.76748 15.3489 0.980469 17.2489 0.980469 19.2301C0.980469 21.2112 1.76748 23.1113 3.16838 24.5122C4.56928 25.9131 6.4693 26.7001 8.45047 26.7001H29.1305C30.5575 26.7155 31.9412 26.2096 33.0218 25.2774C34.1023 24.3451 34.8056 23.0506 34.9995 21.6367C35.1934 20.2228 34.8647 18.7867 34.075 17.5979C33.2853 16.4092 32.089 15.5494 30.7105 15.1801ZM29.1305 24.7001H8.46047C7.74214 24.7001 7.03084 24.5586 6.36719 24.2837C5.70354 24.0088 5.10053 23.6059 4.59259 23.098C4.08466 22.59 3.68174 21.987 3.40685 21.3234C3.13195 20.6597 2.99047 19.9484 2.99047 19.2301C2.99047 18.5117 3.13195 17.8004 3.40685 17.1368C3.68174 16.4731 4.08466 15.8701 4.59259 15.3622C5.10053 14.8543 5.70354 14.4514 6.36719 14.1765C7.03084 13.9016 7.74214 13.7601 8.46047 13.7601H10.1505L10.2605 12.8901C10.5868 10.5651 11.7832 8.4506 13.608 6.97344C15.4328 5.49628 17.7501 4.76654 20.092 4.93156C22.434 5.09657 24.6261 6.14405 26.2257 7.8625C27.8253 9.58094 28.7134 11.8423 28.7105 14.1901V15.4701C28.7105 15.5601 28.7105 15.6501 28.7105 15.7401L28.6405 16.8901L29.5805 17.0001C30.6029 17.0571 31.5608 17.5179 32.2434 18.2812C32.926 19.0445 33.2775 20.0477 33.2205 21.0701C33.1634 22.0925 32.7026 23.0504 31.9393 23.733C31.1761 24.4156 30.1729 24.7671 29.1505 24.7101L29.1305 24.7001Z" fill="#01070E"/>
<path d="M29.5801 31.1798H18.8501V28.7798H16.8501V31.1798H6.08008C5.81486 31.1798 5.56051 31.2851 5.37297 31.4727C5.18544 31.6602 5.08008 31.9146 5.08008 32.1798C5.08008 32.445 5.18544 32.6994 5.37297 32.8869C5.56051 33.0744 5.81486 33.1798 6.08008 33.1798H29.5801C29.8453 33.1798 30.0996 33.0744 30.2872 32.8869C30.4747 32.6994 30.5801 32.445 30.5801 32.1798C30.5801 31.9146 30.4747 31.6602 30.2872 31.4727C30.0996 31.2851 29.8453 31.1798 29.5801 31.1798Z" fill="#01070E"/>
</svg>
