<svg width="36" height="36" viewBox="0 0 36 36" fill="none" xmlns="http://www.w3.org/2000/svg">
<path d="M6.32096 11.11H7.84096L8.00096 10.24C8.22983 8.5226 9.07114 6.9456 10.3701 5.79911C11.6691 4.65261 13.3384 4.01373 15.071 4H15.141C16.8814 4.0164 18.556 4.66707 19.851 5.83C20.9062 5.89509 21.9467 6.1106 22.941 6.47C22.135 5.12148 20.9965 4.00235 19.6343 3.21971C18.2721 2.43707 16.7319 2.0171 15.161 2H15.071C12.9976 2.00439 10.9866 2.70897 9.36388 3.99951C7.74117 5.29006 6.60196 7.09088 6.13096 9.11C4.88678 9.14548 3.68266 9.55763 2.67771 10.292C1.67276 11.0264 0.914283 12.0484 0.502524 13.223C0.0907646 14.3976 0.0451001 15.6695 0.371565 16.8706C0.69803 18.0717 1.38126 19.1455 2.33096 19.95C2.44465 19.1748 2.67034 18.4203 3.00096 17.71C2.47761 17.0039 2.19378 16.1489 2.19096 15.27C2.19093 14.1719 2.62509 13.1183 3.39877 12.339C4.17244 11.5597 5.22286 11.1179 6.32096 11.11Z" fill="#01070E"/>
<path d="M10.4004 16.91H11.9204L12.0004 16C12.2282 14.2723 13.0758 12.6861 14.3855 11.5365C15.6951 10.3869 17.3778 9.75201 19.1204 9.75H19.1904C20.3018 9.76161 21.3953 10.0315 22.3846 10.5382C23.3738 11.045 24.2317 11.7748 24.8904 12.67C25.8263 12.8092 26.7405 13.0679 27.6104 13.44C26.9223 11.7725 25.7592 10.3441 24.2657 9.33242C22.7722 8.32075 21.0142 7.77046 19.2104 7.75H19.1204C17.0457 7.75491 15.0336 8.46093 13.4107 9.75343C11.7878 11.0459 10.6495 12.849 10.1804 14.87C8.91149 14.8988 7.68256 15.3195 6.6622 16.0744C5.64183 16.8293 4.88003 17.8814 4.48129 19.0864C4.08254 20.2914 4.0664 21.5902 4.43506 22.8047C4.80372 24.0193 5.53914 25.09 6.54042 25.87C6.71381 25.1712 6.97948 24.4986 7.33042 23.87C6.76992 23.2834 6.39414 22.545 6.24979 21.7466C6.10544 20.9482 6.19887 20.1249 6.51848 19.3792C6.83809 18.6334 7.36978 17.998 8.0475 17.5519C8.72521 17.1058 9.51906 16.8687 10.3304 16.87L10.4004 16.91Z" fill="#01070E"/>
<path d="M32.4209 24.4699V23.8499C32.4509 21.5825 31.6407 19.3843 30.1463 17.6787C28.652 15.9732 26.5793 14.8811 24.3277 14.6128C22.0761 14.3446 19.8048 14.9192 17.9516 16.2259C16.0984 17.5326 14.7944 19.4789 14.2909 21.6899C12.699 21.7738 11.2017 22.4715 10.1136 23.6363C9.02542 24.8012 8.43121 26.3425 8.45581 27.9364C8.48041 29.5302 9.12191 31.0525 10.2455 32.1832C11.3691 33.314 12.8872 33.9651 14.4809 33.9999H31.0009C32.1635 33.995 33.2863 33.5752 34.1669 32.816C35.0475 32.0568 35.6281 31.0082 35.8042 29.8589C35.9803 28.7096 35.7402 27.5352 35.1273 26.5472C34.5143 25.5592 33.5688 24.8226 32.4609 24.4699H32.4209ZM31.0009 31.9999H14.4809C13.3776 31.9999 12.3195 31.5616 11.5393 30.7814C10.7592 30.0013 10.3209 28.9432 10.3209 27.8399C10.3209 26.7366 10.7592 25.6784 11.5393 24.8983C12.3195 24.1181 13.3776 23.6799 14.4809 23.6799H16.0009L16.1109 22.8099C16.3387 21.0821 17.1863 19.496 18.4959 18.3464C19.8056 17.1967 21.4882 16.5619 23.2309 16.5599H23.3009C25.2044 16.5836 27.0213 17.3592 28.3551 18.7174C29.689 20.0756 30.4316 21.9062 30.4209 23.8099V24.8099C30.4209 24.8799 30.4209 24.9399 30.4209 25.0099L30.3509 26.1199L31.2909 26.2299C32.056 26.2683 32.7746 26.6091 33.2884 27.1774C33.8022 27.7456 34.0693 28.4947 34.0309 29.2599C33.9924 30.025 33.6516 30.7435 33.0833 31.2574C32.5151 31.7712 31.766 32.0383 31.0009 31.9999Z" fill="#01070E"/>
</svg>
