<svg width="36" height="36" viewBox="0 0 36 36" fill="none" xmlns="http://www.w3.org/2000/svg">
<path d="M32 5H4C3.46957 5 2.96086 5.21071 2.58579 5.58579C2.21071 5.96086 2 6.46957 2 7V29C2 29.5304 2.21071 30.0391 2.58579 30.4142C2.96086 30.7893 3.46957 31 4 31H32C32.5304 31 33.0391 30.7893 33.4142 30.4142C33.7893 30.0391 34 29.5304 34 29V7C34 6.46957 33.7893 5.96086 33.4142 5.58579C33.0391 5.21071 32.5304 5 32 5ZM4 29V7H32V29H4Z" fill="#01070E"/>
<path d="M20.971 11.243C23.314 13.586 22.364 18.335 18.849 21.849C15.334 25.364 10.586 26.314 8.24296 23.97C5.89896 21.627 6.84896 16.878 10.364 13.364C13.879 9.84901 18.628 8.90001 20.971 11.243ZM11.636 14.637C8.82396 17.449 7.87496 21.058 9.51496 22.698C11.155 24.338 14.764 23.389 17.576 20.577C20.388 17.765 21.338 14.156 19.697 12.516C18.057 10.876 14.448 11.825 11.636 14.637Z" fill="#01070E"/>
<path d="M28 22C28 23.657 26.657 25 25 25C23.343 25 22 23.657 22 22C22 20.343 23.343 19 25 19C26.657 19 28 20.343 28 22ZM25 20.6C24.227 20.6 23.6 21.227 23.6 22C23.6 22.773 24.227 23.4 25 23.4C25.773 23.4 26.4 22.773 26.4 22C26.4 21.227 25.773 20.6 25 20.6Z" fill="#01070E"/>
</svg>
