<svg width="36" height="36" viewBox="0 0 36 36" fill="none" xmlns="http://www.w3.org/2000/svg">
<path d="M31.36 8H27.5V10H31V30H27.5V32H33V9.67C33.0026 9.45248 32.9622 9.23659 32.8811 9.03474C32.8 8.83289 32.6798 8.64907 32.5274 8.49387C32.375 8.33866 32.1933 8.21512 31.993 8.13036C31.7927 8.04561 31.5775 8.0013 31.36 8Z" fill="#01070E"/>
<path d="M5.00012 10H8.50012V8H4.64012C4.42259 8.0013 4.20746 8.04561 4.00712 8.13036C3.80677 8.21512 3.62517 8.33866 3.47275 8.49387C3.32033 8.64907 3.2001 8.83289 3.11899 9.03474C3.03788 9.23659 2.99748 9.45248 3.00012 9.67V32H8.50012V30H5.00012V10Z" fill="#01070E"/>
<path d="M18.0109 27.7802C19.0051 27.7802 19.8109 26.9788 19.8109 25.9902C19.8109 25.0016 19.0051 24.2002 18.0109 24.2002C17.0168 24.2002 16.2109 25.0016 16.2109 25.9902C16.2109 26.9788 17.0168 27.7802 18.0109 27.7802Z" fill="#01070E"/>
<path d="M24.32 4H11.68C11.2344 4 10.8071 4.177 10.4921 4.49206C10.177 4.80712 10 5.23444 10 5.68V32H26V5.68C26 5.23444 25.823 4.80712 25.5079 4.49206C25.1929 4.177 24.7656 4 24.32 4ZM24 30H12V6H24V30Z" fill="#01070E"/>
<path d="M22.5 9.20996H13.5V10.81H22.5V9.20996Z" fill="#01070E"/>
</svg>
