<svg width="36" height="36" viewBox="0 0 36 36" fill="none" xmlns="http://www.w3.org/2000/svg">
<path d="M5.00012 10H8.50012V8H4.64012C4.42259 8.0013 4.20746 8.04561 4.00712 8.13036C3.80677 8.21512 3.62517 8.33866 3.47275 8.49387C3.32033 8.64907 3.2001 8.83289 3.11899 9.03474C3.03788 9.23659 2.99748 9.45248 3.00012 9.67V32H8.50012V30H5.00012V10Z" fill="#01070E"/>
<path d="M18.0109 27.7802C19.0051 27.7802 19.8109 26.9788 19.8109 25.9902C19.8109 25.0016 19.0051 24.2002 18.0109 24.2002C17.0168 24.2002 16.2109 25.0016 16.2109 25.9902C16.2109 26.9788 17.0168 27.7802 18.0109 27.7802Z" fill="#01070E"/>
<path d="M19 9.88996L19.39 9.20996H13.5V10.81H18.67C18.7383 10.4899 18.8493 10.1804 19 9.88996Z" fill="#01070E"/>
<path d="M24 30H12V6H21.29L22.44 4H11.68C11.2344 4 10.8071 4.177 10.4921 4.49206C10.177 4.80712 10 5.23444 10 5.68V32H26V15.4H24V30Z" fill="#01070E"/>
<path d="M31 15.3999V29.9999H27.5V31.9999H33V15.3999H31Z" fill="#01070E"/>
<path d="M26.8504 1.13981L21.1304 10.9998C20.9973 11.1951 20.9209 11.4235 20.9097 11.6596C20.8984 11.8957 20.9527 12.1303 21.0666 12.3374C21.1806 12.5445 21.3496 12.716 21.555 12.8329C21.7604 12.9498 21.9942 13.0076 22.2304 12.9998H33.6804C33.9166 13.0076 34.1504 12.9498 34.3558 12.8329C34.5612 12.716 34.7302 12.5445 34.8441 12.3374C34.958 12.1303 35.0123 11.8957 35.0011 11.6596C34.9898 11.4235 34.9135 11.1951 34.7804 10.9998L29.0604 1.13981C28.9476 0.946869 28.7862 0.786825 28.5923 0.675603C28.3985 0.564381 28.1789 0.505859 27.9554 0.505859C27.7319 0.505859 27.5123 0.564381 27.3184 0.675603C27.1245 0.786825 26.9632 0.946869 26.8504 1.13981Z" fill="#01070E"/>
</svg>
