<svg width="36" height="36" viewBox="0 0 36 36" fill="none" xmlns="http://www.w3.org/2000/svg">
<path d="M13.7103 12.5902C13.5605 12.3714 13.3298 12.2211 13.0692 12.1723C12.8085 12.1236 12.5391 12.1803 12.3203 12.3302L5.79034 16.7802C5.65628 16.872 5.54661 16.9951 5.47084 17.1389C5.39507 17.2826 5.35547 17.4427 5.35547 17.6052C5.35547 17.7677 5.39507 17.9277 5.47084 18.0715C5.54661 18.2152 5.65628 18.3383 5.79034 18.4302L12.3203 22.8802C12.4286 22.9563 12.5509 23.0102 12.6802 23.0386C12.8094 23.0671 12.943 23.0697 13.0733 23.0462C13.2035 23.0226 13.3278 22.9735 13.4389 22.9015C13.55 22.8296 13.6457 22.7363 13.7205 22.6271C13.7953 22.5179 13.8477 22.395 13.8746 22.2654C13.9015 22.1358 13.9024 22.0022 13.8772 21.8722C13.8521 21.7423 13.8014 21.6186 13.7282 21.5084C13.6549 21.3982 13.5604 21.3036 13.4503 21.2302L8.13034 17.6102L13.4503 14.0002C13.5615 13.9259 13.6566 13.8301 13.7301 13.7184C13.8035 13.6068 13.8539 13.4815 13.8781 13.3501C13.9024 13.2186 13.9 13.0837 13.8712 12.9531C13.8424 12.8226 13.7877 12.6992 13.7103 12.5902Z" fill="#01070E"/>
<path d="M18.5591 11.6199L15.4091 24.2899C15.3807 24.4048 15.3753 24.5242 15.3931 24.6412C15.4109 24.7582 15.4516 24.8705 15.5129 24.9718C15.5743 25.073 15.6549 25.1612 15.7504 25.2312C15.8458 25.3012 15.9541 25.3518 16.0691 25.3799H16.2891C16.489 25.3793 16.6831 25.3121 16.8406 25.189C16.9981 25.0658 17.1102 24.8937 17.1591 24.6999L19.7291 14.3999C19.3445 14.0471 19.0416 13.6147 18.8412 13.1328C18.6409 12.651 18.548 12.1313 18.5691 11.6099L18.5591 11.6199Z" fill="#01070E"/>
<path d="M30.2097 16.7799L28.2097 15.3999H24.6397L27.8797 17.6099L22.5597 21.2399C22.3444 21.3912 22.1975 21.6212 22.1507 21.8801C22.1039 22.139 22.161 22.406 22.3097 22.623C22.4584 22.8401 22.6866 22.9898 22.9449 23.0398C23.2032 23.0897 23.4708 23.0359 23.6897 22.8899L30.2197 18.4399C30.3537 18.3481 30.4634 18.2249 30.5392 18.0812C30.6149 17.9374 30.6545 17.7774 30.6545 17.6149C30.6545 17.4524 30.6149 17.2924 30.5392 17.1486C30.4634 17.0049 30.3537 16.8817 30.2197 16.7899L30.2097 16.7799Z" fill="#01070E"/>
<path d="M26.8504 1.13981L21.1304 10.9998C20.9973 11.1951 20.9209 11.4235 20.9097 11.6596C20.8984 11.8957 20.9527 12.1303 21.0666 12.3374C21.1806 12.5445 21.3496 12.716 21.555 12.8329C21.7604 12.9498 21.9942 13.0076 22.2304 12.9998H33.6804C33.9166 13.0076 34.1504 12.9498 34.3558 12.8329C34.5612 12.716 34.7302 12.5445 34.8441 12.3374C34.958 12.1303 35.0123 11.8957 35.0011 11.6596C34.9898 11.4235 34.9135 11.1951 34.7804 10.9998L29.0604 1.13981C28.9476 0.946869 28.7862 0.786825 28.5923 0.675603C28.3985 0.564381 28.1789 0.505859 27.9554 0.505859C27.7319 0.505859 27.5123 0.564381 27.3184 0.675603C27.1245 0.786825 26.9632 0.946869 26.8504 1.13981Z" fill="#01070E"/>
</svg>
