<svg width="36" height="36" viewBox="0 0 36 36" fill="none" xmlns="http://www.w3.org/2000/svg">
<path d="M13.7103 12.5902C13.5605 12.3714 13.3298 12.2211 13.0692 12.1723C12.8085 12.1236 12.5391 12.1803 12.3203 12.3302L5.79034 16.7802C5.65628 16.872 5.54661 16.9951 5.47084 17.1389C5.39507 17.2826 5.35547 17.4427 5.35547 17.6052C5.35547 17.7677 5.39507 17.9277 5.47084 18.0715C5.54661 18.2152 5.65628 18.3383 5.79034 18.4302L12.3203 22.8802C12.4286 22.9563 12.5509 23.0102 12.6802 23.0386C12.8094 23.0671 12.943 23.0697 13.0733 23.0462C13.2035 23.0226 13.3278 22.9735 13.4389 22.9015C13.55 22.8296 13.6457 22.7363 13.7205 22.6271C13.7953 22.5179 13.8477 22.395 13.8746 22.2654C13.9015 22.1358 13.9024 22.0022 13.8772 21.8722C13.8521 21.7423 13.8014 21.6186 13.7282 21.5084C13.6549 21.3982 13.5604 21.3036 13.4503 21.2302L8.13034 17.6102L13.4503 14.0002C13.5615 13.9259 13.6566 13.8301 13.7301 13.7184C13.8035 13.6068 13.8539 13.4815 13.8781 13.3501C13.9024 13.2186 13.9 13.0837 13.8712 12.9531C13.8424 12.8226 13.7877 12.6992 13.7103 12.5902Z" fill="#01070E"/>
<path d="M30.2106 16.7799L23.6806 12.3299C23.4592 12.1801 23.1873 12.1243 22.9247 12.175C22.6621 12.2256 22.4305 12.3785 22.2806 12.5999C22.1308 12.8214 22.075 13.0933 22.1257 13.3559C22.1763 13.6184 22.3292 13.8501 22.5506 13.9999L27.8706 17.6299L22.5506 21.2599C22.3354 21.4112 22.1885 21.6413 22.1417 21.9002C22.0949 22.1591 22.152 22.426 22.3007 22.6431C22.4493 22.8601 22.6775 23.0099 22.9358 23.0598C23.1942 23.1098 23.4617 23.0559 23.6806 22.9099L30.2106 18.4599C30.3447 18.3681 30.4543 18.245 30.5301 18.1012C30.6059 17.9575 30.6455 17.7974 30.6455 17.6349C30.6455 17.4724 30.6059 17.3124 30.5301 17.1686C30.4543 17.0249 30.3447 16.9018 30.2106 16.8099V16.7799Z" fill="#01070E"/>
<path d="M19.9391 9.82995C19.8241 9.80158 19.7048 9.79615 19.5878 9.81398C19.4707 9.8318 19.3584 9.87254 19.2571 9.93384C19.1559 9.99515 19.0677 10.0758 18.9977 10.1713C18.9277 10.2667 18.8772 10.375 18.8491 10.49L15.4091 24.29C15.3807 24.4049 15.3753 24.5242 15.3931 24.6413C15.4109 24.7583 15.4516 24.8706 15.5129 24.9719C15.5743 25.0731 15.6549 25.1613 15.7504 25.2313C15.8458 25.3013 15.9541 25.3518 16.0691 25.38H16.2891C16.489 25.3794 16.6831 25.3122 16.8406 25.1891C16.9981 25.0659 17.1102 24.8938 17.1591 24.7L20.5991 10.89C20.6475 10.6622 20.6059 10.4245 20.4828 10.2269C20.3597 10.0292 20.1648 9.88694 19.9391 9.82995Z" fill="#01070E"/>
</svg>
