<svg width="36" height="36" viewBox="0 0 36 36" fill="none" xmlns="http://www.w3.org/2000/svg">
<path d="M33.7 15.4H28.4V15.5L32 16.6V19.4L28.4 20.5L28.3 21C28 21.7 27.7 22.4 27.4 23.1L27.1 23.6L28.9 26.9L26.9 28.9L23.6 27.1L23.1 27.4C22.4 27.8 21.7 28.1 21 28.3L20.5 28.4L19.4 32H16.6L15.5 28.4L15 28.3C14.3 28 13.6 27.7 12.9 27.4L12.4 27.1L9.1 28.9L7.1 26.9L8.9 23.6L8.6 23.1C8.2 22.4 7.9 21.7 7.7 21L7.6 20.5L4 19.4V16.6L7.4 15.6L7.6 15.1C7.8 14.3 8.1 13.6 8.5 12.9L8.8 12.4L7.1 9.1L9.1 7.1L12.3 8.9L12.8 8.6C13.5 8.2 14.2 7.9 15 7.7L15.5 7.5L16.6 4H19.4L20.5 7.4L21.9 5.1L21.3 3.1C21 2.4 20.4 2 19.7 2H16.3C15.6 2 15 2.5 14.9 3.2L14 6C13.4 6.1 12.9 6.3 12.4 6.6L9.8 5.2C9.2 4.9 8.4 5 7.9 5.5L5.5 7.9C5 8.4 4.9 9.2 5.2 9.8L6.5 12.3C6.3 12.8 6.1 13.4 5.9 13.9L3.1 14.8C2.5 15 2 15.6 2 16.3V19.7C2 20.4 2.5 21 3.2 21.2L6 22.1L6.6 23.6L5.2 26.2C4.9 26.8 5 27.6 5.5 28.1L7.9 30.5C8.4 31 9.2 31.1 9.8 30.8L12.4 29.4L13.9 30L14.8 32.9C15 33.5 15.6 34 16.3 34H19.7C20.4 34 21 33.5 21.2 32.9L22.1 30L23.6 29.4L26.2 30.8C26.8 31.1 27.6 31 28.1 30.5L30.5 28.1C31 27.6 31.1 26.8 30.8 26.2L29.4 23.6L30 22.1L32.9 21.2C33.5 21 34 20.4 34 19.7V16.3C34 16 33.9 15.7 33.7 15.4Z" fill="#01070E"/>
<path d="M18.0996 23.0001C15.2996 23.0001 13.0996 20.8001 13.0996 18.0001C13.0996 15.2001 15.2996 13.0001 18.0996 13.0001C18.2996 13.0001 18.5996 13.0001 18.7996 13.1001C18.5996 12.5001 18.4996 11.8001 18.5996 11.1001H18.0996C14.1996 11.1001 11.0996 14.2001 11.0996 18.1001C11.0996 22.0001 14.1996 25.1001 18.0996 25.1001C21.9996 25.1001 25.0996 22.0001 25.0996 18.1001C25.0996 17.2001 24.8996 16.3001 24.5996 15.5001H22.3996C22.8996 16.3001 23.0996 17.1001 23.0996 18.0001C23.0996 20.8001 20.8996 23.0001 18.0996 23.0001Z" fill="#01070E"/>
<path d="M26.8995 1.10023L21.0995 11.0002C20.6995 11.6002 20.8995 12.4002 21.3995 12.8002C21.5995 13.0002 21.8995 13.0002 22.1995 13.0002H33.6995C34.3995 13.0002 34.9995 12.5002 34.9995 11.8002C34.9995 11.5002 34.8995 11.3002 34.7995 11.0002L29.0995 1.10023C28.6995 0.500232 27.9995 0.300232 27.2995 0.600232C27.0995 0.800232 26.9995 1.00023 26.8995 1.10023Z" fill="#01070E"/>
</svg>
