<svg width="36" height="36" viewBox="0 0 36 36" fill="none" xmlns="http://www.w3.org/2000/svg">
<path d="M21.5996 29C21.5996 28.7348 21.4943 28.4804 21.3067 28.2929C21.1192 28.1054 20.8648 28 20.5996 28H14.5996C14.3344 28 14.08 28.1054 13.8925 28.2929C13.705 28.4804 13.5996 28.7348 13.5996 29C13.5996 29.2652 13.705 29.5196 13.8925 29.7071C14.08 29.8946 14.3344 30 14.5996 30H20.5996C20.8648 30 21.1192 29.8946 21.3067 29.7071C21.4943 29.5196 21.5996 29.2652 21.5996 29Z" fill="#01070E"/>
<path d="M22.5391 24H16.5391C16.2738 24 16.0195 24.1054 15.832 24.2929C15.6444 24.4804 15.5391 24.7348 15.5391 25C15.5391 25.2652 15.6444 25.5196 15.832 25.7071C16.0195 25.8946 16.2738 26 16.5391 26H22.5391C22.8043 26 23.0586 25.8946 23.2462 25.7071C23.4337 25.5196 23.5391 25.2652 23.5391 25C23.5391 24.7348 23.4337 24.4804 23.2462 24.2929C23.0586 24.1054 22.8043 24 22.5391 24Z" fill="#01070E"/>
<path d="M22 32H16C15.7348 32 15.4804 32.1054 15.2929 32.2929C15.1054 32.4804 15 32.7348 15 33C15 33.2652 15.1054 33.5196 15.2929 33.7071C15.4804 33.8946 15.7348 34 16 34H22C22.2652 34 22.5196 33.8946 22.7071 33.7071C22.8946 33.5196 23 33.2652 23 33C23 32.7348 22.8946 32.4804 22.7071 32.2929C22.5196 32.1054 22.2652 32 22 32Z" fill="#01070E"/>
<path d="M32.6992 32H25.6992C25.434 32 25.1796 32.1054 24.9921 32.2929C24.8046 32.4804 24.6992 32.7348 24.6992 33C24.6992 33.2652 24.8046 33.5196 24.9921 33.7071C25.1796 33.8946 25.434 34 25.6992 34H32.6992C32.9644 34 33.2188 33.8946 33.4063 33.7071C33.5939 33.5196 33.6992 33.2652 33.6992 33C33.6992 32.7348 33.5939 32.4804 33.4063 32.2929C33.2188 32.1054 32.9644 32 32.6992 32Z" fill="#01070E"/>
<path d="M33.6992 28H26.6992C26.434 28 26.1796 28.1054 25.9921 28.2929C25.8046 28.4804 25.6992 28.7348 25.6992 29C25.6992 29.2652 25.8046 29.5196 25.9921 29.7071C26.1796 29.8946 26.434 30 26.6992 30H33.6992C33.9644 30 34.2188 29.8946 34.4063 29.7071C34.5939 29.5196 34.6992 29.2652 34.6992 29C34.6992 28.7348 34.5939 28.4804 34.4063 28.2929C34.2188 28.1054 33.9644 28 33.6992 28Z" fill="#01070E"/>
<path d="M33.7391 26C33.446 22.479 32.4892 19.0452 30.9191 15.88C29.415 13.0197 27.2479 10.5612 24.5991 8.71L26.9991 3.42C27.0764 3.2619 27.1107 3.08618 27.0984 2.9106C27.0861 2.73501 27.0277 2.56578 26.9291 2.42C26.838 2.29212 26.7182 2.18746 26.5792 2.1145C26.4402 2.04153 26.286 2.00231 26.1291 2H9.79907C9.63096 1.99959 9.46546 2.04156 9.31786 2.12204C9.17027 2.20251 9.04535 2.3189 8.95464 2.46044C8.86394 2.60198 8.81038 2.7641 8.79892 2.93182C8.78745 3.09954 8.81846 3.26744 8.88907 3.42L11.3391 8.73C8.70955 10.5829 6.55725 13.0334 5.05907 15.88C2.90907 19.88 2.23907 24.77 2.05907 28.16C2.02959 28.6563 2.10323 29.1533 2.27534 29.6197C2.44745 30.0861 2.71429 30.5118 3.05907 30.87C3.42143 31.222 3.85049 31.4979 4.32103 31.6817C4.79157 31.8654 5.29409 31.9533 5.79907 31.94H11.9991V30H5.71907C5.49275 29.9993 5.26891 29.9529 5.06099 29.8635C4.85306 29.7742 4.66533 29.6437 4.50907 29.48C4.35257 29.3176 4.23171 29.1243 4.15422 28.9125C4.07673 28.7007 4.04432 28.4751 4.05907 28.25C4.19907 25.64 4.74907 20.67 6.81907 16.8C8.2783 14.0271 10.4361 11.6832 13.0791 10H14.0791C13.4014 10.9375 12.7771 11.9123 12.2091 12.92C11.6305 13.9922 11.139 15.1092 10.7391 16.26L12.1091 17.18C12.5138 15.986 13.012 14.8257 13.5991 13.71C14.3199 12.4127 15.139 11.1724 16.0491 10H17.0491C17.7199 11.6034 18.1934 13.2824 18.4591 15C18.6763 16.2751 18.7834 17.5665 18.7791 18.86L20.3591 17.75C20.315 16.7443 20.2082 15.7424 20.0391 14.75C19.7708 13.1282 19.342 11.537 18.7591 10H19.5391L20.4491 8H13.2091L11.3591 4H24.5691L22.0691 9.47C22.4976 9.69954 22.9087 9.96024 23.2991 10.25C25.7492 11.9404 27.7587 14.1933 29.1591 16.82C30.5617 19.7002 31.4324 22.8102 31.7291 26H33.7391Z" fill="#01070E"/>
</svg>
