<svg width="36" height="36" viewBox="0 0 36 36" fill="none" xmlns="http://www.w3.org/2000/svg">
<path d="M33 21H3C2.73478 21 2.48043 21.1054 2.29289 21.2929C2.10536 21.4804 2 21.7348 2 22V28C2 28.2652 2.10536 28.5196 2.29289 28.7071C2.48043 28.8946 2.73478 29 3 29H33C33.2652 29 33.5196 28.8946 33.7071 28.7071C33.8946 28.5196 34 28.2652 34 28V22C34 21.7348 33.8946 21.4804 33.7071 21.2929C33.5196 21.1054 33.2652 21 33 21ZM32 27H4V23H32V27Z" fill="#01070E"/>
<path d="M17.9997 20.2199L23.6497 14.5699C23.8 14.4182 23.8842 14.2134 23.8842 13.9999C23.8842 13.7864 23.8 13.5816 23.6497 13.4299C23.4998 13.2803 23.2966 13.1963 23.0847 13.1963C22.8729 13.1963 22.6697 13.2803 22.5197 13.4299L17.9997 17.9999L13.4797 13.4799C13.3298 13.3303 13.1266 13.2463 12.9147 13.2463C12.7029 13.2463 12.4997 13.3303 12.3497 13.4799C12.1995 13.6316 12.1152 13.8364 12.1152 14.0499C12.1152 14.2634 12.1995 14.4682 12.3497 14.6199L17.9997 20.2199Z" fill="#01070E"/>
<path d="M17.9997 14.2199L23.6497 8.56992C23.8 8.41824 23.8842 8.2134 23.8842 7.99992C23.8842 7.78644 23.8 7.58159 23.6497 7.42992C23.4998 7.28031 23.2966 7.19629 23.0847 7.19629C22.8729 7.19629 22.6697 7.28031 22.5197 7.42992L17.9997 11.9999L13.4797 7.42992C13.3298 7.28031 13.1266 7.19629 12.9147 7.19629C12.7029 7.19629 12.4997 7.28031 12.3497 7.42992C12.1995 7.58159 12.1152 7.78644 12.1152 7.99992C12.1152 8.2134 12.1995 8.41824 12.3497 8.56992L17.9997 14.2199Z" fill="#01070E"/>
</svg>
