<svg width="36" height="36" viewBox="0 0 36 36" fill="none" xmlns="http://www.w3.org/2000/svg">
<path d="M28.9991 19.41C28.8674 19.4108 28.737 19.3855 28.6151 19.3358C28.4933 19.286 28.3825 19.2127 28.2891 19.12L17.9991 8.83L7.70905 19.12C7.51775 19.2838 7.27167 19.3694 7.02 19.3597C6.76832 19.35 6.52958 19.2457 6.35149 19.0676C6.17339 18.8895 6.06906 18.6507 6.05934 18.3991C6.04962 18.1474 6.13522 17.9013 6.29905 17.71L17.9991 6L29.709 17.71C29.8467 17.8504 29.9398 18.0282 29.9769 18.2213C30.014 18.4143 29.9934 18.614 29.9177 18.7954C29.8419 18.9768 29.7144 19.1318 29.551 19.2411C29.3876 19.3505 29.1956 19.4092 28.9991 19.41Z" fill="#01070E"/>
<path d="M28.9991 30.41C28.8674 30.4108 28.737 30.3855 28.6151 30.3358C28.4933 30.286 28.3825 30.2127 28.2891 30.12L17.9991 19.83L7.70905 30.12C7.51775 30.2838 7.27167 30.3694 7.02 30.3597C6.76832 30.35 6.52958 30.2457 6.35149 30.0676C6.17339 29.8895 6.06906 29.6507 6.05934 29.3991C6.04962 29.1474 6.13522 28.9013 6.29905 28.71L17.9991 17L29.709 28.71C29.8467 28.8504 29.9398 29.0282 29.9769 29.2213C30.014 29.4143 29.9934 29.614 29.9177 29.7954C29.8419 29.9768 29.7144 30.1318 29.551 30.2411C29.3876 30.3505 29.1956 30.4092 28.9991 30.41Z" fill="#01070E"/>
</svg>
