<svg width="36" height="36" viewBox="0 0 36 36" fill="none" xmlns="http://www.w3.org/2000/svg">
<path d="M33.0007 10.0502C33.4781 9.58598 33.8594 9.03229 34.1228 8.42073C34.3862 7.80916 34.5266 7.1517 34.5358 6.48589C34.5451 5.82008 34.4232 5.15895 34.1769 4.54028C33.9307 3.92161 33.565 3.3575 33.1007 2.88017C32.1385 1.96405 30.8545 1.46313 29.5261 1.48559C28.1977 1.50804 26.9314 2.05206 26.0007 3.00017L20.7807 8.15017C20.3818 8.54589 19.8426 8.76792 19.2807 8.76792C18.7188 8.76792 18.1796 8.54589 17.7807 8.15017L17.1107 7.48017L15.7207 8.92017L27.0807 20.2802L28.5007 18.8602L27.8307 18.1902C27.435 17.7912 27.213 17.2521 27.213 16.6902C27.213 16.1283 27.435 15.5891 27.8307 15.1902L33.0007 10.0502ZM26.4407 13.8002C25.9111 14.3287 25.5374 14.9931 25.3607 15.7202L20.2807 10.6402C21.0078 10.4635 21.6721 10.0898 22.2007 9.56017L27.3607 4.39017C27.9261 3.80326 28.7004 3.46345 29.5151 3.44472C30.3298 3.42599 31.119 3.72986 31.7107 4.29017C32.271 4.88192 32.5749 5.67104 32.5562 6.48576C32.5374 7.30048 32.1976 8.07481 31.6107 8.64017L26.4407 13.8002Z" fill="#01070E"/>
<path d="M7.29938 31.5102C6.9241 31.8854 6.4151 32.0963 5.88438 32.0963C5.35365 32.0963 4.84466 31.8854 4.46938 31.5102C4.09409 31.1349 3.88326 30.6259 3.88326 30.0952C3.88326 29.5644 4.09409 29.0554 4.46938 28.6802L18.5794 14.5702L17.1594 13.1602L3.04938 27.2702C2.4262 27.8855 2.02219 28.6883 1.89935 29.5554C1.77651 30.4225 1.94163 31.306 2.36938 32.0702L0.889376 33.5502C0.791039 33.6436 0.712735 33.756 0.659226 33.8807C0.605718 34.0053 0.578125 34.1395 0.578125 34.2752C0.578125 34.4108 0.605718 34.545 0.659226 34.6697C0.712735 34.7943 0.791039 34.9067 0.889376 35.0002C0.982339 35.0939 1.09294 35.1683 1.2148 35.219C1.33666 35.2698 1.46736 35.296 1.59938 35.296C1.73139 35.296 1.86209 35.2698 1.98395 35.219C2.10581 35.1683 2.21641 35.0939 2.30938 35.0002L3.73938 33.5602C4.36575 33.9527 5.09014 34.1607 5.82938 34.1602C6.36484 34.1599 6.89497 34.0538 7.38925 33.8479C7.88352 33.6419 8.33218 33.3402 8.70938 32.9602L22.8194 18.8102L21.4094 17.4002L7.29938 31.5102Z" fill="#01070E"/>
</svg>
