<svg width="32" height="32" viewBox="0 0 32 32" fill="none" xmlns="http://www.w3.org/2000/svg">
<path d="M19.5404 21.0497C18.9233 21.0734 18.3123 20.9192 17.7804 20.6054C17.2485 20.2915 16.818 19.8314 16.5404 19.2797C16.2328 18.5534 16.2184 17.7363 16.5004 16.9997C16.8547 16.0836 17.5551 15.3437 18.4504 14.9397C19.2363 14.5279 20.1521 14.4396 21.0022 14.6937C21.8523 14.9478 22.5694 15.5241 23.0004 16.2997C23.1672 16.6617 23.2601 17.0533 23.2739 17.4516C23.2876 17.85 23.2218 18.2471 23.0804 18.6197C22.9027 19.0811 22.6341 19.5021 22.2906 19.8577C21.947 20.2133 21.5354 20.4963 21.0804 20.6897C20.5975 20.915 20.0731 21.0376 19.5404 21.0497ZM20.0804 16.1397C19.7359 16.1374 19.3949 16.209 19.0804 16.3497C18.5846 16.583 18.1978 16.9985 18.0004 17.5097C17.9258 17.6817 17.8873 17.8672 17.8873 18.0547C17.8873 18.2422 17.9258 18.4277 18.0004 18.5997C18.2456 19.0038 18.6392 19.296 19.0971 19.4138C19.5549 19.5315 20.0406 19.4654 20.4504 19.2297C20.9613 19.0098 21.3641 18.5962 21.5704 18.0797C21.6447 17.9058 21.683 17.7187 21.683 17.5297C21.683 17.3406 21.6447 17.1535 21.5704 16.9797C21.4279 16.7122 21.2119 16.4911 20.948 16.3423C20.684 16.1934 20.383 16.1232 20.0804 16.1397Z" fill="#01070E"/>
<path d="M14.19 31.8699C12.3837 31.9011 10.5891 31.5753 8.90906 30.9112C7.22903 30.2471 5.69669 29.2577 4.4 27.9999C3.02734 26.7181 1.92949 25.1708 1.17312 23.4517C0.416751 21.7327 0.0176332 19.8779 0 17.9999C0 13.5999 2 9.1599 5.68 5.4999C7.39408 3.77506 9.43643 2.4112 11.6864 1.48887C13.9364 0.566544 16.3484 0.104458 18.78 0.129903H18.9C22.23 0.129903 25.75 1.6199 26.14 4.8599C26.35 6.6299 25.55 8.3299 24.85 9.8599C24.3 11.0299 23.74 12.2499 24.13 12.6699C24.52 13.0899 25.13 12.7899 26.22 12.4699C27.292 12.041 28.4617 11.9164 29.6 12.1099C30.0034 12.2247 30.3783 12.4229 30.7004 12.6916C31.0225 12.9603 31.2847 13.2936 31.47 13.6699C32.41 15.4999 31.94 18.3399 31.24 20.2099C30.3387 22.6792 28.889 24.9119 27 26.7399C23.5015 29.9596 18.9438 31.7848 14.19 31.8699ZM18.78 2.1599C16.6066 2.14227 14.4518 2.56162 12.4436 3.39307C10.4354 4.22451 8.61485 5.45107 7.09 6.9999C3.79 10.2299 2 14.1599 2 17.9999C2.01724 19.6161 2.363 21.212 3.01626 22.6904C3.66952 24.1688 4.61662 25.4989 5.8 26.5999C11.18 31.8499 20.42 30.1499 25.67 25.2699C27.3155 23.6521 28.5795 21.6878 29.37 19.5199C30.07 17.6199 30.21 15.5999 29.69 14.5999C29.6331 14.4703 29.5492 14.3542 29.4441 14.2594C29.3389 14.1646 29.2148 14.0932 29.08 14.0499C28.2996 13.9803 27.514 14.1004 26.79 14.3999C25.48 14.7899 23.79 15.2899 22.67 14.0499C21.35 12.6499 22.21 10.7999 23.04 9.0499C23.7417 7.86807 24.1242 6.52413 24.15 5.1499C23.91 3.1499 21.34 2.1999 18.89 2.1499L18.78 2.1599Z" fill="#01070E"/>
<path d="M21.8691 24.6499C21.7557 24.2785 21.5602 23.9374 21.2971 23.6518C21.034 23.3662 20.71 23.1434 20.3491 22.9999L19.9991 22.8999L19.5391 24.4299H19.6991C19.838 24.4809 19.9639 24.562 20.0677 24.6675C20.1714 24.773 20.2505 24.9002 20.2991 25.0399C20.4691 25.6399 19.8891 26.3499 19.0391 26.5899C18.1891 26.8299 17.3291 26.5199 17.1591 25.9299L15.6191 26.3599C15.819 26.9447 16.2049 27.448 16.7177 27.7929C17.2305 28.1378 17.8421 28.3053 18.4591 28.2699C18.797 28.2657 19.1331 28.2186 19.4591 28.1299C20.2393 27.9863 20.9309 27.5396 21.3826 26.8874C21.8342 26.2353 22.0092 25.4307 21.8691 24.6499Z" fill="#01070E"/>
<path d="M13.0703 23.59C12.9074 23.1039 12.6109 22.6735 12.2147 22.3481C11.8186 22.0227 11.3388 21.8154 10.8303 21.75L10.5603 23.33C10.7768 23.3375 10.9866 23.4076 11.1641 23.5318C11.3415 23.656 11.4792 23.8291 11.5603 24.03C11.7303 24.62 11.1503 25.33 10.3003 25.57C9.87436 25.7051 9.41462 25.6874 9.00031 25.52C8.8614 25.469 8.73553 25.3879 8.63178 25.2824C8.52802 25.1769 8.44897 25.0497 8.40031 24.91C8.40031 24.91 8.40031 24.82 8.40031 24.78L6.82031 24.94C6.82606 25.0784 6.84617 25.2158 6.88031 25.35C6.9906 25.7184 7.18154 26.0576 7.43927 26.343C7.697 26.6284 8.01504 26.8528 8.37031 27C8.78589 27.17 9.23133 27.255 9.68031 27.25C10.0185 27.2493 10.3549 27.2021 10.6803 27.11C11.0689 27.0369 11.4392 26.8876 11.7699 26.6709C12.1006 26.4541 12.3852 26.1741 12.6073 25.847C12.8294 25.5199 12.9846 25.152 13.0641 24.7647C13.1436 24.3774 13.1457 23.9782 13.0703 23.59Z" fill="#01070E"/>
<path d="M8.77989 17.1699C8.66643 16.7985 8.47091 16.4574 8.20781 16.1717C7.9447 15.8861 7.62074 15.6633 7.25989 15.5199C7.09838 15.4516 6.93103 15.398 6.75989 15.3599L6.38989 16.9199C6.47588 16.9374 6.5597 16.9642 6.63989 16.9999C6.77777 17.0498 6.90299 17.1294 7.00668 17.2331C7.11037 17.3368 7.18998 17.462 7.23989 17.5999C7.40989 18.1999 6.82989 18.9099 5.97989 19.1499C5.12989 19.3899 4.26989 19.0899 4.09989 18.4899C4.07002 18.3616 4.07002 18.2281 4.09989 18.0999L2.53989 17.7599C2.44504 18.1407 2.44504 18.539 2.53989 18.9199C2.74068 19.5081 3.12956 20.0139 3.64647 20.3591C4.16339 20.7044 4.77958 20.8698 5.39989 20.8299C5.7378 20.8256 6.07381 20.7786 6.39989 20.6899C6.78757 20.6156 7.15677 20.4655 7.48634 20.2482C7.81592 20.031 8.09938 19.7508 8.32047 19.4238C8.54157 19.0968 8.69596 18.7294 8.7748 18.3426C8.85363 17.9559 8.85536 17.5573 8.77989 17.1699Z" fill="#01070E"/>
<path d="M11.4493 9.39994C11.3359 9.02856 11.1403 8.68744 10.8772 8.40183C10.6141 8.11622 10.2902 7.89343 9.92932 7.74994C9.86458 7.72402 9.79764 7.70394 9.72932 7.68994L9.20932 9.19994C9.24251 9.19554 9.27613 9.19554 9.30932 9.19994C9.44721 9.24984 9.57243 9.32946 9.67612 9.43315C9.7798 9.53684 9.85942 9.66206 9.90932 9.79994C10.0793 10.3999 9.49932 11.1099 8.64932 11.3499C8.22818 11.4697 7.77983 11.4522 7.36932 11.2999C7.23041 11.249 7.10454 11.1678 7.00079 11.0624C6.89703 10.9569 6.81798 10.8297 6.76932 10.6899C6.74906 10.5842 6.74906 10.4756 6.76932 10.3699L5.18932 10.1799C5.14426 10.4941 5.16469 10.8141 5.24932 11.1199C5.35471 11.4958 5.54467 11.8426 5.80465 12.1338C6.06463 12.4249 6.38776 12.6528 6.74932 12.7999C7.16427 12.9731 7.60968 13.0615 8.05932 13.0599C8.39723 13.0557 8.73324 13.0087 9.05932 12.9199C9.4479 12.8468 9.81818 12.6975 10.1489 12.4808C10.4796 12.264 10.7642 11.984 10.9863 11.6569C11.2084 11.3298 11.3636 10.962 11.4431 10.5747C11.5226 10.1873 11.5247 9.7881 11.4493 9.39994Z" fill="#01070E"/>
<path d="M19.0009 4.77979C18.8895 4.40741 18.6947 4.0653 18.4313 3.77942C18.1679 3.49353 17.8429 3.27137 17.4809 3.12979L17.1809 3.02979L16.7009 4.55978H16.8509C16.9899 4.61074 17.1157 4.69189 17.2195 4.79737C17.3232 4.90286 17.4023 5.03005 17.4509 5.16979C17.6209 5.76978 17.0409 6.46978 16.1909 6.70978C15.3409 6.94978 14.4809 6.64979 14.3109 6.05979C14.266 5.86515 14.2871 5.6611 14.3709 5.47978L12.8909 4.89979C12.6671 5.41376 12.6248 5.98858 12.7709 6.52978C12.9723 7.11365 13.3584 7.61598 13.8709 7.96065C14.3834 8.30531 14.9943 8.47352 15.6109 8.43978C15.9497 8.43735 16.2864 8.38685 16.6109 8.28978C16.9985 8.21657 17.3678 8.06766 17.6978 7.85156C18.0277 7.63545 18.3118 7.35641 18.5338 7.0304C18.7558 6.70438 18.9113 6.33779 18.9915 5.9516C19.0716 5.56542 19.0748 5.16722 19.0009 4.77979Z" fill="#01070E"/>
</svg>
