<svg width="36" height="36" viewBox="0 0 36 36" fill="none" xmlns="http://www.w3.org/2000/svg">
<path d="M1 25V28.4C1 29.0896 1.27393 29.7509 1.76152 30.2385C2.24912 30.7261 2.91044 31 3.6 31H32.34C33.0296 31 33.6909 30.7261 34.1785 30.2385C34.6661 29.7509 34.94 29.0896 34.94 28.4V25H1ZM33 28.4C33 28.5591 32.9368 28.7117 32.8243 28.8243C32.7117 28.9368 32.5591 29 32.4 29H3.56C3.40087 29 3.24826 28.9368 3.13574 28.8243C3.02321 28.7117 2.96 28.5591 2.96 28.4V26.53H12.91C13.035 26.825 13.2437 27.0769 13.5103 27.2546C13.7768 27.4323 14.0896 27.5281 14.41 27.53H21.54C21.8604 27.5281 22.1732 27.4323 22.4397 27.2546C22.7063 27.0769 22.915 26.825 23.04 26.53H33V28.4Z" fill="#01070E"/>
<path d="M9.6 22.88V10.6H18.74C18.8018 10.3549 18.8889 10.117 19 9.89L19.56 9H8V22.88H9.6Z" fill="#01070E"/>
<path d="M6 7H20.71L21.86 5H5.5C5.10218 5 4.72064 5.15804 4.43934 5.43934C4.15804 5.72064 4 6.10218 4 6.5V23H6V7Z" fill="#01070E"/>
<path d="M32 15.3999H30V22.9999H32V15.3999Z" fill="#01070E"/>
<path d="M26.8504 1.13981L21.1304 10.9998C20.9973 11.1951 20.9209 11.4235 20.9097 11.6596C20.8984 11.8957 20.9527 12.1303 21.0666 12.3374C21.1806 12.5445 21.3496 12.716 21.555 12.8329C21.7604 12.9498 21.9942 13.0076 22.2304 12.9998H33.6804C33.9166 13.0076 34.1504 12.9498 34.3558 12.8329C34.5612 12.716 34.7302 12.5445 34.8441 12.3374C34.958 12.1303 35.0123 11.8957 35.0011 11.6596C34.9898 11.4235 34.9135 11.1951 34.7804 10.9998L29.0604 1.13981C28.9476 0.946869 28.7862 0.786825 28.5923 0.675603C28.3985 0.564381 28.1789 0.505859 27.9554 0.505859C27.7319 0.505859 27.5123 0.564381 27.3184 0.675603C27.1245 0.786825 26.9632 0.946869 26.8504 1.13981Z" fill="#01070E"/>
</svg>
