<svg width="36" height="36" viewBox="0 0 36 36" fill="none" xmlns="http://www.w3.org/2000/svg">
<path d="M34 16.9999H28.23C27.9384 15.5704 27.1559 14.2879 26.0181 13.3747C24.8802 12.4615 23.4588 11.9752 22 11.9999H14.15C12.6946 11.9799 11.2779 12.4684 10.1442 13.3812C9.01053 14.294 8.23096 15.5738 7.94 16.9999H2V18.9999H7.93C8.21586 20.4304 8.99543 21.715 10.1324 22.629C11.2694 23.5429 12.6915 24.0282 14.15 23.9999H22C23.4585 24.0282 24.8806 23.5429 26.0176 22.629C27.1546 21.715 27.9341 20.4304 28.22 18.9999H34V16.9999ZM17.08 21.9999H14.15C13.0489 22.0378 11.9775 21.6384 11.17 20.8889C10.3624 20.1394 9.88426 19.1008 9.84 17.9999C9.88426 16.8991 10.3624 15.8604 11.17 15.111C11.9775 14.3615 13.0489 13.962 14.15 13.9999H17.09L17.08 21.9999ZM22 21.9999H19V13.9999H22C23.1011 13.962 24.1725 14.3615 24.98 15.111C25.7876 15.8604 26.2657 16.8991 26.31 17.9999C26.2657 19.1008 25.7876 20.1394 24.98 20.8889C24.1725 21.6384 23.1011 22.0378 22 21.9999Z" fill="#01070E"/>
</svg>
