<svg width="36" height="36" viewBox="0 0 36 36" fill="none" xmlns="http://www.w3.org/2000/svg">
<path d="M32 30H4C3.46957 30 2.96086 29.7893 2.58579 29.4142C2.21071 29.0391 2 28.5304 2 28V8C2 7.46957 2.21071 6.96086 2.58579 6.58579C2.96086 6.21071 3.46957 6 4 6H32C32.5304 6 33.0391 6.21071 33.4142 6.58579C33.7893 6.96086 34 7.46957 34 8V28C34 28.5304 33.7893 29.0391 33.4142 29.4142C33.0391 29.7893 32.5304 30 32 30ZM4 8V28H32V8H4Z" fill="#01070E"/>
<path d="M8.99922 25.3002C8.78705 25.3002 8.58356 25.2159 8.43353 25.0659C8.2835 24.9159 8.19922 24.7124 8.19922 24.5002V11.5002C8.19922 11.288 8.2835 11.0845 8.43353 10.9345C8.58356 10.7845 8.78705 10.7002 8.99922 10.7002C9.21139 10.7002 9.41488 10.7845 9.5649 10.9345C9.71493 11.0845 9.79922 11.288 9.79922 11.5002V24.5002C9.79922 24.7124 9.71493 24.9159 9.5649 25.0659C9.41488 25.2159 9.21139 25.3002 8.99922 25.3002Z" fill="#01070E"/>
<path d="M14.9191 25.3002C14.707 25.3002 14.5035 25.2159 14.3535 25.0659C14.2034 24.9159 14.1191 24.7124 14.1191 24.5002V11.5002C14.1191 11.288 14.2034 11.0845 14.3535 10.9345C14.5035 10.7845 14.707 10.7002 14.9191 10.7002C15.1313 10.7002 15.3348 10.7845 15.4848 10.9345C15.6349 11.0845 15.7191 11.288 15.7191 11.5002V24.5002C15.7191 24.7124 15.6349 24.9159 15.4848 25.0659C15.3348 25.2159 15.1313 25.3002 14.9191 25.3002Z" fill="#01070E"/>
<path d="M20.9992 25.3002C20.787 25.3002 20.5836 25.2159 20.4335 25.0659C20.2835 24.9159 20.1992 24.7124 20.1992 24.5002V11.5002C20.1992 11.288 20.2835 11.0845 20.4335 10.9345C20.5836 10.7845 20.787 10.7002 20.9992 10.7002C21.2114 10.7002 21.4149 10.7845 21.5649 10.9345C21.7149 11.0845 21.7992 11.288 21.7992 11.5002V24.5002C21.7992 24.7124 21.7149 24.9159 21.5649 25.0659C21.4149 25.2159 21.2114 25.3002 20.9992 25.3002Z" fill="#01070E"/>
<path d="M26.9992 25.3002C26.787 25.3002 26.5836 25.2159 26.4335 25.0659C26.2835 24.9159 26.1992 24.7124 26.1992 24.5002V11.5002C26.1992 11.288 26.2835 11.0845 26.4335 10.9345C26.5836 10.7845 26.787 10.7002 26.9992 10.7002C27.2114 10.7002 27.4149 10.7845 27.5649 10.9345C27.7149 11.0845 27.7992 11.288 27.7992 11.5002V24.5002C27.7992 24.7124 27.7149 24.9159 27.5649 25.0659C27.4149 25.2159 27.2114 25.3002 26.9992 25.3002Z" fill="#01070E"/>
</svg>
