<svg width="36" height="36" viewBox="0 0 36 36" fill="none" xmlns="http://www.w3.org/2000/svg">
<path d="M8 17.5799C10.0646 18.093 12.1749 18.4011 14.3 18.4999C14.5114 17.986 14.8243 17.52 15.22 17.1299C12.7823 17.0822 10.3589 16.7465 8 16.1299V17.5799Z" fill="#01070E"/>
<path d="M6 28.0001V8.19012C6.34 7.43012 10.31 6.08012 17 6.08012C23.69 6.08012 27.67 7.43012 28 8.08012V8.38012C27.18 9.17012 23.42 10.4301 16.89 10.4301C13.8957 10.4992 10.9057 10.1663 8 9.44012V10.8801C10.9095 11.5859 13.8964 11.9219 16.89 11.8801C21.18 11.8801 25.69 11.3001 28 10.0601V15.1301C27.4584 15.5364 26.844 15.8351 26.19 16.0101H30V8.12012C30 4.93012 21.83 4.12012 17 4.12012C12.17 4.12012 4 4.97012 4 8.12012V28.0001C4 30.6301 9.39 31.6801 14 32.0001V30.0001C9.13 29.6601 6.28 28.6201 6 28.0001Z" fill="#01070E"/>
<path d="M8 24.2798C9.96647 24.7701 11.9759 25.0681 14 25.1698V23.7698C11.9729 23.6712 9.96184 23.3594 8 22.8398V24.2798Z" fill="#01070E"/>
<path d="M32 18H18C17.4696 18 16.9609 18.2107 16.5858 18.5858C16.2107 18.9609 16 19.4696 16 20V32C16 32.5304 16.2107 33.0391 16.5858 33.4142C16.9609 33.7893 17.4696 34 18 34H32C32.5304 34 33.0391 33.7893 33.4142 33.4142C33.7893 33.0391 34 32.5304 34 32V20C34 19.4696 33.7893 18.9609 33.4142 18.5858C33.0391 18.2107 32.5304 18 32 18ZM18 32V20H32V32H18Z" fill="#01070E"/>
<path d="M21.0008 21.7002C20.8151 21.7002 20.6371 21.7739 20.5058 21.9052C20.3745 22.0365 20.3008 22.2145 20.3008 22.4002V29.8902C20.3008 30.0758 20.3745 30.2539 20.5058 30.3852C20.6371 30.5164 20.8151 30.5902 21.0008 30.5902C21.1864 30.5902 21.3645 30.5164 21.4958 30.3852C21.627 30.2539 21.7008 30.0758 21.7008 29.8902V22.4002C21.7008 22.2145 21.627 22.0365 21.4958 21.9052C21.3645 21.7739 21.1864 21.7002 21.0008 21.7002Z" fill="#01070E"/>
<path d="M25.0008 21.8198C24.8151 21.8198 24.6371 21.8936 24.5058 22.0248C24.3745 22.1561 24.3008 22.3342 24.3008 22.5198V29.9998C24.3008 30.1855 24.3745 30.3635 24.5058 30.4948C24.6371 30.6261 24.8151 30.6998 25.0008 30.6998C25.1864 30.6998 25.3645 30.6261 25.4958 30.4948C25.627 30.3635 25.7008 30.1855 25.7008 29.9998V22.5198C25.7008 22.3342 25.627 22.1561 25.4958 22.0248C25.3645 21.8936 25.1864 21.8198 25.0008 21.8198Z" fill="#01070E"/>
<path d="M29.0008 21.7002C28.8151 21.7002 28.6371 21.7739 28.5058 21.9052C28.3745 22.0365 28.3008 22.2145 28.3008 22.4002V29.8902C28.3008 30.0758 28.3745 30.2539 28.5058 30.3852C28.6371 30.5164 28.8151 30.5902 29.0008 30.5902C29.1864 30.5902 29.3645 30.5164 29.4958 30.3852C29.627 30.2539 29.7008 30.0758 29.7008 29.8902V22.4002C29.7008 22.2145 29.627 22.0365 29.4958 21.9052C29.3645 21.7739 29.1864 21.7002 29.0008 21.7002Z" fill="#01070E"/>
</svg>
