<svg width="31" height="31" viewBox="0 0 31 31" fill="none" xmlns="http://www.w3.org/2000/svg">
<path d="M4.00094 21.5899C4.90605 21.837 5.82411 22.034 6.75094 22.1799L7.96094 20.7699C6.60654 20.6068 5.26841 20.3292 3.96094 19.9399L4.00094 21.5899Z" fill="#01070E"/>
<path d="M2 24.5302V7.30018C4.9 8.73018 10.34 9.18018 14 9.18018C17.66 9.18018 23.1 8.73018 26 7.30018V12.4102C25.09 13.2302 21 14.5402 14 14.5402C10.6256 14.6238 7.25704 14.2162 4 13.3302V15.0002C7.27277 15.7976 10.6316 16.1872 14 16.1602C17.46 16.1602 23.13 15.7102 26 14.2502V17.4802H28V5.00018C28 5.00018 28 5.00018 28 4.93018C28 1.58018 19.2 0.680176 14 0.680176C8.8 0.680176 0 1.58018 0 4.93018V24.5302C0 26.5302 3.17 27.6702 6.83 28.2502L4.38 25.6802C3 25.2802 2.13 24.8402 2 24.5302ZM14 2.68018C21.15 2.68018 25.53 4.12018 26 4.93018C25.54 5.74018 21.16 7.18018 14 7.18018C6.84 7.18018 2.31 5.69018 2 5.00018C2.31 4.18018 6.71 2.68018 14 2.68018Z" fill="#01070E"/>
<path d="M28.0908 19H11.4608L6.05078 25.31L11.4908 31H28.0908C28.6212 31 29.1299 30.7893 29.505 30.4142C29.8801 30.0391 30.0908 29.5304 30.0908 29V20.93C30.0726 20.4118 29.8539 19.9209 29.4808 19.5608C29.1077 19.2008 28.6093 18.9997 28.0908 19ZM28.0908 29H12.3408L8.75078 25.23L12.3808 21H28.0908V29Z" fill="#01070E"/>
<path d="M12.1094 24C11.9116 24 11.7183 24.0586 11.5538 24.1685C11.3894 24.2784 11.2612 24.4346 11.1855 24.6173C11.1098 24.8 11.09 25.0011 11.1286 25.1951C11.1672 25.3891 11.2624 25.5673 11.4023 25.7071C11.5421 25.847 11.7203 25.9422 11.9143 25.9808C12.1083 26.0194 12.3093 25.9996 12.4921 25.9239C12.6748 25.8482 12.831 25.72 12.9408 25.5556C13.0507 25.3911 13.1094 25.1978 13.1094 25C13.1094 24.7348 13.004 24.4804 12.8165 24.2929C12.6289 24.1054 12.3746 24 12.1094 24Z" fill="#01070E"/>
</svg>
