<svg width="31" height="34" viewBox="0 0 31 34" fill="none" xmlns="http://www.w3.org/2000/svg">
<path d="M4.00094 24.5899C4.90605 24.837 5.82411 25.034 6.75094 25.1799L7.96094 23.7699C6.60654 23.6068 5.26841 23.3292 3.96094 22.9399L4.00094 24.5899Z" fill="#01070E"/>
<path d="M28.0908 22H11.4608L6.05078 28.31L11.4908 34H28.0908C28.6212 34 29.1299 33.7893 29.505 33.4142C29.8801 33.0391 30.0908 32.5304 30.0908 32V23.93C30.0726 23.4118 29.8539 22.9209 29.4808 22.5608C29.1077 22.2008 28.6093 21.9997 28.0908 22ZM28.0908 32H12.3408L8.75078 28.23L12.3808 24H28.0908V32Z" fill="#01070E"/>
<path d="M12.1094 27C11.9116 27 11.7183 27.0586 11.5538 27.1685C11.3894 27.2784 11.2612 27.4346 11.1855 27.6173C11.1098 27.8 11.09 28.0011 11.1286 28.1951C11.1672 28.3891 11.2624 28.5673 11.4023 28.7071C11.5421 28.847 11.7203 28.9422 11.9143 28.9808C12.1083 29.0194 12.3093 28.9996 12.4921 28.9239C12.6748 28.8482 12.831 28.72 12.9408 28.5556C13.0507 28.3911 13.1094 28.1978 13.1094 28C13.1094 27.7348 13.004 27.4804 12.8165 27.2929C12.6289 27.1054 12.3746 27 12.1094 27Z" fill="#01070E"/>
<path d="M2 27.5297V10.2997C4.9 11.7297 10.34 12.1797 14 12.1797H14.59C14.5025 11.4961 14.6136 10.8018 14.91 10.1797H14C6.71 10.1797 2.31 8.68971 2 7.99971C2.32 7.19971 6.72 5.69971 14 5.69971C15.22 5.69971 16.35 5.74971 17.41 5.81971L18.51 3.90971C16.91 3.75971 15.34 3.69971 14 3.69971C8.8 3.69971 0 4.59971 0 7.94971V27.5497C0 29.5497 3.17 30.6897 6.83 31.2697L4.38 28.6797C3 28.2797 2.13 27.8397 2 27.5297Z" fill="#01070E"/>
<path d="M4 16.3299V17.9999C7.27277 18.7973 10.6316 19.1869 14 19.1599C17.46 19.1599 23.13 18.7099 26 17.2499V20.4799H28V15.3999H26C25.09 16.2199 21 17.5299 14 17.5299C10.6261 17.6168 7.25753 17.2126 4 16.3299Z" fill="#01070E"/>
<path d="M22.8492 1.13981L17.1292 11.0498C17.0061 11.2438 16.938 11.4676 16.9321 11.6973C16.9261 11.927 16.9826 12.154 17.0955 12.3541C17.2084 12.5542 17.3734 12.72 17.5731 12.8337C17.7727 12.9474 17.9995 13.0048 18.2292 12.9998H29.6792C29.9029 13.0004 30.1228 12.9418 30.3165 12.8301C30.5103 12.7184 30.6712 12.5575 30.7828 12.3636C30.8944 12.1698 30.9529 11.9499 30.9523 11.7262C30.9516 11.5026 30.8919 11.283 30.7792 11.0898L25.0592 1.13981C24.9464 0.946869 24.785 0.786825 24.5912 0.675603C24.3973 0.564381 24.1777 0.505859 23.9542 0.505859C23.7307 0.505859 23.5111 0.564381 23.3172 0.675603C23.1234 0.786825 22.962 0.946869 22.8492 1.13981Z" fill="#FAC400"/>
</svg>
