<svg width="36" height="36" viewBox="0 0 36 36" fill="none" xmlns="http://www.w3.org/2000/svg">
<path d="M22.6 3.99984H21.55C21.2768 3.24995 20.7796 2.60224 20.1257 2.14457C19.4719 1.68689 18.6931 1.44141 17.895 1.44141C17.0969 1.44141 16.3181 1.68689 15.6643 2.14457C15.0104 2.60224 14.5132 3.24995 14.24 3.99984H13.4C12.7643 4.00247 12.1554 4.25617 11.7059 4.70569C11.2563 5.15521 11.0026 5.76413 11 6.39984V9.99984H25V6.39984C24.9974 5.76413 24.7437 5.15521 24.2941 4.70569C23.8446 4.25617 23.2357 4.00247 22.6 3.99984ZM23 7.99984H13V6.24984C13 6.18353 13.0263 6.11995 13.0732 6.07306C13.1201 6.02618 13.1837 5.99984 13.25 5.99984H15.94L16.06 4.88984C16.0813 4.71037 16.1415 4.53773 16.2365 4.38399C16.3315 4.23025 16.459 4.09914 16.61 3.99984C16.8784 3.79977 17.1927 3.67026 17.5241 3.62319C17.8555 3.57612 18.1935 3.61298 18.5069 3.73041C18.8204 3.84784 19.0994 4.04208 19.3183 4.29531C19.5373 4.54854 19.6891 4.85268 19.76 5.17984L19.85 6.01984H22.75C22.8163 6.01984 22.8799 6.04618 22.9268 6.09306C22.9737 6.13994 23 6.20353 23 6.26984V7.99984Z" fill="#01070E"/>
<path d="M33.25 18.0602H21.33L24.17 15.2302C24.2632 15.137 24.3372 15.0263 24.3877 14.9045C24.4381 14.7826 24.4641 14.6521 24.4641 14.5202C24.4641 14.3883 24.4381 14.2578 24.3877 14.136C24.3372 14.0141 24.2632 13.9034 24.17 13.8102C24.0768 13.717 23.9661 13.643 23.8442 13.5925C23.7224 13.5421 23.5919 13.5161 23.46 13.5161C23.3281 13.5161 23.1976 13.5421 23.0758 13.5925C22.9539 13.643 22.8432 13.717 22.75 13.8102L17.5 19.0602L22.75 24.3102C22.8434 24.4029 22.9543 24.4762 23.0761 24.526C23.1979 24.5757 23.3284 24.601 23.46 24.6002C23.6566 24.5994 23.8486 24.5407 24.0119 24.4313C24.1753 24.322 24.3029 24.167 24.3786 23.9856C24.4544 23.8042 24.475 23.6045 24.4379 23.4115C24.4008 23.2184 24.3076 23.0406 24.17 22.9002L21.33 20.0602H33.25C33.5152 20.0602 33.7696 19.9548 33.9571 19.7673C34.1446 19.5798 34.25 19.3254 34.25 19.0602C34.25 18.795 34.1446 18.5406 33.9571 18.3531C33.7696 18.1656 33.5152 18.0602 33.25 18.0602Z" fill="#01070E"/>
<path d="M29.0001 16H31.0001V6.68C31.0027 6.46117 30.9621 6.24397 30.8804 6.04091C30.7988 5.83785 30.6779 5.65293 30.5245 5.4968C30.3712 5.34066 30.1885 5.21638 29.9869 5.13112C29.7854 5.04587 29.5689 5.0013 29.3501 5H27.0801V7H29.0001V16Z" fill="#01070E"/>
<path d="M29.0001 31H7.00012V7H9.00012V5H6.64012C6.2016 5.00528 5.78298 5.18387 5.4757 5.49677C5.16842 5.80967 4.99745 6.23146 5.00012 6.67V31.32C4.99748 31.5388 5.03814 31.756 5.11975 31.9591C5.20137 32.1621 5.32233 32.3471 5.47568 32.5032C5.62903 32.6593 5.81173 32.7836 6.01329 32.8689C6.21485 32.9541 6.43128 32.9987 6.65012 33H29.3601C29.7986 32.9947 30.2173 32.8161 30.5245 32.5032C30.8318 32.1903 31.0028 31.7685 31.0001 31.33V22.06H29.0001V31Z" fill="#01070E"/>
</svg>
