<svg width="36" height="36" viewBox="0 0 36 36" fill="none" xmlns="http://www.w3.org/2000/svg">
<path d="M32.2 23.55H30V18.15H32.2C32.4122 18.15 32.6157 18.0657 32.7657 17.9157C32.9157 17.7657 33 17.5622 33 17.35C33 17.1378 32.9157 16.9343 32.7657 16.7843C32.6157 16.6343 32.4122 16.55 32.2 16.55H30V15.4H28V27.9C28 27.9265 27.9895 27.952 27.9707 27.9707C27.952 27.9895 27.9265 28 27.9 28H8.1C8.07348 28 8.04804 27.9895 8.02929 27.9707C8.01054 27.952 8 27.9265 8 27.9V8.1C8 8.07348 8.01054 8.04804 8.02929 8.02929C8.04804 8.01054 8.07348 8 8.1 8H20.1L21.25 6H19.35V3.8C19.35 3.58783 19.2657 3.38434 19.1157 3.23431C18.9657 3.08429 18.7622 3 18.55 3C18.3378 3 18.1343 3.08429 17.9843 3.23431C17.8343 3.38434 17.75 3.58783 17.75 3.8V6H12.35V3.8C12.35 3.58783 12.2657 3.38434 12.1157 3.23431C11.9657 3.08429 11.7622 3 11.55 3C11.3378 3 11.1343 3.08429 10.9843 3.23431C10.8343 3.38434 10.75 3.58783 10.75 3.8V6H8.1C7.54305 6 7.0089 6.22125 6.61508 6.61508C6.22125 7.0089 6 7.54305 6 8.1V9.55H3.8C3.58783 9.55 3.38434 9.63428 3.23431 9.78431C3.08429 9.93434 3 10.1378 3 10.35C3 10.5622 3.08429 10.7657 3.23431 10.9157C3.38434 11.0657 3.58783 11.15 3.8 11.15H6V16.55H3.8C3.58783 16.55 3.38434 16.6343 3.23431 16.7843C3.08429 16.9343 3 17.1378 3 17.35C3 17.5622 3.08429 17.7657 3.23431 17.9157C3.38434 18.0657 3.58783 18.15 3.8 18.15H6V23.55H3.8C3.58783 23.55 3.38434 23.6343 3.23431 23.7843C3.08429 23.9343 3 24.1378 3 24.35C3 24.5622 3.08429 24.7657 3.23431 24.9157C3.38434 25.0657 3.58783 25.15 3.8 25.15H6V27.9C6 28.457 6.22125 28.9911 6.61508 29.3849C7.0089 29.7787 7.54305 30 8.1 30H10.75V32.2C10.75 32.4122 10.8343 32.6157 10.9843 32.7657C11.1343 32.9157 11.3378 33 11.55 33C11.7622 33 11.9657 32.9157 12.1157 32.7657C12.2657 32.6157 12.35 32.4122 12.35 32.2V30H17.75V32.2C17.75 32.4122 17.8343 32.6157 17.9843 32.7657C18.1343 32.9157 18.3378 33 18.55 33C18.7622 33 18.9657 32.9157 19.1157 32.7657C19.2657 32.6157 19.35 32.4122 19.35 32.2V30H24.75V32.2C24.75 32.4122 24.8343 32.6157 24.9843 32.7657C25.1343 32.9157 25.3378 33 25.55 33C25.7622 33 25.9657 32.9157 26.1157 32.7657C26.2657 32.6157 26.35 32.4122 26.35 32.2V30H27.9C28.457 30 28.9911 29.7787 29.3849 29.3849C29.7787 28.9911 30 28.457 30 27.9V25.15H32.2C32.4122 25.15 32.6157 25.0657 32.7657 24.9157C32.9157 24.7657 33 24.5622 33 24.35C33 24.1378 32.9157 23.9343 32.7657 23.7843C32.6157 23.6343 32.4122 23.55 32.2 23.55Z" fill="#01070E"/>
<path d="M12.0605 24.5699H23.8305C24.0295 24.5699 24.2202 24.4909 24.3609 24.3502C24.5015 24.2096 24.5805 24.0188 24.5805 23.8199V15.3999H23.0805V23.0699H12.0805L12.0605 24.5699Z" fill="#01070E"/>
<path d="M26.8504 1.13981L21.1304 10.9998C20.9973 11.1951 20.9209 11.4235 20.9097 11.6596C20.8984 11.8957 20.9527 12.1303 21.0666 12.3374C21.1806 12.5445 21.3496 12.716 21.555 12.8329C21.7604 12.9498 21.9942 13.0076 22.2304 12.9998H33.6804C33.9166 13.0076 34.1504 12.9498 34.3558 12.8329C34.5612 12.716 34.7302 12.5445 34.8441 12.3374C34.958 12.1303 35.0123 11.8957 35.0011 11.6596C34.9898 11.4235 34.9135 11.1951 34.7804 10.9998L29.0604 1.13981C28.9476 0.946869 28.7862 0.786825 28.5923 0.675603C28.3985 0.564381 28.1789 0.505859 27.9554 0.505859C27.7319 0.505859 27.5123 0.564381 27.3184 0.675603C27.1245 0.786825 26.9632 0.946869 26.8504 1.13981Z" fill="#01070E"/>
</svg>
