<svg width="36" height="36" viewBox="0 0 36 36" fill="none" xmlns="http://www.w3.org/2000/svg">
<path d="M18 29C15.8244 29 13.6977 28.3549 11.8887 27.1462C10.0798 25.9375 8.66989 24.2195 7.83733 22.2095C7.00477 20.1995 6.78693 17.9878 7.21137 15.854C7.6358 13.7202 8.68345 11.7602 10.2218 10.2218C11.7602 8.68345 13.7202 7.6358 15.854 7.21137C17.9878 6.78693 20.1995 7.00477 22.2095 7.83733C24.2195 8.66989 25.9375 10.0798 27.1462 11.8887C28.3549 13.6977 29 15.8244 29 18C29 20.9174 27.8411 23.7153 25.7782 25.7782C23.7153 27.8411 20.9174 29 18 29ZM18 9.00001C16.22 9.00001 14.4799 9.52785 12.9999 10.5168C11.5198 11.5057 10.3663 12.9113 9.68509 14.5559C9.0039 16.2004 8.82567 18.01 9.17294 19.7558C9.5202 21.5016 10.3774 23.1053 11.636 24.364C12.8947 25.6226 14.4984 26.4798 16.2442 26.8271C17.99 27.1743 19.7996 26.9961 21.4442 26.3149C23.0887 25.6337 24.4943 24.4802 25.4832 23.0001C26.4722 21.5201 27 19.78 27 18C27 15.6131 26.0518 13.3239 24.364 11.636C22.6761 9.94822 20.387 9.00001 18 9.00001Z" fill="#01070E"/>
<path d="M18 23C17.0111 23 16.0444 22.7068 15.2222 22.1574C14.3999 21.6079 13.759 20.8271 13.3806 19.9134C13.0022 18.9998 12.9031 17.9945 13.0961 17.0246C13.289 16.0546 13.7652 15.1637 14.4645 14.4645C15.1637 13.7652 16.0546 13.289 17.0246 13.0961C17.9945 12.9031 18.9998 13.0022 19.9134 13.3806C20.8271 13.759 21.6079 14.3999 22.1574 15.2222C22.7068 16.0444 23 17.0111 23 18C23 18.6566 22.8707 19.3068 22.6194 19.9134C22.3681 20.52 21.9998 21.0712 21.5355 21.5355C21.0712 21.9998 20.52 22.3681 19.9134 22.6194C19.3068 22.8707 18.6566 23 18 23ZM18 15C17.4067 15 16.8266 15.1759 16.3333 15.5056C15.8399 15.8352 15.4554 16.3038 15.2284 16.852C15.0013 17.4001 14.9419 18.0033 15.0576 18.5853C15.1734 19.1672 15.4591 19.7018 15.8787 20.1213C16.2982 20.5409 16.8328 20.8266 17.4147 20.9424C17.9967 21.0581 18.5999 20.9987 19.1481 20.7716C19.6962 20.5446 20.1648 20.1601 20.4944 19.6667C20.8241 19.1734 21 18.5933 21 18C21 17.2044 20.6839 16.4413 20.1213 15.8787C19.5587 15.3161 18.7957 15 18 15Z" fill="#01070E"/>
<path d="M18 8.9998C17.7348 8.9998 17.4804 8.89445 17.2929 8.70691C17.1054 8.51937 17 8.26502 17 7.9998V2.7998C17 2.53459 17.1054 2.28023 17.2929 2.0927C17.4804 1.90516 17.7348 1.7998 18 1.7998C18.2652 1.7998 18.5196 1.90516 18.7071 2.0927C18.8946 2.28023 19 2.53459 19 2.7998V7.9998C19 8.26502 18.8946 8.51937 18.7071 8.70691C18.5196 8.89445 18.2652 8.9998 18 8.9998Z" fill="#01070E"/>
<path d="M18 34C17.7348 34 17.4804 33.8946 17.2929 33.7071C17.1054 33.5196 17 33.2652 17 33V28C17 27.7348 17.1054 27.4804 17.2929 27.2929C17.4804 27.1054 17.7348 27 18 27C18.2652 27 18.5196 27.1054 18.7071 27.2929C18.8946 27.4804 19 27.7348 19 28V33C19 33.2652 18.8946 33.5196 18.7071 33.7071C18.5196 33.8946 18.2652 34 18 34Z" fill="#01070E"/>
<path d="M7.99992 19H3.16992C2.90471 19 2.65035 18.8946 2.46282 18.7071C2.27528 18.5196 2.16992 18.2652 2.16992 18C2.16992 17.7348 2.27528 17.4804 2.46282 17.2929C2.65035 17.1054 2.90471 17 3.16992 17H7.99992C8.26514 17 8.51949 17.1054 8.70703 17.2929C8.89456 17.4804 8.99992 17.7348 8.99992 18C8.99992 18.2652 8.89456 18.5196 8.70703 18.7071C8.51949 18.8946 8.26514 19 7.99992 19Z" fill="#01070E"/>
<path d="M33.1 19H28C27.7348 19 27.4804 18.8946 27.2929 18.7071C27.1054 18.5196 27 18.2652 27 18C27 17.7348 27.1054 17.4804 27.2929 17.2929C27.4804 17.1054 27.7348 17 28 17H33.1C33.3652 17 33.6196 17.1054 33.8071 17.2929C33.9946 17.4804 34.1 17.7348 34.1 18C34.1 18.2652 33.9946 18.5196 33.8071 18.7071C33.6196 18.8946 33.3652 19 33.1 19Z" fill="#01070E"/>
</svg>
