<svg width="35" height="29" viewBox="0 0 35 29" fill="none" xmlns="http://www.w3.org/2000/svg">
<g clip-path="url(#clip0_1335_3168)">
<path d="M3.0007 10.3299C3.0007 10.0554 2.91942 9.78707 2.76712 9.55871C2.61483 9.33035 2.39832 9.15219 2.14492 9.0467C1.89151 8.9412 1.61254 8.9131 1.34319 8.96593C1.07383 9.01876 0.826142 9.15015 0.631354 9.34355C0.436567 9.53694 0.3034 9.78368 0.248643 10.0527C0.193885 10.3216 0.219989 10.6008 0.323663 10.8549C0.427337 11.1091 0.60394 11.3269 0.831205 11.4808C1.05847 11.6347 1.32622 11.7179 1.6007 11.7199C1.78408 11.7212 1.96591 11.6862 2.13571 11.617C2.3055 11.5477 2.45992 11.4455 2.59005 11.3163C2.72019 11.1871 2.82347 11.0335 2.89395 10.8642C2.96443 10.6949 3.00071 10.5133 3.0007 10.3299Z" fill="#01070E"/>
<path d="M30.811 12.8397C29.2333 13.1341 27.6959 13.6141 26.231 14.2697C25.0105 14.8643 23.8459 15.5671 22.751 16.3697C22.0817 15.493 21.4958 14.5556 21.001 13.5697C19.8489 11.0915 18.9121 8.51863 18.201 5.87975C18.1424 5.66158 18.0117 5.46969 17.8301 5.33532C17.6485 5.20095 17.4268 5.13201 17.201 5.13975C16.9752 5.13201 16.7535 5.20095 16.5719 5.33532C16.3903 5.46969 16.2596 5.66158 16.201 5.87975C15.4945 8.52006 14.5575 11.0933 13.401 13.5697C12.9067 14.5581 12.3173 15.4958 11.641 16.3697C10.5461 15.5671 9.38147 14.8643 8.16101 14.2697C6.69506 13.6168 5.15803 13.1369 3.58101 12.8397C3.39449 12.803 3.20136 12.8201 3.02425 12.8892C2.84713 12.9583 2.69338 13.0764 2.58101 13.2297C2.46974 13.379 2.40237 13.5564 2.38647 13.7419C2.37057 13.9274 2.40677 14.1137 2.49101 14.2797C4.60212 18.6745 6.06081 23.3538 6.82101 28.1697C6.86149 28.4045 6.98446 28.6172 7.1678 28.7693C7.35113 28.9215 7.58277 29.0032 7.82101 28.9997H26.621C26.8592 29.0032 27.0909 28.9215 27.2742 28.7693C27.4575 28.6172 27.5805 28.4045 27.621 28.1697C28.3593 23.3575 29.7943 18.6784 31.881 14.2797C31.9652 14.1137 32.0014 13.9274 31.9855 13.7419C31.9696 13.5564 31.9023 13.379 31.791 13.2297C31.6802 13.0799 31.5298 12.9639 31.3566 12.895C31.1834 12.8261 30.9945 12.807 30.811 12.8397ZM25.791 26.9997H8.64101C7.93994 22.9837 6.79977 19.0568 5.24101 15.2897C5.95523 15.5 6.65365 15.7607 7.33101 16.0697C8.70361 16.7368 9.99535 17.5589 11.181 18.5197C11.3789 18.6884 11.6348 18.7734 11.8943 18.7566C12.1537 18.7398 12.3965 18.6225 12.571 18.4297C13.6245 17.2131 14.5214 15.8693 15.241 14.4297C16.0062 12.8418 16.6741 11.2088 17.241 9.53975C17.8037 11.2103 18.4717 12.8436 19.241 14.4297C19.9631 15.8655 20.8562 17.2086 21.901 18.4297C22.0759 18.6255 22.3207 18.7446 22.5826 18.7614C22.8445 18.7783 23.1025 18.6915 23.301 18.5197C24.4824 17.553 25.7749 16.7305 27.151 16.0697C27.827 15.7574 28.5257 15.4967 29.241 15.2897C27.6606 19.0532 26.5035 22.9806 25.791 26.9997Z" fill="#01070E"/>
<path d="M32.8314 11.7199C33.5991 11.7199 34.2214 11.0976 34.2214 10.3299C34.2214 9.56227 33.5991 8.93994 32.8314 8.93994C32.0637 8.93994 31.4414 9.56227 31.4414 10.3299C31.4414 11.0976 32.0637 11.7199 32.8314 11.7199Z" fill="#01070E"/>
<path d="M17.2198 3.38983C17.4952 3.39181 17.7649 3.31197 17.9948 3.16045C18.2247 3.00892 18.4044 2.79253 18.5111 2.53872C18.6179 2.28492 18.6468 2.00512 18.5943 1.73483C18.5418 1.46455 18.4103 1.21594 18.2163 1.02054C18.0223 0.825144 17.7746 0.691762 17.5047 0.637313C17.2348 0.582864 16.9548 0.609801 16.7002 0.714706C16.4457 0.819612 16.228 0.99776 16.0748 1.22656C15.9216 1.45535 15.8399 1.72449 15.8398 1.99983C15.8398 2.36675 15.9849 2.7188 16.2434 2.97919C16.5019 3.23958 16.8529 3.38719 17.2198 3.38983Z" fill="#01070E"/>
<path d="M17.2313 23.3399C17.0109 23.3379 16.7949 23.4016 16.6109 23.5228C16.4268 23.644 16.283 23.8172 16.1977 24.0205C16.1125 24.2237 16.0897 24.4477 16.1322 24.664C16.1747 24.8802 16.2806 25.0789 16.4364 25.2347C16.5923 25.3906 16.791 25.4965 17.0072 25.539C17.2235 25.5815 17.4475 25.5587 17.6507 25.4734C17.8539 25.3882 18.0272 25.2444 18.1484 25.0603C18.2696 24.8762 18.3333 24.6603 18.3313 24.4399C18.3313 24.1482 18.2154 23.8684 18.0091 23.6621C17.8028 23.4558 17.523 23.3399 17.2313 23.3399Z" fill="#01070E"/>
<path d="M11.5809 23.3399C11.3605 23.3379 11.1445 23.4016 10.9605 23.5228C10.7764 23.644 10.6326 23.8172 10.5473 24.0205C10.4621 24.2237 10.4393 24.4477 10.4818 24.664C10.5243 24.8802 10.6302 25.0789 10.786 25.2347C10.9419 25.3906 11.1406 25.4965 11.3568 25.539C11.5731 25.5815 11.7971 25.5587 12.0003 25.4734C12.2035 25.3882 12.3768 25.2444 12.498 25.0603C12.6192 24.8762 12.6829 24.6603 12.6809 24.4399C12.6809 24.1482 12.565 23.8684 12.3587 23.6621C12.1524 23.4558 11.8726 23.3399 11.5809 23.3399Z" fill="#01070E"/>
<path d="M22.8914 23.3399C22.6711 23.3379 22.4551 23.4016 22.271 23.5228C22.087 23.644 21.9431 23.8172 21.8579 24.0205C21.7726 24.2237 21.7498 24.4477 21.7923 24.664C21.8348 24.8802 21.9408 25.0789 22.0966 25.2347C22.2524 25.3906 22.4511 25.4965 22.6674 25.539C22.8836 25.5815 23.1076 25.5587 23.3109 25.4734C23.5141 25.3882 23.6873 25.2444 23.8085 25.0603C23.9297 24.8762 23.9934 24.6603 23.9914 24.4399C23.9914 24.1482 23.8755 23.8684 23.6693 23.6621C23.463 23.4558 23.1832 23.3399 22.8914 23.3399Z" fill="#01070E"/>
</g>
<defs>
<clipPath id="clip0_1335_3168">
<rect width="35" height="29.0001" fill="white"/>
</clipPath>
</defs>
</svg>
