<svg width="36" height="36" viewBox="0 0 36 36" fill="none" xmlns="http://www.w3.org/2000/svg">
<path d="M32 5H4C2.895 5 2 5.895 2 7V29C2 30.105 2.895 31 4 31H32C33.105 31 34 30.105 34 29V7C34 5.895 33.105 5 32 5ZM4 29V7H32V29H4Z" fill="#01070E"/>
<path d="M6.99922 11.8002C6.55722 11.8002 6.19922 11.4422 6.19922 11.0002C6.19922 10.5582 6.55722 10.2002 6.99922 10.2002H12.9992C15.4032 10.2002 16.3672 11.9072 17.6522 16.4782C17.6942 16.6282 17.7432 16.8032 17.8342 17.1292C17.9082 17.3922 17.9632 17.5882 18.0182 17.7802C19.3312 22.3752 20.5482 24.2002 22.9992 24.2002H28.9992C29.4412 24.2002 29.7992 24.5582 29.7992 25.0002C29.7992 25.4422 29.4412 25.8002 28.9992 25.8002H22.9992C19.5342 25.8002 17.9802 23.4692 16.4802 18.2202C16.4242 18.0252 16.3682 17.8262 16.2942 17.5602C16.2022 17.2342 16.1532 17.0602 16.1122 16.9112C15.0422 13.1052 14.3042 11.8002 12.9992 11.8002H6.99922Z" fill="#01070E"/>
</svg>
