<svg width="36" height="36" viewBox="0 0 36 36" fill="none" xmlns="http://www.w3.org/2000/svg">
<path d="M25.1807 12.3198L19.2707 18.1298C18.6331 17.8227 17.9076 17.7509 17.2222 17.927C16.5368 18.1031 15.9358 18.5158 15.5252 19.0922C15.1147 19.6685 14.9211 20.3715 14.9787 21.0768C15.0363 21.7821 15.3413 22.4443 15.84 22.9464C16.3386 23.4486 16.9986 23.7583 17.7035 23.8209C18.4083 23.8834 19.1126 23.6948 19.6919 23.2884C20.2712 22.8819 20.6881 22.2838 20.869 21.5997C21.05 20.9156 20.9832 20.1895 20.6807 19.5498L26.6007 13.7398L25.1807 12.3198Z" fill="#01070E"/>
<path d="M17.9991 4.25001C14.8519 4.24641 11.7693 5.14355 9.11545 6.83548C6.46164 8.52742 4.34743 10.9435 3.02254 13.7983C1.69765 16.6531 1.2174 19.8275 1.63853 22.9465C2.05966 26.0655 3.36457 28.9988 5.39914 31.4L5.69914 31.75H30.2991L30.5991 31.4C32.6337 28.9988 33.9386 26.0655 34.3597 22.9465C34.7809 19.8275 34.3006 16.6531 32.9757 13.7983C31.6508 10.9435 29.5366 8.52742 26.8828 6.83548C24.229 5.14355 21.1464 4.24641 17.9991 4.25001ZM29.3391 29.75H6.65914C4.86482 27.5047 3.78188 24.7748 3.54914 21.91H6.99914V19.91H3.54914C3.7166 16.7347 4.9296 13.704 6.99914 11.29L9.44914 13.74L10.8591 12.33L8.42914 9.87001C10.8124 7.76355 13.8257 6.5048 16.9991 6.29001V9.79001H18.9991V6.30001C22.5046 6.55423 25.7977 8.07563 28.2636 10.5801C30.7294 13.0846 32.1995 16.401 32.3991 19.91H28.9191V21.91H32.4491C32.2164 24.7748 31.1335 27.5047 29.3391 29.75Z" fill="#01070E"/>
</svg>
