<svg width="36" height="36" viewBox="0 0 36 36" fill="none" xmlns="http://www.w3.org/2000/svg">
<path d="M26.5 4.08008C22.77 4.08008 19 5.40008 19 7.91008V9.50008C19.6698 9.53094 20.3374 9.5977 21 9.70008V7.91008C21 7.26008 23.09 6.07008 26.5 6.07008C29.91 6.07008 32 7.27008 32 7.91008V18.2401C32 18.7801 30.54 19.6801 28.1 19.9701V21.9701C31.23 21.6501 34 20.3701 34 18.2201V7.91008C34 5.40008 30.23 4.08008 26.5 4.08008Z" fill="#01070E"/>
<path d="M4 18.2398V7.90982C4 7.25982 6.09 6.06982 9.5 6.06982C12.91 6.06982 15 7.26982 15 7.90982V9.69982C15.6626 9.59745 16.3302 9.53068 17 9.49982V7.90982C17 5.38982 13.23 4.06982 9.5 4.06982C5.77 4.06982 2 5.39982 2 7.90982V18.2398C2 20.3998 4.77 21.6698 7.9 21.9998V19.9998C5.46 19.6798 4 18.7798 4 18.2398Z" fill="#01070E"/>
<path d="M17.9996 10.8501C13.0696 10.8501 9.34961 12.7301 9.34961 15.2301V27.5401C9.34961 30.0401 13.0696 31.9201 17.9996 31.9201C22.9296 31.9201 26.6496 30.0401 26.6496 27.5401V15.2301C26.6496 12.7301 22.9296 10.8501 17.9996 10.8501ZM24.6496 18.5201C23.7996 19.5201 21.2296 20.5201 17.9996 20.5201C16.6486 20.5341 15.3022 20.3591 13.9996 20.0001V21.4601C15.3084 21.7812 16.652 21.9391 17.9996 21.9301C20.3169 22.0241 22.6159 21.4848 24.6496 20.3701V23.4901C23.7996 24.4901 21.2296 25.4901 17.9996 25.4901C16.6481 25.5008 15.3017 25.3225 13.9996 24.9601V26.4201C15.3084 26.7412 16.652 26.8991 17.9996 26.8901C20.3169 26.9841 22.6159 26.4448 24.6496 25.3301V27.6201C24.6496 28.5701 21.9996 30.0001 17.9996 30.0001C13.9996 30.0001 11.3496 28.5701 11.3496 27.6201V15.2301C11.3496 14.2801 13.9996 12.8501 17.9996 12.8501C21.9996 12.8501 24.6496 14.2801 24.6496 15.2301V18.5201Z" fill="#01070E"/>
</svg>
