<svg width="36" height="36" viewBox="0 0 36 36" fill="none" xmlns="http://www.w3.org/2000/svg">
<path d="M4 18.2398V7.90982C4 7.25982 6.09 6.06982 9.5 6.06982C12.91 6.06982 15 7.26982 15 7.90982V9.69982C15.6626 9.59745 16.3302 9.53068 17 9.49982V7.90982C17 5.38982 13.23 4.06982 9.5 4.06982C5.77 4.06982 2 5.39982 2 7.90982V18.2398C2 20.3998 4.77 21.6698 7.9 21.9998V19.9998C5.46 19.6798 4 18.7798 4 18.2398Z" fill="#01070E"/>
<path d="M24.6494 18.5201C23.7994 19.5201 21.2294 20.5201 17.9994 20.5201C16.6483 20.5341 15.3019 20.3591 13.9994 20.0001V21.4601C15.3082 21.7812 16.6518 21.9391 17.9994 21.9301C20.3166 22.0241 22.6157 21.4848 24.6494 20.3701V23.4901C23.7994 24.4901 21.2294 25.4901 17.9994 25.4901C16.6478 25.5008 15.3015 25.3225 13.9994 24.9601V26.4201C15.3082 26.7412 16.6518 26.8991 17.9994 26.8901C20.3166 26.9841 22.6157 26.4448 24.6494 25.3301V27.6201C24.6494 28.5701 21.9994 30.0001 17.9994 30.0001C13.9994 30.0001 11.3494 28.5701 11.3494 27.6201V15.2301C11.3494 14.2801 13.9994 12.8501 17.9994 12.8501H18.7494C18.539 12.2035 18.5113 11.5114 18.6694 10.8501H18.0094C13.0794 10.8501 9.35938 12.7301 9.35938 15.2301V27.5401C9.35938 30.0401 13.0794 31.9201 18.0094 31.9201C22.9394 31.9201 26.6594 30.0401 26.6594 27.5401V15.4001H24.6594L24.6494 18.5201Z" fill="#01070E"/>
<path d="M22 4.7998C20.25 5.4298 19 6.4798 19 7.9198V9.4998H19.25L22 4.7998Z" fill="#01070E"/>
<path d="M33.6796 15.3999H31.9996V18.2399C31.9996 18.7799 30.5396 19.6799 28.0996 19.9699V21.9699C31.2296 21.6499 33.9996 20.3699 33.9996 18.2199V15.3799L33.6796 15.3999Z" fill="#01070E"/>
<path d="M26.8504 1.13981L21.1304 10.9998C20.9973 11.1951 20.9209 11.4235 20.9097 11.6596C20.8984 11.8957 20.9527 12.1303 21.0666 12.3374C21.1806 12.5445 21.3496 12.716 21.555 12.8329C21.7604 12.9498 21.9942 13.0076 22.2304 12.9998H33.6804C33.9166 13.0076 34.1504 12.9498 34.3558 12.8329C34.5612 12.716 34.7302 12.5445 34.8441 12.3374C34.958 12.1303 35.0123 11.8957 35.0011 11.6596C34.9898 11.4235 34.9135 11.1951 34.7804 10.9998L29.0604 1.13981C28.9476 0.946869 28.7862 0.786825 28.5923 0.675603C28.3985 0.564381 28.1789 0.505859 27.9554 0.505859C27.7319 0.505859 27.5123 0.564381 27.3184 0.675603C27.1245 0.786825 26.9632 0.946869 26.8504 1.13981Z" fill="#01070E"/>
</svg>
