<svg width="36" height="36" viewBox="0 0 36 36" fill="none" xmlns="http://www.w3.org/2000/svg">
<path d="M32.9996 2H22.0996C21.8344 2 21.58 2.10536 21.3925 2.29289C21.205 2.48043 21.0996 2.73478 21.0996 3C21.0996 3.26522 21.205 3.51957 21.3925 3.70711C21.58 3.89464 21.8344 4 22.0996 4H30.6296L21.8096 13C21.7177 13.0939 21.6452 13.205 21.5962 13.3269C21.5472 13.4488 21.5227 13.5792 21.5241 13.7106C21.5254 13.842 21.5527 13.9718 21.6043 14.0927C21.6558 14.2136 21.7307 14.3231 21.8246 14.415C21.9185 14.5069 22.0296 14.5795 22.1515 14.6285C22.2734 14.6774 22.4038 14.7019 22.5352 14.7006C22.6666 14.6992 22.7964 14.6719 22.9173 14.6203C23.0382 14.5688 23.1477 14.4939 23.2396 14.4L31.9996 5.46V13.9C31.9996 14.1652 32.105 14.4196 32.2925 14.6071C32.48 14.7946 32.7344 14.9 32.9996 14.9C33.2648 14.9 33.5192 14.7946 33.7067 14.6071C33.8943 14.4196 33.9996 14.1652 33.9996 13.9V3C33.9996 2.73478 33.8943 2.48043 33.7067 2.29289C33.5192 2.10536 33.2648 2 32.9996 2Z" fill="#01070E"/>
<path d="M11.5391 10.7302L2.53907 15.9002C2.38647 15.9883 2.25985 16.1151 2.17205 16.2679C2.08425 16.4207 2.03837 16.594 2.03907 16.7702V27.7702C2.03837 27.9464 2.08425 28.1196 2.17205 28.2724C2.25985 28.4252 2.38647 28.5521 2.53907 28.6402L11.5391 33.7902C11.6911 33.8779 11.8635 33.9241 12.0391 33.9241C12.2146 33.9241 12.3871 33.8779 12.5391 33.7902L21.5391 28.6402C21.6917 28.5521 21.8183 28.4252 21.9061 28.2724C21.9939 28.1196 22.0398 27.9464 22.0391 27.7702V16.7702C22.0398 16.594 21.9939 16.4207 21.9061 16.2679C21.8183 16.1151 21.6917 15.9883 21.5391 15.9002L12.5391 10.7302C12.3871 10.6424 12.2146 10.5962 12.0391 10.5962C11.8635 10.5962 11.6911 10.6424 11.5391 10.7302ZM10.9991 31.0802L3.99907 27.0802V18.4402L10.9991 22.4402V31.0802ZM11.9991 21.0002L4.80907 16.8702L11.9991 12.7802L19.2091 16.9002L11.9991 21.0002ZM19.9991 27.0902L12.9991 31.0902V22.4402L19.9991 18.4402V27.0902Z" fill="#01070E"/>
</svg>
