<svg width="36" height="36" viewBox="0 0 36 36" fill="none" xmlns="http://www.w3.org/2000/svg">
<path d="M32 13H24C23.4696 13 22.9609 13.2107 22.5858 13.5858C22.2107 13.9609 22 14.4696 22 15V30C22 30.5304 22.2107 31.0391 22.5858 31.4142C22.9609 31.7893 23.4696 32 24 32H32C32.5304 32 33.0391 31.7893 33.4142 31.4142C33.7893 31.0391 34 30.5304 34 30V15C34 14.4696 33.7893 13.9609 33.4142 13.5858C33.0391 13.2107 32.5304 13 32 13ZM32 15V26H24V15H32ZM24 30V27.6H32V30H24Z" fill="#01070E"/>
<path d="M20 22H4V6H28V11H30V6C30 5.46957 29.7893 4.96086 29.4142 4.58579C29.0391 4.21071 28.5304 4 28 4H4C3.46957 4 2.96086 4.21071 2.58579 4.58579C2.21071 4.96086 2 5.46957 2 6V22C2 22.5304 2.21071 23.0391 2.58579 23.4142C2.96086 23.7893 3.46957 24 4 24H20V22Z" fill="#01070E"/>
<path d="M20 26H9C8.73478 26 8.48043 26.1054 8.29289 26.2929C8.10536 26.4804 8 26.7348 8 27C8 27.2652 8.10536 27.5196 8.29289 27.7071C8.48043 27.8946 8.73478 28 9 28H20V26Z" fill="#01070E"/>
</svg>
