<svg width="36" height="36" viewBox="0 0 36 36" fill="none" xmlns="http://www.w3.org/2000/svg">
<path d="M17.0001 33.9002C13.1001 33.9002 9.10008 32.4002 6.50008 29.4002C5.60008 30.1002 4.50008 30.7002 3.40008 31.2002C2.90008 31.4002 2.30008 31.2002 2.10008 30.7002C1.90008 30.2002 2.10008 29.6002 2.60008 29.4002C3.60008 29.0002 4.50008 28.5002 5.30008 27.9002C4.10008 26.0002 3.40008 23.6002 3.40008 20.8002C3.40008 15.5002 5.90008 12.7002 8.20008 12.7002C9.70008 12.7002 11.4001 13.9002 11.4001 17.4002C11.4001 22.1002 10.3001 25.6002 7.90008 28.2002C10.1001 30.8002 13.5001 32.1002 16.9001 32.1002C17.5001 32.1002 17.9001 32.5002 17.9001 33.1002C17.9001 33.7002 17.6001 33.9002 17.0001 33.9002ZM8.20008 14.6002C7.20008 14.6002 5.40008 16.4002 5.40008 20.7002C5.40008 22.9002 5.90008 24.8002 6.80008 26.3002C8.60008 24.2002 9.50008 21.2002 9.50008 17.2002C9.50008 15.7002 9.00008 14.6002 8.20008 14.6002Z" fill="#01070E"/>
<path d="M33.3004 4.80012C32.5004 3.40012 31.2004 2.40012 29.7004 2.00012C29.2004 1.90012 28.6004 2.20012 28.5004 2.70012L27.6004 6.10012L26.0004 3.30012C25.9004 3.10012 25.6004 2.90012 25.3004 2.80012C25.0004 2.70012 24.7004 2.80012 24.5004 3.00012C23.4004 3.80012 22.7004 4.90012 22.3004 6.20012L18.1004 21.6001C17.7004 23.1001 17.9004 24.8001 18.7004 26.2001C19.3004 27.3001 20.3004 28.1001 21.4004 28.7001L20.3004 32.7001C20.2004 33.2001 20.5004 33.8001 21.0004 33.9001C21.1004 33.9001 21.2004 33.9001 21.3004 33.9001C21.7004 33.9001 22.1004 33.6001 22.3004 33.2001L23.4004 29.3001C23.6004 29.3001 23.8004 29.3001 24.0004 29.3001C25.0004 29.3001 26.0004 29.0001 27.0004 28.5001C28.4004 27.7001 29.4004 26.4001 29.8004 24.9001L31.4004 19.1001L33.0004 13.3001C33.1004 12.9001 33.0004 12.5001 32.6004 12.2001C32.3004 12.0001 31.8004 11.9001 31.5004 12.1001L27.5004 14.4001L28.1004 12.3001L33.8004 9.10012C34.1004 8.90012 34.3004 8.60012 34.3004 8.30012C34.2004 7.10012 33.9004 5.90012 33.3004 4.80012ZM24.2004 6.80012C24.3004 6.30012 24.5004 5.90012 24.8004 5.50012L26.7004 8.90012L25.3004 14.0001L23.2004 10.3001L24.2004 6.80012ZM20.4004 25.2001C19.9004 24.3001 19.7004 23.2001 20.0004 22.2001L22.5004 13.0001L24.6004 16.7001L23.2004 22.0001L21.9004 26.7001C21.3004 26.4001 20.8004 25.9001 20.4004 25.2001ZM27.7004 24.3001C27.4004 25.3001 26.8004 26.2001 25.8004 26.7001C25.2004 27.1001 24.5004 27.2001 23.8004 27.2001L25.0004 23.0001L28.7004 20.9001L27.7004 24.3001ZM30.3004 15.1001L29.5004 18.2001L25.8004 20.3001L26.6004 17.2001L30.3004 15.1001ZM28.6004 9.60012L28.7004 9.20012C28.8004 9.10012 28.8004 8.90012 28.8004 8.80012L30.0004 4.30012C30.6004 4.60012 31.1004 5.20012 31.5004 5.80012C31.8004 6.40012 32.0004 7.00012 32.0004 7.60012L28.6004 9.60012Z" fill="#01070E"/>
</svg>
