<svg width="36" height="36" viewBox="0 0 36 36" fill="none" xmlns="http://www.w3.org/2000/svg">
<path d="M30 15.4V29H6V13H13.31C13.8404 13 14.3491 12.7893 14.7242 12.4142C15.0993 12.0391 15.31 11.5304 15.31 11H6V7.00001H12.49L15.1 10.59C15.1931 10.7174 15.315 10.821 15.4558 10.8922C15.5966 10.9635 15.7522 11.0004 15.91 11H18.64C18.6999 10.6131 18.8214 10.2384 19 9.89001L19.56 9.00001H16.42L14.11 5.82001C13.9238 5.56521 13.68 5.35809 13.3984 5.21557C13.1169 5.07306 12.8056 4.99919 12.49 5.00001H6C5.46957 5.00001 4.96086 5.21072 4.58579 5.58579C4.21071 5.96087 4 6.46957 4 7.00001V29C4 29.5304 4.21071 30.0391 4.58579 30.4142C4.96086 30.7893 5.46957 31 6 31H30C30.5304 31 31.0391 30.7893 31.4142 30.4142C31.7893 30.0391 32 29.5304 32 29V15.4H30Z" fill="#01070E"/>
<path d="M26.8504 1.13981L21.1304 10.9998C20.9973 11.1951 20.9209 11.4235 20.9097 11.6596C20.8984 11.8957 20.9527 12.1303 21.0666 12.3374C21.1806 12.5445 21.3496 12.716 21.555 12.8329C21.7604 12.9498 21.9942 13.0076 22.2304 12.9998H33.6804C33.9166 13.0076 34.1504 12.9498 34.3558 12.8329C34.5612 12.716 34.7302 12.5445 34.8441 12.3374C34.958 12.1303 35.0123 11.8957 35.0011 11.6596C34.9898 11.4235 34.9135 11.1951 34.7804 10.9998L29.0604 1.13981C28.9476 0.946869 28.7862 0.786825 28.5923 0.675603C28.3985 0.564381 28.1789 0.505859 27.9554 0.505859C27.7319 0.505859 27.5123 0.564381 27.3184 0.675603C27.1245 0.786825 26.9632 0.946869 26.8504 1.13981Z" fill="#01070E"/>
</svg>
