<svg width="36" height="36" viewBox="0 0 36 36" fill="none" xmlns="http://www.w3.org/2000/svg">
<path d="M12.1709 6.00001C10.7204 5.98158 9.30916 6.47152 8.18214 7.38483C7.05512 8.29813 6.28339 9.57717 6.00086 11H2.13086V13H6.00086C6.28823 14.4279 7.06682 15.71 8.20132 16.6234C9.33583 17.5369 10.7545 18.024 12.2109 18H17.0009V6.00001H12.1709ZM15.1009 16H12.1709C11.0719 16.03 10.0049 15.6279 9.1991 14.8801C8.39327 14.1322 7.9128 13.0982 7.86086 12C7.90512 10.8991 8.38326 9.86052 9.19083 9.11104C9.99839 8.36156 11.0697 7.96213 12.1709 8.00001H15.1009V16Z" fill="#01070E"/>
<path d="M33.92 23.0001H30.14C29.849 21.574 29.0695 20.2941 27.9358 19.3813C26.8021 18.4685 25.3854 17.98 23.93 18.0001H19V20.0001H14C13.7348 20.0001 13.4804 20.1055 13.2929 20.293C13.1054 20.4805 13 20.7349 13 21.0001C13 21.2653 13.1054 21.5197 13.2929 21.7072C13.4804 21.8948 13.7348 22.0001 14 22.0001H19V26.0001H14C13.7348 26.0001 13.4804 26.1055 13.2929 26.293C13.1054 26.4805 13 26.7349 13 27.0001C13 27.2653 13.1054 27.5197 13.2929 27.7072C13.4804 27.8947 13.7348 28.0001 14 28.0001H19V30.0001H23.94C25.398 30.0264 26.8191 29.5404 27.9557 28.6268C29.0923 27.7131 29.8723 26.4297 30.16 25.0001H33.92V23.0001ZM23.92 28.0001H21V20.0001H23.94C25.0411 19.9622 26.1125 20.3617 26.92 21.1111C27.7276 21.8606 28.2057 22.8992 28.25 24.0001C28.2057 25.101 27.7276 26.1396 26.92 26.8891C26.1125 27.6386 25.0411 28.038 23.94 28.0001H23.92Z" fill="#01070E"/>
</svg>
