<svg width="36" height="36" viewBox="0 0 36 36" fill="none" xmlns="http://www.w3.org/2000/svg">
<path d="M25.9995 31.9999H24.2595C23.847 31.7082 23.5004 31.3331 23.242 30.8991C22.9836 30.465 22.8192 29.9815 22.7595 29.4799V28.1299H21.2395V29.4999C21.2696 30.4121 21.596 31.2897 22.1695 31.9999H13.8295C14.407 31.2843 14.7337 30.399 14.7595 29.4799V28.1299H13.2395V29.4999C13.177 29.998 13.0113 30.4776 12.7531 30.908C12.4948 31.3385 12.1496 31.7104 11.7395 31.9999H9.93945C9.67424 31.9999 9.41988 32.1052 9.23235 32.2928C9.04481 32.4803 8.93945 32.7347 8.93945 32.9999C8.93945 33.2651 9.04481 33.5195 9.23235 33.707C9.41988 33.8945 9.67424 33.9999 9.93945 33.9999H26.0595C26.1938 34.0122 26.3293 33.9948 26.4562 33.9489C26.5831 33.9029 26.6984 33.8297 26.7938 33.7342C26.8892 33.6388 26.9625 33.5236 27.0084 33.3967C27.0543 33.2697 27.0717 33.1343 27.0595 32.9999C27.0597 32.8634 27.032 32.7282 26.978 32.6028C26.9241 32.4774 26.845 32.3644 26.7457 32.2707C26.6464 32.177 26.5289 32.1046 26.4006 32.0581C26.2723 32.0115 26.1357 31.9917 25.9995 31.9999Z" fill="#01070E"/>
<path d="M33.68 15.4H32V25H4V5H21.87L23 3H3.5C3.10218 3 2.72064 3.15804 2.43934 3.43934C2.15804 3.72064 2 4.10218 2 4.5V25.5C2 25.8978 2.15804 26.2794 2.43934 26.5607C2.72064 26.842 3.10218 27 3.5 27H32.5C32.8978 27 33.2794 26.842 33.5607 26.5607C33.842 26.2794 34 25.8978 34 25.5V15.38L33.68 15.4Z" fill="#01070E"/>
<path d="M7.69961 23.0002V8.76016H19.6996L20.6196 7.16016H6.09961V23.0002H7.69961Z" fill="#01070E"/>
<path d="M26.8504 1.13981L21.1304 10.9998C20.9973 11.1951 20.9209 11.4235 20.9097 11.6596C20.8984 11.8957 20.9527 12.1303 21.0666 12.3374C21.1806 12.5445 21.3496 12.716 21.555 12.8329C21.7604 12.9498 21.9942 13.0076 22.2304 12.9998H33.6804C33.9166 13.0076 34.1504 12.9498 34.3558 12.8329C34.5612 12.716 34.7302 12.5445 34.8441 12.3374C34.958 12.1303 35.0123 11.8957 35.0011 11.6596C34.9898 11.4235 34.9135 11.1951 34.7804 10.9998L29.0604 1.13981C28.9476 0.946869 28.7862 0.786825 28.5923 0.675603C28.3985 0.564381 28.1789 0.505859 27.9554 0.505859C27.7319 0.505859 27.5123 0.564381 27.3184 0.675603C27.1245 0.786825 26.9632 0.946869 26.8504 1.13981Z" fill="#01070E"/>
</svg>
