<svg width="36" height="36" viewBox="0 0 36 36" fill="none" xmlns="http://www.w3.org/2000/svg">
<path d="M8.88063 13.07C8.68504 13.0717 8.49421 13.0097 8.33702 12.8933C8.17983 12.7769 8.06485 12.6124 8.00948 12.4248C7.9541 12.2372 7.96135 12.0367 8.03012 11.8536C8.0989 11.6705 8.22545 11.5148 8.39063 11.41L17.3206 5.68C17.4204 5.61434 17.5322 5.56898 17.6495 5.54651C17.7669 5.52404 17.8875 5.5249 18.0045 5.54904C18.1215 5.57319 18.2326 5.62014 18.3314 5.68722C18.4303 5.7543 18.515 5.84019 18.5806 5.94C18.6463 6.0398 18.6917 6.15156 18.7141 6.2689C18.7366 6.38623 18.7357 6.50684 18.7116 6.62385C18.6874 6.74085 18.6405 6.85195 18.5734 6.95081C18.5063 7.04966 18.4204 7.13434 18.3206 7.2L9.37063 12.92C9.22529 13.0164 9.05505 13.0685 8.88063 13.07Z" fill="#01070E"/>
<path d="M13.2498 15.1099C13.0542 15.1116 12.8633 15.0496 12.7062 14.9332C12.549 14.8168 12.434 14.6523 12.3786 14.4647C12.3232 14.2771 12.3305 14.0766 12.3993 13.8935C12.468 13.7104 12.5946 13.5547 12.7598 13.4499L17.9998 10.0799C18.0996 10.0142 18.2113 9.96888 18.3287 9.94641C18.446 9.92394 18.5666 9.9248 18.6836 9.94895C18.8006 9.97309 18.9117 10.02 19.0106 10.0871C19.1094 10.1542 19.1941 10.2401 19.2598 10.3399C19.3254 10.4397 19.3708 10.5515 19.3933 10.6688C19.4157 10.7861 19.4149 10.9067 19.3907 11.0237C19.3666 11.1408 19.3196 11.2519 19.2526 11.3507C19.1855 11.4496 19.0996 11.5342 18.9998 11.5999L13.7398 14.9999C13.5902 15.0823 13.4202 15.1205 13.2498 15.1099Z" fill="#01070E"/>
<path d="M19.7205 30.2302C19.5249 30.2319 19.3341 30.1699 19.1769 30.0534C19.0197 29.937 18.9047 29.7726 18.8493 29.585C18.7939 29.3974 18.8012 29.1969 18.87 29.0137C18.9387 28.8306 19.0653 28.6749 19.2305 28.5702L28.1605 22.8402C28.362 22.7076 28.608 22.6604 28.8443 22.7092C29.0806 22.758 29.2879 22.8986 29.4205 23.1002C29.5531 23.3017 29.6002 23.5477 29.5514 23.784C29.5027 24.0203 29.362 24.2276 29.1605 24.3602L20.2005 30.0902C20.0569 30.1812 19.8905 30.2298 19.7205 30.2302Z" fill="#01070E"/>
<path d="M18.9197 25.9398C18.7241 25.9416 18.5333 25.8795 18.3761 25.7631C18.2189 25.6467 18.1039 25.4823 18.0485 25.2947C17.9932 25.1071 18.0004 24.9065 18.0692 24.7234C18.138 24.5403 18.2645 24.3846 18.4297 24.2798L23.6797 20.9098C23.8799 20.7772 24.1246 20.7296 24.36 20.7774C24.5954 20.8252 24.8021 20.9646 24.9347 21.1648C25.0673 21.3651 25.1149 21.6098 25.0671 21.8451C25.0193 22.0805 24.8799 22.2872 24.6797 22.4198L19.3997 25.7998C19.2564 25.8914 19.0898 25.94 18.9197 25.9398Z" fill="#01070E"/>
<path d="M21.5598 5.69023C21.887 6.21576 22.0728 6.81698 22.0991 7.4355C22.1254 8.05403 21.9913 8.66884 21.7098 9.22023L18.8298 15.0002H21.0798L23.5098 10.1302C23.9417 9.27549 24.1475 8.32441 24.1078 7.36757C24.0681 6.41073 23.7841 5.47999 23.2829 4.66398C22.7816 3.84796 22.0798 3.17385 21.2443 2.70582C20.4088 2.2378 19.4674 1.99145 18.5098 1.99023H13.2598L12.2598 3.99023H18.4798C19.0955 3.9874 19.7018 4.14211 20.2409 4.43966C20.78 4.73721 21.234 5.16772 21.5598 5.69023Z" fill="#01070E"/>
<path d="M32.9099 20.7799C32.5424 19.6784 31.8376 18.7206 30.8953 18.0421C29.953 17.3637 28.821 16.999 27.6599 16.9999H9.30987C8.83216 17.0029 8.35879 16.9092 7.91826 16.7245C7.47772 16.5397 7.07915 16.2677 6.74653 15.9248C6.41391 15.5819 6.15414 15.1752 5.98285 14.7293C5.81157 14.2833 5.73232 13.8073 5.74987 13.3299C5.7732 12.7917 5.91671 12.2655 6.16987 11.7899L10.4299 3.29991C10.5492 3.06254 10.5694 2.78748 10.4859 2.53524C10.4025 2.28301 10.2222 2.07425 9.98487 1.95491C9.7475 1.83556 9.47244 1.81539 9.22021 1.89885C8.96797 1.9823 8.75922 2.16254 8.63987 2.39991L4.39987 10.8399C4.04483 11.5065 3.82656 12.2374 3.75787 12.9895C3.68918 13.7417 3.77146 14.5 3.99987 15.2199C4.36892 16.3263 5.07831 17.2876 6.02662 17.9665C6.97493 18.6454 8.11361 19.0071 9.27987 18.9999H16.8799L13.4399 25.8699C12.862 27.0212 12.6957 28.3357 12.9686 29.5946C13.2415 30.8536 13.9372 31.9812 14.9399 32.7899C15.9187 33.588 17.147 34.0164 18.4099 33.9999H23.6599L24.6599 31.9999H18.4299C17.8141 32.0055 17.2073 31.8522 16.6682 31.5548C16.129 31.2574 15.6756 30.826 15.3519 30.3022C15.0281 29.7784 14.845 29.1799 14.8201 28.5647C14.7952 27.9494 14.9295 27.3381 15.2099 26.7899L19.1099 18.9999H27.6499C28.4264 18.9856 29.1846 19.236 29.7999 19.7099C30.4547 20.2175 30.9127 20.9371 31.0951 21.7454C31.2776 22.5536 31.1732 23.4002 30.7999 24.1399L26.6799 32.3599C26.5605 32.5973 26.5404 32.8723 26.6238 33.1246C26.7073 33.3768 26.8875 33.5856 27.1249 33.7049C27.3622 33.8243 27.6373 33.8444 27.8895 33.761C28.1418 33.6775 28.3505 33.4973 28.4699 33.2599L32.5299 25.1599C32.8816 24.4919 33.0964 23.7604 33.1617 23.0082C33.2269 22.2561 33.1413 21.4985 32.9099 20.7799Z" fill="#01070E"/>
</svg>
