<svg width="36" height="36" viewBox="0 0 36 36" fill="none" xmlns="http://www.w3.org/2000/svg">
<path d="M21.8902 4H7.83025C7.33512 4.01311 6.86517 4.22107 6.52251 4.57871C6.17986 4.93635 5.99217 5.41477 6.00025 5.91V30.09C5.99217 30.5852 6.17986 31.0636 6.52251 31.4213C6.86517 31.7789 7.33512 31.9869 7.83025 32H28.1702C28.6654 31.9869 29.1353 31.7789 29.478 31.4213C29.8206 31.0636 30.0083 30.5852 30.0002 30.09V11.92L21.8902 4ZM21.5903 6.49L27.5903 12.39H21.5903V6.49ZM8.00025 30V6H20.0002V14H28.0002V30H8.00025Z" fill="#01070E"/>
</svg>
