<svg width="36" height="36" viewBox="0 0 36 36" fill="none" xmlns="http://www.w3.org/2000/svg">
<path d="M28.0002 15.4V30H8.00025V6H20.0002V8.25L22.2502 4.35L21.8902 4H7.83025C7.33512 4.01311 6.86517 4.22107 6.52251 4.57871C6.17986 4.93635 5.99217 5.41477 6.00025 5.91V30.09C5.99217 30.5852 6.17986 31.0636 6.52251 31.4213C6.86517 31.7789 7.33512 31.9869 7.83025 32H28.1702C28.6654 31.9869 29.1353 31.7789 29.478 31.4213C29.8206 31.0636 30.0083 30.5852 30.0002 30.09V15.4H28.0002Z" fill="#01070E"/>
<path d="M26.8504 1.13981L21.1304 10.9998C20.9973 11.1951 20.9209 11.4235 20.9097 11.6596C20.8984 11.8957 20.9527 12.1303 21.0666 12.3374C21.1806 12.5445 21.3496 12.716 21.555 12.8329C21.7604 12.9498 21.9942 13.0076 22.2304 12.9998H33.6804C33.9166 13.0076 34.1504 12.9498 34.3558 12.8329C34.5612 12.716 34.7302 12.5445 34.8441 12.3374C34.958 12.1303 35.0123 11.8957 35.0011 11.6596C34.9898 11.4235 34.9135 11.1951 34.7804 10.9998L29.0604 1.13981C28.9476 0.946869 28.7862 0.786825 28.5923 0.675603C28.3985 0.564381 28.1789 0.505859 27.9554 0.505859C27.7319 0.505859 27.5123 0.564381 27.3184 0.675603C27.1245 0.786825 26.9632 0.946869 26.8504 1.13981Z" fill="#01070E"/>
</svg>
