<svg width="36" height="36" viewBox="0 0 36 36" fill="none" xmlns="http://www.w3.org/2000/svg">
<path d="M32 8H4C3.46957 8 2.96086 8.21071 2.58579 8.58579C2.21071 8.96086 2 9.46957 2 10V26C2 26.5304 2.21071 27.0391 2.58579 27.4142C2.96086 27.7893 3.46957 28 4 28H32C32.5304 28 33.0391 27.7893 33.4142 27.4142C33.7893 27.0391 34 26.5304 34 26V10C34 9.46957 33.7893 8.96086 33.4142 8.58579C33.0391 8.21071 32.5304 8 32 8ZM32 14C30.9764 13.917 30.0174 13.4662 29.3004 12.7308C28.5835 11.9955 28.1571 11.0254 28.1 10H32V14ZM32 15.62V20.45C30.5601 20.5365 29.2024 21.1501 28.1861 22.1738C27.1698 23.1975 26.566 24.5595 26.49 26H9.49C9.41681 24.561 8.81689 23.1991 7.8045 22.1738C6.79212 21.1485 5.43799 20.5314 4 20.44V15.6C5.44809 15.5124 6.81246 14.8918 7.82993 13.8577C8.84741 12.8236 9.44592 11.4493 9.51 10H26.51C26.5736 11.4461 27.1693 12.8177 28.1826 13.8513C29.196 14.8849 30.5555 15.5077 32 15.6V15.62ZM7.9 10C7.84295 11.0254 7.41651 11.9955 6.69956 12.7308C5.98261 13.4662 5.02364 13.917 4 14V10H7.9ZM4 22.06C5.014 22.1413 5.96521 22.5836 6.68085 23.3066C7.39648 24.0295 7.82905 24.9852 7.9 26H4V22.06ZM28.1 26C28.1709 24.9852 28.6035 24.0295 29.3192 23.3066C30.0348 22.5836 30.986 22.1413 32 22.06V26H28.1Z" fill="#01070E"/>
<path d="M17.9992 10.8501C14.5292 10.8501 11.6992 14.0601 11.6992 18.0001C11.6992 21.9401 14.5292 25.1501 17.9992 25.1501C21.4692 25.1501 24.2992 21.9401 24.2992 18.0001C24.2992 14.0601 21.4692 10.8501 17.9992 10.8501ZM17.9992 23.5401C15.4092 23.5401 13.2992 21.0501 13.2992 17.9901C13.2992 14.9301 15.4092 12.4401 17.9992 12.4401C20.5892 12.4401 22.6992 14.9301 22.6992 17.9901C22.6992 21.0501 20.5892 23.5501 17.9992 23.5501V23.5401Z" fill="#01070E"/>
</svg>
