<svg width="36" height="36" viewBox="0 0 36 36" fill="none" xmlns="http://www.w3.org/2000/svg">
<path d="M30.3103 13C30.3103 12.9 30.3103 12.79 30.3103 12.68C30.2421 9.97103 29.105 7.39901 27.1471 5.52546C25.1893 3.65191 22.5697 2.629 19.8603 2.68005C17.8425 2.66358 15.8629 3.23057 14.1598 4.31277C12.4566 5.39498 11.1025 6.9463 10.2603 8.78004C7.85956 9.06409 5.65285 10.2389 4.07678 12.072C2.50072 13.9052 1.67013 16.2631 1.74933 18.6793C1.82852 21.0956 2.81175 23.3941 4.50448 25.1201C6.1972 26.8461 8.47611 27.8738 10.8903 28C10.6616 27.353 10.6616 26.6471 10.8903 26C8.9627 25.8471 7.16451 24.9699 5.8575 23.5448C4.55049 22.1197 3.83165 20.2525 3.84558 18.3189C3.85952 16.3852 4.60521 14.5286 5.93263 13.1225C7.26004 11.7164 9.0707 10.8652 11.0003 10.74H11.6703L11.9003 10.11C12.5205 8.49918 13.6203 7.11753 15.051 6.1518C16.4817 5.18607 18.1744 4.68282 19.9003 4.71004C22.0794 4.65885 24.1903 5.47101 25.7732 6.96953C27.356 8.46805 28.2823 10.5315 28.3503 12.71C28.3641 12.9765 28.3641 13.2436 28.3503 13.51L28.2703 14.23L28.9203 14.53C30.1775 15.0964 31.2012 16.0785 31.8193 17.3111C32.4373 18.5437 32.612 19.9515 32.3139 21.2978C32.0158 22.644 31.2631 23.8465 30.1824 24.7029C29.1017 25.5593 27.7591 26.0174 26.3803 26H25.0903C25.3191 26.6471 25.3191 27.353 25.0903 28H26.3703C28.1488 28.0128 29.8808 27.4326 31.2927 26.351C32.7046 25.2695 33.7158 23.7483 34.1665 22.0278C34.6173 20.3074 34.4819 18.4858 33.7817 16.8509C33.0816 15.216 31.8566 13.861 30.3003 13H30.3103Z" fill="#01070E"/>
<path d="M22.2801 26.0702C22.1484 26.0694 22.018 26.0946 21.8961 26.1444C21.7743 26.1942 21.6635 26.2675 21.5701 26.3602L19.0001 28.9402V16.6802C19.0001 16.415 18.8947 16.1606 18.7072 15.9731C18.5196 15.7855 18.2653 15.6802 18.0001 15.6802C17.7348 15.6802 17.4805 15.7855 17.2929 15.9731C17.1054 16.1606 17.0001 16.415 17.0001 16.6802V28.9402L14.4301 26.3702C14.2431 26.1805 13.9884 26.073 13.7221 26.0711C13.4558 26.0692 13.1997 26.1732 13.0101 26.3602C12.8204 26.5472 12.7128 26.8018 12.711 27.0681C12.7091 27.3344 12.8131 27.5905 13.0001 27.7802L18.0001 32.7802L23.0001 27.7802C23.1411 27.6403 23.2373 27.4616 23.2763 27.2669C23.3154 27.0721 23.2956 26.8701 23.2194 26.6867C23.1433 26.5032 23.0142 26.3466 22.8487 26.2368C22.6831 26.127 22.4887 26.069 22.2901 26.0702H22.2801Z" fill="#01070E"/>
</svg>
