<svg width="36" height="36" viewBox="0 0 36 36" fill="none" xmlns="http://www.w3.org/2000/svg">
<path d="M22.2801 26.0702C22.1484 26.0694 22.018 26.0946 21.8961 26.1444C21.7743 26.1942 21.6635 26.2675 21.5701 26.3602L19.0001 28.9402V16.6802C19.0001 16.415 18.8947 16.1606 18.7072 15.9731C18.5196 15.7855 18.2653 15.6802 18.0001 15.6802C17.7348 15.6802 17.4805 15.7855 17.2929 15.9731C17.1054 16.1606 17.0001 16.415 17.0001 16.6802V28.9402L14.4301 26.3702C14.2431 26.1805 13.9884 26.073 13.7221 26.0711C13.4558 26.0692 13.1997 26.1732 13.0101 26.3602C12.8204 26.5472 12.7128 26.8018 12.711 27.0681C12.7091 27.3344 12.8131 27.5905 13.0001 27.7802L18.0001 32.7802L23.0001 27.7802C23.1411 27.6403 23.2373 27.4616 23.2763 27.2669C23.3154 27.0721 23.2956 26.8701 23.2194 26.6867C23.1433 26.5032 23.0142 26.3466 22.8487 26.2368C22.6831 26.127 22.4887 26.069 22.2901 26.0702H22.2801Z" fill="#01070E"/>
<path d="M19.8708 4.6898C20.5448 4.69635 21.2159 4.78023 21.8708 4.9398L22.8708 3.1398C21.8744 2.84282 20.8404 2.69125 19.8008 2.6898C17.783 2.67334 15.8034 3.24032 14.1002 4.32253C12.3971 5.40474 11.0429 6.95605 10.2008 8.7898C7.81009 9.0917 5.61885 10.2771 4.05796 12.1129C2.49708 13.9487 1.67949 16.302 1.76599 18.7102C1.85249 21.1183 2.8368 23.4069 4.52538 25.126C6.21395 26.8451 8.48459 27.8702 10.8908 27.9998C10.662 27.3528 10.662 26.6468 10.8908 25.9998C8.96315 25.8469 7.16495 24.9696 5.85794 23.5445C4.55093 22.1194 3.83209 20.2523 3.84603 18.3186C3.85997 16.385 4.60565 14.5284 5.93307 13.1223C7.26049 11.7162 9.07114 10.8649 11.0008 10.7398H11.6708L11.9008 10.1098C12.516 8.50005 13.6098 7.11751 15.0348 6.14843C16.4598 5.17935 18.1476 4.67028 19.8708 4.6898Z" fill="#01070E"/>
<path d="M32.8998 15.3999H30.2098C31.1528 16.1896 31.8303 17.2499 32.1506 18.4374C32.4709 19.6249 32.4185 20.8821 32.0006 22.0389C31.5826 23.1956 30.8193 24.1959 29.8139 24.9044C28.8086 25.6129 27.6098 25.9953 26.3798 25.9999H25.0898C25.3186 26.6469 25.3186 27.3529 25.0898 27.9999H26.3698C27.8333 27.9971 29.2679 27.593 30.5175 26.8315C31.7672 26.07 32.7841 24.9803 33.4574 23.681C34.1308 22.3817 34.4349 20.9226 34.3366 19.4625C34.2382 18.0024 33.7413 16.5972 32.8998 15.3999Z" fill="#01070E"/>
<path d="M26.8504 1.13981L21.1304 10.9998C20.9973 11.1951 20.9209 11.4235 20.9097 11.6596C20.8984 11.8957 20.9527 12.1303 21.0666 12.3374C21.1806 12.5445 21.3496 12.716 21.555 12.8329C21.7604 12.9498 21.9942 13.0076 22.2304 12.9998H33.6804C33.9166 13.0076 34.1504 12.9498 34.3558 12.8329C34.5612 12.716 34.7302 12.5445 34.8441 12.3374C34.958 12.1303 35.0123 11.8957 35.0011 11.6596C34.9898 11.4235 34.9135 11.1951 34.7804 10.9998L29.0604 1.13981C28.9476 0.946869 28.7862 0.786825 28.5923 0.675603C28.3985 0.564381 28.1789 0.505859 27.9554 0.505859C27.7319 0.505859 27.5123 0.564381 27.3184 0.675603C27.1245 0.786825 26.9632 0.946869 26.8504 1.13981Z" fill="#01070E"/>
</svg>
