<svg width="36" height="36" viewBox="0 0 36 36" fill="none" xmlns="http://www.w3.org/2000/svg">
<path d="M31 31H5C4.73478 31 4.48043 31.1054 4.29289 31.2929C4.10536 31.4804 4 31.7348 4 32C4 32.2652 4.10536 32.5196 4.29289 32.7071C4.48043 32.8946 4.73478 33 5 33H31C31.2652 33 31.5196 32.8946 31.7071 32.7071C31.8946 32.5196 32 32.2652 32 32C32 31.7348 31.8946 31.4804 31.7071 31.2929C31.5196 31.1054 31.2652 31 31 31Z" fill="#01070E"/>
<path d="M18.0003 29.48L28.6103 18.87C28.7742 18.6787 28.8598 18.4326 28.85 18.1809C28.8403 17.9293 28.736 17.6905 28.5579 17.5124C28.3798 17.3343 28.1411 17.23 27.8894 17.2203C27.6377 17.2106 27.3916 17.2962 27.2003 17.46L19.0003 25.65V5C19.0003 4.73478 18.895 4.48043 18.7074 4.29289C18.5199 4.10536 18.2655 4 18.0003 4C17.7351 4 17.4808 4.10536 17.2932 4.29289C17.1057 4.48043 17.0003 4.73478 17.0003 5V25.65L8.81033 17.46C8.72068 17.3553 8.61036 17.2703 8.4863 17.2103C8.36223 17.1503 8.2271 17.1165 8.08938 17.1112C7.95166 17.1059 7.81433 17.1291 7.686 17.1794C7.55768 17.2296 7.44113 17.3059 7.34367 17.4033C7.24622 17.5008 7.16996 17.6174 7.11969 17.7457C7.06941 17.874 7.04621 18.0113 7.05153 18.1491C7.05685 18.2868 7.09058 18.4219 7.1506 18.546C7.21062 18.67 7.29564 18.7804 7.40033 18.87L18.0003 29.48Z" fill="#01070E"/>
<path d="M26.8504 1.13981L21.1304 10.9998C20.9973 11.1951 20.9209 11.4235 20.9097 11.6596C20.8984 11.8957 20.9527 12.1303 21.0666 12.3374C21.1806 12.5445 21.3496 12.716 21.555 12.8329C21.7604 12.9498 21.9942 13.0076 22.2304 12.9998H33.6804C33.9166 13.0076 34.1504 12.9498 34.3558 12.8329C34.5612 12.716 34.7302 12.5445 34.8441 12.3374C34.958 12.1303 35.0123 11.8957 35.0011 11.6596C34.9898 11.4235 34.9135 11.1951 34.7804 10.9998L29.0604 1.13981C28.9476 0.946869 28.7862 0.786825 28.5923 0.675603C28.3985 0.564381 28.1789 0.505859 27.9554 0.505859C27.7319 0.505859 27.5123 0.564381 27.3184 0.675603C27.1245 0.786825 26.9632 0.946869 26.8504 1.13981Z" fill="#01070E"/>
</svg>
