<svg width="36" height="36" viewBox="0 0 36 36" fill="none" xmlns="http://www.w3.org/2000/svg">
<path d="M31 16H16V18H31V16Z" fill="#01070E"/>
<path d="M31 21H20V23H31V21Z" fill="#01070E"/>
<path d="M34 8H12.93C13.2784 8.62983 13.544 9.30207 13.72 10H33V26H3V19.9C2.26824 19.5591 1.5936 19.1071 1 18.56V27C1 27.2652 1.10536 27.5196 1.29289 27.7071C1.48043 27.8946 1.73478 28 2 28H34C34.2652 28 34.5196 27.8946 34.7071 27.7071C34.8946 27.5196 35 27.2652 35 27V9C35 8.73478 34.8946 8.48043 34.7071 8.29289C34.5196 8.10536 34.2652 8 34 8Z" fill="#01070E"/>
<path d="M6.56924 18.6799C8.16043 18.7271 9.70827 18.1574 10.8892 17.0899C11.1153 16.8684 11.2447 16.5664 11.2492 16.2499C11.2533 16.1047 11.228 15.9602 11.1749 15.8251C11.1218 15.6899 11.042 15.5668 10.9402 15.4632C10.8385 15.3595 10.7169 15.2775 10.5827 15.222C10.4485 15.1664 10.3045 15.1385 10.1592 15.1399C9.89904 15.1276 9.64431 15.2173 9.44924 15.3899C8.65312 16.053 7.64519 16.4079 6.60924 16.3899C5.75945 16.4224 4.92911 16.1305 4.28659 15.5734C3.64406 15.0163 3.23746 14.2357 3.14924 13.3899H10.6792C10.8546 13.3941 11.0289 13.3624 11.1916 13.297C11.3543 13.2315 11.5019 13.1335 11.6255 13.009C11.749 12.8845 11.8459 12.7362 11.9101 12.573C11.9744 12.4098 12.0047 12.2352 11.9992 12.0599C12.0318 11.2898 11.9074 10.5212 11.6334 9.80073C11.3594 9.08029 10.9417 8.42314 10.4056 7.86931C9.86959 7.31548 9.22642 6.87654 8.51529 6.57922C7.80417 6.28191 7.03998 6.13244 6.26924 6.13992C5.46994 6.15648 4.68202 6.33261 3.95175 6.65797C3.22149 6.98332 2.56361 7.45133 2.01676 8.03452C1.46991 8.6177 1.04512 9.30428 0.767349 10.0539C0.489577 10.8036 0.364422 11.6012 0.399237 12.3999C0.360304 13.2256 0.492401 14.0504 0.787242 14.8227C1.08208 15.5949 1.53331 16.2979 2.11262 16.8875C2.69193 17.4771 3.38683 17.9407 4.15373 18.2492C4.92063 18.5576 5.74299 18.7043 6.56924 18.6799ZM6.24924 8.38992C8.06924 8.38992 9.11924 9.77992 9.24924 11.5499H3.12924C3.37924 9.68992 4.55924 8.38992 6.24924 8.38992Z" fill="#01070E"/>
</svg>
