<svg width="36" height="36" viewBox="0 0 36 36" fill="none" xmlns="http://www.w3.org/2000/svg">
<path d="M31.0992 20.9001C32.7008 20.9001 33.9992 19.6017 33.9992 18.0001C33.9992 16.3985 32.7008 15.1001 31.0992 15.1001C29.4976 15.1001 28.1992 16.3985 28.1992 18.0001C28.1992 19.6017 29.4976 20.9001 31.0992 20.9001Z" fill="#01070E"/>
<path d="M17.9996 20.9001C19.6012 20.9001 20.8996 19.6017 20.8996 18.0001C20.8996 16.3985 19.6012 15.1001 17.9996 15.1001C16.398 15.1001 15.0996 16.3985 15.0996 18.0001C15.0996 19.6017 16.398 20.9001 17.9996 20.9001Z" fill="#01070E"/>
<path d="M4.9 20.9001C6.50163 20.9001 7.8 19.6017 7.8 18.0001C7.8 16.3985 6.50163 15.1001 4.9 15.1001C3.29837 15.1001 2 16.3985 2 18.0001C2 19.6017 3.29837 20.9001 4.9 20.9001Z" fill="#01070E"/>
</svg>
