<svg width="32" height="33" viewBox="0 0 32 33" fill="none" xmlns="http://www.w3.org/2000/svg">
<g clip-path="url(#clip0_1335_3475)">
<path d="M16.4193 15.3103C15.2946 15.2985 14.1985 14.9542 13.2691 14.3207C12.3396 13.6872 11.6184 12.7929 11.1962 11.7504C10.7739 10.7078 10.6696 9.5637 10.8962 8.46199C11.1229 7.36028 11.6705 6.35026 12.4699 5.55909C13.2694 4.76792 14.2851 4.23098 15.3892 4.01586C16.4932 3.80075 17.6362 3.91707 18.6742 4.3502C19.7123 4.78333 20.599 5.51389 21.2227 6.44991C21.8464 7.38592 22.1792 8.48555 22.1793 9.61033C22.1687 11.1292 21.5566 12.582 20.4769 13.6504C19.3973 14.7187 17.9382 15.3157 16.4193 15.3103ZM16.4193 5.91033C15.6902 5.92216 14.9808 6.14917 14.3803 6.56285C13.7798 6.97653 13.3149 7.55844 13.044 8.23548C12.7732 8.91253 12.7084 9.65451 12.8579 10.3682C13.0073 11.082 13.3644 11.7356 13.8841 12.2471C14.4039 12.7586 15.0632 13.105 15.7792 13.243C16.4953 13.381 17.2361 13.3043 17.9087 13.0226C18.5813 12.7408 19.1557 12.2667 19.5597 11.6596C19.9636 11.0525 20.1792 10.3395 20.1793 9.61033C20.1687 8.6219 19.7673 7.67784 19.0627 6.98451C18.3582 6.29119 17.4078 5.90499 16.4193 5.91033Z" fill="#01070E"/>
<path d="M16.4193 15.3103C15.2946 15.2985 14.1985 14.9542 13.2691 14.3207C12.3396 13.6872 11.6184 12.7929 11.1962 11.7504C10.7739 10.7078 10.6696 9.5637 10.8962 8.46199C11.1229 7.36028 11.6705 6.35026 12.4699 5.55909C13.2694 4.76792 14.2851 4.23098 15.3892 4.01586C16.4932 3.80075 17.6362 3.91707 18.6742 4.3502C19.7123 4.78333 20.599 5.51389 21.2227 6.44991C21.8464 7.38592 22.1792 8.48555 22.1793 9.61033C22.1687 11.1292 21.5566 12.582 20.4769 13.6504C19.3973 14.7187 17.9382 15.3157 16.4193 15.3103ZM16.4193 5.91033C15.6902 5.92216 14.9808 6.14917 14.3803 6.56285C13.7798 6.97653 13.3149 7.55844 13.044 8.23548C12.7732 8.91253 12.7084 9.65451 12.8579 10.3682C13.0073 11.082 13.3644 11.7356 13.8841 12.2471C14.4039 12.7586 15.0632 13.105 15.7792 13.243C16.4953 13.381 17.2361 13.3043 17.9087 13.0226C18.5813 12.7408 19.1557 12.2667 19.5597 11.6596C19.9636 11.0525 20.1792 10.3395 20.1793 9.61033C20.1687 8.6219 19.7673 7.67784 19.0627 6.98451C18.3582 6.29119 17.4078 5.90499 16.4193 5.91033Z" fill="#01070E"/>
<path d="M19.9108 16.6502C15.4753 15.8784 10.9091 16.5809 6.91078 18.6502C6.62695 18.8078 6.39194 19.0404 6.23144 19.3226C6.07094 19.6048 5.99114 19.9257 6.00078 20.2502V23.8102C6.00078 24.0754 6.10614 24.3298 6.29367 24.5173C6.48121 24.7049 6.73556 24.8102 7.00078 24.8102C7.266 24.8102 7.52035 24.7049 7.70789 24.5173C7.89542 24.3298 8.00078 24.0754 8.00078 23.8102V20.3802C11.7085 18.5198 15.9248 17.9296 20.0008 18.7002L19.9108 16.6502Z" fill="#01070E"/>
<path d="M31 21H24.3V19.52C24.3 19.2548 24.1946 19.0004 24.0071 18.8129C23.8196 18.6254 23.5652 18.52 23.3 18.52C23.0348 18.52 22.7804 18.6254 22.5929 18.8129C22.4054 19.0004 22.3 19.2548 22.3 19.52V21H15C14.7348 21 14.4804 21.1054 14.2929 21.2929C14.1054 21.4804 14 21.7348 14 22V32C14 32.2652 14.1054 32.5196 14.2929 32.7071C14.4804 32.8947 14.7348 33 15 33H31C31.2652 33 31.5196 32.8947 31.7071 32.7071C31.8946 32.5196 32 32.2652 32 32V22C32 21.7348 31.8946 21.4804 31.7071 21.2929C31.5196 21.1054 31.2652 21 31 21ZM30 31H16V23H22.3V23.41C22.3 23.6752 22.4054 23.9296 22.5929 24.1171C22.7804 24.3047 23.0348 24.41 23.3 24.41C23.5652 24.41 23.8196 24.3047 24.0071 24.1171C24.1946 23.9296 24.3 23.6752 24.3 23.41V23H30V31Z" fill="#01070E"/>
<path d="M25.7705 26.4199H19.8105V27.8199H25.7705V26.4199Z" fill="#01070E"/>
<path d="M8.84 11.2402C6.07144 11.2866 3.3509 11.971 0.89 13.2402C0.622362 13.3816 0.398177 13.5931 0.241415 13.852C0.0846523 14.1109 0.00120685 14.4076 0 14.7102V17.8102C0 18.0755 0.105357 18.3298 0.292893 18.5173C0.48043 18.7049 0.734784 18.8102 1 18.8102C1.26522 18.8102 1.51957 18.7049 1.70711 18.5173C1.89464 18.3298 2 18.0755 2 17.8102V14.9102C4.3513 13.7399 6.95456 13.1663 9.58 13.2402C9.2365 12.6135 8.98716 11.9396 8.84 11.2402Z" fill="#01070E"/>
<path d="M31.1098 13.23C28.9026 12.0722 26.4769 11.3908 23.9898 11.23C23.8433 11.9281 23.5975 12.6016 23.2598 13.23C25.6028 13.2861 27.9045 13.8598 29.9998 14.91V17.81C29.9998 18.0752 30.1051 18.3296 30.2927 18.5171C30.4802 18.7046 30.7345 18.81 30.9998 18.81C31.265 18.81 31.5193 18.7046 31.7069 18.5171C31.8944 18.3296 31.9998 18.0752 31.9998 17.81V14.71C32.0004 14.4056 31.9178 14.1068 31.7609 13.846C31.6041 13.5852 31.3789 13.3721 31.1098 13.23Z" fill="#01070E"/>
<path d="M8.65961 9.61002C8.65961 9.38002 8.65961 9.16002 8.65961 8.94002C7.87623 8.83518 7.16346 8.43225 6.66968 7.81511C6.1759 7.19797 5.93916 6.41417 6.00874 5.62687C6.07833 4.83957 6.44887 4.10944 7.04323 3.58847C7.63759 3.0675 8.40998 2.79583 9.19961 2.83002C10.0209 2.82853 10.8103 3.14788 11.3996 3.72002C11.9195 3.2912 12.4905 2.92843 13.0996 2.64002C12.4192 1.85767 11.5177 1.29985 10.514 1.04009C9.51024 0.780317 8.45134 0.830792 7.47685 1.18486C6.50236 1.53892 5.65803 2.17996 5.05514 3.02347C4.45225 3.86698 4.1191 4.87338 4.09961 5.91002C4.1206 7.17877 4.61381 8.39414 5.48291 9.31871C6.35201 10.2433 7.53458 10.8107 8.79961 10.91C8.71478 10.4816 8.66793 10.0466 8.65961 9.61002Z" fill="#01070E"/>
<path d="M22.7701 0.830118C22.0829 0.830269 21.4026 0.967424 20.769 1.23356C20.1354 1.4997 19.5613 1.88948 19.0801 2.38012C19.7561 2.62509 20.3954 2.96155 20.9801 3.38012C21.4469 3.05605 21.993 2.86475 22.56 2.82663C23.127 2.7885 23.6938 2.90498 24.1998 3.16364C24.7058 3.4223 25.1322 3.81344 25.4334 4.29536C25.7346 4.77729 25.8993 5.33192 25.9101 5.90012C25.9038 6.48376 25.7323 7.05367 25.4155 7.5439C25.0987 8.03412 24.6496 8.42459 24.1201 8.67012C24.1603 8.97848 24.1804 9.28914 24.1801 9.60012C24.1774 10.0021 24.144 10.4033 24.0801 10.8001C25.1695 10.5201 26.1357 9.88769 26.8284 9.00148C27.5211 8.11526 27.9014 7.0249 27.9101 5.90012C27.8969 4.54742 27.3489 3.25492 26.3858 2.30496C25.4227 1.35499 24.1228 0.82477 22.7701 0.830118Z" fill="#01070E"/>
</g>
<defs>
<clipPath id="clip0_1335_3475">
<rect width="32" height="33" fill="white"/>
</clipPath>
</defs>
</svg>
