<svg width="36" height="36" viewBox="0 0 36 36" fill="none" xmlns="http://www.w3.org/2000/svg">
<path d="M33.68 15.26H32V26.71L24.64 19.35L23.23 20.76L30.46 28H5.66L12.66 20.76L11.22 19.37L4 26.84V9.52L16.43 21.89C16.8047 22.2625 17.3116 22.4716 17.84 22.4716C18.3684 22.4716 18.8753 22.2625 19.25 21.89L25.91 15.26H23.08L17.84 20.47L5.31 8H20.06L21.21 6H4C3.46957 6 2.96086 6.21071 2.58579 6.58579C2.21071 6.96086 2 7.46957 2 8V28C2 28.5304 2.21071 29.0391 2.58579 29.4142C2.96086 29.7893 3.46957 30 4 30H32C32.5304 30 33.0391 29.7893 33.4142 29.4142C33.7893 29.0391 34 28.5304 34 28V15.24L33.68 15.26Z" fill="#01070E"/>
<path d="M26.8507 1.00017L21.1307 10.9102C21.0211 11.1039 20.964 11.3228 20.9649 11.5453C20.9657 11.7678 21.0246 11.9862 21.1356 12.1791C21.2467 12.3719 21.4061 12.5324 21.5981 12.6448C21.7901 12.7573 22.0082 12.8177 22.2307 12.8202H33.6807C33.9032 12.8177 34.1212 12.7573 34.3132 12.6448C34.5052 12.5324 34.6646 12.3719 34.7757 12.1791C34.8867 11.9862 34.9456 11.7678 34.9465 11.5453C34.9473 11.3228 34.8902 11.1039 34.7807 10.9102L29.0607 1.00017C28.9479 0.807221 28.7865 0.647176 28.5926 0.535955C28.3988 0.424733 28.1792 0.366211 27.9557 0.366211C27.7322 0.366211 27.5126 0.424733 27.3187 0.535955C27.1248 0.647176 26.9635 0.807221 26.8507 1.00017Z" fill="#01070E"/>
</svg>
