<svg width="36" height="36" viewBox="0 0 36 36" fill="none" xmlns="http://www.w3.org/2000/svg">
<path d="M35.62 12.0001C35.6189 11.6278 35.5442 11.2594 35.4 10.9161C35.2558 10.5728 35.0451 10.2615 34.78 10.0001L27.49 2.6501C26.9508 2.13654 26.2347 1.8501 25.49 1.8501C24.7453 1.8501 24.0292 2.13654 23.49 2.6501L2.83 23.2801C2.30238 23.812 2.00633 24.5309 2.00633 25.2801C2.00633 26.0293 2.30238 26.7482 2.83 27.2801L7.53 32.0001H3C2.73478 32.0001 2.48043 32.1055 2.29289 32.293C2.10536 32.4805 2 32.7349 2 33.0001C2 33.2653 2.10536 33.5197 2.29289 33.7072C2.48043 33.8947 2.73478 34.0001 3 34.0001H28C28.2652 34.0001 28.5196 33.8947 28.7071 33.7072C28.8946 33.5197 29 33.2653 29 33.0001C29 32.7349 28.8946 32.4805 28.7071 32.293C28.5196 32.1055 28.2652 32.0001 28 32.0001H16.74L34.74 14.0001C35.0124 13.742 35.2305 13.4322 35.3816 13.0888C35.5327 12.7454 35.6137 12.3752 35.62 12.0001ZM13.91 32.0001H10.36L4.25 25.8901C4.17169 25.8121 4.10955 25.7193 4.06716 25.6172C4.02476 25.5151 4.00294 25.4057 4.00294 25.2951C4.00294 25.1845 4.02476 25.0751 4.06716 24.973C4.10955 24.8709 4.17169 24.7781 4.25 24.7001L9.76 19.1801L18.25 27.6601L13.91 32.0001ZM33.37 12.5401L19.66 26.2501L11.18 17.7601L24.88 4.0601C25.0401 3.90669 25.2533 3.82104 25.475 3.82104C25.6967 3.82104 25.9099 3.90669 26.07 4.0601L33.37 11.3501C33.5286 11.5097 33.6184 11.7251 33.62 11.9501C33.6201 12.0602 33.598 12.1692 33.555 12.2705C33.5121 12.3719 33.4491 12.4636 33.37 12.5401Z" fill="#01070E"/>
</svg>
