<svg width="36" height="36" viewBox="0 0 36 36" fill="none" xmlns="http://www.w3.org/2000/svg">
<path d="M17.9999 27.39C18.7345 27.39 19.3299 26.7945 19.3299 26.06C19.3299 25.3254 18.7345 24.73 17.9999 24.73C17.2654 24.73 16.6699 25.3254 16.6699 26.06C16.6699 26.7945 17.2654 27.39 17.9999 27.39Z" fill="#01070E"/>
<path d="M18 22.6099C17.7348 22.6099 17.4804 22.5045 17.2929 22.317C17.1054 22.1294 17 21.8751 17 21.6099V9.60986C17 9.34465 17.1054 9.09029 17.2929 8.90276C17.4804 8.71522 17.7348 8.60986 18 8.60986C18.2652 8.60986 18.5196 8.71522 18.7071 8.90276C18.8946 9.09029 19 9.34465 19 9.60986V21.6099C19 21.8751 18.8946 22.1294 18.7071 22.317C18.5196 22.5045 18.2652 22.6099 18 22.6099Z" fill="#01070E"/>
<path d="M18 34C14.8355 34 11.7421 33.0616 9.11088 31.3035C6.4797 29.5454 4.42894 27.0466 3.21793 24.1229C2.00693 21.1993 1.69008 17.9823 2.30744 14.8786C2.92481 11.7749 4.44866 8.92394 6.6863 6.6863C8.92394 4.44866 11.7749 2.92481 14.8786 2.30744C17.9823 1.69008 21.1993 2.00693 24.1229 3.21793C27.0466 4.42894 29.5454 6.4797 31.3035 9.11088C33.0616 11.7421 34 14.8355 34 18C34 22.2435 32.3143 26.3131 29.3137 29.3137C26.3131 32.3143 22.2435 34 18 34ZM18 4.00001C15.2311 4.00001 12.5243 4.82109 10.222 6.35943C7.91974 7.89777 6.12532 10.0843 5.06569 12.6424C4.00607 15.2006 3.72882 18.0155 4.26901 20.7313C4.80921 23.447 6.14258 25.9416 8.10051 27.8995C10.0584 29.8574 12.553 31.1908 15.2687 31.731C17.9845 32.2712 20.7994 31.9939 23.3576 30.9343C25.9157 29.8747 28.1022 28.0803 29.6406 25.778C31.1789 23.4757 32 20.7689 32 18C32 14.287 30.525 10.726 27.8995 8.10051C25.274 5.475 21.713 4.00001 18 4.00001Z" fill="#01070E"/>
</svg>
