<svg width="36" height="36" viewBox="0 0 36 36" fill="none" xmlns="http://www.w3.org/2000/svg">
<path d="M31.4791 28.4899C31.4096 28.3781 31.3188 28.2811 31.2118 28.2045C31.1048 28.1279 30.9837 28.0732 30.8555 28.0434C30.7273 28.0137 30.5945 28.0096 30.4647 28.0313C30.3349 28.053 30.2106 28.1001 30.0991 28.1699C28.5763 29.118 26.8604 29.7126 25.0775 29.91C23.2946 30.1074 21.4901 29.9027 19.7968 29.3107C18.1035 28.7188 16.5645 27.7548 15.2929 26.4896C14.0213 25.2244 13.0495 23.6902 12.4491 21.9999H24.1591C24.4243 21.9999 24.6786 21.8946 24.8662 21.707C25.0537 21.5195 25.1591 21.2651 25.1591 20.9999C25.1591 20.7347 25.0537 20.4804 24.8662 20.2928C24.6786 20.1053 24.4243 19.9999 24.1591 19.9999H11.9291C11.6882 18.6775 11.6882 17.3224 11.9291 15.9999H24.1591C24.4243 15.9999 24.6786 15.8946 24.8662 15.707C25.0537 15.5195 25.1591 15.2651 25.1591 14.9999C25.1591 14.7347 25.0537 14.4804 24.8662 14.2928C24.6786 14.1053 24.4243 13.9999 24.1591 13.9999H12.4491C13.0476 12.3129 14.0161 10.7812 15.2833 9.51702C16.5506 8.25281 18.0847 7.28815 19.7732 6.69369C21.4616 6.09923 23.2617 5.89005 25.0414 6.08146C26.8212 6.27287 28.5356 6.86003 30.0591 7.79992C30.2845 7.94049 30.5565 7.98574 30.8153 7.92573C31.0741 7.86572 31.2985 7.70536 31.4391 7.47992C31.5796 7.25449 31.6249 6.98245 31.5649 6.72365C31.5049 6.46485 31.3445 6.24049 31.1191 6.09992C29.2908 4.96891 27.2267 4.27414 25.0866 4.06946C22.9466 3.86478 20.7882 4.15569 18.7787 4.91964C16.7692 5.6836 14.9626 6.90007 13.4991 8.47474C12.0355 10.0494 10.9542 11.94 10.3391 13.9999H3.53906C3.27385 13.9999 3.01949 14.1053 2.83196 14.2928C2.64442 14.4804 2.53906 14.7347 2.53906 14.9999C2.53906 15.2651 2.64442 15.5195 2.83196 15.707C3.01949 15.8946 3.27385 15.9999 3.53906 15.9999H9.90906C9.80796 16.6619 9.75449 17.3303 9.74906 17.9999C9.75449 18.6696 9.80796 19.3379 9.90906 19.9999H3.53906C3.27385 19.9999 3.01949 20.1053 2.83196 20.2928C2.64442 20.4804 2.53906 20.7347 2.53906 20.9999C2.53906 21.2651 2.64442 21.5195 2.83196 21.707C3.01949 21.8946 3.27385 21.9999 3.53906 21.9999H10.3391C10.9555 24.0647 12.0402 25.9593 13.5088 27.5362C14.9774 29.1131 16.7901 30.3297 18.8059 31.0913C20.8216 31.8529 22.986 32.1389 25.1304 31.9271C27.2748 31.7152 29.3413 31.0112 31.1691 29.8699C31.28 29.7997 31.3761 29.7083 31.4517 29.6009C31.5274 29.4935 31.5811 29.3723 31.6099 29.2441C31.6387 29.116 31.642 28.9834 31.6195 28.854C31.5971 28.7246 31.5493 28.6009 31.4791 28.4899Z" fill="#01070E"/>
</svg>
