<svg width="36" height="36" viewBox="0 0 36 36" fill="none" xmlns="http://www.w3.org/2000/svg">
<path d="M10 10C10.2652 10 10.5196 9.89464 10.7071 9.70711C10.8946 9.51957 11 9.26522 11 9V3C11 2.73478 10.8946 2.48043 10.7071 2.29289C10.5196 2.10536 10.2652 2 10 2C9.73478 2 9.48043 2.10536 9.29289 2.29289C9.10536 2.48043 9 2.73478 9 3V9C9 9.26522 9.10536 9.51957 9.29289 9.70711C9.48043 9.89464 9.73478 10 10 10Z" fill="#01070E"/>
<path d="M10.8105 20.4999L16.1705 25.8599L26.2205 15.8099C26.3287 15.6935 26.4075 15.5529 26.4505 15.3999H23.8005L16.1705 22.9999L12.2305 19.0599C12.0392 18.8961 11.7932 18.8105 11.5415 18.8202C11.2898 18.8299 11.0511 18.9342 10.873 19.1123C10.6949 19.2904 10.5905 19.5292 10.5808 19.7808C10.5711 20.0325 10.6567 20.2786 10.8205 20.4699L10.8105 20.4999Z" fill="#01070E"/>
<path d="M21.29 6H13V8H20.14L21.29 6Z" fill="#01070E"/>
<path d="M33.6803 15.4H32.0003V30H4.00026V8H7.00026V6H3.75026C3.51649 6.00391 3.28579 6.05383 3.07132 6.14691C2.85686 6.23999 2.66283 6.37441 2.50032 6.54249C2.33781 6.71057 2.21 6.90902 2.1242 7.1265C2.0384 7.34398 1.99628 7.57624 2.00026 7.81V30.19C1.99628 30.4238 2.0384 30.656 2.1242 30.8735C2.21 31.091 2.33781 31.2894 2.50032 31.4575C2.66283 31.6256 2.85686 31.76 3.07132 31.8531C3.28579 31.9462 3.51649 31.9961 3.75026 32H32.2503C32.484 31.9961 32.7147 31.9462 32.9292 31.8531C33.1437 31.76 33.3377 31.6256 33.5002 31.4575C33.6627 31.2894 33.7905 31.091 33.8763 30.8735C33.9621 30.656 34.0042 30.4238 34.0003 30.19V15.38L33.6803 15.4Z" fill="#01070E"/>
<path d="M26.8504 1.13981L21.1304 10.9998C20.9973 11.1951 20.9209 11.4235 20.9097 11.6596C20.8984 11.8957 20.9527 12.1303 21.0666 12.3374C21.1806 12.5445 21.3496 12.716 21.555 12.8329C21.7604 12.9498 21.9942 13.0076 22.2304 12.9998H33.6804C33.9166 13.0076 34.1504 12.9498 34.3558 12.8329C34.5612 12.716 34.7302 12.5445 34.8441 12.3374C34.958 12.1303 35.0123 11.8957 35.0011 11.6596C34.9898 11.4235 34.9135 11.1951 34.7804 10.9998L29.0604 1.13981C28.9476 0.946869 28.7862 0.786825 28.5923 0.675603C28.3985 0.564381 28.1789 0.505859 27.9554 0.505859C27.7319 0.505859 27.5123 0.564381 27.3184 0.675603C27.1245 0.786825 26.9632 0.946869 26.8504 1.13981Z" fill="#01070E"/>
</svg>
