<svg width="36" height="36" viewBox="0 0 36 36" fill="none" xmlns="http://www.w3.org/2000/svg">
<path d="M18 6C15.6266 6 13.3066 6.70379 11.3332 8.02236C9.35977 9.34094 7.8217 11.2151 6.91345 13.4078C6.0052 15.6005 5.76756 18.0133 6.23058 20.3411C6.6936 22.6689 7.83649 24.8071 9.51472 26.4853C11.193 28.1635 13.3312 29.3064 15.6589 29.7694C17.9867 30.2324 20.3995 29.9948 22.5922 29.0866C24.7849 28.1783 26.6591 26.6402 27.9776 24.6668C29.2962 22.6935 30 20.3734 30 18C30 14.8174 28.7357 11.7652 26.4853 9.51472C24.2348 7.26428 21.1826 6 18 6ZM18 28C16.0222 28 14.0888 27.4135 12.4443 26.3147C10.7998 25.2159 9.51809 23.6541 8.76121 21.8268C8.00433 19.9996 7.8063 17.9889 8.19215 16.0491C8.578 14.1093 9.53041 12.3275 10.9289 10.9289C12.3275 9.53041 14.1093 8.578 16.0491 8.19215C17.9889 7.8063 19.9996 8.00433 21.8268 8.7612C23.6541 9.51808 25.2159 10.7998 26.3147 12.4443C27.4135 14.0888 28 16.0222 28 18C28 19.3132 27.7413 20.6136 27.2388 21.8268C26.7363 23.0401 25.9997 24.1425 25.0711 25.0711C24.1425 25.9997 23.0401 26.7362 21.8268 27.2388C20.6136 27.7413 19.3132 28 18 28Z" fill="#01070E"/>
<path d="M17.9992 20.0702C17.6544 20.0702 17.3238 19.9333 17.08 19.6895C16.8362 19.4457 16.6992 19.115 16.6992 18.7702V12.7702C16.6992 12.4254 16.8362 12.0948 17.08 11.851C17.3238 11.6072 17.6544 11.4702 17.9992 11.4702C18.344 11.4702 18.6747 11.6072 18.9185 11.851C19.1623 12.0948 19.2992 12.4254 19.2992 12.7702V18.7702C19.2992 19.115 19.1623 19.4457 18.9185 19.6895C18.6747 19.9333 18.344 20.0702 17.9992 20.0702Z" fill="#01070E"/>
<path d="M17.9492 24.52C18.7776 24.52 19.4492 23.8484 19.4492 23.02C19.4492 22.1916 18.7776 21.52 17.9492 21.52C17.1208 21.52 16.4492 22.1916 16.4492 23.02C16.4492 23.8484 17.1208 24.52 17.9492 24.52Z" fill="#01070E"/>
</svg>
