<svg width="36" height="36" viewBox="0 0 36 36" fill="none" xmlns="http://www.w3.org/2000/svg">
<path d="M33 6H3C2.73478 6 2.48043 6.10536 2.29289 6.29289C2.10536 6.48043 2 6.73478 2 7V29C2 29.2652 2.10536 29.5196 2.29289 29.7071C2.48043 29.8946 2.73478 30 3 30H33C33.2652 30 33.5196 29.8946 33.7071 29.7071C33.8946 29.5196 34 29.2652 34 29V7C34 6.73478 33.8946 6.48043 33.7071 6.29289C33.5196 6.10536 33.2652 6 33 6ZM32 28H4V8H32V28Z" fill="#01070E"/>
<path d="M13.4807 15.8601L18.0007 11.3401L22.5207 15.8601C22.5928 15.9361 22.6797 15.9966 22.776 16.0378C22.8723 16.0791 22.976 16.1003 23.0807 16.1001C23.2381 16.0971 23.3912 16.0484 23.5214 15.9598C23.6515 15.8713 23.753 15.7467 23.8135 15.6014C23.874 15.456 23.8908 15.2962 23.8619 15.1415C23.833 14.9867 23.7596 14.8438 23.6507 14.7301L18.0007 9.08008L12.3507 14.7301C12.2704 14.8028 12.2057 14.8912 12.1606 14.9897C12.1155 15.0882 12.0908 15.1949 12.0881 15.3032C12.0855 15.4116 12.1048 15.5193 12.1451 15.6199C12.1853 15.7206 12.2456 15.812 12.3222 15.8886C12.3988 15.9652 12.4902 16.0255 12.5909 16.0657C12.6915 16.106 12.7992 16.1253 12.9076 16.1227C13.0159 16.12 13.1226 16.0954 13.2211 16.0502C13.3196 16.0051 13.408 15.9404 13.4807 15.8601Z" fill="#01070E"/>
<path d="M13.4807 21.8601L18.0007 17.3401L22.5207 21.8601C22.5928 21.9361 22.6797 21.9966 22.776 22.0378C22.8723 22.0791 22.976 22.1003 23.0807 22.1001C23.2381 22.0971 23.3912 22.0484 23.5214 21.9598C23.6515 21.8713 23.753 21.7467 23.8135 21.6014C23.874 21.456 23.8908 21.2962 23.8619 21.1415C23.833 20.9867 23.7596 20.8438 23.6507 20.7301L18.0007 15.0801L12.3507 20.7301C12.2704 20.8028 12.2057 20.8912 12.1606 20.9897C12.1155 21.0882 12.0908 21.1949 12.0881 21.3032C12.0855 21.4116 12.1048 21.5193 12.1451 21.6199C12.1853 21.7206 12.2456 21.812 12.3222 21.8886C12.3988 21.9652 12.4902 22.0255 12.5909 22.0657C12.6915 22.106 12.7992 22.1253 12.9076 22.1227C13.0159 22.12 13.1226 22.0954 13.2211 22.0502C13.3196 22.0051 13.408 21.9404 13.4807 21.8601Z" fill="#01070E"/>
</svg>
