<svg width="36" height="36" viewBox="0 0 36 36" fill="none" xmlns="http://www.w3.org/2000/svg">
<path d="M6 13.61H13.61V6H24V14.38H26V6C26 5.46957 25.7893 4.96086 25.4142 4.58579C25.0391 4.21071 24.5304 4 24 4H10.87L4 10.87V30C4 30.5304 4.21071 31.0391 4.58579 31.4142C4.96086 31.7893 5.46957 32 6 32H24C24.5304 32 25.0391 31.7893 25.4142 31.4142C25.7893 31.0391 26 30.5304 26 30H6V13.61ZM6 11.69L11.69 6H12V12H6V11.69Z" fill="#01070E"/>
<path d="M28.32 16.3498C28.1287 16.186 27.8826 16.1004 27.6309 16.1101C27.3793 16.1198 27.1405 16.2242 26.9624 16.4023C26.7843 16.5804 26.68 16.8191 26.6703 17.0708C26.6606 17.3225 26.7462 17.5685 26.91 17.7598L30.16 20.9998H18C17.7348 20.9998 17.4804 21.1052 17.2929 21.2927C17.1054 21.4803 17 21.7346 17 21.9998C17 22.265 17.1054 22.5194 17.2929 22.7069C17.4804 22.8945 17.7348 22.9998 18 22.9998H30.19L26.91 26.2798C26.8053 26.3695 26.7203 26.4798 26.6603 26.6039C26.6003 26.7279 26.5665 26.8631 26.5612 27.0008C26.5559 27.1385 26.5791 27.2758 26.6294 27.4042C26.6796 27.5325 26.7559 27.649 26.8533 27.7465C26.9508 27.8439 27.0674 27.9202 27.1957 27.9705C27.324 28.0207 27.4613 28.044 27.5991 28.0386C27.7368 28.0333 27.8719 27.9996 27.996 27.9396C28.12 27.8795 28.2304 27.7945 28.32 27.6898L34 21.9998L28.32 16.3498Z" fill="#01070E"/>
</svg>
