<svg width="36" height="36" viewBox="0 0 36 36" fill="none" xmlns="http://www.w3.org/2000/svg">
<path d="M33.6207 17.5298C30.2507 11.2998 24.3407 7.52979 17.8007 7.52979C11.2607 7.52979 5.3407 11.2998 2.0007 17.5298L1.7207 17.9998L1.9807 18.4798C5.3507 24.7098 11.2607 28.4798 17.8007 28.4798C24.3407 28.4798 30.2607 24.7598 33.6207 18.4798L33.8807 17.9998L33.6207 17.5298ZM17.8007 26.4298C12.1707 26.4298 7.0007 23.2898 4.0007 17.9998C7.0007 12.7098 12.1707 9.56978 17.8007 9.56978C23.4307 9.56978 28.5407 12.7198 31.5907 17.9998C28.5407 23.2898 23.4207 26.4298 17.8007 26.4298Z" fill="#01070E"/>
<path d="M18.0892 11.1701C16.7334 11.18 15.4108 11.5915 14.2887 12.3526C13.1665 13.1137 12.2951 14.1903 11.7844 15.4463C11.2737 16.7024 11.1468 18.0817 11.4195 19.4099C11.6923 20.7381 12.3525 21.9557 13.3169 22.9088C14.2812 23.862 15.5064 24.508 16.8377 24.7653C18.169 25.0226 19.5466 24.8796 20.7967 24.3543C22.0467 23.8291 23.1131 22.9451 23.8611 21.8142C24.6091 20.6833 25.0051 19.356 24.9992 18.0001C24.9953 17.0975 24.8133 16.2046 24.4637 15.3725C24.114 14.5404 23.6036 13.7855 22.9617 13.151C22.3198 12.5165 21.559 12.0149 20.7229 11.675C19.8868 11.3351 18.9918 11.1635 18.0892 11.1701ZM18.0892 22.8901C17.1315 22.8802 16.198 22.5876 15.406 22.0489C14.6141 21.5103 13.9989 20.7496 13.6379 19.8624C13.2768 18.9753 13.1859 18.0013 13.3766 17.0627C13.5674 16.124 14.0312 15.2627 14.7098 14.5868C15.3885 13.9109 16.2517 13.4507 17.1911 13.2638C18.1305 13.0769 19.1041 13.1717 19.9898 13.5364C20.8754 13.9011 21.6336 14.5193 22.169 15.3135C22.7044 16.1077 22.9933 17.0423 22.9992 18.0001C23.0019 18.6447 22.8766 19.2834 22.6305 19.8792C22.3845 20.475 22.0226 21.016 21.5659 21.4709C21.1091 21.9258 20.5666 22.2854 19.9698 22.5291C19.373 22.7727 18.7338 22.8954 18.0892 22.8901Z" fill="#01070E"/>
</svg>
