<svg width="36" height="36" viewBox="0 0 36 36" fill="none" xmlns="http://www.w3.org/2000/svg">
<path d="M25.1906 20.4001C25.4778 19.6327 25.6235 18.8195 25.6206 18.0001C25.6206 16.1808 24.8979 14.4359 23.6114 13.1494C22.3249 11.8629 20.58 11.1401 18.7606 11.1401C17.9513 11.1411 17.1487 11.2867 16.3906 11.5701L18.0006 13.2301C18.2454 13.191 18.4928 13.1709 18.7406 13.1701C20.0271 13.1675 21.2623 13.6739 22.1766 14.5788C23.0909 15.4838 23.6101 16.7137 23.6206 18.0001C23.6198 18.248 23.5997 18.4954 23.5606 18.7401L25.1906 20.4001Z" fill="#01070E"/>
<path d="M34.2905 17.5298C30.9205 11.2998 25.0105 7.52979 18.4705 7.52979C16.6898 7.53397 14.9211 7.82087 13.2305 8.37979L14.8405 9.99978C16.0263 9.69332 17.2457 9.53544 18.4705 9.52978C24.1005 9.52978 29.2205 12.6698 32.2705 17.9598C31.1516 19.9224 29.6684 21.6534 27.9005 23.0598L29.3205 24.4798C31.3665 22.8291 33.0658 20.79 34.3205 18.4798L34.5805 17.9998L34.2905 17.5298Z" fill="#01070E"/>
<path d="M4.87086 5.78004L9.33086 10.24C6.51178 12.0552 4.20776 14.5658 2.64086 17.53L2.38086 18L2.64086 18.48C6.01086 24.71 11.9209 28.48 18.4609 28.48C21.0135 28.4795 23.533 27.9018 25.8309 26.79L30.8309 31.79L32.5809 30.29L6.58086 4.29004L4.87086 5.78004ZM14.6209 15.53L21.2709 22.18C20.5195 22.6451 19.6545 22.8942 18.7709 22.9C18.1288 22.9001 17.4931 22.7731 16.9002 22.5265C16.3074 22.2799 15.7692 21.9185 15.3166 21.4631C14.864 21.0077 14.5059 20.4672 14.2629 19.8729C14.02 19.2786 13.8969 18.6421 13.9009 18C13.9121 17.1266 14.161 16.2727 14.6209 15.53ZM13.1709 14.08C12.2353 15.3994 11.7968 17.0073 11.933 18.619C12.0692 20.2307 12.7713 21.7422 13.915 22.8859C15.0587 24.0296 16.5702 24.7317 18.1819 24.8679C19.7936 25.0041 21.4015 24.5656 22.7209 23.63L24.3209 25.23C22.4686 26.0218 20.4752 26.43 18.4609 26.43C12.8309 26.43 7.71086 23.29 4.66086 18C6.12457 15.4083 8.23258 13.2382 10.7809 11.7L13.1709 14.08Z" fill="#01070E"/>
</svg>
