<svg width="32" height="30" viewBox="0 0 32 30" fill="none" xmlns="http://www.w3.org/2000/svg">
<g clip-path="url(#clip0_1335_3607)">
<path d="M31.47 5.37006C31.3128 5.29124 31.1375 5.25528 30.9619 5.26581C30.7864 5.27634 30.6167 5.333 30.47 5.43006L21 11.7701V6.26006C21.0003 6.06988 20.9464 5.88355 20.8445 5.72293C20.7427 5.56232 20.5972 5.43407 20.425 5.35324C20.2528 5.27242 20.0612 5.24235 19.8726 5.26659C19.6839 5.29082 19.5061 5.36834 19.36 5.49006L11.48 12.0001H8V2.62006C8.00565 2.3889 7.93102 2.16292 7.7888 1.9806C7.64659 1.79827 7.44558 1.67086 7.22 1.62006L3.22 0.720063C3.07242 0.686948 2.91925 0.687741 2.77202 0.722384C2.62479 0.757026 2.48733 0.824615 2.37 0.920063C2.24994 1.01732 2.15406 1.14107 2.08986 1.2816C2.02567 1.42214 1.99491 1.57564 2 1.73006V12.0001H1C0.734784 12.0001 0.48043 12.1054 0.292893 12.293C0.105357 12.4805 0 12.7348 0 13.0001V29.0001C0 29.2653 0.105357 29.5196 0.292893 29.7072C0.48043 29.8947 0.734784 30.0001 1 30.0001H31C31.2652 30.0001 31.5196 29.8947 31.7071 29.7072C31.8946 29.5196 32 29.2653 32 29.0001V6.26006C32.0013 6.07746 31.9526 5.89798 31.8592 5.74109C31.7658 5.5842 31.6312 5.45588 31.47 5.37006ZM4 3.00006L6 3.44006V12.0001H4V3.00006ZM30 28.0001H2V14.0001H11.83C12.0637 14.0005 12.2901 13.9191 12.47 13.7701L19 8.37006V13.6501C18.9997 13.8317 19.0489 14.01 19.1424 14.1658C19.2358 14.3217 19.3699 14.4491 19.5303 14.5344C19.6907 14.6197 19.8713 14.6598 20.0527 14.6502C20.2341 14.6406 20.4095 14.5818 20.56 14.4801L30 8.14006V28.0001Z" fill="#01070E"/>
<path d="M12 15.9902H4V17.9902H12V15.9902Z" fill="#01070E"/>
<path d="M12 19.9902H4V21.9902H12V19.9902Z" fill="#01070E"/>
<path d="M12 23.9902H4V25.9902H12V23.9902Z" fill="#01070E"/>
<path d="M19 16.9902H17V19.9902H19V16.9902Z" fill="#01070E"/>
<path d="M19 22.9902H17V25.9902H19V22.9902Z" fill="#01070E"/>
<path d="M23 16.9902H21V19.9902H23V16.9902Z" fill="#01070E"/>
<path d="M23 22.9902H21V25.9902H23V22.9902Z" fill="#01070E"/>
<path d="M27 16.9902H25V19.9902H27V16.9902Z" fill="#01070E"/>
<path d="M27 22.9902H25V25.9902H27V22.9902Z" fill="#01070E"/>
</g>
<defs>
<clipPath id="clip0_1335_3607">
<rect width="32" height="30" fill="white"/>
</clipPath>
</defs>
</svg>
