<svg width="36" height="36" viewBox="0 0 36 36" fill="none" xmlns="http://www.w3.org/2000/svg">
<path d="M17.7704 31.9202C17.4724 31.9184 17.1786 31.8501 16.9104 31.7202C16.599 31.545 16.3464 31.2815 16.1844 30.9629C16.0225 30.6444 15.9584 30.285 16.0004 29.9302V23.2302L5.2404 31.5002C4.95292 31.7278 4.60682 31.8692 4.24223 31.9082C3.87763 31.9471 3.50946 31.8819 3.1804 31.7202C2.84719 31.5546 2.56677 31.2993 2.37068 30.9831C2.17459 30.6669 2.0706 30.3023 2.0704 29.9302V5.93017C2.06685 5.5547 2.16908 5.18581 2.36538 4.86571C2.56168 4.54562 2.84413 4.28725 3.1804 4.12017C3.50917 3.95723 3.87757 3.89138 4.24242 3.93034C4.60728 3.96931 4.95346 4.11147 5.2404 4.34017L16.0004 12.6102V5.91017C15.9584 5.5553 16.0225 5.19595 16.1844 4.87741C16.3464 4.55886 16.599 4.29538 16.9104 4.12017C17.2428 3.95098 17.6171 3.88172 17.988 3.92076C18.3589 3.95981 18.7105 4.10548 19.0004 4.34017L34.3204 16.3402C34.5594 16.5273 34.7528 16.7663 34.8857 17.0392C35.0187 17.3121 35.0878 17.6116 35.0878 17.9152C35.0878 18.2187 35.0187 18.5183 34.8857 18.7912C34.7528 19.0641 34.5594 19.3031 34.3204 19.4902L19.0004 31.5002C18.6486 31.7732 18.2157 31.921 17.7704 31.9202ZM17.7704 19.1202V29.9302L33.0304 17.9302L17.7104 5.93017L17.7704 16.7402L4.0004 5.91017V29.9102L17.7704 19.1202Z" fill="#01070E"/>
</svg>
