<svg width="36" height="36" viewBox="0 0 36 36" fill="none" xmlns="http://www.w3.org/2000/svg">
<path d="M29 25.1C27.8 25.1 26.7 25.5 25.7 26.2C24.6 27.3 22.7 27.3 21.6 26.2C20.7 25.4 19.5 25 18.3 25C17.1 25 16 25.4 15.1 26.2C13.9 27.3 12.1 27.3 10.9 26.2C10 25.4 8.8 25 7.6 25C6.4 25 5.2 25.4 4.2 26.1C3.6 26.7 2.8 27 2 27V29C3.3 29.1 4.5 28.6 5.4 27.8C6.1 27.3 6.9 27 7.7 27C8.5 27 9.2 27.3 9.8 27.8C11.7 29.4 14.5 29.4 16.3 27.8C16.9 27.3 17.6 27 18.4 27C19.2 27 19.9 27.3 20.5 27.8C22.4 29.4 25.1 29.4 27 27.8C27.5 27.3 28.3 27 29 27C29.7 27 30.5 27.3 31 27.8C31.9 28.5 33 28.9 34.1 29V27.1C33.4 27.1 32.7 26.8 32.2 26.2C31.3 25.4 30.1 25 29 25.1Z" fill="#01070E"/>
<path d="M5.9 23.2001V20.0001H32L28.5 23.0001H28.7C29.5 23.0001 30.3 23.2001 30.9 23.5001L33.4 21.3001L33.6 21.1001C34.1 20.5001 34.1 19.7001 33.8 19.0001C33.4 18.3001 32.8 18.0001 32 18.0001H27.6L22.5 11.0001H17C15.3 11.0001 14 12.3001 14 14.0001H12V8.1001H6V14.2001C4.8 14.6001 4 15.7001 4 17.0001V18.1001V20.0001V24.3001L4.1 24.2001C4.6 23.7001 5.2 23.4001 5.9 23.2001ZM8 10.0001H10V14.0001H8V10.0001ZM6 17.0001C6 16.4001 6.4 16.0001 7 16.0001H16V14.0001C16 13.4001 16.4 13.0001 17 13.0001H22L22.6 14.0001H18V16.0001H23.8L25 18.1001H6V17.0001Z" fill="#01070E"/>
</svg>
