<svg width="36" height="36" viewBox="0 0 36 36" fill="none" xmlns="http://www.w3.org/2000/svg">
<path d="M30 30.2001V12.0001L21.9 4.1001H7.8C6.8 4.1001 6 4.9001 6 6.0001V30.2001C6 31.2001 6.7 32.0001 7.7 32.0001H7.8H28.1C29.1 32.0001 29.9 31.3001 29.9 30.3001C30 30.3001 30 30.2001 30 30.2001ZM22 6.6001L27.6 12.0001H22V6.6001ZM28 30.0001H7.9L8 6.0001H20V14.0001H28V30.0001Z" fill="#01070E"/>
<path d="M12 24C12 25.7 13.3 27 15 27C16.7 27 18 25.7 18 24V20H12V24ZM13.4 24V21.4H16.6V24C16.7 24.9 16 25.7 15.1 25.7C14.2 25.8 13.4 25.1 13.4 24.2C13.4 24.2 13.4 24.1 13.4 24Z" fill="#01070E"/>
<path d="M18.2 9C18.2 8.4 17.8 8 17.2 8H15V10H17.2C17.8 10 18.2 9.6 18.2 9Z" fill="#01070E"/>
<path d="M12.6992 10C12.0992 10 11.6992 10.4 11.6992 11C11.6992 11.6 12.0992 12 12.6992 12H14.9992V10H12.6992Z" fill="#01070E"/>
<path d="M17.2 14C17.8 14 18.2 13.6 18.2 13C18.2 12.4 17.8 12 17.2 12H15V14H17.2Z" fill="#01070E"/>
<path d="M11.6992 15C11.6992 15.6 12.0992 16 12.6992 16H14.9992V14H12.6992C12.1992 14 11.6992 14.4 11.6992 15Z" fill="#01070E"/>
<path d="M17.2 18C17.8 18 18.2 17.6 18.2 17C18.2 16.4 17.8 16 17.2 16H15V18H17.2Z" fill="#01070E"/>
</svg>
