<svg width="36" height="36" viewBox="0 0 36 36" fill="none" xmlns="http://www.w3.org/2000/svg">
<path d="M30 9.00001H16.42L14.11 5.82001C13.9238 5.56521 13.68 5.35809 13.3984 5.21557C13.1169 5.07306 12.8056 4.99919 12.49 5.00001H6C5.46957 5.00001 4.96086 5.21072 4.58579 5.58579C4.21071 5.96087 4 6.46957 4 7.00001V29C4 29.5304 4.21071 30.0391 4.58579 30.4142C4.96086 30.7893 5.46957 31 6 31H30C30.5304 31 31.0391 30.7893 31.4142 30.4142C31.7893 30.0391 32 29.5304 32 29V11C32 10.4696 31.7893 9.96087 31.4142 9.58579C31.0391 9.21072 30.5304 9.00001 30 9.00001ZM30 29H6V13H13.31C13.8404 13 14.3491 12.7893 14.7242 12.4142C15.0993 12.0391 15.31 11.5304 15.31 11H6V7.00001H12.49L15.1 10.59C15.1931 10.7174 15.315 10.821 15.4558 10.8922C15.5966 10.9635 15.7522 11.0004 15.91 11H30V29Z" fill="#01070E"/>
<path d="M21.9109 22.4801C21.368 22.4889 20.8505 22.7117 20.4709 23.1001L14.7509 20.4401V20.0001L20.4109 17.3501C20.6958 17.647 21.0623 17.8527 21.4641 17.9413C21.8659 18.0299 22.2849 17.9973 22.6682 17.8477C23.0515 17.6981 23.3818 17.4382 23.6173 17.1008C23.8529 16.7635 23.9831 16.3639 23.9915 15.9525C23.9999 15.5412 23.8861 15.1366 23.6645 14.7899C23.4429 14.4432 23.1235 14.17 22.7466 14.0049C22.3697 13.8398 21.9524 13.7902 21.5473 13.8623C21.1422 13.9344 20.7677 14.125 20.4709 14.4101C20.071 14.7998 19.841 15.3317 19.8309 15.8901V16.1201L14.1909 18.7801C13.9075 18.4827 13.5423 18.276 13.1415 18.1859C12.7407 18.0959 12.3221 18.1265 11.9387 18.274C11.5553 18.4215 11.2241 18.6792 10.987 19.0146C10.7499 19.3501 10.6174 19.7483 10.6062 20.1589C10.5951 20.5696 10.7058 20.9744 10.9244 21.3222C11.143 21.67 11.4597 21.9453 11.8346 22.1133C12.2095 22.2814 12.6257 22.3347 13.0308 22.2664C13.4359 22.1982 13.8118 22.0116 14.1109 21.7301L14.1909 21.6501L19.8609 24.3101V24.6101C19.8629 25.0234 19.9874 25.4269 20.2187 25.7695C20.45 26.1121 20.7777 26.3784 21.1604 26.5348C21.543 26.6911 21.9634 26.7305 22.3685 26.6479C22.7735 26.5653 23.1449 26.3645 23.4358 26.0708C23.7267 25.7771 23.924 25.4038 24.0027 24.998C24.0814 24.5922 24.038 24.1721 23.878 23.791C23.718 23.4099 23.4485 23.0847 23.1037 22.8567C22.759 22.6287 22.3543 22.5081 21.9409 22.5101L21.9109 22.4801Z" fill="#01070E"/>
</svg>
