<svg width="36" height="36" viewBox="0 0 36 36" fill="none" xmlns="http://www.w3.org/2000/svg">
<path d="M24.1192 20.3501C23.3317 20.3659 22.5663 20.6138 21.9192 21.0628C21.272 21.5118 20.7718 22.1419 20.4812 22.874C20.1907 23.6062 20.1228 24.4078 20.2861 25.1784C20.4493 25.949 20.8365 26.6542 21.3989 27.2056C21.9614 27.7571 22.6742 28.1302 23.4478 28.2781C24.2215 28.4261 25.0216 28.3424 25.7479 28.0374C26.4741 27.7324 27.0942 27.2198 27.5303 26.5639C27.9663 25.9079 28.1991 25.1378 28.1992 24.3501C28.1834 23.2803 27.746 22.26 26.982 21.511C26.2179 20.7619 25.1891 20.3448 24.1192 20.3501ZM24.1192 26.8101C23.6409 26.8003 23.1761 26.6495 22.7831 26.3765C22.3901 26.1036 22.0864 25.7207 21.9102 25.2759C21.7339 24.8311 21.6928 24.3442 21.7922 23.8762C21.8915 23.4081 22.1268 22.9798 22.4685 22.645C22.8103 22.3101 23.2433 22.0836 23.7132 21.9938C24.1832 21.904 24.6692 21.955 25.1103 22.1403C25.5514 22.3256 25.928 22.637 26.1929 23.0355C26.4578 23.4339 26.5991 23.9017 26.5992 24.3801C26.5966 24.7032 26.5304 25.0226 26.4043 25.32C26.2783 25.6175 26.0949 25.8872 25.8646 26.1138C25.6343 26.3404 25.3616 26.5194 25.0622 26.6406C24.7627 26.7618 24.4423 26.8228 24.1192 26.8201V26.8101Z" fill="#01070E"/>
<path d="M33.8294 23.4298C33.8397 23.1929 33.7772 22.9586 33.6502 22.7583C33.5233 22.5581 33.338 22.4015 33.1194 22.3098L31.4394 21.8098C31.3494 21.5698 31.2594 21.3298 31.1494 21.0998L31.9294 19.6598C32.0465 19.4393 32.0893 19.1868 32.0515 18.94C32.0137 18.6932 31.8972 18.4651 31.7194 18.2898L30.2994 16.8798C30.1229 16.7036 29.8943 16.589 29.6475 16.553C29.4007 16.517 29.1489 16.5614 28.9294 16.6798L27.4794 17.4398C27.2318 17.3199 26.9782 17.2131 26.7194 17.1198L26.2394 15.5398C26.1593 15.3108 26.0087 15.1129 25.8094 14.9746C25.61 14.8363 25.372 14.7646 25.1294 14.7698H23.1294C22.8809 14.7696 22.639 14.8492 22.4392 14.9968C22.2394 15.1444 22.0922 15.3523 22.0194 15.5898L21.5494 17.1298C21.2872 17.2226 21.0301 17.3294 20.7794 17.4498L19.3594 16.6898C19.141 16.5738 18.8912 16.5307 18.6466 16.5666C18.4019 16.6026 18.1752 16.7158 17.9994 16.8898L16.5494 18.2898C16.3693 18.4658 16.2515 18.6957 16.2136 18.9447C16.1757 19.1936 16.2199 19.4481 16.3394 19.6698L17.0794 20.9998C16.9632 21.2409 16.8597 21.4879 16.7694 21.7398L15.1894 22.2098C14.9492 22.2794 14.7382 22.4254 14.5884 22.6257C14.4386 22.826 14.3582 23.0697 14.3594 23.3198V25.3198C14.3604 25.5682 14.4418 25.8096 14.5914 26.0079C14.741 26.2062 14.9508 26.3507 15.1894 26.4198L16.7794 26.8898C16.8702 27.135 16.9736 27.3753 17.0894 27.6098L16.3094 29.0698C16.1923 29.2903 16.1494 29.5428 16.1873 29.7896C16.2251 30.0364 16.3416 30.2645 16.5194 30.4398L17.9394 31.8398C18.1147 32.0176 18.3428 32.1341 18.5896 32.1719C18.8364 32.2097 19.0888 32.1669 19.3094 32.0498L20.7894 31.2698C21.0194 31.3798 21.2594 31.4698 21.5094 31.5598L21.9994 33.1798C22.074 33.4155 22.2219 33.6211 22.4215 33.7668C22.6212 33.9125 22.8622 33.9907 23.1094 33.9898H25.1094C25.3578 33.99 25.5998 33.9104 25.7996 33.7628C25.9994 33.6152 26.1466 33.4073 26.2194 33.1698L26.6894 31.5898C26.9294 31.5098 27.1594 31.4098 27.3894 31.2998L28.8894 32.0898C29.1078 32.2058 29.3575 32.2489 29.6022 32.2129C29.8469 32.177 30.0736 32.0637 30.2494 31.8898L31.6694 30.4898C31.8494 30.3137 31.9673 30.0839 32.0052 29.8349C32.0431 29.586 31.9989 29.3314 31.8794 29.1098L31.0894 27.6598C31.1961 27.4331 31.2927 27.2031 31.3794 26.9698L32.9994 26.4998C33.2396 26.4302 33.4506 26.2842 33.6004 26.0839C33.7502 25.8836 33.8306 25.6399 33.8294 25.3898V23.4298ZM32.2294 25.0598L30.1194 25.6798L29.9994 26.0998C29.876 26.5133 29.7084 26.9123 29.4994 27.2898L29.2894 27.6698L30.2894 29.5798L29.2894 30.5798L27.2894 29.5798L26.9194 29.7798C26.5376 29.9845 26.1354 30.1488 25.7194 30.2698L25.2994 30.3898L24.6694 32.4798H23.4194L22.7894 30.3998L22.3694 30.2798C21.95 30.1593 21.5444 29.9951 21.1594 29.7898L20.7894 29.5898L18.8494 30.5898L17.8494 29.5898L18.8494 27.6498L18.6294 27.2698C18.4287 26.8651 18.2744 26.4391 18.1694 25.9998L17.9994 25.6298L15.9994 24.9998V23.6898L17.9994 23.0798L18.1294 22.6698C18.2591 22.2411 18.4369 21.8285 18.6594 21.4398L18.8994 20.9998L17.8994 19.1498L18.8994 18.2098L20.7894 19.2098L21.1694 18.9998C21.5691 18.7809 21.9916 18.6065 22.4294 18.4798L22.8394 18.3598L23.4694 16.3598H24.8494L25.4694 18.3598L25.8794 18.4798C26.3034 18.6091 26.7124 18.7834 27.0994 18.9998L27.4794 19.2098L29.3994 18.2098L30.3994 19.2098L29.3994 21.0998L29.6094 21.4798C29.8191 21.864 29.9868 22.2696 30.1094 22.6898L30.2294 23.1098L32.2894 23.7198L32.2294 25.0598Z" fill="#01070E"/>
<path d="M14.49 31H6V5H21.87L23 3H6C5.46957 3 4.96086 3.21071 4.58579 3.58579C4.21071 3.96086 4 4.46957 4 5V31C4 31.5304 4.21071 32.0391 4.58579 32.4142C4.96086 32.7893 5.46957 33 6 33H16.23L15.13 31.92C14.8627 31.6546 14.6459 31.3429 14.49 31Z" fill="#01070E"/>
<path d="M26.8504 1.13981L21.1304 10.9998C20.9973 11.1951 20.9209 11.4235 20.9097 11.6596C20.8984 11.8957 20.9527 12.1303 21.0666 12.3374C21.1806 12.5445 21.3496 12.716 21.555 12.8329C21.7604 12.9498 21.9942 13.0076 22.2304 12.9998H33.6804C33.9166 13.0076 34.1504 12.9498 34.3558 12.8329C34.5612 12.716 34.7302 12.5445 34.8441 12.3374C34.958 12.1303 35.0123 11.8957 35.0011 11.6596C34.9898 11.4235 34.9135 11.1951 34.7804 10.9998L29.0604 1.13981C28.9476 0.946869 28.7862 0.786825 28.5923 0.675603C28.3985 0.564381 28.1789 0.505859 27.9554 0.505859C27.7319 0.505859 27.5123 0.564381 27.3184 0.675603C27.1245 0.786825 26.9632 0.946869 26.8504 1.13981Z" fill="#01070E"/>
</svg>
