<svg width="36" height="36" viewBox="0 0 36 36" fill="none" xmlns="http://www.w3.org/2000/svg">
<path d="M31 34H13C12.7348 34 12.4804 33.8946 12.2929 33.7071C12.1054 33.5196 12 33.2652 12 33V11C12 10.7348 12.1054 10.4804 12.2929 10.2929C12.4804 10.1054 12.7348 10 13 10H31C31.2652 10 31.5196 10.1054 31.7071 10.2929C31.8946 10.4804 32 10.7348 32 11V33C32 33.2652 31.8946 33.5196 31.7071 33.7071C31.5196 33.8946 31.2652 34 31 34ZM14 32H30V12H14V32Z" fill="#01070E"/>
<path d="M28 16H16V18H28V16Z" fill="#01070E"/>
<path d="M28 20H16V22H28V20Z" fill="#01070E"/>
<path d="M28 24H16V26H28V24Z" fill="#01070E"/>
<path d="M6 24V4H24V3C24 2.73478 23.8946 2.48043 23.7071 2.29289C23.5196 2.10536 23.2652 2 23 2H5C4.73478 2 4.48043 2.10536 4.29289 2.29289C4.10536 2.48043 4 2.73478 4 3V25C4 25.2652 4.10536 25.5196 4.29289 25.7071C4.48043 25.8946 4.73478 26 5 26H6V24Z" fill="#01070E"/>
<path d="M10 28V8H28V7C28 6.73478 27.8946 6.48043 27.7071 6.29289C27.5196 6.10536 27.2652 6 27 6H9C8.73478 6 8.48043 6.10536 8.29289 6.29289C8.10536 6.48043 8 6.73478 8 7V29C8 29.2652 8.10536 29.5196 8.29289 29.7071C8.48043 29.8946 8.73478 30 9 30H10V28Z" fill="#01070E"/>
</svg>
