<svg width="24" height="28" viewBox="0 0 24 28" fill="none" xmlns="http://www.w3.org/2000/svg">
<g clip-path="url(#clip0_1335_3670)">
<path d="M19.0001 0H1.83012C1.33585 0.0156685 0.867411 0.224432 0.525294 0.581505C0.183177 0.938578 -0.005365 1.41552 0.00011625 1.91V26.09C-0.005365 26.5845 0.183177 27.0614 0.525294 27.4185C0.867411 27.7756 1.33585 27.9843 1.83012 28H22.1701C22.4157 27.9948 22.6579 27.9413 22.8828 27.8425C23.1077 27.7437 23.3109 27.6015 23.4808 27.4241C23.6508 27.2468 23.7841 27.0376 23.8732 26.8087C23.9623 26.5798 24.0054 26.3356 24.0001 26.09V5L19.0001 0ZM18.0001 1.78L22.2001 6H18.0001V1.78ZM2.00012 26V2H16.0001V8H22.0001V26H2.00012Z" fill="#01070E"/>
<path d="M16.0008 17.8101C15.459 17.8242 14.9433 18.0462 14.5608 18.4301L8.84078 15.7701V15.3301L14.5008 12.6801C14.7856 12.977 15.1521 13.1828 15.5539 13.2714C15.9557 13.36 16.3747 13.3274 16.758 13.1778C17.1413 13.0282 17.4716 12.7683 17.7072 12.4309C17.9427 12.0936 18.0729 11.694 18.0813 11.2826C18.0897 10.8712 17.9759 10.4666 17.7543 10.12C17.5327 9.77328 17.2133 9.50011 16.8364 9.33499C16.4596 9.16988 16.0422 9.12024 15.6372 9.19236C15.2321 9.26447 14.8575 9.4551 14.5608 9.74014C14.1626 10.1312 13.933 10.6622 13.9208 11.2201V11.4501L8.28078 14.1101C7.99731 13.8128 7.63214 13.6061 7.23132 13.516C6.83051 13.4259 6.41199 13.4566 6.02857 13.6041C5.64515 13.7515 5.31398 14.0093 5.07684 14.3447C4.83971 14.6802 4.70721 15.0784 4.69608 15.489C4.68494 15.8997 4.79566 16.3044 5.01427 16.6522C5.23288 17.0001 5.54959 17.2754 5.92445 17.4434C6.29932 17.6115 6.71555 17.6647 7.12066 17.5965C7.52577 17.5283 7.90161 17.3417 8.20078 17.0601L8.28078 16.9801L13.9508 19.6401V19.9401C13.9528 20.3548 14.0782 20.7594 14.3108 21.1026C14.5435 21.4458 14.873 21.712 15.2574 21.8674C15.6418 22.0228 16.0637 22.0604 16.4695 21.9753C16.8753 21.8902 17.2467 21.6864 17.5363 21.3897C17.8259 21.093 18.0208 20.7169 18.096 20.3091C18.1713 19.9014 18.1236 19.4805 17.959 19.0999C17.7943 18.7194 17.5203 18.3964 17.1716 18.1721C16.8229 17.9478 16.4153 17.8322 16.0008 17.8401V17.8101Z" fill="#01070E"/>
</g>
<defs>
<clipPath id="clip0_1335_3670">
<rect width="24.0006" height="28" fill="white"/>
</clipPath>
</defs>
</svg>
