<svg width="36" height="36" viewBox="0 0 36 36" fill="none" xmlns="http://www.w3.org/2000/svg">
<path d="M30 4H6C5.46957 4 4.96086 4.21071 4.58579 4.58579C4.21071 4.96086 4 5.46957 4 6V30C4 30.5304 4.21071 31.0391 4.58579 31.4142C4.96086 31.7893 5.46957 32 6 32H30C30.5304 32 31.0391 31.7893 31.4142 31.4142C31.7893 31.0391 32 30.5304 32 30V6C32 5.46957 31.7893 4.96086 31.4142 4.58579C31.0391 4.21071 30.5304 4 30 4ZM30 30H6V6H30V30Z" fill="#01070E"/>
<path d="M14.6003 23.07C14.7827 23.1882 14.992 23.2585 15.2087 23.2742C15.4255 23.2899 15.6428 23.2506 15.8403 23.16L24.5703 19.16C24.7984 19.0571 24.9919 18.8905 25.1277 18.6803C25.2635 18.4701 25.3357 18.2252 25.3357 17.975C25.3357 17.7247 25.2635 17.4798 25.1277 17.2696C24.9919 17.0594 24.7984 16.8929 24.5703 16.79L15.8403 12.79C15.6401 12.6985 15.42 12.6593 15.2006 12.6762C14.9812 12.693 14.7696 12.7653 14.5857 12.8862C14.4018 13.0071 14.2517 13.1727 14.1493 13.3675C14.0469 13.5623 13.9956 13.7799 14.0003 14V22C14.0036 22.2141 14.0602 22.424 14.165 22.6108C14.2697 22.7976 14.4193 22.9554 14.6003 23.07ZM15.6003 14.47L23.3103 18L15.6003 21.51V14.47Z" fill="#01070E"/>
<path d="M10 7H8V10H10V7Z" fill="#01070E"/>
<path d="M16 7H14V10H16V7Z" fill="#01070E"/>
<path d="M22 7H20V10H22V7Z" fill="#01070E"/>
<path d="M28 7H26V10H28V7Z" fill="#01070E"/>
<path d="M10 26H8V29H10V26Z" fill="#01070E"/>
<path d="M16 26H14V29H16V26Z" fill="#01070E"/>
<path d="M22 26H20V29H22V26Z" fill="#01070E"/>
<path d="M28 26H26V29H28V26Z" fill="#01070E"/>
</svg>
