<svg width="36" height="36" viewBox="0 0 36 36" fill="none" xmlns="http://www.w3.org/2000/svg">
<path d="M34.0008 6.4C34.0008 5.6 33.3008 5 32.5008 5H10.3008L12.3008 7H32.0008V7.6L22.4008 17.2L23.8008 18.6L33.4008 9C33.8008 8.6 34.0008 8.1 34.0008 7.6V6.5V6.4Z" fill="#01070E"/>
<path d="M2.7 3.0001L4.7 5.0001H3.7C2.9 4.9001 2.1 5.5001 2 6.3001V7.4001C2 7.9001 2.2 8.4001 2.6 8.8001L14 20.2001V30.5001L15.9 31.3001V19.4001L4 7.5001V7.0001H6.7L20 20.3001V33.2001L22 34.0001C22 34.0001 22 34.0001 22 33.9001V22.3001L32.1 32.4001L33.5 31.0001L4.1 1.6001L2.7 3.0001Z" fill="#01070E"/>
</svg>
