<svg width="36" height="36" viewBox="0 0 36 36" fill="none" xmlns="http://www.w3.org/2000/svg">
<path d="M32 6H4C3.46957 6 2.96086 6.21071 2.58579 6.58579C2.21071 6.96086 2 7.46957 2 8V28C2 28.5304 2.21071 29.0391 2.58579 29.4142C2.96086 29.7893 3.46957 30 4 30H32C32.5304 30 33.0391 29.7893 33.4142 29.4142C33.7893 29.0391 34 28.5304 34 28V8C34 7.46957 33.7893 6.96086 33.4142 6.58579C33.0391 6.21071 32.5304 6 32 6ZM4 8H32V13.08H23.8V9.08H22V13.08H14V9.08H12V13.08H4V8ZM4 15H32V21.08H28.92V16.27H27V21.08H18.92V16.27H17V21.08H8.9V16.27H7V21.08H4V15ZM23.8 28V24.27H22.2V28H14V24.27H12.4V28H4V23H32V28H23.8Z" fill="#01070E"/>
</svg>
