<svg width="32" height="28" viewBox="0 0 32 28" fill="none" xmlns="http://www.w3.org/2000/svg">
<path d="M30 4H21.91V2.5C21.91 1.83696 21.6466 1.20107 21.1778 0.732233C20.7089 0.263392 20.073 0 19.41 0H12.41C11.747 0 11.1111 0.263392 10.6422 0.732233C10.1734 1.20107 9.91 1.83696 9.91 2.5V4H2C1.46957 4 0.960859 4.21071 0.585786 4.58579C0.210714 4.96086 0 5.46957 0 6V26C0 26.5304 0.210714 27.0391 0.585786 27.4142C0.960859 27.7893 1.46957 28 2 28H30C30.5304 28 31.0391 27.7893 31.4142 27.4142C31.7893 27.0391 32 26.5304 32 26V6C32 5.46957 31.7893 4.96086 31.4142 4.58579C31.0391 4.21071 30.5304 4 30 4ZM11.91 2.5C11.91 2.36739 11.9627 2.24021 12.0564 2.14645C12.1502 2.05268 12.2774 2 12.41 2H19.41C19.5426 2 19.6698 2.05268 19.7636 2.14645C19.8573 2.24021 19.91 2.36739 19.91 2.5V4H11.91V2.5ZM2 26V6H30V26H2Z" fill="#01070E"/>
<path d="M18.1495 23.2002H14.7395C14.3947 23.2002 14.064 23.0632 13.8202 22.8194C13.5764 22.5756 13.4395 22.245 13.4395 21.9002V19.2002H10.7395C10.5687 19.2002 10.3997 19.1666 10.242 19.1012C10.0842 19.0359 9.94093 18.9402 9.82021 18.8194C9.6995 18.6987 9.60374 18.5554 9.53841 18.3977C9.47308 18.24 9.43945 18.0709 9.43945 17.9002V14.5002C9.43945 14.3295 9.47308 14.1604 9.53841 14.0027C9.60374 13.845 9.6995 13.7017 9.82021 13.581C9.94093 13.4602 10.0842 13.3645 10.242 13.2992C10.3997 13.2338 10.5687 13.2002 10.7395 13.2002H13.4395V10.5002C13.4395 10.3295 13.4731 10.1604 13.5384 10.0027C13.6037 9.84498 13.6995 9.70167 13.8202 9.58096C13.9409 9.46024 14.0842 9.36448 14.242 9.29915C14.3997 9.23382 14.5687 9.2002 14.7395 9.2002H18.1495C18.4925 9.20283 18.8206 9.34096 19.0622 9.58447C19.3039 9.82799 19.4395 10.1571 19.4395 10.5002V13.2002H22.1495C22.4925 13.2028 22.8206 13.341 23.0622 13.5845C23.3039 13.828 23.4395 14.1571 23.4395 14.5002V17.9002C23.4395 18.2433 23.3039 18.5724 23.0622 18.8159C22.8206 19.0594 22.4925 19.1976 22.1495 19.2002H19.4395V21.9002C19.4395 22.2433 19.3039 22.5724 19.0622 22.8159C18.8206 23.0594 18.4925 23.1976 18.1495 23.2002ZM14.9995 21.6002H17.8095V17.6002H21.8095V14.8002H17.8095V10.8002H14.9995V14.8002H10.9995V17.6002H14.9995V21.6002Z" fill="#01070E"/>
</svg>
