<svg width="36" height="36" viewBox="0 0 36 36" fill="none" xmlns="http://www.w3.org/2000/svg">
<path d="M11.4902 19C12.3187 19 12.9902 18.3284 12.9902 17.5C12.9902 16.6716 12.3187 16 11.4902 16C10.6618 16 9.99023 16.6716 9.99023 17.5C9.99023 18.3284 10.6618 19 11.4902 19Z" fill="#01070E"/>
<path d="M33.4806 9.29006C33.3286 9.20229 33.1562 9.15608 32.9806 9.15608C32.8051 9.15608 32.6326 9.20229 32.4806 9.29006C29.1106 11.2901 26.5706 15.1001 25.5806 16.7401L24.8506 18.0001L23.8506 19.6201C22.0906 22.1101 18.7506 25.9801 15.0606 25.9801C10.4106 25.9801 6.31062 19.8301 5.22062 18.0401C6.31062 16.2501 10.4006 10.1001 15.0606 10.1001C18.6006 10.1001 21.8306 13.6801 23.6406 16.1701L23.9206 15.6901C23.9206 15.6901 24.2806 15.1801 24.8506 14.4401C22.7206 11.6401 19.1806 8.06006 15.0006 8.06006C8.41062 8.06006 3.33062 17.1301 3.12062 17.5201L2.89062 18.0001L3.16062 18.4801C3.37062 18.8701 8.45062 27.9401 15.0406 27.9401C20.1006 27.9401 24.2606 22.6001 26.0406 19.9401C26.0006 20.0001 27.1806 18.0001 27.1806 18.0001L27.2506 17.8901C27.7912 16.9174 28.4206 15.9968 29.1306 15.1401C29.9792 14.0451 30.9375 13.0399 31.9906 12.1401V23.8801C30.62 22.7078 29.4066 21.3634 28.3806 19.8801L28.2206 20.1401L27.2206 21.7301C28.6217 23.7007 30.3909 25.3816 32.4306 26.6801C32.5821 26.7699 32.7545 26.8182 32.9306 26.8201C33.1051 26.8159 33.2762 26.7714 33.4306 26.6901C33.5832 26.602 33.7098 26.4751 33.7976 26.3223C33.8854 26.1695 33.9313 25.9963 33.9306 25.8201V10.1601C33.9365 9.98862 33.8982 9.81855 33.8194 9.66619C33.7406 9.51383 33.624 9.3843 33.4806 9.29006Z" fill="#01070E"/>
</svg>
