<svg width="36" height="36" viewBox="0 0 36 36" fill="none" xmlns="http://www.w3.org/2000/svg">
<path d="M6 34C5.73478 34 5.48043 33.8946 5.29289 33.7071C5.10536 33.5196 5 33.2652 5 33V3C5 2.73478 5.10536 2.48043 5.29289 2.29289C5.48043 2.10536 5.73478 2 6 2C6.26522 2 6.51957 2.10536 6.70711 2.29289C6.89464 2.48043 7 2.73478 7 3V33C7 33.2652 6.89464 33.5196 6.70711 33.7071C6.51957 33.8946 6.26522 34 6 34Z" fill="#01070E"/>
<path d="M30.55 3.81976C30.398 3.73199 30.2255 3.68578 30.05 3.68578C29.8745 3.68578 29.702 3.73199 29.55 3.81976C27.6114 4.63467 25.5223 5.03 23.42 4.97976C21.6088 4.84723 19.8448 4.33984 18.24 3.48976C16.6905 2.66848 14.9885 2.17491 13.24 2.03976C11.7867 2.02332 10.3449 2.29876 9 2.84976V5.07976C10.3028 4.3669 11.7649 3.99537 13.25 3.99976C14.7206 4.14566 16.148 4.58065 17.45 5.27976C19.3101 6.25109 21.3551 6.81687 23.45 6.93976C25.3307 6.94631 27.2016 6.66988 29 6.11976V18.9498C27.2091 19.5854 25.3202 19.9003 23.42 19.8798C21.6088 19.7472 19.8448 19.2398 18.24 18.3898C16.6905 17.5685 14.9885 17.0749 13.24 16.9398C11.784 16.936 10.3421 17.2251 9 17.7898V19.9998C10.3028 19.2869 11.7649 18.9154 13.25 18.9198C14.7206 19.0657 16.148 19.5007 17.45 20.1998C19.3101 21.1711 21.3551 21.7369 23.45 21.8598C25.8545 21.9097 28.2417 21.4425 30.45 20.4898C30.6149 20.4067 30.7536 20.2795 30.8507 20.1224C30.9478 19.9653 30.9994 19.7844 31 19.5998V4.66976C31.0025 4.50167 30.9626 4.33567 30.8839 4.18711C30.8052 4.03854 30.6904 3.9122 30.55 3.81976Z" fill="#01070E"/>
</svg>
