<svg width="36" height="36" viewBox="0 0 36 36" fill="none" xmlns="http://www.w3.org/2000/svg">
<path d="M31.2996 16.66C30.1096 14.57 23.3596 2.51002 23.3596 2.51002C23.2731 2.35372 23.1463 2.22343 22.9924 2.13271C22.8386 2.04199 22.6632 1.99414 22.4846 1.99414C22.3059 1.99414 22.1306 2.04199 21.9767 2.13271C21.8228 2.22343 21.6961 2.35372 21.6096 2.51002L15.6096 13.15L12.6096 7.87002C12.5231 7.71372 12.3963 7.58343 12.2424 7.49271C12.0886 7.40199 11.9132 7.35414 11.7346 7.35414C11.5559 7.35414 11.3806 7.40199 11.2267 7.49271C11.0728 7.58343 10.9461 7.71372 10.8596 7.87002C10.8596 7.87002 5.39957 17.78 4.41957 19.5C3.46029 21.0294 2.96689 22.805 2.99957 24.61C2.99957 29.72 5.85957 34 11.6696 34H22.4796C28.2796 34 32.9996 29 32.9996 22.78C33.0394 20.6182 32.4487 18.4916 31.2996 16.66ZM22.4796 32H11.7696C8.12957 32 4.99957 28.66 4.99957 24.61C4.97177 23.1492 5.37525 21.7127 6.15957 20.48C6.88957 19.19 10.2096 13.27 11.8096 10.41L14.8096 15.69C14.8964 15.8445 15.0227 15.9731 15.1756 16.0627C15.3284 16.1523 15.5024 16.1997 15.6796 16.2C15.8568 16.1997 16.0307 16.1523 16.1836 16.0627C16.3364 15.9731 16.4627 15.8445 16.5496 15.69L22.4896 5.00002C24.3496 8.33002 28.6396 16 29.5596 17.6C30.5424 19.1458 31.0436 20.9488 30.9996 22.78C30.9996 27.87 27.1796 32 22.4796 32Z" fill="#01070E"/>
<path d="M25.7492 21.73C25.0992 20.57 21.3692 13.92 21.3692 13.92C21.3 13.795 21.1986 13.6908 21.0755 13.6182C20.9524 13.5456 20.8121 13.5073 20.6692 13.5073C20.5263 13.5073 20.386 13.5456 20.2629 13.6182C20.1398 13.6908 20.0384 13.795 19.9692 13.92L15.7692 21.4L14.1792 18.91C14.107 18.7965 14.0072 18.7029 13.8892 18.6382C13.7712 18.5734 13.6388 18.5394 13.5042 18.5394C13.3696 18.5394 13.2372 18.5734 13.1192 18.6382C13.0012 18.7029 12.9015 18.7965 12.8292 18.91L9.36921 24.35C8.82434 25.1064 8.53688 26.0179 8.54921 26.95C8.5585 27.6465 8.72968 28.3312 9.04921 28.95H10.9992C10.4832 28.4099 10.1872 27.6968 10.1692 26.95C10.1567 26.3269 10.3539 25.7176 10.7292 25.22L13.5292 20.84L15.1892 23.44C15.2678 23.5626 15.3784 23.6613 15.509 23.7257C15.6396 23.79 15.7853 23.8175 15.9304 23.8052C16.0755 23.7928 16.2144 23.7411 16.3323 23.6556C16.4501 23.5701 16.5424 23.4541 16.5992 23.32C16.7172 23.0459 16.8507 22.7788 16.9992 22.52L20.6692 16L24.3592 22.57C24.8795 23.3768 25.1475 24.3202 25.1292 25.28C25.1278 25.9826 24.9784 26.677 24.6907 27.318C24.4029 27.959 23.9833 28.5321 23.4592 29H25.5892C26.3337 27.895 26.7307 26.5925 26.7292 25.26C26.7388 24.0215 26.3917 22.8065 25.7292 21.76L25.7492 21.73Z" fill="#01070E"/>
</svg>
