<svg width="36" height="36" viewBox="0 0 36 36" fill="none" xmlns="http://www.w3.org/2000/svg">
<path d="M31.4297 27.28L22.9997 14.84V4H23.9997C24.2649 4 24.5193 3.89464 24.7068 3.70711C24.8943 3.51957 24.9997 3.26522 24.9997 3C24.9997 2.73478 24.8943 2.48043 24.7068 2.29289C24.5193 2.10536 24.2649 2 23.9997 2H11.9997C11.7345 2 11.4801 2.10536 11.2926 2.29289C11.105 2.48043 10.9997 2.73478 10.9997 3C10.9997 3.26522 11.105 3.51957 11.2926 3.70711C11.4801 3.89464 11.7345 4 11.9997 4H12.9997V14.84L4.50969 27.36C3.94669 28.1825 3.68765 29.1754 3.77707 30.1681C3.86649 31.1608 4.29877 32.0914 4.99969 32.8C5.41946 33.1982 5.91396 33.5092 6.45463 33.7152C6.99529 33.9211 7.5714 34.0179 8.14969 34H27.9997C28.7787 33.9965 29.5418 33.7784 30.205 33.3697C30.8683 32.961 31.4061 32.3775 31.7594 31.6832C32.1128 30.9889 32.268 30.2106 32.2081 29.4339C32.1482 28.6571 31.8754 27.9119 31.4197 27.28H31.4297ZM29.8497 31C29.6107 31.3039 29.3075 31.5512 28.9617 31.7241C28.6159 31.897 28.2362 31.9912 27.8497 32H7.99969C7.5539 32.0014 7.11821 31.8673 6.75034 31.6155C6.38246 31.3637 6.09977 31.0061 5.93969 30.59C5.83257 30.2283 5.80303 29.848 5.853 29.474C5.90297 29.1001 6.03133 28.7409 6.22969 28.42L9.22969 23.98H23.2297L21.9197 21.98H10.5697L14.9997 15.46V4H20.9997V15.46L29.8397 28.51C30.0888 28.877 30.2228 29.3099 30.2246 29.7535C30.2264 30.197 30.0958 30.631 29.8497 31Z" fill="#01070E"/>
</svg>
