<svg width="36" height="36" viewBox="0 0 36 36" fill="none" xmlns="http://www.w3.org/2000/svg">
<path d="M27.36 4H6C5.46957 4 4.96086 4.21071 4.58579 4.58579C4.21071 4.96086 4 5.46957 4 6V30C4 30.5304 4.21071 31.0391 4.58579 31.4142C4.96086 31.7893 5.46957 32 6 32H30C30.5304 32 31.0391 31.7893 31.4142 31.4142C31.7893 31.0391 32 30.5304 32 30V8.78L27.36 4ZM25 30H11V22H25V30ZM30 30H27V22C27 21.4696 26.7893 20.9609 26.4142 20.5858C26.0391 20.2107 25.5304 20 25 20H11C10.4696 20 9.96086 20.2107 9.58579 20.5858C9.21071 20.9609 9 21.4696 9 22V30H6V6H10V12C10 12.5304 10.2107 13.0391 10.5858 13.4142C10.9609 13.7893 11.4696 14 12 14H24C24.5304 14 25.0391 13.7893 25.4142 13.4142C25.7893 13.0391 26 12.5304 26 12H12V6H26.51L30 9.59V30Z" fill="#01070E"/>
</svg>
