<svg width="36" height="36" viewBox="0 0 36 36" fill="none" xmlns="http://www.w3.org/2000/svg">
<path d="M33.68 15.4H33.38L29.55 29H6.9L10.78 15.19C10.8747 15.068 11.0092 14.9831 11.16 14.95H20.58C19.9289 14.6508 19.3797 14.1676 19 13.56C18.8976 13.3811 18.8106 13.1937 18.74 13H11.17C10.691 13.0203 10.2271 13.1732 9.82984 13.4415C9.43259 13.7099 9.11762 14.0832 8.92 14.52C8.91673 14.5666 8.91673 14.6134 8.92 14.66L6 25V7.00001H12.49L15.1 10.59C15.1931 10.7174 15.315 10.821 15.4558 10.8922C15.5966 10.9635 15.7522 11.0004 15.91 11H18.64C18.6999 10.6131 18.8214 10.2384 19 9.89001L19.56 9.00001H16.42L14.11 5.82001C13.9238 5.56521 13.68 5.35809 13.3984 5.21557C13.1169 5.07306 12.8056 4.99919 12.49 5.00001H6C5.46957 5.00001 4.96086 5.21072 4.58579 5.58579C4.21071 5.96087 4 6.46957 4 7.00001V29.69C4.01561 30.0499 4.17233 30.3891 4.43622 30.6343C4.70012 30.8795 5.04995 31.0109 5.41 31H30.34C30.5631 31.0089 30.7828 30.9428 30.9641 30.8123C31.1453 30.6818 31.2776 30.4944 31.34 30.28L35.53 15.18C35.5637 15.0759 35.5871 14.9687 35.6 14.86C35.0221 15.2138 34.3576 15.4007 33.68 15.4Z" fill="#01070E"/>
<path d="M26.8504 1.13981L21.1304 10.9998C20.9973 11.1951 20.9209 11.4235 20.9097 11.6596C20.8984 11.8957 20.9527 12.1303 21.0666 12.3374C21.1806 12.5445 21.3496 12.716 21.555 12.8329C21.7604 12.9498 21.9942 13.0076 22.2304 12.9998H33.6804C33.9166 13.0076 34.1504 12.9498 34.3558 12.8329C34.5612 12.716 34.7302 12.5445 34.8441 12.3374C34.958 12.1303 35.0123 11.8957 35.0011 11.6596C34.9898 11.4235 34.9135 11.1951 34.7804 10.9998L29.0604 1.13981C28.9476 0.946869 28.7862 0.786825 28.5923 0.675603C28.3985 0.564381 28.1789 0.505859 27.9554 0.505859C27.7319 0.505859 27.5123 0.564381 27.3184 0.675603C27.1245 0.786825 26.9632 0.946869 26.8504 1.13981Z" fill="#01070E"/>
</svg>
