<svg width="36" height="36" viewBox="0 0 36 36" fill="none" xmlns="http://www.w3.org/2000/svg">
<path d="M35.32 13.74C35.1588 13.5059 34.9419 13.3156 34.6887 13.1864C34.4355 13.0572 34.1542 12.9931 33.87 13H11.17C10.691 13.0203 10.2271 13.1732 9.82984 13.4415C9.43259 13.7099 9.11762 14.0832 8.92 14.52C8.91673 14.5666 8.91673 14.6134 8.92 14.66L6 25V7.00001H12.49L15.1 10.59C15.1931 10.7174 15.315 10.821 15.4558 10.8922C15.5966 10.9635 15.7522 11.0004 15.91 11H32C32 10.4696 31.7893 9.96087 31.4142 9.58579C31.0391 9.21072 30.5304 9.00001 30 9.00001H16.42L14.11 5.82001C13.9238 5.56521 13.68 5.35809 13.3984 5.21557C13.1169 5.07306 12.8056 4.99919 12.49 5.00001H6C5.46957 5.00001 4.96086 5.21072 4.58579 5.58579C4.21071 5.96087 4 6.46957 4 7.00001V29.69C4.01561 30.0499 4.17233 30.3891 4.43622 30.6343C4.70012 30.8795 5.04995 31.0109 5.41 31H30.34C30.5631 31.0089 30.7828 30.9428 30.9641 30.8123C31.1453 30.6818 31.2776 30.4944 31.34 30.28L35.53 15.18C35.6082 14.94 35.6299 14.6852 35.5935 14.4354C35.557 14.1857 35.4635 13.9477 35.32 13.74ZM29.55 29H6.9L10.78 15.19C10.8747 15.068 11.0092 14.9831 11.16 14.95H33.49L29.55 29Z" fill="#01070E"/>
</svg>
