<svg width="36" height="36" viewBox="0 0 36 36" fill="none" xmlns="http://www.w3.org/2000/svg">
<path d="M21.0008 9.08012C20.9878 8.78744 20.8617 8.51122 20.649 8.30974C20.4364 8.10825 20.1537 7.99724 19.8608 8.00012H4.62078C4.46819 7.98552 4.31423 8.00297 4.16878 8.05136C4.02333 8.09975 3.8896 8.178 3.77616 8.2811C3.66273 8.3842 3.57209 8.50987 3.51007 8.65005C3.44805 8.79023 3.41602 8.94183 3.41602 9.09512C3.41602 9.24841 3.44805 9.4 3.51007 9.54018C3.57209 9.68036 3.66273 9.80603 3.77616 9.90913C3.8896 10.0122 4.02333 10.0905 4.16878 10.1389C4.31423 10.1873 4.46819 10.2047 4.62078 10.1901H11.0008V27.0001C11.0267 27.2699 11.1522 27.5204 11.3528 27.7026C11.5534 27.8849 11.8147 27.9858 12.0858 27.9858C12.3568 27.9858 12.6181 27.8849 12.8187 27.7026C13.0193 27.5204 13.1448 27.2699 13.1708 27.0001V10.1901H19.8608C20.158 10.1902 20.4435 10.0742 20.6565 9.86689C20.8694 9.65955 20.993 9.37723 21.0008 9.08012Z" fill="#01070E"/>
<path d="M30.6701 15.0001H21.1501C20.9975 14.9855 20.8435 15.003 20.6981 15.0514C20.5526 15.0997 20.4189 15.178 20.3055 15.2811C20.192 15.3842 20.1014 15.5099 20.0394 15.6501C19.9774 15.7902 19.9453 15.9418 19.9453 16.0951C19.9453 16.2484 19.9774 16.4 20.0394 16.5402C20.1014 16.6804 20.192 16.806 20.3055 16.9091C20.4189 17.0122 20.5526 17.0905 20.6981 17.1389C20.8435 17.1873 20.9975 17.2047 21.1501 17.1901H25.0001V26.5001C25.026 26.7699 25.1515 27.0204 25.3521 27.2026C25.5527 27.3849 25.814 27.4858 26.0851 27.4858C26.3561 27.4858 26.6174 27.3849 26.818 27.2026C27.0186 27.0204 27.1441 26.7699 27.1701 26.5001V17.2301H30.7101C30.8627 17.2447 31.0166 17.2273 31.1621 17.1789C31.3075 17.1305 31.4413 17.0522 31.5547 16.9491C31.6681 16.846 31.7588 16.7204 31.8208 16.5802C31.8828 16.44 31.9148 16.2884 31.9148 16.1351C31.9148 15.9818 31.8828 15.8302 31.8208 15.6901C31.7588 15.5499 31.6681 15.4242 31.5547 15.3211C31.4413 15.218 31.3075 15.1397 31.1621 15.0914C31.0166 15.043 30.8627 15.0255 30.7101 15.0401L30.6701 15.0001Z" fill="#01070E"/>
</svg>
