<svg width="36" height="36" viewBox="0 0 36 36" fill="none" xmlns="http://www.w3.org/2000/svg">
<path d="M18.3708 21.7102L10.3008 16.8802C10.1595 16.7919 10.0425 16.6698 9.96045 16.5248C9.87837 16.3799 9.8338 16.2167 9.83078 16.0502V6.27016L12.0708 9.27016C12.2392 9.48101 12.4845 9.61632 12.7526 9.64632C12.8854 9.66118 13.0198 9.64974 13.1482 9.61265C13.2766 9.57556 13.3964 9.51355 13.5008 9.43016C13.6052 9.34677 13.6921 9.24363 13.7567 9.12664C13.8212 9.00965 13.8621 8.88108 13.8769 8.7483C13.8918 8.61551 13.8804 8.48109 13.8433 8.35273C13.8062 8.22436 13.7442 8.10456 13.6608 8.00016L9.66078 2.67016C9.56768 2.53512 9.44278 2.42506 9.29711 2.34967C9.15144 2.27429 8.98946 2.23589 8.82545 2.23787C8.66144 2.23984 8.50043 2.28213 8.35662 2.36101C8.21281 2.43988 8.09061 2.55292 8.00078 2.69016L4.00078 8.00016C3.92199 8.10522 3.86466 8.22477 3.83207 8.35198C3.79948 8.47919 3.79226 8.61158 3.81083 8.74158C3.8294 8.87158 3.8734 8.99665 3.94031 9.10965C4.00721 9.22265 4.09572 9.32137 4.20078 9.40016C4.37388 9.52998 4.58441 9.60016 4.80078 9.60016C4.95519 9.60133 5.10776 9.56673 5.24656 9.49906C5.38535 9.4314 5.5066 9.33252 5.60078 9.21016L7.83078 6.21016V15.9902C7.82358 16.5139 7.95364 17.0305 8.20802 17.4884C8.46241 17.9463 8.83226 18.3296 9.28078 18.6002L17.3408 23.4202C17.542 23.5421 17.7084 23.7138 17.824 23.9187C17.9396 24.1236 18.0005 24.3549 18.0008 24.5902V33.4202C18.0008 33.6854 18.1061 33.9397 18.2937 34.1273C18.4812 34.3148 18.7356 34.4202 19.0008 34.4202C19.266 34.4202 19.5204 34.3148 19.7079 34.1273C19.8954 33.9397 20.0008 33.6854 20.0008 33.4202V24.5902C19.9997 24.0105 19.8492 23.4408 19.5636 22.9363C19.2781 22.4318 18.8672 22.0095 18.3708 21.7102Z" fill="#01070E"/>
<path d="M31.6607 7.99976L27.6607 2.66976C27.5674 2.54745 27.4471 2.44833 27.3092 2.38009C27.1713 2.31186 27.0195 2.27637 26.8657 2.27637C26.7119 2.27637 26.5601 2.31186 26.4222 2.38009C26.2843 2.44833 26.164 2.54745 26.0707 2.66976L22.0007 7.99976C21.8416 8.21193 21.7732 8.47863 21.8108 8.74118C21.8483 9.00373 21.9885 9.24063 22.2007 9.39976C22.3738 9.52958 22.5843 9.59976 22.8007 9.59976C22.9551 9.60093 23.1077 9.56633 23.2465 9.49866C23.3853 9.431 23.5065 9.33212 23.6007 9.20976L25.9207 6.13976V16.0298C25.9177 16.1963 25.8731 16.3595 25.791 16.5044C25.709 16.6494 25.592 16.7715 25.4507 16.8598L25.3407 16.9398L20.4707 20.8198C20.9406 21.307 21.3168 21.8764 21.5807 22.4998L26.5807 18.4998C27.0018 18.2296 27.3486 17.8585 27.5896 17.4201C27.8306 16.9817 27.9582 16.49 27.9607 15.9898V6.37976L30.1107 9.22976C30.1827 9.35404 30.2806 9.46137 30.3977 9.54443C30.5149 9.6275 30.6485 9.68435 30.7896 9.71114C30.9307 9.73792 31.0759 9.73399 31.2154 9.69963C31.3548 9.66527 31.4852 9.60128 31.5977 9.51201C31.7102 9.42273 31.8022 9.31028 31.8673 9.18229C31.9324 9.0543 31.9693 8.91378 31.9752 8.7703C31.9812 8.62681 31.9562 8.48371 31.9019 8.35075C31.8477 8.21779 31.7654 8.09808 31.6607 7.99976Z" fill="#01070E"/>
</svg>
