<svg width="36" height="36" viewBox="0 0 36 36" fill="none" xmlns="http://www.w3.org/2000/svg">
<path d="M20.12 34.0002H5.9C5.52348 34.0122 5.14838 33.9485 4.797 33.8127C4.44562 33.6768 4.12513 33.4718 3.85459 33.2096C3.58405 32.9475 3.36898 32.6336 3.22217 32.2867C3.07536 31.9398 2.99981 31.5669 3 31.1902V4.86016C3.02866 4.09264 3.36062 3.36783 3.92304 2.84477C4.48547 2.32172 5.23242 2.04314 6 2.07016H20.22C20.5882 2.06191 20.9542 2.12851 21.2959 2.26593C21.6375 2.40335 21.9478 2.60872 22.2077 2.8696C22.4676 3.13048 22.6719 3.44142 22.8081 3.78358C22.9443 4.12575 23.0096 4.49201 23 4.86016V31.1902C22.9988 31.5647 22.9229 31.9353 22.7768 32.2803C22.6308 32.6252 22.4175 32.9376 22.1494 33.1992C21.8813 33.4608 21.5637 33.6664 21.2153 33.8039C20.8668 33.9414 20.4945 34.0081 20.12 34.0002ZM5.9 4.00016C5.78409 3.99615 5.66854 4.01536 5.56016 4.05666C5.45178 4.09796 5.35276 4.16051 5.2689 4.24064C5.18505 4.32076 5.11806 4.41685 5.07188 4.52324C5.0257 4.62963 5.00126 4.74418 5 4.86016V31.1902C5 31.4209 5.09166 31.6422 5.25482 31.8053C5.41797 31.9685 5.63926 32.0602 5.87 32.0602H20.12C20.3594 32.0634 20.5909 31.9751 20.7675 31.8135C20.944 31.6518 21.0522 31.4289 21.07 31.1902V4.86016C21.0498 4.62323 20.9405 4.40277 20.7643 4.24319C20.588 4.08361 20.3578 3.99677 20.12 4.00016H5.9Z" fill="#01070E"/>
<path d="M29.5303 34C29.0682 34.004 28.6098 33.9164 28.1817 33.7422C27.7536 33.5681 27.3642 33.3109 27.036 32.9855C26.7078 32.6601 26.4473 32.273 26.2696 31.8464C26.0918 31.4198 26.0003 30.9622 26.0003 30.5V23C26.0003 22.4696 25.7896 21.9609 25.4145 21.5858C25.0395 21.2107 24.5307 21 24.0003 21H22.5703C22.3051 21 22.0507 20.8946 21.8632 20.7071C21.6757 20.5196 21.5703 20.2652 21.5703 20C21.5703 19.7348 21.6757 19.4804 21.8632 19.2929C22.0507 19.1054 22.3051 19 22.5703 19H24.0003C25.0612 19 26.0786 19.4214 26.8287 20.1716C27.5789 20.9217 28.0003 21.9391 28.0003 23V30.5C28.0003 30.8978 28.1583 31.2794 28.4397 31.5607C28.721 31.842 29.1025 32 29.5003 32C29.8981 32 30.2797 31.842 30.561 31.5607C30.8423 31.2794 31.0003 30.8978 31.0003 30.5V17.3L27.8703 10.3C27.6833 9.90992 27.3896 9.58079 27.0233 9.35072C26.6569 9.12064 26.2329 8.99905 25.8003 9H25.0703C24.8051 9 24.5507 8.89464 24.3632 8.70711C24.1757 8.51957 24.0703 8.26522 24.0703 8C24.0703 7.73478 24.1757 7.48043 24.3632 7.29289C24.5507 7.10536 24.8051 7 25.0703 7H25.8003C26.6318 6.99957 27.4456 7.24022 28.1431 7.69281C28.8406 8.14539 29.3919 8.7905 29.7303 9.55L32.9403 16.71C32.999 16.8388 33.0297 16.9785 33.0303 17.12V30.5C33.0303 31.4283 32.6616 32.3185 32.0052 32.9749C31.3488 33.6313 30.4586 34 29.5303 34Z" fill="#01070E"/>
<path d="M18 9H8C7.73478 9 7.48043 8.89464 7.29289 8.70711C7.10536 8.51957 7 8.26522 7 8C7 7.73478 7.10536 7.48043 7.29289 7.29289C7.48043 7.10536 7.73478 7 8 7H18C18.2652 7 18.5196 7.10536 18.7071 7.29289C18.8946 7.48043 19 7.73478 19 8C19 8.26522 18.8946 8.51957 18.7071 8.70711C18.5196 8.89464 18.2652 9 18 9Z" fill="#01070E"/>
<path d="M18 13H8C7.73478 13 7.48043 12.8946 7.29289 12.7071C7.10536 12.5196 7 12.2652 7 12C7 11.7348 7.10536 11.4804 7.29289 11.2929C7.48043 11.1054 7.73478 11 8 11H18C18.2652 11 18.5196 11.1054 18.7071 11.2929C18.8946 11.4804 19 11.7348 19 12C19 12.2652 18.8946 12.5196 18.7071 12.7071C18.5196 12.8946 18.2652 13 18 13Z" fill="#01070E"/>
<path d="M25 12.0801C24.7348 12.0801 24.4804 11.9747 24.2929 11.7872C24.1054 11.5996 24 11.3453 24 11.0801V5.08008C24 4.81486 24.1054 4.56051 24.2929 4.37297C24.4804 4.18544 24.7348 4.08008 25 4.08008C25.2652 4.08008 25.5196 4.18544 25.7071 4.37297C25.8946 4.56051 26 4.81486 26 5.08008V11.0801C26 11.3453 25.8946 11.5996 25.7071 11.7872C25.5196 11.9747 25.2652 12.0801 25 12.0801Z" fill="#01070E"/>
</svg>
