<svg width="36" height="36" viewBox="0 0 36 36" fill="none" xmlns="http://www.w3.org/2000/svg">
<path d="M23.6992 10.4102C23.5676 10.411 23.4371 10.3858 23.3153 10.336C23.1934 10.2862 23.0826 10.2129 22.9892 10.1202L15.5592 2.69022C15.3722 2.49927 15.2687 2.24185 15.2715 1.97462C15.2744 1.70738 15.3832 1.4522 15.5742 1.26522C15.7651 1.07824 16.0225 0.974782 16.2898 0.977595C16.557 0.980408 16.8122 1.08927 16.9992 1.28022L24.4392 8.71022C24.5768 8.85061 24.67 9.02843 24.7071 9.22148C24.7442 9.41452 24.7235 9.61422 24.6478 9.79562C24.572 9.97701 24.4445 10.1321 24.2811 10.2414C24.1177 10.3507 23.9257 10.4094 23.7292 10.4102H23.6992Z" fill="#01070E"/>
<path d="M11.8599 22.25C11.8606 22.1184 11.8354 21.9879 11.7856 21.8661C11.7359 21.7443 11.6626 21.6335 11.5699 21.54L4.13987 14.11C3.95157 13.9217 3.69617 13.8159 3.42987 13.8159C3.16357 13.8159 2.90818 13.9217 2.71987 14.11C2.53157 14.2983 2.42578 14.5537 2.42578 14.82C2.42578 15.0863 2.53157 15.3417 2.71987 15.53L10.1499 23C10.2428 23.0937 10.3534 23.1681 10.4753 23.2189C10.5972 23.2697 10.7279 23.2958 10.8599 23.2958C10.9919 23.2958 11.1226 23.2697 11.2444 23.2189C11.3663 23.1681 11.4769 23.0937 11.5699 23C11.6675 22.9019 11.7437 22.7845 11.7936 22.6554C11.8435 22.5263 11.8661 22.3883 11.8599 22.25Z" fill="#01070E"/>
<path d="M21.9302 34.0002H3.00023C2.84275 34.0061 2.68612 33.9747 2.54309 33.9085C2.40007 33.8424 2.2747 33.7433 2.17722 33.6195C2.07973 33.4957 2.01288 33.3506 1.98212 33.1961C1.95137 33.0415 1.95757 32.8819 2.00023 32.7302L3.13023 28.7302C3.19072 28.5139 3.32226 28.3243 3.50367 28.1918C3.68507 28.0594 3.90578 27.9919 4.13023 28.0002H20.8002C21.0247 27.9919 21.2454 28.0594 21.4268 28.1918C21.6082 28.3243 21.7397 28.5139 21.8002 28.7302L22.9302 32.7302C22.9707 32.8785 22.9764 33.0342 22.9469 33.1851C22.9174 33.336 22.8535 33.478 22.7602 33.6002C22.6641 33.7285 22.5385 33.8319 22.394 33.9015C22.2496 33.9711 22.0905 34.005 21.9302 34.0002ZM4.31023 32.0002H20.6002L20.0002 30.0002H4.87023L4.31023 32.0002Z" fill="#01070E"/>
<path d="M33.1101 27.4399L19.1101 13.4399L21.4701 11.0799L14.5201 4.12988L5.58008 13.0699L12.5101 19.9999L14.8601 17.6599L28.8601 31.6599C29.4226 32.2217 30.1851 32.5372 30.9801 32.5372C31.7751 32.5372 32.5376 32.2217 33.1001 31.6599C33.6571 31.0995 33.9706 30.3421 33.9725 29.5519C33.9744 28.7618 33.6645 28.0029 33.1101 27.4399ZM8.40008 13.0699L14.5201 6.99988L18.6301 11.1099L12.5101 17.2199L8.40008 13.0699ZM31.6901 30.2699C31.5027 30.4561 31.2493 30.5607 30.9851 30.5607C30.7209 30.5607 30.4674 30.4561 30.2801 30.2699L16.2801 16.2699L17.6901 14.8599L31.6901 28.8599C31.8763 29.0472 31.9809 29.3007 31.9809 29.5649C31.9809 29.8291 31.8763 30.0825 31.6901 30.2699Z" fill="#01070E"/>
</svg>
