<svg width="36" height="36" viewBox="0 0 36 36" fill="none" xmlns="http://www.w3.org/2000/svg">
<path d="M14 4H6C5.46957 4 4.96086 4.21071 4.58579 4.58579C4.21071 4.96086 4 5.46957 4 6V14C4 14.5304 4.21071 15.0391 4.58579 15.4142C4.96086 15.7893 5.46957 16 6 16H14C14.5304 16 15.0391 15.7893 15.4142 15.4142C15.7893 15.0391 16 14.5304 16 14V6C16 5.46957 15.7893 4.96086 15.4142 4.58579C15.0391 4.21071 14.5304 4 14 4ZM6 14V6H14V14H6Z" fill="#01070E"/>
<path d="M30 4H22C21.4696 4 20.9609 4.21071 20.5858 4.58579C20.2107 4.96086 20 5.46957 20 6V14C20 14.5304 20.2107 15.0391 20.5858 15.4142C20.9609 15.7893 21.4696 16 22 16H30C30.5304 16 31.0391 15.7893 31.4142 15.4142C31.7893 15.0391 32 14.5304 32 14V6C32 5.46957 31.7893 4.96086 31.4142 4.58579C31.0391 4.21071 30.5304 4 30 4ZM22 14V6H30V14H22Z" fill="#01070E"/>
<path d="M14 20H6C5.46957 20 4.96086 20.2107 4.58579 20.5858C4.21071 20.9609 4 21.4696 4 22V30C4 30.5304 4.21071 31.0391 4.58579 31.4142C4.96086 31.7893 5.46957 32 6 32H14C14.5304 32 15.0391 31.7893 15.4142 31.4142C15.7893 31.0391 16 30.5304 16 30V22C16 21.4696 15.7893 20.9609 15.4142 20.5858C15.0391 20.2107 14.5304 20 14 20ZM6 30V22H14V30H6Z" fill="#01070E"/>
<path d="M30 20H22C21.4696 20 20.9609 20.2107 20.5858 20.5858C20.2107 20.9609 20 21.4696 20 22V30C20 30.5304 20.2107 31.0391 20.5858 31.4142C20.9609 31.7893 21.4696 32 22 32H30C30.5304 32 31.0391 31.7893 31.4142 31.4142C31.7893 31.0391 32 30.5304 32 30V22C32 21.4696 31.7893 20.9609 31.4142 20.5858C31.0391 20.2107 30.5304 20 30 20ZM22 30V22H30V30H22Z" fill="#01070E"/>
</svg>
