<svg width="36" height="36" viewBox="0 0 36 36" fill="none" xmlns="http://www.w3.org/2000/svg">
<path d="M15 17H4C3.46957 17 2.96086 16.7893 2.58579 16.4142C2.21071 16.0391 2 15.5304 2 15V8C2 7.46957 2.21071 6.96086 2.58579 6.58579C2.96086 6.21071 3.46957 6 4 6H15C15.5304 6 16.0391 6.21071 16.4142 6.58579C16.7893 6.96086 17 7.46957 17 8V15C17 15.5304 16.7893 16.0391 16.4142 16.4142C16.0391 16.7893 15.5304 17 15 17ZM4 8V15H15V8H4Z" fill="#01070E"/>
<path d="M32 17H21C20.4696 17 19.9609 16.7893 19.5858 16.4142C19.2107 16.0391 19 15.5304 19 15V8C19 7.46957 19.2107 6.96086 19.5858 6.58579C19.9609 6.21071 20.4696 6 21 6H32C32.5304 6 33.0391 6.21071 33.4142 6.58579C33.7893 6.96086 34 7.46957 34 8V15C34 15.5304 33.7893 16.0391 33.4142 16.4142C33.0391 16.7893 32.5304 17 32 17ZM21 8V15H32V8H21Z" fill="#01070E"/>
<path d="M15 30H4C3.46957 30 2.96086 29.7893 2.58579 29.4142C2.21071 29.0391 2 28.5304 2 28V21C2 20.4696 2.21071 19.9609 2.58579 19.5858C2.96086 19.2107 3.46957 19 4 19H15C15.5304 19 16.0391 19.2107 16.4142 19.5858C16.7893 19.9609 17 20.4696 17 21V28C17 28.5304 16.7893 29.0391 16.4142 29.4142C16.0391 29.7893 15.5304 30 15 30ZM4 21V28H15V21H4Z" fill="#01070E"/>
<path d="M32 30H21C20.4696 30 19.9609 29.7893 19.5858 29.4142C19.2107 29.0391 19 28.5304 19 28V21C19 20.4696 19.2107 19.9609 19.5858 19.5858C19.9609 19.2107 20.4696 19 21 19H32C32.5304 19 33.0391 19.2107 33.4142 19.5858C33.7893 19.9609 34 20.4696 34 21V28C34 28.5304 33.7893 29.0391 33.4142 29.4142C33.0391 29.7893 32.5304 30 32 30ZM21 21V28H32V21H21Z" fill="#01070E"/>
</svg>
