<svg width="36" height="36" viewBox="0 0 36 36" fill="none" xmlns="http://www.w3.org/2000/svg">
<path d="M33.9998 16.7798C34.3715 16.5029 34.6472 16.1167 34.7883 15.6752C34.9293 15.2337 34.9287 14.7592 34.7864 14.3181C34.6442 13.877 34.3675 13.4915 33.995 13.2156C33.6226 12.9398 33.1732 12.7873 32.7098 12.7798L23.7098 12.4398C23.6656 12.4367 23.6232 12.4209 23.5877 12.3943C23.5522 12.3677 23.5252 12.3314 23.5098 12.2898L20.3998 3.88978C20.2436 3.46242 19.9598 3.0934 19.5868 2.83268C19.2139 2.57196 18.7699 2.43213 18.3148 2.43213C17.8598 2.43213 17.4158 2.57196 17.0428 2.83268C16.6699 3.0934 16.3861 3.46242 16.2298 3.88978L13.1298 12.3198C13.1145 12.3614 13.0875 12.3977 13.052 12.4243C13.0165 12.4509 12.9741 12.4667 12.9298 12.4698L3.92984 12.8098C3.46645 12.8173 3.01704 12.9698 2.64463 13.2456C2.27223 13.5215 1.9955 13.907 1.85325 14.3481C1.711 14.7892 1.71036 15.2637 1.85143 15.7052C1.99249 16.1467 2.26818 16.5329 2.63984 16.8098L9.69984 22.3598C9.73625 22.3867 9.76347 22.4242 9.77779 22.4671C9.79211 22.5101 9.79282 22.5564 9.77984 22.5998L7.34984 31.2098C7.2647 31.5379 7.25549 31.8811 7.32291 32.2134C7.39033 32.5456 7.53261 32.8581 7.73893 33.1271C7.94524 33.396 8.21017 33.6145 8.51357 33.7657C8.81697 33.9169 9.15085 33.997 9.48984 33.9998C9.93178 33.9994 10.3635 33.867 10.7298 33.6198L18.1898 28.6198C18.2266 28.5944 18.2702 28.5808 18.3148 28.5808C18.3595 28.5808 18.4031 28.5944 18.4398 28.6198L25.8998 33.6198C26.2773 33.8759 26.7246 34.0094 27.1807 34.0023C27.6368 33.9952 28.0797 33.8478 28.449 33.5801C28.8183 33.3123 29.0962 32.9373 29.2449 32.5061C29.3936 32.0748 29.4058 31.6082 29.2798 31.1698L26.8298 22.5298C26.8183 22.4863 26.8197 22.4404 26.8339 22.3978C26.8481 22.3551 26.8745 22.3176 26.9098 22.2898L33.9998 16.7798ZM18.3298 26.6198C17.8878 26.6196 17.4559 26.752 17.0898 26.9998L9.61984 31.9998C9.58204 32.0285 9.53595 32.0442 9.48846 32.0446C9.44098 32.045 9.39465 32.03 9.35639 32.0019C9.31813 31.9737 9.29001 31.934 9.27621 31.8886C9.26241 31.8431 9.26369 31.7944 9.27984 31.7498L11.7298 23.1098C11.8548 22.6898 11.8522 22.2422 11.7222 21.8238C11.5922 21.4054 11.3408 21.035 10.9998 20.7598L3.89984 15.2098C3.86133 15.1827 3.83251 15.144 3.81761 15.0994C3.80271 15.0548 3.80252 15.0065 3.81706 14.9618C3.83161 14.917 3.86013 14.8781 3.89843 14.8507C3.93672 14.8234 3.98278 14.809 4.02984 14.8098L13.0298 14.4698C13.4665 14.446 13.8864 14.2938 14.2369 14.0323C14.5873 13.7708 14.8528 13.4116 14.9998 12.9998L18.0998 4.56978C18.1115 4.52401 18.139 4.48383 18.1774 4.45638C18.2158 4.42892 18.2628 4.41596 18.3098 4.41978L18.3298 26.6198Z" fill="#01070E"/>
</svg>
