<svg width="36" height="36" viewBox="0 0 36 36" fill="none" xmlns="http://www.w3.org/2000/svg">
<path d="M18 2C14.8355 2 11.7421 2.93838 9.11088 4.69649C6.4797 6.45459 4.42894 8.95345 3.21793 11.8771C2.00693 14.8007 1.69008 18.0177 2.30744 21.1214C2.92481 24.2251 4.44866 27.0761 6.6863 29.3137C8.92394 31.5513 11.7749 33.0752 14.8786 33.6926C17.9823 34.3099 21.1993 33.9931 24.1229 32.7821C27.0466 31.5711 29.5454 29.5203 31.3035 26.8891C33.0616 24.2579 34 21.1645 34 18C34 13.7565 32.3143 9.68687 29.3137 6.68629C26.3131 3.68571 22.2435 2 18 2ZM18 32C15.2311 32 12.5243 31.1789 10.222 29.6406C7.91974 28.1022 6.12532 25.9157 5.06569 23.3576C4.00607 20.7994 3.72882 17.9845 4.26901 15.2687C4.80921 12.553 6.14258 10.0584 8.10051 8.1005C10.0584 6.14257 12.553 4.8092 15.2687 4.26901C17.9845 3.72881 20.7994 4.00606 23.3576 5.06569C25.9157 6.12531 28.1022 7.91973 29.6406 10.222C31.1789 12.5243 32 15.2311 32 18C32 21.713 30.525 25.274 27.8995 27.8995C25.274 30.525 21.713 32 18 32Z" fill="#01070E"/>
<path d="M10.8906 15.8901C11.9952 15.8901 12.8906 14.9947 12.8906 13.8901C12.8906 12.7856 11.9952 11.8901 10.8906 11.8901C9.78606 11.8901 8.89062 12.7856 8.89062 13.8901C8.89062 14.9947 9.78606 15.8901 10.8906 15.8901Z" fill="#01070E"/>
<path d="M25.0508 15.8901C26.1554 15.8901 27.0508 14.9947 27.0508 13.8901C27.0508 12.7856 26.1554 11.8901 25.0508 11.8901C23.9462 11.8901 23.0508 12.7856 23.0508 13.8901C23.0508 14.9947 23.9462 15.8901 25.0508 15.8901Z" fill="#01070E"/>
<path d="M18.1291 28.21C19.9637 28.2124 21.7516 27.6328 23.2359 26.5546C24.7202 25.4765 25.8242 23.9553 26.3891 22.21H9.86914C10.4341 23.9553 11.5381 25.4765 13.0224 26.5546C14.5066 27.6328 16.2946 28.2124 18.1291 28.21Z" fill="#01070E"/>
</svg>
