<svg width="36" height="36" viewBox="0 0 36 36" fill="none" xmlns="http://www.w3.org/2000/svg">
<path d="M33.9994 21.08L30.8594 8.43C30.7364 8.01643 30.483 7.65372 30.137 7.396C29.791 7.13828 29.3709 6.99937 28.9394 7H7.05941C6.62108 6.99967 6.19478 7.14335 5.84607 7.40895C5.49737 7.67454 5.24557 8.04734 5.12941 8.47L1.99941 21.08C1.98978 21.1597 1.98978 21.2403 1.99941 21.32V29C1.99941 29.5304 2.21013 30.0391 2.5852 30.4142C2.96027 30.7893 3.46898 31 3.99941 31H31.9994C32.5298 31 33.0386 30.7893 33.4136 30.4142C33.7887 30.0391 33.9994 29.5304 33.9994 29V21.31C34.0083 21.2336 34.0083 21.1564 33.9994 21.08ZM3.99941 29V21.44L7.05941 9H28.9294L31.9994 21.44V29H3.99941Z" fill="#01070E"/>
<path d="M30 20H6V22H30V20Z" fill="#01070E"/>
<path d="M30 24H26V26H30V24Z" fill="#01070E"/>
</svg>
