<svg width="36" height="36" viewBox="0 0 36 36" fill="none" xmlns="http://www.w3.org/2000/svg">
<path d="M34 8C34 7.46957 33.7893 6.96086 33.4142 6.58579C33.0391 6.21071 32.5304 6 32 6H4C3.46957 6 2.96086 6.21071 2.58579 6.58579C2.21071 6.96086 2 7.46957 2 8V28C2 28.5304 2.21071 29.0391 2.58579 29.4142C2.96086 29.7893 3.46957 30 4 30H32C32.5304 30 33.0391 29.7893 33.4142 29.4142C33.7893 29.0391 34 28.5304 34 28V8ZM32 28H4V8H32V28Z" fill="#01070E"/>
<path d="M6.21094 11.5C6.90129 11.5 7.46094 10.9404 7.46094 10.25C7.46094 9.55964 6.90129 9 6.21094 9C5.52058 9 4.96094 9.55964 4.96094 10.25C4.96094 10.9404 5.52058 11.5 6.21094 11.5Z" fill="#01070E"/>
<path d="M29.8105 11.5C30.5009 11.5 31.0605 10.9404 31.0605 10.25C31.0605 9.55964 30.5009 9 29.8105 9C29.1202 9 28.5605 9.55964 28.5605 10.25C28.5605 10.9404 29.1202 11.5 29.8105 11.5Z" fill="#01070E"/>
<path d="M6.21094 26.6699C6.90129 26.6699 7.46094 26.1103 7.46094 25.4199C7.46094 24.7296 6.90129 24.1699 6.21094 24.1699C5.52058 24.1699 4.96094 24.7296 4.96094 25.4199C4.96094 26.1103 5.52058 26.6699 6.21094 26.6699Z" fill="#01070E"/>
<path d="M29.8105 26.6699C30.5009 26.6699 31.0605 26.1103 31.0605 25.4199C31.0605 24.7296 30.5009 24.1699 29.8105 24.1699C29.1202 24.1699 28.5605 24.7296 28.5605 25.4199C28.5605 26.1103 29.1202 26.6699 29.8105 26.6699Z" fill="#01070E"/>
<path d="M11.8809 18.0802C11.8809 18.7903 12.0914 19.4844 12.4859 20.0747C12.8804 20.6651 13.441 21.1252 14.097 21.397C14.753 21.6687 15.4748 21.7398 16.1712 21.6013C16.8676 21.4627 17.5073 21.1208 18.0094 20.6187C18.5114 20.1167 18.8534 19.477 18.9919 18.7806C19.1304 18.0842 19.0593 17.3624 18.7876 16.7064C18.5159 16.0504 18.0557 15.4897 17.4654 15.0953C16.875 14.7008 16.1809 14.4902 15.4709 14.4902C15.1634 14.497 14.8579 14.5406 14.5609 14.6202L15.0009 16.1602C15.1641 16.1167 15.332 16.0932 15.5009 16.0902C15.8964 16.0902 16.2831 16.2075 16.612 16.4273C16.9409 16.6471 17.1973 16.9594 17.3486 17.3249C17.5 17.6903 17.5396 18.0925 17.4624 18.4804C17.3853 18.8684 17.1948 19.2247 16.9151 19.5044C16.6354 19.7842 16.279 19.9746 15.891 20.0518C15.5031 20.129 15.101 20.0894 14.7355 19.938C14.37 19.7866 14.0577 19.5303 13.8379 19.2014C13.6182 18.8725 13.5009 18.4858 13.5009 18.0902C13.5015 17.9204 13.5285 17.7518 13.5809 17.5902L12.0009 17.1602C11.9206 17.4603 11.8802 17.7696 11.8809 18.0802Z" fill="#01070E"/>
<path d="M15.469 25.7302C13.4409 25.7275 11.4967 24.9207 10.0626 23.4866C8.62851 22.0526 7.82168 20.1083 7.81904 18.0802C7.81913 17.4044 7.90994 16.7318 8.08904 16.0802L6.53904 15.7002C5.94372 18.0408 6.28848 20.5214 7.49949 22.611C8.7105 24.7006 10.6915 26.2329 13.0183 26.88C15.3451 27.5271 17.8328 27.2374 19.9487 26.073C22.0646 24.9086 23.6405 22.9621 24.339 20.6502H22.659C22.1309 22.1352 21.1565 23.4205 19.8693 24.3299C18.5821 25.2394 17.0451 25.7285 15.469 25.7302Z" fill="#01070E"/>
<path d="M28.2198 17.8301C28.2198 17.6179 28.1356 17.4144 27.9855 17.2644C27.8355 17.1144 27.632 17.0301 27.4198 17.0301H24.6598C24.3999 14.7742 23.3201 12.6925 21.6258 11.1807C19.9314 9.66886 17.7406 8.83232 15.4698 8.83008C14.6661 8.83411 13.8661 8.94166 13.0898 9.15008L13.5098 10.6901C14.1626 10.5179 14.8348 10.4305 15.5098 10.4301C17.3367 10.4521 19.0955 11.1262 20.4689 12.331C21.8424 13.5357 22.74 15.1917 22.9998 17.0001H20.9198C20.7077 17.0001 20.5042 17.0844 20.3542 17.2344C20.2041 17.3844 20.1198 17.5879 20.1198 17.8001C20.1198 18.0123 20.2041 18.2157 20.3542 18.3658C20.5042 18.5158 20.7077 18.6001 20.9198 18.6001H27.4198C27.6269 18.6002 27.826 18.5201 27.9752 18.3765C28.1244 18.2329 28.2121 18.037 28.2198 17.8301Z" fill="#01070E"/>
</svg>
