<svg width="36" height="36" viewBox="0 0 36 36" fill="none" xmlns="http://www.w3.org/2000/svg">
<path d="M30 20H6V22H30V20Z" fill="#01070E"/>
<path d="M30 24H26V26H30V24Z" fill="#01070E"/>
<path d="M33.9994 21.08L32.5994 15.4H30.5094L31.9994 21.4V29H3.99941V21.44L7.05941 9H19.5594L20.7094 7H7.05941C6.62108 6.99967 6.19478 7.14335 5.84607 7.40895C5.49737 7.67454 5.24557 8.04734 5.12941 8.47L1.99941 21.08C1.98978 21.1597 1.98978 21.2403 1.99941 21.32V29C1.99941 29.5304 2.21013 30.0391 2.5852 30.4142C2.96027 30.7893 3.46898 31 3.99941 31H31.9994C32.5298 31 33.0386 30.7893 33.4136 30.4142C33.7887 30.0391 33.9994 29.5304 33.9994 29V21.31C34.0083 21.2336 34.0083 21.1564 33.9994 21.08Z" fill="#01070E"/>
<path d="M26.8504 1.13981L21.1304 10.9998C20.9973 11.1951 20.9209 11.4235 20.9097 11.6596C20.8984 11.8957 20.9527 12.1303 21.0666 12.3374C21.1806 12.5445 21.3496 12.716 21.555 12.8329C21.7604 12.9498 21.9942 13.0076 22.2304 12.9998H33.6804C33.9166 13.0076 34.1504 12.9498 34.3558 12.8329C34.5612 12.716 34.7302 12.5445 34.8441 12.3374C34.958 12.1303 35.0123 11.8957 35.0011 11.6596C34.9898 11.4235 34.9135 11.1951 34.7804 10.9998L29.0604 1.13981C28.9476 0.946869 28.7862 0.786825 28.5923 0.675603C28.3985 0.564381 28.1789 0.505859 27.9554 0.505859C27.7319 0.505859 27.5123 0.564381 27.3184 0.675603C27.1245 0.786825 26.9632 0.946869 26.8504 1.13981Z" fill="#01070E"/>
</svg>
