<svg width="36" height="36" viewBox="0 0 36 36" fill="none" xmlns="http://www.w3.org/2000/svg">
<path d="M26 5.74C26 5.27852 25.8167 4.83595 25.4904 4.50963C25.1641 4.18332 24.7215 4 24.26 4H3.74C3.27852 4 2.83595 4.18332 2.50963 4.50963C2.18332 4.83595 2 5.27852 2 5.74V20.26C2 20.7215 2.18332 21.1641 2.50963 21.4904C2.83595 21.8167 3.27852 22 3.74 22H4V6H26V5.74Z" fill="#01070E"/>
<path d="M30 9.74C30 9.27852 29.8167 8.83595 29.4904 8.50963C29.1641 8.18332 28.7215 8 28.26 8H7.74C7.27852 8 6.83595 8.18332 6.50963 8.50963C6.18332 8.83595 6 9.27852 6 9.74V24.26C6 24.7215 6.18332 25.1641 6.50963 25.4904C6.83595 25.8167 7.27852 26 7.74 26H8V10H30V9.74Z" fill="#01070E"/>
<path d="M32.26 12H11.74C11.2785 12 10.8359 12.1833 10.5096 12.5096C10.1833 12.8359 10 13.2785 10 13.74V28.26C10 28.7215 10.1833 29.1641 10.5096 29.4904C10.8359 29.8167 11.2785 30 11.74 30H32.26C32.4885 30 32.7148 29.955 32.9259 29.8675C33.137 29.7801 33.3288 29.6519 33.4904 29.4904C33.6519 29.3288 33.7801 29.137 33.8675 28.9259C33.955 28.7148 34 28.4885 34 28.26V13.74C34 13.5115 33.955 13.2852 33.8675 13.0741C33.7801 12.863 33.6519 12.6712 33.4904 12.5096C33.3288 12.3481 33.137 12.2199 32.9259 12.1324C32.7148 12.045 32.4885 12 32.26 12ZM32 28H12V14H32V28Z" fill="#01070E"/>
<path d="M19.9403 23.6802C20.4601 23.6684 20.9649 23.5033 21.3913 23.2057C21.8177 22.9081 22.1467 22.4912 22.337 22.0073C22.5273 21.5234 22.5705 20.994 22.4612 20.4857C22.3518 19.9773 22.0948 19.5126 21.7223 19.1498C21.3498 18.7869 20.8785 18.5422 20.3675 18.4462C19.8564 18.3503 19.3284 18.4074 18.8497 18.6103C18.3709 18.8133 17.9628 19.1532 17.6765 19.5872C17.3902 20.0213 17.2384 20.5302 17.2403 21.0502C17.2508 21.7566 17.5409 22.43 18.0469 22.923C18.553 23.4159 19.2338 23.6882 19.9403 23.6802ZM19.9403 19.8102C20.1831 19.82 20.4178 19.901 20.615 20.043C20.8122 20.1851 20.9634 20.382 21.0496 20.6093C21.1358 20.8366 21.1534 21.0842 21.1 21.3213C21.0467 21.5585 20.9248 21.7747 20.7496 21.9432C20.5743 22.1116 20.3534 22.2248 20.1144 22.2688C19.8753 22.3127 19.6286 22.2854 19.4049 22.1903C19.1812 22.0951 18.9904 21.9363 18.8563 21.7336C18.7221 21.5309 18.6504 21.2933 18.6503 21.0502C18.6581 20.7151 18.7981 20.3967 19.0398 20.1644C19.2814 19.9322 19.6051 19.8048 19.9403 19.8102Z" fill="#01070E"/>
<path d="M19.9409 16.22C21.1573 16.2066 22.3357 16.6434 23.2495 17.4464C24.1633 18.2494 24.7479 19.3619 24.8909 20.57H23.7109V22H28.1209C28.3066 22 28.4846 21.9262 28.6159 21.7949C28.7472 21.6637 28.8209 21.4856 28.8209 21.3C28.8209 21.1143 28.7472 20.9363 28.6159 20.805C28.4846 20.6737 28.3066 20.6 28.1209 20.6H26.3109C26.1653 19.0167 25.4292 17.5462 24.249 16.4808C23.0688 15.4154 21.5308 14.8332 19.9409 14.85C19.4428 14.8504 18.9462 14.9075 18.4609 15.02L18.8109 16.39C19.1794 16.2878 19.5588 16.2308 19.9409 16.22Z" fill="#01070E"/>
<path d="M19.9391 27.27C21.0986 27.2757 22.238 26.9673 23.2363 26.3774C24.2347 25.7876 25.0546 24.9384 25.6091 23.92H23.9291C23.4581 24.5318 22.8519 25.0262 22.158 25.3645C21.464 25.7028 20.7011 25.8759 19.9291 25.87C19.2842 25.8819 18.6434 25.7667 18.0431 25.5309C17.4428 25.2951 16.8949 24.9434 16.4306 24.4958C15.9663 24.0482 15.5947 23.5135 15.337 22.9223C15.0794 22.331 14.9408 21.6948 14.9291 21.05C14.9354 20.785 14.9621 20.5209 15.0091 20.26L13.6291 20C13.5752 20.3307 13.5451 20.6649 13.5391 21C13.5456 21.8325 13.7165 22.6555 14.0421 23.4218C14.3676 24.188 14.8413 24.8824 15.436 25.465C16.0307 26.0477 16.7347 26.507 17.5075 26.8168C18.2802 27.1265 19.1066 27.2806 19.9391 27.27Z" fill="#01070E"/>
</svg>
