<svg width="30" height="30" viewBox="0 0 30 30" fill="none" xmlns="http://www.w3.org/2000/svg">
<path d="M29 9.00023H22.34L23.89 1.26023C23.9417 0.99501 23.886 0.720111 23.735 0.496005C23.584 0.271899 23.3502 0.116943 23.085 0.065226C22.8198 0.0135088 22.5449 0.0692666 22.3208 0.220233C22.0967 0.3712 21.9417 0.605009 21.89 0.870226L20.3 9.00023H12.11L13.66 1.26023C13.6856 1.1289 13.6851 0.993824 13.6585 0.862699C13.6319 0.731574 13.5797 0.606971 13.505 0.496005C13.4302 0.385039 13.3344 0.289883 13.2228 0.21597C13.1113 0.142057 12.9863 0.0908338 12.855 0.065226C12.5898 0.0135088 12.3149 0.0692666 12.0908 0.220233C11.8667 0.3712 11.7117 0.605009 11.66 0.870226L10.07 9.00023H3C2.73478 9.00023 2.48043 9.10558 2.29289 9.29312C2.10536 9.48066 2 9.73501 2 10.0002C2 10.2654 2.10536 10.5198 2.29289 10.7073C2.48043 10.8949 2.73478 11.0002 3 11.0002H9.67L8.07 19.0002H1C0.734784 19.0002 0.48043 19.1056 0.292893 19.2931C0.105357 19.4807 0 19.735 0 20.0002C0 20.2654 0.105357 20.5198 0.292893 20.7073C0.48043 20.8949 0.734784 21.0002 1 21.0002H7.66L6.11 28.7402C6.06009 29.0001 6.11521 29.2691 6.26328 29.4884C6.41136 29.7077 6.64032 29.8594 6.9 29.9102C6.9663 29.9201 7.0337 29.9201 7.1 29.9102C7.33395 29.9149 7.56214 29.8375 7.74486 29.6913C7.92758 29.5451 8.05325 29.3395 8.1 29.1102L9.7 21.0002H17.89L16.34 28.7402C16.2901 29.0001 16.3452 29.2691 16.4933 29.4884C16.6414 29.7077 16.8703 29.8594 17.13 29.9102C17.193 29.92 17.257 29.92 17.32 29.9102C17.5539 29.9149 17.7821 29.8375 17.9649 29.6913C18.1476 29.5451 18.2732 29.3395 18.32 29.1102L19.93 21.0002H27C27.2652 21.0002 27.5196 20.8949 27.7071 20.7073C27.8946 20.5198 28 20.2654 28 20.0002C28 19.735 27.8946 19.4807 27.7071 19.2931C27.5196 19.1056 27.2652 19.0002 27 19.0002H20.33L21.94 11.0002H29C29.2652 11.0002 29.5196 10.8949 29.7071 10.7073C29.8946 10.5198 30 10.2654 30 10.0002C30 9.73501 29.8946 9.48066 29.7071 9.29312C29.5196 9.10558 29.2652 9.00023 29 9.00023ZM18.29 19.0002H10.1L11.71 11.0002H19.9L18.29 19.0002Z" fill="#01070E"/>
</svg>
