<svg width="36" height="36" viewBox="0 0 36 36" fill="none" xmlns="http://www.w3.org/2000/svg">
<path d="M17.9999 3C14.2221 3.07099 10.6267 4.63738 8.00219 7.35562C5.37768 10.0739 3.93838 13.722 3.99994 17.5V31H9.19994C9.92499 31.0161 10.6269 30.7441 11.1517 30.2436C11.6766 29.7431 11.9816 29.055 11.9999 28.33V21.67C11.9816 20.945 11.6766 20.2569 11.1517 19.7564C10.6269 19.2559 9.92499 18.9839 9.19994 19H5.99994V17.5C5.93828 14.2524 7.16685 11.1129 9.41631 8.76971C11.6658 6.42653 14.7526 5.07089 17.9999 5C21.2473 5.07089 24.3341 6.42653 26.5836 8.76971C28.833 11.1129 30.0616 14.2524 29.9999 17.5V19H26.7999C26.0749 18.9839 25.373 19.2559 24.8482 19.7564C24.3233 20.2569 24.0183 20.945 23.9999 21.67V28.34C24.0209 29.0632 24.3271 29.7488 24.8516 30.2472C25.3762 30.7455 26.0766 31.0161 26.7999 31H31.9999V17.5C32.0615 13.722 30.6222 10.0739 27.9977 7.35562C25.3732 4.63738 21.7778 3.07099 17.9999 3ZM9.19994 21C9.39418 20.986 9.58627 21.048 9.73557 21.1731C9.88487 21.2981 9.97968 21.4763 9.99994 21.67V28.34C9.97968 28.5337 9.88487 28.7119 9.73557 28.8369C9.58627 28.962 9.39418 29.024 9.19994 29.01H5.99994V21H9.19994ZM25.9999 28.33V21.67C26.0202 21.4763 26.115 21.2981 26.2643 21.1731C26.4136 21.048 26.6057 20.986 26.7999 21H29.9999V29H26.7999C26.6057 29.014 26.4136 28.952 26.2643 28.8269C26.115 28.7019 26.0202 28.5237 25.9999 28.33Z" fill="#01070E"/>
</svg>
