<svg width="36" height="36" viewBox="0 0 36 36" fill="none" xmlns="http://www.w3.org/2000/svg">
<path d="M32.9994 7.64019C31.6594 4.89019 27.9094 2.64019 23.3094 3.95019C22.0357 4.31313 20.8481 4.92869 19.8173 5.7602C18.7865 6.59171 17.9336 7.62216 17.3094 8.79019C16.2973 10.4421 15.5452 12.2397 15.0794 14.1202L20.3594 16.4602L15.7594 20.8302L19.2494 24.9302L20.7694 23.6302L18.5394 21.0002L23.9394 15.8702L17.5794 13.0002C18.1027 11.5367 18.8335 10.1559 19.7494 8.90019C20.7387 7.46221 22.1883 6.4041 23.8594 5.90019C27.1994 5.01019 30.1994 6.50019 31.1994 8.55019C32.7494 11.7302 32.0494 15.2702 29.0594 19.3602C25.8788 23.4444 22.1581 27.0776 17.9994 30.1602C13.8387 27.0684 10.1179 23.425 6.93938 19.3302C3.93938 15.2302 3.24938 11.6902 4.79938 8.52019C5.33798 7.59383 6.1187 6.83164 7.05772 6.31544C7.99675 5.79924 9.05863 5.54852 10.1294 5.59019C10.8063 5.5938 11.4794 5.69139 12.1294 5.88019C13.41 6.24349 14.5745 6.93257 15.5094 7.88019L15.6594 7.58019C15.954 7.0839 16.2884 6.61235 16.6594 6.17019C15.5407 5.12824 14.1902 4.36731 12.7194 3.95019C8.19938 2.66019 4.33938 4.89019 2.99938 7.64019C1.11938 11.4902 1.89938 15.8202 5.31938 20.5102C7.99938 24.1802 11.8294 27.9002 17.3894 32.2202C17.5651 32.3572 17.7815 32.4317 18.0044 32.4317C18.2272 32.4317 18.4437 32.3572 18.6194 32.2202C24.1694 27.9102 28.0094 24.2202 30.6894 20.5102C34.0994 15.8202 34.8794 11.4902 32.9994 7.64019Z" fill="#01070E"/>
</svg>
