<svg width="36" height="36" viewBox="0 0 36 36" fill="none" xmlns="http://www.w3.org/2000/svg">
<path d="M17.9994 32.4302C17.7784 32.4295 17.5639 32.3557 17.3894 32.2202C11.8294 27.9002 7.99938 24.1802 5.31938 20.5102C1.89938 15.8202 1.11938 11.4902 2.99938 7.64019C4.33938 4.89019 8.18938 2.64019 12.6894 3.95019C14.8349 4.56993 16.7069 5.89898 17.9994 7.72019C19.2919 5.89898 21.1638 4.56993 23.3094 3.95019C27.7994 2.66019 31.6594 4.89019 32.9994 7.64019C34.8794 11.4902 34.0994 15.8202 30.6794 20.5102C27.9994 24.1802 24.1694 27.9002 18.6094 32.2202C18.4348 32.3557 18.2203 32.4295 17.9994 32.4302ZM10.1294 5.58019C9.05863 5.53852 7.99675 5.78924 7.05772 6.30544C6.1187 6.82164 5.33798 7.58383 4.79938 8.51019C3.24938 11.6902 3.94938 15.2302 6.93938 19.3202C10.1169 23.4188 13.8378 27.0656 17.9994 30.1602C22.1603 27.0687 25.8811 23.4252 29.0594 19.3302C32.0594 15.2302 32.7494 11.6902 31.1994 8.52019C30.1994 6.52019 27.1994 4.93019 23.8594 5.87019C22.7884 6.18669 21.7956 6.72391 20.9448 7.44727C20.094 8.17063 19.404 9.0641 18.9194 10.0702C18.844 10.2536 18.7159 10.4105 18.5512 10.5209C18.3865 10.6313 18.1927 10.6902 17.9944 10.6902C17.7961 10.6902 17.6023 10.6313 17.4376 10.5209C17.2729 10.4105 17.1447 10.2536 17.0694 10.0702C16.5884 9.06158 15.8996 8.16602 15.0483 7.44221C14.1969 6.7184 13.2022 6.18269 12.1294 5.87019C11.4794 5.68139 10.8063 5.5838 10.1294 5.58019Z" fill="#01070E"/>
</svg>
