<svg width="36" height="36" viewBox="0 0 36 36" fill="none" xmlns="http://www.w3.org/2000/svg">
<path d="M25.3898 25.4498C25.1681 25.306 24.8986 25.2558 24.64 25.3102C24.3814 25.3645 24.1548 25.519 24.0098 25.7398C22.5998 27.8998 20.0098 30.5498 17.6998 31.4398C15.3898 32.3298 13.5798 32.0098 12.8598 31.4398C12.5498 31.1698 11.7398 30.4398 12.4298 27.9498C12.8898 26.2898 15.7498 18.4698 16.4298 16.5698L14.2498 16.8498C13.5598 18.7098 10.9598 25.6898 10.4898 27.4298C9.80979 29.9198 10.1498 31.7298 11.5798 32.9898C12.579 33.6908 13.7801 34.0456 14.9998 33.9998C16.1833 33.9828 17.3532 33.7454 18.4498 33.2998C21.2398 32.2098 24.1698 29.1798 25.7098 26.8298C25.7796 26.7183 25.8267 26.594 25.8484 26.4642C25.8701 26.3344 25.866 26.2016 25.8363 26.0734C25.8066 25.9452 25.7518 25.8241 25.6752 25.7171C25.5986 25.6101 25.5016 25.5193 25.3898 25.4498Z" fill="#01070E"/>
<path d="M19.3008 11C20.1908 11 21.0608 10.7361 21.8008 10.2416C22.5409 9.74715 23.1176 9.04434 23.4582 8.22208C23.7988 7.39981 23.8879 6.49501 23.7143 5.6221C23.5407 4.74918 23.1121 3.94736 22.4828 3.31802C21.8534 2.68868 21.0516 2.2601 20.1787 2.08647C19.3058 1.91283 18.401 2.00195 17.5787 2.34254C16.7564 2.68314 16.0536 3.25991 15.5592 3.99994C15.0647 4.73996 14.8008 5.60999 14.8008 6.5C14.8008 7.69348 15.2749 8.83807 16.1188 9.68198C16.9627 10.5259 18.1073 11 19.3008 11ZM19.3008 4C19.7952 4 20.2786 4.14662 20.6897 4.42133C21.1008 4.69603 21.4213 5.08648 21.6105 5.54329C21.7997 6.00011 21.8492 6.50278 21.7527 6.98773C21.6563 7.47268 21.4182 7.91814 21.0685 8.26777C20.7189 8.6174 20.2735 8.8555 19.7885 8.95197C19.3036 9.04843 18.8009 8.99892 18.3441 8.8097C17.8873 8.62048 17.4968 8.30005 17.2221 7.88893C16.9474 7.4778 16.8008 6.99446 16.8008 6.5C16.8008 5.83696 17.0642 5.20108 17.533 4.73223C18.0019 4.26339 18.6377 4 19.3008 4Z" fill="#01070E"/>
<path d="M11.8101 15C11.8701 15 18.0801 14.18 19.5401 14C20.1901 13.9 20.6801 14 20.8401 14.15C21.0001 14.3 21.0501 14.95 20.7701 15.83C20.1601 17.69 17.0801 26.83 16.1801 29.54C16.62 29.4498 17.0515 29.3227 17.4701 29.16C17.8704 28.9944 18.2552 28.7936 18.6201 28.56C19.8501 25 22.1501 18.1 22.6701 16.52C23.1901 14.94 23.0601 13.74 22.3701 12.92C21.9764 12.5209 21.4837 12.2337 20.9425 12.0878C20.4012 11.942 19.8309 11.9427 19.2901 12.09C17.8601 12.24 11.8201 13.03 11.5601 13.09C11.2948 13.1245 11.0542 13.2629 10.891 13.4748C10.7279 13.6867 10.6556 13.9548 10.6901 14.22C10.7245 14.4852 10.863 14.7259 11.0749 14.889C11.2868 15.0522 11.5548 15.1245 11.8201 15.09L11.8101 15Z" fill="#01070E"/>
</svg>
