<svg width="36" height="36" viewBox="0 0 36 36" fill="none" xmlns="http://www.w3.org/2000/svg">
<path d="M18 2C14.8355 2 11.7421 2.93838 9.11088 4.69649C6.4797 6.45459 4.42894 8.95345 3.21793 11.8771C2.00693 14.8007 1.69008 18.0177 2.30744 21.1214C2.92481 24.2251 4.44866 27.0761 6.6863 29.3137C8.92394 31.5513 11.7749 33.0752 14.8786 33.6926C17.9823 34.3099 21.1993 33.9931 24.1229 32.7821C27.0466 31.5711 29.5454 29.5203 31.3035 26.8891C33.0616 24.2579 34 21.1645 34 18C34 13.7565 32.3143 9.68687 29.3137 6.68629C26.3131 3.68571 22.2435 2 18 2ZM18 32C15.2311 32 12.5243 31.1789 10.222 29.6406C7.91974 28.1022 6.12532 25.9157 5.06569 23.3576C4.00607 20.7994 3.72882 17.9845 4.26901 15.2687C4.80921 12.553 6.14258 10.0584 8.10051 8.1005C10.0584 6.14257 12.553 4.8092 15.2687 4.26901C17.9845 3.72881 20.7994 4.00606 23.3576 5.06569C25.9157 6.12531 28.1022 7.91973 29.6406 10.222C31.1789 12.5243 32 15.2311 32 18C32 21.713 30.525 25.274 27.8995 27.8995C25.274 30.525 21.713 32 18 32Z" fill="#01070E"/>
<path d="M18.29 8.91995C17.2064 8.90204 16.1321 9.12303 15.1435 9.5672C14.1549 10.0114 13.2762 10.6678 12.57 11.49C12.4719 11.5809 12.393 11.6906 12.338 11.8125C12.2831 11.9345 12.2531 12.0662 12.25 12.2C12.2499 12.3233 12.2747 12.4455 12.3228 12.5591C12.3709 12.6727 12.4413 12.7755 12.53 12.8613C12.6186 12.9472 12.7236 13.0143 12.8387 13.0587C12.9538 13.1032 13.0767 13.124 13.2 13.12C13.4642 13.1134 13.7168 13.0102 13.91 12.83C14.4445 12.2036 15.1083 11.7005 15.8558 11.3553C16.6032 11.01 17.4166 10.8308 18.24 10.83C20.6 10.83 22.07 12.35 22.07 14.24V14.29C22.07 16.5 20.31 17.73 17.53 17.94C17.4174 17.9443 17.3071 17.9724 17.2061 18.0223C17.1051 18.0723 17.0158 18.143 16.9441 18.2299C16.8723 18.3167 16.8197 18.4177 16.7897 18.5263C16.7597 18.6349 16.753 18.7486 16.77 18.86C16.77 18.86 16.77 21.18 16.77 21.61C16.7949 21.8575 16.9111 22.0868 17.096 22.2533C17.2809 22.4197 17.5212 22.5112 17.77 22.51H17.88C18.1275 22.4851 18.3569 22.3688 18.5233 22.1839C18.6897 21.999 18.7812 21.7587 18.78 21.51V19.45C21.78 19.03 24.21 17.45 24.21 14.17V14.12C24.18 11.12 21.84 8.91995 18.29 8.91995Z" fill="#01070E"/>
<path d="M17.7793 27.4502C18.4697 27.4502 19.0293 26.8906 19.0293 26.2002C19.0293 25.5098 18.4697 24.9502 17.7793 24.9502C17.0889 24.9502 16.5293 25.5098 16.5293 26.2002C16.5293 26.8906 17.0889 27.4502 17.7793 27.4502Z" fill="#01070E"/>
</svg>
