<svg width="36" height="36" viewBox="0 0 36 36" fill="none" xmlns="http://www.w3.org/2000/svg">
<path d="M15.8209 26.0599C15.6893 26.0606 15.5588 26.0354 15.437 25.9856C15.3151 25.9359 15.2043 25.8625 15.1109 25.7699L8.67088 19.3299C8.57819 19.2364 8.50487 19.1256 8.4551 19.0038C8.40534 18.8819 8.38012 18.7515 8.38088 18.6199C8.38012 18.4882 8.40534 18.3578 8.4551 18.2359C8.50487 18.1141 8.57819 18.0033 8.67088 17.9099L23.0009 3.53985C23.517 3.02441 24.1295 2.61568 24.8036 2.33697C25.4777 2.05827 26.2 1.91506 26.9294 1.91553C27.6588 1.91599 28.381 2.06012 29.0547 2.33968C29.7284 2.61924 30.3404 3.02876 30.8559 3.54485C31.3713 4.06095 31.7801 4.67351 32.0588 5.34757C32.3375 6.02163 32.4807 6.74398 32.4802 7.47339C32.4797 8.20279 32.3356 8.92496 32.056 9.59867C31.7765 10.2724 31.367 10.8844 30.8509 11.3999L16.5309 25.7699C16.4374 25.8625 16.3266 25.9359 16.2048 25.9856C16.0829 26.0354 15.9525 26.0606 15.8209 26.0599ZM10.8209 18.6199L15.8209 23.6199L29.4809 9.99985C30.1428 9.33623 30.5146 8.43717 30.5146 7.49985C30.5146 6.56253 30.1428 5.66347 29.4809 4.99985C28.8063 4.35904 27.9113 4.00175 26.9809 4.00175C26.0504 4.00175 25.1555 4.35904 24.4809 4.99985L10.8209 18.6199Z" fill="#01070E"/>
<path d="M10.3795 28.2802C10.1152 28.2844 9.85988 28.1837 9.66954 28.0002L6.44954 24.7702C6.3091 24.6307 6.21323 24.4526 6.17406 24.2586C6.1349 24.0646 6.15421 23.8633 6.22954 23.6802L8.44954 18.2402C8.51194 18.088 8.61092 17.9536 8.73769 17.8488C8.86447 17.744 9.01513 17.6721 9.17633 17.6395C9.33753 17.6069 9.50429 17.6145 9.66184 17.6617C9.81939 17.7089 9.96286 17.7943 10.0795 17.9102L16.5295 24.3502C16.65 24.4666 16.7392 24.6114 16.7891 24.7713C16.839 24.9312 16.848 25.1011 16.8151 25.2653C16.7823 25.4296 16.7087 25.5829 16.6011 25.7113C16.4936 25.8397 16.3555 25.9391 16.1995 26.0002L10.7595 28.2202C10.6364 28.2585 10.5084 28.2787 10.3795 28.2802ZM8.32954 23.8202L10.6195 26.1002L14.0495 24.7002L9.73954 20.3902L8.32954 23.8202Z" fill="#01070E"/>
<path d="M8.94039 30.0001H3.94039C3.75946 30.001 3.58168 29.9528 3.426 29.8606C3.27031 29.7684 3.14256 29.6357 3.05635 29.4766C2.97015 29.3175 2.92871 29.1381 2.93647 28.9573C2.94422 28.7765 3.00087 28.6013 3.10039 28.4501L6.32039 23.5101C6.40165 23.3847 6.51001 23.279 6.63751 23.2009C6.765 23.1228 6.90837 23.0743 7.05708 23.059C7.20579 23.0436 7.35604 23.0618 7.49679 23.1122C7.63755 23.1626 7.76521 23.2439 7.87039 23.3501L11.0804 26.5701C11.2574 26.7469 11.3618 26.9836 11.3729 27.2335C11.384 27.4834 11.3011 27.7284 11.1404 27.9201L9.70039 29.6401C9.60745 29.7517 9.49132 29.8418 9.36007 29.9039C9.22883 29.9661 9.08561 29.9989 8.94039 30.0001ZM5.78039 28.0001H8.47039L9.00039 27.3401L7.30039 25.6401L5.78039 28.0001Z" fill="#01070E"/>
<path d="M33.0605 31H3.06055V34H33.0605V31Z" fill="#01070E"/>
</svg>
