<svg width="36" height="36" viewBox="0 0 36 36" fill="none" xmlns="http://www.w3.org/2000/svg">
<path d="M18 9.83008C17.7348 9.83008 17.4804 9.93544 17.2929 10.123C17.1054 10.3105 17 10.5649 17 10.8301V19.5501L22.9 23.5501C23.1215 23.6907 23.3893 23.7387 23.6458 23.6837C23.9023 23.6287 24.127 23.4751 24.2713 23.256C24.4156 23.0369 24.468 22.7699 24.4173 22.5125C24.3665 22.2551 24.2167 22.028 24 21.8801L19 18.4901V10.8301C19 10.5649 18.8946 10.3105 18.7071 10.123C18.5196 9.93544 18.2652 9.83008 18 9.83008Z" fill="#01070E"/>
<path d="M18 2C15.1433 2.01 12.3407 2.78042 9.88023 4.23208C7.41978 5.68374 5.39019 7.76431 4 10.26V5.2C4 4.93478 3.89464 4.68043 3.70711 4.49289C3.51957 4.30536 3.26522 4.2 3 4.2C2.73478 4.2 2.48043 4.30536 2.29289 4.49289C2.10536 4.68043 2 4.93478 2 5.2V14H10.8C11.0652 14 11.3196 13.8946 11.5071 13.7071C11.6946 13.5196 11.8 13.2652 11.8 13C11.8 12.7348 11.6946 12.4804 11.5071 12.2929C11.3196 12.1054 11.0652 12 10.8 12H5.35C6.61123 9.33819 8.67988 7.14199 11.2615 5.72393C13.8432 4.30587 16.8064 3.73819 19.7294 4.10169C22.6523 4.46519 25.3862 5.74134 27.5419 7.74854C29.6976 9.75574 31.1653 12.3917 31.7362 15.2814C32.307 18.171 31.952 21.1671 30.7215 23.8432C29.491 26.5194 27.4478 28.7393 24.8826 30.187C22.3174 31.6347 19.361 32.2364 16.434 31.9066C13.5071 31.5768 10.7587 30.3322 8.58 28.35C8.48282 28.2614 8.36914 28.1927 8.24543 28.148C8.12173 28.1033 7.99043 28.0834 7.85904 28.0894C7.72764 28.0955 7.59872 28.1273 7.47964 28.1832C7.36056 28.2391 7.25364 28.3178 7.165 28.415C7.07636 28.5122 7.00772 28.6259 6.96302 28.7496C6.91831 28.8733 6.89841 29.0046 6.90444 29.136C6.91048 29.2674 6.94234 29.3963 6.9982 29.5154C7.05405 29.6344 7.13282 29.7414 7.23 29.83C9.15215 31.5804 11.4719 32.836 13.9884 33.4882C16.505 34.1405 19.1425 34.1697 21.6729 33.5734C24.2033 32.977 26.5503 31.7731 28.5107 30.0657C30.4712 28.3584 31.9861 26.199 32.9243 23.7746C33.8626 21.3501 34.1959 18.7335 33.8955 16.1512C33.5951 13.5689 32.67 11.0987 31.2003 8.95435C29.7305 6.80999 27.7604 5.05606 25.4604 3.84433C23.1604 2.6326 20.5997 1.99956 18 2Z" fill="#01070E"/>
</svg>
