<svg width="36" height="36" viewBox="0 0 36 36" fill="none" xmlns="http://www.w3.org/2000/svg">
<path d="M33.709 17.2898L18.709 2.28982C18.5217 2.10357 18.2682 1.99902 18.0041 1.99902C17.7399 1.99902 17.4864 2.10357 17.2991 2.28982L2.29905 17.2898C2.13522 17.4811 2.04962 17.7272 2.05934 17.9789C2.06906 18.2305 2.17339 18.4693 2.35149 18.6474C2.52958 18.8255 2.76832 18.9298 3.02 18.9395C3.27167 18.9492 3.51775 18.8636 3.70905 18.6998L17.9991 4.40982L32.2891 18.7098C32.4804 18.8736 32.7264 18.9592 32.9781 18.9495C33.2298 18.9398 33.4685 18.8355 33.6466 18.6574C33.8247 18.4793 33.929 18.2405 33.9388 17.9889C33.9485 17.7372 33.8629 17.4911 33.6991 17.2998L33.709 17.2898Z" fill="#01070E"/>
<path d="M28 31.9998H23V21.9998H13V31.9998H8V17.9998L6 19.9998V31.9998C6 32.5302 6.21071 33.0389 6.58579 33.414C6.96086 33.7891 7.46957 33.9998 8 33.9998H15V23.9998H21V33.9998H28C28.5304 33.9998 29.0391 33.7891 29.4142 33.414C29.7893 33.0389 30 32.5302 30 31.9998V19.7598L28 17.7598V31.9998Z" fill="#01070E"/>
</svg>
