<svg width="36" height="36" viewBox="0 0 36 36" fill="none" xmlns="http://www.w3.org/2000/svg">
<path d="M15.1992 27.8C15.1992 29.3 16.3992 30.6 17.9992 30.6C19.5992 30.6 20.7992 29.4 20.7992 27.8C20.7992 26.2 19.4992 25 17.9992 25C16.4992 25 15.1992 26.2 15.1992 27.8ZM19.1992 27.8C19.1992 28.5 18.5992 29 17.9992 29C17.3992 29 16.7992 28.4 16.7992 27.8C16.7992 27.2 17.3992 26.6 17.9992 26.6C18.5992 26.6 19.1992 27.1 19.1992 27.8Z" fill="#01070E"/>
<path d="M23 21H13V22.6H23V21Z" fill="#01070E"/>
<path d="M21.3 6H12V7.6H20.4L21.3 6Z" fill="#01070E"/>
<path d="M12 11.6H18.6C18.6 11 18.8 10.5 19 10H12V11.6Z" fill="#01070E"/>
<path d="M26 15.4V32H10V4H22.5L23.6 2H9.5C8.7 2 8 2.7 8 3.5V34H28V15.4H26Z" fill="#01070E"/>
<path d="M26.8995 1.10023L21.0995 11.0002C20.6995 11.6002 20.8995 12.4002 21.3995 12.8002C21.5995 13.0002 21.8995 13.0002 22.1995 13.0002H33.6995C34.3995 13.0002 34.9995 12.5002 34.9995 11.8002C34.9995 11.5002 34.8995 11.3002 34.7995 11.0002L29.0995 1.10023C28.6995 0.500232 27.9995 0.300232 27.2995 0.600232C27.0995 0.800232 26.9995 1.00023 26.8995 1.10023Z" fill="#01070E"/>
</svg>
