<svg width="36" height="36" viewBox="0 0 36 36" fill="none" xmlns="http://www.w3.org/2000/svg">
<path d="M21.08 33.9999H7.08C6.8069 34.0007 6.54366 33.8979 6.34327 33.7124C6.14288 33.5268 6.02023 33.2723 6 32.9999V11.9999C6 11.7135 6.11379 11.4388 6.31632 11.2362C6.51886 11.0337 6.79357 10.9199 7.08 10.9199H21.08C21.3664 10.9199 21.6411 11.0337 21.8437 11.2362C22.0462 11.4388 22.16 11.7135 22.16 11.9999V32.9999C22.1398 33.2723 22.0171 33.5268 21.8167 33.7124C21.6163 33.8979 21.3531 34.0007 21.08 33.9999ZM8.16 31.8799H20V12.9999H8.16V31.8799Z" fill="#01070E"/>
<path d="M18.0801 14.96H10.0801V16.96H18.0801V14.96Z" fill="#01070E"/>
<path d="M26.0996 27.81H24.0996V9H12.0996V7H25.0996C25.3648 7 25.6192 7.10536 25.8067 7.29289C25.9943 7.48043 26.0996 7.73478 26.0996 8V27.81Z" fill="#01070E"/>
<path d="M30.0801 23H28.0801V5H17.0801V3H29.0801C29.3453 3 29.5996 3.10536 29.7872 3.29289C29.9747 3.48043 30.0801 3.73478 30.0801 4V23Z" fill="#01070E"/>
<path d="M15.0801 27.8799H13.0801V30.0399H15.0801V27.8799Z" fill="#01070E"/>
</svg>
