<svg width="36" height="36" viewBox="0 0 36 36" fill="none" xmlns="http://www.w3.org/2000/svg">
<path d="M29 32H26V24.91C25.9965 23.8737 25.7516 22.8524 25.2847 21.9272C24.8177 21.002 24.1416 20.1984 23.31 19.58L22.03 18.58C21.7054 18.3551 21.3606 18.1609 21 18C21.352 17.825 21.6868 17.6175 22 17.38L23.28 16.38C24.1118 15.7688 24.7904 14.9729 25.2624 14.055C25.7343 13.1371 25.9868 12.1221 26 11.09V4H29C29.2652 4 29.5196 3.89464 29.7071 3.70711C29.8946 3.51957 30 3.26522 30 3C30 2.73478 29.8946 2.48043 29.7071 2.29289C29.5196 2.10536 29.2652 2 29 2H7C6.73478 2 6.48043 2.10536 6.29289 2.29289C6.10536 2.48043 6 2.73478 6 3C6 3.26522 6.10536 3.51957 6.29289 3.70711C6.48043 3.89464 6.73478 4 7 4H10V11.09C10.0035 12.1263 10.2484 13.1476 10.7153 14.0728C11.1823 14.998 11.8584 15.8016 12.69 16.42L13.97 17.42C14.2946 17.6449 14.6394 17.8391 15 18C14.648 18.1749 14.3132 18.3824 14 18.62L12.72 19.62C11.8882 20.2312 11.2096 21.0271 10.7376 21.945C10.2657 22.8629 10.0132 23.8779 10 24.91V32H7C6.73478 32 6.48043 32.1054 6.29289 32.2929C6.10536 32.4804 6 32.7348 6 33C6 33.2652 6.10536 33.5196 6.29289 33.7071C6.48043 33.8946 6.73478 34 7 34H29C29.2652 34 29.5196 33.8946 29.7071 33.7071C29.8946 33.5196 30 33.2652 30 33C30 32.7348 29.8946 32.4804 29.7071 32.2929C29.5196 32.1054 29.2652 32 29 32ZM12 24.91C12.0031 24.1866 12.1746 23.4738 12.5009 22.8281C12.8272 22.1824 13.2994 21.6216 13.88 21.19L15.16 20.19C15.521 19.9243 15.9184 19.7122 16.34 19.56C16.5314 19.4885 16.6963 19.3601 16.8125 19.192C16.9287 19.0239 16.9907 18.8243 16.99 18.62V17.33C16.9907 17.1257 16.9287 16.9261 16.8125 16.758C16.6963 16.5899 16.5314 16.4615 16.34 16.39C15.915 16.2386 15.5142 16.0264 15.15 15.76L13.87 14.76C13.2979 14.3325 12.8317 13.7792 12.5075 13.1428C12.1833 12.5065 12.0096 11.8041 12 11.09V4H24V11.09C23.9969 11.8134 23.8254 12.5262 23.4991 13.1719C23.1728 13.8176 22.7006 14.3784 22.12 14.81L20.84 15.81C20.479 16.0757 20.0816 16.2878 19.66 16.44C19.4686 16.5115 19.3037 16.6399 19.1875 16.808C19.0713 16.9761 19.0093 17.1757 19.01 17.38V18.72C19.0093 18.9243 19.0713 19.1239 19.1875 19.292C19.3037 19.4601 19.4686 19.5885 19.66 19.66C20.085 19.8114 20.4858 20.0236 20.85 20.29L22.13 21.29C22.6955 21.7124 23.1577 22.2577 23.4816 22.8848C23.8055 23.5119 23.9828 24.2044 24 24.91V32H12V24.91Z" fill="#01070E"/>
</svg>
