<svg width="36" height="36" viewBox="0 0 36 36" fill="none" xmlns="http://www.w3.org/2000/svg">
<path d="M29 32H26V24.91C25.9965 23.8737 25.7516 22.8524 25.2847 21.9272C24.8177 21.002 24.1416 20.1984 23.31 19.58L22.03 18.58C21.7054 18.3551 21.3606 18.1609 21 18C21.352 17.825 21.6868 17.6175 22 17.38L23.28 16.38C23.6794 16.0883 24.045 15.7529 24.37 15.38H22.23C21.9675 15.3782 21.706 15.348 21.45 15.29L20.83 15.75C20.469 16.0157 20.0716 16.2278 19.65 16.38C19.4586 16.4515 19.2937 16.5799 19.1775 16.748C19.0613 16.9161 18.9993 17.1157 19 17.32V18.66C18.9993 18.8643 19.0613 19.0639 19.1775 19.232C19.2937 19.4001 19.4586 19.5285 19.65 19.6C20.075 19.7514 20.4758 19.9636 20.84 20.23L22.12 21.23C22.6953 21.6575 23.1642 22.212 23.4902 22.8502C23.8163 23.4885 23.9907 24.1933 24 24.91V32H12V24.91C12.0031 24.1866 12.1746 23.4738 12.5009 22.8281C12.8272 22.1824 13.2994 21.6216 13.88 21.19L15.16 20.19C15.521 19.9243 15.9184 19.7122 16.34 19.56C16.5314 19.4885 16.6963 19.3601 16.8125 19.192C16.9287 19.0239 16.9907 18.8243 16.99 18.62V17.33C16.9907 17.1257 16.9287 16.9261 16.8125 16.758C16.6963 16.5899 16.5314 16.4615 16.34 16.39C15.915 16.2386 15.5142 16.0264 15.15 15.76L13.87 14.76C13.2979 14.3325 12.8317 13.7792 12.5075 13.1428C12.1833 12.5065 12.0096 11.8041 12 11.09V4H22.45L23.6 2H7C6.73478 2 6.48043 2.10536 6.29289 2.29289C6.10536 2.48043 6 2.73478 6 3C6 3.26522 6.10536 3.51957 6.29289 3.70711C6.48043 3.89464 6.73478 4 7 4H10V11.09C10.0035 12.1263 10.2484 13.1476 10.7153 14.0728C11.1823 14.998 11.8584 15.8016 12.69 16.42L13.97 17.42C14.2946 17.6449 14.6394 17.8391 15 18C14.648 18.1749 14.3132 18.3824 14 18.62L12.72 19.62C11.8882 20.2312 11.2096 21.0271 10.7376 21.945C10.2657 22.8629 10.0132 23.8779 10 24.91V32H7C6.73478 32 6.48043 32.1054 6.29289 32.2929C6.10536 32.4804 6 32.7348 6 33C6 33.2652 6.10536 33.5196 6.29289 33.7071C6.48043 33.8946 6.73478 34 7 34H29C29.2652 34 29.5196 33.8946 29.7071 33.7071C29.8946 33.5196 30 33.2652 30 33C30 32.7348 29.8946 32.4804 29.7071 32.2929C29.5196 32.1054 29.2652 32 29 32Z" fill="#01070E"/>
<path d="M26.8504 1.13981L21.1304 10.9998C20.9973 11.1951 20.9209 11.4235 20.9097 11.6596C20.8984 11.8957 20.9527 12.1303 21.0666 12.3374C21.1806 12.5445 21.3496 12.716 21.555 12.8329C21.7604 12.9498 21.9942 13.0076 22.2304 12.9998H33.6804C33.9166 13.0076 34.1504 12.9498 34.3558 12.8329C34.5612 12.716 34.7302 12.5445 34.8441 12.3374C34.958 12.1303 35.0123 11.8957 35.0011 11.6596C34.9898 11.4235 34.9135 11.1951 34.7804 10.9998L29.0604 1.13981C28.9476 0.946869 28.7862 0.786825 28.5923 0.675603C28.3985 0.564381 28.1789 0.505859 27.9554 0.505859C27.7319 0.505859 27.5123 0.564381 27.3184 0.675603C27.1245 0.786825 26.9632 0.946869 26.8504 1.13981Z" fill="#01070E"/>
</svg>
