<svg width="36" height="36" viewBox="0 0 36 36" fill="none" xmlns="http://www.w3.org/2000/svg">
<path d="M32.12 10H3.88C3.38139 10 2.90321 10.1981 2.55064 10.5506C2.19807 10.9032 2 11.3814 2 11.88V30.12C2 30.6186 2.19807 31.0968 2.55064 31.4494C2.90321 31.8019 3.38139 32 3.88 32H32.12C32.6186 32 33.0968 31.8019 33.4494 31.4494C33.8019 31.0968 34 30.6186 34 30.12V11.88C34 11.3814 33.8019 10.9032 33.4494 10.5506C33.0968 10.1981 32.6186 10 32.12 10ZM32 30H4V12H32V30Z" fill="#01070E"/>
<path d="M8.56055 19.4502C9.15389 19.4502 9.73391 19.2742 10.2273 18.9446C10.7206 18.615 11.1051 18.1464 11.3322 17.5982C11.5592 17.0501 11.6187 16.4469 11.5029 15.8649C11.3871 15.283 11.1014 14.7484 10.6819 14.3289C10.2623 13.9093 9.72776 13.6236 9.14582 13.5078C8.56388 13.3921 7.96067 13.4515 7.4125 13.6786C6.86432 13.9056 6.39578 14.2901 6.06614 14.7835C5.73649 15.2768 5.56055 15.8569 5.56055 16.4502C5.56055 17.2458 5.87662 18.0089 6.43923 18.5715C7.00184 19.1341 7.7649 19.4502 8.56055 19.4502ZM8.56055 14.8502C8.87858 14.8422 9.19176 14.9293 9.46009 15.1002C9.72842 15.2711 9.93971 15.5181 10.067 15.8097C10.1942 16.1013 10.2317 16.4241 10.1745 16.7371C10.1174 17.0501 9.96824 17.3389 9.74615 17.5667C9.52406 17.7944 9.23911 17.9508 8.9277 18.0159C8.61629 18.0809 8.29255 18.0517 7.99785 17.9318C7.70315 17.812 7.45087 17.607 7.27322 17.3431C7.09558 17.0792 7.00065 16.7683 7.00055 16.4502C7.00042 16.0327 7.16349 15.6317 7.45495 15.3327C7.74641 15.0338 8.14317 14.8606 8.56055 14.8502Z" fill="#01070E"/>
<path d="M7.89992 27.9999L13.8999 21.9999L17.0799 25.1799L14.2599 27.9999H16.2599L23.7199 20.5399L29.9999 26.7699V24.7699L24.1999 18.9999C24.0669 18.868 23.8872 18.7939 23.6999 18.7939C23.5126 18.7939 23.3329 18.868 23.1999 18.9999L18.0399 24.1599L14.3699 20.4999C14.2369 20.368 14.0572 20.2939 13.8699 20.2939C13.6826 20.2939 13.5029 20.368 13.3699 20.4999L5.91992 27.9999H7.89992Z" fill="#01070E"/>
<path d="M30.1406 3C30.1406 2.73478 30.0353 2.48043 29.8477 2.29289C29.6602 2.10536 29.4058 2 29.1406 2H7.14062C6.87541 2 6.62105 2.10536 6.43352 2.29289C6.24598 2.48043 6.14062 2.73478 6.14062 3V4H30.1406V3Z" fill="#01070E"/>
<path d="M32.1191 7C32.1191 6.73478 32.0138 6.48043 31.8262 6.29289C31.6387 6.10536 31.3844 6 31.1191 6H5.11914C4.85392 6 4.59957 6.10536 4.41203 6.29289C4.2245 6.48043 4.11914 6.73478 4.11914 7V8H32.1191V7Z" fill="#01070E"/>
</svg>
