<svg width="36" height="36" viewBox="0 0 36 36" fill="none" xmlns="http://www.w3.org/2000/svg">
<path d="M28 4H14.87L8 10.86V15H10V13.61H17.61V6H28V30H8C8 30.5304 8.21071 31.0391 8.58579 31.4142C8.96086 31.7893 9.46957 32 10 32H28C28.5304 32 29.0391 31.7893 29.4142 31.4142C29.7893 31.0391 30 30.5304 30 30V6C30 5.46957 29.7893 4.96086 29.4142 4.58579C29.0391 4.21071 28.5304 4 28 4ZM16 12H10V11.68L15.7 6H16V12Z" fill="#01070E"/>
<path d="M11.94 26.28C11.8353 26.3697 11.7503 26.48 11.6903 26.6041C11.6303 26.7281 11.5965 26.8633 11.5912 27.001C11.5859 27.1387 11.6091 27.276 11.6594 27.4044C11.7096 27.5327 11.7859 27.6492 11.8833 27.7467C11.9808 27.8442 12.0974 27.9204 12.2257 27.9707C12.354 28.021 12.4913 28.0442 12.6291 28.0388C12.7668 28.0335 12.9019 27.9998 13.026 27.9398C13.15 27.8798 13.2604 27.7947 13.35 27.69L19 22L13.32 16.32C13.1287 16.1562 12.8826 16.0706 12.6309 16.0803C12.3793 16.0901 12.1405 16.1944 11.9624 16.3725C11.7843 16.5506 11.68 16.7893 11.6703 17.041C11.6606 17.2927 11.7462 17.5387 11.91 17.73L15.2 21H3C2.73478 21 2.48043 21.1054 2.29289 21.2929C2.10536 21.4805 2 21.7348 2 22C2 22.2653 2.10536 22.5196 2.29289 22.7072C2.48043 22.8947 2.73478 23 3 23H15.23L11.94 26.28Z" fill="#01070E"/>
</svg>
