<svg width="36" height="36" viewBox="0 0 36 36" fill="none" xmlns="http://www.w3.org/2000/svg">
<path d="M31.0605 9H5.06055C4.79533 9 4.54098 8.89464 4.35344 8.70711C4.1659 8.51957 4.06055 8.26522 4.06055 8C4.06055 7.73478 4.1659 7.48043 4.35344 7.29289C4.54098 7.10536 4.79533 7 5.06055 7H31.0605C31.3258 7 31.5801 7.10536 31.7677 7.29289C31.9552 7.48043 32.0605 7.73478 32.0605 8C32.0605 8.26522 31.9552 8.51957 31.7677 8.70711C31.5801 8.89464 31.3258 9 31.0605 9Z" fill="#01070E"/>
<path d="M31.0605 14H14.0605C13.7953 14 13.541 13.8946 13.3534 13.7071C13.1659 13.5196 13.0605 13.2652 13.0605 13C13.0605 12.7348 13.1659 12.4804 13.3534 12.2929C13.541 12.1054 13.7953 12 14.0605 12H31.0605C31.3258 12 31.5801 12.1054 31.7677 12.2929C31.9552 12.4804 32.0605 12.7348 32.0605 13C32.0605 13.2652 31.9552 13.5196 31.7677 13.7071C31.5801 13.8946 31.3258 14 31.0605 14Z" fill="#01070E"/>
<path d="M31.0605 19H14.0605C13.7953 19 13.541 18.8946 13.3534 18.7071C13.1659 18.5196 13.0605 18.2652 13.0605 18C13.0605 17.7348 13.1659 17.4804 13.3534 17.2929C13.541 17.1054 13.7953 17 14.0605 17H31.0605C31.3258 17 31.5801 17.1054 31.7677 17.2929C31.9552 17.4804 32.0605 17.7348 32.0605 18C32.0605 18.2652 31.9552 18.5196 31.7677 18.7071C31.5801 18.8946 31.3258 19 31.0605 19Z" fill="#01070E"/>
<path d="M31.0605 24H14.0605C13.7953 24 13.541 23.8946 13.3534 23.7071C13.1659 23.5196 13.0605 23.2652 13.0605 23C13.0605 22.7348 13.1659 22.4804 13.3534 22.2929C13.541 22.1054 13.7953 22 14.0605 22H31.0605C31.3258 22 31.5801 22.1054 31.7677 22.2929C31.9552 22.4804 32.0605 22.7348 32.0605 23C32.0605 23.2652 31.9552 23.5196 31.7677 23.7071C31.5801 23.8946 31.3258 24 31.0605 24Z" fill="#01070E"/>
<path d="M31.0605 29H5.06055C4.79533 29 4.54098 28.8946 4.35344 28.7071C4.1659 28.5196 4.06055 28.2652 4.06055 28C4.06055 27.7348 4.1659 27.4804 4.35344 27.2929C4.54098 27.1054 4.79533 27 5.06055 27H31.0605C31.3258 27 31.5801 27.1054 31.7677 27.2929C31.9552 27.4804 32.0605 27.7348 32.0605 28C32.0605 28.2652 31.9552 28.5196 31.7677 28.7071C31.5801 28.8946 31.3258 29 31.0605 29Z" fill="#01070E"/>
<path d="M5.56026 22.54C5.36249 22.5392 5.1694 22.4797 5.00542 22.3692C4.84144 22.2586 4.71392 22.1019 4.63899 21.9189C4.56407 21.7358 4.5451 21.5347 4.58448 21.3409C4.62387 21.1471 4.71984 20.9693 4.86026 20.83L7.68026 18L4.86026 15.17C4.67401 14.9827 4.56947 14.7292 4.56947 14.465C4.56947 14.2008 4.67401 13.9474 4.86026 13.76C5.04762 13.5738 5.30107 13.4692 5.56526 13.4692C5.82945 13.4692 6.0829 13.5738 6.27026 13.76L10.5103 18L6.27026 22.24C6.17765 22.3345 6.0672 22.4097 5.94533 22.4612C5.82345 22.5127 5.69257 22.5395 5.56026 22.54Z" fill="#01070E"/>
</svg>
