<svg width="36" height="36" viewBox="0 0 36 36" fill="none" xmlns="http://www.w3.org/2000/svg">
<path d="M24.31 25.8099C22.56 25.8099 21.31 23.3199 21.31 19.8099C21.2571 17.461 21.8522 15.1429 23.03 13.1099C22.7892 12.8471 22.4964 12.6372 22.1702 12.4937C21.844 12.3501 21.4914 12.276 21.135 12.276C20.7786 12.276 20.426 12.3501 20.0998 12.4937C19.7736 12.6372 19.4808 12.8471 19.24 13.1099C20.4229 15.1242 21.0316 17.4241 21 19.7599C21 23.3199 19.77 25.7599 18 25.7599C16.23 25.7599 15 23.2699 15 19.7599C14.9471 17.411 15.5422 15.0929 16.72 13.0599C16.4792 12.7971 16.1864 12.5872 15.8602 12.4437C15.534 12.3001 15.1814 12.226 14.825 12.226C14.4686 12.226 14.116 12.3001 13.7898 12.4437C13.4636 12.5872 13.1708 12.7971 12.93 13.0599C14.1078 15.0929 14.7029 17.411 14.65 19.7599C14.65 23.3199 13.42 25.7599 11.65 25.7599C9.88 25.7599 8.65 23.2699 8.65 19.7599C8.59864 17.4125 9.18995 15.0956 10.36 13.0599C10.1182 12.7971 9.82659 12.5849 9.50217 12.4355C9.17774 12.2862 8.82692 12.2027 8.47 12.1899C7.1 12.1899 5.69 13.6999 5 15.9999L4.77 16.6999H2C1.73478 16.6999 1.48043 16.5945 1.29289 16.407C1.10536 16.2195 1 15.9651 1 15.6999C1 15.4347 1.10536 15.1803 1.29289 14.9928C1.48043 14.8053 1.73478 14.6999 2 14.6999H3.29C4.39 11.8699 6.35 10.1499 8.53 10.1499C9.71248 10.1739 10.8418 10.6456 11.69 11.4699C12.5328 10.6437 13.6599 10.1714 14.84 10.1499C16.0285 10.1826 17.1593 10.6693 18 11.5099C18.4122 11.0918 18.9033 10.7597 19.445 10.5331C19.9866 10.3064 20.5679 10.1897 21.155 10.1897C21.7421 10.1897 22.3234 10.3064 22.865 10.5331C23.4067 10.7597 23.8978 11.0918 24.31 11.5099C25.1582 10.6856 26.2875 10.2139 27.47 10.1899C29.65 10.1899 31.61 11.9099 32.71 14.7399H34C34.2652 14.7399 34.5196 14.8453 34.7071 15.0328C34.8946 15.2203 35 15.4747 35 15.7399C35 16.0051 34.8946 16.2595 34.7071 16.447C34.5196 16.6345 34.2652 16.7399 34 16.7399H31.28L31.05 16.0399C30.31 13.6999 28.9 12.1899 27.47 12.1899C27.1131 12.2027 26.7623 12.2862 26.4378 12.4355C26.1134 12.5849 25.8218 12.7971 25.58 13.0599C26.75 15.0956 27.3414 17.4125 27.29 19.7599C27.29 23.3199 26.07 25.8099 24.31 25.8099ZM18 14.9299C17.3275 16.4506 16.9866 18.0972 17 19.7599C17 22.2999 17.66 23.5099 18 23.7599C18.32 23.4899 19 22.2799 19 19.7599C19.0134 18.0972 18.6725 16.4506 18 14.9299ZM24.31 14.9299C23.6375 16.4506 23.2966 18.0972 23.31 19.7599C23.31 22.2999 23.97 23.5099 24.31 23.7599C24.63 23.4899 25.31 22.2799 25.31 19.7599C25.3234 18.0972 24.9825 16.4506 24.31 14.9299ZM11.69 14.9299C11.0175 16.4506 10.6766 18.0972 10.69 19.7599C10.69 22.2999 11.35 23.5099 11.69 23.7599C12.01 23.4899 12.69 22.2799 12.69 19.7599C12.7034 18.0972 12.3625 16.4506 11.69 14.9299Z" fill="#01070E"/>
</svg>
