<svg width="36" height="36" viewBox="0 0 36 36" fill="none" xmlns="http://www.w3.org/2000/svg">
<path d="M17.9293 13.3C18.7025 13.3 19.3293 12.6732 19.3293 11.9C19.3293 11.1268 18.7025 10.5 17.9293 10.5C17.1561 10.5 16.5293 11.1268 16.5293 11.9C16.5293 12.6732 17.1561 13.3 17.9293 13.3Z" fill="#01070E"/>
<path d="M21 23H19V15H16C15.7348 15 15.4804 15.1054 15.2929 15.2929C15.1054 15.4804 15 15.7348 15 16C15 16.2652 15.1054 16.5196 15.2929 16.7071C15.4804 16.8946 15.7348 17 16 17H17V23H15C14.7348 23 14.4804 23.1054 14.2929 23.2929C14.1054 23.4804 14 23.7348 14 24C14 24.2652 14.1054 24.5196 14.2929 24.7071C14.4804 24.8946 14.7348 25 15 25H21C21.2652 25 21.5196 24.8946 21.7071 24.7071C21.8946 24.5196 22 24.2652 22 24C22 23.7348 21.8946 23.4804 21.7071 23.2929C21.5196 23.1054 21.2652 23 21 23Z" fill="#01070E"/>
<path d="M18 6C15.6266 6 13.3066 6.70379 11.3332 8.02236C9.35977 9.34094 7.8217 11.2151 6.91345 13.4078C6.0052 15.6005 5.76756 18.0133 6.23058 20.3411C6.6936 22.6689 7.83649 24.8071 9.51472 26.4853C11.193 28.1635 13.3312 29.3064 15.6589 29.7694C17.9867 30.2324 20.3995 29.9948 22.5922 29.0866C24.7849 28.1783 26.6591 26.6402 27.9776 24.6668C29.2962 22.6935 30 20.3734 30 18C30 14.8174 28.7357 11.7652 26.4853 9.51472C24.2348 7.26428 21.1826 6 18 6ZM18 28C16.0222 28 14.0888 27.4135 12.4443 26.3147C10.7998 25.2159 9.51809 23.6541 8.76121 21.8268C8.00433 19.9996 7.8063 17.9889 8.19215 16.0491C8.578 14.1093 9.53041 12.3275 10.9289 10.9289C12.3275 9.53041 14.1093 8.578 16.0491 8.19215C17.9889 7.8063 19.9996 8.00433 21.8268 8.7612C23.6541 9.51808 25.2159 10.7998 26.3147 12.4443C27.4135 14.0888 28 16.0222 28 18C28 19.3132 27.7413 20.6136 27.2388 21.8268C26.7363 23.0401 25.9997 24.1425 25.0711 25.0711C24.1425 25.9997 23.0401 26.7362 21.8268 27.2388C20.6136 27.7413 19.3132 28 18 28Z" fill="#01070E"/>
</svg>
