<svg width="36" height="36" viewBox="0 0 36 36" fill="none" xmlns="http://www.w3.org/2000/svg">
<path d="M30.92 8.00014H26.55C26.2848 8.00014 26.0304 8.10549 25.8429 8.29303C25.6554 8.48057 25.55 8.73492 25.55 9.00014C25.55 9.26535 25.6554 9.51971 25.8429 9.70724C26.0304 9.89478 26.2848 10.0001 26.55 10.0001H31V30.0001H5V10.0001H9.38C9.64522 10.0001 9.89957 9.89478 10.0871 9.70724C10.2746 9.51971 10.38 9.26535 10.38 9.00014C10.38 8.73492 10.2746 8.48057 10.0871 8.29303C9.89957 8.10549 9.64522 8.00014 9.38 8.00014H5.08C4.8107 7.98936 4.542 8.03312 4.29004 8.12879C4.03808 8.22446 3.80806 8.37007 3.61378 8.55687C3.41951 8.74367 3.26499 8.96781 3.15952 9.21583C3.05404 9.46385 2.99978 9.73062 3 10.0001V30.0001C2.99978 30.2696 3.05404 30.5364 3.15952 30.7844C3.26499 31.0325 3.41951 31.2566 3.61378 31.4434C3.80806 31.6302 4.03808 31.7758 4.29004 31.8715C4.542 31.9672 4.8107 32.0109 5.08 32.0001H30.92C31.1893 32.0109 31.458 31.9672 31.71 31.8715C31.9619 31.7758 32.1919 31.6302 32.3862 31.4434C32.5805 31.2566 32.735 31.0325 32.8405 30.7844C32.946 30.5364 33.0002 30.2696 33 30.0001V10.0001C33.0002 9.73062 32.946 9.46385 32.8405 9.21583C32.735 8.96781 32.5805 8.74367 32.3862 8.55687C32.1919 8.37007 31.9619 8.22446 31.71 8.12879C31.458 8.03312 31.1893 7.98936 30.92 8.00014Z" fill="#01070E"/>
<path d="M10.3006 18.87L17.3006 25.76C17.4875 25.9432 17.7389 26.0459 18.0006 26.0459C18.2624 26.0459 18.5137 25.9432 18.7006 25.76L25.7006 18.87C25.8902 18.6843 25.9984 18.431 26.0012 18.1656C26.004 17.9002 25.9013 17.6446 25.7156 17.455C25.53 17.2654 25.2766 17.1573 25.0112 17.1544C24.7459 17.1516 24.4902 17.2543 24.3006 17.44L19.0006 22.65V4C19.0006 3.73478 18.8953 3.48043 18.7077 3.29289C18.5202 3.10536 18.2658 3 18.0006 3C17.7354 3 17.481 3.10536 17.2935 3.29289C17.106 3.48043 17.0006 3.73478 17.0006 4V22.65L11.7006 17.44C11.511 17.2543 11.2554 17.1516 10.99 17.1544C10.7246 17.1573 10.4713 17.2654 10.2856 17.455C10.1 17.6446 9.99724 17.9002 10.0001 18.1656C10.0029 18.431 10.111 18.6843 10.3006 18.87Z" fill="#01070E"/>
</svg>
