<svg width="36" height="36" viewBox="0 0 36 36" fill="none" xmlns="http://www.w3.org/2000/svg">
<path d="M30.8592 20.9402C31.5171 21.0212 32.1508 21.2392 32.7192 21.5802H32.7692C33.3597 18.7886 33.1482 15.8868 32.1592 13.2102C32.0669 12.9628 31.8806 12.7619 31.6408 12.6514C31.401 12.5409 31.1272 12.5297 30.8792 12.6202C30.6318 12.7125 30.4309 12.8988 30.3203 13.1386C30.2098 13.3784 30.1986 13.6522 30.2892 13.9002C31.1156 16.1515 31.3127 18.5854 30.8592 20.9402Z" fill="#01070E"/>
<path d="M26.3304 28.5801C24.5879 30.0338 22.4952 31.006 20.2604 31.4001C19.9952 31.4226 19.7498 31.5496 19.5782 31.7531C19.4066 31.9566 19.3229 32.2199 19.3454 32.4851C19.3679 32.7503 19.4949 32.9957 19.6984 33.1673C19.9019 33.3389 20.1652 33.4226 20.4304 33.4001H20.6104C23.274 32.9302 25.7634 31.7563 27.8204 30.0001V29.9301C27.2316 29.5936 26.7232 29.1329 26.3304 28.5801Z" fill="#01070E"/>
<path d="M15.6202 31.3401C14.1073 31.0579 12.6554 30.513 11.3302 29.7301C10.7638 29.3952 10.2194 29.0245 9.70023 28.6201C9.31896 29.1802 8.82087 29.651 8.24023 30.0001C8.88959 30.548 9.5818 31.0429 10.3102 31.4801C11.8376 32.3798 13.5088 33.009 15.2502 33.3401H15.4402C15.7055 33.364 15.9693 33.2815 16.1737 33.1109C16.3781 32.9402 16.5064 32.6953 16.5302 32.4301C16.5541 32.1649 16.4716 31.9011 16.301 31.6966C16.1303 31.4922 15.8855 31.364 15.6202 31.3401Z" fill="#01070E"/>
<path d="M4.55915 21.1501C4.76108 21.1348 4.96162 21.1048 5.15915 21.0601C4.68245 18.7022 4.86939 16.2582 5.69915 14.0001C5.79065 13.7508 5.77937 13.4754 5.66778 13.2344C5.5562 12.9934 5.35346 12.8066 5.10415 12.7151C4.85485 12.6236 4.57941 12.6349 4.33842 12.7465C4.09744 12.8581 3.91065 13.0608 3.81915 13.3101C2.82865 16.0084 2.63427 18.9345 3.25915 21.7401C3.66044 21.4794 4.09868 21.2805 4.55915 21.1501Z" fill="#01070E"/>
<path d="M31.9002 23C31.5431 22.7727 31.1444 22.6186 30.7273 22.5465C30.3102 22.4744 29.8829 22.4858 29.4702 22.58C28.9471 22.7169 28.466 22.9815 28.0702 23.35L24.2002 21.11C24.8097 19.6042 24.8659 17.9311 24.3588 16.3878C23.8517 14.8445 22.8141 13.5308 21.4302 12.68L21.3202 12.61C20.5739 12.1851 19.7519 11.91 18.9002 11.8V7.99998C19.6971 7.76157 20.3708 7.22403 20.7802 6.49998C21.222 5.75214 21.3511 4.86029 21.1395 4.01787C20.928 3.17545 20.3929 2.4504 19.6502 1.99998C19.2884 1.78831 18.888 1.65098 18.4725 1.59603C18.0569 1.54108 17.6346 1.56962 17.2302 1.67998C16.8133 1.78627 16.4217 1.97453 16.0783 2.23379C15.7349 2.49304 15.4466 2.8181 15.2302 3.18998C14.8009 3.93421 14.6788 4.81652 14.8898 5.64938C15.1008 6.48223 15.6283 7.19995 16.3602 7.64998C16.5888 7.80153 16.838 7.9194 17.1002 7.99998V11.8C16.0931 11.9382 15.1312 12.3058 14.2886 12.8745C13.446 13.4432 12.7452 14.1977 12.2402 15.08C11.7183 15.9822 11.4092 16.9917 11.3365 18.0314C11.2637 19.0712 11.4291 20.1138 11.8202 21.08L7.82021 23.37C7.67887 23.2456 7.52845 23.132 7.37021 23.03C7.00582 22.8204 6.60371 22.6847 6.18685 22.6306C5.77 22.5765 5.34657 22.6051 4.94075 22.7146C4.53493 22.8242 4.15468 23.0127 3.82172 23.2692C3.48875 23.5258 3.2096 23.8455 3.00021 24.21C2.56823 24.9506 2.44148 25.8303 2.6468 26.6628C2.85212 27.4953 3.37338 28.2151 4.10021 28.67C4.59839 28.9699 5.1687 29.1289 5.75021 29.13C6.01353 29.1318 6.27589 29.0982 6.53021 29.03C6.95685 28.9211 7.35682 28.7264 7.70569 28.4578C8.05457 28.1891 8.34503 27.8522 8.55934 27.4676C8.77365 27.083 8.90731 26.6587 8.95216 26.2207C8.99702 25.7826 8.95212 25.3401 8.82021 24.92L12.7002 22.68C13.2213 23.3599 13.8617 23.9394 14.5902 24.39C15.9883 25.2715 17.6699 25.5864 19.2922 25.2705C20.9145 24.9546 22.3551 24.0317 23.3202 22.69L27.1502 24.9C26.9697 25.582 27.0132 26.304 27.2743 26.9594C27.5353 27.6148 28.0002 28.1689 28.6002 28.54C29.0943 28.841 29.6617 29.0002 30.2402 29C30.7996 29.0021 31.3497 28.8561 31.8344 28.5768C32.3192 28.2975 32.7214 27.895 33.0002 27.41C33.4169 26.674 33.5351 25.8061 33.3304 24.9854C33.1258 24.1648 32.6138 23.4541 31.9002 23ZM7.00021 26.62C6.90032 26.7832 6.76803 26.9242 6.61152 27.0343C6.455 27.1443 6.27758 27.2212 6.09021 27.26C5.9081 27.3123 5.71707 27.326 5.52937 27.3001C5.34166 27.2743 5.16143 27.2095 5.00021 27.11C4.67319 26.9071 4.43806 26.5847 4.34472 26.2114C4.25138 25.838 4.30715 25.4429 4.50021 25.11C4.59473 24.9463 4.72144 24.8034 4.87268 24.6899C5.02392 24.5765 5.19657 24.4949 5.38021 24.45C5.49091 24.4187 5.6052 24.4019 5.72021 24.4C5.98603 24.4006 6.24617 24.4769 6.47021 24.62C6.80231 24.818 7.04371 25.1382 7.14276 25.512C7.24181 25.8858 7.19065 26.2834 7.00021 26.62ZM16.7802 4.08998C16.8747 3.92625 17.0014 3.78336 17.1527 3.66993C17.3039 3.5565 17.4766 3.47487 17.6602 3.42998C17.7709 3.39868 17.8852 3.38187 18.0002 3.37998C18.2538 3.38117 18.5024 3.45023 18.7202 3.57998C19.0472 3.7829 19.2824 4.10523 19.3757 4.47861C19.4691 4.85198 19.4133 5.24704 19.2202 5.57998C19.1257 5.74371 18.999 5.8866 18.8477 6.00003C18.6965 6.11346 18.5239 6.19508 18.3402 6.23998C18.1626 6.28799 17.977 6.29945 17.7948 6.27367C17.6126 6.24788 17.4376 6.18539 17.2802 6.08998C16.9532 5.88706 16.7181 5.56473 16.6247 5.19135C16.5314 4.81798 16.5872 4.42292 16.7802 4.08998ZM19.1902 23.41C18.5718 23.5699 17.9276 23.6045 17.2957 23.5117C16.6637 23.419 16.0566 23.2008 15.5102 22.87C14.382 22.1774 13.5695 21.071 13.2462 19.7873C12.9229 18.5035 13.1146 17.1443 13.7802 16C14.2093 15.2609 14.8249 14.6474 15.5655 14.221C16.306 13.7945 17.1456 13.5701 18.0002 13.57C18.8656 13.568 19.7154 13.7994 20.4602 14.24C21.5884 14.9326 22.4009 16.0389 22.7242 17.3227C23.0475 18.6064 22.8558 19.9657 22.1902 21.11C21.8691 21.6743 21.4383 22.1686 20.923 22.5636C20.4077 22.9586 19.8185 23.2464 19.1902 23.41ZM31.4402 26.49C31.2469 26.8208 30.9305 27.0617 30.5602 27.16C30.3819 27.2065 30.196 27.2163 30.0138 27.1888C29.8316 27.1613 29.6568 27.0971 29.5002 27C29.1732 26.7971 28.9381 26.4747 28.8447 26.1014C28.7514 25.728 28.8071 25.3329 29.0002 25C29.09 24.8226 29.2168 24.6665 29.3721 24.5423C29.5273 24.4181 29.7074 24.3286 29.9002 24.28C30.0133 24.27 30.1271 24.27 30.2402 24.28C30.4834 24.278 30.7223 24.3438 30.9302 24.47C31.2643 24.6715 31.5053 24.9967 31.6009 25.375C31.6964 25.7533 31.6386 26.154 31.4402 26.49Z" fill="#01070E"/>
<path d="M8.04916 10.0002C9.4818 8.3078 11.3235 7.01 13.3992 6.23016C13.1982 5.55966 13.1403 4.85445 13.2292 4.16016C10.6289 5.02953 8.31325 6.58825 6.52916 8.67016C6.35279 8.87172 6.26372 9.13509 6.28154 9.40233C6.29935 9.66957 6.4226 9.91879 6.62416 10.0952C6.82573 10.2715 7.0891 10.3606 7.35634 10.3428C7.62358 10.325 7.87279 10.2017 8.04916 10.0002Z" fill="#01070E"/>
<path d="M24.6696 7.22992C25.9006 7.96854 27.0019 8.90433 27.9296 9.99992C28.015 10.0997 28.1191 10.1817 28.2362 10.2413C28.3533 10.3008 28.4809 10.3367 28.6118 10.3469C28.7428 10.3572 28.8744 10.3415 28.9993 10.3008C29.1242 10.2601 29.2398 10.1953 29.3396 10.1099C29.4394 10.0246 29.5214 9.92038 29.581 9.80333C29.6405 9.68627 29.6764 9.55863 29.6866 9.4277C29.6968 9.29677 29.6812 9.16511 29.6405 9.04024C29.5998 8.91537 29.535 8.79973 29.4496 8.69992C28.3816 7.43289 27.1111 6.35158 25.6896 5.49992C24.7573 4.95785 23.7723 4.51221 22.7496 4.16992C22.85 4.85933 22.7988 5.56233 22.5996 6.22992C23.3157 6.50636 24.008 6.8408 24.6696 7.22992Z" fill="#01070E"/>
</svg>
