<svg width="36" height="36" viewBox="0 0 36 36" fill="none" xmlns="http://www.w3.org/2000/svg">
<path d="M24.4204 8.00012H17.1004C16.9478 7.98552 16.7938 8.00297 16.6484 8.05136C16.5029 8.09975 16.3692 8.178 16.2558 8.2811C16.1423 8.3842 16.0517 8.50987 15.9897 8.65005C15.9277 8.79023 15.8956 8.94183 15.8956 9.09512C15.8956 9.24841 15.9277 9.4 15.9897 9.54018C16.0517 9.68036 16.1423 9.80603 16.2558 9.90913C16.3692 10.0122 16.5029 10.0905 16.6484 10.1389C16.7938 10.1873 16.9478 10.2047 17.1004 10.1901H19.2304L13.1104 25.5501H10.4704C10.3178 25.5355 10.1638 25.553 10.0184 25.6014C9.87294 25.6497 9.73921 25.728 9.62577 25.8311C9.51234 25.9342 9.4217 26.0599 9.35968 26.2001C9.29766 26.3402 9.26562 26.4918 9.26562 26.6451C9.26562 26.7984 9.29766 26.95 9.35968 27.0902C9.4217 27.2304 9.51234 27.356 9.62577 27.4591C9.73921 27.5622 9.87294 27.6405 10.0184 27.6889C10.1638 27.7373 10.3178 27.7547 10.4704 27.7401H17.8004C17.953 27.7547 18.1069 27.7373 18.2524 27.6889C18.3978 27.6405 18.5316 27.5622 18.645 27.4591C18.7584 27.356 18.8491 27.2304 18.9111 27.0902C18.9731 26.95 19.0051 26.7984 19.0051 26.6451C19.0051 26.4918 18.9731 26.3402 18.9111 26.2001C18.8491 26.0599 18.7584 25.9342 18.645 25.8311C18.5316 25.728 18.3978 25.6497 18.2524 25.6014C18.1069 25.553 17.953 25.5355 17.8004 25.5501H15.5104L21.6404 10.1901H24.4204C24.573 10.2047 24.7269 10.1873 24.8724 10.1389C25.0178 10.0905 25.1516 10.0122 25.265 9.90913C25.3784 9.80603 25.4691 9.68036 25.5311 9.54018C25.5931 9.4 25.6251 9.24841 25.6251 9.09512C25.6251 8.94183 25.5931 8.79023 25.5311 8.65005C25.4691 8.50987 25.3784 8.3842 25.265 8.2811C25.1516 8.178 25.0178 8.09975 24.8724 8.05136C24.7269 8.00297 24.573 7.98552 24.4204 8.00012Z" fill="#01070E"/>
</svg>
