<svg width="36" height="36" viewBox="0 0 36 36" fill="none" xmlns="http://www.w3.org/2000/svg">
<path d="M6.00039 10.2H31.7504C32.0421 10.2 32.3219 10.0841 32.5282 9.87782C32.7345 9.67153 32.8504 9.39174 32.8504 9.1C32.8504 8.80826 32.7345 8.52847 32.5282 8.32218C32.3219 8.11589 32.0421 8 31.7504 8H6.00039C5.70865 8 5.42886 8.11589 5.22257 8.32218C5.01628 8.52847 4.90039 8.80826 4.90039 9.1C4.90039 9.39174 5.01628 9.67153 5.22257 9.87782C5.42886 10.0841 5.70865 10.2 6.00039 10.2Z" fill="#01070E"/>
<path d="M31.7504 14H6.00039C5.70865 14 5.42886 14.1159 5.22257 14.3222C5.01628 14.5285 4.90039 14.8083 4.90039 15.1C4.90039 15.3917 5.01628 15.6715 5.22257 15.8778C5.42886 16.0841 5.70865 16.2 6.00039 16.2H31.7504C32.0421 16.2 32.3219 16.0841 32.5282 15.8778C32.7345 15.6715 32.8504 15.3917 32.8504 15.1C32.8504 14.8083 32.7345 14.5285 32.5282 14.3222C32.3219 14.1159 32.0421 14 31.7504 14Z" fill="#01070E"/>
<path d="M31.1195 20H6.61953C6.32779 20 6.048 20.1159 5.84171 20.3222C5.63542 20.5285 5.51953 20.8083 5.51953 21.1C5.51953 21.3917 5.63542 21.6715 5.84171 21.8778C6.048 22.0841 6.32779 22.2 6.61953 22.2H31.1195C31.4113 22.2 31.6911 22.0841 31.8973 21.8778C32.1036 21.6715 32.2195 21.3917 32.2195 21.1C32.2195 20.8083 32.1036 20.5285 31.8973 20.3222C31.6911 20.1159 31.4113 20 31.1195 20Z" fill="#01070E"/>
<path d="M30.45 25.8301H6.6C6.30826 25.8301 6.02847 25.946 5.82218 26.1523C5.61589 26.3585 5.5 26.6383 5.5 26.9301C5.5 27.2218 5.61589 27.5016 5.82218 27.7079C6.02847 27.9142 6.30826 28.0301 6.6 28.0301H30.45C30.7417 28.0301 31.0215 27.9142 31.2278 27.7079C31.4341 27.5016 31.55 27.2218 31.55 26.9301C31.55 26.6383 31.4341 26.3585 31.2278 26.1523C31.0215 25.946 30.7417 25.8301 30.45 25.8301Z" fill="#01070E"/>
</svg>
