<svg width="36" height="36" viewBox="0 0 36 36" fill="none" xmlns="http://www.w3.org/2000/svg">
<path d="M12.9987 8.36844L7.54695 13.8202C7.15643 14.2108 7.15643 14.8439 7.54695 15.2345L7.95 15.6375C8.34053 16.028 8.97369 16.028 9.36421 15.6375L14.816 10.1857C15.2065 9.79518 15.2065 9.16202 14.816 8.77149L14.413 8.36844C14.0224 7.97792 13.3893 7.97792 12.9987 8.36844Z" fill="#01070E"/>
<path d="M23.3509 16.7999L23.9809 16.1699C24.216 15.9348 24.427 15.6769 24.6109 15.3999H22.2309H21.9409L20.5209 16.7999L32.0009 28.2799V31.9999H28.8609L27.0909 30.2399V27.4399H23.4109V24.4399H18.8009L15.8009 21.4399L14.0009 23.3099C13.4384 23.8717 12.6759 24.1873 11.8809 24.1873C11.0859 24.1873 10.3234 23.8717 9.76089 23.3099L4.50089 17.9999C3.93908 17.4374 3.62353 16.6749 3.62353 15.8799C3.62353 15.0849 3.93908 14.3224 4.50089 13.7599L13.0609 5.19991C13.6234 4.63811 14.3859 4.32255 15.1809 4.32255C15.9759 4.32255 16.7384 4.63811 17.3009 5.19991L20.1009 8.05991L21.1009 6.26991L18.7109 3.83991C17.7732 2.90255 16.5017 2.37598 15.1759 2.37598C13.8501 2.37598 12.5785 2.90255 11.6409 3.83991L3.09089 12.3899C2.15353 13.3275 1.62695 14.5991 1.62695 15.9249C1.62695 17.2507 2.15353 18.5223 3.09089 19.4599L8.35089 24.7199C9.28852 25.6573 10.5601 26.1838 11.8859 26.1838C13.2117 26.1838 14.4832 25.6573 15.4209 24.7199L15.8209 24.3199L18.0009 26.4799H21.4409V29.4799H25.1309V31.1099L28.0009 33.9999H34.0009V27.4499L23.3509 16.7999Z" fill="#01070E"/>
<path d="M26.8504 1.13981L21.1304 10.9998C20.9973 11.1951 20.9209 11.4235 20.9097 11.6596C20.8984 11.8957 20.9527 12.1303 21.0666 12.3374C21.1806 12.5445 21.3496 12.716 21.555 12.8329C21.7604 12.9498 21.9942 13.0076 22.2304 12.9998H33.6804C33.9166 13.0076 34.1504 12.9498 34.3558 12.8329C34.5612 12.716 34.7302 12.5445 34.8441 12.3374C34.958 12.1303 35.0123 11.8957 35.0011 11.6596C34.9898 11.4235 34.9135 11.1951 34.7804 10.9998L29.0604 1.13981C28.9476 0.946869 28.7862 0.786825 28.5923 0.675603C28.3985 0.564381 28.1789 0.505859 27.9554 0.505859C27.7319 0.505859 27.5123 0.564381 27.3184 0.675603C27.1245 0.786825 26.9632 0.946869 26.8504 1.13981Z" fill="#01070E"/>
</svg>
