<svg width="36" height="36" viewBox="0 0 36 36" fill="none" xmlns="http://www.w3.org/2000/svg">
<path d="M12.9987 8.36844L7.54695 13.8202C7.15643 14.2108 7.15643 14.8439 7.54695 15.2345L7.95 15.6375C8.34053 16.028 8.97369 16.028 9.36421 15.6375L14.816 10.1857C15.2065 9.79518 15.2065 9.16202 14.816 8.77149L14.413 8.36844C14.0224 7.97792 13.3893 7.97792 12.9987 8.36844Z" fill="#01070E"/>
<path d="M23.3509 16.7999L23.9809 16.1699C24.9209 15.2349 25.4511 13.9649 25.4548 12.639C25.4586 11.3132 24.9356 10.0402 24.0009 9.09991L18.7109 3.83991C17.7732 2.90255 16.5017 2.37598 15.1759 2.37598C13.8501 2.37598 12.5785 2.90255 11.6409 3.83991L3.09089 12.3899C2.15353 13.3275 1.62695 14.5991 1.62695 15.9249C1.62695 17.2507 2.15353 18.5223 3.09089 19.4599L8.35089 24.7199C9.28852 25.6573 10.5601 26.1838 11.8859 26.1838C13.2117 26.1838 14.4832 25.6573 15.4209 24.7199L15.8209 24.3199L18.0009 26.4799H21.4409V29.4799H25.1309V31.1099L28.0009 33.9999H34.0009V27.4499L23.3509 16.7999ZM32.0009 31.9999H28.8609L27.0909 30.2399V27.4399H23.4109V24.4399H18.8009L15.8009 21.4399L14.0009 23.3099C13.4384 23.8717 12.6759 24.1873 11.8809 24.1873C11.0859 24.1873 10.3234 23.8717 9.76089 23.3099L4.50089 17.9999C3.93908 17.4374 3.62353 16.6749 3.62353 15.8799C3.62353 15.0849 3.93908 14.3224 4.50089 13.7599L13.0609 5.19991C13.6234 4.63811 14.3859 4.32255 15.1809 4.32255C15.9759 4.32255 16.7384 4.63811 17.3009 5.19991L22.5609 10.4599C23.1227 11.0224 23.4382 11.7849 23.4382 12.5799C23.4382 13.3749 23.1227 14.1374 22.5609 14.6999L20.5609 16.6999L32.0009 28.2799V31.9999Z" fill="#01070E"/>
</svg>
