<svg width="36" height="36" viewBox="0 0 36 36" fill="none" xmlns="http://www.w3.org/2000/svg">
<path d="M32 8H4C3.46957 8 2.96086 8.21071 2.58579 8.58579C2.21071 8.96086 2 9.46957 2 10V26C2 26.5304 2.21071 27.0391 2.58579 27.4142C2.96086 27.7893 3.46957 28 4 28H32C32.5304 28 33.0391 27.7893 33.4142 27.4142C33.7893 27.0391 34 26.5304 34 26V10C34 9.46957 33.7893 8.96086 33.4142 8.58579C33.0391 8.21071 32.5304 8 32 8ZM32 26H4V10H32V26Z" fill="#01070E"/>
<path d="M9 13H7V15H9V13Z" fill="#01070E"/>
<path d="M13 13H11V15H13V13Z" fill="#01070E"/>
<path d="M17 13H15V15H17V13Z" fill="#01070E"/>
<path d="M21 13H19V15H21V13Z" fill="#01070E"/>
<path d="M25 13H23V15H25V13Z" fill="#01070E"/>
<path d="M29 13H27V15H29V13Z" fill="#01070E"/>
<path d="M9 17H7V19H9V17Z" fill="#01070E"/>
<path d="M13 17H11V19H13V17Z" fill="#01070E"/>
<path d="M17 17H15V19H17V17Z" fill="#01070E"/>
<path d="M21 17H19V19H21V17Z" fill="#01070E"/>
<path d="M25 17H23V19H25V17Z" fill="#01070E"/>
<path d="M29 17H27V19H29V17Z" fill="#01070E"/>
<path d="M28.94 22H27V24H28.94V22Z" fill="#01070E"/>
<path d="M9 22H7V24H9V22Z" fill="#01070E"/>
<path d="M24.8809 22H11.1309V24H24.8809V22Z" fill="#01070E"/>
</svg>
