<svg width="36" height="36" viewBox="0 0 36 36" fill="none" xmlns="http://www.w3.org/2000/svg">
<path d="M32 6H4C3.46957 6 2.96086 6.21071 2.58579 6.58579C2.21071 6.96086 2 7.46957 2 8V28C2 28.5304 2.21071 29.0391 2.58579 29.4142C2.96086 29.7893 3.46957 30 4 30H32C32.5304 30 33.0391 29.7893 33.4142 29.4142C33.7893 29.0391 34 28.5304 34 28V8C34 7.46957 33.7893 6.96086 33.4142 6.58579C33.0391 6.21071 32.5304 6 32 6ZM32 28H4V8H32V28Z" fill="#01070E"/>
<path d="M9.00016 21.9998C9.20316 22.0003 9.39914 21.9255 9.55016 21.7898C9.69977 21.6398 9.78379 21.4367 9.78379 21.2248C9.78379 21.013 9.69977 20.8098 9.55016 20.6598L7.83016 18.7998H28.1702L26.4502 20.6598C26.3005 20.8098 26.2165 21.013 26.2165 21.2248C26.2165 21.4367 26.3005 21.6398 26.4502 21.7898C26.6012 21.9255 26.7971 22.0003 27.0002 21.9998C27.1097 21.9996 27.2179 21.9764 27.3178 21.9316C27.4178 21.8868 27.5071 21.8214 27.5802 21.7398L31.0902 17.9998L27.6202 14.2598C27.5466 14.1845 27.4587 14.1247 27.3617 14.0839C27.2646 14.043 27.1604 14.022 27.0552 14.022C26.9499 14.022 26.8457 14.043 26.7486 14.0839C26.6516 14.1247 26.5637 14.1845 26.4902 14.2598C26.3405 14.4098 26.2565 14.613 26.2565 14.8248C26.2565 15.0367 26.3405 15.2398 26.4902 15.3898L28.2102 17.2498H7.83016L9.55016 15.3898C9.69977 15.2398 9.78379 15.0367 9.78379 14.8248C9.78379 14.613 9.69977 14.4098 9.55016 14.2598C9.47658 14.1845 9.38869 14.1247 9.29167 14.0839C9.19464 14.043 9.09043 14.022 8.98516 14.022C8.87988 14.022 8.77567 14.043 8.67865 14.0839C8.58162 14.1247 8.49374 14.1845 8.42016 14.2598L4.91016 17.9998L8.38016 21.7398C8.45757 21.8266 8.55343 21.8951 8.66071 21.94C8.76798 21.985 8.88396 22.0055 9.00016 21.9998Z" fill="#01070E"/>
</svg>
