<svg width="36" height="36" viewBox="0 0 36 36" fill="none" xmlns="http://www.w3.org/2000/svg">
<path d="M18.0007 20.2502C17.8517 20.2494 17.7048 20.2152 17.5707 20.1502L2.57068 13.0602C2.39889 12.9795 2.25362 12.8515 2.15187 12.6912C2.05013 12.531 1.99609 12.3451 1.99609 12.1552C1.99609 11.9654 2.05013 11.7795 2.15187 11.6192C2.25362 11.459 2.39889 11.331 2.57068 11.2502L17.5707 4.16024C17.7037 4.0978 17.8488 4.06543 17.9957 4.06543C18.1426 4.06543 18.2877 4.0978 18.4207 4.16024L33.4207 11.2502C33.5925 11.331 33.7377 11.459 33.8395 11.6192C33.9412 11.7795 33.9953 11.9654 33.9953 12.1552C33.9953 12.3451 33.9412 12.531 33.8395 12.6912C33.7377 12.8515 33.5925 12.9795 33.4207 13.0602L18.4207 20.1502C18.2896 20.2138 18.1463 20.2479 18.0007 20.2502ZM5.34068 12.1602L18.0007 18.1602L30.6607 12.1602L18.0007 6.18024L5.34068 12.1602Z" fill="#01070E"/>
<path d="M18.0005 26.1602C17.8515 26.1593 17.7045 26.1252 17.5704 26.0602L2.57045 19.0002C2.44912 18.946 2.33982 18.8681 2.24893 18.7712C2.15805 18.6742 2.0874 18.5601 2.04112 18.4355C1.99483 18.3109 1.97385 18.1784 1.97938 18.0456C1.98492 17.9128 2.01687 17.7825 2.07336 17.6622C2.12985 17.5419 2.20975 17.4341 2.30839 17.345C2.40703 17.256 2.52244 17.1875 2.64786 17.1435C2.77328 17.0996 2.9062 17.0811 3.03886 17.0891C3.17151 17.0971 3.30124 17.1315 3.42045 17.1902L18.0005 24.0602L32.5704 17.1702C32.6906 17.1138 32.8207 17.0815 32.9533 17.0753C33.086 17.0691 33.2185 17.0891 33.3434 17.1342C33.4683 17.1792 33.5831 17.2484 33.6812 17.3378C33.7794 17.4272 33.859 17.5351 33.9155 17.6552C33.9719 17.7754 34.0042 17.9055 34.0104 18.0381C34.0165 18.1707 33.9965 18.3033 33.9515 18.4282C33.9065 18.5531 33.8373 18.6679 33.7479 18.766C33.6585 18.8642 33.5506 18.9438 33.4305 19.0002L18.4305 26.0902C18.294 26.1449 18.1472 26.1688 18.0005 26.1602Z" fill="#01070E"/>
<path d="M17.9998 32.07C17.8508 32.0691 17.7039 32.0349 17.5698 31.97L2.56979 24.88C2.33478 24.7642 2.15459 24.5608 2.06797 24.3136C1.98134 24.0663 1.9952 23.795 2.10656 23.5578C2.21792 23.3207 2.41789 23.1367 2.66346 23.0455C2.90904 22.9543 3.18061 22.9631 3.41979 23.07L17.9998 30L32.5698 23.11C32.689 23.0512 32.8187 23.0168 32.9514 23.0088C33.084 23.0008 33.217 23.0193 33.3424 23.0633C33.4678 23.1072 33.5832 23.1757 33.6818 23.2648C33.7805 23.3538 33.8604 23.4616 33.9169 23.5819C33.9734 23.7022 34.0053 23.8326 34.0109 23.9653C34.0164 24.0981 33.9954 24.2307 33.9491 24.3553C33.9028 24.4798 33.8322 24.5939 33.7413 24.6909C33.6504 24.7879 33.5411 24.8657 33.4198 24.92L18.4298 32C18.2933 32.0546 18.1465 32.0785 17.9998 32.07Z" fill="#01070E"/>
</svg>
