<svg width="36" height="36" viewBox="0 0 36 36" fill="none" xmlns="http://www.w3.org/2000/svg">
<path d="M33.48 29.63L26.74 11.82C26.6468 11.5744 26.5061 11.3496 26.326 11.1584C26.1459 10.9672 25.9299 10.8133 25.6903 10.7056C25.4507 10.5979 25.1922 10.5384 24.9297 10.5306C24.6671 10.5227 24.4056 10.5667 24.16 10.66L21 11.85V8.92C21 8.41078 20.7977 7.92242 20.4376 7.56236C20.0776 7.20229 19.5892 7 19.08 7H14V4.92C14 4.41078 13.7977 3.92242 13.4376 3.56236C13.0776 3.20229 12.5892 3 12.08 3H5C4.46957 3 3.96086 3.21071 3.58579 3.58579C3.21071 3.96086 3 4.46957 3 5V32C3 32.2652 3.10536 32.5196 3.29289 32.7071C3.48043 32.8946 3.73478 33 4 33H20C20.2652 33 20.5196 32.8946 20.7071 32.7071C20.8946 32.5196 21 32.2652 21 32V19.27L26 32.48C26.0466 32.6028 26.1169 32.7152 26.207 32.8108C26.2971 32.9064 26.4051 32.9834 26.5249 33.0372C26.6446 33.0911 26.7739 33.1208 26.9052 33.1247C27.0364 33.1286 27.1672 33.1066 27.29 33.06L32.9 30.92C33.0228 30.8734 33.1352 30.8031 33.2308 30.713C33.3264 30.6229 33.4034 30.5149 33.4572 30.3951C33.5111 30.2754 33.5408 30.1461 33.5447 30.0148C33.5486 29.8836 33.5266 29.7528 33.48 29.63ZM12 8.83V31H5V5H12V8.83ZM19 31H14V9H19V31ZM27.51 30.75L21.13 13.92L24.87 12.5L31.26 29.33L27.51 30.75Z" fill="#01070E"/>
</svg>
