<svg width="36" height="36" viewBox="0 0 36 36" fill="none" xmlns="http://www.w3.org/2000/svg">
<path d="M18.0006 2.25C15.0833 2.25 12.2854 3.40893 10.2225 5.47183C8.15956 7.53473 7.00063 10.3326 7.00063 13.25C6.9832 14.8487 7.32494 16.431 8.00063 17.88C8.33541 18.4967 8.70951 19.0913 9.12063 19.66C9.9217 20.7338 10.593 21.8986 11.1206 23.13C11.4837 24.4334 11.6819 25.7773 11.7106 27.13H13.7106C13.6799 25.5424 13.4412 23.9656 13.0006 22.44C12.4234 21.0476 11.6779 19.7311 10.7806 18.52C10.4177 18.0265 10.0838 17.5123 9.78063 16.98C9.24335 15.8041 8.9768 14.5226 9.00063 13.23C9.00063 10.8338 9.95253 8.53568 11.6469 6.84129C13.3413 5.1469 15.6394 4.195 18.0356 4.195C20.4319 4.195 22.73 5.1469 24.4243 6.84129C26.1187 8.53568 27.0706 10.8338 27.0706 13.23C27.0725 14.5355 26.7784 15.8244 26.2106 17C25.9075 17.5323 25.5736 18.0465 25.2106 18.54C24.3183 19.7454 23.5761 21.0551 23.0006 22.44C22.5583 23.972 22.3196 25.5556 22.2906 27.15H24.2906C24.3194 25.7973 24.5176 24.4534 24.8806 23.15C25.4082 21.9186 26.0796 20.7538 26.8806 19.68C27.2934 19.0985 27.6675 18.4905 28.0006 17.86C28.6763 16.411 29.0181 14.8287 29.0006 13.23C28.9953 10.3161 27.8341 7.52333 25.7717 5.46475C23.7094 3.40617 20.9146 2.25 18.0006 2.25Z" fill="#01070E"/>
<path d="M18.63 15.51C18.48 15.3604 18.2768 15.2764 18.065 15.2764C17.8532 15.2764 17.65 15.3604 17.5 15.51L14.5 18.51L17.36 21.64V27.18H19V21L16.76 18.55L18.65 16.66C18.7258 16.5841 18.7856 16.4937 18.8258 16.3941C18.866 16.2946 18.8857 16.1881 18.8838 16.0808C18.882 15.9735 18.8585 15.8676 18.8149 15.7696C18.7713 15.6715 18.7084 15.5832 18.63 15.51Z" fill="#01070E"/>
<path d="M23.8605 29.1499H12.1105C11.8984 29.1499 11.6949 29.2342 11.5449 29.3842C11.3948 29.5342 11.3105 29.7377 11.3105 29.9499C11.3105 30.1621 11.3948 30.3656 11.5449 30.5156C11.6949 30.6656 11.8984 30.7499 12.1105 30.7499H23.8605C24.0727 30.7499 24.2762 30.6656 24.4262 30.5156C24.5763 30.3656 24.6605 30.1621 24.6605 29.9499C24.6605 29.7377 24.5763 29.5342 24.4262 29.3842C24.2762 29.2342 24.0727 29.1499 23.8605 29.1499Z" fill="#01070E"/>
<path d="M21.9992 32.1499H13.9992C13.787 32.1499 13.5836 32.2342 13.4335 32.3842C13.2835 32.5342 13.1992 32.7377 13.1992 32.9499C13.1992 33.1621 13.2835 33.3656 13.4335 33.5156C13.5836 33.6656 13.787 33.7499 13.9992 33.7499H21.9992C22.2114 33.7499 22.4149 33.6656 22.5649 33.5156C22.7149 33.3656 22.7992 33.1621 22.7992 32.9499C22.7992 32.7377 22.7149 32.5342 22.5649 32.3842C22.4149 32.2342 22.2114 32.1499 21.9992 32.1499Z" fill="#01070E"/>
<path d="M17.32 10.8898L14.59 13.6198C14.4521 13.772 14.378 13.9713 14.3831 14.1766C14.3881 14.3819 14.4719 14.5774 14.6171 14.7226C14.7623 14.8678 14.9578 14.9516 15.1631 14.9567C15.3684 14.9617 15.5678 14.8877 15.72 14.7498L18.45 11.9998C18.5303 11.927 18.595 11.8387 18.6401 11.7402C18.6853 11.6416 18.7099 11.535 18.7126 11.4266C18.7152 11.3183 18.6959 11.2105 18.6556 11.1099C18.6154 11.0093 18.5551 10.9179 18.4785 10.8412C18.4019 10.7646 18.3105 10.7044 18.2098 10.6641C18.1092 10.6239 18.0015 10.6045 17.8931 10.6072C17.7848 10.6098 17.6781 10.6345 17.5796 10.6796C17.4811 10.7248 17.3927 10.7895 17.32 10.8698V10.8898Z" fill="#01070E"/>
</svg>
