<svg width="36" height="36" viewBox="0 0 36 36" fill="none" xmlns="http://www.w3.org/2000/svg">
<path d="M17.6006 24.3201L15.1406 26.7601C14.392 27.499 13.3824 27.9133 12.3306 27.9133C11.2787 27.9133 10.2692 27.499 9.52058 26.7601C9.15563 26.396 8.86609 25.9634 8.66853 25.4872C8.47098 25.0111 8.36929 24.5006 8.36929 23.9851C8.36929 23.4695 8.47098 22.9591 8.66853 22.4829C8.86609 22.0067 9.15563 21.5742 9.52058 21.2101L14.2106 16.5601C14.9592 15.8211 15.9687 15.4068 17.0206 15.4068C18.0724 15.4068 19.082 15.8211 19.8306 16.5601C20.307 17.0334 20.6517 17.6228 20.8306 18.2701C20.929 18.1889 21.0194 18.0985 21.1006 18.0001L22.3906 16.7201C22.1017 16.1189 21.7129 15.5711 21.2406 15.1001C20.1172 13.9886 18.6008 13.3652 17.0206 13.3652C15.4403 13.3652 13.9239 13.9886 12.8006 15.1001L8.10058 19.7901C7.54697 20.3394 7.10758 20.993 6.80774 21.7129C6.50789 22.4329 6.35352 23.2051 6.35352 23.9851C6.35352 24.765 6.50789 25.5372 6.80774 26.2572C7.10758 26.9772 7.54697 27.6307 8.10058 28.1801C9.2239 29.2915 10.7403 29.9149 12.3206 29.9149C13.9008 29.9149 15.4172 29.2915 16.5406 28.1801L20.1906 24.5601C20.0206 24.5601 19.8606 24.5601 19.6906 24.5601C18.9864 24.5724 18.2836 24.4917 17.6006 24.3201Z" fill="#01070E"/>
<path d="M28.6105 7.8198C27.4872 6.70837 25.9708 6.08496 24.3905 6.08496C22.8103 6.08496 21.2939 6.70837 20.1705 7.8198L16.5205 11.4398C16.6905 11.4398 16.8505 11.4398 17.0105 11.4398C17.7199 11.4396 18.4261 11.5338 19.1105 11.7198L21.5705 9.2798C22.3191 8.54086 23.3287 8.12653 24.3805 8.12653C25.4324 8.12653 26.4419 8.54086 27.1905 9.2798C27.5555 9.64392 27.845 10.0765 28.0426 10.5526C28.2401 11.0288 28.3418 11.5393 28.3418 12.0548C28.3418 12.5703 28.2401 13.0808 28.0426 13.557C27.845 14.0331 27.5555 14.4657 27.1905 14.8298L22.5005 19.4798C21.7519 20.2187 20.7424 20.6331 19.6905 20.6331C18.6387 20.6331 17.6291 20.2187 16.8805 19.4798C16.4041 19.0065 16.0595 18.4171 15.8805 17.7698C15.7804 17.8378 15.6867 17.9148 15.6005 17.9998L14.3105 19.2798C14.5994 19.881 14.9883 20.4288 15.4605 20.8998C16.5839 22.0112 18.1003 22.6346 19.6805 22.6346C21.2608 22.6346 22.7772 22.0112 23.9005 20.8998L28.5905 16.2498C29.1429 15.6998 29.5813 15.046 29.8804 14.3261C30.1795 13.6062 30.3334 12.8344 30.3334 12.0548C30.3334 11.2752 30.1795 10.5034 29.8804 9.78348C29.5813 9.06358 29.1429 8.40985 28.5905 7.8598L28.6105 7.8198Z" fill="#01070E"/>
</svg>
