<svg width="36" height="36" viewBox="0 0 36 36" fill="none" xmlns="http://www.w3.org/2000/svg">
<path d="M24 8H15V10H24V8Z" fill="#01070E"/>
<path d="M24 12H15V14H24V12Z" fill="#01070E"/>
<path d="M24 16H15V18H24V16Z" fill="#01070E"/>
<path d="M24 20H15V22H24V20Z" fill="#01070E"/>
<path d="M24 24H15V26H24V24Z" fill="#01070E"/>
<path d="M13 8H11V10H13V8Z" fill="#01070E"/>
<path d="M13 12H11V14H13V12Z" fill="#01070E"/>
<path d="M13 16H11V18H13V16Z" fill="#01070E"/>
<path d="M13 20H11V22H13V20Z" fill="#01070E"/>
<path d="M13 24H11V26H13V24Z" fill="#01070E"/>
<path d="M28 2H8C7.46957 2 6.96086 2.21071 6.58579 2.58579C6.21071 2.96086 6 3.46957 6 4V32C6 32.5304 6.21071 33.0391 6.58579 33.4142C6.96086 33.7893 7.46957 34 8 34H28C28.5304 34 29.0391 33.7893 29.4142 33.4142C29.7893 33.0391 30 32.5304 30 32V4C30 3.46957 29.7893 2.96086 29.4142 2.58579C29.0391 2.21071 28.5304 2 28 2ZM28 32H8V4H28V32Z" fill="#01070E"/>
</svg>
