<svg width="36" height="36" viewBox="0 0 36 36" fill="none" xmlns="http://www.w3.org/2000/svg">
<path d="M18.091 20.5898C17.5526 20.5939 17.0311 20.7782 16.6096 21.1132C16.1881 21.4482 15.891 21.9147 15.7655 22.4383C15.6401 22.9619 15.6936 23.5124 15.9175 24.0021C16.1414 24.4917 16.5229 24.8923 17.001 25.1398V27.9998H19.001V25.2298C19.5173 25.0182 19.9442 24.634 20.2088 24.1428C20.4735 23.6515 20.5594 23.0836 20.452 22.536C20.3446 21.9884 20.0506 21.4951 19.62 21.1402C19.1894 20.7853 18.649 20.5907 18.091 20.5898Z" fill="#01070E"/>
<path d="M26 14.9999V10.7199C26.0429 8.55175 25.2253 6.4549 23.726 4.88815C22.2268 3.3214 20.1679 2.41233 18 2.35986C15.8321 2.41233 13.7732 3.3214 12.274 4.88815C10.7747 6.4549 9.95705 8.55175 10 10.7199V14.9999H7V31.9999C7 32.5303 7.21071 33.039 7.58579 33.4141C7.96086 33.7892 8.46957 33.9999 9 33.9999H27C27.5304 33.9999 28.0391 33.7892 28.4142 33.4141C28.7893 33.039 29 32.5303 29 31.9999V14.9999H26ZM12 10.7199C11.9569 9.0821 12.5638 7.49385 13.688 6.30214C14.8123 5.11043 16.3625 4.41215 18 4.35986C19.6375 4.41215 21.1877 5.11043 22.312 6.30214C23.4362 7.49385 24.0431 9.0821 24 10.7199V14.9999H12V10.7199ZM9 31.9999V16.9999H27V31.9999H9Z" fill="#01070E"/>
</svg>
