<svg width="36" height="36" viewBox="0 0 36 36" fill="none" xmlns="http://www.w3.org/2000/svg">
<path d="M23.6801 15.0601H22.0801V18.8701H23.6801V15.0601Z" fill="#01070E"/>
<path d="M23.6801 21.0601H22.0801V24.8701H23.6801V21.0601Z" fill="#01070E"/>
<path d="M13.6801 11.0601H12.0801V14.8701H13.6801V11.0601Z" fill="#01070E"/>
<path d="M13.6801 17.1299H12.0801V20.8799H13.6801V17.1299Z" fill="#01070E"/>
<path d="M33.68 15.4001H32V26.7501L23.68 29.3501V27.0601H22.08V29.0601L13.68 24.7501V23.0601H12.08V24.7801L4.00001 28.1101V9.79005L12.08 6.46005V8.81005H13.68V6.47005L19.35 9.37005L20.35 7.61005L13.45 4.11005C13.3184 4.04913 13.1751 4.01758 13.03 4.01758C12.885 4.01758 12.7416 4.04913 12.61 4.11005L2.62001 8.20005C2.43582 8.27572 2.27841 8.40466 2.16795 8.57035C2.05749 8.73603 1.99902 8.93093 2.00001 9.13005V29.6101C2.00083 29.7738 2.04186 29.9349 2.1195 30.0791C2.19715 30.2233 2.30902 30.3463 2.4453 30.4371C2.58158 30.528 2.73808 30.584 2.90107 30.6002C3.06405 30.6164 3.22851 30.5923 3.38001 30.5301L13 26.5301L22.59 31.4501C22.7323 31.523 22.8901 31.5607 23.05 31.5601C23.149 31.58 23.251 31.58 23.35 31.5601L33.35 28.4401C33.5607 28.374 33.7437 28.2401 33.8703 28.0592C33.9969 27.8784 34.0601 27.6606 34.05 27.4401V15.3801L33.68 15.4001Z" fill="#01070E"/>
<path d="M26.8492 1.13981L21.1292 11.0498C21.0061 11.2438 20.938 11.4676 20.9321 11.6973C20.9261 11.927 20.9826 12.154 21.0955 12.3541C21.2084 12.5542 21.3734 12.72 21.5731 12.8337C21.7727 12.9474 21.9995 13.0048 22.2292 12.9998H33.6792C33.9029 13.0004 34.1228 12.9418 34.3165 12.8301C34.5103 12.7184 34.6712 12.5575 34.7828 12.3636C34.8944 12.1698 34.9529 11.9499 34.9523 11.7262C34.9516 11.5026 34.8919 11.283 34.7792 11.0898L29.0592 1.13981C28.9464 0.946869 28.785 0.786825 28.5912 0.675603C28.3973 0.564381 28.1777 0.505859 27.9542 0.505859C27.7307 0.505859 27.5111 0.564381 27.3172 0.675603C27.1234 0.786825 26.962 0.946869 26.8492 1.13981Z" fill="#01070E"/>
</svg>
