<svg width="28" height="31" viewBox="0 0 28 31" fill="none" xmlns="http://www.w3.org/2000/svg">
<path d="M26 0H2C1.46957 0 0.960859 0.210714 0.585786 0.585786C0.210714 0.960859 0 1.46957 0 2V26C0 26.5304 0.210714 27.0391 0.585786 27.4142C0.960859 27.7893 1.46957 28 2 28H3.88V29.57C3.88 29.8352 3.98536 30.0896 4.17289 30.2771C4.36043 30.4646 4.61478 30.57 4.88 30.57C5.14522 30.57 5.39957 30.4646 5.58711 30.2771C5.77464 30.0896 5.88 29.8352 5.88 29.57V28H21.88V29.57C21.88 29.8352 21.9854 30.0896 22.1729 30.2771C22.3604 30.4646 22.6148 30.57 22.88 30.57C23.1452 30.57 23.3996 30.4646 23.5871 30.2771C23.7746 30.0896 23.88 29.8352 23.88 29.57V28H26C26.5304 28 27.0391 27.7893 27.4142 27.4142C27.7893 27.0391 28 26.5304 28 26V2C28 1.46957 27.7893 0.960859 27.4142 0.585786C27.0391 0.210714 26.5304 0 26 0ZM2 26V2H26V26H2Z" fill="#01070E"/>
<path d="M18 14H16V16H18V14Z" fill="#01070E"/>
<path d="M22 14H20V16H22V14Z" fill="#01070E"/>
<path d="M18 18H16V20H18V18Z" fill="#01070E"/>
<path d="M22 18H20V20H22V18Z" fill="#01070E"/>
<path d="M23.2191 6H15.9991V10C15.9866 10.1119 15.9978 10.2252 16.032 10.3324C16.0662 10.4397 16.1227 10.5385 16.1977 10.6225C16.2728 10.7064 16.3647 10.7736 16.4674 10.8196C16.5702 10.8655 16.6815 10.8893 16.7941 10.8893C16.9067 10.8893 17.0181 10.8655 17.1208 10.8196C17.2236 10.7736 17.3155 10.7064 17.3906 10.6225C17.4656 10.5385 17.5221 10.4397 17.5563 10.3324C17.5905 10.2252 17.6017 10.1119 17.5891 10V7.6H23.2191C23.4313 7.6 23.6348 7.51571 23.7848 7.36569C23.9349 7.21566 24.0191 7.01217 24.0191 6.8C24.0191 6.58783 23.9349 6.38434 23.7848 6.23431C23.6348 6.08429 23.4313 6 23.2191 6Z" fill="#01070E"/>
<path d="M12.9505 6H4.81055V8H12.9505V6Z" fill="#01070E"/>
<path d="M12.9505 10H4.81055V12H12.9505V10Z" fill="#01070E"/>
<path d="M12.9505 14H4.81055V16H12.9505V14Z" fill="#01070E"/>
<path d="M12.9505 18H4.81055V20H12.9505V18Z" fill="#01070E"/>
<path d="M12.9505 22H4.81055V24H12.9505V22Z" fill="#01070E"/>
</svg>
