<svg width="31" height="35" viewBox="0 0 31 35" fill="none" xmlns="http://www.w3.org/2000/svg">
<path d="M18 18H16V20H18V18Z" fill="#01070E"/>
<path d="M22 18H20V20H22V18Z" fill="#01070E"/>
<path d="M18 22H16V24H18V22Z" fill="#01070E"/>
<path d="M22 22H20V24H22V22Z" fill="#01070E"/>
<path d="M12.9505 10H4.81055V12H12.9505V10Z" fill="#01070E"/>
<path d="M12.9505 14H4.81055V16H12.9505V14Z" fill="#01070E"/>
<path d="M12.9505 18H4.81055V20H12.9505V18Z" fill="#01070E"/>
<path d="M12.9505 22H4.81055V24H12.9505V22Z" fill="#01070E"/>
<path d="M12.9505 26H4.81055V28H12.9505V26Z" fill="#01070E"/>
<path d="M26 15.4V30H2V6H17.27L18.45 4H2C1.46957 4 0.960859 4.21071 0.585786 4.58579C0.210714 4.96086 0 5.46957 0 6V30C0 30.5304 0.210714 31.0391 0.585786 31.4142C0.960859 31.7893 1.46957 32 2 32H3.88V33.57C3.88 33.8352 3.98536 34.0896 4.17289 34.2771C4.36043 34.4646 4.61478 34.57 4.88 34.57C5.14522 34.57 5.39957 34.4646 5.58711 34.2771C5.77464 34.0896 5.88 33.8352 5.88 33.57V32H21.88V33.57C21.88 33.8352 21.9854 34.0896 22.1729 34.2771C22.3604 34.4646 22.6148 34.57 22.88 34.57C23.1452 34.57 23.3996 34.4646 23.5871 34.2771C23.7746 34.0896 23.88 33.8352 23.88 33.57V32H26C26.5304 32 27.0391 31.7893 27.4142 31.4142C27.7893 31.0391 28 30.5304 28 30V15.4H26Z" fill="#01070E"/>
<path d="M22.8492 1.13981L17.1292 11.0498C17.0061 11.2438 16.938 11.4676 16.9321 11.6973C16.9261 11.927 16.9826 12.154 17.0955 12.3541C17.2084 12.5542 17.3734 12.72 17.5731 12.8337C17.7727 12.9474 17.9995 13.0048 18.2292 12.9998H29.6792C29.9029 13.0004 30.1228 12.9418 30.3165 12.8301C30.5103 12.7184 30.6712 12.5575 30.7828 12.3636C30.8944 12.1698 30.9529 11.9499 30.9523 11.7262C30.9516 11.5026 30.8919 11.283 30.7792 11.0898L25.0592 1.13981C24.9464 0.946869 24.785 0.786825 24.5912 0.675603C24.3973 0.564381 24.1777 0.505859 23.9542 0.505859C23.7307 0.505859 23.5111 0.564381 23.3172 0.675603C23.1234 0.786825 22.962 0.946869 22.8492 1.13981Z" fill="#FAC400"/>
</svg>
