<svg width="36" height="36" viewBox="0 0 36 36" fill="none" xmlns="http://www.w3.org/2000/svg">
<path d="M12 12H8V20H12V12Z" fill="#01070E"/>
<path d="M15 27H4V17H2V27C2 27.5304 2.21071 28.0391 2.58579 28.4142C2.96086 28.7893 3.46957 29 4 29H16.61V25.55H18.87V24H15V27Z" fill="#01070E"/>
<path d="M32 17V27H19V29H32C32.5304 29 33.0391 28.7893 33.4142 28.4142C33.7893 28.0391 34 27.5304 34 27V17H32Z" fill="#01070E"/>
<path d="M19 13.56C18.7421 13.0786 18.5951 12.5456 18.57 12H16V20H20V14.64C19.5972 14.3512 19.257 13.9838 19 13.56Z" fill="#01070E"/>
<path d="M28 15.3999H24V19.9999H28V15.3999Z" fill="#01070E"/>
<path d="M4 9H19.56L20.71 7H4C3.46957 7 2.96086 7.21071 2.58579 7.58579C2.21071 7.96086 2 8.46957 2 9V13H4V9Z" fill="#01070E"/>
<path d="M26.8504 1.13981L21.1304 10.9998C20.9973 11.1951 20.9209 11.4235 20.9097 11.6596C20.8984 11.8957 20.9527 12.1303 21.0666 12.3374C21.1806 12.5445 21.3496 12.716 21.555 12.8329C21.7604 12.9498 21.9942 13.0076 22.2304 12.9998H33.6804C33.9166 13.0076 34.1504 12.9498 34.3558 12.8329C34.5612 12.716 34.7302 12.5445 34.8441 12.3374C34.958 12.1303 35.0123 11.8957 35.0011 11.6596C34.9898 11.4235 34.9135 11.1951 34.7804 10.9998L29.0604 1.13981C28.9476 0.946869 28.7862 0.786825 28.5923 0.675603C28.3985 0.564381 28.1789 0.505859 27.9554 0.505859C27.7319 0.505859 27.5123 0.564381 27.3184 0.675603C27.1245 0.786825 26.9632 0.946869 26.8504 1.13981Z" fill="#01070E"/>
</svg>
