<svg width="36" height="36" viewBox="0 0 36 36" fill="none" xmlns="http://www.w3.org/2000/svg">
<path d="M29.9996 17H27.9996C27.9996 18.8 27.4996 20.5 26.5996 22L28.0996 23.5C29.2996 21.5 29.8996 19.3 29.9996 17Z" fill="#01070E"/>
<path d="M18.0004 4.00001C20.8004 4.00001 23.0004 6.20001 23.0004 9.00001V17C23.0004 17.4 22.9004 17.8 22.8004 18.2L24.4004 19.8C24.8004 18.9 25.0004 18 25.0004 17V9.00001C25.0004 5.10001 21.8004 2.00001 17.9004 2.10001C15.0004 2.10001 12.3004 4.00001 11.4004 6.80001L13.0004 8.30001C13.5004 5.90001 15.6004 4.20001 18.0004 4.00001Z" fill="#01070E"/>
<path d="M25.1996 26.6001L32.0996 33.5001L33.4996 32.1001L3.99961 2.6001L2.59961 4.0001L10.9996 12.4001V17.0001C10.9996 20.9001 14.0996 24.0001 17.9996 24.0001C19.2996 24.0001 20.4996 23.7001 21.5996 23.0001L23.7996 25.2001C22.0996 26.4001 20.0996 27.0001 17.9996 27.0001C12.5996 27.2001 8.19961 22.9001 7.99961 17.6001C7.99961 17.4001 7.99961 17.2001 7.99961 17.0001H5.99961C6.09961 23.2001 10.7996 28.4001 16.9996 29.0001V32.0001H13.9996C13.3996 32.0001 12.9996 32.4001 12.9996 33.0001C12.9996 33.6001 13.3996 34.0001 13.9996 34.0001H21.9996C22.5996 34.0001 22.9996 33.6001 22.9996 33.0001C22.9996 32.4001 22.5996 32.0001 21.9996 32.0001H18.9996V29.0001C21.1996 28.8001 23.3996 28.0001 25.1996 26.6001ZM13.7996 19.7001C13.2996 18.9001 12.9996 18.0001 12.9996 17.0001V14.4001L20.0996 21.5001C17.8996 22.5001 15.1996 21.8001 13.7996 19.7001Z" fill="#01070E"/>
</svg>
