<svg width="36" height="36" viewBox="0 0 36 36" fill="none" xmlns="http://www.w3.org/2000/svg">
<path d="M31.0002 27.1901C30.9111 27.0055 30.7673 26.8528 30.5884 26.7526C30.4096 26.6524 30.2042 26.6097 30.0002 26.6301C29.7202 26.6301 29.4402 26.6301 29.1502 26.6301C26.6619 26.5623 24.2701 25.6525 22.3658 24.0494C20.4614 22.4462 19.1572 20.2446 18.6661 17.8043C18.175 15.3639 18.5261 12.8292 19.6621 10.6142C20.7981 8.39928 22.6518 6.63514 24.9202 5.61009C25.1141 5.52871 25.2775 5.38828 25.387 5.20875C25.4965 5.02922 25.5466 4.81974 25.5302 4.61009C25.5233 4.40854 25.4557 4.21378 25.3361 4.05138C25.2165 3.88898 25.0506 3.76652 24.8602 3.70009C23.2566 3.1224 21.5647 2.82801 19.8602 2.83009C15.8502 2.83009 12.0043 4.42308 9.16878 7.25863C6.33323 10.0942 4.74023 13.94 4.74023 17.9501C4.74023 21.9602 6.33323 25.806 9.16878 28.6415C12.0043 31.4771 15.8502 33.0701 19.8602 33.0701C21.9282 33.0825 23.9758 32.6608 25.8706 31.8323C27.7654 31.0037 29.4653 29.7868 30.8602 28.2601C30.9835 28.1138 31.0621 27.9352 31.087 27.7456C31.1118 27.5559 31.0817 27.3632 31.0002 27.1901ZM19.8902 31.1201C16.4106 31.1201 13.0735 29.7378 10.613 27.2773C8.15252 24.8169 6.77023 21.4797 6.77023 18.0001C6.77023 14.5204 8.15252 11.1833 10.613 8.72285C13.0735 6.26237 16.4106 4.88009 19.8902 4.88009C20.5602 4.87659 21.2293 4.93012 21.8902 5.04009C19.7481 6.54088 18.1086 8.65292 17.1857 11.1002C16.2629 13.5475 16.0998 16.2163 16.7176 18.7578C17.3354 21.2993 18.7055 23.5953 20.6488 25.3459C22.5921 27.0964 25.0182 28.2201 27.6102 28.5701C25.3841 30.2398 22.6729 31.1353 19.8902 31.1201Z" fill="#01070E"/>
</svg>
