<svg width="36" height="36" viewBox="0 0 36 36" fill="none" xmlns="http://www.w3.org/2000/svg">
<path d="M31.6793 6.16C29.7593 2.86 21.0793 2.16 20.0993 2.07L18.9993 2V22.34C18.7422 22.1306 18.4679 21.9433 18.1793 21.78C17.1749 21.2745 16.0785 20.9775 14.9562 20.907C13.8339 20.8366 12.709 20.9941 11.6493 21.37C7.56927 22.7 4.91927 26.5 5.77927 29.84C5.97094 30.5464 6.30604 31.2057 6.76368 31.7769C7.22132 32.3481 7.7917 32.8189 8.43927 33.16C9.54943 33.7523 10.7911 34.055 12.0493 34.04C13.0512 34.0392 14.0467 33.8806 14.9993 33.57C18.6693 32.39 21.1693 29.24 21.0593 26.21V9.34C23.2903 9.56308 25.4882 10.0429 27.6093 10.77C27.8573 10.8655 28.133 10.8585 28.3759 10.7507C28.6187 10.6429 28.8088 10.443 28.9043 10.195C28.9998 9.94702 28.9928 9.67127 28.885 9.42841C28.7771 9.18555 28.5772 8.99548 28.3293 8.9C25.9575 8.08557 23.4966 7.55847 20.9993 7.33V4.17C24.3293 4.53 28.9993 5.55 29.9193 7.17C31.9193 10.58 27.5893 14.53 27.5493 14.57C27.3674 14.7504 27.2617 14.9936 27.2539 15.2496C27.2461 15.5057 27.3368 15.7549 27.5074 15.946C27.6779 16.1371 27.9153 16.2554 28.1706 16.2766C28.4258 16.2979 28.6795 16.2203 28.8793 16.06C29.1493 15.85 34.4993 11 31.6793 6.16ZM14.3493 31.67C13.5408 31.9632 12.6818 32.0913 11.8229 32.0466C10.9641 32.002 10.123 31.7855 9.34927 31.41C8.93917 31.2014 8.57708 30.9095 8.28609 30.5531C7.99511 30.1967 7.78162 29.7835 7.65927 29.34C7.05927 27.01 9.10927 24.29 12.2393 23.28C12.9821 23.0379 13.758 22.9131 14.5393 22.91C15.4605 22.8923 16.3715 23.1054 17.1893 23.53C17.5994 23.7386 17.9615 24.0305 18.2524 24.3869C18.5434 24.7433 18.7569 25.1565 18.8793 25.6C19.5393 27.94 17.4893 30.66 14.3493 31.67Z" fill="#01070E"/>
</svg>
