<svg width="36" height="36" viewBox="0 0 36 36" fill="none" xmlns="http://www.w3.org/2000/svg">
<path d="M26.9994 4.18001C26.8855 4.10766 26.7583 4.05907 26.6252 4.03718C26.4921 4.0153 26.356 4.02055 26.225 4.05264C26.094 4.08473 25.9708 4.14298 25.8629 4.22389C25.755 4.30481 25.6646 4.40672 25.5971 4.52348C25.5296 4.64025 25.4865 4.76946 25.4702 4.90334C25.4539 5.03723 25.4649 5.17302 25.5025 5.30255C25.5401 5.43208 25.6035 5.55266 25.6888 5.65706C25.7742 5.76145 25.8799 5.84749 25.9994 5.91001L31.9994 9.38001V26.62L25.9994 30.09C25.7706 30.2219 25.6034 30.439 25.534 30.6937C25.4647 30.9485 25.499 31.2204 25.6294 31.45C25.6947 31.5646 25.7821 31.6651 25.8864 31.7458C25.9907 31.8265 26.11 31.8857 26.2374 31.9201C26.3647 31.9545 26.4976 31.9634 26.6284 31.9462C26.7591 31.929 26.8852 31.8861 26.9994 31.82L33.9994 27.77V8.23001L26.9994 4.18001Z" fill="#01070E"/>
<path d="M9.68 29.9L4 26.62V9.37995L9.68 6.09995C9.79951 6.03744 9.90513 5.95139 9.99052 5.847C10.0759 5.7426 10.1393 5.62202 10.1769 5.49249C10.2145 5.36296 10.2254 5.22717 10.2092 5.09328C10.1929 4.9594 10.1497 4.83019 10.0822 4.71342C10.0147 4.59666 9.92433 4.49475 9.81643 4.41384C9.70853 4.33292 9.58538 4.27467 9.45439 4.24258C9.32339 4.21049 9.18726 4.20524 9.05418 4.22713C8.9211 4.24901 8.79382 4.2976 8.68 4.36995L2 8.22995V27.77L8.68 31.6299C8.79413 31.6961 8.92022 31.739 9.051 31.7561C9.18178 31.7733 9.31466 31.7645 9.442 31.7301C9.56934 31.6957 9.68862 31.6364 9.79297 31.5558C9.89732 31.4751 9.98467 31.3745 10.05 31.26C10.1804 31.0303 10.2146 30.7585 10.1453 30.5037C10.076 30.2489 9.90873 30.0319 9.68 29.9Z" fill="#01070E"/>
<path d="M10 12V24C10 24.5304 10.2107 25.0391 10.5858 25.4142C10.9609 25.7893 11.4696 26 12 26H24C24.5304 26 25.0391 25.7893 25.4142 25.4142C25.7893 25.0391 26 24.5304 26 24V12C26 11.4696 25.7893 10.9609 25.4142 10.5858C25.0391 10.2107 24.5304 10 24 10H12C11.4696 10 10.9609 10.2107 10.5858 10.5858C10.2107 10.9609 10 11.4696 10 12ZM17 12V17H12V12H17ZM12 19H17V24H12V19ZM19 24V19H24V24H19ZM24 17H19V12H24V17Z" fill="#01070E"/>
</svg>
