<svg width="36" height="36" viewBox="0 0 36 36" fill="none" xmlns="http://www.w3.org/2000/svg">
<path d="M26.5801 32H8.58008C8.31486 32 8.06051 32.1054 7.87297 32.2929C7.68544 32.4804 7.58008 32.7348 7.58008 33C7.58008 33.2652 7.68544 33.5196 7.87297 33.7071C8.06051 33.8946 8.31486 34 8.58008 34H26.5801C26.8453 34 27.0996 33.8946 27.2872 33.7071C27.4747 33.5196 27.5801 33.2652 27.5801 33C27.5801 32.7348 27.4747 32.4804 27.2872 32.2929C27.0996 32.1054 26.8453 32 26.5801 32Z" fill="#01070E"/>
<path d="M31.73 15.4002H29.73C29.73 15.6002 29.73 15.8002 29.73 16.0102C29.7293 17.2033 29.5507 18.3897 29.2 19.5302C27.5222 19.6573 25.8348 19.5189 24.2 19.1202C24.1991 18.7011 24.085 18.2899 23.87 17.9302C24.4759 17.1344 25.0177 16.2918 25.49 15.4102H23.83C23.5242 15.9409 23.1904 16.4549 22.83 16.9502C22.394 16.7655 21.9114 16.7212 21.449 16.8234C20.9867 16.9255 20.5676 17.169 20.25 17.5202C19.9 17.3202 19.55 17.1202 19.25 16.8902C17.2313 15.5433 15.5455 13.7548 14.32 11.6602C14.5181 11.4146 14.6623 11.1301 14.7432 10.8252C14.8242 10.5202 14.8402 10.2017 14.79 9.89018C16.3296 9.36802 17.9358 9.06833 19.56 9.00018L20.43 7.49018C18.2579 7.44757 16.0952 7.78603 14.04 8.49018C13.7252 8.18337 13.33 7.9719 12.9 7.88018H12.65C12.53 7.46018 12.42 7.04018 12.33 6.61018C12.24 6.18018 12.19 5.80018 12.14 5.39018C13.6443 4.5887 15.3034 4.1203 17.0047 4.01677C18.706 3.91324 20.4097 4.17701 22 4.79018L23 3.00018C20.8731 2.13981 18.5674 1.81534 16.2857 2.05531C14.0039 2.29529 11.8161 3.09235 9.91479 4.37638C8.01344 5.66042 6.45679 7.39205 5.38181 9.41895C4.30683 11.4458 3.74647 13.7059 3.75002 16.0002C3.75002 16.4502 3.75002 16.8902 3.82002 17.3302C4.15319 20.9187 5.85742 24.2405 8.57798 26.6042C11.2985 28.9679 14.8258 30.1914 18.4257 30.0201C22.0256 29.8487 25.4208 28.2957 27.9045 25.6843C30.3882 23.0728 31.7692 19.6041 31.76 16.0002C31.76 15.8002 31.74 15.6002 31.73 15.4002ZM10.73 6.27018C10.73 6.48018 10.79 6.70018 10.83 6.91018C10.92 7.35018 11.04 7.78018 11.16 8.21018C10.7771 8.43694 10.4689 8.7708 10.2734 9.17062C10.078 9.57043 10.0038 10.0187 10.06 10.4602C8.48862 11.4926 7.08552 12.7608 5.90002 14.2202C6.13911 12.6379 6.69225 11.1195 7.52688 9.75421C8.36152 8.38891 9.46079 7.20434 10.76 6.27018H10.73ZM10.73 21.9802C10.3434 22.1142 9.99861 22.3472 9.73014 22.656C9.46168 22.9648 9.27889 23.3386 9.20002 23.7402H8.56002C6.94509 21.814 5.97922 19.4274 5.80002 16.9202L5.91002 16.7302C7.16223 14.7885 8.79928 13.1243 10.72 11.8402C11.008 12.1409 11.3719 12.3583 11.7733 12.4692C12.1746 12.5801 12.5985 12.5804 13 12.4702C14.3376 14.7305 16.1659 16.6614 18.35 18.1202C18.76 18.3902 19.18 18.6402 19.6 18.8802C19.5664 19.2627 19.6283 19.6475 19.78 20.0002C17.95 21.4534 15.8391 22.5122 13.58 23.1102C13.318 22.6207 12.8906 22.2403 12.374 22.037C11.8574 21.8336 11.2853 21.8206 10.76 22.0002L10.73 21.9802ZM17.73 27.9802C15.6962 27.9807 13.6962 27.4609 11.92 26.4702L12.2 26.4102C12.5979 26.2796 12.9535 26.0446 13.2297 25.7298C13.5059 25.4149 13.6925 25.0317 13.77 24.6202C16.327 23.9681 18.7142 22.7745 20.77 21.1202C21.2584 21.4056 21.835 21.5001 22.389 21.3857C22.9429 21.2712 23.4348 20.9558 23.77 20.5002C25.1809 20.867 26.6323 21.0551 28.09 21.0602H28.62C27.6567 23.1317 26.1221 24.8852 24.1966 26.1145C22.271 27.3439 20.0345 27.9981 17.75 28.0002L17.73 27.9802Z" fill="#01070E"/>
<path d="M26.8504 1.13981L21.1304 10.9998C20.9973 11.1951 20.9209 11.4235 20.9097 11.6596C20.8984 11.8957 20.9527 12.1303 21.0666 12.3374C21.1806 12.5445 21.3496 12.716 21.555 12.8329C21.7604 12.9498 21.9942 13.0076 22.2304 12.9998H33.6804C33.9166 13.0076 34.1504 12.9498 34.3558 12.8329C34.5612 12.716 34.7302 12.5445 34.8441 12.3374C34.958 12.1303 35.0123 11.8957 35.0011 11.6596C34.9898 11.4235 34.9135 11.1951 34.7804 10.9998L29.0604 1.13981C28.9476 0.946869 28.7862 0.786825 28.5923 0.675603C28.3985 0.564381 28.1789 0.505859 27.9554 0.505859C27.7319 0.505859 27.5123 0.564381 27.3184 0.675603C27.1245 0.786825 26.9632 0.946869 26.8504 1.13981Z" fill="#01070E"/>
</svg>
