<svg width="36" height="36" viewBox="0 0 36 36" fill="none" xmlns="http://www.w3.org/2000/svg">
<path d="M26.5801 32H8.58008C8.31486 32 8.06051 32.1054 7.87297 32.2929C7.68544 32.4804 7.58008 32.7348 7.58008 33C7.58008 33.2652 7.68544 33.5196 7.87297 33.7071C8.06051 33.8946 8.31486 34 8.58008 34H26.5801C26.8453 34 27.0996 33.8946 27.2872 33.7071C27.4747 33.5196 27.5801 33.2652 27.5801 33C27.5801 32.7348 27.4747 32.4804 27.2872 32.2929C27.0996 32.1054 26.8453 32 26.5801 32Z" fill="#01070E"/>
<path d="M17.75 2C14.037 2 10.476 3.475 7.8505 6.10051C5.225 8.72602 3.75 12.287 3.75 16C3.75 16.45 3.75 16.89 3.82 17.33C4.07769 20.0303 5.11427 22.5975 6.80372 24.7197C8.49317 26.8418 10.7627 28.4275 13.3365 29.2839C15.9103 30.1403 18.6774 30.2306 21.3016 29.5438C23.9257 28.8569 26.2938 27.4226 28.118 25.4151C29.9422 23.4075 31.1439 20.9133 31.577 18.2356C32.0102 15.5579 31.6561 12.812 30.5579 10.3317C29.4597 7.85148 27.6645 5.74368 25.3908 4.26456C23.117 2.78544 20.4625 1.99871 17.75 2ZM17.75 4C20.9119 4.00275 23.945 5.25335 26.19 7.48C26.19 7.81 26.19 8.14 26.19 8.48C22.2376 7.11982 17.9411 7.13744 14 8.53C13.6852 8.2232 13.2899 8.01172 12.86 7.92H12.61C12.49 7.5 12.38 7.08 12.29 6.65C12.2 6.22 12.15 5.84 12.1 5.43C13.836 4.49317 15.7774 4.00181 17.75 4ZM14.75 9.87C18.3817 8.65387 22.3176 8.69967 25.92 10C25.4327 12.5406 24.3688 14.9354 22.81 17C22.374 16.8154 21.8913 16.771 21.429 16.8732C20.9667 16.9753 20.5476 17.2189 20.23 17.57C19.88 17.37 19.53 17.17 19.23 16.94C17.2113 15.5931 15.5254 13.8047 14.3 11.71C14.4981 11.4644 14.6423 11.1799 14.7232 10.875C14.8042 10.57 14.8201 10.2515 14.77 9.94L14.75 9.87ZM10.75 6.27C10.75 6.48 10.81 6.7 10.85 6.91C10.94 7.35 11.06 7.78 11.18 8.21C10.7971 8.43676 10.4889 8.77063 10.2934 9.17044C10.0979 9.57026 10.0238 10.0185 10.08 10.46C8.5015 11.4908 7.09157 12.7591 5.9 14.22C6.1391 12.6378 6.69223 11.1193 7.52687 9.75403C8.3615 8.38873 9.46077 7.20416 10.76 6.27H10.75ZM10.75 21.98C10.3596 22.111 10.0107 22.3428 9.7386 22.6518C9.46644 22.9608 9.28066 23.3362 9.2 23.74H8.56C6.94507 21.8139 5.9792 19.4272 5.8 16.92L5.91 16.73C7.16222 14.7883 8.79926 13.1241 10.72 11.84C11.008 12.1408 11.3719 12.3581 11.7732 12.469C12.1746 12.5799 12.5985 12.5802 13 12.47C14.3376 14.7303 16.1659 16.6612 18.35 18.12C18.76 18.39 19.18 18.64 19.6 18.88C19.5664 19.2625 19.6282 19.6473 19.78 20C17.95 21.4532 15.8391 22.5121 13.58 23.11C13.318 22.6205 12.8906 22.2401 12.374 22.0368C11.8574 21.8335 11.2853 21.8204 10.76 22L10.75 21.98ZM17.75 27.98C15.7162 27.9806 13.7161 27.4607 11.94 26.47L12.22 26.41C12.6179 26.2794 12.9735 26.0445 13.2497 25.7296C13.5258 25.4148 13.7124 25.0316 13.79 24.62C16.347 23.9679 18.7341 22.7743 20.79 21.12C21.2783 21.4054 21.855 21.5 22.4089 21.3855C22.9628 21.271 23.4548 20.9556 23.79 20.5C25.2009 20.8668 26.6522 21.0549 28.11 21.06H28.64C27.6753 23.1346 26.1375 24.8901 24.2081 26.1197C22.2787 27.3493 20.0379 28.0017 17.75 28V27.98ZM24.26 19.08C24.259 18.6609 24.145 18.2498 23.93 17.89C25.5942 15.7161 26.7524 13.1983 27.32 10.52C27.82 10.7533 28.3133 11.0133 28.8 11.3C29.8998 13.8989 30.0486 16.8023 29.22 19.5C27.5598 19.6284 25.8897 19.4968 24.27 19.11L24.26 19.08Z" fill="#01070E"/>
</svg>
