<svg width="36" height="36" viewBox="0 0 36 36" fill="none" xmlns="http://www.w3.org/2000/svg">
<path d="M10.8491 27.44C11.267 27.3503 11.6515 27.1453 11.959 26.8484C12.2665 26.5515 12.4848 26.1745 12.5891 25.76C13.1291 25.62 13.6491 25.44 14.1791 25.25V24.05C14.1833 23.8785 14.2034 23.7078 14.2391 23.54C13.6443 23.78 13.0367 23.9869 12.4191 24.16C12.2033 23.7328 11.8586 23.3844 11.4337 23.1641C11.0089 22.9438 10.5255 22.8627 10.0521 22.9324C9.57859 23.0021 9.13906 23.219 8.79573 23.5524C8.4524 23.8858 8.22268 24.3188 8.13911 24.79H7.68911C5.93962 22.759 4.92509 20.1981 4.80911 17.52C6.15297 15.6365 7.85136 14.0332 9.80911 12.8C10.1004 13.098 10.4693 13.3084 10.8741 13.4073C11.2788 13.5063 11.7032 13.4899 12.0991 13.36C13.2724 15.2848 14.7872 16.9793 16.5691 18.36C16.6344 18.276 16.7045 18.1958 16.7791 18.12L17.7291 17.21C15.9841 15.9084 14.5071 14.2819 13.3791 12.42C13.6058 12.0606 13.727 11.6449 13.7291 11.22C13.7291 11.15 13.7291 11.08 13.7291 11C17.3853 9.77133 21.3429 9.77133 24.9991 11C24.7295 12.1493 24.3442 13.2683 23.8491 14.34H24.0391H25.5991C25.9705 13.4575 26.2747 12.5483 26.5091 11.62C26.9391 11.81 27.3491 12.03 27.7691 12.26C28.3421 13.5533 28.6807 14.9382 28.7691 16.35C29.1462 16.139 29.5674 16.0191 29.9991 16C30.2291 16.0045 30.4576 16.0381 30.6791 16.1C30.5026 13.4026 29.5489 10.8139 27.9333 8.6467C26.3177 6.47945 24.1092 4.82628 21.5745 3.88683C19.0398 2.94738 16.2873 2.76182 13.6495 3.35255C11.0117 3.94329 8.60124 5.28507 6.70934 7.21585C4.81744 9.14663 3.52496 11.5838 2.98799 14.2331C2.45101 16.8825 2.69251 19.6306 3.68332 22.1456C4.67413 24.6607 6.37187 26.8351 8.57152 28.4063C10.7712 29.9776 13.3787 30.8784 16.0791 31C15.8251 30.3575 15.8251 29.6425 16.0791 29C14.2387 28.8911 12.4485 28.3571 10.8491 27.44ZM16.7591 4.99999C18.3662 5.00241 19.9565 5.32763 21.4355 5.95635C22.9145 6.58506 24.2522 7.50446 25.3691 8.65999C25.3691 8.90999 25.3691 9.16999 25.2891 9.41999C21.2726 8.09623 16.9314 8.1349 12.9391 9.52999C12.5997 9.23958 12.1824 9.05528 11.7391 8.99999C11.4714 8.17348 11.2675 7.32767 11.1291 6.46999C12.8555 5.52243 14.7898 5.01738 16.7591 4.99999ZM9.65911 7.35999C9.78843 8.00819 9.95199 8.64909 10.1491 9.27999C9.82198 9.48482 9.5522 9.76935 9.36506 10.1069C9.17791 10.4445 9.07952 10.824 9.07911 11.21C9.07911 11.21 9.07911 11.31 9.07911 11.36C7.56815 12.3107 6.19526 13.4648 4.99911 14.79C5.55932 11.8141 7.22394 9.15996 9.65911 7.35999Z" fill="#01070E"/>
<path d="M24.9991 21.19C24.2401 21.1979 23.5005 21.4306 22.8737 21.8586C22.2468 22.2867 21.7609 22.8909 21.4773 23.595C21.1937 24.2991 21.1251 25.0714 21.2802 25.8144C21.4353 26.5574 21.8072 27.2378 22.3488 27.7696C22.8903 28.3015 23.5774 28.6608 24.3231 28.8024C25.0688 28.9439 25.8398 28.8613 26.5386 28.5649C27.2374 28.2686 27.8326 27.7717 28.2492 27.1372C28.6658 26.5027 28.885 25.759 28.8791 25C28.8633 23.9823 28.4473 23.0118 27.7211 22.2986C26.9948 21.5855 26.0169 21.1872 24.9991 21.19ZM24.9991 27.27C24.5591 27.2621 24.1313 27.1248 23.7689 26.8752C23.4065 26.6256 23.1256 26.2748 22.9613 25.8666C22.797 25.4584 22.7566 25.0109 22.8451 24.5798C22.9336 24.1488 23.147 23.7534 23.4589 23.4429C23.7707 23.1325 24.1671 22.9207 24.5985 22.8341C25.0299 22.7475 25.4773 22.7899 25.8848 22.956C26.2922 23.1221 26.6418 23.4045 26.8897 23.768C27.1377 24.1315 27.2731 24.56 27.2791 25C27.2804 25.2993 27.2223 25.5959 27.1081 25.8725C26.9938 26.1492 26.8258 26.4004 26.6137 26.6116C26.4016 26.8228 26.1496 26.9897 25.8724 27.1028C25.5953 27.2158 25.2984 27.2726 24.9991 27.27Z" fill="#01070E"/>
<path d="M34.1695 24.1402C34.1793 23.9073 34.1175 23.6769 33.9923 23.4803C33.8672 23.2836 33.6847 23.13 33.4695 23.0402L31.9095 22.5802C31.8362 22.3669 31.7495 22.1569 31.6495 21.9502L32.3695 20.6202C32.4827 20.4038 32.5233 20.1568 32.4855 19.9156C32.4477 19.6743 32.3334 19.4516 32.1595 19.2802L30.8195 17.9602C30.647 17.7879 30.4237 17.6755 30.1825 17.6395C29.9413 17.6036 29.6949 17.6458 29.4795 17.7602L28.1395 18.4702C27.921 18.3658 27.6974 18.2723 27.4695 18.1902L26.9995 16.7102C26.9207 16.4871 26.7743 16.2941 26.5808 16.1579C26.3873 16.0217 26.1562 15.9491 25.9195 15.9502H23.9995C23.758 15.9519 23.5232 16.0303 23.3291 16.1741C23.135 16.3179 22.9916 16.5196 22.9195 16.7502L22.4795 18.1802C22.2483 18.2621 22.0214 18.3555 21.7995 18.4602L20.4795 17.7602C20.2663 17.6469 20.0226 17.6043 19.7836 17.6385C19.5446 17.6726 19.3225 17.7818 19.1495 17.9502L17.7795 19.2602C17.6034 19.4324 17.4878 19.6569 17.4499 19.9003C17.4121 20.1436 17.454 20.3927 17.5695 20.6102L18.2695 21.8902C18.1629 22.1035 18.0695 22.3202 17.9895 22.5402L16.5795 23.0002C16.3446 23.0696 16.1386 23.2134 15.9925 23.41C15.8465 23.6065 15.7682 23.8453 15.7695 24.0902V25.9602C15.7809 26.1974 15.866 26.4251 16.013 26.6115C16.16 26.7979 16.3616 26.9338 16.5895 27.0002L18.0595 27.4402C18.1395 27.6535 18.2329 27.8669 18.3395 28.0802L17.6195 29.4302C17.5028 29.6467 17.4592 29.8951 17.4952 30.1384C17.5313 30.3817 17.645 30.6069 17.8195 30.7802L19.1595 32.1002C19.3321 32.2725 19.5554 32.3849 19.7966 32.4209C20.0378 32.4569 20.2842 32.4146 20.4995 32.3002L21.8695 31.5802C22.0762 31.6735 22.2862 31.7602 22.4995 31.8402L22.9395 33.3102C23.0121 33.5424 23.157 33.7453 23.3531 33.8892C23.5493 34.0332 23.7863 34.1106 24.0295 34.1102H25.9295C26.1694 34.1064 26.4019 34.027 26.594 33.8834C26.7861 33.7397 26.928 33.5392 26.9995 33.3102L27.4395 31.8402C27.6495 31.7702 27.8595 31.6802 28.0595 31.5902L29.4395 32.3202C29.6538 32.4322 29.8981 32.4732 30.1372 32.4372C30.3763 32.4013 30.5977 32.2903 30.7695 32.1202L32.1095 30.8002C32.2857 30.6281 32.4013 30.4035 32.4392 30.1602C32.477 29.9168 32.4351 29.6677 32.3195 29.4502L31.5895 28.1102C31.6829 27.9102 31.7662 27.7102 31.8395 27.5102L33.3395 27.0702C33.5749 27.0054 33.783 26.8662 33.9326 26.6733C34.0822 26.4804 34.1653 26.2443 34.1695 26.0002V24.1402ZM32.5695 25.6402L30.5695 26.2202L30.4495 26.6402C30.3387 27.0185 30.1878 27.3839 29.9995 27.7302L29.7895 28.1102L30.7895 29.9002L29.9295 30.7402L28.1095 29.7402L27.7395 29.9402C27.3833 30.1323 27.008 30.2865 26.6195 30.4002L26.1995 30.5202L25.6095 32.5202H24.3795L23.7895 30.5702L23.3695 30.4502C22.9783 30.3398 22.5996 30.189 22.2395 30.0002L21.8695 29.8002L20.0595 30.8002L19.1995 29.9502L20.1995 28.1302L19.9795 27.7502C19.7752 27.3927 19.6108 27.0137 19.4895 26.6202L19.3595 26.2102L17.4095 25.6302V24.4202L19.3495 23.8402L19.4695 23.4302C19.5896 23.033 19.754 22.6506 19.9595 22.2902L20.1795 21.9002L19.1795 20.1702L20.0495 19.3302L21.8195 20.2702L22.1995 20.0602C22.5705 19.8546 22.9628 19.6903 23.3695 19.5702L23.7795 19.4502L24.3695 17.5402H25.5995L26.1795 19.4402L26.5895 19.5602C26.9925 19.6777 27.3814 19.8386 27.7495 20.0402L28.1295 20.2502L29.9295 19.3002L30.7895 20.1502L29.7895 21.9202L29.9995 22.3002C30.1975 22.6583 30.3552 23.0373 30.4695 23.4302L30.5895 23.8502L32.5195 24.4202L32.5695 25.6402Z" fill="#01070E"/>
</svg>
