<svg width="36" height="36" viewBox="0 0 36 36" fill="none" xmlns="http://www.w3.org/2000/svg">
<path d="M8.91914 22H7.11914V25H8.91914V22Z" fill="#01070E"/>
<path d="M13.9191 22H12.1191V25H13.9191V22Z" fill="#01070E"/>
<path d="M18.9094 22H17.1094V25H18.9094V22Z" fill="#01070E"/>
<path d="M23.8996 22H22.0996V25H23.8996V22Z" fill="#01070E"/>
<path d="M28.8996 22H27.0996V25H28.8996V22Z" fill="#01070E"/>
<path d="M29.9205 18H6.23047V19.4H29.9205V18Z" fill="#01070E"/>
<path d="M33.91 18.47L33 15.4H30.86L32 19.06V27H4V19.06L7.13 9H19.56L20.71 7H7.13C6.70279 7.00021 6.28687 7.13722 5.94316 7.39095C5.59946 7.64468 5.34603 8.0018 5.22 8.41L2.09 18.48C2.03066 18.6711 2.00032 18.8699 2 19.07V27C2 27.5304 2.21071 28.0391 2.58579 28.4142C2.96086 28.7893 3.46957 29 4 29H32C32.5304 29 33.0391 28.7893 33.4142 28.4142C33.7893 28.0391 34 27.5304 34 27V19.06C33.9997 18.8599 33.9693 18.6611 33.91 18.47Z" fill="#01070E"/>
<path d="M26.8504 1.13981L21.1304 10.9998C20.9973 11.1951 20.9209 11.4235 20.9097 11.6596C20.8984 11.8957 20.9527 12.1303 21.0666 12.3374C21.1806 12.5445 21.3496 12.716 21.555 12.8329C21.7604 12.9498 21.9942 13.0076 22.2304 12.9998H33.6804C33.9166 13.0076 34.1504 12.9498 34.3558 12.8329C34.5612 12.716 34.7302 12.5445 34.8441 12.3374C34.958 12.1303 35.0123 11.8957 35.0011 11.6596C34.9898 11.4235 34.9135 11.1951 34.7804 10.9998L29.0604 1.13981C28.9476 0.946869 28.7862 0.786825 28.5923 0.675603C28.3985 0.564381 28.1789 0.505859 27.9554 0.505859C27.7319 0.505859 27.5123 0.564381 27.3184 0.675603C27.1245 0.786825 26.9632 0.946869 26.8504 1.13981Z" fill="#01070E"/>
</svg>
