<svg width="36" height="36" viewBox="0 0 36 36" fill="none" xmlns="http://www.w3.org/2000/svg">
<path d="M18 2C14.8355 2 11.7421 2.93838 9.11088 4.69649C6.4797 6.45459 4.42894 8.95345 3.21793 11.8771C2.00693 14.8007 1.69008 18.0177 2.30744 21.1214C2.92481 24.2251 4.44866 27.0761 6.6863 29.3137C8.92394 31.5513 11.7749 33.0752 14.8786 33.6926C17.9823 34.3099 21.1993 33.9931 24.1229 32.7821C27.0466 31.5711 29.5454 29.5203 31.3035 26.8891C33.0616 24.2579 34 21.1645 34 18C34 13.7565 32.3143 9.68687 29.3137 6.68629C26.3131 3.68571 22.2435 2 18 2ZM18 32C15.2311 32 12.5243 31.1789 10.222 29.6406C7.91974 28.1022 6.12532 25.9157 5.06569 23.3576C4.00607 20.7994 3.72882 17.9845 4.26901 15.2687C4.80921 12.553 6.14258 10.0584 8.10051 8.1005C10.0584 6.14257 12.553 4.8092 15.2687 4.26901C17.9845 3.72881 20.7994 4.00606 23.3576 5.06569C25.9157 6.12531 28.1022 7.91973 29.6406 10.222C31.1789 12.5243 32 15.2311 32 18C32 21.713 30.525 25.274 27.8995 27.8995C25.274 30.525 21.713 32 18 32Z" fill="#01070E"/>
<path d="M27.15 15H8.85003C8.35938 15 7.88882 15.1949 7.54188 15.5419C7.19494 15.8888 7.00003 16.3593 7.00003 16.85V19.14C6.99871 19.3838 7.04559 19.6254 7.13797 19.851C7.23035 20.0766 7.36641 20.2818 7.53833 20.4546C7.71025 20.6275 7.91464 20.7646 8.13975 20.8582C8.36485 20.9518 8.60624 21 8.85003 21H27.15C27.393 21 27.6335 20.9521 27.858 20.8592C28.0824 20.7662 28.2864 20.6299 28.4582 20.4581C28.63 20.2864 28.7662 20.0824 28.8592 19.858C28.9522 19.6335 29 19.3929 29 19.15V16.85C29 16.6071 28.9522 16.3665 28.8592 16.142C28.7662 15.9176 28.63 15.7136 28.4582 15.5419C28.2864 15.3701 28.0824 15.2338 27.858 15.1408C27.6335 15.0479 27.393 15 27.15 15ZM27.4 19.15C27.4 19.2163 27.3737 19.2799 27.3268 19.3268C27.2799 19.3737 27.2163 19.4 27.15 19.4H8.85003C8.78372 19.4 8.72013 19.3737 8.67325 19.3268C8.62637 19.2799 8.60003 19.2163 8.60003 19.15V16.85C8.60003 16.7837 8.62637 16.7201 8.67325 16.6732C8.72013 16.6263 8.78372 16.6 8.85003 16.6H27.15C27.2163 16.6 27.2799 16.6263 27.3268 16.6732C27.3737 16.7201 27.4 16.7837 27.4 16.85V19.15Z" fill="#01070E"/>
</svg>
