<svg width="36" height="36" viewBox="0 0 36 36" fill="none" xmlns="http://www.w3.org/2000/svg">
<path d="M18 24.4199C17.2089 24.4199 16.4355 24.6545 15.7777 25.094C15.1199 25.5336 14.6072 26.1583 14.3045 26.8892C14.0017 27.6201 13.9225 28.4244 14.0769 29.2003C14.2312 29.9762 14.6122 30.6889 15.1716 31.2483C15.731 31.8078 16.4437 32.1887 17.2196 32.3431C17.9956 32.4974 18.7998 32.4182 19.5307 32.1154C20.2616 31.8127 20.8864 31.3 21.3259 30.6422C21.7654 29.9844 22 29.211 22 28.4199C22 27.3591 21.5786 26.3416 20.8284 25.5915C20.0783 24.8414 19.0609 24.4199 18 24.4199ZM18 30.4199C17.6044 30.4199 17.2178 30.3026 16.8889 30.0829C16.56 29.8631 16.3036 29.5507 16.1522 29.1853C16.0009 28.8198 15.9613 28.4177 16.0384 28.0297C16.1156 27.6418 16.3061 27.2854 16.5858 27.0057C16.8655 26.726 17.2219 26.5355 17.6098 26.4584C17.9978 26.3812 18.3999 26.4208 18.7654 26.5722C19.1308 26.7235 19.4432 26.9799 19.6629 27.3088C19.8827 27.6377 20 28.0244 20 28.4199C20 28.9504 19.7893 29.4591 19.4142 29.8341C19.0391 30.2092 18.5304 30.4199 18 30.4199Z" fill="#01070E"/>
<path d="M26.2105 21.8502C26.2877 21.7433 26.343 21.6222 26.3733 21.4939C26.4035 21.3655 26.4081 21.2325 26.3867 21.1024C26.3654 20.9722 26.3185 20.8476 26.2487 20.7357C26.179 20.6238 26.0878 20.5268 25.9805 20.4502C24.4828 19.3747 22.7814 18.6159 20.9805 18.2202L24.8505 22.0902C25.0645 22.2328 25.3253 22.2874 25.5786 22.2427C25.8318 22.198 26.0581 22.0574 26.2105 21.8502Z" fill="#01070E"/>
<path d="M18.0506 10.7202C16.6531 10.724 15.2594 10.868 13.8906 11.1502L15.6306 12.8902C16.4328 12.7821 17.2412 12.7253 18.0506 12.7202C21.8304 12.7217 25.5217 13.865 28.6406 16.0002C28.8593 16.1255 29.1173 16.1636 29.3629 16.1069C29.6085 16.0501 29.8236 15.9027 29.9651 15.6942C30.1067 15.4856 30.1643 15.2313 30.1264 14.9821C30.0884 14.7329 29.9578 14.5072 29.7606 14.3502C26.312 11.9884 22.2305 10.7232 18.0506 10.7202Z" fill="#01070E"/>
<path d="M33.5494 8.19986C29.8365 5.74651 25.5942 4.20976 21.1714 3.71603C16.7487 3.22229 12.2719 3.78569 8.10938 5.35986L9.68937 6.92986C13.4552 5.64581 17.4654 5.24313 21.4113 5.75284C25.3572 6.26254 29.1335 7.67104 32.4494 9.86986C32.6708 10.0105 32.9387 10.0585 33.1952 10.0035C33.4517 9.94851 33.6763 9.7949 33.8206 9.57581C33.965 9.35673 34.0174 9.0897 33.9666 8.83231C33.9159 8.57492 33.766 8.34778 33.5494 8.19986Z" fill="#01070E"/>
<path d="M1.83984 4.75014L4.26984 7.18014C3.64984 7.52014 3.03984 7.88014 2.43984 8.28014C2.21971 8.42866 2.0676 8.65854 2.01697 8.91922C1.96633 9.17989 2.02132 9.45001 2.16984 9.67014C2.31837 9.89027 2.54825 10.0424 2.80892 10.093C3.0696 10.1436 3.33971 10.0887 3.55984 9.94014C4.25984 9.47014 4.99984 9.00014 5.73984 8.65014L9.60984 12.5201C8.42668 13.0394 7.29503 13.6688 6.22984 14.4001C6.07253 14.5681 5.97798 14.7853 5.96215 15.0149C5.94632 15.2445 6.01018 15.4725 6.14296 15.6605C6.27573 15.8485 6.46929 15.985 6.69098 16.0468C6.91266 16.1087 7.14891 16.0922 7.35984 16.0001C8.53661 15.1927 9.80141 14.5217 11.1298 14.0001L15.2898 18.1601C13.3742 18.5641 11.5692 19.3796 9.99984 20.5501C9.80438 20.713 9.67836 20.9443 9.64746 21.1969C9.61655 21.4494 9.68308 21.7043 9.83349 21.9095C9.9839 22.1147 10.2069 22.2549 10.457 22.3014C10.7072 22.348 10.9657 22.2975 11.1798 22.1601C12.8856 20.9211 14.8987 20.174 16.9998 20.0001L27.7998 30.8001L29.2098 29.3901L3.20984 3.39014L1.83984 4.75014Z" fill="#01070E"/>
</svg>
