<svg width="36" height="36" viewBox="0 0 36 36" fill="none" xmlns="http://www.w3.org/2000/svg">
<path d="M33.53 21.5798L28.59 18.7498V13.0898C28.5897 12.9126 28.5423 12.7387 28.4527 12.5858C28.3631 12.4329 28.2345 12.3066 28.08 12.2198L22.64 9.0998C22.488 9.01203 22.3155 8.96582 22.14 8.96582C21.9645 8.96582 21.792 9.01203 21.64 9.0998L16.2 12.2198C16.0455 12.3066 15.9169 12.4329 15.8273 12.5858C15.7377 12.7387 15.6903 12.9126 15.69 13.0898V18.7498L10.75 21.5798C10.5974 21.6679 10.4708 21.7948 10.383 21.9475C10.2952 22.1003 10.2493 22.2736 10.25 22.4498V28.6898C10.2511 28.8643 10.2978 29.0355 10.3855 29.1864C10.4732 29.3372 10.5989 29.4625 10.75 29.5498L16.2 32.6698C16.352 32.7576 16.5245 32.8038 16.7 32.8038C16.8755 32.8038 17.048 32.7576 17.2 32.6698L22.15 29.8398L27.1 32.6698C27.2514 32.7597 27.4239 32.808 27.6 32.8098C27.7727 32.8062 27.9415 32.758 28.09 32.6698L33.54 29.5498C33.6911 29.4625 33.8168 29.3372 33.9045 29.1864C33.9922 29.0355 34.039 28.8643 34.04 28.6898V22.4498C34.0397 22.2726 33.9923 22.0987 33.9027 21.9458C33.8131 21.7929 33.6845 21.6666 33.53 21.5798ZM22.14 11.1198L26.59 13.6698V18.9998L22.13 21.5598L17.69 18.9598V13.6698L22.14 11.1198ZM16.69 30.6498L12.25 28.1098V22.9998L16.93 20.3198L21.33 22.8898V27.9998L16.69 30.6498ZM32 28.1098L27.56 30.6498L22.93 27.9998V22.9298L27.39 20.3598L32 22.9998V28.1098Z" fill="#01070E"/>
<path d="M7.00057 27.4299C6.73535 27.4299 6.481 27.3245 6.29346 27.137C6.10592 26.9494 6.00057 26.6951 6.00057 26.4299V19.8999C5.99446 19.7186 6.03777 19.5391 6.12584 19.3806C6.21392 19.222 6.34345 19.0904 6.50057 18.9999L11.4506 16.1699V10.5399C11.4499 10.3637 11.4957 10.1904 11.5835 10.0376C11.6713 9.88484 11.798 9.75797 11.9506 9.66987L17.1606 6.66987C17.2747 6.60375 17.4008 6.56086 17.5316 6.54368C17.6623 6.52649 17.7952 6.53535 17.9226 6.56975C18.0499 6.60414 18.1692 6.66338 18.2735 6.74406C18.3779 6.82475 18.4652 6.92528 18.5306 7.03987C18.5963 7.1546 18.6386 7.28122 18.655 7.41241C18.6715 7.5436 18.6618 7.67675 18.6264 7.80416C18.5911 7.93157 18.5308 8.0507 18.4492 8.15467C18.3675 8.25864 18.266 8.34538 18.1506 8.40987L13.4506 11.0899V16.7499C13.4503 16.9271 13.4029 17.101 13.3133 17.2539C13.2237 17.4067 13.095 17.533 12.9406 17.6199L8.00057 20.4799V26.4299C8.00057 26.6951 7.89521 26.9494 7.70767 27.137C7.52014 27.3245 7.26578 27.4299 7.00057 27.4299Z" fill="#01070E"/>
<path d="M3 25.0502C2.73478 25.0502 2.48043 24.9448 2.29289 24.7573C2.10536 24.5698 2 24.3154 2 24.0502V17.5302C2.00105 17.3557 2.04776 17.1845 2.13547 17.0336C2.22319 16.8827 2.34886 16.7575 2.5 16.6702L7.5 13.8302V8.1702C7.50105 7.99569 7.54776 7.82449 7.63547 7.67362C7.72319 7.52275 7.84886 7.39746 8 7.3102L13.25 4.3102C13.4807 4.1776 13.7547 4.14208 14.0116 4.21147C14.2686 4.28086 14.4874 4.44947 14.62 4.6802C14.7526 4.91094 14.7881 5.18491 14.7187 5.44183C14.6493 5.69876 14.4807 5.9176 14.25 6.0502L9.45 8.7502V14.4102C9.44969 14.5874 9.40231 14.7613 9.3127 14.9142C9.22309 15.0671 9.09447 15.1934 8.94 15.2802L4 18.1102V24.0502C4 24.3154 3.89464 24.5698 3.70711 24.7573C3.51957 24.9448 3.26522 25.0502 3 25.0502Z" fill="#01070E"/>
</svg>
