<svg width="36" height="36" viewBox="0 0 36 36" fill="none" xmlns="http://www.w3.org/2000/svg">
<path d="M10.5 34.2902L2 29.3902V19.5802L10.5 14.6802L19 19.5802V29.3902L10.5 34.2902ZM4 28.2302L10.5 32.0002L17 28.2302V20.7402L10.5 17.0002L4 20.7402V28.2302Z" fill="#01070E"/>
<path d="M25.5 34.2902L17 29.3902V19.5802L25.5 14.6802L34 19.5802V29.3902L25.5 34.2902ZM19 28.2302L25.5 32.0002L32 28.2302V20.7402L25.5 17.0002L19 20.7402V28.2302Z" fill="#01070E"/>
<path d="M18 21.32L9.5 16.42V6.60996L18 1.70996L26.5 6.60996V16.42L18 21.32ZM11.5 15.26L18 19L24.5 15.25V7.76996L18 3.99996L11.5 7.76996V15.26Z" fill="#01070E"/>
</svg>
