<svg width="36" height="36" viewBox="0 0 36 36" fill="none" xmlns="http://www.w3.org/2000/svg">
<path d="M32.5108 27.8299C31.5465 26.9702 30.7022 25.9847 30.0008 24.8999C29.235 23.4025 28.776 21.7671 28.6508 20.0899V15.1499C28.6574 12.5155 27.7018 9.96938 25.9635 7.98988C24.2252 6.01037 21.8239 4.73376 19.2108 4.3999V3.1099C19.2108 2.75584 19.0701 2.41628 18.8198 2.16591C18.5694 1.91555 18.2298 1.7749 17.8758 1.7749C17.5217 1.7749 17.1822 1.91555 16.9318 2.16591C16.6814 2.41628 16.5408 2.75584 16.5408 3.1099V4.4199C13.951 4.77783 11.5788 6.06216 9.86331 8.03501C8.14787 10.0079 7.20551 12.5355 7.21078 15.1499V20.0899C7.08554 21.7671 6.62656 23.4025 5.86078 24.8999C5.17166 25.9823 4.34098 26.9676 3.39078 27.8299C3.28411 27.9236 3.19862 28.039 3.14 28.1683C3.08137 28.2976 3.05096 28.4379 3.05078 28.5799V29.9399C3.05078 30.2051 3.15614 30.4595 3.34367 30.647C3.53121 30.8345 3.78557 30.9399 4.05078 30.9399H31.8508C32.116 30.9399 32.3704 30.8345 32.5579 30.647C32.7454 30.4595 32.8508 30.2051 32.8508 29.9399V28.5799C32.8506 28.4379 32.8202 28.2976 32.7616 28.1683C32.7029 28.039 32.6174 27.9236 32.5108 27.8299ZM5.13078 28.9399C6.06119 28.0411 6.88038 27.0339 7.57078 25.9399C8.53539 24.1314 9.09821 22.1359 9.22078 20.0899V15.1499C9.18112 13.9779 9.37771 12.81 9.79883 11.7156C10.2199 10.6212 10.857 9.62269 11.672 8.7796C12.4871 7.93652 13.4634 7.26607 14.543 6.80818C15.6225 6.35028 16.7831 6.11431 17.9558 6.11431C19.1284 6.11431 20.2891 6.35028 21.3686 6.80818C22.4481 7.26607 23.4245 7.93652 24.2395 8.7796C25.0546 9.62269 25.6916 10.6212 26.1127 11.7156C26.5339 12.81 26.7304 13.9779 26.6908 15.1499V20.0899C26.8134 22.1359 27.3762 24.1314 28.3408 25.9399C29.0312 27.0339 29.8504 28.0411 30.7808 28.9399H5.13078Z" fill="#01070E"/>
<path d="M18.0003 34.28C18.6302 34.2655 19.2348 34.0287 19.7069 33.6114C20.1791 33.1942 20.4884 32.6234 20.5803 32H15.3203C15.4148 32.6403 15.7386 33.2245 16.2316 33.6439C16.7246 34.0633 17.3531 34.2894 18.0003 34.28Z" fill="#01070E"/>
</svg>
