<svg width="36" height="36" viewBox="0 0 36 36" fill="none" xmlns="http://www.w3.org/2000/svg">
<path d="M5.46078 7.4098V11.5598H6.65078V6.0498H5.70078L4.05078 7.1598L4.52078 7.9998L5.46078 7.4098Z" fill="#01070E"/>
<path d="M5.5707 14.8202C5.67375 14.8106 5.77768 14.8222 5.8761 14.8541C5.97453 14.8861 6.06538 14.9379 6.1431 15.0062C6.22081 15.0746 6.28374 15.1581 6.32804 15.2516C6.37234 15.3452 6.39706 15.4468 6.4007 15.5502C6.4007 15.9302 6.1907 16.2902 5.5307 16.8202L3.5307 18.3902V19.3902H7.6707V18.2802H5.3307L6.3307 17.5102C7.3307 16.8102 7.6107 16.2402 7.6107 15.5102C7.60225 15.2608 7.54289 15.0158 7.43627 14.7902C7.32965 14.5646 7.17802 14.3632 6.9907 14.1984C6.80339 14.0335 6.58434 13.9088 6.34702 13.8317C6.1097 13.7546 5.85913 13.7269 5.6107 13.7502C5.19394 13.7478 4.78258 13.8444 4.41051 14.0322C4.03844 14.22 3.71632 14.4935 3.4707 14.8302L4.2307 15.5602C4.38339 15.3434 4.58336 15.1641 4.8155 15.0359C5.04764 14.9077 5.30588 14.834 5.5707 14.8202Z" fill="#01070E"/>
<path d="M6.55984 24.6398C6.84371 24.5688 7.09597 24.4056 7.27698 24.1757C7.45799 23.9459 7.55749 23.6624 7.55984 23.3698C7.55984 22.4998 6.77984 21.8598 5.55984 21.8598C5.15632 21.8527 4.75667 21.9394 4.39229 22.1129C4.02791 22.2864 3.70874 22.5421 3.45984 22.8598L4.14984 23.5798C4.30954 23.3879 4.50781 23.2318 4.73177 23.1215C4.95574 23.0112 5.20039 22.9493 5.44984 22.9398C5.98984 22.9398 6.36984 23.1998 6.36984 23.5998C6.36984 23.9998 6.00984 24.2198 5.36984 24.2198H4.78984V25.2198H5.42984C6.16984 25.2198 6.49984 25.4298 6.49984 25.8498C6.49984 26.2698 6.14984 26.5298 5.49984 26.5298C5.22487 26.5276 4.9533 26.4688 4.7021 26.3569C4.45089 26.2451 4.22545 26.0827 4.03984 25.8798L3.33984 26.6598C3.61854 26.966 3.96062 27.2079 4.34228 27.3685C4.72395 27.5291 5.13603 27.6046 5.54984 27.5898C6.83984 27.5898 7.67984 26.8998 7.67984 25.9498C7.67906 25.634 7.56595 25.3288 7.36075 25.0888C7.15555 24.8488 6.87165 24.6896 6.55984 24.6398Z" fill="#01070E"/>
<path d="M32.42 9C32.42 8.73478 32.3146 8.48043 32.1271 8.29289C31.9396 8.10536 31.6852 8 31.42 8H10V10H31.42C31.6852 10 31.9396 9.89464 32.1271 9.70711C32.3146 9.51957 32.42 9.26522 32.42 9Z" fill="#01070E"/>
<path d="M31.42 16H10V18H31.42C31.6852 18 31.9396 17.8946 32.1271 17.7071C32.3146 17.5196 32.42 17.2652 32.42 17C32.42 16.7348 32.3146 16.4804 32.1271 16.2929C31.9396 16.1054 31.6852 16 31.42 16Z" fill="#01070E"/>
<path d="M31.42 24H10V26H31.42C31.6852 26 31.9396 25.8946 32.1271 25.7071C32.3146 25.5196 32.42 25.2652 32.42 25C32.42 24.7348 32.3146 24.4804 32.1271 24.2929C31.9396 24.1054 31.6852 24 31.42 24Z" fill="#01070E"/>
</svg>
