<svg width="36" height="36" viewBox="0 0 36 36" fill="none" xmlns="http://www.w3.org/2000/svg">
<path d="M27 22V14C27 13.4696 26.7893 12.9609 26.4142 12.5858C26.0391 12.2107 25.5304 12 25 12H11C10.4696 12 9.96086 12.2107 9.58579 12.5858C9.21071 12.9609 9 13.4696 9 14V22C9 22.5304 9.21071 23.0391 9.58579 23.4142C9.96086 23.7893 10.4696 24 11 24H25C25.5304 24 26.0391 23.7893 26.4142 23.4142C26.7893 23.0391 27 22.5304 27 22ZM11 14H25V22H11V14Z" fill="#01070E"/>
<path d="M23 6H19V8H23V6Z" fill="#01070E"/>
<path d="M26.9798 6H25.0098V8H26.9798V6Z" fill="#01070E"/>
<path d="M5.8 7.99993H16.87V5.99993H5.87L7.78 4.07993C7.87373 3.98697 7.94812 3.87637 7.99889 3.75451C8.04966 3.63265 8.0758 3.50195 8.0758 3.36993C8.0758 3.23792 8.04966 3.10722 7.99889 2.98536C7.94812 2.8635 7.87373 2.7529 7.78 2.65993C7.59264 2.47368 7.33919 2.36914 7.075 2.36914C6.81081 2.36914 6.55736 2.47368 6.37 2.65993L2 6.99993L6.37 11.3999C6.55736 11.5862 6.81081 11.6907 7.075 11.6907C7.33919 11.6907 7.59264 11.5862 7.78 11.3999C7.96625 11.2126 8.07079 10.9591 8.07079 10.6949C8.07079 10.4307 7.96625 10.1773 7.78 9.98993L5.8 7.99993Z" fill="#01070E"/>
<path d="M29.61 24.68C29.4226 24.4937 29.1692 24.3892 28.905 24.3892C28.6408 24.3892 28.3874 24.4937 28.2 24.68C28.1063 24.7729 28.0319 24.8835 27.9811 25.0054C27.9303 25.1272 27.9042 25.2579 27.9042 25.39C27.9042 25.522 27.9303 25.6527 27.9811 25.7745C28.0319 25.8964 28.1063 26.007 28.2 26.1L30.1 28H19V30H30.2L28.2 32C28.0138 32.1873 27.9092 32.4408 27.9092 32.705C27.9092 32.9691 28.0138 33.2226 28.2 33.41C28.3863 33.5947 28.6377 33.6988 28.9 33.7C29.0316 33.7007 29.1621 33.6755 29.2839 33.6257C29.4057 33.576 29.5166 33.5026 29.61 33.41L34 29.05L29.61 24.68Z" fill="#01070E"/>
<path d="M17 28H13V30H17V28Z" fill="#01070E"/>
<path d="M10.97 28H9V30H10.97V28Z" fill="#01070E"/>
</svg>
