<svg width="36" height="36" viewBox="0 0 36 36" fill="none" xmlns="http://www.w3.org/2000/svg">
<path d="M16.0797 14.9002C16.6788 14.6041 17.3051 14.3663 17.9497 14.1902L13.9497 3.42024C13.8077 3.03749 13.5519 2.70738 13.2167 2.47427C12.8815 2.24116 12.483 2.11621 12.0747 2.11621C11.6665 2.11621 11.268 2.24116 10.9328 2.47427C10.5976 2.70738 10.3418 3.03749 10.1997 3.42024L1.99975 25.2602C1.87676 25.5686 1.83246 25.9027 1.87083 26.2324C1.90919 26.5621 2.02903 26.8771 2.21952 27.1489C2.41001 27.4208 2.66517 27.6409 2.96199 27.7896C3.25881 27.9382 3.58796 28.0106 3.91975 28.0002H10.8597C10.6178 27.3533 10.4435 26.6831 10.3397 26.0002H3.91975L12.0597 4.12024L16.0797 14.9002Z" fill="#01070E"/>
<path d="M32 9H22C21.4696 9 20.9609 9.21071 20.5858 9.58579C20.2107 9.96086 20 10.4696 20 11V13.85C20.23 13.85 20.46 13.85 20.69 13.85C21.1273 13.8394 21.5648 13.8561 22 13.9V11H32V21H30.65C30.8654 21.6503 31.0161 22.3202 31.1 23H32C32.5304 23 33.0391 22.7893 33.4142 22.4142C33.7893 22.0391 34 21.5304 34 21V11C34 10.4696 33.7893 9.96086 33.4142 9.58579C33.0391 9.21071 32.5304 9 32 9Z" fill="#01070E"/>
<path d="M20.6895 15.8101C19.0083 15.8101 17.3649 16.3086 15.9671 17.2426C14.5693 18.1766 13.4798 19.5041 12.8365 21.0572C12.1931 22.6104 12.0248 24.3195 12.3528 25.9683C12.6808 27.6172 13.4903 29.1317 14.679 30.3205C15.8678 31.5092 17.3824 32.3188 19.0312 32.6467C20.68 32.9747 22.3891 32.8064 23.9423 32.163C25.4954 31.5197 26.823 30.4302 27.7569 29.0324C28.6909 27.6346 29.1895 25.9912 29.1895 24.3101C29.1868 22.0565 28.2904 19.8961 26.6969 18.3026C25.1035 16.7091 22.943 15.8127 20.6895 15.8101ZM20.6895 30.8101C19.4039 30.8101 18.1472 30.4288 17.0782 29.7146C16.0093 29.0004 15.1762 27.9852 14.6842 26.7975C14.1923 25.6098 14.0635 24.3028 14.3144 23.042C14.5652 21.7811 15.1842 20.6229 16.0933 19.7139C17.0023 18.8048 18.1605 18.1858 19.4214 17.935C20.6822 17.6842 21.9892 17.8129 23.1769 18.3048C24.3646 18.7968 25.3798 19.6299 26.094 20.6989C26.8082 21.7678 27.1895 23.0245 27.1895 24.3101C27.1868 26.0332 26.5011 27.6849 25.2827 28.9033C24.0643 30.1217 22.4126 30.8074 20.6895 30.8101Z" fill="#01070E"/>
</svg>
