<svg width="33" height="32" viewBox="0 0 33 32" fill="none" xmlns="http://www.w3.org/2000/svg">
<path d="M16.0801 0.339844C7.26008 0.339844 0.0800781 6.61984 0.0800781 14.3398C0.0800781 22.0598 7.26008 28.3398 16.0801 28.3398C17.7437 28.3428 19.3996 28.1139 21.0001 27.6598L26.5301 31.1798C26.753 31.3227 27.0234 31.3713 27.2821 31.3151C27.5408 31.2589 27.7666 31.1023 27.9101 30.8798C28.014 30.7189 28.0696 30.5315 28.0701 30.3398V23.6098C29.3213 22.4095 30.3198 20.971 31.0068 19.379C31.6937 17.787 32.0552 16.0737 32.0701 14.3398C32.0801 6.61984 24.9001 0.339844 16.0801 0.339844ZM26.3701 22.4498C26.2695 22.5431 26.1893 22.656 26.1342 22.7816C26.0792 22.9072 26.0505 23.0427 26.0501 23.1798V28.5198L21.6701 25.7298C21.5479 25.6526 21.4104 25.6028 21.2671 25.5838C21.1239 25.5648 20.9782 25.5771 20.8401 25.6198C19.2988 26.0985 17.694 26.3413 16.0801 26.3398C8.36008 26.3398 2.08008 20.9598 2.08008 14.3398C2.08008 7.71984 8.36008 2.33984 16.0801 2.33984C23.8001 2.33984 30.0801 7.71984 30.0801 14.3398C30.0561 15.8747 29.714 17.3879 29.0754 18.7838C28.4368 20.1798 27.5156 21.428 26.3701 22.4498Z" fill="#01070E"/>
<path d="M29.1001 13.82L29.0001 13.67L26.5001 11.44C26.1782 11.1472 25.8009 10.9219 25.3903 10.7776C24.9798 10.6333 24.5444 10.5729 24.1101 10.6L18.7301 10.94L15.1401 7.94005C14.9945 7.81761 14.8104 7.75034 14.6201 7.75005H11.5601C11.4197 7.74847 11.2815 7.78479 11.1601 7.85519C11.0387 7.92559 10.9385 8.02746 10.8701 8.15005C10.7987 8.26945 10.7611 8.40595 10.7611 8.54505C10.7611 8.68415 10.7987 8.82065 10.8701 8.94005L12.2301 11.38L7.5201 11.67L8.8301 13.19L24.2201 12.19C24.4419 12.1758 24.6643 12.2066 24.874 12.2805C25.0836 12.3544 25.2762 12.4699 25.4401 12.62L27.8001 14.75C27.8077 14.7728 27.8077 14.7973 27.8001 14.82C27.8001 14.88 27.7101 14.87 27.7001 14.88H19.8201L19.4701 15.25L14.2801 20.7801H12.6401L15.3701 14.88H6.5401L5.1301 12.16L4.5101 11C4.39271 10.8556 4.22863 10.7566 4.04609 10.7201C3.86356 10.6835 3.67401 10.7118 3.5101 10.8C3.32349 10.9052 3.18612 11.0799 3.12803 11.2861C3.06993 11.4922 3.09584 11.713 3.2001 11.9L5.20009 15.84C5.30301 16.0372 5.45825 16.2021 5.64877 16.3168C5.83929 16.4315 6.05773 16.4914 6.28009 16.49H12.8501L10.9101 20.67C10.8255 20.8552 10.7894 21.0588 10.8051 21.2617C10.8208 21.4646 10.8879 21.6602 11.0001 21.83C11.1082 21.9982 11.2559 22.1371 11.4302 22.2348C11.6046 22.3324 11.8003 22.3858 12.0001 22.39H14.4301C14.596 22.3912 14.7603 22.357 14.9121 22.2897C15.0638 22.2225 15.1995 22.1237 15.3101 22L20.4901 16.49H27.6501C27.9638 16.4986 28.2734 16.4175 28.5426 16.2563C28.8118 16.0952 29.0295 15.8606 29.1701 15.58C29.3161 15.307 29.3866 14.9999 29.3742 14.6905C29.3619 14.3812 29.2673 14.0807 29.1001 13.82ZM12.9201 9.31005H14.3301L16.4201 11.08L14.0001 11.23L12.9201 9.31005Z" fill="#01070E"/>
</svg>
