<svg width="36" height="36" viewBox="0 0 36 36" fill="none" xmlns="http://www.w3.org/2000/svg">
<path d="M31.0605 9H5.06055C4.79533 9 4.54098 8.89464 4.35344 8.70711C4.1659 8.51957 4.06055 8.26522 4.06055 8C4.06055 7.73478 4.1659 7.48043 4.35344 7.29289C4.54098 7.10536 4.79533 7 5.06055 7H31.0605C31.3258 7 31.5801 7.10536 31.7677 7.29289C31.9552 7.48043 32.0605 7.73478 32.0605 8C32.0605 8.26522 31.9552 8.51957 31.7677 8.70711C31.5801 8.89464 31.3258 9 31.0605 9Z" fill="#01070E"/>
<path d="M31.0605 14H14.0605C13.7953 14 13.541 13.8946 13.3534 13.7071C13.1659 13.5196 13.0605 13.2652 13.0605 13C13.0605 12.7348 13.1659 12.4804 13.3534 12.2929C13.541 12.1054 13.7953 12 14.0605 12H31.0605C31.3258 12 31.5801 12.1054 31.7677 12.2929C31.9552 12.4804 32.0605 12.7348 32.0605 13C32.0605 13.2652 31.9552 13.5196 31.7677 13.7071C31.5801 13.8946 31.3258 14 31.0605 14Z" fill="#01070E"/>
<path d="M31.0605 19H14.0605C13.7953 19 13.541 18.8946 13.3534 18.7071C13.1659 18.5196 13.0605 18.2652 13.0605 18C13.0605 17.7348 13.1659 17.4804 13.3534 17.2929C13.541 17.1054 13.7953 17 14.0605 17H31.0605C31.3258 17 31.5801 17.1054 31.7677 17.2929C31.9552 17.4804 32.0605 17.7348 32.0605 18C32.0605 18.2652 31.9552 18.5196 31.7677 18.7071C31.5801 18.8946 31.3258 19 31.0605 19Z" fill="#01070E"/>
<path d="M31.0605 24H14.0605C13.7953 24 13.541 23.8946 13.3534 23.7071C13.1659 23.5196 13.0605 23.2652 13.0605 23C13.0605 22.7348 13.1659 22.4804 13.3534 22.2929C13.541 22.1054 13.7953 22 14.0605 22H31.0605C31.3258 22 31.5801 22.1054 31.7677 22.2929C31.9552 22.4804 32.0605 22.7348 32.0605 23C32.0605 23.2652 31.9552 23.5196 31.7677 23.7071C31.5801 23.8946 31.3258 24 31.0605 24Z" fill="#01070E"/>
<path d="M31.0605 29H5.06055C4.79533 29 4.54098 28.8946 4.35344 28.7071C4.1659 28.5196 4.06055 28.2652 4.06055 28C4.06055 27.7348 4.1659 27.4804 4.35344 27.2929C4.54098 27.1054 4.79533 27 5.06055 27H31.0605C31.3258 27 31.5801 27.1054 31.7677 27.2929C31.9552 27.4804 32.0605 27.7348 32.0605 28C32.0605 28.2652 31.9552 28.5196 31.7677 28.7071C31.5801 28.8946 31.3258 29 31.0605 29Z" fill="#01070E"/>
<path d="M9.55938 22.54C9.29561 22.5362 9.044 22.4284 8.85937 22.24L4.60938 18L8.85937 13.76C9.05068 13.5962 9.29675 13.5106 9.54843 13.5203C9.8001 13.53 10.0388 13.6343 10.2169 13.8124C10.395 13.9905 10.4994 14.2293 10.5091 14.4809C10.5188 14.7326 10.4332 14.9787 10.2694 15.17L7.43937 18L10.2694 20.83C10.4104 20.9699 10.5066 21.1486 10.5457 21.3433C10.5847 21.5381 10.5649 21.74 10.4887 21.9235C10.4126 22.1069 10.2835 22.2635 10.118 22.3733C9.95247 22.4831 9.758 22.5411 9.55938 22.54Z" fill="#01070E"/>
</svg>
