<svg width="36" height="36" viewBox="0 0 36 36" fill="none" xmlns="http://www.w3.org/2000/svg">
<path d="M31 10V4C31 3.46957 30.7893 2.96086 30.4142 2.58579C30.0391 2.21071 29.5304 2 29 2H6C5.46957 2 4.96086 2.21071 4.58579 2.58579C4.21071 2.96086 4 3.46957 4 4V10C4 10.5304 4.21071 11.0391 4.58579 11.4142C4.96086 11.7893 5.46957 12 6 12H29C29.5304 12 30.0391 11.7893 30.4142 11.4142C30.7893 11.0391 31 10.5304 31 10ZM6 4H29V10H6V4Z" fill="#01070E"/>
<path d="M33 6H32V12.29L18.7 16.54C18.4893 16.606 18.3063 16.7399 18.1797 16.9208C18.0531 17.1017 17.9899 17.3194 18 17.54V19H16V33C16 33.5304 16.2107 34.0391 16.5858 34.4142C16.9609 34.7893 17.4696 35 18 35H20C20.5304 35 21.0391 34.7893 21.4142 34.4142C21.7893 34.0391 22 33.5304 22 33V19H20V18.27L33.3 14C33.5107 13.934 33.6937 13.8001 33.8203 13.6192C33.9469 13.4383 34.0101 13.2206 34 13V7C34 6.73478 33.8946 6.48043 33.7071 6.29289C33.5196 6.10536 33.2652 6 33 6ZM20 33H18V21H20V33Z" fill="#01070E"/>
</svg>
