<svg width="36" height="36" viewBox="0 0 36 36" fill="none" xmlns="http://www.w3.org/2000/svg">
<path d="M30 12H26V14H30V16H32V14C32 13.4696 31.7893 12.9609 31.4142 12.5858C31.0391 12.2107 30.5304 12 30 12Z" fill="#01070E"/>
<path d="M32 18H30V24H32V18Z" fill="#01070E"/>
<path d="M30 30H28V32H30C30.5304 32 31.0391 31.7893 31.4142 31.4142C31.7893 31.0391 32 30.5304 32 30V26H30V30Z" fill="#01070E"/>
<path d="M24 22V6C24 5.46957 23.7893 4.96086 23.4142 4.58579C23.0391 4.21071 22.5304 4 22 4H6C5.46957 4 4.96086 4.21071 4.58579 4.58579C4.21071 4.96086 4 5.46957 4 6V22C4 22.5304 4.21071 23.0391 4.58579 23.4142C4.96086 23.7893 5.46957 24 6 24H22C22.5304 24 23.0391 23.7893 23.4142 23.4142C23.7893 23.0391 24 22.5304 24 22ZM6 6H22V22H6V6Z" fill="#01070E"/>
<path d="M26 30H20V32H26V30Z" fill="#01070E"/>
<path d="M14 26H12V30C12 30.5304 12.2107 31.0391 12.5858 31.4142C12.9609 31.7893 13.4696 32 14 32H18V30H14V26Z" fill="#01070E"/>
</svg>
