<svg width="36" height="36" viewBox="0 0 36 36" fill="none" xmlns="http://www.w3.org/2000/svg">
<path d="M12.93 32H6.07C5.521 32 4.99449 31.7819 4.60629 31.3937C4.21809 31.0055 4 30.479 4 29.93V6.07C4 5.521 4.21809 4.99449 4.60629 4.60629C4.99449 4.21809 5.521 4 6.07 4H12.94C13.4873 4.00264 14.0112 4.2219 14.3973 4.60981C14.7833 4.99773 15 5.52273 15 6.07V29.93C15 30.479 14.7819 31.0055 14.3937 31.3937C14.0055 31.7819 13.479 32 12.93 32ZM13 6H6V30H13V6Z" fill="#01070E"/>
<path d="M29.93 32H23.07C22.521 32 21.9945 31.7819 21.6063 31.3937C21.2181 31.0055 21 30.479 21 29.93V6.07C21 5.521 21.2181 4.99449 21.6063 4.60629C21.9945 4.21809 22.521 4 23.07 4H29.94C30.4873 4.00264 31.0112 4.2219 31.3973 4.60981C31.7833 4.99773 32 5.52273 32 6.07V29.93C32 30.479 31.7819 31.0055 31.3937 31.3937C31.0055 31.7819 30.479 32 29.93 32ZM30 6H23V30H30V6Z" fill="#01070E"/>
</svg>
