<svg width="36" height="36" viewBox="0 0 36 36" fill="none" xmlns="http://www.w3.org/2000/svg">
<path d="M30.9992 13.2H27.8892C27.9613 12.8041 27.9981 12.4025 27.9992 12C27.9961 11.6014 27.9627 11.2036 27.8992 10.81H30.8292C31.0414 10.81 31.2449 10.7257 31.3949 10.5757C31.5449 10.4257 31.6292 10.2222 31.6292 10.01C31.6292 9.79784 31.5449 9.59436 31.3949 9.44433C31.2449 9.2943 31.0414 9.21002 30.8292 9.21002H27.4592C26.8144 7.65319 25.7184 6.325 24.3123 5.39648C22.9061 4.46795 21.2542 3.98159 19.5692 4.00002H10.9992C10.734 4.00002 10.4796 4.10537 10.2921 4.29291C10.1046 4.48045 9.99922 4.7348 9.99922 5.00002V9.20002H6.99922C6.78705 9.20002 6.58356 9.2843 6.43353 9.43433C6.2835 9.58436 6.19922 9.78784 6.19922 10C6.19922 10.2122 6.2835 10.4157 6.43353 10.5657C6.58356 10.7157 6.78705 10.8 6.99922 10.8H9.99922V13.2H6.99922C6.78705 13.2 6.58356 13.2843 6.43353 13.4343C6.2835 13.5844 6.19922 13.7878 6.19922 14C6.19922 14.2122 6.2835 14.4157 6.43353 14.5657C6.58356 14.7157 6.78705 14.8 6.99922 14.8H9.99922V31C9.99922 31.2652 10.1046 31.5196 10.2921 31.7071C10.4796 31.8947 10.734 32 10.9992 32C11.2644 32 11.5188 31.8947 11.7063 31.7071C11.8939 31.5196 11.9992 31.2652 11.9992 31V20H19.5692C21.2528 20.0179 22.9032 19.5325 24.309 18.606C25.7148 17.6795 26.8118 16.3542 27.4592 14.8H30.9992C31.2114 14.8 31.4149 14.7157 31.5649 14.5657C31.7149 14.4157 31.7992 14.2122 31.7992 14C31.7992 13.7878 31.7149 13.5844 31.5649 13.4343C31.4149 13.2843 31.2114 13.2 30.9992 13.2ZM11.9992 6.00002H19.5692C20.7137 5.987 21.8414 6.27596 22.8387 6.83777C23.8359 7.39958 24.6673 8.21438 25.2492 9.20002H11.9992V6.00002ZM11.9992 10.8H25.8692C26.0427 11.5906 26.0427 12.4094 25.8692 13.2H11.9992V10.8ZM19.5692 18H11.9992V14.8H25.2492C24.6673 15.7857 23.8359 16.6004 22.8387 17.1623C21.8414 17.7241 20.7137 18.013 19.5692 18Z" fill="#01070E"/>
</svg>
