<svg width="36" height="36" viewBox="0 0 36 36" fill="none" xmlns="http://www.w3.org/2000/svg">
<path d="M27.731 35.4402C27.3947 35.4393 27.0594 35.4024 26.731 35.3302C20.4776 34.0366 14.7166 31.0036 10.111 26.5802C5.60363 22.1471 2.47755 16.5028 1.11096 10.3302C0.949818 9.56091 0.989368 8.7631 1.2258 8.01352C1.46223 7.26394 1.88759 6.58782 2.46096 6.0502L6.46096 2.2002C6.66526 2.00699 6.90802 1.85903 7.17337 1.76599C7.43873 1.67294 7.72073 1.63689 8.00096 1.6602C8.29152 1.69052 8.57192 1.78412 8.82243 1.93442C9.07294 2.08473 9.28747 2.28809 9.45096 2.5302L14.451 9.9202C14.6385 10.2069 14.729 10.5463 14.7092 10.8883C14.6894 11.2304 14.5603 11.557 14.341 11.8202L11.831 14.8202C12.8306 17.0327 14.2463 19.0323 16.001 20.7102C17.7443 22.449 19.8048 23.8374 22.071 24.8002L25.181 22.3302C25.4422 22.1238 25.76 22.0017 26.0923 21.9803C26.4245 21.9589 26.7554 22.039 27.041 22.2102L34.591 27.0902C34.85 27.2449 35.0708 27.4562 35.2366 27.7083C35.4024 27.9605 35.5091 28.2468 35.5485 28.546C35.5879 28.8452 35.5592 29.1494 35.4643 29.4359C35.3695 29.7223 35.2111 29.9836 35.001 30.2002L31.101 34.0602C30.6579 34.501 30.1321 34.8499 29.5538 35.0867C28.9754 35.3236 28.3559 35.4437 27.731 35.4402ZM7.84096 3.6402L3.84096 7.4902C3.51841 7.79075 3.27964 8.17008 3.14814 8.59089C3.01664 9.01169 2.99693 9.45948 3.09096 9.8902C4.36168 15.6823 7.28268 20.9825 11.501 25.1502C15.8352 29.3118 21.2566 32.1646 27.141 33.3802C27.5864 33.4733 28.0479 33.4545 28.4842 33.3253C28.9205 33.1962 29.318 32.9608 29.641 32.6402L33.541 28.7802L26.251 24.0702L22.911 26.7302C22.7831 26.8314 22.6324 26.8998 22.4721 26.9294C22.3117 26.9591 22.1465 26.949 21.991 26.9002C19.2177 25.8784 16.7044 24.2564 14.631 22.1502C12.4863 20.1474 10.8216 17.6862 9.76096 14.9502C9.71609 14.7846 9.7146 14.6102 9.75663 14.4438C9.79866 14.2774 9.8828 14.1247 10.001 14.0002L12.701 10.7702L7.84096 3.6402Z" fill="#01070E"/>
</svg>
