<svg width="36" height="36" viewBox="0 0 36 36" fill="none" xmlns="http://www.w3.org/2000/svg">
<path d="M32 5H4C2.895 5 2 5.895 2 7V29C2 30.105 2.895 31 4 31H32C33.105 31 34 30.105 34 29V7C34 5.895 33.105 5 32 5ZM4 29V7H32V29H4Z" fill="#01070E"/>
<path d="M17 27C12.582 27 9 23.418 9 19C9 14.582 12.582 11 17 11V19H25C25 23.418 21.418 27 17 27ZM23.247 20.4H15.4V12.802C12.64 13.513 10.601 16.018 10.6 19C10.6 22.535 13.465 25.4 17 25.4C20.054 25.401 22.608 23.261 23.247 20.4Z" fill="#01070E"/>
<path d="M19 9C23.418 9 27 12.582 27 17H19V9ZM25.198 15.4C24.62 13.15 22.849 11.38 20.6 10.801V15.4H25.198Z" fill="#01070E"/>
</svg>
