<svg width="36" height="36" viewBox="0 0 36 36" fill="none" xmlns="http://www.w3.org/2000/svg">
<path d="M34 29C34 30.105 33.105 31 32 31H4C2.895 31 2 30.105 2 29V7C2 5.895 2.895 5 4 5H21.958L20.786 7H4V29H32V15.357H34V29Z" fill="#01070E"/>
<path d="M17 27C12.582 27 9 23.418 9 19C9 14.582 12.582 11 17 11V19H25C25 23.418 21.418 27 17 27ZM23.247 20.4H15.4V12.802C12.64 13.513 10.601 16.018 10.6 19C10.6 22.535 13.465 25.4 17 25.4C20.054 25.401 22.608 23.261 23.247 20.4Z" fill="#01070E"/>
<path d="M27 17.0002H19V15.3452C19.021 15.3482 19.043 15.3492 19.064 15.3512C19.134 15.3572 19.201 15.3592 19.27 15.3572H26.831C26.942 15.8872 27 16.4372 27 17.0002Z" fill="#01070E"/>
<path d="M26.8541 1.144L21.1341 11.004C20.5791 11.818 21.1141 12.928 22.0971 13.001C22.1421 13.005 22.1881 13.006 22.2341 13.004H33.6841C34.6691 13.036 35.3191 11.991 34.8551 11.122C34.8341 11.081 34.8101 11.042 34.7841 11.004L29.0641 1.144C28.5701 0.299004 27.3481 0.299004 26.8541 1.144Z" fill="#01070E"/>
</svg>
