<svg width="36" height="36" viewBox="0 0 36 36" fill="none" xmlns="http://www.w3.org/2000/svg">
<path d="M32.9994 16.59C32.8678 16.5908 32.7374 16.5656 32.6155 16.5158C32.4937 16.466 32.3829 16.3927 32.2894 16.3L19.6994 3.71003C19.5356 3.51873 19.45 3.27265 19.4597 3.02097C19.4695 2.7693 19.5738 2.53056 19.7519 2.35246C19.93 2.17437 20.1687 2.07004 20.4204 2.06032C20.6721 2.05059 20.9181 2.1362 21.1094 2.30003L33.7094 14.89C33.847 15.0304 33.9402 15.2082 33.9773 15.4013C34.0144 15.5943 33.9938 15.794 33.9181 15.9754C33.8423 16.1568 33.7148 16.3119 33.5514 16.4212C33.388 16.5305 33.196 16.5892 32.9994 16.59Z" fill="#01070E"/>
<path d="M28.521 15.56L27.111 14.15L19.9109 21.35C19.7824 21.4783 19.6912 21.6391 19.6472 21.8153C19.6031 21.9915 19.6079 22.1763 19.6609 22.35C20.0679 23.7229 20.1414 25.1732 19.8753 26.5802C19.6092 27.9872 19.0112 29.3105 18.1309 30.44L5.58095 17.87C6.71045 16.9897 8.03369 16.3917 9.44073 16.1256C10.8478 15.8595 12.298 15.933 13.6709 16.34C13.8446 16.393 14.0295 16.3978 14.2056 16.3538C14.3818 16.3097 14.5427 16.2185 14.6709 16.09L21.871 8.88998L20.441 7.47998L13.6509 14.27C11.8434 13.8342 9.95465 13.8662 8.16296 14.3632C6.37128 14.8601 4.7358 15.8054 3.41095 17.11C3.31722 17.2029 3.24283 17.3135 3.19206 17.4354C3.14129 17.5573 3.11515 17.688 3.11515 17.82C3.11515 17.952 3.14129 18.0827 3.19206 18.2046C3.24283 18.3264 3.31722 18.437 3.41095 18.53L9.74095 24.86L2.29095 32.29C2.18627 32.3796 2.10125 32.4899 2.04122 32.614C1.9812 32.7381 1.94747 32.8732 1.94215 33.0109C1.93683 33.1486 1.96004 33.286 2.01031 33.4143C2.06059 33.5426 2.13684 33.6592 2.2343 33.7566C2.33175 33.8541 2.4483 33.9303 2.57663 33.9806C2.70495 34.0309 2.84228 34.0541 2.98 34.0488C3.11772 34.0435 3.25286 34.0097 3.37692 33.9497C3.50098 33.8897 3.6113 33.8047 3.70095 33.7L11.141 26.26L17.4709 32.59C17.5644 32.6827 17.6752 32.756 17.797 32.8058C17.9189 32.8555 18.0493 32.8807 18.181 32.88C18.3133 32.8794 18.4441 32.8526 18.566 32.8011C18.6879 32.7496 18.7983 32.6745 18.8909 32.58C20.1907 31.252 21.1329 29.6163 21.6295 27.8257C22.1261 26.035 22.161 24.1478 21.7309 22.34L28.521 15.56Z" fill="#01070E"/>
</svg>
