<svg width="36" height="36" viewBox="0 0 36 36" fill="none" xmlns="http://www.w3.org/2000/svg">
<path d="M30 30H6V6H22V4H6C5.46957 4 4.96086 4.21071 4.58579 4.58579C4.21071 4.96086 4 5.46957 4 6V30C4 30.5304 4.21071 31.0391 4.58579 31.4142C4.96086 31.7893 5.46957 32 6 32H30C30.5304 32 31.0391 31.7893 31.4142 31.4142C31.7893 31.0391 32 30.5304 32 30V14H30V30Z" fill="#01070E"/>
<path d="M33.5704 9.32981L26.5704 2.32981C26.3791 2.16599 26.133 2.08038 25.8813 2.0901C25.6297 2.09982 25.3909 2.20415 25.2128 2.38225C25.0347 2.56034 24.9304 2.79908 24.9207 3.05076C24.9109 3.30244 24.9966 3.54851 25.1604 3.73981L32.1604 10.7398C32.25 10.8445 32.3603 10.9295 32.4844 10.9895C32.6085 11.0496 32.7436 11.0833 32.8813 11.0886C33.019 11.0939 33.1564 11.0707 33.2847 11.0205C33.413 10.9702 33.5296 10.8939 33.627 10.7965C33.7245 10.699 33.8007 10.5825 33.851 10.4541C33.9013 10.3258 33.9245 10.1885 33.9192 10.0508C33.9139 9.91304 33.8801 9.77791 33.8201 9.65384C33.7601 9.52978 33.6751 9.41946 33.5704 9.32981Z" fill="#01070E"/>
<path d="M22.1002 11.1901L22.8002 11.6901L26.4602 8.00006L25.0002 6.56006L22.5102 9.13006C20.5102 8.26006 18.1602 9.27006 16.5902 10.8101L15.8702 11.5201L19.4102 15.0601L15.7402 18.7301L17.1502 20.1401L20.8202 16.4701L24.3702 20.0001L25.0802 19.2801C26.6202 17.7101 27.6302 15.3601 26.7602 13.3501L29.3002 10.7801L27.8802 9.38006L24.2102 13.1001L24.7002 13.7901C25.4602 14.7901 24.9502 16.1601 24.2902 17.1201L18.7702 11.6001C19.8402 10.8601 21.1502 10.5001 22.1002 11.1901Z" fill="#01070E"/>
</svg>
