<svg width="36" height="36" viewBox="0 0 36 36" fill="none" xmlns="http://www.w3.org/2000/svg">
<path d="M8.07 31.6002C7.521 31.6002 6.99449 31.3821 6.60629 30.9939C6.21809 30.6057 6 30.0792 6 29.5302V6.32019C5.99988 5.96688 6.0902 5.61942 6.26235 5.3109C6.4345 5.00237 6.68276 4.74304 6.98348 4.55759C7.28421 4.37214 7.62739 4.26675 7.98037 4.25145C8.33334 4.23615 8.68436 4.31146 9 4.47019L32.21 16.0802C32.5531 16.2524 32.8415 16.5166 33.0431 16.8433C33.2446 17.17 33.3513 17.5463 33.3513 17.9302C33.3513 18.3141 33.2446 18.6904 33.0431 19.0171C32.8415 19.3438 32.5531 19.608 32.21 19.7802L9 31.3802C8.71153 31.5254 8.39296 31.6008 8.07 31.6002ZM8.07 6.26019L8 6.32019V29.5302L8.1 29.5902L31.31 18.0002C31.3153 17.9911 31.318 17.9807 31.318 17.9702C31.318 17.9597 31.3153 17.9493 31.31 17.9402L8.07 6.26019Z" fill="#01070E"/>
</svg>
