<svg width="36" height="36" viewBox="0 0 36 36" fill="none" xmlns="http://www.w3.org/2000/svg">
<path d="M29.81 15.9999H29V15.3999H27V17.9999H29.81C30.5795 17.9776 31.3302 18.2396 31.9187 18.7358C32.5071 19.232 32.8921 19.9277 33 20.6899C33.0389 21.1081 32.9896 21.5298 32.8553 21.9277C32.7209 22.3257 32.5045 22.6909 32.22 22.9999C31.9404 23.3125 31.5984 23.563 31.216 23.7353C30.8336 23.9075 30.4194 23.9977 30 23.9999H27V31.8299H4V24.9999H5C5.70182 25.0036 6.39655 24.8595 7.03899 24.5769C7.68143 24.2944 8.25719 23.8797 8.72882 23.36C9.20046 22.8403 9.55739 22.2271 9.7764 21.5603C9.99541 20.8935 10.0716 20.1881 10 19.4899C9.83794 18.2345 9.21917 17.0827 8.26184 16.2545C7.30452 15.4263 6.0757 14.9797 4.81 14.9999H4V8.82992H13V6.99992C13.0023 6.58054 13.0924 6.16629 13.2647 5.78391C13.4369 5.40153 13.6874 5.05951 14 4.77992C14.309 4.49546 14.6743 4.27904 15.0722 4.14467C15.4701 4.01031 15.8918 3.961 16.31 3.99992C17.0722 4.10781 17.7679 4.49279 18.2641 5.08127C18.7604 5.66975 19.0224 6.42046 19 7.18992V8.82992H19.66L21 6.58992C20.8873 5.42748 20.3806 4.33849 19.5639 3.50362C18.7472 2.66875 17.6697 2.13818 16.51 1.99992C15.8259 1.92949 15.1347 2.00094 14.4795 2.20979C13.8243 2.41863 13.2192 2.7604 12.702 3.21371C12.1849 3.66702 11.7668 4.22214 11.474 4.84436C11.1811 5.46658 11.0198 6.14252 11 6.82992H4C3.46957 6.82992 2.96086 7.04064 2.58579 7.41571C2.21071 7.79078 2 8.29949 2 8.82992V16.9999H4.81C5.57946 16.9776 6.33017 17.2396 6.91865 17.7358C7.50714 18.232 7.89211 18.9277 8 19.6899C8.03893 20.1081 7.98961 20.5298 7.85525 20.9277C7.72089 21.3257 7.50447 21.6909 7.22 21.9999C6.94041 22.3125 6.59839 22.563 6.21601 22.7353C5.83363 22.9075 5.41938 22.9977 5 22.9999H2V31.8299C2 32.3604 2.21071 32.8691 2.58579 33.2441C2.96086 33.6192 3.46957 33.8299 4 33.8299H27C27.5304 33.8299 28.0391 33.6192 28.4142 33.2441C28.7893 32.8691 29 32.3604 29 31.8299V25.9999H30C30.7018 26.0036 31.3965 25.8595 32.039 25.5769C32.6814 25.2944 33.2572 24.8797 33.7288 24.36C34.2005 23.8403 34.5574 23.2271 34.7764 22.5603C34.9954 21.8935 35.0716 21.1881 35 20.4899C34.8379 19.2345 34.2192 18.0827 33.2618 17.2545C32.3045 16.4263 31.0757 15.9797 29.81 15.9999Z" fill="#01070E"/>
<path d="M26.8504 1.13981L21.1304 10.9998C20.9973 11.1951 20.9209 11.4235 20.9097 11.6596C20.8984 11.8957 20.9527 12.1303 21.0666 12.3374C21.1806 12.5445 21.3496 12.716 21.555 12.8329C21.7604 12.9498 21.9942 13.0076 22.2304 12.9998H33.6804C33.9166 13.0076 34.1504 12.9498 34.3558 12.8329C34.5612 12.716 34.7302 12.5445 34.8441 12.3374C34.958 12.1303 35.0123 11.8957 35.0011 11.6596C34.9898 11.4235 34.9135 11.1951 34.7804 10.9998L29.0604 1.13981C28.9476 0.946869 28.7862 0.786825 28.5923 0.675603C28.3985 0.564381 28.1789 0.505859 27.9554 0.505859C27.7319 0.505859 27.5123 0.564381 27.3184 0.675603C27.1245 0.786825 26.9632 0.946869 26.8504 1.13981Z" fill="#01070E"/>
</svg>
