<svg width="36" height="36" viewBox="0 0 36 36" fill="none" xmlns="http://www.w3.org/2000/svg">
<path d="M26.1701 17.0001H19.0001V9.83008C19.0001 9.56486 18.8947 9.31051 18.7072 9.12297C18.5196 8.93544 18.2653 8.83008 18.0001 8.83008C17.7349 8.83008 17.4805 8.93544 17.293 9.12297C17.1054 9.31051 17.0001 9.56486 17.0001 9.83008V17.0001H9.83008C9.56486 17.0001 9.31051 17.1054 9.12297 17.293C8.93544 17.4805 8.83008 17.7349 8.83008 18.0001C8.83008 18.2653 8.93544 18.5196 9.12297 18.7072C9.31051 18.8947 9.56486 19.0001 9.83008 19.0001H17.0001V26.1701C17.0001 26.4353 17.1054 26.6896 17.293 26.8772C17.4805 27.0647 17.7349 27.1701 18.0001 27.1701C18.2653 27.1701 18.5196 27.0647 18.7072 26.8772C18.8947 26.6896 19.0001 26.4353 19.0001 26.1701V19.0001H26.1701C26.4353 19.0001 26.6896 18.8947 26.8772 18.7072C27.0647 18.5196 27.1701 18.2653 27.1701 18.0001C27.1701 17.7349 27.0647 17.4805 26.8772 17.293C26.6896 17.1054 26.4353 17.0001 26.1701 17.0001Z" fill="#01070E"/>
<path d="M18 2C14.8355 2 11.7421 2.93838 9.11088 4.69649C6.4797 6.45459 4.42894 8.95345 3.21793 11.8771C2.00693 14.8007 1.69008 18.0177 2.30744 21.1214C2.92481 24.2251 4.44866 27.0761 6.6863 29.3137C8.92394 31.5513 11.7749 33.0752 14.8786 33.6926C17.9823 34.3099 21.1993 33.9931 24.1229 32.7821C27.0466 31.5711 29.5454 29.5203 31.3035 26.8891C33.0616 24.2579 34 21.1645 34 18C34 13.7565 32.3143 9.68687 29.3137 6.68629C26.3131 3.68571 22.2435 2 18 2ZM18 32C15.2311 32 12.5243 31.1789 10.222 29.6406C7.91974 28.1022 6.12532 25.9157 5.06569 23.3576C4.00607 20.7994 3.72882 17.9845 4.26901 15.2687C4.80921 12.553 6.14258 10.0584 8.10051 8.1005C10.0584 6.14257 12.553 4.8092 15.2687 4.26901C17.9845 3.72881 20.7994 4.00606 23.3576 5.06569C25.9157 6.12531 28.1022 7.91973 29.6406 10.222C31.1789 12.5243 32 15.2311 32 18C32 21.713 30.525 25.274 27.8995 27.8995C25.274 30.525 21.713 32 18 32Z" fill="#01070E"/>
</svg>
