<svg width="36" height="36" viewBox="0 0 36 36" fill="none" xmlns="http://www.w3.org/2000/svg">
<path d="M26 32H10C8.4087 32 6.88258 31.3679 5.75736 30.2426C4.63214 29.1174 4 27.5913 4 26V10C4 8.4087 4.63214 6.88258 5.75736 5.75736C6.88258 4.63214 8.4087 4 10 4H26C27.5913 4 29.1174 4.63214 30.2426 5.75736C31.3679 6.88258 32 8.4087 32 10V26C32 27.5913 31.3679 29.1174 30.2426 30.2426C29.1174 31.3679 27.5913 32 26 32ZM10 6C8.93913 6 7.92172 6.42143 7.17157 7.17157C6.42143 7.92172 6 8.93913 6 10V26C6 27.0609 6.42143 28.0783 7.17157 28.8284C7.92172 29.5786 8.93913 30 10 30H26C27.0609 30 28.0783 29.5786 28.8284 28.8284C29.5786 28.0783 30 27.0609 30 26V10C30 8.93913 29.5786 7.92172 28.8284 7.17157C28.0783 6.42143 27.0609 6 26 6H10Z" fill="#01070E"/>
<path d="M26.56 15H15.44C15.2506 14.9987 15.0627 15.035 14.8874 15.1069C14.7121 15.1788 14.5528 15.2849 14.4188 15.4188C14.2849 15.5528 14.1788 15.7121 14.1069 15.8874C14.035 16.0627 13.9987 16.2506 14 16.44V24.56C13.9987 24.7495 14.035 24.9374 14.1069 25.1127C14.1788 25.288 14.2849 25.4473 14.4188 25.5812C14.5528 25.7152 14.7121 25.8212 14.8874 25.8931C15.0627 25.965 15.2506 26.0014 15.44 26H26.56C26.7495 26.0014 26.9374 25.965 27.1127 25.8931C27.288 25.8212 27.4473 25.7152 27.5812 25.5812C27.7152 25.4473 27.8212 25.288 27.8931 25.1127C27.965 24.9374 28.0014 24.7495 28 24.56V16.44C28.0014 16.2506 27.965 16.0627 27.8931 15.8874C27.8212 15.7121 27.7152 15.5528 27.5812 15.4188C27.4473 15.2849 27.288 15.1788 27.1127 15.1069C26.9374 15.035 26.7495 14.9987 26.56 15ZM26 24H16V17H26V24Z" fill="#01070E"/>
<path d="M12.4 19H10V12H20V13.4H22V11.4C21.9922 11.0243 21.8367 10.6667 21.5672 10.4047C21.2977 10.1427 20.9359 9.99733 20.56 10H9.44003C9.25056 9.99871 9.06271 10.035 8.8874 10.1069C8.71209 10.1788 8.55282 10.2849 8.41884 10.4188C8.28486 10.5528 8.17884 10.7121 8.10694 10.8874C8.03504 11.0627 7.99871 11.2506 8.00004 11.44V19.56C7.99871 19.7495 8.03504 19.9374 8.10694 20.1127C8.17884 20.288 8.28486 20.4473 8.41884 20.5812C8.55282 20.7152 8.71209 20.8212 8.8874 20.8931C9.06271 20.965 9.25056 21.0014 9.44003 21H12.44L12.4 19Z" fill="#01070E"/>
</svg>
