<svg width="36" height="36" viewBox="0 0 36 36" fill="none" xmlns="http://www.w3.org/2000/svg">
<path d="M27 33H5C4.46957 33 3.96086 32.7893 3.58579 32.4142C3.21071 32.0391 3 31.5304 3 31V9C3 8.46957 3.21071 7.96086 3.58579 7.58579C3.96086 7.21071 4.46957 7 5 7H15V9H5V31H27V21H29V31C29 31.5304 28.7893 32.0391 28.4142 32.4142C28.0391 32.7893 27.5304 33 27 33Z" fill="#01070E"/>
<path d="M18.0002 3C17.735 3 17.4806 3.10536 17.2931 3.29289C17.1055 3.48043 17.0002 3.73478 17.0002 4C17.0002 4.26522 17.1055 4.51957 17.2931 4.70711C17.4806 4.89464 17.735 5 18.0002 5H29.5902L15.7402 18.85C15.6355 18.9396 15.5505 19.05 15.4904 19.174C15.4304 19.2981 15.3967 19.4332 15.3914 19.5709C15.3861 19.7087 15.4093 19.846 15.4595 19.9743C15.5098 20.1026 15.5861 20.2192 15.6835 20.3167C15.781 20.4141 15.8975 20.4904 16.0258 20.5406C16.1542 20.5909 16.2915 20.6141 16.4292 20.6088C16.5669 20.6035 16.7021 20.5697 16.8261 20.5097C16.9502 20.4497 17.0605 20.3647 17.1502 20.26L31.0002 6.41V18C31.0002 18.2652 31.1055 18.5196 31.2931 18.7071C31.4806 18.8946 31.735 19 32.0002 19C32.2654 19 32.5197 18.8946 32.7073 18.7071C32.8948 18.5196 33.0002 18.2652 33.0002 18V3H18.0002Z" fill="#01070E"/>
</svg>
