<svg width="36" height="36" viewBox="0 0 36 36" fill="none" xmlns="http://www.w3.org/2000/svg">
<path d="M15.3405 26.4502C15.1905 26.3005 14.9873 26.2165 14.7755 26.2165C14.5637 26.2165 14.3605 26.3005 14.2105 26.4502C14.1352 26.5237 14.0754 26.6116 14.0345 26.7086C13.9937 26.8057 13.9727 26.9099 13.9727 27.0152C13.9727 27.1204 13.9937 27.2246 14.0345 27.3217C14.0754 27.4187 14.1352 27.5066 14.2105 27.5802L18.0005 31.0902L21.7405 27.6202C21.8191 27.55 21.8829 27.4648 21.9281 27.3695C21.9733 27.2743 21.999 27.171 22.0037 27.0657C22.0083 26.9604 21.9919 26.8552 21.9553 26.7564C21.9187 26.6575 21.8626 26.567 21.7905 26.4902C21.6405 26.3405 21.4373 26.2565 21.2255 26.2565C21.0137 26.2565 20.8105 26.3405 20.6605 26.4902L18.8005 28.1702V7.83016L20.6605 9.55016C20.7347 9.6336 20.8256 9.70059 20.9273 9.74679C21.029 9.79299 21.1392 9.81739 21.2509 9.81842C21.3626 9.81945 21.4732 9.79709 21.5757 9.75276C21.6782 9.70844 21.7703 9.64315 21.8461 9.56108C21.9218 9.47901 21.9796 9.382 22.0156 9.27627C22.0516 9.17055 22.065 9.05845 22.0551 8.94721C22.0451 8.83597 22.012 8.72805 21.9578 8.63038C21.9036 8.53272 21.8296 8.44748 21.7405 8.38016L18.0005 4.91016L14.2605 8.38016C14.1852 8.45374 14.1254 8.54162 14.0845 8.63865C14.0437 8.73567 14.0227 8.83988 14.0227 8.94516C14.0227 9.05043 14.0437 9.15464 14.0845 9.25167C14.1254 9.34869 14.1852 9.43658 14.2605 9.51016C14.4105 9.65977 14.6137 9.74379 14.8255 9.74379C15.0373 9.74379 15.2405 9.65977 15.3905 9.51016L17.2005 7.83016V28.1702L15.3405 26.4502Z" fill="#01070E"/>
<path d="M28 2H8C7.46957 2 6.96086 2.21071 6.58579 2.58579C6.21071 2.96086 6 3.46957 6 4V32C6 32.5304 6.21071 33.0391 6.58579 33.4142C6.96086 33.7893 7.46957 34 8 34H28C28.5304 34 29.0391 33.7893 29.4142 33.4142C29.7893 33.0391 30 32.5304 30 32V4C30 3.46957 29.7893 2.96086 29.4142 2.58579C29.0391 2.21071 28.5304 2 28 2ZM28 32H8V4H28V32Z" fill="#01070E"/>
</svg>
