<svg width="36" height="36" viewBox="0 0 36 36" fill="none" xmlns="http://www.w3.org/2000/svg">
<path d="M27.9007 29.9999H13.4007C14.5249 28.4494 15.0891 26.563 15.0007 24.6499V20.9999H19.3107C19.5759 20.9999 19.8303 20.8945 20.0178 20.707C20.2053 20.5194 20.3107 20.2651 20.3107 19.9999C20.3107 19.7346 20.2053 19.4803 20.0178 19.2928C19.8303 19.1052 19.5759 18.9999 19.3107 18.9999H15.0007V11.3099C14.9915 10.6184 15.1192 9.93192 15.3765 9.29004C15.6338 8.64815 16.0156 8.06355 16.4999 7.56993C16.9843 7.07631 17.5615 6.68344 18.1984 6.41397C18.8353 6.1445 19.5192 6.00376 20.2107 5.99987C20.9277 6.01077 21.6346 6.17013 22.2869 6.46788C22.9392 6.76564 23.5228 7.19533 24.0007 7.72987C24.1797 7.92613 24.4294 8.04323 24.6947 8.05542C24.9601 8.06761 25.2194 7.97389 25.4157 7.79487C25.612 7.61585 25.7291 7.36619 25.7413 7.10083C25.7535 6.83546 25.6597 6.57613 25.4807 6.37987C24.497 5.31107 23.2126 4.56531 21.7967 4.2408C20.3808 3.91629 18.8998 4.02825 17.5488 4.56194C16.1978 5.09563 15.0401 6.02602 14.2283 7.23057C13.4164 8.43511 12.9884 9.85732 13.0007 11.3099V18.9999H8.7207C8.45549 18.9999 8.20113 19.1052 8.0136 19.2928C7.82606 19.4803 7.7207 19.7346 7.7207 19.9999C7.7207 20.2651 7.82606 20.5194 8.0136 20.707C8.20113 20.8945 8.45549 20.9999 8.7207 20.9999H13.0007V24.6499C13.0007 29.3799 10.1207 29.9999 10.0007 29.9999C9.73549 30.0224 9.49009 30.1494 9.31849 30.3529C9.1469 30.5563 9.06316 30.8196 9.0857 31.0849C9.10825 31.3501 9.23522 31.5955 9.4387 31.7671C9.64218 31.9387 9.90549 32.0224 10.1707 31.9999H27.9007C28.1659 31.9999 28.4203 31.8945 28.6078 31.707C28.7953 31.5194 28.9007 31.2651 28.9007 30.9999C28.9007 30.7346 28.7953 30.4803 28.6078 30.2928C28.4203 30.1052 28.1659 29.9999 27.9007 29.9999Z" fill="#01070E"/>
</svg>
