<svg width="36" height="36" viewBox="0 0 36 36" fill="none" xmlns="http://www.w3.org/2000/svg">
<path d="M18 21C18.2652 21 18.5196 20.8946 18.7071 20.7071C18.8946 20.5196 19 20.2652 19 20V4C19 3.73478 18.8946 3.48043 18.7071 3.29289C18.5196 3.10536 18.2652 3 18 3C17.7348 3 17.4804 3.10536 17.2929 3.29289C17.1054 3.48043 17 3.73478 17 4V20C17 20.2652 17.1054 20.5196 17.2929 20.7071C17.4804 20.8946 17.7348 21 18 21Z" fill="#01070E"/>
<path d="M32.51 15.4001H30.44C31.1404 17.7377 31.1686 20.2252 30.5216 22.5782C29.8745 24.9311 28.5783 27.0544 26.7811 28.7052C24.9839 30.356 22.7584 31.4676 20.3591 31.9129C17.9598 32.3582 15.4836 32.1192 13.2137 31.2232C10.9439 30.3272 8.97209 28.8104 7.52384 26.8464C6.07559 24.8823 5.2094 22.5503 5.02435 20.117C4.83929 17.6837 5.34285 15.2475 6.47742 13.087C7.61198 10.9265 9.33175 9.12902 11.44 7.90007C11.6576 7.7617 11.8134 7.54458 11.8748 7.29406C11.9362 7.04355 11.8983 6.77901 11.7693 6.55571C11.6402 6.33241 11.4298 6.16762 11.1821 6.09575C10.9344 6.02389 10.6685 6.05052 10.44 6.17007C8.16924 7.49513 6.28665 9.39373 4.98088 11.6756C3.67511 13.9575 2.99202 16.5425 3.00007 19.1715C3.00812 21.8006 3.70703 24.3814 5.02675 26.6552C6.34648 28.9291 8.24066 30.8161 10.5195 32.1272C12.7983 33.4383 15.3817 34.1275 18.0107 34.1256C20.6398 34.1237 23.2222 33.4309 25.4991 32.1165C27.7761 30.8021 29.6675 28.9124 30.984 26.6366C32.3005 24.3609 32.9957 21.7791 33 19.1501C32.9966 17.8843 32.8319 16.6242 32.51 15.4001Z" fill="#01070E"/>
<path d="M26.8504 1.13981L21.1304 10.9998C20.9973 11.1951 20.9209 11.4235 20.9097 11.6596C20.8984 11.8957 20.9527 12.1303 21.0666 12.3374C21.1806 12.5445 21.3496 12.716 21.555 12.8329C21.7604 12.9498 21.9942 13.0076 22.2304 12.9998H33.6804C33.9166 13.0076 34.1504 12.9498 34.3558 12.8329C34.5612 12.716 34.7302 12.5445 34.8441 12.3374C34.958 12.1303 35.0123 11.8957 35.0011 11.6596C34.9898 11.4235 34.9135 11.1951 34.7804 10.9998L29.0604 1.13981C28.9476 0.946869 28.7862 0.786825 28.5923 0.675603C28.3985 0.564381 28.1789 0.505859 27.9554 0.505859C27.7319 0.505859 27.5123 0.564381 27.3184 0.675603C27.1245 0.786825 26.9632 0.946869 26.8504 1.13981Z" fill="#01070E"/>
</svg>
