<svg width="36" height="36" viewBox="0 0 36 36" fill="none" xmlns="http://www.w3.org/2000/svg">
<path d="M18 21C17.7348 21 17.4804 20.8946 17.2929 20.7071C17.1054 20.5196 17 20.2652 17 20V4C17 3.73478 17.1054 3.48043 17.2929 3.29289C17.4804 3.10536 17.7348 3 18 3C18.2652 3 18.5196 3.10536 18.7071 3.29289C18.8946 3.48043 19 3.73478 19 4V20C19 20.2652 18.8946 20.5196 18.7071 20.7071C18.5196 20.8946 18.2652 21 18 21Z" fill="#01070E"/>
<path d="M17.9997 34.1502C14.6929 34.1583 11.476 33.0735 8.84952 31.0644C6.223 29.0553 4.33399 26.2346 3.47626 23.041C2.61854 19.8473 2.84019 16.4598 4.10674 13.4051C5.37329 10.3505 7.61374 7.79994 10.4797 6.15022C10.7082 6.03067 10.9741 6.00405 11.2218 6.07591C11.4695 6.14777 11.6799 6.31256 11.809 6.53586C11.938 6.75917 11.9758 7.0237 11.9145 7.27422C11.8531 7.52474 11.6973 7.74186 11.4797 7.88022C9.00132 9.3111 7.06437 11.5198 5.96923 14.1637C4.87408 16.8076 4.68195 19.739 5.42262 22.5032C6.1633 25.2674 7.79539 27.71 10.0658 29.4521C12.3361 31.1943 15.1179 32.1386 17.9797 32.1386C20.8414 32.1386 23.6232 31.1943 25.8936 29.4521C28.1639 27.71 29.796 25.2674 30.5367 22.5032C31.2774 19.739 31.0852 16.8076 29.9901 14.1637C28.895 11.5198 26.958 9.3111 24.4797 7.88022C24.3602 7.81771 24.2545 7.73167 24.1691 7.62727C24.0837 7.52288 24.0204 7.40229 23.9828 7.27276C23.9452 7.14323 23.9342 7.00744 23.9505 6.87356C23.9667 6.73967 24.0099 6.61046 24.0774 6.4937C24.1449 6.37693 24.2353 6.27503 24.3432 6.19411C24.4511 6.11319 24.5743 6.05494 24.7053 6.02285C24.8363 5.99077 24.9724 5.98551 25.1055 6.0074C25.2386 6.02929 25.3658 6.07787 25.4797 6.15022C28.3456 7.79994 30.586 10.3505 31.8526 13.4051C33.1191 16.4598 33.3408 19.8473 32.4831 23.041C31.6253 26.2346 29.7363 29.0553 27.1098 31.0644C24.4833 33.0735 21.2665 34.1583 17.9597 34.1502H17.9997Z" fill="#01070E"/>
</svg>
