<svg width="36" height="36" viewBox="0 0 36 36" fill="none" xmlns="http://www.w3.org/2000/svg">
<path d="M29 9H27V5H9V9H7C5.93913 9 4.92172 9.42143 4.17157 10.1716C3.42143 10.9217 3 11.9391 3 13V24H6.92V22.09H5V13C5 12.4696 5.21071 11.9609 5.58579 11.5858C5.96086 11.2107 6.46957 11 7 11H29C29.5304 11 30.0391 11.2107 30.4142 11.5858C30.7893 11.9609 31 12.4696 31 13V22H29.08V24H33V13C33 11.9391 32.5786 10.9217 31.8284 10.1716C31.0783 9.42143 30.0609 9 29 9ZM25 9H11V7H25V9Z" fill="#01070E"/>
<path d="M28 18H8C7.73478 18 7.48043 18.1054 7.29289 18.2929C7.10536 18.4804 7 18.7348 7 19C7 19.2652 7.10536 19.5196 7.29289 19.7071C7.48043 19.8946 7.73478 20 8 20H9V32H27V20H28C28.2652 20 28.5196 19.8946 28.7071 19.7071C28.8946 19.5196 29 19.2652 29 19C29 18.7348 28.8946 18.4804 28.7071 18.2929C28.5196 18.1054 28.2652 18 28 18ZM25 30H11V20H25V30Z" fill="#01070E"/>
<path d="M29 13.04H27V15.04H29V13.04Z" fill="#01070E"/>
</svg>
