<svg width="36" height="36" viewBox="0 0 36 36" fill="none" xmlns="http://www.w3.org/2000/svg">
<path d="M5.6 4C5.17565 4 4.76869 4.16857 4.46863 4.46863C4.16857 4.76869 4 5.17565 4 5.6V12H12V4H5.6ZM10 10H6V6H10V10Z" fill="#01070E"/>
<path d="M4 30.4C4 30.8243 4.16857 31.2313 4.46863 31.5314C4.76869 31.8314 5.17565 32 5.6 32H12V24H4V30.4ZM6 26H10V30H6V26Z" fill="#01070E"/>
<path d="M24 32H30.4C30.8243 32 31.2313 31.8314 31.5314 31.5314C31.8314 31.2313 32 30.8243 32 30.4V24H24V32ZM26 26H30V30H26V26Z" fill="#01070E"/>
<path d="M30.4 4H24V12H32V5.6C32 5.17565 31.8314 4.76869 31.5314 4.46863C31.2313 4.16857 30.8243 4 30.4 4ZM30 10H26V6H30V10Z" fill="#01070E"/>
<path d="M20 10V8H16V12H18V10H20Z" fill="#01070E"/>
<path d="M14 12H12V14H14V12Z" fill="#01070E"/>
<path d="M18 14H14V16H18V14Z" fill="#01070E"/>
<path d="M20 6V8H22V4H14V8H16V6H20Z" fill="#01070E"/>
<path d="M6 14H4V18H6V14Z" fill="#01070E"/>
<path d="M12 16V18H10V14H8V18H6V20H4V22H8V20H10V22H12V20H14V16H12Z" fill="#01070E"/>
<path d="M20 16H22V18H24V16H26V14H22V10H20V12H18V14H20V16Z" fill="#01070E"/>
<path d="M18 30H14V32H22V30H20V28H18V30Z" fill="#01070E"/>
<path d="M22 20V18H20V16H18V18H16V20H18V22H20V20H22Z" fill="#01070E"/>
<path d="M32 20H30V22H32V20Z" fill="#01070E"/>
<path d="M28 20H22V22H28V20Z" fill="#01070E"/>
<path d="M30 14H28V16H26V18H28V20H30V18H32V16H30V14Z" fill="#01070E"/>
<path d="M22 22H20V28H22V22Z" fill="#01070E"/>
<path d="M14 28H16V26H18V24H16V20H14V28Z" fill="#01070E"/>
</svg>
