<svg width="36" height="36" viewBox="0 0 36 36" fill="none" xmlns="http://www.w3.org/2000/svg">
<path d="M24 17H10V19H24V17Z" fill="#01070E"/>
<path d="M8 25H6V27H8V25Z" fill="#01070E"/>
<path d="M24 25H10V27H24V25Z" fill="#01070E"/>
<path d="M18.64 11C18.6997 10.6131 18.8212 10.2383 19 9.89L19.56 9H10V11H18.64Z" fill="#01070E"/>
<path d="M33.68 15.4H32V21H4V15H20.58C19.9221 14.6874 19.3721 14.1862 19 13.56C18.8976 13.3811 18.8106 13.1937 18.74 13H4V7H20.71L21.86 5H4C3.46957 5 2.96086 5.21071 2.58579 5.58579C2.21071 5.96086 2 6.46957 2 7V29C2 29.5304 2.21071 30.0391 2.58579 30.4142C2.96086 30.7893 3.46957 31 4 31H32C32.5304 31 33.0391 30.7893 33.4142 30.4142C33.7893 30.0391 34 29.5304 34 29V15.38L33.68 15.4ZM4 29V23H32V29H4Z" fill="#01070E"/>
<path d="M26.8504 1.13981L21.1304 10.9998C20.9973 11.1951 20.9209 11.4235 20.9097 11.6596C20.8984 11.8957 20.9527 12.1303 21.0666 12.3374C21.1806 12.5445 21.3496 12.716 21.555 12.8329C21.7604 12.9498 21.9942 13.0076 22.2304 12.9998H33.6804C33.9166 13.0076 34.1504 12.9498 34.3558 12.8329C34.5612 12.716 34.7302 12.5445 34.8441 12.3374C34.958 12.1303 35.0123 11.8957 35.0011 11.6596C34.9898 11.4235 34.9135 11.1951 34.7804 10.9998L29.0604 1.13981C28.9476 0.946869 28.7862 0.786825 28.5923 0.675603C28.3985 0.564381 28.1789 0.505859 27.9554 0.505859C27.7319 0.505859 27.5123 0.564381 27.3184 0.675603C27.1245 0.786825 26.9632 0.946869 26.8504 1.13981Z" fill="#01070E"/>
</svg>
