<svg width="36" height="36" viewBox="0 0 36 36" fill="none" xmlns="http://www.w3.org/2000/svg">
<path d="M8 9H6V11H8V9Z" fill="#01070E"/>
<path d="M24 9H10V11H24V9Z" fill="#01070E"/>
<path d="M8 17H6V19H8V17Z" fill="#01070E"/>
<path d="M24 17H10V19H24V17Z" fill="#01070E"/>
<path d="M32 5H4C3.46957 5 2.96086 5.21071 2.58579 5.58579C2.21071 5.96086 2 6.46957 2 7V29C2 29.5304 2.21071 30.0391 2.58579 30.4142C2.96086 30.7893 3.46957 31 4 31H32C32.5304 31 33.0391 30.7893 33.4142 30.4142C33.7893 30.0391 34 29.5304 34 29V7C34 6.46957 33.7893 5.96086 33.4142 5.58579C33.0391 5.21071 32.5304 5 32 5ZM4 7H32V13H4V7ZM4 15H32V21H4V15ZM4 29V23H32V29H4Z" fill="#01070E"/>
<path d="M8 25H6V27H8V25Z" fill="#01070E"/>
<path d="M24 25H10V27H24V25Z" fill="#01070E"/>
</svg>
