<svg width="36" height="36" viewBox="0 0 36 36" fill="none" xmlns="http://www.w3.org/2000/svg">
<path d="M32 18C32 25.7 25.7 32 18 32C10.3 32 4 25.7 4 18C4 10.6 9.7 4.5 17.1 4V7.7C11.4 8.2 7.2 13.2 7.7 18.9C8.2 24.6 13.2 28.8 18.9 28.3C24.2 27.8 28.3 23.4 28.3 18H26.3C26.3 22.6 22.6 26.3 18 26.3C13.4 26.3 9.7 22.6 9.7 18C9.7 13.8 12.8 10.2 17 9.7V14.1C15.2 14.5 13.9 16.1 13.9 18C13.9 20.2 15.7 22 17.9 22C20.1 22 21.9 20.2 21.9 18C21.9 16.2 20.6 14.6 18.9 14.2V2.1C18.6 2 18.3 2 18 2C9.2 2 2 9.2 2 18C2 26.8 9.2 34 18 34C26.8 34 34 26.8 34 18H32ZM20 18C20 19.1 19.1 20 18 20C16.9 20 16 19.1 16 18C16 16.9 16.9 16 18 16C19.1 16 20 16.9 20 18Z" fill="#01070E"/>
</svg>
