<svg width="36" height="36" viewBox="0 0 36 36" fill="none" xmlns="http://www.w3.org/2000/svg">
<path d="M6.4 17.3999C6.6 17.4999 6.7 17.4999 6.9 17.4999C7.1 17.4999 7.3 17.3999 7.4 17.3999L14.4 13.2999C14.7 13.0999 14.9 12.7999 14.9 12.3999C14.9 11.9999 14.7 11.6999 14.4 11.4999L11.9 9.99991L14 6.19991C14.4 5.49991 15 4.89991 15.7 4.49991C17.7 3.39991 20.2 4.19991 21.3 6.19991C21.6 6.69991 22.2 6.79991 22.7 6.49991C22.7 6.49991 22.7 6.49991 22.8 6.49991C23.2 6.19991 23.3 5.59991 23.1 5.19991C22.5 4.19991 21.7 3.29991 20.7 2.79991C17.7 1.19991 14 2.19991 12.4 5.19991L9.6 9.89991C9.3 10.3999 9.5 10.9999 9.9 11.2999L11.9 12.4999L7.9 14.8999V8.19991C7.9 7.59991 7.5 7.19991 6.9 7.19991C6.4 7.29991 6 7.69991 6 8.29991V16.5999C6 16.8999 6.2 17.1999 6.4 17.3999Z" fill="#01070E"/>
<path d="M32.1 21L28.6 14.8C28.5 14.6 28.2 14.4 28 14.3C27.7 14.2 27.5 14.3 27.2 14.4L25 15.7V11L30.5 14.3C30.6 14.3 30.6 14.4 30.7 14.4C31.2 14.6 31.8 14.4 32 13.9C32.2 13.4 32 12.8 31.5 12.6L24.5 8.4C24.2 8.2 23.8 8.2 23.5 8.4C23.1 8.5 23 8.8 23 9.2V17.5C23 17.9 23.1 18.3 23.4 18.5C23.7 18.7 24.1 18.7 24.4 18.5L27.3 16.8L30.3 22.1C31 23.4 31 24.9 30.3 26.2C29.7 27.4 28.4 28.1 27.1 28.1H26.2C25.7 28.1 25 28.5 25 29.1C25.1 29.7 25.6 30.1 26.2 30.1H27.1C29.2 30.1 31.1 29 32.1 27.2C33.2 25.2 33.2 22.9 32.1 21Z" fill="#01070E"/>
<path d="M22.3992 28.2002L15.3992 24.0002C15.0992 23.8002 14.6992 23.8002 14.3992 24.0002C14.0992 24.2002 13.9992 24.5002 13.9992 24.9002V28.2002H9.09922C7.59922 28.1002 6.19922 27.3002 5.49922 25.9002C4.69922 24.5002 4.69922 22.7002 5.49922 21.3002C5.79922 20.8002 5.59922 20.2002 5.09922 19.9002C4.59922 19.6002 3.99922 19.8002 3.69922 20.3002C2.49922 22.4002 2.59922 24.9002 3.79922 26.9002C4.89922 28.8002 6.99922 30.0002 9.19922 30.0002H14.9992C15.5992 30.0002 15.9992 29.6002 15.9992 29.0002V26.6002L19.9992 29.0002L14.3992 32.3002C14.0992 32.5002 13.8992 32.8002 13.8992 33.2002C13.8992 33.8002 14.3992 34.2002 14.8992 34.2002C15.0992 34.2002 15.1992 34.1002 15.3992 34.0002L22.3992 29.8002C22.5992 29.7002 22.6992 29.6002 22.7992 29.4002C23.0992 29.0002 22.8992 28.4002 22.3992 28.2002Z" fill="#01070E"/>
</svg>
