<svg width="36" height="36" viewBox="0 0 36 36" fill="none" xmlns="http://www.w3.org/2000/svg">
<path d="M24.0005 4.21976C23.8122 4.03278 23.5573 3.92827 23.2919 3.92921C23.0266 3.93014 22.7724 4.03646 22.5855 4.22476C22.3985 4.41307 22.294 4.66793 22.2949 4.9333C22.2959 5.19866 22.4022 5.45278 22.5905 5.63976L28.1505 11.1298H15.1505C12.6469 11.0777 10.2006 11.8814 8.2157 13.408C6.23081 14.9346 4.82618 17.0928 4.23395 19.5258C3.64173 21.9588 3.89735 24.5211 4.95857 26.7892C6.0198 29.0573 7.8231 30.8954 10.0705 31.9998C10.3118 32.1231 10.5923 32.1455 10.8501 32.062C11.108 31.9786 11.3221 31.7961 11.4455 31.5548C11.5688 31.3134 11.5912 31.033 11.5077 30.7751C11.4243 30.5172 11.2418 30.3031 11.0005 30.1798C9.50841 29.4395 8.25103 28.2998 7.36827 26.8874C6.48551 25.475 6.01201 23.8453 6.00047 22.1798C6.02161 19.7768 6.99444 17.4802 8.70579 15.7932C10.4171 14.1062 12.7275 13.1664 15.1305 13.1798H28.1305L22.5905 18.6598C22.4778 18.8542 22.4339 19.081 22.4658 19.3035C22.4978 19.526 22.6038 19.7312 22.7668 19.8861C22.9297 20.0409 23.1401 20.1364 23.3639 20.157C23.5877 20.1776 23.812 20.1222 24.0005 19.9998L32.0005 12.0898L24.0005 4.21976Z" fill="#01070E"/>
</svg>
