<svg width="36" height="36" viewBox="0 0 36 36" fill="none" xmlns="http://www.w3.org/2000/svg">
<path d="M22.3991 11.6498C22.3991 11.9389 22.5139 12.2162 22.7183 12.4206C22.9227 12.625 23.2 12.7398 23.4891 12.7398H34.4291V1.80984C34.4291 1.51943 34.3137 1.24091 34.1083 1.03556C33.903 0.83021 33.6245 0.714844 33.3341 0.714844C33.0436 0.714844 32.7651 0.83021 32.5598 1.03556C32.3544 1.24091 32.2391 1.51943 32.2391 1.80984V8.94984C30.1885 5.94707 27.1987 3.71038 23.7392 2.59099C20.2797 1.4716 16.5464 1.53292 13.1255 2.76532C9.70458 3.99772 6.78987 6.3314 4.83906 9.39989C2.88825 12.4684 2.01182 16.0979 2.3474 19.7185C2.68298 23.3391 4.21156 26.7457 6.69311 29.4034C9.17465 32.0611 12.4686 33.8193 16.0577 34.402C19.6469 34.9846 23.3279 34.3587 26.5227 32.6226C29.7176 30.8864 32.2453 28.1383 33.7091 24.8098C33.8174 24.5399 33.8165 24.2384 33.7066 23.9692C33.5966 23.6999 33.3863 23.4839 33.1199 23.367C32.8536 23.2501 32.5522 23.2414 32.2796 23.3427C32.0069 23.444 31.7844 23.6474 31.6591 23.9098C30.3888 26.8029 28.1886 29.1888 25.4077 30.689C22.6269 32.1891 19.4247 32.7174 16.3093 32.1902C13.1939 31.6629 10.3439 30.1103 8.21155 27.7786C6.07918 25.447 4.78665 22.47 4.53909 19.32C4.29153 16.1701 5.10311 13.0277 6.84504 10.3915C8.58698 7.7554 11.1595 5.77658 14.1542 4.76912C17.1489 3.76166 20.3944 3.78328 23.3755 4.83055C26.3565 5.87782 28.9024 7.89074 30.6091 10.5498H23.4991C23.3542 10.5485 23.2106 10.576 23.0765 10.6309C22.9425 10.6857 22.8207 10.7666 22.7183 10.8691C22.6159 10.9715 22.5349 11.0933 22.4801 11.2273C22.4253 11.3614 22.3977 11.505 22.3991 11.6498Z" fill="#01070E"/>
</svg>
