<svg width="36" height="36" viewBox="0 0 36 36" fill="none" xmlns="http://www.w3.org/2000/svg">
<path d="M19.6099 18.0001L24.4699 13.1401C24.6338 12.9488 24.7194 12.7027 24.7096 12.4511C24.6999 12.1994 24.5956 11.9607 24.4175 11.7826C24.2394 11.6045 24.0007 11.5001 23.749 11.4904C23.4973 11.4807 23.2512 11.5663 23.0599 11.7301L18.1999 16.5401L13.3099 11.6501C13.1186 11.4863 12.8726 11.4007 12.6209 11.4104C12.3692 11.4201 12.1305 11.5245 11.9524 11.7026C11.7743 11.8807 11.6699 12.1194 11.6602 12.3711C11.6505 12.6227 11.7361 12.8688 11.8999 13.0601L16.7799 18.0001L11.9999 22.7201C11.8953 22.8098 11.8102 22.9201 11.7502 23.0442C11.6902 23.1682 11.6565 23.3034 11.6511 23.4411C11.6458 23.5788 11.669 23.7161 11.7193 23.8444C11.7696 23.9728 11.8458 24.0893 11.9433 24.1868C12.0407 24.2842 12.1573 24.3605 12.2856 24.4108C12.4139 24.461 12.5513 24.4842 12.689 24.4789C12.8267 24.4736 12.9618 24.4399 13.0859 24.3799C13.21 24.3198 13.3203 24.2348 13.4099 24.1301L18.1799 19.3601L22.9199 24.1001C23.1112 24.264 23.3573 24.3496 23.609 24.3398C23.8607 24.3301 24.0994 24.2258 24.2775 24.0477C24.4556 23.8696 24.5599 23.6309 24.5696 23.3792C24.5794 23.1275 24.4938 22.8814 24.3299 22.6901L19.6099 18.0001Z" fill="#01070E"/>
<path d="M18 34C14.8355 34 11.7421 33.0616 9.11088 31.3035C6.4797 29.5454 4.42894 27.0466 3.21793 24.1229C2.00693 21.1993 1.69008 17.9823 2.30744 14.8786C2.92481 11.7749 4.44866 8.92394 6.6863 6.6863C8.92394 4.44866 11.7749 2.92481 14.8786 2.30744C17.9823 1.69008 21.1993 2.00693 24.1229 3.21793C27.0466 4.42894 29.5454 6.4797 31.3035 9.11088C33.0616 11.7421 34 14.8355 34 18C34 22.2435 32.3143 26.3131 29.3137 29.3137C26.3131 32.3143 22.2435 34 18 34ZM18 4.00001C15.2311 4.00001 12.5243 4.82109 10.222 6.35943C7.91974 7.89777 6.12532 10.0843 5.06569 12.6424C4.00607 15.2006 3.72882 18.0155 4.26901 20.7313C4.80921 23.447 6.14258 25.9416 8.10051 27.8995C10.0584 29.8574 12.553 31.1908 15.2687 31.731C17.9845 32.2712 20.7994 31.9939 23.3576 30.9343C25.9157 29.8747 28.1022 28.0803 29.6406 25.778C31.1789 23.4757 32 20.7689 32 18C32 14.287 30.525 10.726 27.8995 8.10051C25.274 5.475 21.713 4.00001 18 4.00001Z" fill="#01070E"/>
</svg>
