<svg width="36" height="36" viewBox="0 0 36 36" fill="none" xmlns="http://www.w3.org/2000/svg">
<path d="M6 14.15C6.00528 13.3127 6.34159 12.5115 6.93551 11.9214C7.52943 11.3312 8.33272 11 9.17 11H28.4L24.12 15.54C24.03 15.6359 23.9599 15.7485 23.9134 15.8715C23.867 15.9945 23.8453 16.1254 23.8494 16.2568C23.8536 16.3882 23.8836 16.5175 23.9378 16.6373C23.9919 16.7571 24.0691 16.865 24.165 16.955C24.2609 17.0449 24.3735 17.1151 24.4965 17.1616C24.6195 17.208 24.7504 17.2297 24.8818 17.2255C25.0132 17.2214 25.1425 17.1913 25.2623 17.1372C25.3821 17.0831 25.49 17.0059 25.58 16.91L32.09 9.99999L25.58 3.08999C25.49 2.99412 25.3821 2.91691 25.2623 2.86277C25.1425 2.80863 25.0132 2.77861 24.8818 2.77443C24.7504 2.77025 24.6195 2.792 24.4965 2.83842C24.3735 2.88484 24.2609 2.95503 24.165 3.04499C24.0691 3.13494 23.9919 3.2429 23.9378 3.36269C23.8836 3.48249 23.8536 3.61177 23.8494 3.74317C23.8453 3.87456 23.867 4.00549 23.9134 4.12849C23.9599 4.25148 24.03 4.36412 24.12 4.45999L28.4 8.99999H9.17C7.80229 8.99998 6.4903 9.54193 5.52131 10.5072C4.55232 11.4724 4.00529 12.7823 4 14.15V20.25L6 18.13V14.15Z" fill="#01070E"/>
<path d="M30.0002 21.85C29.9949 22.6873 29.6586 23.4884 29.0646 24.0786C28.4707 24.6688 27.6674 25 26.8302 25H7.60016L11.8802 20.46C11.9701 20.3641 12.0403 20.2515 12.0867 20.1285C12.1331 20.0055 12.1549 19.8746 12.1507 19.7432C12.1465 19.6118 12.1165 19.4825 12.0624 19.3627C12.0082 19.2429 11.931 19.135 11.8352 19.045C11.7393 18.955 11.6266 18.8849 11.5037 18.8384C11.3807 18.792 11.2497 18.7703 11.1183 18.7744C10.9869 18.7786 10.8577 18.8086 10.7379 18.8628C10.6181 18.9169 10.5101 18.9941 10.4202 19.09L3.91016 26L10.4202 32.91C10.5101 33.0059 10.6181 33.0831 10.7379 33.1372C10.8577 33.1914 10.9869 33.2214 11.1183 33.2256C11.2497 33.2297 11.3807 33.208 11.5037 33.1616C11.6266 33.1151 11.7393 33.045 11.8352 32.955C11.931 32.865 12.0082 32.7571 12.0624 32.6373C12.1165 32.5175 12.1465 32.3882 12.1507 32.2568C12.1549 32.1254 12.1331 31.9945 12.0867 31.8715C12.0403 31.7485 11.9701 31.6359 11.8802 31.54L7.60016 27H26.8302C28.1979 27 29.5099 26.4581 30.4788 25.4928C31.4478 24.5276 31.9949 23.2177 32.0002 21.85V15.75L30.0002 17.87V21.85Z" fill="#01070E"/>
</svg>
