<svg width="36" height="36" viewBox="0 0 36 36" fill="none" xmlns="http://www.w3.org/2000/svg">
<path d="M18.9997 27.27C19.2649 27.27 19.5193 27.1646 19.7068 26.9771C19.8943 26.7896 19.9997 26.5352 19.9997 26.27V14C19.9997 13.7348 19.8943 13.4804 19.7068 13.2929C19.5193 13.1054 19.2649 13 18.9997 13C18.6236 13.0217 18.2529 13.0992 17.8997 13.23L15.8997 13.85C15.7017 13.8939 15.5237 14.0021 15.3935 14.1576C15.2633 14.3131 15.1881 14.5073 15.1797 14.71C15.1849 14.9399 15.2799 15.1586 15.4444 15.3194C15.6089 15.4801 15.8297 15.5701 16.0597 15.57C16.2062 15.5651 16.3512 15.5381 16.4897 15.49L17.9997 15.07V26.27C17.9997 26.5352 18.105 26.7896 18.2926 26.9771C18.4801 27.1646 18.7345 27.27 18.9997 27.27Z" fill="#01070E"/>
<path d="M18.0609 4.99996H11.3609L14.2809 2.35996C14.4595 2.17795 14.5618 1.9346 14.5669 1.67968C14.572 1.42475 14.4795 1.17751 14.3084 0.988494C14.1372 0.799482 13.9004 0.682978 13.6462 0.662805C13.392 0.642631 13.1397 0.720311 12.9409 0.879963L7.32092 5.99996L12.9409 11C13.1243 11.1667 13.3631 11.2593 13.6109 11.26C13.7505 11.2596 13.8884 11.2301 14.0158 11.1733C14.1433 11.1164 14.2574 11.0336 14.3509 10.93C14.4402 10.8325 14.5093 10.7182 14.5541 10.5938C14.599 10.4695 14.6187 10.3374 14.6122 10.2054C14.6057 10.0733 14.5731 9.94384 14.5162 9.82448C14.4593 9.70512 14.3794 9.59822 14.2809 9.50996L11.4609 6.99996H18.0609C20.1413 7.0004 22.1844 7.55175 23.9826 8.59795C25.7807 9.64415 27.2697 11.1479 28.2982 12.9562C29.3267 14.7646 29.8579 16.813 29.8379 18.8933C29.8179 20.9735 29.2473 23.0114 28.1843 24.7996C27.1212 26.5878 25.6035 28.0626 23.7856 29.0741C21.9676 30.0855 19.9143 30.5974 17.8343 30.5578C15.7543 30.5182 13.7219 29.9285 11.9438 28.8487C10.1656 27.7688 8.70518 26.2373 7.71092 24.41C7.56043 24.2373 7.35521 24.1215 7.12959 24.082C6.90397 24.0424 6.67162 24.0816 6.47139 24.1928C6.27116 24.3041 6.11518 24.4807 6.02955 24.6931C5.94391 24.9056 5.93381 25.141 6.00092 25.36C7.16412 27.5003 8.87389 29.294 10.956 30.5583C13.0382 31.8227 15.4183 32.5125 17.8538 32.5575C20.2894 32.6025 22.6933 32.0011 24.8208 30.8145C26.9482 29.6279 28.7231 27.8986 29.9645 25.8027C31.206 23.7068 31.8697 21.3193 31.888 18.8834C31.9063 16.4475 31.2786 14.0503 30.0687 11.936C28.8589 9.82171 27.1102 8.06591 25.0009 6.84749C22.8915 5.62906 20.4969 4.99157 18.0609 4.99996Z" fill="#01070E"/>
</svg>
