<svg width="36" height="36" viewBox="0 0 36 36" fill="none" xmlns="http://www.w3.org/2000/svg">
<path d="M17.4596 26.2199C17.6458 26.22 17.8302 26.1828 18.0019 26.1107C18.1736 26.0386 18.3292 25.9329 18.4596 25.7999L24.0496 20.2399C24.3155 19.9747 24.4663 19.6155 24.4696 19.2399C24.4632 18.865 24.3128 18.507 24.0496 18.2399L18.4596 12.6799C18.2602 12.481 18.0065 12.3454 17.7304 12.2901C17.4542 12.2347 17.1679 12.2622 16.9073 12.369C16.6466 12.4758 16.4234 12.6572 16.2655 12.8904C16.1075 13.1236 16.022 13.3983 16.0196 13.6799V24.7899C16.0169 25.0729 16.0994 25.35 16.2563 25.5854C16.4133 25.8208 16.6374 26.0036 16.8996 26.1099C17.0778 26.1812 17.2677 26.2185 17.4596 26.2199ZM17.6196 14.0599L22.8096 19.2199L17.6196 24.3899V14.0599Z" fill="#01070E"/>
<path d="M18.0609 4.99996H11.3609L14.2809 2.35996C14.4595 2.17795 14.5618 1.9346 14.5669 1.67968C14.572 1.42475 14.4795 1.17751 14.3084 0.988494C14.1372 0.799482 13.9004 0.682978 13.6462 0.662805C13.392 0.642631 13.1397 0.720311 12.9409 0.879963L7.32092 5.99996L12.9409 11C13.1243 11.1667 13.3631 11.2593 13.6109 11.26C13.7505 11.2596 13.8884 11.2301 14.0158 11.1733C14.1433 11.1164 14.2574 11.0336 14.3509 10.93C14.4402 10.8325 14.5093 10.7182 14.5541 10.5938C14.599 10.4695 14.6187 10.3374 14.6122 10.2054C14.6057 10.0733 14.5731 9.94384 14.5162 9.82448C14.4593 9.70512 14.3794 9.59822 14.2809 9.50996L11.4609 6.99996H18.0609C20.1413 7.0004 22.1844 7.55175 23.9826 8.59795C25.7807 9.64415 27.2697 11.1479 28.2982 12.9562C29.3267 14.7646 29.8579 16.813 29.8379 18.8933C29.8179 20.9735 29.2473 23.0114 28.1843 24.7996C27.1212 26.5878 25.6035 28.0626 23.7856 29.0741C21.9676 30.0855 19.9143 30.5974 17.8343 30.5578C15.7543 30.5182 13.7219 29.9285 11.9438 28.8487C10.1656 27.7688 8.70518 26.2373 7.71092 24.41C7.56043 24.2373 7.35521 24.1215 7.12959 24.082C6.90397 24.0424 6.67162 24.0816 6.47139 24.1928C6.27116 24.3041 6.11518 24.4807 6.02955 24.6931C5.94391 24.9056 5.93381 25.141 6.00092 25.36C7.16412 27.5003 8.87389 29.294 10.956 30.5583C13.0382 31.8227 15.4183 32.5125 17.8538 32.5575C20.2894 32.6025 22.6933 32.0011 24.8208 30.8145C26.9482 29.6279 28.7231 27.8986 29.9645 25.8027C31.206 23.7068 31.8697 21.3193 31.888 18.8834C31.9063 16.4475 31.2786 14.0503 30.0687 11.936C28.8589 9.82171 27.1102 8.06591 25.0009 6.84749C22.8915 5.62906 20.4969 4.99157 18.0609 4.99996Z" fill="#01070E"/>
</svg>
