<svg width="36" height="36" viewBox="0 0 36 36" fill="none" xmlns="http://www.w3.org/2000/svg">
<path d="M29.43 26.3398C29.1006 26.3403 28.7806 26.2301 28.5213 26.0271C28.262 25.824 28.0784 25.5397 28 25.2198L24.86 13.1498L21.74 25.2198C21.6576 25.5413 21.4702 25.8261 21.2075 26.029C20.9448 26.2319 20.6219 26.3412 20.29 26.3398C19.9564 26.3435 19.6312 26.2351 19.3665 26.0321C19.1017 25.829 18.9128 25.543 18.83 25.2198L15.71 13.1498L12.6 25.2198C12.5117 25.5378 12.3216 25.8182 12.0589 26.018C11.7961 26.2178 11.4751 26.3259 11.145 26.3259C10.8149 26.3259 10.4939 26.2178 10.2311 26.018C9.96835 25.8182 9.77828 25.5378 9.69 25.2198L6.57 13.1498L5.22 18.3698H2C1.73478 18.3698 1.48043 18.2644 1.29289 18.0769C1.10536 17.8893 1 17.635 1 17.3698C1 17.1045 1.10536 16.8502 1.29289 16.6627C1.48043 16.4751 1.73478 16.3698 2 16.3698H3.67L5.12 10.7798C5.20083 10.4574 5.38782 10.1716 5.65085 9.96841C5.91389 9.76524 6.23765 9.65652 6.57 9.65976C6.89937 9.65925 7.21938 9.76937 7.47868 9.97247C7.73799 10.1756 7.92158 10.4599 8 10.7798L11.12 22.8498L14.24 10.7798C14.3224 10.4582 14.5098 10.1734 14.7725 9.97055C15.0352 9.76766 15.3581 9.65828 15.69 9.65976C16.0236 9.65603 16.3488 9.76438 16.6136 9.96746C16.8783 10.1705 17.0672 10.4566 17.15 10.7798L20.27 22.8498L23.39 10.7798C23.4747 10.4599 23.6629 10.1769 23.9251 9.9751C24.1874 9.77326 24.5091 9.66382 24.84 9.66382C25.1709 9.66382 25.4926 9.77326 25.7549 9.9751C26.0171 10.1769 26.2053 10.4599 26.29 10.7798L29.41 22.8498L30.76 17.6298H34C34.2652 17.6298 34.5196 17.7351 34.7071 17.9227C34.8946 18.1102 35 18.3645 35 18.6298C35 18.895 34.8946 19.1493 34.7071 19.3369C34.5196 19.5244 34.2652 19.6298 34 19.6298H32.33L30.88 25.2198C30.7992 25.5421 30.6122 25.8279 30.3491 26.0311C30.0861 26.2343 29.7623 26.343 29.43 26.3398Z" fill="#01070E"/>
</svg>
