<svg width="36" height="36" viewBox="0 0 36 36" fill="none" xmlns="http://www.w3.org/2000/svg">
<path d="M19 4C18.7348 4 18.4804 4.10536 18.2929 4.29289C18.1054 4.48043 18 4.73478 18 5C18 5.26522 18.1054 5.51957 18.2929 5.70711C18.4804 5.89464 18.7348 6 19 6H28.59L19.34 15.25C19.2353 15.3396 19.1503 15.45 19.0903 15.574C19.0303 15.6981 18.9965 15.8332 18.9912 15.9709C18.9859 16.1087 19.0091 16.246 19.0594 16.3743C19.1096 16.5026 19.1859 16.6192 19.2833 16.7167C19.3808 16.8141 19.4974 16.8904 19.6257 16.9406C19.754 16.9909 19.8913 17.0141 20.0291 17.0088C20.1668 17.0035 20.3019 16.9697 20.426 16.9097C20.55 16.8497 20.6604 16.7647 20.75 16.66L30 7.41V17C30 17.2652 30.1054 17.5196 30.2929 17.7071C30.4804 17.8946 30.7348 18 31 18C31.2652 18 31.5196 17.8946 31.7071 17.7071C31.8946 17.5196 32 17.2652 32 17V4H19Z" fill="#01070E"/>
<path d="M4 19C4 18.7348 4.10536 18.4804 4.29289 18.2929C4.48043 18.1054 4.73478 18 5 18C5.26522 18 5.51957 18.1054 5.70711 18.2929C5.89464 18.4804 6 18.7348 6 19V28.59L15.25 19.34C15.3396 19.2353 15.45 19.1503 15.574 19.0903C15.6981 19.0303 15.8332 18.9965 15.9709 18.9912C16.1087 18.9859 16.246 19.0091 16.3743 19.0594C16.5026 19.1096 16.6192 19.1859 16.7167 19.2833C16.8141 19.3808 16.8904 19.4974 16.9406 19.6257C16.9909 19.754 17.0141 19.8913 17.0088 20.0291C17.0035 20.1668 16.9697 20.3019 16.9097 20.426C16.8497 20.55 16.7647 20.6604 16.66 20.75L7.41 30H17C17.2652 30 17.5196 30.1054 17.7071 30.2929C17.8946 30.4804 18 30.7348 18 31C18 31.2652 17.8946 31.5196 17.7071 31.7071C17.5196 31.8946 17.2652 32 17 32H4V19Z" fill="#01070E"/>
</svg>
