<svg width="36" height="36" viewBox="0 0 36 36" fill="none" xmlns="http://www.w3.org/2000/svg">
<path d="M18 2C14.8355 2 11.7421 2.93838 9.11088 4.69649C6.4797 6.45459 4.42894 8.95345 3.21793 11.8771C2.00693 14.8007 1.69008 18.0177 2.30744 21.1214C2.92481 24.2251 4.44866 27.0761 6.6863 29.3137C8.92394 31.5513 11.7749 33.0752 14.8786 33.6926C17.9823 34.3099 21.1993 33.9931 24.1229 32.7821C27.0466 31.5711 29.5454 29.5203 31.3035 26.8891C33.0616 24.2579 34 21.1645 34 18C34 13.7565 32.3143 9.68687 29.3137 6.68629C26.3131 3.68571 22.2435 2 18 2ZM4.00001 18C4.04367 14.4033 5.47001 10.9614 7.98324 8.38806C10.4965 5.81474 13.9037 4.30749 17.4984 4.17888C21.0931 4.05027 24.5993 5.31017 27.29 7.69729C29.9807 10.0844 31.6494 13.4156 31.95 17H17.49L8.30001 28.07C6.94344 26.7665 5.8635 25.203 5.12469 23.4728C4.38589 21.7426 4.00338 19.8813 4.00001 18ZM18 32C15.0687 31.9985 12.2128 31.0711 9.84001 29.35L18.43 19H31.95C31.6973 22.5284 30.1183 25.8304 27.5304 28.2421C24.9424 30.6538 21.5375 31.9964 18 32Z" fill="#01070E"/>
</svg>
