<svg width="36" height="36" viewBox="0 0 36 36" fill="none" xmlns="http://www.w3.org/2000/svg">
<path d="M33.68 15.4H31.73C31.834 15.9287 31.9075 16.4629 31.95 17H17.49L8.29997 28.07C6.04947 25.8852 4.59783 23.008 4.17782 19.8996C3.75782 16.7913 4.39378 13.632 5.98374 10.9283C7.57369 8.22453 10.0255 6.13304 12.9461 4.98916C15.8666 3.84529 19.0867 3.71529 22.09 4.62002L23.09 2.86002C19.8793 1.78265 16.4095 1.75184 13.1802 2.77204C9.95082 3.79223 7.12849 5.81081 5.11943 8.53718C3.11038 11.2636 2.01824 14.5571 2.00023 17.9437C1.98221 21.3303 3.03926 24.6353 5.01919 27.3829C6.99913 30.1305 9.79983 32.179 13.0181 33.2334C16.2364 34.2879 19.7063 34.294 22.9283 33.2509C26.1503 32.2077 28.9582 30.1691 30.9478 27.4285C32.9374 24.6879 34.0061 21.3867 34 18C33.9948 17.1252 33.9179 16.2523 33.77 15.39L33.68 15.4ZM18 32C15.0687 31.9985 12.2128 31.0711 9.83997 29.35L18.43 19H31.95C31.6973 22.5285 30.1183 25.8304 27.5303 28.2421C24.9424 30.6538 21.5374 31.9964 18 32Z" fill="#01070E"/>
<path d="M26.8504 1.13981L21.1304 10.9998C20.9973 11.1951 20.9209 11.4235 20.9097 11.6596C20.8984 11.8957 20.9527 12.1303 21.0666 12.3374C21.1806 12.5445 21.3496 12.716 21.555 12.8329C21.7604 12.9498 21.9942 13.0076 22.2304 12.9998H33.6804C33.9166 13.0076 34.1504 12.9498 34.3558 12.8329C34.5612 12.716 34.7302 12.5445 34.8441 12.3374C34.958 12.1303 35.0123 11.8957 35.0011 11.6596C34.9898 11.4235 34.9135 11.1951 34.7804 10.9998L29.0604 1.13981C28.9476 0.946869 28.7862 0.786825 28.5923 0.675603C28.3985 0.564381 28.1789 0.505859 27.9554 0.505859C27.7319 0.505859 27.5123 0.564381 27.3184 0.675603C27.1245 0.786825 26.9632 0.946869 26.8504 1.13981Z" fill="#01070E"/>
</svg>
