<svg width="36" height="36" viewBox="0 0 36 36" fill="none" xmlns="http://www.w3.org/2000/svg">
<path d="M17.0893 31.5798L1.76932 19.5798C1.53028 19.3927 1.33696 19.1536 1.204 18.8808C1.07105 18.6079 1.00195 18.3083 1.00195 18.0048C1.00195 17.7012 1.07105 17.4017 1.204 17.1288C1.33696 16.8559 1.53028 16.6168 1.76932 16.4298L17.0893 4.42977C17.3763 4.20107 17.7224 4.0589 18.0873 4.01994C18.4522 3.98097 18.8206 4.04682 19.1493 4.20977C19.4534 4.3893 19.6968 4.65569 19.8483 4.97467C19.9998 5.29365 20.0524 5.65065 19.9993 5.99977V12.6998L30.8293 4.41977C31.1163 4.19107 31.4625 4.0489 31.8273 4.00994C32.1922 3.97097 32.5606 4.03682 32.8893 4.19977C33.2241 4.3661 33.5055 4.62291 33.7017 4.94106C33.8979 5.25922 34.001 5.62599 33.9993 5.99977V29.9998C33.9991 30.3719 33.8951 30.7365 33.699 31.0527C33.503 31.3689 33.2225 31.6242 32.8893 31.7898C32.5603 31.9515 32.1921 32.0167 31.8275 31.9778C31.4629 31.9388 31.1168 31.7974 30.8293 31.5698L19.9993 23.3098V29.9998C20.0524 30.3489 19.9998 30.7059 19.8483 31.0249C19.6968 31.3438 19.4534 31.6102 19.1493 31.7898C18.8203 31.9515 18.4521 32.0167 18.0875 31.9778C17.7229 31.9388 17.3768 31.7974 17.0893 31.5698V31.5798ZM31.9993 29.9998L32.0593 5.99977L17.9993 16.7998V5.99977L2.99932 17.9998L17.9993 29.9998V19.1998L31.9993 29.9998Z" fill="#01070E"/>
</svg>
