<svg width="36" height="36" viewBox="0 0 36 36" fill="none" xmlns="http://www.w3.org/2000/svg">
<path d="M18.0002 21.1299L12.8902 26.2699C12.7032 26.4582 12.5987 26.7131 12.5996 26.9784C12.6006 27.2438 12.7069 27.4979 12.8952 27.6849C13.0835 27.8719 13.3383 27.9764 13.6037 27.9754C13.8691 27.9745 14.1232 27.8682 14.3102 27.6799L17.0002 24.9999V32.6899C17.0002 32.9551 17.1055 33.2095 17.2931 33.397C17.4806 33.5845 17.735 33.6899 18.0002 33.6899C18.2654 33.6899 18.5197 33.5845 18.7073 33.397C18.8948 33.2095 19.0002 32.9551 19.0002 32.6899V24.9999L21.6902 27.7099C21.8771 27.8982 22.1313 28.0045 22.3966 28.0054C22.662 28.0064 22.9169 27.9019 23.1052 27.7149C23.2935 27.5279 23.3998 27.2738 23.4007 27.0084C23.4017 26.7431 23.2971 26.4882 23.1102 26.2999L18.0002 21.1299Z" fill="#01070E"/>
<path d="M5.85 19.0002H13.54C13.8052 19.0002 14.0596 18.8948 14.2471 18.7073C14.4346 18.5197 14.54 18.2654 14.54 18.0002C14.54 17.735 14.4346 17.4806 14.2471 17.2931C14.0596 17.1055 13.8052 17.0002 13.54 17.0002H5.85L8.56 14.3102C8.65324 14.2176 8.72733 14.1075 8.77804 13.9863C8.82875 13.8651 8.85509 13.7351 8.85556 13.6037C8.85602 13.4723 8.8306 13.3421 8.78075 13.2205C8.73089 13.099 8.65758 12.9884 8.565 12.8952C8.47242 12.8019 8.36238 12.7278 8.24116 12.6771C8.11995 12.6264 7.98993 12.6001 7.85854 12.5996C7.72714 12.5992 7.59694 12.6246 7.47537 12.6744C7.3538 12.7243 7.24324 12.7976 7.15 12.8902L2 18.0002L7.14 23.1102C7.23324 23.2028 7.3438 23.2761 7.46537 23.3259C7.58694 23.3758 7.71714 23.4012 7.84854 23.4007C7.97993 23.4003 8.10995 23.3739 8.23116 23.3232C8.35238 23.2725 8.46242 23.1984 8.555 23.1052C8.64758 23.0119 8.72089 22.9014 8.77075 22.7798C8.8206 22.6582 8.84602 22.528 8.84556 22.3966C8.84509 22.2652 8.81875 22.1352 8.76804 22.014C8.71733 21.8928 8.64324 21.7828 8.55 21.6902L5.85 19.0002Z" fill="#01070E"/>
<path d="M31.3809 15.3999H28.5409L30.1509 16.9999H22.4609C22.1957 16.9999 21.9414 17.1053 21.7538 17.2928C21.5663 17.4803 21.4609 17.7347 21.4609 17.9999C21.4609 18.2651 21.5663 18.5195 21.7538 18.707C21.9414 18.8945 22.1957 18.9999 22.4609 18.9999H30.1509L27.4409 21.6899C27.2526 21.8769 27.1463 22.131 27.1454 22.3964C27.1444 22.6617 27.249 22.9166 27.4359 23.1049C27.6229 23.2932 27.877 23.3995 28.1424 23.4005C28.4078 23.4014 28.6626 23.2969 28.8509 23.1099L34.0009 17.9999L31.3809 15.3999Z" fill="#01070E"/>
<path d="M18.0002 14.8701L19.1502 13.7101L19.0502 13.5601C18.7413 13.0194 18.5747 12.4092 18.566 11.7865C18.5572 11.1639 18.7066 10.5492 19.0002 10.0001V3.33008C19.0002 3.06486 18.8948 2.81051 18.7073 2.62297C18.5197 2.43544 18.2654 2.33008 18.0002 2.33008C17.735 2.33008 17.4806 2.43544 17.2931 2.62297C17.1055 2.81051 17.0002 3.06486 17.0002 3.33008V11.0001L14.3102 8.32008C14.2176 8.22684 14.1075 8.15275 13.9863 8.10204C13.8651 8.05133 13.7351 8.02499 13.6037 8.02452C13.4723 8.02406 13.3421 8.04948 13.2205 8.09933C13.099 8.14919 12.9884 8.2225 12.8952 8.31508C12.8019 8.40766 12.7278 8.5177 12.6771 8.63892C12.6264 8.76013 12.6001 8.89015 12.5996 9.02154C12.5992 9.15294 12.6246 9.28314 12.6744 9.40471C12.7243 9.52628 12.7976 9.63684 12.8902 9.73008L18.0002 14.8701Z" fill="#01070E"/>
<path d="M26.8504 1.13981L21.1304 10.9998C20.9973 11.1951 20.9209 11.4235 20.9097 11.6596C20.8984 11.8957 20.9527 12.1303 21.0666 12.3374C21.1806 12.5445 21.3496 12.716 21.555 12.8329C21.7604 12.9498 21.9942 13.0076 22.2304 12.9998H33.6804C33.9166 13.0076 34.1504 12.9498 34.3558 12.8329C34.5612 12.716 34.7302 12.5445 34.8441 12.3374C34.958 12.1303 35.0123 11.8957 35.0011 11.6596C34.9898 11.4235 34.9135 11.1951 34.7804 10.9998L29.0604 1.13981C28.9476 0.946869 28.7862 0.786825 28.5923 0.675603C28.3985 0.564381 28.1789 0.505859 27.9554 0.505859C27.7319 0.505859 27.5123 0.564381 27.3184 0.675603C27.1245 0.786825 26.9632 0.946869 26.8504 1.13981Z" fill="#01070E"/>
</svg>
