<svg width="36" height="36" viewBox="0 0 36 36" fill="none" xmlns="http://www.w3.org/2000/svg">
<path d="M20.57 20.0001C22.7478 20.0538 24.8582 19.2419 26.4384 17.7423C28.0186 16.2427 28.9398 14.1777 29 12.0001C28.9398 9.82239 28.0186 7.75742 26.4384 6.25781C24.8582 4.7582 22.7478 3.9463 20.57 4.00007H12C11.7348 4.00007 11.4804 4.10543 11.2929 4.29296C11.1054 4.4805 11 4.73485 11 5.00007V18.0001H9C8.73478 18.0001 8.48043 18.1054 8.29289 18.293C8.10536 18.4805 8 18.7349 8 19.0001C8 19.2653 8.10536 19.5196 8.29289 19.7072C8.48043 19.8947 8.73478 20.0001 9 20.0001H11V22.0001H9C8.73478 22.0001 8.48043 22.1054 8.29289 22.293C8.10536 22.4805 8 22.7349 8 23.0001C8 23.2653 8.10536 23.5196 8.29289 23.7072C8.48043 23.8947 8.73478 24.0001 9 24.0001H11V31.0001C11 31.2653 11.1054 31.5196 11.2929 31.7072C11.4804 31.8947 11.7348 32.0001 12 32.0001C12.2652 32.0001 12.5196 31.8947 12.7071 31.7072C12.8946 31.5196 13 31.2653 13 31.0001V24.0001H22C22.2652 24.0001 22.5196 23.8947 22.7071 23.7072C22.8946 23.5196 23 23.2653 23 23.0001C23 22.7349 22.8946 22.4805 22.7071 22.293C22.5196 22.1054 22.2652 22.0001 22 22.0001H13V20.0001H20.57ZM13 6.00007H20.57C22.2168 5.94871 23.8171 6.55073 25.0217 7.67478C26.2263 8.79883 26.9374 10.3537 27 12.0001C26.94 13.6474 26.2297 15.2038 25.0245 16.3284C23.8193 17.453 22.2175 18.0541 20.57 18.0001H13V6.00007Z" fill="#01070E"/>
</svg>
