<svg width="36" height="36" viewBox="0 0 36 36" fill="none" xmlns="http://www.w3.org/2000/svg">
<path d="M18 2C14.8355 2 11.7421 2.93838 9.11088 4.69649C6.4797 6.45459 4.42894 8.95345 3.21793 11.8771C2.00693 14.8007 1.69008 18.0177 2.30744 21.1214C2.92481 24.2251 4.44866 27.0761 6.6863 29.3137C8.92394 31.5513 11.7749 33.0752 14.8786 33.6926C17.9823 34.3099 21.1993 33.9931 24.1229 32.7821C27.0466 31.5711 29.5454 29.5203 31.3035 26.8891C33.0616 24.2579 34 21.1645 34 18C34 13.7565 32.3143 9.68687 29.3137 6.68629C26.3131 3.68571 22.2435 2 18 2ZM18 32C15.2311 32 12.5243 31.1789 10.222 29.6406C7.91974 28.1022 6.12532 25.9157 5.06569 23.3576C4.00607 20.7994 3.72882 17.9845 4.26901 15.2687C4.80921 12.553 6.14258 10.0584 8.10051 8.1005C10.0584 6.14257 12.553 4.8092 15.2687 4.26901C17.9845 3.72881 20.7994 4.00606 23.3576 5.06569C25.9157 6.12531 28.1022 7.91973 29.6406 10.222C31.1789 12.5243 32 15.2311 32 18C32 21.713 30.525 25.274 27.8995 27.8995C25.274 30.525 21.713 32 18 32Z" fill="#01070E"/>
<path d="M25.1594 16.08C26.1535 16.08 26.9594 15.2741 26.9594 14.28C26.9594 13.2859 26.1535 12.48 25.1594 12.48C24.1653 12.48 23.3594 13.2859 23.3594 14.28C23.3594 15.2741 24.1653 16.08 25.1594 16.08Z" fill="#01070E"/>
<path d="M11.4094 16.08C12.4035 16.08 13.2094 15.2741 13.2094 14.28C13.2094 13.2859 12.4035 12.48 11.4094 12.48C10.4153 12.48 9.60938 13.2859 9.60938 14.28C9.60938 15.2741 10.4153 16.08 11.4094 16.08Z" fill="#01070E"/>
<path d="M18.1598 20C16.7252 20.0002 15.3115 20.3434 14.0364 21.001C12.7613 21.6585 11.6619 22.6113 10.8298 23.78C10.676 23.9962 10.6144 24.2646 10.6584 24.5262C10.7025 24.7878 10.8487 25.0212 11.0648 25.175C11.281 25.3288 11.5494 25.3905 11.811 25.3464C12.0726 25.3023 12.306 25.1562 12.4598 24.94C13.0992 24.0419 13.9417 23.3075 14.9187 22.7967C15.8956 22.2859 16.9794 22.013 18.0818 22.0003C19.1842 21.9877 20.274 22.2355 21.2624 22.7238C22.2508 23.212 23.11 23.9268 23.7698 24.81C23.929 25.0222 24.1659 25.1624 24.4284 25.1999C24.691 25.2375 24.9577 25.1691 25.1698 25.01C25.382 24.8509 25.5223 24.614 25.5598 24.3514C25.5973 24.0889 25.529 23.8222 25.3698 23.61C24.5316 22.489 23.4434 21.5791 22.1917 20.9524C20.9401 20.3257 19.5596 19.9996 18.1598 20Z" fill="#01070E"/>
</svg>
