<svg width="36" height="36" viewBox="0 0 36 36" fill="none" xmlns="http://www.w3.org/2000/svg">
<path d="M19.7206 10.4701C17.6096 10.0577 15.4256 10.2376 13.4106 10.9901C13.3127 11.0289 13.2235 11.0865 13.1479 11.1597C13.0724 11.233 13.012 11.3204 12.9702 11.4169C12.8858 11.612 12.8823 11.8326 12.9606 12.0301C13.0388 12.2277 13.1923 12.3861 13.3874 12.4705C13.5824 12.5549 13.803 12.5584 14.0006 12.4801C15.7355 11.8241 17.6175 11.6581 19.4406 12.0001C19.5474 12.0283 19.659 12.034 19.7681 12.0168C19.8773 11.9997 19.9817 11.9602 20.0749 11.9007C20.168 11.8412 20.2478 11.763 20.3092 11.6712C20.3706 11.5793 20.4124 11.4757 20.4318 11.3669C20.4512 11.2582 20.4478 11.1465 20.4219 11.0391C20.3961 10.9317 20.3482 10.8308 20.2814 10.7428C20.2146 10.6548 20.1302 10.5815 20.0337 10.5277C19.9372 10.4739 19.8306 10.4407 19.7206 10.4301V10.4701Z" fill="#01070E"/>
<path d="M25.3795 18.0701C26.1306 18.0701 26.7395 17.4612 26.7395 16.7101C26.7395 15.959 26.1306 15.3501 25.3795 15.3501C24.6284 15.3501 24.0195 15.959 24.0195 16.7101C24.0195 17.4612 24.6284 18.0701 25.3795 18.0701Z" fill="#01070E"/>
<path d="M35.5101 18.6299C35.4174 18.4927 35.2922 18.3807 35.1456 18.304C34.999 18.2272 34.8356 18.188 34.6701 18.1899C33.8622 18.0777 33.1209 17.6805 32.5801 17.0699C31.5394 15.9323 30.6549 14.6611 29.9501 13.2899L32.8301 8.78985C33.0049 8.52908 33.1119 8.22888 33.1416 7.91636C33.1713 7.60385 33.1227 7.28886 33.0001 6.99985C32.8774 6.73692 32.6919 6.5082 32.46 6.33382C32.228 6.15944 31.9568 6.04475 31.6701 5.99985C29.8387 5.75303 27.9746 6.01241 26.2801 6.74985C25.309 7.1776 24.3952 7.72519 23.5601 8.37985C21.9245 7.64643 20.1828 7.17726 18.4001 6.98985C11.3101 6.29985 4.83012 10.8999 4.00012 16.9999C3.67666 16.8543 3.38696 16.6432 3.1494 16.3798C2.91184 16.1164 2.7316 15.8066 2.62012 15.4699C2.54882 15.239 2.52447 14.9961 2.54852 14.7557C2.57256 14.5152 2.64451 14.282 2.76012 14.0699C2.86379 13.8917 3.01196 13.7435 3.19012 13.6399C3.31159 13.5663 3.41739 13.4696 3.50147 13.3551C3.58556 13.2407 3.64628 13.1108 3.68017 12.9729C3.71407 12.8351 3.72047 12.6918 3.69901 12.5515C3.67755 12.4111 3.62866 12.2763 3.55512 12.1549C3.48158 12.0334 3.38483 11.9276 3.27041 11.8435C3.15598 11.7594 3.02611 11.6987 2.88821 11.6648C2.75032 11.6309 2.6071 11.6245 2.46673 11.646C2.32636 11.6674 2.19159 11.7163 2.07012 11.7899C1.58604 12.087 1.18656 12.5037 0.91012 12.9999C0.653103 13.4655 0.491536 13.9778 0.434873 14.5066C0.37821 15.0355 0.427589 15.5703 0.58012 16.0799C0.767869 16.6973 1.07922 17.2701 1.49523 17.7635C1.91125 18.2569 2.42326 18.6605 3.00012 18.9499L3.92012 19.4099C4.03505 21.8441 4.65483 24.2279 5.74012 26.4099L5.91012 26.7899C6.77746 28.6242 7.88373 30.3357 9.20012 31.8799C9.29383 31.9865 9.40918 32.072 9.5385 32.1306C9.66782 32.1893 9.80814 32.2197 9.95012 32.2199H14.4701C14.6339 32.219 14.795 32.178 14.9392 32.1004C15.0834 32.0227 15.2063 31.9108 15.2972 31.7746C15.388 31.6383 15.444 31.4818 15.4602 31.3188C15.4764 31.1558 15.4524 30.9914 15.3901 30.8399L15.0001 29.9399L16.1801 30.0699C17.5102 30.2013 18.85 30.2013 20.1801 30.0699C20.5501 30.6699 20.9501 31.2699 21.3901 31.8599C21.4822 31.9859 21.6025 32.0886 21.7415 32.1598C21.8804 32.231 22.034 32.2687 22.1901 32.2699H26.5301C26.6952 32.2697 26.8576 32.2287 27.003 32.1505C27.1483 32.0724 27.2721 31.9594 27.3632 31.8218C27.4543 31.6841 27.5099 31.5261 27.5251 31.3617C27.5402 31.1974 27.5145 31.0318 27.4501 30.8799C27.2801 30.4799 27.1101 30.0499 26.9801 29.6799C26.8001 29.1499 26.6601 28.6799 26.5501 28.2299C27.6545 27.6336 28.6681 26.8827 29.5601 25.9999C30.5565 26.1203 31.5637 26.1203 32.5601 25.9999C32.733 25.9737 32.896 25.9027 33.0328 25.7939C33.1697 25.6851 33.2757 25.5424 33.3401 25.3799L35.6001 19.5699C35.6637 19.4179 35.6888 19.2526 35.6731 19.0886C35.6574 18.9246 35.6014 18.767 35.5101 18.6299ZM31.7301 24.0699C30.9451 24.1145 30.1575 24.0777 29.3801 23.9599C28.4948 23.8103 27.6401 23.5164 26.8501 23.0899C26.6161 22.9738 26.3461 22.954 26.0976 23.0345C25.8492 23.115 25.6421 23.2894 25.5206 23.5206C25.3992 23.7518 25.373 24.0214 25.4476 24.2716C25.5223 24.5219 25.6918 24.733 25.9201 24.8599C26.3381 25.079 26.7688 25.2727 27.2101 25.4399C26.6648 25.9054 26.0594 26.2956 25.4101 26.5999L24.3501 27.0799C24.3501 27.0799 24.8401 29.2699 25.1701 30.2399H22.7901C22.5501 29.8999 21.3401 27.8799 21.3401 27.8799L20.6701 27.9699C19.2628 28.1728 17.8367 28.2131 16.4201 28.0899C15.7601 28.0299 14.6601 27.8899 13.8001 27.7399L12.2501 27.4699C12.2501 27.4699 12.8801 29.8999 13.0001 30.2099H10.4201C9.36623 28.9194 8.47302 27.5057 7.76012 25.9999L7.58012 25.6099C6.28082 23.1088 5.73213 20.2855 6.00012 17.4799C6.54012 12.2899 12.1201 8.36985 18.1901 8.93985C19.9559 9.13779 21.6743 9.63845 23.2701 10.4199L23.8901 10.7099L24.3901 10.2399C25.1688 9.54403 26.0489 8.9708 27.0001 8.53985C28.2587 7.99399 29.6335 7.77058 31.0001 7.88985L27.6201 13.1799L27.8701 13.6799C28.7435 15.439 29.8575 17.068 31.1801 18.5199C31.7944 19.1202 32.5218 19.5927 33.3201 19.9099L31.7301 24.0699Z" fill="#01070E"/>
</svg>
