<svg width="36" height="36" viewBox="0 0 36 36" fill="none" xmlns="http://www.w3.org/2000/svg">
<path d="M24.0607 18.1798L33.6707 9.40985C33.7805 9.30955 33.8666 9.18601 33.9227 9.04823C33.9787 8.91046 34.0033 8.76191 33.9947 8.61342C33.9861 8.46493 33.9444 8.32023 33.8728 8.18986C33.8012 8.0595 33.7014 7.94676 33.5807 7.85985L31.3407 6.25985C30.7102 5.81442 29.9523 5.58536 29.1807 5.60699C28.4091 5.62863 27.6652 5.8998 27.0607 6.37985L15.8807 15.2998L12.6207 12.7798C13.0561 11.4946 12.9964 10.093 12.4532 8.84945C11.91 7.60586 10.9223 6.60967 9.68347 6.05575C8.44461 5.50182 7.04366 5.43001 5.75466 5.85437C4.46566 6.27872 3.38134 7.1687 2.71381 8.35023C2.04628 9.53175 1.84357 10.9198 2.14532 12.2429C2.44707 13.566 3.23158 14.7289 4.34538 15.5042C5.45919 16.2794 6.82216 16.6113 8.16769 16.4348C9.51322 16.2583 10.7445 15.5861 11.6207 14.5498L14.2407 16.5498L10.0007 19.9998C8.79923 19.3533 7.39979 19.1782 6.07606 19.5088C4.75234 19.8394 3.59954 20.6519 2.84313 21.7874C2.08671 22.9229 1.78108 24.2997 1.98601 25.6486C2.19094 26.9975 2.8917 28.2214 3.95122 29.081C5.01074 29.9407 6.35283 30.3741 7.71501 30.2966C9.07719 30.2192 10.3615 29.6363 11.3167 28.6621C12.2719 27.6879 12.8294 26.3924 12.8801 25.029C12.9307 23.6656 12.471 22.3323 11.5907 21.2898L28.3007 7.93985C28.5667 7.72967 28.8935 7.61122 29.2324 7.6022C29.5712 7.59319 29.9039 7.6941 30.1807 7.88985L31.4107 8.76985L21.1007 18.1898L31.4107 27.5898L30.1807 28.4698C29.9039 28.6656 29.5712 28.7665 29.2324 28.7575C28.8935 28.7485 28.5667 28.63 28.3007 28.4198L18.4907 20.5698L17.0007 21.9298L27.0607 29.9298C27.6661 30.4122 28.4119 30.6848 29.1856 30.7064C29.9594 30.7281 30.7193 30.4976 31.3507 30.0498L33.5907 28.4498C33.7114 28.3629 33.8112 28.2502 33.8828 28.1198C33.9544 27.9895 33.9961 27.8448 34.0047 27.6963C34.0133 27.5478 33.9887 27.3992 33.9327 27.2615C33.8766 27.1237 33.7905 27.0001 33.6807 26.8998L24.0607 18.1798ZM7.45069 14.5398C6.76594 14.5418 6.096 14.3406 5.5257 13.9616C4.95539 13.5826 4.51035 13.0429 4.24694 12.4109C3.98353 11.7788 3.91358 11.0828 4.04595 10.411C4.17833 9.73915 4.50707 9.1217 4.99056 8.63681C5.47405 8.15192 6.09054 7.8214 6.76199 7.68708C7.43343 7.55276 8.12963 7.62069 8.76245 7.88228C9.39527 8.14386 9.93624 8.58733 10.3169 9.15654C10.6975 9.72575 10.9007 10.3951 10.9007 11.0798C10.9007 11.9958 10.5375 12.8743 9.89081 13.5229C9.2441 14.1715 8.3666 14.5372 7.45069 14.5398ZM7.45069 28.2598C6.76594 28.2618 6.096 28.0606 5.5257 27.6816C4.95539 27.3026 4.51035 26.7629 4.24694 26.1309C3.98353 25.4988 3.91358 24.8028 4.04595 24.131C4.17833 23.4592 4.50707 22.8417 4.99056 22.3568C5.47405 21.8719 6.09054 21.5414 6.76199 21.4071C7.43343 21.2728 8.12963 21.3407 8.76245 21.6023C9.39527 21.8639 9.93624 22.3073 10.3169 22.8765C10.6975 23.4457 10.9007 24.1151 10.9007 24.7998C10.9007 25.7158 10.5375 26.5943 9.89081 27.2429C9.2441 27.8915 8.3666 28.2572 7.45069 28.2598Z" fill="#01070E"/>
</svg>
