<svg width="36" height="36" viewBox="0 0 36 36" fill="none" xmlns="http://www.w3.org/2000/svg">
<path d="M28.08 15.4001V29.5401C28.08 30.2031 27.8166 30.839 27.3478 31.3078C26.8789 31.7767 26.243 32.0401 25.58 32.0401H10.24C10.7367 31.301 11.0013 30.4305 11 29.5401V6.54008C11 5.87704 11.2634 5.24115 11.7322 4.77231C12.2011 4.30347 12.837 4.04008 13.5 4.04008C14.163 4.04008 14.7989 4.30347 15.2678 4.77231C15.7366 5.24115 16 5.87704 16 6.54008V11.0801H18.61C18.6707 10.664 18.8026 10.2614 19 9.89008L19.44 9.13008H18V6.58008C18.0007 5.68974 17.7361 4.81938 17.24 4.08008H22.4L23.55 2.08008H13.5C12.3065 2.08008 11.1619 2.55418 10.318 3.3981C9.47411 4.24201 9 5.3866 9 6.58008V29.5801C9 30.2431 8.73661 30.879 8.26777 31.3478C7.79893 31.8167 7.16304 32.0801 6.5 32.0801C5.83696 32.0801 5.20107 31.8167 4.73223 31.3478C4.26339 30.879 4 30.2431 4 29.5801V26.0001H7.19V24.0001H2V29.5001C2 30.6936 2.47411 31.8381 3.31802 32.6821C4.16193 33.526 5.30653 34.0001 6.5 34.0001H25.58C26.7735 34.0001 27.9181 33.526 28.762 32.6821C29.6059 31.8381 30.08 30.6936 30.08 29.5001V15.4001H28.08Z" fill="#01070E"/>
<path d="M26.8504 1.13981L21.1304 10.9998C20.9973 11.1951 20.9209 11.4235 20.9097 11.6596C20.8984 11.8957 20.9527 12.1303 21.0666 12.3374C21.1806 12.5445 21.3496 12.716 21.555 12.8329C21.7604 12.9498 21.9942 13.0076 22.2304 12.9998H33.6804C33.9166 13.0076 34.1504 12.9498 34.3558 12.8329C34.5612 12.716 34.7302 12.5445 34.8441 12.3374C34.958 12.1303 35.0123 11.8957 35.0011 11.6596C34.9898 11.4235 34.9135 11.1951 34.7804 10.9998L29.0604 1.13981C28.9476 0.946869 28.7862 0.786825 28.5923 0.675603C28.3985 0.564381 28.1789 0.505859 27.9554 0.505859C27.7319 0.505859 27.5123 0.564381 27.3184 0.675603C27.1245 0.786825 26.9632 0.946869 26.8504 1.13981Z" fill="#01070E"/>
</svg>
