<svg width="36" height="36" viewBox="0 0 36 36" fill="none" xmlns="http://www.w3.org/2000/svg">
<path d="M34 11.1201V6.58008C34 5.3866 33.5259 4.24201 32.682 3.3981C31.8381 2.55418 30.6935 2.08008 29.5 2.08008H13.5C12.3065 2.08008 11.1619 2.55418 10.318 3.3981C9.47411 4.24201 9 5.3866 9 6.58008V29.5801C9 30.2431 8.73661 30.879 8.26777 31.3478C7.79893 31.8167 7.16304 32.0801 6.5 32.0801C5.83696 32.0801 5.20107 31.8167 4.73223 31.3478C4.26339 30.879 4 30.2431 4 29.5801V26.0001H7.19V24.0001H2V29.5001C2 30.6936 2.47411 31.8381 3.31802 32.6821C4.16193 33.526 5.30653 34.0001 6.5 34.0001H25.58C26.7735 34.0001 27.9181 33.526 28.762 32.6821C29.6059 31.8381 30.08 30.6936 30.08 29.5001V13.1301H28.08V29.5401C28.08 30.2031 27.8166 30.839 27.3478 31.3078C26.8789 31.7767 26.243 32.0401 25.58 32.0401H10.24C10.7367 31.301 11.0013 30.4305 11 29.5401V6.54008C11 5.87704 11.2634 5.24115 11.7322 4.77231C12.2011 4.30347 12.837 4.04008 13.5 4.04008C14.163 4.04008 14.7989 4.30347 15.2678 4.77231C15.7366 5.24115 16 5.87704 16 6.54008V11.0801L34 11.1201ZM29.5 4.12008C30.1562 4.11999 30.7861 4.37789 31.2538 4.83811C31.7215 5.29834 31.9895 5.92399 32 6.58008V9.12008H18V6.58008C18.0007 5.68974 17.7361 4.81938 17.24 4.08008L29.5 4.12008Z" fill="#01070E"/>
</svg>
