<svg width="36" height="36" viewBox="0 0 36 36" fill="none" xmlns="http://www.w3.org/2000/svg">
<path d="M16.3301 5.05C18.4962 5.04802 20.6143 5.68855 22.4163 6.89054C24.2183 8.09254 25.6234 9.80201 26.4537 11.8027C27.284 13.8034 27.5023 16.0054 27.0809 18.1301C26.6595 20.2549 25.6174 22.2069 24.0864 23.7393C22.5555 25.2717 20.6044 26.3155 18.48 26.7389C16.3556 27.1622 14.1534 26.9459 12.152 26.1174C10.1506 25.2889 8.43983 23.8855 7.23619 22.0845C6.03254 20.2836 5.39008 18.1661 5.39008 16C5.40322 13.1017 6.55972 10.3256 8.60824 8.27522C10.6568 6.22482 13.4318 5.06578 16.3301 5.05ZM16.3301 3C13.7589 3 11.2455 3.76244 9.10767 5.1909C6.96983 6.61935 5.30359 8.64968 4.31965 11.0251C3.33571 13.4006 3.07827 16.0144 3.57988 18.5362C4.08148 21.0579 5.31961 23.3743 7.1377 25.1924C8.95578 27.0105 11.2722 28.2486 13.7939 28.7502C16.3157 29.2518 18.9295 28.9944 21.305 28.0104C23.6804 27.0265 25.7107 25.3603 27.1392 23.2224C28.5676 21.0846 29.3301 18.5712 29.3301 16C29.3301 12.5522 27.9604 9.24558 25.5225 6.80761C23.0845 4.36964 19.7779 3 16.3301 3Z" fill="#01070E"/>
<path d="M35.0009 33.2901L27.6309 25.8701L26.2109 27.2801L33.5809 34.7001C33.6735 34.7934 33.7836 34.8674 33.9048 34.9182C34.026 34.9689 34.156 34.9952 34.2874 34.9957C34.4188 34.9961 34.549 34.9707 34.6706 34.9209C34.7921 34.871 34.9027 34.7977 34.9959 34.7051C35.0892 34.6125 35.1633 34.5025 35.214 34.3813C35.2647 34.2601 35.291 34.13 35.2915 33.9987C35.292 33.8673 35.2665 33.7371 35.2167 33.6155C35.1668 33.4939 35.0935 33.3834 35.0009 33.2901Z" fill="#01070E"/>
</svg>
