<svg width="36" height="36" viewBox="0 0 36 36" fill="none" xmlns="http://www.w3.org/2000/svg">
<path d="M17.9995 24.2998C17.5086 24.2998 17.0287 24.4455 16.6207 24.7185C16.2126 24.9914 15.8948 25.3793 15.7073 25.8331C15.5199 26.2868 15.4714 26.786 15.5679 27.2673C15.6644 27.7487 15.9016 28.1905 16.2495 28.537C16.5973 28.8834 17.0401 29.1188 17.5218 29.2134C18.0036 29.3079 18.5025 29.2574 18.9555 29.0681C19.4085 28.8789 19.7951 28.5595 20.0664 28.1503C20.3377 27.7412 20.4815 27.2607 20.4795 26.7698C20.4769 26.1138 20.2144 25.4856 19.7496 25.0226C19.2848 24.5597 18.6555 24.2998 17.9995 24.2998ZM17.9995 27.8998C17.7756 27.8998 17.5567 27.8333 17.3707 27.7086C17.1847 27.584 17.0398 27.407 16.9546 27.1999C16.8694 26.9928 16.8476 26.7651 16.892 26.5456C16.9364 26.3262 17.045 26.1249 17.2041 25.9672C17.3631 25.8096 17.5654 25.7028 17.7853 25.6603C18.0051 25.6178 18.2326 25.6417 18.4389 25.7287C18.6452 25.8158 18.821 25.9622 18.944 26.1493C19.0669 26.3364 19.1315 26.5559 19.1295 26.7798C19.1269 27.0778 19.0067 27.3626 18.795 27.5724C18.5834 27.7821 18.2975 27.8998 17.9995 27.8998Z" fill="#01070E"/>
<path d="M25.65 3.6001H10.35C9.99196 3.6001 9.64858 3.74233 9.39541 3.9955C9.14223 4.24868 9 4.59206 9 4.9501V32.4001H27V4.9501C27 4.77281 26.9651 4.59726 26.8972 4.43348C26.8294 4.26969 26.73 4.12086 26.6046 3.9955C26.4792 3.87014 26.3304 3.7707 26.1666 3.70286C26.0028 3.63502 25.8273 3.6001 25.65 3.6001ZM25.2 30.6001H10.8V5.4001H25.2V30.6001Z" fill="#01070E"/>
<path d="M23.3996 7.2002H12.5996V8.6402H23.3996V7.2002Z" fill="#01070E"/>
<path d="M23.3996 10.7998H12.5996V12.2398H23.3996V10.7998Z" fill="#01070E"/>
</svg>
