<svg width="36" height="36" viewBox="0 0 36 36" fill="none" xmlns="http://www.w3.org/2000/svg">
<path d="M27.5307 24.0002C26.8572 24.0028 26.1911 24.1414 25.5725 24.4078C24.9538 24.6741 24.3954 25.0627 23.9307 25.5502L11.7407 19.4502C12.0405 18.541 12.0405 17.5595 11.7407 16.6502L23.9507 10.4402C24.8253 11.3619 26.0113 11.9254 27.2782 12.0213C28.5451 12.1172 29.8024 11.7386 30.8058 10.9591C31.8091 10.1797 32.4868 9.05496 32.7071 7.80367C32.9274 6.55237 32.6746 5.26386 31.9978 4.18858C31.321 3.1133 30.2686 2.32807 29.0451 1.98551C27.8216 1.64295 26.5144 1.76754 25.3777 2.33506C24.2409 2.90257 23.3558 3.87248 22.8943 5.05625C22.4328 6.24002 22.428 7.55309 22.8807 8.74024L10.7907 14.8902C10.1377 14.0917 9.25378 13.5146 8.25999 13.2382C7.26621 12.9617 6.21125 12.9994 5.23971 13.346C4.26818 13.6926 3.42763 14.3313 2.83329 15.1744C2.23896 16.0175 1.91992 17.0237 1.91992 18.0552C1.91992 19.0868 2.23896 20.093 2.83329 20.9361C3.42763 21.7792 4.26818 22.4178 5.23971 22.7645C6.21125 23.1111 7.26621 23.1488 8.25999 22.8723C9.25378 22.5959 10.1377 22.0188 10.7907 21.2202L22.8507 27.2902C22.6469 27.8374 22.5419 28.4164 22.5407 29.0002C22.5407 29.9892 22.8339 30.9558 23.3833 31.7781C23.9327 32.6003 24.7136 33.2412 25.6273 33.6196C26.5409 33.9981 27.5462 34.0971 28.5161 33.9042C29.486 33.7112 30.377 33.235 31.0762 32.5358C31.7755 31.8365 32.2517 30.9456 32.4446 29.9757C32.6375 29.0058 32.5385 28.0005 32.1601 27.0868C31.7816 26.1732 31.1408 25.3923 30.3185 24.8429C29.4963 24.2935 28.5296 24.0002 27.5407 24.0002H27.5307ZM27.5307 4.00024C28.124 4.00024 28.704 4.17619 29.1974 4.50584C29.6907 4.83548 30.0753 5.30402 30.3023 5.85219C30.5294 6.40037 30.5888 7.00357 30.473 7.58551C30.3573 8.16746 30.0716 8.70201 29.652 9.12156C29.2324 9.54112 28.6979 9.82684 28.116 9.9426C27.534 10.0584 26.9308 9.99895 26.3826 9.77188C25.8345 9.54482 25.3659 9.1603 25.0363 8.66695C24.7066 8.17361 24.5307 7.59359 24.5307 7.00024C24.5307 6.20459 24.8468 5.44153 25.4094 4.87892C25.972 4.31631 26.735 4.00024 27.5307 4.00024ZM7.00068 21.0002C6.40734 21.0002 5.82732 20.8243 5.33397 20.4947C4.84062 20.165 4.45611 19.6965 4.22904 19.1483C4.00198 18.6001 3.94257 17.9969 4.05833 17.415C4.17408 16.833 4.4598 16.2985 4.87936 15.8789C5.29892 15.4594 5.83347 15.1736 6.41541 15.0579C6.99735 14.9421 7.60055 15.0015 8.14873 15.2286C8.69691 15.4557 9.16545 15.8402 9.49509 16.3335C9.82473 16.8269 10.0007 17.4069 10.0007 18.0002C10.0007 18.7959 9.68461 19.559 9.122 20.1216C8.55939 20.6842 7.79633 21.0002 7.00068 21.0002ZM27.5307 32.0002C26.9373 32.0002 26.3573 31.8243 25.864 31.4947C25.3706 31.165 24.9861 30.6965 24.759 30.1483C24.532 29.6001 24.4726 28.9969 24.5883 28.415C24.7041 27.833 24.9898 27.2985 25.4094 26.8789C25.8289 26.4594 26.3635 26.1736 26.9454 26.0579C27.5274 25.9421 28.1306 26.0015 28.6787 26.2286C29.2269 26.4557 29.6954 26.8402 30.0251 27.3335C30.3547 27.8269 30.5307 28.4069 30.5307 29.0002C30.5307 29.7959 30.2146 30.559 29.652 31.1216C29.0894 31.6842 28.3263 32.0002 27.5307 32.0002Z" fill="#01070E"/>
</svg>
