<svg width="36" height="36" viewBox="0 0 36 36" fill="none" xmlns="http://www.w3.org/2000/svg">
<path d="M30 15.4V15.93C30 26.93 20 31.54 18 32.36C16 31.54 6 26.92 6 15.93V9.14C8.10947 8.53356 10.1744 7.78176 12.18 6.89C14.1857 6.02299 16.1302 5.02068 18 3.89C19 4.53 20.2 5.16 21.43 5.78L22.43 4.04C21.0948 3.38426 19.7963 2.65652 18.54 1.86L18 1.5L17.46 1.85C15.5182 3.07348 13.4856 4.14662 11.38 5.06C9.23629 6.01644 7.01915 6.79896 4.75 7.4L4 7.59V15.93C4 29.32 17.53 34.33 17.66 34.38L18 34.5L18.34 34.38C18.48 34.38 32 29.33 32 15.93V15.4H30Z" fill="#01070E"/>
<path d="M26.8504 1.13981L21.1304 10.9998C20.9973 11.1951 20.9209 11.4235 20.9097 11.6596C20.8984 11.8957 20.9527 12.1303 21.0666 12.3374C21.1806 12.5445 21.3496 12.716 21.555 12.8329C21.7604 12.9498 21.9942 13.0076 22.2304 12.9998H33.6804C33.9166 13.0076 34.1504 12.9498 34.3558 12.8329C34.5612 12.716 34.7302 12.5445 34.8441 12.3374C34.958 12.1303 35.0123 11.8957 35.0011 11.6596C34.9898 11.4235 34.9135 11.1951 34.7804 10.9998L29.0604 1.13981C28.9476 0.946869 28.7862 0.786825 28.5923 0.675603C28.3985 0.564381 28.1789 0.505859 27.9554 0.505859C27.7319 0.505859 27.5123 0.564381 27.3184 0.675603C27.1245 0.786825 26.9632 0.946869 26.8504 1.13981Z" fill="#01070E"/>
</svg>
