<svg width="36" height="36" viewBox="0 0 36 36" fill="none" xmlns="http://www.w3.org/2000/svg">
<path d="M31.25 7.4C28.984 6.79521 26.7702 6.00935 24.63 5.05C22.5244 4.13662 20.4918 3.06348 18.55 1.84L18 1.5L17.46 1.85C15.5182 3.07348 13.4856 4.14662 11.38 5.06C9.23629 6.01644 7.01915 6.79896 4.75 7.4L4 7.59V15.93C4 29.32 17.53 34.33 17.66 34.38L18 34.5L18.34 34.38C18.48 34.38 32 29.33 32 15.93V7.59L31.25 7.4ZM30 15.93C30 26.93 20 31.54 18 32.36C16 31.54 6 26.92 6 15.93V9.14C8.10947 8.53356 10.1744 7.78176 12.18 6.89C14.1857 6.02299 16.1302 5.02068 18 3.89C19.8698 5.02068 21.8143 6.02299 23.82 6.89C25.8256 7.78176 27.8905 8.53356 30 9.14V15.93Z" fill="#01070E"/>
<path d="M22.8092 10.79L17.9992 15.61L13.1892 10.8C12.9979 10.6362 12.7519 10.5506 12.5002 10.5603C12.2485 10.57 12.0098 10.6744 11.8317 10.8524C11.6536 11.0305 11.5492 11.2693 11.5395 11.521C11.5298 11.7726 11.6154 12.0187 11.7792 12.21L16.5892 17L11.7792 21.81C11.6745 21.8997 11.5895 22.01 11.5295 22.134C11.4695 22.2581 11.4358 22.3932 11.4304 22.531C11.4251 22.6687 11.4483 22.806 11.4986 22.9343C11.5489 23.0627 11.6251 23.1792 11.7226 23.2767C11.82 23.3741 11.9366 23.4504 12.0649 23.5006C12.1932 23.5509 12.3306 23.5741 12.4683 23.5688C12.606 23.5635 12.7411 23.5298 12.8652 23.4697C12.9893 23.4097 13.0996 23.3247 13.1892 23.22L17.9992 18.43L22.8092 23.24C23.0005 23.4038 23.2466 23.4894 23.4983 23.4797C23.75 23.47 23.9887 23.3657 24.1668 23.1876C24.3449 23.0095 24.4492 22.7707 24.4589 22.5191C24.4687 22.2674 24.3831 22.0213 24.2192 21.83L19.4092 17L24.2192 12.19C24.3831 11.9987 24.4687 11.7526 24.4589 11.501C24.4492 11.2493 24.3449 11.0105 24.1668 10.8324C23.9887 10.6543 23.75 10.55 23.4983 10.5403C23.2466 10.5306 23.0005 10.6162 22.8092 10.78V10.79Z" fill="#01070E"/>
</svg>
