<svg width="36" height="36" viewBox="0 0 36 36" fill="none" xmlns="http://www.w3.org/2000/svg">
<path d="M31.25 7.4C28.984 6.79521 26.7702 6.00935 24.63 5.05C22.5244 4.13662 20.4918 3.06348 18.55 1.84L18 1.5L17.46 1.85C15.5182 3.07348 13.4856 4.14662 11.38 5.06C9.23629 6.01644 7.01915 6.79896 4.75 7.4L4 7.59V15.93C4 29.32 17.53 34.33 17.66 34.38L18 34.5L18.34 34.38C18.48 34.38 32 29.33 32 15.93V7.59L31.25 7.4ZM30 15.93C30 26.93 20 31.54 18 32.36C16 31.54 6 26.92 6 15.93V9.14C8.10947 8.53356 10.1744 7.78176 12.18 6.89C14.1857 6.02299 16.1302 5.02068 18 3.89C19.8698 5.02068 21.8143 6.02299 23.82 6.89C25.8256 7.78176 27.8905 8.53356 30 9.14V15.93Z" fill="#01070E"/>
<path d="M10.8809 16.8701C10.6896 16.7063 10.4435 16.6207 10.1919 16.6304C9.9402 16.6401 9.70146 16.7444 9.52336 16.9225C9.34527 17.1006 9.24094 17.3394 9.23121 17.591C9.22149 17.8427 9.3071 18.0888 9.47093 18.2801L15.4709 24.2801L26.4009 13.7701C26.5919 13.5844 26.7013 13.3305 26.705 13.0642C26.7088 12.7979 26.6066 12.541 26.4209 12.3501C26.2353 12.1591 25.9814 12.0497 25.7151 12.046C25.4488 12.0422 25.1919 12.1444 25.0009 12.3301L15.5309 21.5201L10.8809 16.8701Z" fill="#01070E"/>
</svg>
