<svg width="36" height="36" viewBox="0 0 36 36" fill="none" xmlns="http://www.w3.org/2000/svg">
<path d="M25 11.9998V9.0498C25 8.13055 24.8189 7.2203 24.4672 6.37102C24.1154 5.52174 23.5998 4.75007 22.9497 4.10006C22.2997 3.45005 21.5281 2.93443 20.6788 2.58265C19.8295 2.23086 18.9193 2.0498 18 2.0498C17.0807 2.0498 16.1705 2.23086 15.3212 2.58265C14.4719 2.93443 13.7003 3.45005 13.0503 4.10006C12.4002 4.75007 11.8846 5.52174 11.5328 6.37102C11.1811 7.2203 11 8.13055 11 9.0498V16.0498C11 16.315 11.1054 16.5694 11.2929 16.7569C11.4804 16.9444 11.7348 17.0498 12 17.0498C12.2652 17.0498 12.5196 16.9444 12.7071 16.7569C12.8946 16.5694 13 16.315 13 16.0498V13.9998H21V11.9998H13V9.0498C13 7.72372 13.5268 6.45195 14.4645 5.51427C15.4021 4.57659 16.6739 4.0498 18 4.0498C19.3261 4.0498 20.5979 4.57659 21.5355 5.51427C22.4732 6.45195 23 7.72372 23 9.0498V15.9998C23 16.265 23.1054 16.5194 23.2929 16.7069C23.4804 16.8944 23.7348 16.9998 24 16.9998C24.2652 16.9998 24.5196 16.8944 24.7071 16.7069C24.8946 16.5194 25 16.265 25 15.9998V13.9998H30V31.9998H6V13.9998H9V11.9998H4V32.0898C4 32.5964 4.20123 33.0822 4.55943 33.4404C4.91762 33.7986 5.40344 33.9998 5.91 33.9998H30.09C30.5966 33.9998 31.0824 33.7986 31.4406 33.4404C31.7988 33.0822 32 32.5964 32 32.0898V11.9998H25Z" fill="#01070E"/>
</svg>
