<svg width="36" height="36" viewBox="0 0 36 36" fill="none" xmlns="http://www.w3.org/2000/svg">
<path d="M13.3301 32C14.5727 32 15.5801 30.9926 15.5801 29.75C15.5801 28.5074 14.5727 27.5 13.3301 27.5C12.0874 27.5 11.0801 28.5074 11.0801 29.75C11.0801 30.9926 12.0874 32 13.3301 32Z" fill="#01070E"/>
<path d="M27 32C28.2426 32 29.25 30.9926 29.25 29.75C29.25 28.5074 28.2426 27.5 27 27.5C25.7574 27.5 24.75 28.5074 24.75 29.75C24.75 30.9926 25.7574 32 27 32Z" fill="#01070E"/>
<path d="M33.0805 5.36999C32.9874 5.25527 32.8701 5.1626 32.737 5.09862C32.6038 5.03465 32.4582 5.00096 32.3105 4.99999H11.4905L12.1405 6.99999H31.0005L28.3305 19H13.3305L8.76048 4.52999C8.71105 4.37645 8.62521 4.23714 8.51028 4.12396C8.39535 4.01077 8.25476 3.92707 8.10048 3.87999L4.00048 2.61999C3.87441 2.58125 3.74194 2.56772 3.61065 2.58017C3.47935 2.59262 3.35179 2.63082 3.23525 2.69257C2.99989 2.81728 2.82372 3.03038 2.74548 3.28499C2.66724 3.53959 2.69335 3.81486 2.81806 4.05021C2.94277 4.28557 3.15587 4.46175 3.41048 4.53999L7.00048 5.63999L11.5905 20.14L9.95048 21.48L9.82048 21.61C9.41481 22.0775 9.18488 22.6718 9.17027 23.2906C9.15567 23.9094 9.35732 24.5139 9.74048 25C10.013 25.3314 10.3594 25.5945 10.7518 25.7682C11.1442 25.9418 11.5719 26.0212 12.0005 26H28.6905C28.9557 26 29.21 25.8946 29.3976 25.7071C29.5851 25.5196 29.6905 25.2652 29.6905 25C29.6905 24.7348 29.5851 24.4804 29.3976 24.2929C29.21 24.1053 28.9557 24 28.6905 24H11.8405C11.7253 23.9961 11.6131 23.9625 11.5147 23.9025C11.4163 23.8426 11.3351 23.7583 11.2788 23.6577C11.2225 23.5572 11.1931 23.4439 11.1934 23.3286C11.1937 23.2134 11.2237 23.1002 11.2805 23L13.6905 21H29.1305C29.3616 21.0056 29.5876 20.931 29.7699 20.7888C29.9523 20.6466 30.0797 20.4456 30.1305 20.22L33.3005 6.21999C33.3309 6.0709 33.3269 5.91685 33.2888 5.76955C33.2506 5.62225 33.1794 5.4856 33.0805 5.36999Z" fill="#01070E"/>
</svg>
