<svg width="36" height="36" viewBox="0 0 36 36" fill="none" xmlns="http://www.w3.org/2000/svg">
<path d="M32 15H22.41L31.66 5.75C31.8238 5.5587 31.9094 5.31262 31.8997 5.06095C31.89 4.80927 31.7857 4.57053 31.6076 4.39244C31.4295 4.21434 31.1907 4.11001 30.9391 4.10029C30.6874 4.09057 30.4413 4.17617 30.25 4.34L21 13.59V4C21 3.73478 20.8946 3.48043 20.7071 3.29289C20.5196 3.10536 20.2652 3 20 3C19.7348 3 19.4804 3.10536 19.2929 3.29289C19.1054 3.48043 19 3.73478 19 4V17H32C32.2652 17 32.5196 16.8946 32.7071 16.7071C32.8946 16.5196 33 16.2652 33 16C33 15.7348 32.8946 15.4804 32.7071 15.2929C32.5196 15.1054 32.2652 15 32 15Z" fill="#01070E"/>
<path d="M4 19C3.73478 19 3.48043 19.1054 3.29289 19.2929C3.10536 19.4804 3 19.7348 3 20C3 20.2652 3.10536 20.5196 3.29289 20.7071C3.48043 20.8946 3.73478 21 4 21H13.59L4.33 30.25C4.22532 30.3396 4.1403 30.45 4.08027 30.574C4.02025 30.6981 3.98652 30.8332 3.9812 30.9709C3.97588 31.1087 3.99909 31.246 4.04936 31.3743C4.09964 31.5026 4.17589 31.6192 4.27335 31.7167C4.3708 31.8141 4.48735 31.8904 4.61568 31.9406C4.744 31.9909 4.88133 32.0141 5.01905 32.0088C5.15677 32.0035 5.29191 31.9697 5.41597 31.9097C5.54003 31.8497 5.65035 31.7647 5.74 31.66L15 22.41V32C15 32.2652 15.1054 32.5196 15.2929 32.7071C15.4804 32.8946 15.7348 33 16 33C16.2652 33 16.5196 32.8946 16.7071 32.7071C16.8946 32.5196 17 32.2652 17 32V19H4Z" fill="#01070E"/>
</svg>
