<svg width="36" height="36" viewBox="0 0 36 36" fill="none" xmlns="http://www.w3.org/2000/svg">
<path d="M21.61 11.0002H30.23L26.93 14.3002C26.8368 14.3928 26.7627 14.5028 26.712 14.624C26.6612 14.7453 26.6349 14.8753 26.6344 15.0067C26.6335 15.272 26.738 15.5269 26.925 15.7152C27.0176 15.8084 27.1276 15.8825 27.2488 15.9333C27.3701 15.984 27.5001 16.0103 27.6315 16.0108C27.8968 16.0117 28.1517 15.9072 28.34 15.7202L34 10.0802L33.29 9.37021L28.34 4.43021C28.2468 4.33763 28.1362 4.26432 28.0146 4.21446C27.8931 4.16461 27.7629 4.13919 27.6315 4.13965C27.5001 4.14012 27.3701 4.16646 27.2488 4.21717C27.1276 4.26788 27.0176 4.34197 26.925 4.43521C26.8324 4.52845 26.7591 4.63901 26.7093 4.76058C26.6594 4.88215 26.634 5.01235 26.6344 5.14375C26.6354 5.40911 26.7417 5.66323 26.93 5.85021L30.11 9.00021H21C20.8255 9.00126 20.6543 9.04797 20.5034 9.13568C20.3525 9.2234 20.2273 9.34907 20.14 9.50021L17.5 14.0902L18.66 16.0902L21.61 11.0002Z" fill="#01070E"/>
<path d="M11.07 25.07H3C2.73478 25.07 2.48043 25.1754 2.29289 25.3629C2.10536 25.5504 2 25.8048 2 26.07C2 26.3352 2.10536 26.5896 2.29289 26.7771C2.48043 26.9646 2.73478 27.07 3 27.07H11.65C11.8245 27.0689 11.9957 27.0222 12.1466 26.9345C12.2975 26.8468 12.4227 26.7211 12.51 26.57L15.18 22L14 20L11.07 25.07Z" fill="#01070E"/>
<path d="M28.34 20.1698C28.1517 19.9828 27.8968 19.8783 27.6315 19.8792C27.3661 19.8802 27.112 19.9865 26.925 20.1748C26.738 20.3631 26.6335 20.618 26.6344 20.8833C26.6354 21.1487 26.7417 21.4028 26.93 21.5898L30.43 25.0898H21.61L12.51 9.52979C12.4227 9.37865 12.2975 9.25298 12.1466 9.16526C11.9957 9.07754 11.8245 9.03084 11.65 9.02979H3C2.73478 9.02979 2.48043 9.13514 2.29289 9.32268C2.10536 9.51021 2 9.76457 2 10.0298C2 10.295 2.10536 10.5494 2.29289 10.7369C2.48043 10.9244 2.73478 11.0298 3 11.0298H11.07L20.17 26.5798C20.2573 26.7309 20.3825 26.8566 20.5334 26.9443C20.6843 27.032 20.8555 27.0787 21.03 27.0798H29.9L26.9 30.0798C26.8068 30.1724 26.7327 30.2824 26.682 30.4036C26.6312 30.5248 26.6049 30.6549 26.6044 30.7863C26.604 30.9176 26.6294 31.0478 26.6793 31.1694C26.7291 31.291 26.8024 31.4015 26.895 31.4948C26.9876 31.588 27.0976 31.6621 27.2188 31.7128C27.3401 31.7635 27.4701 31.7899 27.6015 31.7903C27.7329 31.7908 27.8631 31.7654 27.9846 31.7155C28.1062 31.6657 28.2168 31.5924 28.31 31.4998L33.26 26.5598L33.97 25.8498L28.34 20.1698Z" fill="#01070E"/>
</svg>
