<svg width="36" height="36" viewBox="0 0 36 36" fill="none" xmlns="http://www.w3.org/2000/svg">
<path d="M28 4H12C11.4696 4 10.9609 4.21071 10.5858 4.58579C10.2107 4.96086 10 5.46957 10 6H28V30H12V20.2H10V30C10 30.5304 10.2107 31.0391 10.5858 31.4142C10.9609 31.7893 11.4696 32 12 32H28C28.5304 32 29.0391 31.7893 29.4142 31.4142C29.7893 31.0391 30 30.5304 30 30V6C30 5.46957 29.7893 4.96086 29.4142 4.58579C29.0391 4.21071 28.5304 4 28 4Z" fill="#01070E"/>
<path d="M15.12 18.4598C15.0153 18.5494 14.9303 18.6597 14.8703 18.7838C14.8103 18.9079 14.7765 19.043 14.7712 19.1807C14.7659 19.3184 14.7891 19.4558 14.8394 19.5841C14.8896 19.7124 14.9659 19.829 15.0633 19.9264C15.1608 20.0239 15.2774 20.1001 15.4057 20.1504C15.534 20.2007 15.6713 20.2239 15.8091 20.2186C15.9468 20.2133 16.0819 20.1795 16.206 20.1195C16.33 20.0595 16.4404 19.9745 16.53 19.8698L22.32 14.0798L16.54 8.28977C16.3487 8.12595 16.1026 8.04034 15.8509 8.05006C15.5993 8.05978 15.3605 8.16412 15.1824 8.34221C15.0043 8.5203 14.9 8.75904 14.8903 9.01072C14.8806 9.2624 14.9662 9.50847 15.13 9.69977L18.5 12.9998H4C3.73478 12.9998 3.48043 13.1051 3.29289 13.2927C3.10536 13.4802 3 13.7346 3 13.9998C3 14.265 3.10536 14.5193 3.29289 14.7069C3.48043 14.8944 3.73478 14.9998 4 14.9998H18.5L15.12 18.4598Z" fill="#01070E"/>
</svg>
