<svg width="36" height="36" viewBox="0 0 36 36" fill="none" xmlns="http://www.w3.org/2000/svg">
<path d="M7 6H23V15.8H25V6C25 5.46957 24.7893 4.96086 24.4142 4.58579C24.0391 4.21071 23.5304 4 23 4H7C6.46957 4 5.96086 4.21071 5.58579 4.58579C5.21071 4.96086 5 5.46957 5 6V30C5 30.5304 5.21071 31.0391 5.58579 31.4142C5.96086 31.7893 6.46957 32 7 32H23C23.5304 32 24.0391 31.7893 24.4142 31.4142C24.7893 31.0391 25 30.5304 25 30H7V6Z" fill="#01070E"/>
<path d="M28.1609 17.28C27.9696 17.1162 27.7235 17.0306 27.4718 17.0403C27.2201 17.05 26.9814 17.1544 26.8033 17.3324C26.6252 17.5105 26.5209 17.7493 26.5111 18.001C26.5014 18.2526 26.587 18.4987 26.7509 18.69L30.1309 22H15.6309C15.3656 22 15.1113 22.1054 14.9238 22.2929C14.7362 22.4804 14.6309 22.7348 14.6309 23C14.6309 23.2652 14.7362 23.5196 14.9238 23.7071C15.1113 23.8947 15.3656 24 15.6309 24H30.1309L26.7509 27.46C26.6462 27.5497 26.5612 27.66 26.5011 27.784C26.4411 27.9081 26.4074 28.0432 26.4021 28.181C26.3967 28.3187 26.4199 28.456 26.4702 28.5843C26.5205 28.7127 26.5968 28.8292 26.6942 28.9267C26.7917 29.0241 26.9082 29.1004 27.0365 29.1506C27.1649 29.2009 27.3022 29.2241 27.4399 29.2188C27.5776 29.2135 27.7128 29.1798 27.8368 29.1197C27.9609 29.0597 28.0712 28.9747 28.1609 28.87L34.0009 23.07L28.1609 17.28Z" fill="#01070E"/>
</svg>
