<svg width="36" height="36" viewBox="0 0 36 36" fill="none" xmlns="http://www.w3.org/2000/svg">
<path d="M12 12.37C12.0038 11.4803 11.7109 10.6147 11.1675 9.91022C10.6242 9.20569 9.86148 8.70242 9.00003 8.48V5C9.00003 4.73478 8.89467 4.48043 8.70714 4.29289C8.5196 4.10536 8.26525 4 8.00003 4C7.73481 4 7.48046 4.10536 7.29292 4.29289C7.10539 4.48043 7.00003 4.73478 7.00003 5V8.48C6.12589 8.68935 5.34774 9.18701 4.79106 9.89275C4.23439 10.5985 3.93164 11.4711 3.93164 12.37C3.93164 13.2689 4.23439 14.1415 4.79106 14.8473C5.34774 15.553 6.12589 16.0507 7.00003 16.26V31C7.00003 31.2652 7.10539 31.5196 7.29292 31.7071C7.48046 31.8946 7.73481 32 8.00003 32C8.26525 32 8.5196 31.8946 8.70714 31.7071C8.89467 31.5196 9.00003 31.2652 9.00003 31V16.26C9.86148 16.0376 10.6242 15.5343 11.1675 14.8298C11.7109 14.1253 12.0038 13.2597 12 12.37ZM8.00003 14.37C7.60447 14.37 7.21779 14.2527 6.88889 14.0329C6.55999 13.8132 6.30365 13.5008 6.15227 13.1354C6.00089 12.7699 5.96129 12.3678 6.03846 11.9798C6.11563 11.5919 6.30611 11.2355 6.58582 10.9558C6.86552 10.6761 7.22189 10.4856 7.60985 10.4084C7.99781 10.3313 8.39994 10.3709 8.7654 10.5222C9.13085 10.6736 9.44321 10.93 9.66297 11.2589C9.88273 11.5878 10 11.9744 10 12.37C10.004 12.6352 9.95521 12.8985 9.85649 13.1446C9.75776 13.3907 9.61107 13.6147 9.42496 13.8036C9.23884 13.9926 9.01702 14.1426 8.77239 14.2449C8.52776 14.3473 8.26522 14.4 8.00003 14.4V14.37Z" fill="#01070E"/>
<path d="M32 15.83C32.0038 14.9403 31.7109 14.0747 31.1675 13.3702C30.6242 12.6657 29.8615 12.1624 29 11.94V5C29 4.73478 28.8947 4.48043 28.7071 4.29289C28.5196 4.10536 28.2652 4 28 4C27.7348 4 27.4805 4.10536 27.2929 4.29289C27.1054 4.48043 27 4.73478 27 5V11.94C26.1259 12.1493 25.3477 12.647 24.7911 13.3527C24.2344 14.0585 23.9316 14.9311 23.9316 15.83C23.9316 16.7289 24.2344 17.6015 24.7911 18.3073C25.3477 19.013 26.1259 19.5107 27 19.72V31C27 31.2652 27.1054 31.5196 27.2929 31.7071C27.4805 31.8946 27.7348 32 28 32C28.2652 32 28.5196 31.8946 28.7071 31.7071C28.8947 31.5196 29 31.2652 29 31V19.72C29.8615 19.4976 30.6242 18.9943 31.1675 18.2898C31.7109 17.5853 32.0038 16.7197 32 15.83ZM28 17.83C27.6045 17.83 27.2178 17.7127 26.8889 17.4929C26.56 17.2732 26.3036 16.9608 26.1523 16.5954C26.0009 16.2299 25.9613 15.8278 26.0385 15.4398C26.1156 15.0519 26.3061 14.6955 26.5858 14.4158C26.8655 14.1361 27.2219 13.9456 27.6098 13.8684C27.9978 13.7913 28.3999 13.8309 28.7654 13.9822C29.1308 14.1336 29.4432 14.39 29.663 14.7189C29.8827 15.0478 30 15.4344 30 15.83C30.0053 16.096 29.9575 16.3604 29.8594 16.6077C29.7613 16.8549 29.6148 17.0802 29.4286 17.2701C29.2423 17.4601 29.02 17.611 28.7747 17.714C28.5295 17.817 28.2661 17.8701 28 17.87V17.83Z" fill="#01070E"/>
<path d="M22 24.5C22.0038 23.6103 21.7109 22.7447 21.1675 22.0402C20.6242 21.3357 19.8615 20.8324 19 20.61V5C19 4.73478 18.8947 4.48043 18.7071 4.29289C18.5196 4.10536 18.2652 4 18 4C17.7348 4 17.4805 4.10536 17.2929 4.29289C17.1054 4.48043 17 4.73478 17 5V20.61C16.1259 20.8193 15.3477 21.317 14.7911 22.0227C14.2344 22.7285 13.9316 23.6011 13.9316 24.5C13.9316 25.3989 14.2344 26.2715 14.7911 26.9773C15.3477 27.683 16.1259 28.1807 17 28.39V31C17 31.2652 17.1054 31.5196 17.2929 31.7071C17.4805 31.8946 17.7348 32 18 32C18.2652 32 18.5196 31.8946 18.7071 31.7071C18.8947 31.5196 19 31.2652 19 31V28.39C19.8615 28.1676 20.6242 27.6643 21.1675 26.9598C21.7109 26.2553 22.0038 25.3897 22 24.5ZM18 26.5C17.6045 26.5 17.2178 26.3827 16.8889 26.1629C16.56 25.9432 16.3036 25.6308 16.1523 25.2654C16.0009 24.8999 15.9613 24.4978 16.0385 24.1098C16.1156 23.7219 16.3061 23.3655 16.5858 23.0858C16.8655 22.8061 17.2219 22.6156 17.6098 22.5384C17.9978 22.4613 18.3999 22.5009 18.7654 22.6522C19.1308 22.8036 19.4432 23.06 19.663 23.3889C19.8827 23.7178 20 24.1044 20 24.5C20.004 24.7652 19.9552 25.0285 19.8565 25.2746C19.7578 25.5207 19.6111 25.7447 19.425 25.9336C19.2388 26.1226 19.017 26.2726 18.7724 26.3749C18.5278 26.4773 18.2652 26.53 18 26.53V26.5Z" fill="#01070E"/>
</svg>
