<svg width="36" height="36" viewBox="0 0 36 36" fill="none" xmlns="http://www.w3.org/2000/svg">
<path d="M18.0504 33.6102C17.7852 33.6102 17.5308 33.5048 17.3433 33.3173C17.1557 33.1297 17.0504 32.8754 17.0504 32.6102V3.37015C17.017 3.22371 17.0171 3.07162 17.0505 2.92519C17.084 2.77876 17.15 2.64175 17.2437 2.52433C17.3373 2.40691 17.4562 2.3121 17.5916 2.24695C17.7269 2.18179 17.8752 2.14795 18.0254 2.14795C18.1756 2.14795 18.3239 2.18179 18.4592 2.24695C18.5945 2.3121 18.7135 2.40691 18.8071 2.52433C18.9008 2.64175 18.9668 2.77876 19.0003 2.92519C19.0337 3.07162 19.0338 3.22371 19.0004 3.37015V32.6302C18.9956 32.8835 18.8949 33.1255 18.7186 33.3074C18.5422 33.4893 18.3034 33.5975 18.0504 33.6102Z" fill="#01070E"/>
<path d="M18.0593 10.0701L14.5193 6.54015C14.3331 6.35279 14.2285 6.09933 14.2285 5.83515C14.2285 5.57096 14.3331 5.31751 14.5193 5.13015C14.7067 4.9439 14.9601 4.83936 15.2243 4.83936C15.4885 4.83936 15.7419 4.9439 15.9293 5.13015L18.0593 7.25015L20.1793 5.13015C20.3667 4.9439 20.6201 4.83936 20.8843 4.83936C21.1485 4.83936 21.4019 4.9439 21.5893 5.13015C21.7756 5.31751 21.8801 5.57096 21.8801 5.83515C21.8801 6.09933 21.7756 6.35279 21.5893 6.54015L18.0593 10.0701Z" fill="#01070E"/>
<path d="M20.8492 31.1702C20.5868 31.1691 20.3354 31.0649 20.1492 30.8802L17.9992 28.7602L15.8992 30.8802C15.7118 31.0664 15.4583 31.171 15.1942 31.171C14.93 31.171 14.6765 31.0664 14.4892 30.8802C14.3954 30.7872 14.321 30.6766 14.2703 30.5548C14.2195 30.4329 14.1934 30.3022 14.1934 30.1702C14.1934 30.0382 14.2195 29.9075 14.2703 29.7856C14.321 29.6637 14.3954 29.5531 14.4892 29.4602L17.9992 25.9302L21.5392 29.4602C21.6329 29.5531 21.7073 29.6637 21.758 29.7856C21.8088 29.9075 21.835 30.0382 21.835 30.1702C21.835 30.3022 21.8088 30.4329 21.758 30.5548C21.7073 30.6766 21.6329 30.7872 21.5392 30.8802C21.3554 31.0625 21.108 31.1665 20.8492 31.1702Z" fill="#01070E"/>
<path d="M30.9195 26.5002C30.7443 26.5014 30.5719 26.4565 30.4195 26.3702L4.41948 11.3702C4.19143 11.2349 4.02644 11.0145 3.96081 10.7576C3.89517 10.5007 3.93426 10.2282 4.06948 10.0002C4.13565 9.8864 4.22361 9.78682 4.32834 9.70713C4.43306 9.62744 4.55248 9.56921 4.67975 9.53576C4.80703 9.50232 4.93965 9.49432 5.07002 9.51224C5.20039 9.53015 5.32595 9.57362 5.43948 9.64015L31.4395 24.6402C31.6321 24.7493 31.7831 24.9193 31.8687 25.1235C31.9543 25.3277 31.9697 25.5546 31.9125 25.7685C31.8553 25.9824 31.7288 26.1713 31.5527 26.3055C31.3766 26.4397 31.1609 26.5117 30.9395 26.5102L30.9195 26.5002Z" fill="#01070E"/>
<path d="M5.99975 15.3701C5.73453 15.4046 5.46648 15.3323 5.25456 15.1691C5.04265 15.006 4.90422 14.7653 4.86975 14.5001C4.83527 14.2349 4.90756 13.9668 5.07072 13.7549C5.23387 13.543 5.47453 13.4046 5.73975 13.3701L8.63975 12.5901L7.83975 9.73011C7.80041 9.6018 7.78731 9.46688 7.80121 9.33339C7.81512 9.19991 7.85575 9.07059 7.92069 8.95314C7.98563 8.83569 8.07355 8.73251 8.1792 8.64976C8.28486 8.567 8.40609 8.50636 8.53568 8.47144C8.66526 8.43653 8.80055 8.42806 8.93348 8.44653C9.06641 8.465 9.19426 8.51005 9.30942 8.57897C9.42457 8.6479 9.52467 8.7393 9.60376 8.84773C9.68284 8.95616 9.7393 9.0794 9.76975 9.21011L11.0697 14.0001L6.23975 15.3301C6.16218 15.3553 6.08129 15.3688 5.99975 15.3701Z" fill="#01070E"/>
<path d="M27.0508 27.5402C26.8237 27.5474 26.6009 27.477 26.4192 27.3407C26.2374 27.2043 26.1075 27.0102 26.0508 26.7902L24.8008 22.0002L29.6208 20.7002C29.7491 20.6608 29.884 20.6477 30.0175 20.6616C30.151 20.6755 30.2803 20.7162 30.3978 20.7811C30.5152 20.8461 30.6184 20.934 30.7011 21.0396C30.7839 21.1453 30.8445 21.2665 30.8794 21.3961C30.9144 21.5257 30.9228 21.661 30.9044 21.7939C30.8859 21.9268 30.8408 22.0547 30.7719 22.1698C30.703 22.285 30.6116 22.3851 30.5032 22.4642C30.3947 22.5433 30.2715 22.5997 30.1408 22.6302L27.2408 23.4102L28.0208 26.3102C28.0879 26.5661 28.0509 26.8382 27.9178 27.0668C27.7847 27.2955 27.5664 27.4621 27.3108 27.5302C27.2254 27.5486 27.1374 27.552 27.0508 27.5402Z" fill="#01070E"/>
<path d="M4.94059 26.5C4.71917 26.5015 4.5035 26.4295 4.3274 26.2953C4.1513 26.1611 4.02473 25.9722 3.96753 25.7583C3.91034 25.5444 3.92575 25.3175 4.01137 25.1133C4.09698 24.9091 4.24794 24.7391 4.44059 24.63L30.4406 9.62996C30.669 9.49875 30.94 9.46296 31.1946 9.53037C31.4492 9.59777 31.667 9.76293 31.8006 9.98996C31.8671 10.1035 31.9106 10.2291 31.9285 10.3594C31.9464 10.4898 31.9384 10.6224 31.905 10.7497C31.8715 10.877 31.8133 10.9964 31.7336 11.1011C31.6539 11.2058 31.5543 11.2938 31.4406 11.36L5.44059 26.36C5.28915 26.4498 5.11667 26.4981 4.94059 26.5Z" fill="#01070E"/>
<path d="M8.80958 27.54C8.72358 27.5551 8.63559 27.5551 8.54958 27.54C8.29392 27.4719 8.07566 27.3053 7.94258 27.0766C7.80951 26.848 7.77247 26.5759 7.83958 26.32L8.61958 23.42L5.71958 22.64C5.58768 22.6077 5.46373 22.549 5.35528 22.4673C5.24683 22.3855 5.15616 22.2826 5.08879 22.1647C5.02142 22.0468 4.97877 21.9164 4.96343 21.7815C4.94809 21.6466 4.96039 21.51 4.99958 21.38C5.03322 21.2523 5.09182 21.1325 5.17198 21.0276C5.25215 20.9227 5.3523 20.8347 5.46665 20.7687C5.581 20.7027 5.7073 20.66 5.83824 20.643C5.96919 20.6261 6.10219 20.6352 6.22958 20.67L11.0696 22L9.76958 26.82C9.709 27.0277 9.58268 27.2101 9.40958 27.34C9.23649 27.4698 9.02595 27.54 8.80958 27.54Z" fill="#01070E"/>
<path d="M29.8808 15.3699C29.7947 15.3837 29.7069 15.3837 29.6208 15.3699L24.8008 13.9999L26.0908 9.16986C26.1168 9.03272 26.1712 8.90254 26.2505 8.78769C26.3298 8.67285 26.4323 8.57587 26.5513 8.50302C26.6704 8.43016 26.8033 8.38303 26.9417 8.36466C27.0801 8.34629 27.2207 8.35708 27.3547 8.39635C27.4886 8.43562 27.6128 8.50249 27.7194 8.59266C27.8259 8.68284 27.9124 8.79431 27.9732 8.91992C28.0341 9.04552 28.068 9.18248 28.0727 9.32197C28.0775 9.46146 28.053 9.60041 28.0008 9.72986L27.2208 12.6199L30.1208 13.3999C30.386 13.4343 30.6267 13.5728 30.7898 13.7847C30.953 13.9966 31.0253 14.2646 30.9908 14.5299C30.9563 14.7951 30.8179 15.0357 30.606 15.1989C30.394 15.362 30.126 15.4343 29.8608 15.3999L29.8808 15.3699Z" fill="#01070E"/>
</svg>
