<svg width="36" height="36" viewBox="0 0 36 36" fill="none" xmlns="http://www.w3.org/2000/svg">
<path d="M28.5409 13H7.46094C7.19572 13 6.94137 12.8946 6.75383 12.7071C6.56629 12.5196 6.46094 12.2652 6.46094 12C6.46094 11.7348 6.56629 11.4804 6.75383 11.2929C6.94137 11.1054 7.19572 11 7.46094 11H28.5409C28.8062 11 29.0605 11.1054 29.248 11.2929C29.4356 11.4804 29.5409 11.7348 29.5409 12C29.5409 12.2652 29.4356 12.5196 29.248 12.7071C29.0605 12.8946 28.8062 13 28.5409 13Z" fill="#01070E"/>
<path d="M21.1709 19H7.46094C7.19572 19 6.94137 18.8946 6.75383 18.7071C6.56629 18.5196 6.46094 18.2652 6.46094 18C6.46094 17.7348 6.56629 17.4804 6.75383 17.2929C6.94137 17.1054 7.19572 17 7.46094 17H21.1709C21.4362 17 21.6905 17.1054 21.878 17.2929C22.0656 17.4804 22.1709 17.7348 22.1709 18C22.1709 18.2652 22.0656 18.5196 21.878 18.7071C21.6905 18.8946 21.4362 19 21.1709 19Z" fill="#01070E"/>
<path d="M13.7409 25H7.46094C7.19572 25 6.94137 24.8946 6.75383 24.7071C6.56629 24.5196 6.46094 24.2652 6.46094 24C6.46094 23.7348 6.56629 23.4804 6.75383 23.2929C6.94137 23.1054 7.19572 23 7.46094 23H13.7409C14.0062 23 14.2605 23.1054 14.448 23.2929C14.6356 23.4804 14.7409 23.7348 14.7409 24C14.7409 24.2652 14.6356 24.5196 14.448 24.7071C14.2605 24.8946 14.0062 25 13.7409 25Z" fill="#01070E"/>
</svg>
