<svg width="36" height="36" viewBox="0 0 36 36" fill="none" xmlns="http://www.w3.org/2000/svg">
<path d="M18 6.99994C17.7348 6.99994 17.4804 6.89458 17.2929 6.70705C17.1054 6.51951 17 6.26516 17 5.99994V3.18994C17 2.92472 17.1054 2.67037 17.2929 2.48283C17.4804 2.2953 17.7348 2.18994 18 2.18994C18.2652 2.18994 18.5196 2.2953 18.7071 2.48283C18.8946 2.67037 19 2.92472 19 3.18994V5.99994C19 6.26516 18.8946 6.51951 18.7071 6.70705C18.5196 6.89458 18.2652 6.99994 18 6.99994Z" fill="#01070E"/>
<path d="M18 34C17.7348 34 17.4804 33.8946 17.2929 33.7071C17.1054 33.5196 17 33.2652 17 33V30C17 29.7348 17.1054 29.4804 17.2929 29.2929C17.4804 29.1054 17.7348 29 18 29C18.2652 29 18.5196 29.1054 18.7071 29.2929C18.8946 29.4804 19 29.7348 19 30V33C19 33.2652 18.8946 33.5196 18.7071 33.7071C18.5196 33.8946 18.2652 34 18 34Z" fill="#01070E"/>
<path d="M7.40947 18.0002L9.18947 16.2302C9.37777 16.0419 9.48356 15.7865 9.48356 15.5202C9.48356 15.2539 9.37777 14.9985 9.18947 14.8102C9.00117 14.6219 8.74577 14.5161 8.47947 14.5161C8.21317 14.5161 7.95777 14.6219 7.76947 14.8102L5.99947 16.5902L4.22947 14.8102C4.04117 14.6219 3.78577 14.5161 3.51947 14.5161C3.25317 14.5161 2.99777 14.6219 2.80947 14.8102C2.62117 14.9985 2.51538 15.2539 2.51538 15.5202C2.51538 15.7865 2.62117 16.0419 2.80947 16.2302L4.58947 18.0002L2.80947 19.7702C2.71574 19.8632 2.64135 19.9738 2.59058 20.0956C2.53981 20.2175 2.51367 20.3482 2.51367 20.4802C2.51367 20.6122 2.53981 20.7429 2.59058 20.8648C2.64135 20.9866 2.71574 21.0972 2.80947 21.1902C2.90291 21.2829 3.01373 21.3562 3.13556 21.406C3.2574 21.4557 3.38786 21.481 3.51947 21.4802C3.65108 21.481 3.78154 21.4557 3.90338 21.406C4.02521 21.3562 4.13603 21.2829 4.22947 21.1902L5.99947 19.4102L7.76947 21.1902C7.86243 21.2839 7.97303 21.3583 8.09489 21.4091C8.21675 21.4599 8.34746 21.486 8.47947 21.486C8.61148 21.486 8.74219 21.4599 8.86405 21.4091C8.98591 21.3583 9.09651 21.2839 9.18947 21.1902C9.2832 21.0972 9.35759 20.9866 9.40836 20.8648C9.45913 20.7429 9.48527 20.6122 9.48527 20.4802C9.48527 20.3482 9.45913 20.2175 9.40836 20.0956C9.35759 19.9738 9.2832 19.8632 9.18947 19.7702L7.40947 18.0002Z" fill="#01070E"/>
<path d="M6 13.7598L6.36 13.3998C6.91962 12.8395 7.67809 12.5232 8.47 12.5198C9.43892 10.8599 10.8259 9.4828 12.4927 8.52575C14.1595 7.5687 16.048 7.06508 17.97 7.06508C19.892 7.06508 21.7805 7.5687 23.4473 8.52575C25.1141 9.4828 26.5011 10.8599 27.47 12.5198C28.2654 12.5205 29.0279 12.837 29.59 13.3998L29.95 13.7598L30.15 13.5598C29.2313 11.0636 27.569 8.90925 25.3874 7.38749C23.2058 5.86573 20.6099 5.0498 17.95 5.0498C15.2901 5.0498 12.6942 5.86573 10.5126 7.38749C8.33099 8.90925 6.66869 11.0636 5.75 13.5598L6 13.7598Z" fill="#01070E"/>
<path d="M30.0008 22.2402L29.6408 22.6002C29.0787 23.163 28.3162 23.4795 27.5208 23.4802C26.5519 25.1402 25.1649 26.5173 23.4981 27.4743C21.8313 28.4314 19.9428 28.935 18.0208 28.935C16.0988 28.935 14.2103 28.4314 12.5435 27.4743C10.8767 26.5173 9.48971 25.1402 8.52078 23.4802C7.7254 23.4795 6.96285 23.163 6.40078 22.6002L6.00078 22.2402L5.80078 22.4402C6.71947 24.9365 8.38177 27.0908 10.5634 28.6126C12.745 30.1343 15.3409 30.9502 18.0008 30.9502C20.6607 30.9502 23.2566 30.1343 25.4382 28.6126C27.6198 27.0908 29.2821 24.9365 30.2008 22.4402L30.0008 22.2402Z" fill="#01070E"/>
<path d="M31.4095 18.0002L33.1895 16.2302C33.2827 16.137 33.3567 16.0263 33.4071 15.9045C33.4576 15.7826 33.4836 15.6521 33.4836 15.5202C33.4836 15.3883 33.4576 15.2578 33.4071 15.136C33.3567 15.0141 33.2827 14.9034 33.1895 14.8102C33.0962 14.717 32.9855 14.643 32.8637 14.5925C32.7419 14.5421 32.6113 14.5161 32.4795 14.5161C32.3476 14.5161 32.217 14.5421 32.0952 14.5925C31.9734 14.643 31.8627 14.717 31.7695 14.8102L29.9995 16.5902L28.2295 14.8102C28.1362 14.717 28.0255 14.643 27.9037 14.5925C27.7819 14.5421 27.6513 14.5161 27.5195 14.5161C27.3876 14.5161 27.257 14.5421 27.1352 14.5925C27.0134 14.643 26.9027 14.717 26.8095 14.8102C26.7162 14.9034 26.6423 15.0141 26.5918 15.136C26.5413 15.2578 26.5154 15.3883 26.5154 15.5202C26.5154 15.6521 26.5413 15.7826 26.5918 15.9045C26.6423 16.0263 26.7162 16.137 26.8095 16.2302L28.5895 18.0002L26.8095 19.7702C26.7157 19.8632 26.6413 19.9738 26.5906 20.0956C26.5398 20.2175 26.5137 20.3482 26.5137 20.4802C26.5137 20.6122 26.5398 20.7429 26.5906 20.8648C26.6413 20.9866 26.7157 21.0972 26.8095 21.1902C26.9029 21.2829 27.0137 21.3562 27.1356 21.406C27.2574 21.4557 27.3879 21.481 27.5195 21.4802C27.6511 21.481 27.7815 21.4557 27.9034 21.406C28.0252 21.3562 28.136 21.2829 28.2295 21.1902L29.9995 19.4102L31.7695 21.1902C31.8624 21.2839 31.973 21.3583 32.0949 21.4091C32.2168 21.4599 32.3475 21.486 32.4795 21.486C32.6115 21.486 32.7422 21.4599 32.864 21.4091C32.9859 21.3583 33.0965 21.2839 33.1895 21.1902C33.2832 21.0972 33.3576 20.9866 33.4084 20.8648C33.4591 20.7429 33.4853 20.6122 33.4853 20.4802C33.4853 20.3482 33.4591 20.2175 33.4084 20.0956C33.3576 19.9738 33.2832 19.8632 33.1895 19.7702L31.4095 18.0002Z" fill="#01070E"/>
</svg>
