<svg width="36" height="36" viewBox="0 0 36 36" fill="none" xmlns="http://www.w3.org/2000/svg">
<path d="M32 6H4C3.46957 6 2.96086 6.21071 2.58579 6.58579C2.21071 6.96086 2 7.46957 2 8V28C2 28.5304 2.21071 29.0391 2.58579 29.4142C2.96086 29.7893 3.46957 30 4 30H32C32.5304 30 33.0391 29.7893 33.4142 29.4142C33.7893 29.0391 34 28.5304 34 28V8C34 7.46957 33.7893 6.96086 33.4142 6.58579C33.0391 6.21071 32.5304 6 32 6ZM32 28H4V8H32V28Z" fill="#01070E"/>
<path d="M6.21094 11.5C6.90129 11.5 7.46094 10.9404 7.46094 10.25C7.46094 9.55964 6.90129 9 6.21094 9C5.52058 9 4.96094 9.55964 4.96094 10.25C4.96094 10.9404 5.52058 11.5 6.21094 11.5Z" fill="#01070E"/>
<path d="M29.8105 11.5C30.5009 11.5 31.0605 10.9404 31.0605 10.25C31.0605 9.55964 30.5009 9 29.8105 9C29.1202 9 28.5605 9.55964 28.5605 10.25C28.5605 10.9404 29.1202 11.5 29.8105 11.5Z" fill="#01070E"/>
<path d="M6.21094 26.6699C6.90129 26.6699 7.46094 26.1103 7.46094 25.4199C7.46094 24.7296 6.90129 24.1699 6.21094 24.1699C5.52058 24.1699 4.96094 24.7296 4.96094 25.4199C4.96094 26.1103 5.52058 26.6699 6.21094 26.6699Z" fill="#01070E"/>
<path d="M29.8105 26.6699C30.5009 26.6699 31.0605 26.1103 31.0605 25.4199C31.0605 24.7296 30.5009 24.1699 29.8105 24.1699C29.1202 24.1699 28.5605 24.7296 28.5605 25.4199C28.5605 26.1103 29.1202 26.6699 29.8105 26.6699Z" fill="#01070E"/>
<path d="M9.99906 18.6201C11.3191 18.9301 11.9091 19.1601 11.9091 19.8401C11.9091 20.5201 11.3791 20.9301 10.3591 20.9301C9.34789 20.916 8.37961 20.5194 7.64906 19.8201L6.78906 20.8801C7.74288 21.7685 9.00592 22.2493 10.3091 22.2201C12.3091 22.2201 13.4091 21.2201 13.4091 19.7001C13.4091 18.1801 12.2591 17.6501 10.5391 17.2601C9.22906 16.9601 8.61906 16.7201 8.61906 16.0501C8.66862 15.7306 8.84007 15.4427 9.09739 15.2469C9.35471 15.0511 9.6779 14.9627 9.99906 15.0001C10.8836 15.0375 11.7251 15.3925 12.3691 16.0001L13.1791 14.9001C12.3138 14.1034 11.1751 13.6701 9.99906 13.6901C8.25906 13.6901 6.99906 14.7401 6.99906 16.1801C6.99906 17.6201 8.25906 18.2201 9.99906 18.6201Z" fill="#01070E"/>
<path d="M17.8298 20.9299C16.8186 20.9158 15.8503 20.5192 15.1198 19.8199L14.2598 20.8799C15.2136 21.7684 16.4766 22.2492 17.7798 22.2199C19.7798 22.2199 20.8798 21.2199 20.8798 19.6999C20.8798 18.1799 19.7298 17.6499 17.9998 17.2599C16.6898 16.9599 16.0798 16.7199 16.0798 16.0499C16.1293 15.7265 16.3036 15.4354 16.5654 15.2391C16.8271 15.0428 17.1554 14.9569 17.4798 14.9999C18.3643 15.0373 19.2058 15.3924 19.8498 15.9999L20.6598 14.8999C19.8016 14.1376 18.6874 13.7269 17.5398 13.7499C15.8098 13.7499 14.5398 14.7999 14.5398 16.2399C14.5398 17.6799 15.7298 18.2399 17.4298 18.6799C18.7498 18.9899 19.3398 19.2199 19.3398 19.8999C19.3398 20.5799 18.8498 20.9299 17.8298 20.9299Z" fill="#01070E"/>
<path d="M29.8994 17.9999C29.8994 15.5899 27.9794 13.8799 25.2594 13.8799H22.3594V22.1199H25.2594C27.9994 22.0799 29.8994 20.3699 29.8994 17.9999ZM23.8994 15.2399H25.4594C25.8365 15.2172 26.2142 15.2719 26.5694 15.4006C26.9246 15.5293 27.2497 15.7293 27.5247 15.9882C27.7997 16.2472 28.0189 16.5597 28.1687 16.9065C28.3185 17.2533 28.3957 17.6271 28.3957 18.0049C28.3957 18.3827 28.3185 18.7564 28.1687 19.1032C28.0189 19.45 27.7997 19.7625 27.5247 20.0215C27.2497 20.2805 26.9246 20.4805 26.5694 20.6092C26.2142 20.7379 25.8365 20.7926 25.4594 20.7699H23.8594L23.8994 15.2399Z" fill="#01070E"/>
</svg>
