<svg width="36" height="36" viewBox="0 0 36 36" fill="none" xmlns="http://www.w3.org/2000/svg">
<path d="M5.00002 32.2302C4.46958 32.2302 3.96087 32.0194 3.5858 31.6444C3.21073 31.2693 3.00002 30.7606 3.00002 30.2302V5.77015C2.99855 5.40122 3.09916 5.03907 3.29072 4.72376C3.48228 4.40845 3.75733 4.15228 4.08543 3.98357C4.41353 3.81486 4.78191 3.74019 5.14981 3.76783C5.51771 3.79546 5.8708 3.92432 6.17002 4.14015L23.23 16.3802C23.4881 16.5653 23.6984 16.8093 23.8434 17.0919C23.9884 17.3745 24.0641 17.6875 24.0641 18.0052C24.0641 18.3228 23.9884 18.6358 23.8434 18.9184C23.6984 19.201 23.4881 19.445 23.23 19.6302L6.17002 31.8602C5.82842 32.103 5.41915 32.2325 5.00002 32.2302ZM5.00002 5.77015V30.2302L22.07 18.0002L5.00002 5.77015Z" fill="#01070E"/>
<path d="M31 32H28C27.4696 32 26.9609 31.7893 26.5858 31.4142C26.2107 31.0391 26 30.5304 26 30V6C26 5.46957 26.2107 4.96086 26.5858 4.58579C26.9609 4.21071 27.4696 4 28 4H31C31.5304 4 32.0391 4.21071 32.4142 4.58579C32.7893 4.96086 33 5.46957 33 6V30C33 30.5304 32.7893 31.0391 32.4142 31.4142C32.0391 31.7893 31.5304 32 31 32ZM28 6V30H31V6H28Z" fill="#01070E"/>
</svg>
