<svg width="36" height="36" viewBox="0 0 36 36" fill="none" xmlns="http://www.w3.org/2000/svg">
<path d="M7.08042 6.52015C6.92077 6.67657 6.79394 6.86328 6.70735 7.06933C6.62077 7.27538 6.57617 7.49664 6.57617 7.72015C6.57617 7.94366 6.62077 8.16492 6.70735 8.37097C6.79394 8.57702 6.92077 8.76373 7.08042 8.92015L16.5104 18.0001L7.12042 27.0801C6.8258 27.3992 6.66445 27.8189 6.66947 28.2531C6.67449 28.6874 6.8455 29.1032 7.14741 29.4153C7.44933 29.7275 7.85925 29.9123 8.29307 29.9318C8.7269 29.9512 9.15173 29.804 9.48042 29.5201L21.4004 18.0001L9.48042 6.47015C9.32003 6.31495 9.13049 6.19305 8.92274 6.1115C8.71498 6.02994 8.49313 5.99035 8.27 5.995C8.04686 5.99964 7.82685 6.04845 7.62268 6.13858C7.4185 6.22872 7.2342 6.3584 7.08042 6.52015Z" fill="#01070E"/>
<path d="M26.4891 5C26.0382 5 25.6058 5.17911 25.287 5.49792C24.9682 5.81673 24.7891 6.24913 24.7891 6.7V29.3C24.7891 29.7509 24.9682 30.1833 25.287 30.5021C25.6058 30.8209 26.0382 31 26.4891 31C26.9399 31 27.3723 30.8209 27.6911 30.5021C28.01 30.1833 28.1891 29.7509 28.1891 29.3V6.7C28.1891 6.24913 28.01 5.81673 27.6911 5.49792C27.3723 5.17911 26.9399 5 26.4891 5Z" fill="#01070E"/>
</svg>
