<svg width="36" height="36" viewBox="0 0 36 36" fill="none" xmlns="http://www.w3.org/2000/svg">
<path d="M33 6.68986C32.82 3.27986 23.53 2.35986 18 2.35986C12.47 2.35986 3 3.28986 3 6.77986V29.3699C3 32.8599 12.43 33.7999 18 33.7999C23.57 33.7999 33 32.8699 33 29.3699V6.77986C33 6.77986 33 6.69986 33 6.68986ZM31 14.2499C30.67 15.1099 25.94 16.6999 18 16.6999C14.2862 16.7946 10.5789 16.3363 7 15.3399V17.4199C10.5968 18.3154 14.2937 18.7456 18 18.6999C22 18.6999 27.93 18.2199 31 16.6999V21.8699C30.67 22.7299 25.94 24.3199 18 24.3199C14.2842 24.4016 10.5769 23.9298 7 22.9199V24.9999C10.5968 25.8954 14.2937 26.3256 18 26.2799C22 26.2799 27.93 25.7999 31 24.2799V29.3799C30.65 30.2399 25.92 31.8299 18 31.8299C10.08 31.8299 5.3 30.1999 5 29.3699V6.81986C5.3 5.99986 10 4.35986 18 4.35986C25.77 4.35986 30.46 5.88986 31 6.72986C30.48 7.59986 25.79 9.11986 18 9.11986C14.2863 9.21242 10.5793 8.75411 7 7.75986V9.84986C10.5977 10.7397 14.2942 11.1665 18 11.1199C22 11.1199 27.93 10.6399 31 9.11986V14.2499Z" fill="#01070E"/>
</svg>
