<svg width="36" height="36" viewBox="0 0 36 36" fill="none" xmlns="http://www.w3.org/2000/svg">
<path d="M19.51 9.08977L18 9.10977C14.2868 9.20557 10.5799 8.75063 7 7.75977V9.84977C10.5977 10.7396 14.2942 11.1664 18 11.1198H18.61C18.6661 10.6899 18.7982 10.2734 19 9.88977L19.51 9.08977Z" fill="#01070E"/>
<path d="M28.83 15.3999C25.3003 16.3467 21.6535 16.7845 18 16.6999C14.2862 16.7946 10.5789 16.3363 7 15.3399V17.4199C10.5968 18.3153 14.2937 18.7454 18 18.6999C22 18.6999 27.93 18.2199 31 16.6999V21.8699C30.67 22.7299 25.94 24.3199 18 24.3199C14.2842 24.4016 10.5769 23.9298 7 22.9199V24.9999C10.5968 25.8953 14.2937 26.3254 18 26.2799C22 26.2799 27.93 25.7999 31 24.2799V29.3799C30.65 30.2399 25.92 31.8299 18 31.8299C10.08 31.8299 5.3 30.1999 5 29.3699V6.81986C5.3 5.99986 10 4.35986 18 4.35986C19.5 4.35986 20.89 4.41986 22.15 4.51986L23.25 2.61986C21.39 2.43986 19.55 2.35986 18 2.35986C12.43 2.35986 3 3.28986 3 6.78986V29.3699C3 32.8599 12.43 33.7999 18 33.7999C23.57 33.7999 33 32.8699 33 29.3699V15.3699L28.83 15.3999Z" fill="#01070E"/>
<path d="M26.8504 1.13981L21.1304 10.9998C20.9973 11.1951 20.9209 11.4235 20.9097 11.6596C20.8984 11.8957 20.9527 12.1303 21.0666 12.3374C21.1806 12.5445 21.3496 12.716 21.555 12.8329C21.7604 12.9498 21.9942 13.0076 22.2304 12.9998H33.6804C33.9166 13.0076 34.1504 12.9498 34.3558 12.8329C34.5612 12.716 34.7302 12.5445 34.8441 12.3374C34.958 12.1303 35.0123 11.8957 35.0011 11.6596C34.9898 11.4235 34.9135 11.1951 34.7804 10.9998L29.0604 1.13981C28.9476 0.946869 28.7862 0.786825 28.5923 0.675603C28.3985 0.564381 28.1789 0.505859 27.9554 0.505859C27.7319 0.505859 27.5123 0.564381 27.3184 0.675603C27.1245 0.786825 26.9632 0.946869 26.8504 1.13981Z" fill="#01070E"/>
</svg>
