<svg width="36" height="36" viewBox="0 0 36 36" fill="none" xmlns="http://www.w3.org/2000/svg">
<path d="M6.06055 30C5.79533 30 5.54098 29.8946 5.35344 29.7071C5.1659 29.5196 5.06055 29.2652 5.06055 29V8H3.06055C2.79533 8 2.54098 7.89464 2.35344 7.70711C2.1659 7.51957 2.06055 7.26522 2.06055 7C2.06055 6.73478 2.1659 6.48043 2.35344 6.29289C2.54098 6.10536 2.79533 6 3.06055 6H7.06055V29C7.06055 29.2652 6.95519 29.5196 6.76765 29.7071C6.58012 29.8946 6.32576 30 6.06055 30Z" fill="#01070E"/>
<path d="M30.0605 27H5.06055V9H30.0605C30.8562 9 31.6193 9.31607 32.1819 9.87868C32.7445 10.4413 33.0605 11.2044 33.0605 12V24C33.0605 24.7956 32.7445 25.5587 32.1819 26.1213C31.6193 26.6839 30.8562 27 30.0605 27ZM7.06055 25H30.0605C30.3258 25 30.5801 24.8946 30.7677 24.7071C30.9552 24.5196 31.0605 24.2652 31.0605 24V12C31.0605 11.7348 30.9552 11.4804 30.7677 11.2929C30.5801 11.1054 30.3258 11 30.0605 11H7.06055V25Z" fill="#01070E"/>
<path d="M28.0605 20H22.0605V22H28.0605V20Z" fill="#01070E"/>
<path d="M28.0605 14H22.0605V16H28.0605V14Z" fill="#01070E"/>
<path d="M19.0605 22H11.0605V20H18.0605V14H20.0605V21C20.0605 21.2652 19.9552 21.5196 19.7677 21.7071C19.5801 21.8946 19.3258 22 19.0605 22Z" fill="#01070E"/>
</svg>
