<svg width="36" height="36" viewBox="0 0 36 36" fill="none" xmlns="http://www.w3.org/2000/svg">
<path d="M32.8809 19.9199H2.88086C2.61564 19.9199 2.36129 19.8146 2.17375 19.627C1.98622 19.4395 1.88086 19.1851 1.88086 18.9199C1.88086 18.6547 1.98622 18.4004 2.17375 18.2128C2.36129 18.0253 2.61564 17.9199 2.88086 17.9199H32.8809C33.1461 17.9199 33.4004 18.0253 33.588 18.2128C33.7755 18.4004 33.8809 18.6547 33.8809 18.9199C33.8809 19.1851 33.7755 19.4395 33.588 19.627C33.4004 19.8146 33.1461 19.9199 32.8809 19.9199Z" fill="#01070E"/>
<path d="M7.27055 15.8602C7.69088 15.6638 8.12151 15.4902 8.56055 15.3402C9.14775 15.1272 9.76602 15.0124 10.3905 15.0002C10.9046 14.9479 11.4237 15.0216 11.9029 15.215C12.382 15.4085 12.8068 15.7157 13.1405 16.1102C13.7228 16.9031 14.0253 17.8669 14.0005 18.8502V19.3402C12.6186 18.8686 11.1706 18.6189 9.71055 18.6002C8.81839 18.5915 7.93487 18.7757 7.12055 19.1402C6.64139 19.3563 6.1993 19.6465 5.81055 20.0002H15.8805V18.8502C15.9567 17.3901 15.4659 15.9571 14.5105 14.8502C13.9887 14.3309 13.3618 13.9292 12.6718 13.6722C11.9819 13.4152 11.245 13.3089 10.5105 13.3602C9.16118 13.3867 7.83114 13.6861 6.60055 14.2402C6.49231 14.2866 6.39461 14.3544 6.31336 14.4397C6.23212 14.5249 6.16901 14.6257 6.12787 14.736C6.08674 14.8463 6.06842 14.9639 6.07404 15.0815C6.07965 15.1991 6.10908 15.3143 6.16055 15.4202C6.20408 15.5224 6.26743 15.6149 6.34694 15.6924C6.42645 15.7699 6.52053 15.8309 6.62376 15.8718C6.72698 15.9127 6.83729 15.9328 6.94831 15.9308C7.05933 15.9288 7.16885 15.9048 7.27055 15.8602Z" fill="#01070E"/>
<path d="M21.0006 20.0001C21.0235 19.2017 21.2071 18.416 21.5406 17.6901C21.8838 16.9431 22.4316 16.3086 23.1206 15.8601C23.8063 15.4231 24.6025 15.191 25.4156 15.191C26.2287 15.191 27.0249 15.4231 27.7106 15.8601C28.3917 16.3148 28.9348 16.9478 29.2806 17.6901C29.6199 18.4154 29.8136 19.2003 29.8506 20.0001H31.8506C31.8221 18.8932 31.5561 17.8053 31.0706 16.8101C30.5856 15.8069 29.8307 14.9585 28.8906 14.3601C27.9625 13.7768 26.8868 13.4714 25.7906 13.4801C24.8082 13.4637 23.84 13.7161 22.9906 14.2101C22.1561 14.7067 21.4665 15.4136 20.9906 16.2601V10.0001C20.988 9.77286 20.8966 9.55562 20.7359 9.3949C20.5751 9.23417 20.3579 9.14273 20.1306 9.14014H20.0006C19.7733 9.14273 19.5561 9.23417 19.3954 9.3949C19.2347 9.55562 19.1432 9.77286 19.1406 10.0001V20.0001H21.0006Z" fill="#01070E"/>
<path d="M29.6698 22C29.5861 22.3679 29.4655 22.7263 29.3098 23.07C28.9671 23.8196 28.4237 24.4599 27.7398 24.92C27.0521 25.3513 26.2567 25.58 25.4448 25.58C24.633 25.58 23.8376 25.3513 23.1498 24.92C22.4579 24.4662 21.9098 23.8244 21.5698 23.07C21.4109 22.7266 21.287 22.3682 21.1998 22H19.0898V26.13C19.0897 26.2477 19.1135 26.3642 19.1597 26.4724C19.2059 26.5807 19.2736 26.6784 19.3586 26.7598C19.4437 26.8411 19.5444 26.9043 19.6546 26.9456C19.7648 26.9869 19.8823 27.0054 19.9998 27H20.1998C20.4271 26.9974 20.6444 26.906 20.8051 26.7452C20.9658 26.5845 21.0572 26.3673 21.0598 26.14V24.51C21.5354 25.3594 22.2249 26.0695 23.0598 26.57C23.9119 27.0563 24.8789 27.305 25.8598 27.29C26.9566 27.3032 28.0336 26.9975 28.9598 26.41C29.88 25.8202 30.6176 24.9857 31.0898 24C31.4013 23.3688 31.617 22.6947 31.7298 22H29.6698Z" fill="#01070E"/>
<path d="M14.0008 22.0002V22.7602C13.8765 23.1842 13.6693 23.5792 13.3912 23.9225C13.1131 24.2658 12.7697 24.5506 12.3808 24.7602C11.5636 25.2339 10.6354 25.4823 9.69081 25.4802C8.84808 25.5167 8.01734 25.2703 7.33081 24.7802C7.02943 24.5658 6.78586 24.28 6.62183 23.9484C6.45781 23.6169 6.37844 23.2499 6.39081 22.8802C6.39441 22.5664 6.46249 22.2566 6.59081 21.9702H4.62081C4.53547 22.2967 4.49179 22.6327 4.49081 22.9702C4.46976 23.5492 4.58031 24.1253 4.81415 24.6554C5.04798 25.1854 5.39902 25.6555 5.84081 26.0302C6.81508 26.8322 8.04987 27.2485 9.31081 27.2002C10.2443 27.2023 11.1654 26.9866 12.0008 26.5702C12.8231 26.198 13.5184 25.5931 14.0008 24.8302V26.0002C14.0008 26.2283 14.0914 26.447 14.2527 26.6083C14.414 26.7696 14.6327 26.8602 14.8608 26.8602H15.0008C15.2289 26.8602 15.4476 26.7696 15.6089 26.6083C15.7702 26.447 15.8608 26.2283 15.8608 26.0002V22.0002H14.0008Z" fill="#01070E"/>
</svg>
