<svg width="36" height="36" viewBox="0 0 36 36" fill="none" xmlns="http://www.w3.org/2000/svg">
<path d="M14.5498 18L21.3498 26.6C21.4876 26.7725 21.5737 26.9805 21.5982 27.1999C21.6228 27.4193 21.5848 27.6412 21.4886 27.8399C21.3923 28.0386 21.2419 28.2061 21.0545 28.3229C20.8672 28.4397 20.6506 28.5011 20.4298 28.5C20.2532 28.5009 20.0787 28.4617 19.9194 28.3855C19.76 28.3093 19.62 28.198 19.5098 28.06L12.9998 19.91L6.59982 28C6.48963 28.138 6.34962 28.2493 6.19028 28.3255C6.03095 28.4017 5.85644 28.4409 5.67982 28.44C5.45905 28.4411 5.24248 28.3797 5.05513 28.2629C4.86779 28.1461 4.71731 27.9786 4.62109 27.7799C4.52488 27.5812 4.48685 27.3593 4.5114 27.1399C4.53594 26.9205 4.62207 26.7125 4.75982 26.54L11.5498 18L4.74982 9.40001C4.61207 9.22748 4.52594 9.0195 4.5014 8.80009C4.47685 8.58069 4.51488 8.35881 4.6111 8.1601C4.70731 7.9614 4.85779 7.79397 5.04513 7.67716C5.23248 7.56036 5.44905 7.49894 5.66982 7.50001C5.85828 7.49988 6.04398 7.54527 6.21112 7.63232C6.37826 7.71938 6.5219 7.84552 6.62982 8.00001L13.0698 16.13L19.4998 8.00001C19.61 7.86199 19.75 7.75071 19.9094 7.6745C20.0687 7.5983 20.2432 7.55916 20.4198 7.56001C20.6406 7.55894 20.8572 7.62036 21.0445 7.73716C21.2319 7.85397 21.3823 8.0214 21.4785 8.2201C21.5748 8.41881 21.6128 8.64069 21.5882 8.86009C21.5637 9.0795 21.4776 9.28748 21.3398 9.46001L14.5498 18Z" fill="#01070E"/>
<path d="M23 31.8002L27.49 28.0002C28.21 27.4088 28.8429 26.7186 29.37 25.9502C29.7732 25.3793 29.993 24.6991 30 24.0002C30.0068 23.5522 29.8854 23.1115 29.65 22.7302C29.3992 22.3645 29.0535 22.0741 28.65 21.8902C28.2564 21.7034 27.8257 21.6077 27.39 21.6102C26.7446 21.5976 26.1093 21.7712 25.56 22.1102C24.984 22.4891 24.4824 22.9704 24.08 23.5302L23.08 22.7202C23.5455 21.9873 24.1901 21.3851 24.953 20.9704C25.7158 20.5557 26.5718 20.3423 27.44 20.3502C28.133 20.3387 28.8187 20.493 29.44 20.8002C30.0465 21.0783 30.5588 21.5272 30.9141 22.0921C31.2693 22.6569 31.4521 23.3131 31.44 23.9802C31.4373 24.8117 31.2018 25.6258 30.76 26.3302C30.1436 27.26 29.3882 28.0897 28.52 28.7902L25.28 31.6002H31.5V33.0002H23V31.8002Z" fill="#01070E"/>
</svg>
