<svg width="36" height="36" viewBox="0 0 36 36" fill="none" xmlns="http://www.w3.org/2000/svg">
<path d="M18 2C14.8355 2 11.7421 2.93838 9.11088 4.69649C6.4797 6.45459 4.42894 8.95345 3.21793 11.8771C2.00693 14.8007 1.69008 18.0177 2.30744 21.1214C2.92481 24.2251 4.44866 27.0761 6.6863 29.3137C8.92394 31.5513 11.7749 33.0752 14.8786 33.6926C17.9823 34.3099 21.1993 33.9931 24.1229 32.7821C27.0466 31.5711 29.5454 29.5203 31.3035 26.8891C33.0616 24.2579 34 21.1645 34 18C34 13.7565 32.3143 9.68687 29.3137 6.68629C26.3131 3.68571 22.2435 2 18 2ZM18 32C15.2311 32 12.5243 31.1789 10.222 29.6406C7.91974 28.1022 6.12532 25.9157 5.06569 23.3576C4.00607 20.7994 3.72882 17.9845 4.26901 15.2687C4.80921 12.553 6.14258 10.0584 8.10051 8.1005C10.0584 6.14257 12.553 4.8092 15.2687 4.26901C17.9845 3.72881 20.7994 4.00606 23.3576 5.06569C25.9157 6.12531 28.1022 7.91973 29.6406 10.222C31.1789 12.5243 32 15.2311 32 18C32 21.713 30.525 25.274 27.8995 27.8995C25.274 30.525 21.713 32 18 32Z" fill="#01070E"/>
<path d="M28.0009 12.0999C27.8136 11.9136 27.5601 11.8091 27.2959 11.8091C27.0317 11.8091 26.7783 11.9136 26.5909 12.0999L15.4909 23.1499L9.49091 17.1499C9.30791 16.9523 9.05392 16.8355 8.7848 16.8252C8.51569 16.8149 8.2535 16.9119 8.05591 17.0949C7.85833 17.2779 7.74153 17.5319 7.73121 17.801C7.7209 18.0701 7.81791 18.3323 8.00091 18.5299L15.4909 25.9999L28.0009 13.5199C28.0946 13.4269 28.169 13.3163 28.2198 13.1945C28.2706 13.0726 28.2967 12.9419 28.2967 12.8099C28.2967 12.6779 28.2706 12.5472 28.2198 12.4253C28.169 12.3034 28.0946 12.1928 28.0009 12.0999Z" fill="#01070E"/>
</svg>
