<svg width="36" height="36" viewBox="0 0 36 36" fill="none" xmlns="http://www.w3.org/2000/svg">
<path d="M18 6.31016C18.2652 6.31016 18.5196 6.2048 18.7071 6.01726C18.8946 5.82973 19 5.57537 19 5.31016V1.91016C19 1.64494 18.8946 1.39059 18.7071 1.20305C18.5196 1.01551 18.2652 0.910156 18 0.910156C17.7348 0.910156 17.4804 1.01551 17.2929 1.20305C17.1054 1.39059 17 1.64494 17 1.91016V5.31016C17 5.57537 17.1054 5.82973 17.2929 6.01726C17.4804 6.2048 17.7348 6.31016 18 6.31016Z" fill="#01070E"/>
<path d="M18 29.6899C17.7348 29.6899 17.4804 29.7953 17.2929 29.9828C17.1054 30.1704 17 30.4247 17 30.6899V34.0899C17 34.3552 17.1054 34.6095 17.2929 34.797C17.4804 34.9846 17.7348 35.0899 18 35.0899C18.2652 35.0899 18.5196 34.9846 18.7071 34.797C18.8946 34.6095 19 34.3552 19 34.0899V30.6899C19 30.4247 18.8946 30.1704 18.7071 29.9828C18.5196 29.7953 18.2652 29.6899 18 29.6899Z" fill="#01070E"/>
<path d="M8.32014 9.74014C8.50609 9.90917 8.74886 10.002 9.00014 10.0001C9.13175 10.0009 9.26221 9.97568 9.38405 9.92592C9.50589 9.87615 9.6167 9.80283 9.71014 9.71014C9.80387 9.61718 9.87827 9.50658 9.92904 9.38472C9.9798 9.26286 10.0059 9.13216 10.0059 9.00014C10.0059 8.86813 9.9798 8.73743 9.92904 8.61557C9.87827 8.49371 9.80387 8.38311 9.71014 8.29014L7.33014 5.92014C7.13884 5.75632 6.89277 5.67071 6.64109 5.68043C6.38942 5.69015 6.15068 5.79449 5.97258 5.97258C5.79449 6.15068 5.69015 6.38942 5.68043 6.64109C5.67071 6.89277 5.75632 7.13884 5.92014 7.33014L8.32014 9.74014Z" fill="#01070E"/>
<path d="M27.6809 26.2599C27.5877 26.1667 27.477 26.0927 27.3551 26.0423C27.2333 25.9918 27.1027 25.9658 26.9709 25.9658C26.839 25.9658 26.7085 25.9918 26.5866 26.0423C26.4648 26.0927 26.3541 26.1667 26.2609 26.2599C26.1677 26.3532 26.0937 26.4638 26.0432 26.5857C25.9928 26.7075 25.9668 26.8381 25.9668 26.9699C25.9668 27.1018 25.9928 27.2323 26.0432 27.3542C26.0937 27.476 26.1677 27.5867 26.2609 27.6799L28.6709 30.0799C28.7635 30.1744 28.8739 30.2496 28.9958 30.3011C29.1177 30.3526 29.2486 30.3794 29.3809 30.3799C29.6447 30.3762 29.8963 30.2683 30.0809 30.0799C30.2671 29.8925 30.3717 29.6391 30.3717 29.3749C30.3717 29.1107 30.2671 28.8573 30.0809 28.6699L27.6809 26.2599Z" fill="#01070E"/>
<path d="M6.31016 18C6.31016 17.7348 6.2048 17.4804 6.01726 17.2929C5.82973 17.1054 5.57537 17 5.31016 17H1.91016C1.64494 17 1.39059 17.1054 1.20305 17.2929C1.01551 17.4804 0.910156 17.7348 0.910156 18C0.910156 18.2652 1.01551 18.5196 1.20305 18.7071C1.39059 18.8946 1.64494 19 1.91016 19H5.31016C5.57537 19 5.82973 18.8946 6.01726 18.7071C6.2048 18.5196 6.31016 18.2652 6.31016 18Z" fill="#01070E"/>
<path d="M34.0895 17H30.6895C30.4242 17 30.1699 17.1054 29.9823 17.2929C29.7948 17.4804 29.6895 17.7348 29.6895 18C29.6895 18.2652 29.7948 18.5196 29.9823 18.7071C30.1699 18.8946 30.4242 19 30.6895 19H34.0895C34.3547 19 34.609 18.8946 34.7966 18.7071C34.9841 18.5196 35.0895 18.2652 35.0895 18C35.0895 17.7348 34.9841 17.4804 34.7966 17.2929C34.609 17.1054 34.3547 17 34.0895 17Z" fill="#01070E"/>
<path d="M8.32081 26.2599L5.92081 28.6699C5.78039 28.8092 5.68442 28.987 5.64503 29.1808C5.60564 29.3746 5.62461 29.5757 5.69954 29.7588C5.77447 29.9418 5.90198 30.0985 6.06597 30.2091C6.22995 30.3196 6.42303 30.3791 6.62081 30.3799C6.75311 30.3794 6.884 30.3526 7.00587 30.3011C7.12775 30.2496 7.23819 30.1744 7.33081 30.0799L9.74081 27.6799C9.92911 27.4916 10.0349 27.2362 10.0349 26.9699C10.0349 26.7036 9.92911 26.4482 9.74081 26.2599C9.5525 26.0716 9.29711 25.9658 9.03081 25.9658C8.76451 25.9658 8.50911 26.0716 8.32081 26.2599Z" fill="#01070E"/>
<path d="M26.9999 9.99991C27.1315 10.0007 27.262 9.97545 27.3838 9.92568C27.5057 9.87592 27.6165 9.8026 27.7099 9.70991L30.1099 7.29991C30.2962 7.11255 30.4007 6.8591 30.4007 6.59491C30.4007 6.33073 30.2962 6.07728 30.1099 5.88991C29.9226 5.70366 29.6691 5.59912 29.4049 5.59912C29.1408 5.59912 28.8873 5.70366 28.6999 5.88991L26.2899 8.28991C26.1962 8.38288 26.1218 8.49348 26.071 8.61534C26.0203 8.7372 25.9941 8.8679 25.9941 8.99991C25.9941 9.13193 26.0203 9.26263 26.071 9.38449C26.1218 9.50635 26.1962 9.61695 26.2899 9.70991C26.3834 9.8026 26.4942 9.87592 26.616 9.92568C26.7379 9.97545 26.8683 10.0007 26.9999 9.99991Z" fill="#01070E"/>
<path d="M18.1291 7.74986C16.1203 7.72408 14.1491 8.2962 12.4662 9.39351C10.7834 10.4908 9.46476 12.0638 8.67807 13.9123C7.89138 15.7609 7.67214 17.8017 8.0482 19.7752C8.42426 21.7487 9.37865 23.5659 10.79 24.9956C12.2014 26.4254 14.0061 27.4031 15.9746 27.8046C17.9431 28.2062 19.9865 28.0133 21.8451 27.2506C23.7037 26.4878 25.2935 25.1896 26.4125 23.5211C27.5314 21.8525 28.129 19.8889 28.1291 17.8799C28.1425 15.2116 27.0973 12.647 25.2228 10.7481C23.3483 8.84919 20.7973 7.771 18.1291 7.74986ZM18.1291 25.9999C16.5155 26.0257 14.9306 25.5706 13.5764 24.6927C12.2223 23.8147 11.16 22.5536 10.525 21.0699C9.88995 19.5862 9.71086 17.9471 10.0105 16.3613C10.3102 14.7755 11.0751 13.3147 12.2077 12.1651C13.3404 11.0154 14.7896 10.2289 16.3708 9.90564C17.9519 9.58239 19.5936 9.73705 21.0865 10.3499C22.5795 10.9628 23.8563 12.0062 24.7543 13.3471C25.6523 14.6881 26.1309 16.266 26.1291 17.8799C26.1398 20.0159 25.3042 22.0693 23.805 23.591C22.3059 25.1126 20.2651 25.9787 18.1291 25.9999Z" fill="#01070E"/>
</svg>
