<svg width="36" height="36" viewBox="0 0 36 36" fill="none" xmlns="http://www.w3.org/2000/svg">
<path d="M14.4307 18L21.2207 26.6C21.3584 26.7725 21.4446 26.9805 21.4691 27.1999C21.4937 27.4193 21.4556 27.6412 21.3594 27.8399C21.2632 28.0386 21.1127 28.2061 20.9254 28.3229C20.738 28.4397 20.5215 28.5011 20.3007 28.5C20.1241 28.5009 19.9495 28.4617 19.7902 28.3855C19.6309 28.3093 19.4909 28.198 19.3807 28.06L12.9407 19.93L6.47068 28C6.36049 28.138 6.22047 28.2493 6.06114 28.3255C5.90181 28.4017 5.7273 28.4409 5.55068 28.44C5.32991 28.4411 5.11334 28.3797 4.92599 28.2629C4.73864 28.1461 4.58817 27.9786 4.49195 27.7799C4.39574 27.5812 4.35771 27.3593 4.38226 27.1399C4.4068 26.9205 4.49293 26.7125 4.63068 26.54L11.4307 18L4.63068 9.40001C4.49293 9.22748 4.4068 9.0195 4.38226 8.80009C4.35771 8.58069 4.39574 8.35881 4.49195 8.1601C4.58817 7.9614 4.73864 7.79397 4.92599 7.67716C5.11334 7.56036 5.32991 7.49894 5.55068 7.50001C5.73868 7.50232 5.92351 7.54878 6.09026 7.63563C6.25701 7.72248 6.40102 7.84729 6.51068 8.00001L12.9407 16.13L19.3807 8.00001C19.4909 7.86199 19.6309 7.75071 19.7902 7.6745C19.9495 7.5983 20.1241 7.55916 20.3007 7.56001C20.5215 7.55894 20.738 7.62036 20.9254 7.73716C21.1127 7.85397 21.2632 8.0214 21.3594 8.2201C21.4556 8.41881 21.4937 8.64069 21.4691 8.86009C21.4446 9.0795 21.3584 9.28748 21.2207 9.46001L14.4307 18Z" fill="#01070E"/>
<path d="M22.8496 14.4699L27.3596 10.6199C28.0811 10.0492 28.7145 9.37527 29.2396 8.61993C29.6122 8.07013 29.8172 7.42398 29.8296 6.75993C29.8381 6.31029 29.7128 5.86826 29.4696 5.48993C29.2334 5.13285 28.9052 4.84611 28.5196 4.65993C28.1284 4.46523 27.6966 4.36585 27.2596 4.36993C26.6145 4.35904 25.9796 4.5325 25.4296 4.86993C24.8527 5.25115 24.3481 5.73198 23.9396 6.28993L22.9396 5.47993C23.4058 4.74767 24.0506 4.14598 24.8133 3.7314C25.576 3.31682 26.4316 3.10296 27.2996 3.10993C27.9926 3.09885 28.6782 3.25311 29.2996 3.55993C29.903 3.8421 30.4125 4.29199 30.7672 4.85588C31.1218 5.41977 31.3066 6.07383 31.2996 6.73993C31.269 7.54462 31.0201 8.32583 30.5796 8.99993C29.9603 9.92744 29.2052 10.7567 28.3396 11.4599L25.0996 14.3099H31.3796V15.6399H22.8496V14.4699Z" fill="#01070E"/>
</svg>
