<svg width="36" height="36" viewBox="0 0 36 36" fill="none" xmlns="http://www.w3.org/2000/svg">
<path d="M5.71063 14H20.9206V12H5.71063L9.42063 8.27002C9.51321 8.17678 9.58652 8.06622 9.63637 7.94464C9.68622 7.82307 9.71165 7.69287 9.71118 7.56148C9.71072 7.43008 9.68438 7.30007 9.63367 7.17885C9.58295 7.05764 9.50886 6.9476 9.41563 6.85502C9.32239 6.76243 9.21183 6.68912 9.09026 6.63927C8.96868 6.58942 8.83848 6.564 8.70709 6.56446C8.5757 6.56492 8.44568 6.59126 8.32446 6.64197C8.20325 6.69269 8.09321 6.76678 8.00063 6.86002L1.89062 13L8.00063 19.14C8.08954 19.2453 8.19926 19.331 8.32289 19.3919C8.44651 19.4528 8.58138 19.4874 8.71903 19.4937C8.85668 19.4999 8.99415 19.4777 9.1228 19.4283C9.25144 19.379 9.3685 19.3036 9.46663 19.2068C9.56475 19.1101 9.64182 18.9941 9.69301 18.8662C9.74419 18.7382 9.76838 18.6011 9.76406 18.4634C9.75974 18.3256 9.72701 18.1903 9.66791 18.0658C9.60881 17.9413 9.52462 17.8304 9.42063 17.74L5.71063 14Z" fill="#01070E"/>
<path d="M26 12H23V14H26V12Z" fill="#01070E"/>
<path d="M30 12H28V14H30V12Z" fill="#01070E"/>
<path d="M27.92 17.86C27.8274 17.7668 27.7174 17.6927 27.5962 17.642C27.4749 17.5913 27.3449 17.5649 27.2135 17.5645C27.0821 17.564 26.9519 17.5894 26.8304 17.6393C26.7088 17.6891 26.5982 17.7624 26.505 17.855C26.4118 17.9476 26.3377 18.0576 26.287 18.1789C26.2362 18.3001 26.2099 18.4301 26.2094 18.5615C26.209 18.6929 26.2344 18.8231 26.2843 18.9446C26.3341 19.0662 26.4074 19.1768 26.5 19.27L30.21 23H15V25H30.21L26.5 28.74C26.396 28.8304 26.3118 28.9413 26.2527 29.0658C26.1936 29.1903 26.1609 29.3256 26.1566 29.4634C26.1522 29.6011 26.1764 29.7382 26.2276 29.8662C26.2788 29.9941 26.3559 30.1101 26.454 30.2068C26.5521 30.3036 26.6692 30.379 26.7978 30.4283C26.9265 30.4777 27.0639 30.5 27.2016 30.4937C27.3392 30.4874 27.4741 30.4528 27.5977 30.3919C27.7214 30.331 27.8311 30.2453 27.92 30.14L34 24L27.92 17.86Z" fill="#01070E"/>
<path d="M13 23H10V25H13V23Z" fill="#01070E"/>
<path d="M8 23H6V25H8V23Z" fill="#01070E"/>
</svg>
