<svg width="36" height="36" viewBox="0 0 36 36" fill="none" xmlns="http://www.w3.org/2000/svg">
<path d="M32.8405 15.72C32.8021 15.4547 32.6599 15.2157 32.4451 15.0553C32.2304 14.895 31.9608 14.8265 31.6955 14.865C31.4303 14.9034 31.1913 15.0456 31.0309 15.2604C30.8706 15.4751 30.8021 15.7447 30.8405 16.01C30.9412 16.6485 30.9947 17.2936 31.0005 17.94C30.9959 20.5222 30.2223 23.0445 28.7785 25.1853C27.3347 27.3261 25.2861 28.9885 22.8938 29.9604C20.5015 30.9324 17.8739 31.1698 15.3461 30.6426C12.8183 30.1153 10.5048 28.8472 8.70055 27H14.0605C14.3258 27 14.5801 26.8946 14.7677 26.7071C14.9552 26.5195 15.0605 26.2652 15.0605 26C15.0605 25.7347 14.9552 25.4804 14.7677 25.2928C14.5801 25.1053 14.3258 25 14.0605 25H5.06055V34C5.06055 34.2652 5.1659 34.5195 5.35344 34.7071C5.54098 34.8946 5.79533 35 6.06055 35C6.32576 35 6.58012 34.8946 6.76765 34.7071C6.95519 34.5195 7.06055 34.2652 7.06055 34V28.2C9.24769 30.5341 12.1237 32.108 15.2687 32.6918C18.4138 33.2756 21.6631 32.8387 24.5422 31.4449C27.4213 30.0511 29.7795 27.7735 31.2724 24.9445C32.7653 22.1155 33.3148 18.8834 32.8405 15.72Z" fill="#01070E"/>
<path d="M30.0601 1.00006C29.7884 0.997164 29.5261 1.09975 29.3284 1.28624C29.1307 1.47273 29.0131 1.7286 29.0001 2.00006V7.83006C26.9687 5.59304 24.3067 4.0246 21.3654 3.33178C18.4241 2.63896 15.3419 2.85433 12.5256 3.94945C9.70923 5.04457 7.29118 6.96797 5.59057 9.46576C3.88996 11.9636 2.98675 14.9183 3.00015 17.9401C2.99875 18.7708 3.06564 19.6003 3.20015 20.4201C3.23848 20.6567 3.36054 20.8717 3.54409 21.0258C3.72763 21.18 3.96046 21.2631 4.20015 21.2601H4.36015C4.62123 21.216 4.85417 21.0702 5.00789 20.8546C5.16161 20.639 5.22356 20.3713 5.18015 20.1101C5.06062 19.3929 5.00042 18.6671 5.00015 17.9401C5.00015 14.4922 6.36979 11.1856 8.80776 8.74767C11.2457 6.3097 14.5523 4.94006 18.0001 4.94006C19.7681 4.9321 21.5188 5.2885 23.1429 5.98702C24.7671 6.68554 26.2299 7.71121 27.4401 9.00006H22.0601C21.7949 9.00006 21.5406 9.10542 21.353 9.29295C21.1655 9.48049 21.0601 9.73484 21.0601 10.0001C21.0601 10.2653 21.1655 10.5196 21.353 10.7072C21.5406 10.8947 21.7949 11.0001 22.0601 11.0001H31.0001V2.00006C31.0006 1.74492 30.9035 1.49925 30.7288 1.31335C30.554 1.12745 30.3148 1.01537 30.0601 1.00006Z" fill="#01070E"/>
</svg>
