<svg width="36" height="36" viewBox="0 0 36 36" fill="none" xmlns="http://www.w3.org/2000/svg">
<path d="M8 33.9999C7.73478 33.9999 7.48043 33.8946 7.29289 33.707C7.10536 33.5195 7 33.2651 7 32.9999V2.91992C7 2.65471 7.10536 2.40035 7.29289 2.21282C7.48043 2.02528 7.73478 1.91992 8 1.91992C8.26522 1.91992 8.51957 2.02528 8.70711 2.21282C8.89464 2.40035 9 2.65471 9 2.91992V32.9999C9 33.2651 8.89464 33.5195 8.70711 33.707C8.51957 33.8946 8.26522 33.9999 8 33.9999Z" fill="#01070E"/>
<path d="M17 33.9201C16.7348 33.9201 16.4804 33.8147 16.2929 33.6272C16.1054 33.4397 16 33.1853 16 32.9201V9.1001C16 8.83488 16.1054 8.58053 16.2929 8.39299C16.4804 8.20545 16.7348 8.1001 17 8.1001C17.2652 8.1001 17.5196 8.20545 17.7071 8.39299C17.8946 8.58053 18 8.83488 18 9.1001V32.9201C18 33.1853 17.8946 33.4397 17.7071 33.6272C17.5196 33.8147 17.2652 33.9201 17 33.9201Z" fill="#01070E"/>
<path d="M26 34C25.7348 34 25.4804 33.8946 25.2929 33.7071C25.1054 33.5196 25 33.2652 25 33V9C25 8.73478 25.1054 8.48043 25.2929 8.29289C25.4804 8.10536 25.7348 8 26 8C26.2652 8 26.5196 8.10536 26.7071 8.29289C26.8946 8.48043 27 8.73478 27 9V33C27 33.2652 26.8946 33.5196 26.7071 33.7071C26.5196 33.8946 26.2652 34 26 34Z" fill="#01070E"/>
<path d="M33.1094 18H8.10937C7.84416 18 7.5898 17.8946 7.40227 17.7071C7.21473 17.5196 7.10938 17.2652 7.10938 17C7.10938 16.7348 7.21473 16.4804 7.40227 16.2929C7.5898 16.1054 7.84416 16 8.10937 16H33.1094C33.3746 16 33.6289 16.1054 33.8165 16.2929C34.004 16.4804 34.1094 16.7348 34.1094 17C34.1094 17.2652 34.004 17.5196 33.8165 17.7071C33.6289 17.8946 33.3746 18 33.1094 18Z" fill="#01070E"/>
<path d="M33.1005 26.94H8.10053C7.95307 26.9769 7.79913 26.9798 7.6504 26.9483C7.50168 26.9168 7.36209 26.8519 7.24224 26.7583C7.12239 26.6648 7.02544 26.5452 6.95876 26.4086C6.89208 26.272 6.85742 26.122 6.85742 25.97C6.85742 25.8179 6.89208 25.6679 6.95876 25.5313C7.02544 25.3947 7.12239 25.2751 7.24224 25.1816C7.36209 25.0881 7.50168 25.0231 7.6504 24.9916C7.79913 24.9602 7.95307 24.963 8.10053 25H33.1005C33.2496 24.9565 33.4067 24.9483 33.5594 24.9761C33.7122 25.0039 33.8563 25.0668 33.9805 25.16C34.1047 25.2531 34.2055 25.3739 34.275 25.5127C34.3444 25.6516 34.3805 25.8047 34.3805 25.96C34.3805 26.1152 34.3444 26.2683 34.275 26.4072C34.2055 26.546 34.1047 26.6668 33.9805 26.76C33.8563 26.8531 33.7122 26.9161 33.5594 26.9438C33.4067 26.9716 33.2496 26.9634 33.1005 26.92V26.94Z" fill="#01070E"/>
<path d="M33.0007 8.91996H3.0007C2.85167 8.96343 2.69456 8.9716 2.54182 8.94383C2.38908 8.91606 2.2449 8.85311 2.1207 8.75996C1.99651 8.66681 1.8957 8.54603 1.82628 8.40717C1.75685 8.26832 1.7207 8.11521 1.7207 7.95996C1.7207 7.80472 1.75685 7.6516 1.82628 7.51275C1.8957 7.37389 1.99651 7.25311 2.1207 7.15996C2.2449 7.06681 2.38908 7.00386 2.54182 6.97609C2.69456 6.94832 2.85167 6.95649 3.0007 6.99996H33.0007C33.1482 6.963 33.3021 6.96015 33.4508 6.99162C33.5996 7.02309 33.7391 7.08806 33.859 7.18157C33.9788 7.27509 34.0758 7.3947 34.1425 7.53132C34.2091 7.66793 34.2438 7.81794 34.2438 7.96996C34.2438 8.12198 34.2091 8.27199 34.1425 8.40861C34.0758 8.54522 33.9788 8.66483 33.859 8.75835C33.7391 8.85186 33.5996 8.91683 33.4508 8.9483C33.3021 8.97977 33.1482 8.97692 33.0007 8.93996V8.91996Z" fill="#01070E"/>
</svg>
