<svg width="36" height="36" viewBox="0 0 36 36" fill="none" xmlns="http://www.w3.org/2000/svg">
<path d="M19 29H17V31H19V29Z" fill="#01070E"/>
<path d="M30 2H6C5.46957 2 4.96086 2.21071 4.58579 2.58579C4.21071 2.96086 4 3.46957 4 4V32C4 32.5304 4.21071 33.0391 4.58579 33.4142C4.96086 33.7893 5.46957 34 6 34H30C30.5304 34 31.0391 33.7893 31.4142 33.4142C31.7893 33.0391 32 32.5304 32 32V4C32 3.46957 31.7893 2.96086 31.4142 2.58579C31.0391 2.21071 30.5304 2 30 2ZM30 4V26.38H6V4H30ZM6 32V28H30V32H6Z" fill="#01070E"/>
</svg>
