<svg width="36" height="36" viewBox="0 0 36 36" fill="none" xmlns="http://www.w3.org/2000/svg">
<path d="M10.5198 11.9498C11.3096 11.9498 11.9498 11.3096 11.9498 10.5198C11.9498 9.73008 11.3096 9.08984 10.5198 9.08984C9.73008 9.08984 9.08984 9.73008 9.08984 10.5198C9.08984 11.3096 9.73008 11.9498 10.5198 11.9498Z" fill="#01070E"/>
<path d="M31.93 19.2L28.13 15.4H25.31L30.53 20.62L20.63 30.52L6 15.91V6H15.92L19.33 9.41L20.33 7.63L17.33 4.63C17.1485 4.43677 16.9303 4.28157 16.6883 4.17342C16.4462 4.06526 16.1851 4.00631 15.92 4H6C5.46957 4 4.96086 4.21071 4.58579 4.58579C4.21071 4.96086 4 5.46957 4 6V15.92C4.00223 16.4496 4.21441 16.9566 4.59 17.33L19.19 31.93C19.3757 32.116 19.5963 32.2635 19.8391 32.3641C20.0819 32.4648 20.3422 32.5166 20.605 32.5166C20.8678 32.5166 21.1281 32.4648 21.3709 32.3641C21.6137 32.2635 21.8343 32.116 22.02 31.93L31.92 22.03C32.1066 21.8449 32.2549 21.6249 32.3564 21.3824C32.4579 21.14 32.5106 20.8799 32.5116 20.6171C32.5125 20.3542 32.4616 20.0938 32.3618 19.8507C32.262 19.6075 32.1153 19.3864 31.93 19.2Z" fill="#01070E"/>
<path d="M26.8504 1.13981L21.1304 10.9998C20.9973 11.1951 20.9209 11.4235 20.9097 11.6596C20.8984 11.8957 20.9527 12.1303 21.0666 12.3374C21.1806 12.5445 21.3496 12.716 21.555 12.8329C21.7604 12.9498 21.9942 13.0076 22.2304 12.9998H33.6804C33.9166 13.0076 34.1504 12.9498 34.3558 12.8329C34.5612 12.716 34.7302 12.5445 34.8441 12.3374C34.958 12.1303 35.0123 11.8957 35.0011 11.6596C34.9898 11.4235 34.9135 11.1951 34.7804 10.9998L29.0604 1.13981C28.9476 0.946869 28.7862 0.786825 28.5923 0.675603C28.3985 0.564381 28.1789 0.505859 27.9554 0.505859C27.7319 0.505859 27.5123 0.564381 27.3184 0.675603C27.1245 0.786825 26.9632 0.946869 26.8504 1.13981Z" fill="#01070E"/>
</svg>
