<svg width="36" height="36" viewBox="0 0 36 36" fill="none" xmlns="http://www.w3.org/2000/svg">
<path d="M10.5198 11.9498C11.3096 11.9498 11.9498 11.3096 11.9498 10.5198C11.9498 9.73008 11.3096 9.08984 10.5198 9.08984C9.73008 9.08984 9.08984 9.73008 9.08984 10.5198C9.08984 11.3096 9.73008 11.9498 10.5198 11.9498Z" fill="#01070E"/>
<path d="M31.93 19.2L17.33 4.6C17.146 4.41221 16.9267 4.26256 16.6847 4.15961C16.4428 4.05665 16.1829 4.00241 15.92 4H6C5.46957 4 4.96086 4.21071 4.58579 4.58579C4.21071 4.96086 4 5.46957 4 6V15.92C4.00223 16.4496 4.21441 16.9566 4.59 17.33L19.19 31.93C19.3757 32.116 19.5963 32.2635 19.8391 32.3641C20.0819 32.4648 20.3422 32.5166 20.605 32.5166C20.8678 32.5166 21.1281 32.4648 21.3709 32.3641C21.6137 32.2635 21.8343 32.116 22.02 31.93L31.92 22.03C32.1066 21.8449 32.2549 21.6249 32.3564 21.3824C32.4579 21.14 32.5106 20.8799 32.5116 20.6171C32.5125 20.3542 32.4616 20.0938 32.3618 19.8507C32.262 19.6075 32.1153 19.3864 31.93 19.2ZM20.62 30.52L6 15.91V6H15.92L30.52 20.62L20.62 30.52Z" fill="#01070E"/>
</svg>
