<svg width="36" height="36" viewBox="0 0 36 36" fill="none" xmlns="http://www.w3.org/2000/svg">
<path d="M7.81047 12.4701C8.54501 12.4701 9.14047 11.8746 9.14047 11.1401C9.14047 10.4055 8.54501 9.81006 7.81047 9.81006C7.07593 9.81006 6.48047 10.4055 6.48047 11.1401C6.48047 11.8746 7.07593 12.4701 7.81047 12.4701Z" fill="#01070E"/>
<path d="M27.7797 19.17L23.9997 15.4H22.2297C21.8107 15.4011 21.3946 15.3301 20.9997 15.19L26.3297 20.48L17.2197 29.69L3.68969 16.15V7H12.7897L18.7897 12.94C18.4821 12.0629 18.5178 11.1019 18.8897 10.25L14.1997 5.58C14.0214 5.39704 13.8084 5.25151 13.5731 5.15191C13.3379 5.05232 13.0851 5.00067 12.8297 5H3.60969C3.09782 5 2.60692 5.20334 2.24497 5.56528C1.88303 5.92723 1.67969 6.41813 1.67969 6.93V16.15C1.68038 16.4031 1.7311 16.6535 1.82892 16.8869C1.92674 17.1203 2.06974 17.3321 2.24969 17.51L15.8397 31.1C16.0189 31.2793 16.2317 31.4215 16.4659 31.5186C16.7001 31.6156 16.9512 31.6656 17.2047 31.6656C17.4582 31.6656 17.7092 31.6156 17.9435 31.5186C18.1777 31.4215 18.3905 31.2793 18.5697 31.1L27.7797 21.89C28.1388 21.5284 28.3403 21.0396 28.3403 20.53C28.3403 20.0204 28.1388 19.5316 27.7797 19.17Z" fill="#01070E"/>
<path d="M20.8291 6.80016L19.5791 5.55016C19.3984 5.37262 19.1842 5.23262 18.9491 5.13822C18.714 5.04383 18.4625 4.9969 18.2091 5.00016H16.1191L19.7891 8.60016L20.8291 6.80016Z" fill="#01070E"/>
<path d="M33.1607 19.1299L29.4307 15.3999H26.6507L31.7507 20.3999L21.2207 31.0699C21.3999 31.2492 21.6127 31.3914 21.8469 31.4885C22.0811 31.5855 22.3322 31.6355 22.5857 31.6355C22.8392 31.6355 23.0903 31.5855 23.3245 31.4885C23.5587 31.3914 23.7715 31.2492 23.9507 31.0699L33.1607 21.8599C33.34 21.6807 33.4822 21.4679 33.5793 21.2337C33.6763 20.9995 33.7263 20.7484 33.7263 20.4949C33.7263 20.2414 33.6763 19.9903 33.5793 19.7561C33.4822 19.5219 33.34 19.3091 33.1607 19.1299Z" fill="#01070E"/>
<path d="M26.8504 1.13981L21.1304 10.9998C20.9973 11.1951 20.9209 11.4235 20.9097 11.6596C20.8984 11.8957 20.9527 12.1303 21.0666 12.3374C21.1806 12.5445 21.3496 12.716 21.555 12.8329C21.7604 12.9498 21.9942 13.0076 22.2304 12.9998H33.6804C33.9166 13.0076 34.1504 12.9498 34.3558 12.8329C34.5612 12.716 34.7302 12.5445 34.8441 12.3374C34.958 12.1303 35.0123 11.8957 35.0011 11.6596C34.9898 11.4235 34.9135 11.1951 34.7804 10.9998L29.0604 1.13981C28.9476 0.946869 28.7862 0.786825 28.5923 0.675603C28.3985 0.564381 28.1789 0.505859 27.9554 0.505859C27.7319 0.505859 27.5123 0.564381 27.3184 0.675603C27.1245 0.786825 26.9632 0.946869 26.8504 1.13981Z" fill="#01070E"/>
</svg>
