<svg width="36" height="36" viewBox="0 0 36 36" fill="none" xmlns="http://www.w3.org/2000/svg">
<path d="M33.1591 19.1302L19.5791 5.55016C19.3984 5.37262 19.1842 5.23262 18.9491 5.13822C18.714 5.04383 18.4625 4.9969 18.2091 5.00016H16.1191L31.7491 20.4502L21.2191 31.0702C21.3984 31.2495 21.6112 31.3917 21.8454 31.4887C22.0796 31.5858 22.3306 31.6357 22.5841 31.6357C22.8377 31.6357 23.0887 31.5858 23.3229 31.4887C23.5571 31.3917 23.7699 31.2495 23.9491 31.0702L33.1591 21.8602C33.3384 21.6809 33.4807 21.4681 33.5777 21.2339C33.6748 20.9997 33.7247 20.7487 33.7247 20.4952C33.7247 20.2416 33.6748 19.9906 33.5777 19.7564C33.4807 19.5222 33.3384 19.3094 33.1591 19.1302Z" fill="#01070E"/>
<path d="M7.81047 12.4701C8.54501 12.4701 9.14047 11.8746 9.14047 11.1401C9.14047 10.4055 8.54501 9.81006 7.81047 9.81006C7.07593 9.81006 6.48047 10.4055 6.48047 11.1401C6.48047 11.8746 7.07593 12.4701 7.81047 12.4701Z" fill="#01070E"/>
<path d="M27.7797 19.17L14.1997 5.58C14.0214 5.39704 13.8084 5.25151 13.5731 5.15191C13.3379 5.05232 13.0851 5.00067 12.8297 5H3.60969C3.09782 5 2.60692 5.20334 2.24497 5.56528C1.88303 5.92723 1.67969 6.41813 1.67969 6.93V16.15C1.68038 16.4031 1.7311 16.6535 1.82892 16.8869C1.92674 17.1203 2.06974 17.3321 2.24969 17.51L15.8397 31.1C16.0189 31.2793 16.2317 31.4215 16.4659 31.5186C16.7001 31.6156 16.9512 31.6656 17.2047 31.6656C17.4582 31.6656 17.7092 31.6156 17.9435 31.5186C18.1777 31.4215 18.3905 31.2793 18.5697 31.1L27.7797 21.89C28.1388 21.5284 28.3403 21.0396 28.3403 20.53C28.3403 20.0204 28.1388 19.5316 27.7797 19.17ZM17.2597 29.69L3.68969 16.15V7H12.7897L26.3697 20.48L17.2597 29.69Z" fill="#01070E"/>
</svg>
