<svg width="32" height="24" viewBox="0 0 32 24" fill="none" xmlns="http://www.w3.org/2000/svg">
<path d="M30 0H2C1.46957 0 0.960859 0.210714 0.585786 0.585786C0.210714 0.960859 0 1.46957 0 2V22C0 22.5304 0.210714 23.0391 0.585786 23.4142C0.960859 23.7893 1.46957 24 2 24H30C30.5304 24 31.0391 23.7893 31.4142 23.4142C31.7893 23.0391 32 22.5304 32 22V2C32 1.46957 31.7893 0.960859 31.4142 0.585786C31.0391 0.210714 30.5304 0 30 0ZM2 22V2H30V22H2Z" fill="#01070E"/>
<path d="M11.3303 7.3501C10.4368 7.35207 9.56386 7.61885 8.82187 8.11671C8.07987 8.61457 7.50209 9.32119 7.16152 10.1473C6.82094 10.9734 6.73285 11.8819 6.90839 12.758C7.08392 13.6342 7.5152 14.4386 8.14773 15.0697C8.78026 15.7009 9.58566 16.1304 10.4622 16.304C11.3387 16.4776 12.247 16.3875 13.0723 16.0451C13.8977 15.7027 14.603 15.1233 15.0992 14.3802C15.5955 13.6371 15.8603 12.7636 15.8603 11.8701C15.8577 10.6704 15.3792 9.52074 14.53 8.67337C13.6807 7.82599 12.53 7.35009 11.3303 7.3501ZM11.3303 14.7901C10.7532 14.7881 10.1897 14.6152 9.71078 14.2931C9.23191 13.9711 8.8592 13.5144 8.63973 12.9806C8.42025 12.4469 8.36385 11.8601 8.47765 11.2943C8.59144 10.7286 8.87033 10.2092 9.2791 9.80184C9.68786 9.39447 10.2082 9.11735 10.7743 9.00549C11.3405 8.89363 11.9271 8.95204 12.46 9.17334C12.993 9.39464 13.4485 9.7689 13.7689 10.2489C14.0893 10.7288 14.2603 11.293 14.2603 11.8701C14.2603 12.2544 14.1845 12.6349 14.0371 12.9898C13.8897 13.3448 13.6737 13.6671 13.4015 13.9384C13.1293 14.2097 12.8062 14.4245 12.4508 14.5707C12.0954 14.7169 11.7146 14.7914 11.3303 14.7901Z" fill="#01070E"/>
<path d="M21.6196 7.3501C20.7256 7.3501 19.8517 7.61519 19.1084 8.11185C18.3651 8.60852 17.7858 9.31445 17.4437 10.1404C17.1016 10.9663 17.0121 11.8751 17.1865 12.7519C17.3609 13.6287 17.7914 14.4341 18.4235 15.0662C19.0556 15.6984 19.861 16.1288 20.7378 16.3032C21.6146 16.4777 22.5234 16.3881 23.3493 16.046C24.1753 15.7039 24.8812 15.1246 25.3779 14.3813C25.8745 13.638 26.1396 12.7641 26.1396 11.8701C26.137 10.6721 25.6599 9.52398 24.8128 8.67689C23.9657 7.8298 22.8176 7.35274 21.6196 7.3501ZM21.6196 14.7901C21.0421 14.7901 20.4775 14.6188 19.9973 14.298C19.5172 13.9771 19.1429 13.5211 18.9219 12.9875C18.7009 12.454 18.6431 11.8669 18.7557 11.3004C18.8684 10.734 19.1465 10.2137 19.5549 9.80535C19.9632 9.39698 20.4835 9.11887 21.0499 9.0062C21.6164 8.89354 22.2035 8.95136 22.737 9.17237C23.2706 9.39338 23.7266 9.76764 24.0475 10.2478C24.3684 10.728 24.5396 11.2926 24.5396 11.8701C24.5396 12.6445 24.232 13.3872 23.6844 13.9348C23.1368 14.4825 22.394 14.7901 21.6196 14.7901Z" fill="#01070E"/>
<path d="M4 5V17.55H6V6H27.34V4H5C4.73478 4 4.48043 4.10536 4.29289 4.29289C4.10536 4.48043 4 4.73478 4 5Z" fill="#01070E"/>
</svg>
