<svg width="33" height="30" viewBox="0 0 33 30" fill="none" xmlns="http://www.w3.org/2000/svg">
<path d="M6.81056 17.8696C6.80858 18.7664 7.07283 19.6436 7.56983 20.3901C8.06683 21.1366 8.77422 21.7188 9.60238 22.0629C10.4305 22.407 11.3422 22.4975 12.2219 22.3231C13.1015 22.1486 13.9096 21.7169 14.5437 21.0828C15.1779 20.4487 15.6095 19.6406 15.784 18.7609C15.9585 17.8813 15.8679 16.9696 15.5238 16.1414C15.1797 15.3133 14.5975 14.6059 13.851 14.1089C13.1046 13.6119 12.2274 13.3476 11.3306 13.3496C10.1326 13.3523 8.98444 13.8293 8.13735 14.6764C7.29026 15.5235 6.8132 16.6717 6.81056 17.8696ZM14.2606 17.8696C14.2725 18.4515 14.1108 19.0238 13.7962 19.5135C13.4816 20.0031 13.0282 20.388 12.494 20.619C11.9598 20.85 11.3689 20.9166 10.7966 20.8104C10.2244 20.7043 9.69668 20.43 9.28089 20.0228C8.8651 19.6155 8.58003 19.0936 8.46202 18.5237C8.34402 17.9537 8.39843 17.3616 8.61833 16.8227C8.83822 16.2838 9.21362 15.8226 9.69667 15.4979C10.1797 15.1732 10.7485 14.9997 11.3306 14.9996C12.0974 14.9995 12.8337 15.2999 13.3815 15.8365C13.9292 16.373 14.2449 17.103 14.2606 17.8696Z" fill="#01070E"/>
<path d="M5 10C4.73478 10 4.48043 10.1054 4.29289 10.2929C4.10536 10.4804 4 10.7348 4 11V23.55H6V12H16.57C16.5225 11.3062 16.6716 10.613 17 10H5Z" fill="#01070E"/>
<path d="M31.68 15.4H30V28H2V8H18.14L19.29 6H2C1.46957 6 0.960859 6.21071 0.585786 6.58579C0.210714 6.96086 0 7.46957 0 8V28C0 28.5304 0.210714 29.0391 0.585786 29.4142C0.960859 29.7893 1.46957 30 2 30H30C30.5304 30 31.0391 29.7893 31.4142 29.4142C31.7893 29.0391 32 28.5304 32 28V15.38L31.68 15.4Z" fill="#01070E"/>
<path d="M20.0909 15.3898C19.4532 15.367 18.8325 15.1774 18.2909 14.8398C17.7238 15.4641 17.3431 16.235 17.192 17.0648C17.041 17.8946 17.1257 18.7501 17.4365 19.5342C17.7473 20.3183 18.2717 20.9996 18.9502 21.5006C19.6288 22.0016 20.4342 22.3023 21.275 22.3685C22.1159 22.4347 22.9584 22.2638 23.707 21.8752C24.4556 21.4866 25.0802 20.8959 25.5099 20.1701C25.9397 19.4443 26.1572 18.6126 26.138 17.7694C26.1187 16.9262 25.8634 16.1052 25.4009 15.3998H23.1709C23.7103 15.7346 24.1258 16.2361 24.3547 16.8282C24.5835 17.4204 24.6131 18.0709 24.439 18.6814C24.2649 19.2919 23.8967 19.829 23.39 20.2114C22.8833 20.5939 22.2658 20.8007 21.6309 20.8007C20.9961 20.8007 20.3786 20.5939 19.8719 20.2114C19.3652 19.829 18.9969 19.2919 18.8229 18.6814C18.6488 18.0709 18.6784 17.4204 18.9072 16.8282C19.136 16.2361 19.5516 15.7346 20.0909 15.3998V15.3898Z" fill="#01070E"/>
<path d="M24.8492 1.13981L19.1292 11.0498C19.0061 11.2438 18.938 11.4676 18.9321 11.6973C18.9261 11.927 18.9826 12.154 19.0955 12.3541C19.2084 12.5542 19.3734 12.72 19.5731 12.8337C19.7727 12.9474 19.9995 13.0048 20.2292 12.9998H31.6792C31.9029 13.0004 32.1228 12.9418 32.3165 12.8301C32.5103 12.7184 32.6712 12.5575 32.7828 12.3636C32.8944 12.1698 32.9529 11.9499 32.9523 11.7262C32.9516 11.5026 32.8919 11.283 32.7792 11.0898L27.0592 1.13981C26.9464 0.946869 26.785 0.786825 26.5912 0.675603C26.3973 0.564381 26.1777 0.505859 25.9542 0.505859C25.7307 0.505859 25.5111 0.564381 25.3172 0.675603C25.1234 0.786825 24.962 0.946869 24.8492 1.13981Z" fill="#FAC400"/>
</svg>
