<svg width="36" height="36" viewBox="0 0 36 36" fill="none" xmlns="http://www.w3.org/2000/svg">
<path d="M18 2C14.8355 2 11.7421 2.93838 9.11088 4.69649C6.4797 6.45459 4.42894 8.95345 3.21793 11.8771C2.00693 14.8007 1.69008 18.0177 2.30744 21.1214C2.92481 24.2251 4.44866 27.0761 6.6863 29.3137C8.92394 31.5513 11.7749 33.0752 14.8786 33.6926C17.9823 34.3099 21.1993 33.9931 24.1229 32.7821C27.0466 31.5711 29.5454 29.5203 31.3035 26.8891C33.0616 24.2579 34 21.1645 34 18C34 13.7565 32.3143 9.68687 29.3137 6.68629C26.3131 3.68571 22.2435 2 18 2ZM18 32C15.2311 32 12.5243 31.1789 10.222 29.6406C7.91974 28.1022 6.12532 25.9157 5.06569 23.3576C4.00607 20.7994 3.72882 17.9845 4.26901 15.2687C4.80921 12.553 6.14258 10.0584 8.10051 8.1005C10.0584 6.14257 12.553 4.8092 15.2687 4.26901C17.9845 3.72881 20.7994 4.00606 23.3576 5.06569C25.9157 6.12531 28.1022 7.91973 29.6406 10.222C31.1789 12.5243 32 15.2311 32 18C32 21.713 30.525 25.274 27.8995 27.8995C25.274 30.525 21.713 32 18 32Z" fill="#01070E"/>
<path d="M17.9992 7.2002C15.8632 7.2002 13.7751 7.8336 11.9991 9.02032C10.223 10.207 8.83875 11.8938 8.02132 13.8672C7.2039 15.8407 6.99002 18.0122 7.40674 20.1072C7.82346 22.2022 8.85206 24.1265 10.3625 25.6369C11.8729 27.1474 13.7973 28.176 15.8922 28.5927C17.9872 29.0094 20.1588 28.7955 22.1322 27.9781C24.1056 27.1607 25.7924 25.7764 26.9791 24.0004C28.1658 22.2243 28.7992 20.1362 28.7992 18.0002C28.7966 15.1367 27.6579 12.3912 25.6331 10.3664C23.6082 8.34155 20.8627 7.20284 17.9992 7.2002ZM17.9992 27.2002C16.1796 27.2002 14.4009 26.6606 12.888 25.6497C11.375 24.6388 10.1959 23.202 9.49953 21.5209C8.80321 19.8398 8.62101 17.99 8.976 16.2054C9.33098 14.4207 10.2072 12.7815 11.4938 11.4948C12.7805 10.2082 14.4198 9.33195 16.2044 8.97697C17.989 8.62199 19.8388 8.80418 21.5199 9.5005C23.201 10.1968 24.6378 11.376 25.6487 12.8889C26.6597 14.4019 27.1992 16.1806 27.1992 18.0002C27.1966 20.4394 26.2264 22.7779 24.5017 24.5027C22.7769 26.2274 20.4384 27.1975 17.9992 27.2002Z" fill="#01070E"/>
<path d="M18.0005 12.3101C16.8752 12.3101 15.7751 12.6438 14.8394 13.269C13.9036 13.8942 13.1743 14.7829 12.7437 15.8226C12.313 16.8623 12.2003 18.0064 12.4199 19.1101C12.6394 20.2139 13.1814 21.2277 13.9771 22.0235C14.7729 22.8193 15.7867 23.3612 16.8905 23.5807C17.9942 23.8003 19.1383 23.6876 20.178 23.2569C21.2177 22.8263 22.1064 22.097 22.7316 21.1613C23.3568 20.2255 23.6905 19.1254 23.6905 18.0001C23.6905 16.491 23.0911 15.0437 22.024 13.9766C20.9569 12.9095 19.5096 12.3101 18.0005 12.3101ZM18.0005 22.0801C17.1912 22.0801 16.4 21.8399 15.7272 21.3901C15.0544 20.9402 14.5302 20.3008 14.2209 19.5529C13.9117 18.805 13.8313 17.9821 13.9899 17.1885C14.1485 16.3948 14.539 15.6661 15.112 15.0945C15.685 14.5229 16.4147 14.1341 17.2088 13.9774C18.0028 13.8207 18.8255 13.9032 19.5727 14.2143C20.3198 14.5254 20.9579 15.0511 21.4061 15.7251C21.8543 16.399 22.0925 17.1907 22.0905 18.0001C22.0905 19.0848 21.6596 20.1251 20.8926 20.8921C20.1256 21.6591 19.0853 22.0901 18.0005 22.0901V22.0801Z" fill="#01070E"/>
</svg>
