<svg width="36" height="36" viewBox="0 0 36 36" fill="none" xmlns="http://www.w3.org/2000/svg">
<path d="M19 9.89023L19.56 9.00023H12V7.33023C12 7.2869 12.0085 7.24399 12.0251 7.20395C12.0417 7.16391 12.066 7.12753 12.0967 7.09689C12.1273 7.06625 12.1637 7.04194 12.2037 7.02535C12.2438 7.00877 12.2867 7.00023 12.33 7.00023H16V6.00023C16 5.4698 16.2107 4.96109 16.5858 4.58602C16.9609 4.21095 17.4696 4.00023 18 4.00023C18.5304 4.00023 19.0391 4.21095 19.4142 4.58602C19.7893 4.96109 20 5.4698 20 6.00023V7.00023H20.71L21.87 5.00023C21.6463 4.14424 21.1451 3.38657 20.4448 2.84581C19.7445 2.30505 18.8848 2.01172 18 2.01172C17.1152 2.01172 16.2555 2.30505 15.5552 2.84581C14.8549 3.38657 14.3537 4.14424 14.13 5.00023H12.33C11.7129 5.00287 11.1217 5.24919 10.6853 5.68558C10.249 6.12197 10.0026 6.71309 10 7.33023V11.0002H18.64C18.6997 10.6133 18.8212 10.2385 19 9.89023Z" fill="#01070E"/>
<path d="M24.1905 15.3999L16.6605 22.9299L12.7205 18.9999C12.5304 18.8346 12.2849 18.7472 12.0331 18.7551C11.7813 18.763 11.5418 18.8656 11.3624 19.0425C11.183 19.2194 11.077 19.4574 11.0655 19.7091C11.054 19.9607 11.138 20.2075 11.3005 20.3999L16.6605 25.7599L26.7105 15.7099C26.7958 15.6199 26.8637 15.5147 26.9105 15.3999H24.1905Z" fill="#01070E"/>
<path d="M29 15.4V32H7V6.99996H9V4.99996H7C6.7551 4.96454 6.50548 4.98145 6.2676 5.04959C6.02972 5.11773 5.809 5.23554 5.62 5.39525C5.43099 5.55496 5.27801 5.75293 5.17114 5.9761C5.06426 6.19928 5.00594 6.44258 5 6.68996V32.31C5.00131 32.5332 5.04658 32.754 5.13322 32.9598C5.21987 33.1655 5.34619 33.3522 5.50498 33.5091C5.66377 33.666 5.85191 33.7902 6.05867 33.8744C6.26543 33.9586 6.48675 34.0013 6.71 34H29.29C29.5132 34.0013 29.7346 33.9586 29.9413 33.8744C30.1481 33.7902 30.3362 33.666 30.495 33.5091C30.6538 33.3522 30.7801 33.1655 30.8668 32.9598C30.9534 32.754 30.9987 32.5332 31 32.31V15.4H29Z" fill="#01070E"/>
<path d="M26.8504 1.13981L21.1304 10.9998C20.9973 11.1951 20.9209 11.4235 20.9097 11.6596C20.8984 11.8957 20.9527 12.1303 21.0666 12.3374C21.1806 12.5445 21.3496 12.716 21.555 12.8329C21.7604 12.9498 21.9942 13.0076 22.2304 12.9998H33.6804C33.9166 13.0076 34.1504 12.9498 34.3558 12.8329C34.5612 12.716 34.7302 12.5445 34.8441 12.3374C34.958 12.1303 35.0123 11.8957 35.0011 11.6596C34.9898 11.4235 34.9135 11.1951 34.7804 10.9998L29.0604 1.13981C28.9476 0.946869 28.7862 0.786825 28.5923 0.675603C28.3985 0.564381 28.1789 0.505859 27.9554 0.505859C27.7319 0.505859 27.5123 0.564381 27.3184 0.675603C27.1245 0.786825 26.9632 0.946869 26.8504 1.13981Z" fill="#01070E"/>
</svg>
