<svg width="36" height="36" viewBox="0 0 36 36" fill="none" xmlns="http://www.w3.org/2000/svg">
<path d="M32 5H4C3.46957 5 2.96086 5.21071 2.58579 5.58579C2.21071 5.96086 2 6.46957 2 7V29C2 29.5304 2.21071 30.0391 2.58579 30.4142C2.96086 30.7893 3.46957 31 4 31H32C32.5304 31 33.0391 30.7893 33.4142 30.4142C33.7893 30.0391 34 29.5304 34 29V7C34 6.46957 33.7893 5.96086 33.4142 5.58579C33.0391 5.21071 32.5304 5 32 5ZM4 7H32V9.2H4V7ZM4 29V10.8H32V29H4Z" fill="#01070E"/>
<path d="M23 23H17V25H23V23Z" fill="#01070E"/>
<path d="M7 15.68L13.79 18.8L7 21.91V24.11L16.6 19.7V17.89L7 13.48V15.68Z" fill="#01070E"/>
</svg>
