<svg width="36" height="36" viewBox="0 0 36 36" fill="none" xmlns="http://www.w3.org/2000/svg">
<path d="M12.19 8.83976C12.094 8.54546 11.9063 8.28962 11.6543 8.10968C11.4024 7.92975 11.0996 7.83516 10.79 7.83976H10.67C10.3574 7.83243 10.0508 7.92563 9.79515 8.10565C9.53952 8.28567 9.34843 8.543 9.25001 8.83976L1.14001 26.5598C1.04713 26.7425 0.999136 26.9448 1.00001 27.1498C1.00001 27.415 1.10537 27.6693 1.2929 27.8569C1.48044 28.0444 1.7348 28.1498 2.00001 28.1498C2.23857 28.1532 2.47199 28.0803 2.66625 27.9418C2.86052 27.8033 3.00548 27.6064 3.08001 27.3798L5.16001 22.7298H16.16L18.24 27.3198C18.322 27.5544 18.4726 27.759 18.6723 27.907C18.8721 28.055 19.1116 28.1396 19.36 28.1498C19.6464 28.1498 19.9211 28.036 20.1237 27.8334C20.3262 27.6309 20.44 27.3562 20.44 27.0698C20.428 26.8729 20.3806 26.6798 20.3 26.4998L12.19 8.83976ZM6.08001 20.7098L10.67 10.4898L15.27 20.7098H6.08001Z" fill="#01070E"/>
<path d="M32.2398 14.7802C31.6097 14.2226 30.875 13.7957 30.0784 13.5245C29.2819 13.2532 28.4394 13.143 27.5998 13.2002C25.9798 13.1946 24.3773 13.5356 22.8998 14.2002C22.7293 14.2791 22.5845 14.4044 22.4819 14.5619C22.3793 14.7193 22.3231 14.9024 22.3198 15.0902C22.3388 15.3313 22.4445 15.5574 22.6173 15.7265C22.7901 15.8957 23.0184 15.9965 23.2598 16.0102C23.3933 16.0049 23.5251 15.9779 23.6498 15.9302C24.8166 15.3942 26.0858 15.1178 27.3698 15.1202C30.0698 15.1202 31.6498 16.4502 31.6498 19.0402V19.5402C30.2143 19.1219 28.7251 18.9164 27.2298 18.9302C23.5898 18.9302 21.0898 20.5402 21.0898 23.5702V23.6202C21.0898 26.5702 23.7898 28.1002 26.4598 28.1002C27.4598 28.1294 28.4523 27.9196 29.3549 27.4883C30.2576 27.0569 31.0443 26.4165 31.6498 25.6202V26.9002C31.6498 27.1655 31.7552 27.4198 31.9427 27.6073C32.1303 27.7949 32.3846 27.9002 32.6498 27.9002C32.7864 27.9005 32.9215 27.8728 33.0469 27.8188C33.1723 27.7648 33.2854 27.6858 33.379 27.5865C33.4727 27.4872 33.5451 27.3697 33.5917 27.2414C33.6382 27.113 33.658 26.9765 33.6498 26.8402V19.0002C33.7092 18.2383 33.615 17.4721 33.3728 16.7473C33.1306 16.0224 32.7453 15.3535 32.2398 14.7802ZM31.6798 22.4802C31.6798 24.7602 29.5098 26.3702 26.8698 26.3702C24.9298 26.3702 23.2598 25.3102 23.2598 23.5102V23.4502C23.2598 21.6502 24.7598 20.4502 27.4598 20.4502C28.8882 20.4543 30.3088 20.6596 31.6798 21.0602V22.4802Z" fill="#01070E"/>
</svg>
