<svg width="36" height="36" viewBox="0 0 36 36" fill="none" xmlns="http://www.w3.org/2000/svg">
<path d="M19.4693 3.83995C19.3733 3.54565 19.1855 3.28981 18.9336 3.10987C18.6817 2.92994 18.3788 2.83535 18.0693 2.83995H17.9993C17.6864 2.83101 17.379 2.92358 17.123 3.10383C16.8671 3.28407 16.6763 3.54231 16.5793 3.83995L8.4193 21.5599C8.32849 21.7435 8.28062 21.9452 8.2793 22.1499C8.2793 22.4152 8.38465 22.6695 8.57219 22.8571C8.75973 23.0446 9.01408 23.1499 9.2793 23.1499C9.51822 23.155 9.75237 23.0827 9.94696 22.944C10.1415 22.8053 10.2862 22.6074 10.3593 22.3799L12.4393 17.7299H23.4393L25.5193 22.3199C25.6013 22.5546 25.7519 22.7592 25.9516 22.9072C26.1513 23.0552 26.3909 23.1398 26.6393 23.1499C26.7811 23.1499 26.9216 23.122 27.0526 23.0677C27.1836 23.0135 27.3027 22.9339 27.403 22.8336C27.5033 22.7333 27.5828 22.6143 27.6371 22.4832C27.6914 22.3522 27.7193 22.2118 27.7193 22.0699C27.7084 21.8729 27.6609 21.6796 27.5793 21.4999L19.4693 3.83995ZM13.3593 15.7099L17.9993 5.48995L22.5993 15.7099H13.3593Z" fill="#01070E"/>
<path d="M30.0605 25H6.06055C4.95598 25 4.06055 25.8954 4.06055 27V31C4.06055 32.1046 4.95598 33 6.06055 33H30.0605C31.1651 33 32.0605 32.1046 32.0605 31V27C32.0605 25.8954 31.1651 25 30.0605 25Z" fill="#01070E"/>
</svg>
