<svg width="36" height="36" viewBox="0 0 36 36" fill="none" xmlns="http://www.w3.org/2000/svg">
<path d="M19 23.17V11.46H17V23.2C16.3328 23.4359 15.7705 23.9 15.4124 24.5104C15.0543 25.1209 14.9235 25.8382 15.0432 26.5357C15.1629 27.2332 15.5253 27.8659 16.0663 28.3221C16.6074 28.7782 17.2923 29.0284 18 29.0284C18.7077 29.0284 19.3926 28.7782 19.9337 28.3221C20.4747 27.8659 20.8371 27.2332 20.9568 26.5357C21.0765 25.8382 20.9457 25.1209 20.5876 24.5104C20.2296 23.9 19.6672 23.4359 19 23.2V23.17Z" fill="#01070E"/>
<path d="M25.9997 15C26.2649 15 26.5192 14.8946 26.7068 14.7071C26.8943 14.5196 26.9997 14.2652 26.9997 14C26.9997 13.7348 26.8943 13.4804 26.7068 13.2929C26.5192 13.1054 26.2649 13 25.9997 13H23.9197V11H25.9997C26.2649 11 26.5192 10.8946 26.7068 10.7071C26.8943 10.5196 26.9997 10.2652 26.9997 10C26.9997 9.73478 26.8943 9.48043 26.7068 9.29289C26.5192 9.10536 26.2649 9 25.9997 9H23.9197V8C23.9197 6.4087 23.2875 4.88258 22.1623 3.75736C21.0371 2.63214 19.511 2 17.9197 2C16.3284 2 14.8022 2.63214 13.677 3.75736C12.5518 4.88258 11.9197 6.4087 11.9197 8V20.81C10.921 21.9816 10.2815 23.4164 10.078 24.9424C9.87452 26.4683 10.1156 28.0206 10.7724 29.4129C11.4292 30.8053 12.4738 31.9785 13.7809 32.7919C15.0879 33.6054 16.6019 34.0244 18.1411 33.9987C19.6804 33.9731 21.1796 33.5038 22.4588 32.6473C23.738 31.7908 24.7429 30.5834 25.3529 29.1699C25.9629 27.7565 26.1522 26.197 25.898 24.6787C25.6438 23.1604 24.9568 21.7476 23.9197 20.61V19H25.9997C26.2649 19 26.5192 18.8946 26.7068 18.7071C26.8943 18.5196 26.9997 18.2652 26.9997 18C26.9997 17.7348 26.8943 17.4804 26.7068 17.2929C26.5192 17.1054 26.2649 17 25.9997 17H23.9197V15H25.9997ZM23.9997 26C24 26.9797 23.7604 27.9445 23.3019 28.8102C22.8433 29.676 22.1798 30.4163 21.3692 30.9664C20.5586 31.5166 19.6256 31.8599 18.6518 31.9664C17.6779 32.0729 16.6928 31.9393 15.7824 31.5772C14.8721 31.2152 14.0643 30.6358 13.4295 29.8896C12.7948 29.1434 12.3524 28.2531 12.141 27.2965C11.9296 26.3399 11.9557 25.3461 12.2169 24.4019C12.4782 23.4578 12.9666 22.5919 13.6397 21.88L13.9097 21.59V8C13.9097 6.93913 14.3311 5.92172 15.0812 5.17157C15.8314 4.42143 16.8488 4 17.9097 4C18.9705 4 19.9879 4.42143 20.7381 5.17157C21.4882 5.92172 21.9097 6.93913 21.9097 8V21.44L22.2097 21.73C22.776 22.2877 23.2258 22.9524 23.5331 23.6854C23.8404 24.4184 23.999 25.2052 23.9997 26Z" fill="#01070E"/>
</svg>
