<svg width="36" height="36" viewBox="0 0 36 36" fill="none" xmlns="http://www.w3.org/2000/svg">
<path d="M13 30H5C4.73478 30 4.48043 29.8946 4.29289 29.7071C4.10536 29.5196 4 29.2652 4 29V4C4 3.46957 4.21071 2.96086 4.58579 2.58579C4.96086 2.21071 5.46957 2 6 2H12C12.5304 2 13.0391 2.21071 13.4142 2.58579C13.7893 2.96086 14 3.46957 14 4V29C14 29.2652 13.8946 29.5196 13.7071 29.7071C13.5196 29.8946 13.2652 30 13 30ZM6 28H12V4H6V28Z" fill="#01070E"/>
<path d="M9 8.91992C9.82843 8.91992 10.5 8.24835 10.5 7.41992C10.5 6.59149 9.82843 5.91992 9 5.91992C8.17157 5.91992 7.5 6.59149 7.5 7.41992C7.5 8.24835 8.17157 8.91992 9 8.91992Z" fill="#01070E"/>
<path d="M15 34H3C2.73478 34 2.48043 33.8946 2.29289 33.7071C2.10536 33.5196 2 33.2652 2 33C2 32.7348 2.10536 32.4804 2.29289 32.2929C2.48043 32.1054 2.73478 32 3 32H15C15.2652 32 15.5196 32.1054 15.7071 32.2929C15.8946 32.4804 16 32.7348 16 33C16 33.2652 15.8946 33.5196 15.7071 33.7071C15.5196 33.8946 15.2652 34 15 34Z" fill="#01070E"/>
<path d="M10.5508 12.2002H7.55078V13.8002H10.5508V12.2002Z" fill="#01070E"/>
<path d="M10.5508 15.2002H7.55078V16.8002H10.5508V15.2002Z" fill="#01070E"/>
<path d="M10.5508 18.2002H7.55078V19.8002H10.5508V18.2002Z" fill="#01070E"/>
<path d="M18 8H16V9.6H18V8Z" fill="#01070E"/>
<path d="M22 8H20V9.6H22V8Z" fill="#01070E"/>
<path d="M32.9992 11.8002H24.9992C24.787 11.8002 24.5836 11.7159 24.4335 11.5659C24.2835 11.4159 24.1992 11.2124 24.1992 11.0002V5.0002C24.1992 4.78802 24.2835 4.58454 24.4335 4.43451C24.5836 4.28448 24.787 4.2002 24.9992 4.2002H32.9992C33.2114 4.2002 33.4149 4.28448 33.5649 4.43451C33.7149 4.58454 33.7992 4.78802 33.7992 5.0002V11.0002C33.7992 11.2124 33.7149 11.4159 33.5649 11.5659C33.4149 11.7159 33.2114 11.8002 32.9992 11.8002ZM25.7992 10.2002H32.1992V5.8002H25.7992V10.2002Z" fill="#01070E"/>
<path d="M18 20H16V21.6H18V20Z" fill="#01070E"/>
<path d="M22 20H20V21.6H22V20Z" fill="#01070E"/>
<path d="M32.9992 23.8002H24.9992C24.787 23.8002 24.5836 23.7159 24.4335 23.5659C24.2835 23.4159 24.1992 23.2124 24.1992 23.0002V17.0002C24.1992 16.788 24.2835 16.5845 24.4335 16.4345C24.5836 16.2845 24.787 16.2002 24.9992 16.2002H32.9992C33.2114 16.2002 33.4149 16.2845 33.5649 16.4345C33.7149 16.5845 33.7992 16.788 33.7992 17.0002V23.0002C33.7992 23.2124 33.7149 23.4159 33.5649 23.5659C33.4149 23.7159 33.2114 23.8002 32.9992 23.8002ZM25.7992 22.2002H32.1992V17.8002H25.7992V22.2002Z" fill="#01070E"/>
</svg>
