<svg width="36" height="36" viewBox="0 0 36 36" fill="none" xmlns="http://www.w3.org/2000/svg">
<path d="M24.0005 26.0001C21.0805 27.8201 16.7005 30.0001 14.6305 30.0001H8.63046C7.11408 28.2272 5.98647 26.1559 5.32046 23.9201C4.48391 21.3617 4.03888 18.6915 4.00046 16.0001H13.0005V6.00007C13.0378 5.63068 13.1747 5.27835 13.3966 4.9807C13.6185 4.68306 13.9171 4.45126 14.2605 4.31007C15.0305 6.31007 16.8805 10.8801 18.4905 13.0301C19.8937 14.8496 21.8145 16.2021 24.0005 16.9101V14.7801C22.4468 14.1574 21.0942 13.1196 20.0905 11.7801C18.2105 9.27007 15.8005 2.67007 15.7805 2.61007C15.6924 2.37943 15.5221 2.18952 15.3024 2.0769C15.0827 1.96428 14.8291 1.93692 14.5905 2.00007C13.2505 2.38007 11.0005 3.60007 11.0005 6.00007V14.0001H3.00046C2.73525 14.0001 2.48089 14.1054 2.29336 14.293C2.10582 14.4805 2.00046 14.7348 2.00046 15.0001C1.92251 18.2627 2.39582 21.515 3.40046 24.6201C5.29046 30.0201 7.50046 31.7601 7.60046 31.8401C7.77501 31.9755 7.98951 32.0494 8.21046 32.0501H14.6305C17.0605 32.0501 21.1805 30.0501 24.0005 28.4201V26.0001Z" fill="#01070E"/>
<path d="M34 31H27C26.7348 31 26.4804 30.8946 26.2929 30.7071C26.1054 30.5196 26 30.2652 26 30V14C26 13.7348 26.1054 13.4804 26.2929 13.2929C26.4804 13.1054 26.7348 13 27 13H34V31ZM28 29H32V15H28V29Z" fill="#01070E"/>
</svg>
