<svg width="36" height="36" viewBox="0 0 36 36" fill="none" xmlns="http://www.w3.org/2000/svg">
<path d="M12 10.0001C14.92 8.18011 19.3 6.00011 21.37 6.00011H27.37C28.8864 7.773 30.014 9.84427 30.68 12.0801C31.5166 14.6385 31.9616 17.3087 32 20.0001H23V30.0001C22.9627 30.3695 22.8258 30.7218 22.6039 31.0195C22.382 31.3171 22.0834 31.5489 21.74 31.6901C20.97 29.6901 19.12 25.1201 17.51 22.9701C16.1067 21.1506 14.186 19.7981 12 19.0901V21.2201C13.5537 21.8428 14.9063 22.8806 15.91 24.2201C17.79 26.7301 20.2 33.3301 20.22 33.3901C20.3043 33.6244 20.473 33.8189 20.6931 33.9354C20.9132 34.0519 21.1688 34.0821 21.41 34.0201C22.75 33.6201 25 32.4001 25 30.0001V22.0001H33C33.2652 22.0001 33.5196 21.8948 33.7071 21.7072C33.8946 21.5197 34 21.2653 34 21.0001C34.078 17.7375 33.6046 14.4852 32.6 11.3801C30.71 5.98011 28.5 4.24011 28.4 4.16011C28.2192 4.04238 28.0053 3.98626 27.79 4.00011H21.37C18.94 4.00011 14.83 6.00011 12 7.63011V10.0001Z" fill="#01070E"/>
<path d="M2 5H9C9.26522 5 9.51957 5.10536 9.70711 5.29289C9.89464 5.48043 10 5.73478 10 6V22C10 22.2652 9.89464 22.5196 9.70711 22.7071C9.51957 22.8946 9.26522 23 9 23H2V5ZM8 7H4V21H8V7Z" fill="#01070E"/>
</svg>
