<svg width="36" height="36" viewBox="0 0 36 36" fill="none" xmlns="http://www.w3.org/2000/svg">
<path d="M10 18C10 16.7 9.2 15.6 8 15.2V11.8C9.2 11.4 10 10.3 10 9C10 7.3 8.7 6 7 6C5.3 6 4 7.3 4 9C4 10.3 4.8 11.4 6 11.8V15.2C4.8 15.6 4 16.7 4 18C4 19.3 4.8 20.4 6 20.8V24.2C4.8 24.6 4 25.7 4 27C4 28.7 5.3 30 7 30C8.7 30 10 28.7 10 27C10 25.7 9.2 24.6 8 24.2V20.8C9.2 20.4 10 19.3 10 18Z" fill="#01070E"/>
<path d="M31 10H15C14.4 10 14 9.6 14 9C14 8.4 14.4 8 15 8H31C31.6 8 32 8.4 32 9C32 9.6 31.6 10 31 10Z" fill="#01070E"/>
<path d="M31 19H15C14.4 19 14 18.6 14 18C14 17.4 14.4 17 15 17H31C31.6 17 32 17.4 32 18C32 18.6 31.6 19 31 19Z" fill="#01070E"/>
<path d="M31 28H15C14.4 28 14 27.6 14 27C14 26.4 14.4 26 15 26H31C31.6 26 32 26.4 32 27C32 27.6 31.6 28 31 28Z" fill="#01070E"/>
</svg>
