<svg width="36" height="36" viewBox="0 0 36 36" fill="none" xmlns="http://www.w3.org/2000/svg">
<path d="M19.4109 18.0002L27.701 9.71019C27.8648 9.51888 27.9504 9.27281 27.9407 9.02113C27.9309 8.76946 27.8266 8.53072 27.6485 8.35262C27.4704 8.17453 27.2317 8.0702 26.98 8.06047C26.7283 8.05075 26.4823 8.13636 26.291 8.30019L18.0009 16.5902L9.71095 8.29019C9.52265 8.10188 9.26725 7.99609 9.00095 7.99609C8.73465 7.99609 8.47925 8.10188 8.29095 8.29019C8.10265 8.47849 7.99686 8.73388 7.99686 9.00019C7.99686 9.26649 8.10265 9.52188 8.29095 9.71019L16.591 18.0002L8.29095 26.2902C8.18627 26.3798 8.10125 26.4902 8.04122 26.6142C7.9812 26.7383 7.94747 26.8734 7.94215 27.0111C7.93683 27.1488 7.96004 27.2862 8.01031 27.4145C8.06059 27.5428 8.13684 27.6594 8.2343 27.7568C8.33175 27.8543 8.4483 27.9305 8.57663 27.9808C8.70495 28.0311 8.84228 28.0543 8.98 28.049C9.11772 28.0437 9.25285 28.0099 9.37692 27.9499C9.50098 27.8899 9.6113 27.8049 9.70095 27.7002L18.0009 19.4102L26.291 27.7002C26.4823 27.864 26.7283 27.9496 26.98 27.9399C27.2317 27.9302 27.4704 27.8258 27.6485 27.6477C27.8266 27.4697 27.9309 27.2309 27.9407 26.9792C27.9504 26.7276 27.8648 26.4815 27.701 26.2902L19.4109 18.0002Z" fill="#01070E"/>
</svg>
