<svg width="36" height="36" viewBox="0 0 36 36" fill="none" xmlns="http://www.w3.org/2000/svg">
<path d="M14.9992 19.2002C11.7992 19.2002 9.19922 21.8002 9.19922 25.0002C9.19922 28.2002 11.7992 30.8002 14.9992 30.8002C18.1992 30.8002 20.7992 28.2002 20.7992 25.0002C20.7992 21.8002 18.1992 19.2002 14.9992 19.2002ZM14.9992 29.2002C12.6992 29.2002 10.7992 27.3002 10.7992 25.0002C10.7992 22.7002 12.6992 20.8002 14.9992 20.8002C17.2992 20.8002 19.1992 22.7002 19.1992 25.0002C19.1992 27.3002 17.2992 29.2002 14.9992 29.2002Z" fill="#01070E"/>
<path d="M16 24H14V26H16V24Z" fill="#01070E"/>
<path d="M33 9H2V22.1C2 24.3 3.7 26 5.9 26H7V24H5.9C4.9 24 4.1 23.2 4 22.1V15H26V22.1C26 23.1 25.2 23.9 24.1 24H23V26H24.1C26.2 26 27.9 24.3 27.9 22.1V11H32.9C33.5 11 33.9 10.6 33.9 10C33.9 9.4 33.6 9 33 9ZM26 13H4V11H26V13Z" fill="#01070E"/>
</svg>
