<svg width="36" height="36" viewBox="0 0 36 36" fill="none" xmlns="http://www.w3.org/2000/svg">
<path d="M27.1409 34H8.86086C8.47605 33.9909 8.0968 33.9061 7.74479 33.7504C7.39277 33.5947 7.07488 33.3711 6.80928 33.0925C6.54369 32.8139 6.33559 32.4857 6.19687 32.1267C6.05816 31.7676 5.99155 31.3848 6.00086 31V11.23H8.00086V31C7.99131 31.1222 8.00601 31.2451 8.04412 31.3616C8.08223 31.4781 8.143 31.5859 8.22292 31.6788C8.30284 31.7717 8.40035 31.848 8.50983 31.9031C8.61931 31.9582 8.7386 31.9911 8.86086 32H27.1409C27.2631 31.9911 27.3824 31.9582 27.4919 31.9031C27.6014 31.848 27.6989 31.7717 27.7788 31.6788C27.8587 31.5859 27.9195 31.4781 27.9576 31.3616C27.9957 31.2451 28.0104 31.1222 28.0009 31V11.23H30.0009V31C30.0102 31.3848 29.9436 31.7676 29.8048 32.1267C29.6661 32.4857 29.458 32.8139 29.1924 33.0925C28.9268 33.3711 28.6089 33.5947 28.2569 33.7504C27.9049 33.9061 27.5257 33.9909 27.1409 34Z" fill="#01070E"/>
<path d="M30.78 9H5C4.73478 9 4.48043 8.89464 4.29289 8.70711C4.10536 8.51957 4 8.26522 4 8C4 7.73478 4.10536 7.48043 4.29289 7.29289C4.48043 7.10536 4.73478 7 5 7H30.78C31.0452 7 31.2996 7.10536 31.4871 7.29289C31.6746 7.48043 31.78 7.73478 31.78 8C31.78 8.26522 31.6746 8.51957 31.4871 8.70711C31.2996 8.89464 31.0452 9 30.78 9Z" fill="#01070E"/>
<path d="M23 13H21V28H23V13Z" fill="#01070E"/>
<path d="M15 13H13V28H15V13Z" fill="#01070E"/>
<path d="M23 5.86H21.1V4H14.9V5.86H13V4C12.9994 3.48645 13.1963 2.99233 13.55 2.62C13.9037 2.24767 14.3871 2.02568 14.9 2H21.1C21.6129 2.02568 22.0963 2.24767 22.45 2.62C22.8037 2.99233 23.0006 3.48645 23 4V5.86Z" fill="#01070E"/>
</svg>
