<svg width="36" height="36" viewBox="0 0 36 36" fill="none" xmlns="http://www.w3.org/2000/svg">
<path d="M30.6 11.7002C29.2 5.8002 24 1.7002 18 1.7002C10.8 1.7002 5 7.5002 5 14.7002C5 21.5002 10.3 27.1002 17 27.6002V32.6002C17 33.2002 17.4 33.6002 18 33.6002C18.6 33.6002 19 33.2002 19 32.6002V27.6002V25.6002V22.0002C19 22.0002 19 22.0002 19 21.9002V18.3002L23.7 13.6002C24.1 13.2002 24.1 12.6002 23.7 12.2002C23.3 11.8002 22.7 11.8002 22.3 12.2002L19 15.6002V12.6002L15.7 9.3002C15.3 8.9002 14.7 8.9002 14.3 9.3002C13.9 9.7002 13.9 10.3002 14.3 10.7002L17 13.4002V19.6002L13.2 15.8002C12.8 15.4002 12.2 15.4002 11.8 15.8002C11.4 16.2002 11.4 16.8002 11.8 17.2002L17 22.4002V25.6002C11.4 25.1002 7 20.4002 7 14.7002C7 8.6002 11.9 3.7002 18 3.7002C24.1 3.7002 29 8.6002 29 14.7002C29 19.6002 25.7 23.9002 21 25.3002V27.4002C28 25.7002 32.3 18.7002 30.6 11.7002Z" fill="#01070E"/>
</svg>
