<svg width="36" height="36" viewBox="0 0 36 36" fill="none" xmlns="http://www.w3.org/2000/svg">
<path d="M15 32H11C10.7348 32 10.4804 31.8946 10.2929 31.7071C10.1054 31.5196 10 31.2652 10 31V27C10 26.7348 10.1054 26.4804 10.2929 26.2929C10.4804 26.1054 10.7348 26 11 26H15C15.2652 26 15.5196 26.1054 15.7071 26.2929C15.8946 26.4804 16 26.7348 16 27V31C16 31.2652 15.8946 31.5196 15.7071 31.7071C15.5196 31.8946 15.2652 32 15 32ZM12 30H14V28H12V30Z" fill="#01070E"/>
<path d="M15 16H11C10.7348 16 10.4804 16.1054 10.2929 16.2929C10.1054 16.4804 10 16.7348 10 17V18.2H5.8V12H7C7.26522 12 7.51957 11.8946 7.70711 11.7071C7.89464 11.5196 8 11.2652 8 11V7C8 6.73478 7.89464 6.48043 7.70711 6.29289C7.51957 6.10536 7.26522 6 7 6H3C2.73478 6 2.48043 6.10536 2.29289 6.29289C2.10536 6.48043 2 6.73478 2 7V11C2 11.2652 2.10536 11.5196 2.29289 11.7071C2.48043 11.8946 2.73478 12 3 12H4.2V29.8H10.56C10.7722 29.8 10.9757 29.7157 11.1257 29.5657C11.2757 29.4157 11.36 29.2122 11.36 29C11.36 28.7878 11.2757 28.5843 11.1257 28.4343C10.9757 28.2843 10.7722 28.2 10.56 28.2H5.8V19.8H10V21C10 21.2652 10.1054 21.5196 10.2929 21.7071C10.4804 21.8946 10.7348 22 11 22H15C15.2652 22 15.5196 21.8946 15.7071 21.7071C15.8946 21.5196 16 21.2652 16 21V17C16 16.7348 15.8946 16.4804 15.7071 16.2929C15.5196 16.1054 15.2652 16 15 16ZM4 8H6V10H4V8ZM14 20H12V18H14V20Z" fill="#01070E"/>
<path d="M34 9C34 8.73478 33.8946 8.48043 33.7071 8.29289C33.5196 8.10536 33.2652 8 33 8H10V10H33C33.2652 10 33.5196 9.89464 33.7071 9.70711C33.8946 9.51957 34 9.26522 34 9Z" fill="#01070E"/>
<path d="M33 18H18V20H33C33.2652 20 33.5196 19.8946 33.7071 19.7071C33.8946 19.5196 34 19.2652 34 19C34 18.7348 33.8946 18.4804 33.7071 18.2929C33.5196 18.1054 33.2652 18 33 18Z" fill="#01070E"/>
<path d="M33 28H18V30H33C33.2652 30 33.5196 29.8946 33.7071 29.7071C33.8946 29.5196 34 29.2652 34 29C34 28.7348 33.8946 28.4804 33.7071 28.2929C33.5196 28.1054 33.2652 28 33 28Z" fill="#01070E"/>
</svg>
