<svg width="36" height="36" viewBox="0 0 36 36" fill="none" xmlns="http://www.w3.org/2000/svg">
<path d="M30 12H26V7C26 6.73478 25.8946 6.48043 25.7071 6.29289C25.5196 6.10536 25.2652 6 25 6H3C2.73478 6 2.48043 6.10536 2.29289 6.29289C2.10536 6.48043 2 6.73478 2 7V25C2 25.2652 2.10536 25.5196 2.29289 25.7071C2.48043 25.8946 2.73478 26 3 26H4V8H24V19.7C24.5099 19.5699 25.0338 19.5028 25.56 19.5C25.71 19.5 25.85 19.5 26 19.5V14H30C30.5304 14 31.0391 14.2107 31.4142 14.5858C31.7893 14.9609 32 15.4696 32 16V17H28V19H32V24H29.6C29.2492 23.1851 28.6672 22.4908 27.9261 22.003C27.185 21.5152 26.3172 21.2552 25.43 21.2552C24.5428 21.2552 23.675 21.5152 22.9339 22.003C22.1928 22.4908 21.6108 23.1851 21.26 24H14.43C14.0858 23.1791 13.5059 22.4787 12.7637 21.9874C12.0214 21.4962 11.1501 21.236 10.26 21.24C9.41428 21.2587 8.59205 21.5218 7.89266 21.9977C7.19327 22.4736 6.64665 23.1418 6.31884 23.9216C5.99103 24.7015 5.89606 25.5595 6.0454 26.3922C6.19474 27.2248 6.582 27.9964 7.1604 28.6137C7.73879 29.231 8.48357 29.6676 9.30474 29.8708C10.1259 30.0739 10.9884 30.0349 11.7878 29.7585C12.5873 29.4821 13.2897 28.98 13.81 28.3131C14.3303 27.6461 14.6464 26.8427 14.72 26H21C21.1271 27.0937 21.6516 28.1027 22.4739 28.8349C23.2962 29.5672 24.3589 29.9718 25.46 29.9718C26.5611 29.9718 27.6238 29.5672 28.4461 28.8349C29.2684 28.1027 29.7929 27.0937 29.92 26H33C33.2652 26 33.5196 25.8946 33.7071 25.7071C33.8946 25.5196 34 25.2652 34 25V16C34 14.9391 33.5786 13.9217 32.8284 13.1716C32.0783 12.4214 31.0609 12 30 12ZM10.26 28C9.93515 28.0211 9.60943 27.9753 9.30297 27.8655C8.99652 27.7557 8.71585 27.5842 8.47832 27.3616C8.2408 27.139 8.05146 26.87 7.92203 26.5713C7.79259 26.2726 7.72581 25.9505 7.72581 25.625C7.72581 25.2995 7.79259 24.9774 7.92203 24.6787C8.05146 24.38 8.2408 24.111 8.47832 23.8884C8.71585 23.6658 8.99652 23.4943 9.30297 23.3845C9.60943 23.2747 9.93515 23.2289 10.26 23.25C10.5849 23.2289 10.9106 23.2747 11.217 23.3845C11.5235 23.4943 11.8042 23.6658 12.0417 23.8884C12.2792 24.111 12.4685 24.38 12.598 24.6787C12.7274 24.9774 12.7942 25.2995 12.7942 25.625C12.7942 25.9505 12.7274 26.2726 12.598 26.5713C12.4685 26.87 12.2792 27.139 12.0417 27.3616C11.8042 27.5842 11.5235 27.7557 11.217 27.8655C10.9106 27.9753 10.5849 28.0211 10.26 28ZM25.43 28C24.9647 27.9765 24.5165 27.817 24.141 27.5411C23.7655 27.2653 23.4793 26.8854 23.3177 26.4484C23.1561 26.0114 23.1264 25.5366 23.2321 25.0828C23.3379 24.6291 23.5745 24.2163 23.9126 23.8958C24.2507 23.5753 24.6755 23.361 25.1342 23.2796C25.593 23.1982 26.0655 23.2533 26.4933 23.4379C26.921 23.6226 27.2852 23.9287 27.5406 24.3184C27.796 24.708 27.9314 25.1641 27.93 25.63C27.9117 26.2754 27.6383 26.8873 27.1697 27.3315C26.7011 27.7758 26.0755 28.0161 25.43 28Z" fill="#01070E"/>
</svg>
