<svg width="36" height="36" viewBox="0 0 36 36" fill="none" xmlns="http://www.w3.org/2000/svg">
<path d="M23.4301 16.8299C23.2431 16.6402 22.9885 16.5327 22.7221 16.5308C22.4558 16.5289 22.1997 16.6329 22.0101 16.8199C21.8204 17.0069 21.7129 17.2615 21.711 17.5278C21.7091 17.7941 21.8131 18.0502 22.0001 18.2399L25.7201 21.9999H7.83008C7.56486 21.9999 7.31051 22.1052 7.12297 22.2928C6.93544 22.4803 6.83008 22.7347 6.83008 22.9999C6.83008 23.2651 6.93544 23.5194 7.12297 23.707C7.31051 23.8945 7.56486 23.9999 7.83008 23.9999H25.7201L22.0001 27.6999C21.9075 27.7931 21.8342 27.9037 21.7843 28.0252C21.7345 28.1468 21.7091 28.277 21.7095 28.4084C21.71 28.5398 21.7363 28.6698 21.787 28.791C21.8378 28.9123 21.9118 29.0223 22.0051 29.1149C22.0983 29.2075 22.2089 29.2808 22.3304 29.3306C22.452 29.3805 22.5822 29.4059 22.7136 29.4054C22.845 29.405 22.975 29.3786 23.0962 29.3279C23.2175 29.2772 23.3275 29.2031 23.4201 29.1099L29.5301 22.9999L23.4301 16.8299Z" fill="#01070E"/>
<path d="M13.2399 18.45C13.4385 18.4512 13.633 18.3931 13.7985 18.2833C13.9641 18.1735 14.0931 18.0169 14.1693 17.8335C14.2455 17.6501 14.2653 17.4481 14.2262 17.2533C14.1871 17.0586 14.091 16.8799 13.9499 16.74L10.2399 13H28.1199C28.3851 13 28.6395 12.8947 28.827 12.7071C29.0146 12.5196 29.1199 12.2652 29.1199 12C29.1199 11.7348 29.0146 11.4804 28.827 11.2929C28.6395 11.1054 28.3851 11 28.1199 11H10.2399L13.9499 7.27002C14.0425 7.17678 14.1158 7.06622 14.1657 6.94464C14.2155 6.82307 14.2409 6.69287 14.2405 6.56148C14.24 6.43008 14.2137 6.30007 14.163 6.17885C14.1123 6.05764 14.0382 5.9476 13.9449 5.85502C13.8517 5.76243 13.7411 5.68912 13.6196 5.63927C13.498 5.58942 13.3678 5.564 13.2364 5.56446C12.971 5.5654 12.7169 5.67171 12.5299 5.86002L6.41992 12L12.5299 18.14C12.6217 18.2363 12.7318 18.3133 12.8537 18.3666C12.9756 18.4198 13.1069 18.4482 13.2399 18.45Z" fill="#01070E"/>
</svg>
