<svg width="36" height="36" viewBox="0 0 36 36" fill="none" xmlns="http://www.w3.org/2000/svg">
<path d="M29 32H7V22H5V32C5 32.5304 5.21071 33.0391 5.58579 33.4142C5.96086 33.7893 6.46957 34 7 34H29C29.5304 34 30.0391 33.7893 30.4142 33.4142C30.7893 33.0391 31 32.5304 31 32V22H29V32Z" fill="#01070E"/>
<path d="M14 24C14 24.2652 14.1054 24.5196 14.2929 24.7071C14.4804 24.8946 14.7348 25 15 25H21C21.2652 25 21.5196 24.8946 21.7071 24.7071C21.8946 24.5196 22 24.2652 22 24C22 23.7348 21.8946 23.4804 21.7071 23.2929C21.5196 23.1054 21.2652 23 21 23H15C14.7348 23 14.4804 23.1054 14.2929 23.2929C14.1054 23.4804 14 23.7348 14 24Z" fill="#01070E"/>
<path d="M15 18H6V14H15V12H5.5C5.10218 12 4.72064 12.158 4.43934 12.4393C4.15804 12.7206 4 13.1022 4 13.5V20H15.78C15.2822 19.4524 15.0044 18.7401 15 18Z" fill="#01070E"/>
<path d="M30.5007 12H21.0007V14H30.0007V18H21.0007C20.9963 18.7401 20.7185 19.4524 20.2207 20H32.0007V13.5C32.0007 13.1022 31.8427 12.7206 31.5614 12.4393C31.2801 12.158 30.8985 12 30.5007 12Z" fill="#01070E"/>
<path d="M13.0006 9.54979L17.0006 5.59979V17.9998C17.0006 18.265 17.106 18.5194 17.2935 18.7069C17.4811 18.8944 17.7354 18.9998 18.0006 18.9998C18.2659 18.9998 18.5202 18.8944 18.7077 18.7069C18.8953 18.5194 19.0006 18.265 19.0006 17.9998V5.59979L23.0006 9.54979C23.0939 9.64237 23.2044 9.71568 23.326 9.76553C23.4476 9.81538 23.5778 9.84081 23.7092 9.84034C23.8406 9.83988 23.9706 9.81354 24.0918 9.76283C24.213 9.71211 24.3231 9.63802 24.4156 9.54479C24.5082 9.45155 24.5815 9.34099 24.6314 9.21942C24.6812 9.09785 24.7067 8.96765 24.7062 8.83625C24.7057 8.70486 24.6794 8.57484 24.6287 8.45362C24.578 8.33241 24.5039 8.22237 24.4106 8.12979L18.0006 1.77979L11.6106 8.12979C11.4558 8.32037 11.3764 8.56127 11.3878 8.80658C11.3991 9.05188 11.5003 9.28444 11.6721 9.45993C11.8439 9.63542 12.0742 9.74156 12.3192 9.75813C12.5642 9.7747 12.8068 9.70054 13.0006 9.54979Z" fill="#01070E"/>
</svg>
