<svg width="36" height="36" viewBox="0 0 36 36" fill="none" xmlns="http://www.w3.org/2000/svg">
<path d="M17.9991 28.1701C23.0791 28.1701 26.4791 25.0901 26.4791 19.1701V8.54014C26.4791 8.23514 26.3579 7.94263 26.1423 7.72696C25.9266 7.5113 25.6341 7.39014 25.3291 7.39014C25.0241 7.39014 24.7316 7.5113 24.5159 7.72696C24.3002 7.94263 24.1791 8.23514 24.1791 8.54014V19.3401C24.1791 23.7801 21.7991 26.0501 18.0491 26.0501C14.2991 26.0501 11.8391 23.5801 11.8391 19.2001V8.54014C11.8391 8.23514 11.7179 7.94263 11.5023 7.72696C11.2866 7.5113 10.9941 7.39014 10.6891 7.39014C10.3841 7.39014 10.0916 7.5113 9.87591 7.72696C9.66024 7.94263 9.53908 8.23514 9.53908 8.54014V19.3401C9.52908 25.0901 12.9991 28.1701 17.9991 28.1701Z" fill="#01070E"/>
<path d="M31.0009 30H5.00086C4.72593 30.0262 4.47064 30.1539 4.28484 30.3582C4.09905 30.5626 3.99609 30.8288 3.99609 31.105C3.99609 31.3812 4.09905 31.6474 4.28484 31.8518C4.47064 32.0561 4.72593 32.1838 5.00086 32.21H31.0009C31.2758 32.1838 31.5311 32.0561 31.7169 31.8518C31.9027 31.6474 32.0056 31.3812 32.0056 31.105C32.0056 30.8288 31.9027 30.5626 31.7169 30.3582C31.5311 30.1539 31.2758 30.0262 31.0009 30Z" fill="#01070E"/>
</svg>
