<svg width="36" height="36" viewBox="0 0 36 36" fill="none" xmlns="http://www.w3.org/2000/svg">
<path d="M11.2897 26.7202C11.4771 26.9065 11.7305 27.011 11.9947 27.011C12.2589 27.011 12.5123 26.9065 12.6997 26.7202L17.9997 21.4902L23.2997 26.7202C23.4922 26.8828 23.7389 26.9667 23.9905 26.9553C24.2422 26.9438 24.4802 26.8378 24.6571 26.6584C24.834 26.479 24.9366 26.2394 24.9445 25.9876C24.9524 25.7359 24.865 25.4904 24.6997 25.3002L19.4197 20.0902L24.1697 15.4002H22.2297C21.9568 15.3973 21.6851 15.3637 21.4197 15.3002L17.9997 18.6802L12.6997 13.4502C12.5114 13.2633 12.2565 13.1587 11.9912 13.1597C11.7258 13.1606 11.4717 13.2669 11.2847 13.4552C11.0977 13.6435 10.9932 13.8984 10.9941 14.1638C10.9951 14.4291 11.1014 14.6833 11.2897 14.8702L16.5697 20.0802L11.2997 25.3002C11.2053 25.3925 11.1301 25.5026 11.0785 25.6241C11.0269 25.7456 10.9998 25.8761 10.9989 26.0081C10.998 26.1402 11.0232 26.2711 11.0731 26.3933C11.123 26.5155 11.1966 26.6266 11.2897 26.7202Z" fill="#01070E"/>
<path d="M31 15.4001V30.0001H5V10.0001H9.38C9.64522 10.0001 9.89957 9.89478 10.0871 9.70724C10.2746 9.51971 10.38 9.26535 10.38 9.00014C10.38 8.73492 10.2746 8.48057 10.0871 8.29303C9.89957 8.10549 9.64522 8.00014 9.38 8.00014H5.08C4.8107 7.98936 4.542 8.03312 4.29004 8.12879C4.03808 8.22446 3.80806 8.37007 3.61378 8.55687C3.41951 8.74367 3.26499 8.96781 3.15952 9.21583C3.05404 9.46385 2.99978 9.73062 3 10.0001V30.0001C2.99978 30.2696 3.05404 30.5364 3.15952 30.7844C3.26499 31.0325 3.41951 31.2566 3.61378 31.4434C3.80806 31.6302 4.03808 31.7758 4.29004 31.8715C4.542 31.9672 4.8107 32.0109 5.08 32.0001H30.92C31.1893 32.0109 31.458 31.9672 31.71 31.8715C31.9619 31.7758 32.1919 31.6302 32.3862 31.4434C32.5805 31.2566 32.735 31.0325 32.8405 30.7844C32.946 30.5364 33.0002 30.2696 33 30.0001V15.4001H31Z" fill="#01070E"/>
<path d="M26.8504 1.13981L21.1304 10.9998C20.9973 11.1951 20.9209 11.4235 20.9097 11.6596C20.8984 11.8957 20.9527 12.1303 21.0666 12.3374C21.1806 12.5445 21.3496 12.716 21.555 12.8329C21.7604 12.9498 21.9942 13.0076 22.2304 12.9998H33.6804C33.9166 13.0076 34.1504 12.9498 34.3558 12.8329C34.5612 12.716 34.7302 12.5445 34.8441 12.3374C34.958 12.1303 35.0123 11.8957 35.0011 11.6596C34.9898 11.4235 34.9135 11.1951 34.7804 10.9998L29.0604 1.13981C28.9476 0.946869 28.7862 0.786825 28.5923 0.675603C28.3985 0.564381 28.1789 0.505859 27.9554 0.505859C27.7319 0.505859 27.5123 0.564381 27.3184 0.675603C27.1245 0.786825 26.9632 0.946869 26.8504 1.13981Z" fill="#01070E"/>
</svg>
