<svg width="36" height="36" viewBox="0 0 36 36" fill="none" xmlns="http://www.w3.org/2000/svg">
<path d="M17.5797 27.6301C18.3529 27.6301 18.9797 27.0033 18.9797 26.2301C18.9797 25.4569 18.3529 24.8301 17.5797 24.8301C16.8065 24.8301 16.1797 25.4569 16.1797 26.2301C16.1797 27.0033 16.8065 27.6301 17.5797 27.6301Z" fill="#01070E"/>
<path d="M24.6996 13.0001C24.6055 12.2896 24.3649 11.6063 23.9931 10.9935C23.6213 10.3808 23.1263 9.8518 22.5396 9.44014C21.7143 8.87487 20.7811 8.48626 19.7985 8.29869C18.8159 8.11112 17.8051 8.12864 16.8296 8.35014C15.078 8.6584 13.4234 9.37435 11.9996 10.4401C11.8972 10.5229 11.812 10.625 11.7491 10.7406C11.6861 10.8562 11.6465 10.9831 11.6326 11.1141C11.6045 11.3785 11.6825 11.6433 11.8496 11.8501C12.0167 12.057 12.2591 12.189 12.5235 12.2172C12.788 12.2453 13.0527 12.1672 13.2596 12.0001C14.421 11.1276 15.7702 10.5386 17.1996 10.2801C17.9066 10.111 18.6409 10.0894 19.3567 10.2168C20.0724 10.3441 20.7543 10.6176 21.3596 11.0201C21.7235 11.2723 22.0313 11.5971 22.2636 11.974C22.4959 12.3509 22.6478 12.7717 22.7096 13.2101C23.0396 15.9001 19.5196 16.9601 17.3896 17.3501L16.5696 17.5001V21.8601C16.5696 22.1254 16.675 22.3797 16.8625 22.5672C17.05 22.7548 17.3044 22.8601 17.5696 22.8601C17.8348 22.8601 18.0892 22.7548 18.2767 22.5672C18.4642 22.3797 18.5696 22.1254 18.5696 21.8601V19.1701C24.6096 17.7901 24.8796 14.4101 24.6996 13.0001Z" fill="#01070E"/>
</svg>
