<svg width="36" height="36" viewBox="0 0 36 36" fill="none" xmlns="http://www.w3.org/2000/svg">
<path d="M4.99984 5L3.58984 6.41L12.5898 15.41L8.09984 19.79C7.54624 20.3394 7.10685 20.9929 6.807 21.7129C6.50716 22.4329 6.35278 23.2051 6.35278 23.985C6.35278 24.7649 6.50716 25.5371 6.807 26.2571C7.10685 26.9771 7.54624 27.6306 8.09984 28.18C9.22317 29.2914 10.7396 29.9148 12.3198 29.9148C13.9001 29.9148 15.4165 29.2914 16.5398 28.18L20.9998 23.78L29.6298 32.41L30.9998 31L4.99984 5ZM15.1298 26.76C14.3812 27.4989 13.3717 27.9133 12.3198 27.9133C11.268 27.9133 10.2584 27.4989 9.50984 26.76C9.1449 26.3959 8.85536 25.9633 8.6578 25.4872C8.46025 25.011 8.35856 24.5005 8.35856 23.985C8.35856 23.4695 8.46025 22.959 8.6578 22.4828C8.85536 22.0067 9.1449 21.5741 9.50984 21.21L13.9998 16.79L19.5798 22.37L15.1298 26.76Z" fill="#01070E"/>
<path d="M21.5291 9.22007C22.2777 8.48114 23.2873 8.06681 24.3391 8.06681C25.391 8.06681 26.4005 8.48114 27.1491 9.22007C27.5141 9.58419 27.8036 10.0167 28.0012 10.4929C28.1987 10.9691 28.3004 11.4795 28.3004 11.9951C28.3004 12.5106 28.1987 13.0211 28.0012 13.4972C27.8036 13.9734 27.5141 14.406 27.1491 14.7701L22.3591 19.5301L23.7791 21.0001L28.5691 16.2401C29.1215 15.69 29.5599 15.0363 29.859 14.3164C30.1581 13.5965 30.312 12.8246 30.312 12.0451C30.312 11.2655 30.1581 10.4936 29.859 9.77375C29.5599 9.05386 29.1215 8.40012 28.5691 7.85007C27.4458 6.73864 25.9294 6.11523 24.3491 6.11523C22.7689 6.11523 21.2525 6.73864 20.1291 7.85007L15.3691 12.5901L16.7791 14.0001L21.5291 9.22007Z" fill="#01070E"/>
</svg>
