<svg width="36" height="36" viewBox="0 0 36 36" fill="none" xmlns="http://www.w3.org/2000/svg">
<path d="M12.0006 25.14V28H14.0006V25.23C14.5138 25.0242 14.9409 24.6488 15.2111 24.1665C15.4813 23.6841 15.5781 23.1238 15.4855 22.5787C15.3929 22.0336 15.1165 21.5367 14.7022 21.1706C14.2879 20.8045 13.7608 20.5913 13.2085 20.5664C12.6562 20.5416 12.112 20.7066 11.6665 21.034C11.221 21.3614 10.9011 21.8315 10.7599 22.3661C10.6187 22.9006 10.6649 23.4674 10.8906 23.9721C11.1163 24.4767 11.5081 24.8889 12.0006 25.14Z" fill="#01070E"/>
<path d="M26 2C23.8321 2.05247 21.7732 2.96154 20.274 4.52829C18.7747 6.09504 17.9571 8.19189 18 10.36V15H2V32C2 32.5304 2.21071 33.0391 2.58579 33.4142C2.96086 33.7893 3.46957 34 4 34H22C22.5304 34 23.0391 33.7893 23.4142 33.4142C23.7893 33.0391 24 32.5304 24 32V15H20V10.36C19.9569 8.72224 20.5638 7.13399 21.688 5.94228C22.8123 4.75057 24.3625 4.05228 26 4C27.6375 4.05228 29.1877 4.75057 30.312 5.94228C31.4362 7.13399 32.0431 8.72224 32 10.36V17.19C32 17.4552 32.1054 17.7096 32.2929 17.8971C32.4804 18.0846 32.7348 18.19 33 18.19C33.2652 18.19 33.5196 18.0846 33.7071 17.8971C33.8946 17.7096 34 17.4552 34 17.19V10.36C34.0429 8.19189 33.2253 6.09504 31.726 4.52829C30.2268 2.96154 28.1679 2.05247 26 2ZM22 17V32H4V17H22Z" fill="#01070E"/>
</svg>
