<svg width="36" height="36" viewBox="0 0 36 36" fill="none" xmlns="http://www.w3.org/2000/svg">
<path d="M22.2802 21.8501C22.4797 21.8533 22.6756 21.7968 22.8426 21.6877C23.0097 21.5787 23.1404 21.4222 23.2178 21.2383C23.2952 21.0545 23.3159 20.8516 23.2771 20.6559C23.2383 20.4602 23.1419 20.2806 23.0002 20.1401L18.0002 15.1401L13.0002 20.1401C12.8364 20.3314 12.7508 20.5775 12.7605 20.8292C12.7702 21.0809 12.8746 21.3196 13.0527 21.4977C13.2308 21.6758 13.4695 21.7801 13.7212 21.7898C13.9728 21.7996 14.2189 21.714 14.4102 21.5501L17.0002 19.0001V31.2501C17.0002 31.5154 17.1056 31.7697 17.2931 31.9572C17.4807 32.1448 17.735 32.2501 18.0002 32.2501C18.2654 32.2501 18.5198 32.1448 18.7073 31.9572C18.8949 31.7697 19.0002 31.5154 19.0002 31.2501V19.0001L21.5702 21.5701C21.7606 21.7537 22.0158 21.8543 22.2802 21.8501Z" fill="#01070E"/>
<path d="M3.59961 18.3798C3.61599 16.3997 4.39359 14.5018 5.77126 13.0795C7.14893 11.6571 9.02104 10.8194 10.9996 10.7398H11.6696L11.8996 10.1098C12.5198 8.49895 13.6196 7.11731 15.0503 6.15158C16.481 5.18585 18.1737 4.6826 19.8996 4.70982C20.5736 4.71637 21.2447 4.80025 21.8996 4.95982L22.8996 3.15982C21.9033 2.86284 20.8693 2.71127 19.8296 2.70982C17.8118 2.69336 15.8322 3.26034 14.1291 4.34255C12.4259 5.42476 11.0718 6.97607 10.2296 8.80982C7.86893 9.08052 5.68862 10.2048 4.09916 11.9711C2.5097 13.7374 1.62073 16.0238 1.59961 18.3998C1.60223 19.664 1.85399 20.9152 2.34049 22.082C2.82699 23.2488 3.5387 24.3083 4.43491 25.1999C5.33113 26.0915 6.39429 26.7976 7.5636 27.2781C8.73291 27.7585 9.98545 28.0038 11.2496 27.9998H14.9996V25.9998H11.2496C9.2267 25.9972 7.28694 25.1945 5.85372 23.7669C4.42049 22.3393 3.61017 20.4027 3.59961 18.3798Z" fill="#01070E"/>
<path d="M32.9 15.3999H30.21C31.1529 16.1896 31.8304 17.2499 32.1507 18.4374C32.471 19.6249 32.4187 20.8821 32.0007 22.0389C31.5828 23.1956 30.8194 24.1959 29.8141 24.9044C28.8087 25.6129 27.6099 25.9953 26.38 25.9999H21V27.9999H26.38C27.8426 27.9953 29.2759 27.5898 30.5241 26.8276C31.7723 26.0654 32.7877 24.9755 33.4599 23.6766C34.1321 22.3776 34.4353 20.9192 34.3366 19.46C34.2378 18.0008 33.741 16.5965 32.9 15.3999Z" fill="#01070E"/>
<path d="M26.8504 1.13981L21.1304 10.9998C20.9973 11.1951 20.9209 11.4235 20.9097 11.6596C20.8984 11.8957 20.9527 12.1303 21.0666 12.3374C21.1806 12.5445 21.3496 12.716 21.555 12.8329C21.7604 12.9498 21.9942 13.0076 22.2304 12.9998H33.6804C33.9166 13.0076 34.1504 12.9498 34.3558 12.8329C34.5612 12.716 34.7302 12.5445 34.8441 12.3374C34.958 12.1303 35.0123 11.8957 35.0011 11.6596C34.9898 11.4235 34.9135 11.1951 34.7804 10.9998L29.0604 1.13981C28.9476 0.946869 28.7862 0.786825 28.5923 0.675603C28.3985 0.564381 28.1789 0.505859 27.9554 0.505859C27.7319 0.505859 27.5123 0.564381 27.3184 0.675603C27.1245 0.786825 26.9632 0.946869 26.8504 1.13981Z" fill="#01070E"/>
</svg>
