<svg width="36" height="36" viewBox="0 0 36 36" fill="none" xmlns="http://www.w3.org/2000/svg">
<path d="M30.3096 13C30.3096 12.9 30.3096 12.79 30.3096 12.68C30.2414 9.97103 29.1043 7.39901 27.1464 5.52546C25.1886 3.65191 22.569 2.629 19.8596 2.68005C17.8418 2.66358 15.8622 3.23057 14.159 4.31277C12.4559 5.39498 11.1018 6.9463 10.2596 8.78004C7.88841 9.04456 5.69678 10.1702 4.10049 11.9435C2.5042 13.7167 1.6143 16.0142 1.59961 18.4C1.60223 19.6642 1.85399 20.9155 2.34049 22.0823C2.82699 23.2491 3.5387 24.3085 4.43491 25.2001C5.33113 26.0917 6.39429 26.7979 7.5636 27.2783C8.73291 27.7587 9.98545 28.004 11.2496 28H14.9996V26H11.2496C9.31675 25.8954 7.4954 25.062 6.1527 23.6677C4.80999 22.2734 4.04576 20.422 4.01406 18.4865C3.98235 16.5511 4.68552 14.6756 5.98183 13.2381C7.27815 11.8006 9.07121 10.9079 10.9996 10.74H11.6696L11.8996 10.11C12.5198 8.49918 13.6196 7.11753 15.0503 6.1518C16.481 5.18607 18.1737 4.68282 19.8996 4.71004C22.0787 4.65885 24.1896 5.47101 25.7724 6.96953C27.3552 8.46805 28.2816 10.5315 28.3496 12.71C28.3634 12.9765 28.3634 13.2436 28.3496 13.51L28.2696 14.23L28.9196 14.53C30.1768 15.0964 31.2005 16.0785 31.8186 17.3111C32.4366 18.5437 32.6113 19.9515 32.3132 21.2978C32.015 22.644 31.2623 23.8465 30.1817 24.7029C29.101 25.5593 27.7584 26.0174 26.3796 26H20.9996V28H26.3796C28.1581 28.0128 29.8901 27.4326 31.302 26.351C32.7138 25.2695 33.725 23.7483 34.1758 22.0278C34.6266 20.3074 34.4912 18.4858 33.791 16.8509C33.0908 15.216 31.8659 13.861 30.3096 13Z" fill="#01070E"/>
<path d="M22.2802 21.8501C22.4797 21.8533 22.6756 21.7968 22.8426 21.6877C23.0097 21.5787 23.1404 21.4222 23.2178 21.2383C23.2952 21.0545 23.3159 20.8516 23.2771 20.6559C23.2383 20.4602 23.1419 20.2806 23.0002 20.1401L18.0002 15.1401L13.0002 20.1401C12.8364 20.3314 12.7508 20.5775 12.7605 20.8292C12.7702 21.0809 12.8746 21.3196 13.0527 21.4977C13.2308 21.6758 13.4695 21.7801 13.7212 21.7898C13.9728 21.7996 14.2189 21.714 14.4102 21.5501L17.0002 19.0001V31.2501C17.0002 31.5154 17.1056 31.7697 17.2931 31.9572C17.4807 32.1448 17.735 32.2501 18.0002 32.2501C18.2654 32.2501 18.5198 32.1448 18.7073 31.9572C18.8949 31.7697 19.0002 31.5154 19.0002 31.2501V19.0001L21.5702 21.5701C21.7606 21.7537 22.0158 21.8543 22.2802 21.8501Z" fill="#01070E"/>
</svg>
