<svg width="36" height="36" viewBox="0 0 36 36" fill="none" xmlns="http://www.w3.org/2000/svg">
<path d="M31 31H5C4.4 31 4 31.4 4 32C4 32.6 4.4 33 5 33H31C31.6 33 32 32.6 32 32C32 31.4 31.6 31 31 31Z" fill="#01070E"/>
<path d="M8.79982 15L16.9998 6.8V27.4C16.9998 28 17.3998 28.4 17.9998 28.4C18.5998 28.4 18.9998 28 18.9998 27.4V6.8L20.0998 8L21.0998 6.2L17.9998 3L7.39982 13.6C6.99982 14 6.89982 14.6 7.19982 15C7.49982 15.4 8.19982 15.5 8.59982 15.1C8.69982 15.1 8.79982 15.1 8.79982 15Z" fill="#01070E"/>
<path d="M26.8995 1.10023L21.0995 11.0002C20.6995 11.6002 20.8995 12.4002 21.3995 12.8002C21.5995 13.0002 21.8995 13.0002 22.1995 13.0002H33.6995C34.3995 13.0002 34.9995 12.5002 34.9995 11.8002C34.9995 11.5002 34.8995 11.3002 34.7995 11.0002L29.0995 1.10023C28.6995 0.500232 27.9995 0.300232 27.2995 0.600232C27.0995 0.800232 26.9995 1.00023 26.8995 1.10023Z" fill="#01070E"/>
</svg>
