<svg width="36" height="36" viewBox="0 0 36 36" fill="none" xmlns="http://www.w3.org/2000/svg">
<path d="M14.2903 11.3999C14.4233 11.1795 14.6111 10.9974 14.8354 10.8712C15.0598 10.745 15.3129 10.6791 15.5703 10.6799H16.5703C16.7426 11.2779 17.1032 11.8043 17.5987 12.1809C18.0942 12.5575 18.698 12.764 19.3203 12.7699C20.0156 12.6481 20.6457 12.285 21.0997 11.7445C21.5537 11.204 21.8027 10.5207 21.8027 9.81486C21.8027 9.10898 21.5537 8.42571 21.0997 7.88522C20.6457 7.34474 20.0156 6.98167 19.3203 6.85986C18.7449 6.86411 18.1838 7.03944 17.7083 7.36353C17.2329 7.68763 16.8646 8.14584 16.6503 8.67986H15.5703C14.9697 8.67501 14.378 8.82526 13.8524 9.11606C13.3269 9.40687 12.8852 9.8284 12.5703 10.3399L9.57031 15.1699H11.9303L14.2903 11.3999ZM19.2903 8.45986C19.5623 8.44585 19.8322 8.5138 20.0651 8.65492C20.298 8.79604 20.4831 9.00382 20.5966 9.25137C20.7101 9.49891 20.7466 9.77482 20.7015 10.0434C20.6564 10.3119 20.5317 10.5607 20.3436 10.7576C20.1554 10.9545 19.9125 11.0904 19.6463 11.1476C19.3801 11.2049 19.1028 11.1809 18.8503 11.0788C18.5979 10.9767 18.3819 10.8012 18.2304 10.5749C18.0788 10.3487 17.9987 10.0822 18.0003 9.80986C17.9963 9.63317 18.0278 9.45746 18.093 9.29317C18.1581 9.12887 18.2556 8.97934 18.3797 8.85343C18.5037 8.72753 18.6518 8.62781 18.8151 8.56021C18.9784 8.4926 19.1536 8.45848 19.3303 8.45986H19.2903Z" fill="#01070E"/>
<path d="M34.2995 17.37L28.1896 13.71C28.0831 13.6486 27.9624 13.6162 27.8396 13.6162C27.7167 13.6162 27.596 13.6486 27.4895 13.71C27.3814 13.7713 27.2912 13.8598 27.2281 13.9669C27.1649 14.0739 27.1309 14.1957 27.1295 14.32V17H6.91955C7.12764 17.3549 7.23805 17.7586 7.23955 18.17C7.24153 18.6589 7.09835 19.1375 6.82815 19.545C6.55795 19.9525 6.17288 20.2706 5.72173 20.4591C5.27057 20.6476 4.77363 20.6979 4.29384 20.6037C3.81405 20.5096 3.373 20.2751 3.02656 19.9301C2.68013 19.5851 2.44389 19.145 2.34777 18.6656C2.25165 18.1862 2.29998 17.689 2.48663 17.2371C2.67328 16.7852 2.98986 16.3988 3.39626 16.127C3.80266 15.8551 4.28061 15.71 4.76955 15.71C5.17214 15.7107 5.56792 15.8139 5.91955 16.01L6.84955 14.25C6.02209 13.8156 5.07865 13.6533 4.1536 13.7864C3.22856 13.9194 2.36908 14.341 1.69759 14.991C1.0261 15.641 0.576842 16.4863 0.413798 17.4066C0.250754 18.3268 0.382241 19.275 0.789532 20.1162C1.19682 20.9573 1.85915 21.6485 2.68217 22.0913C3.50519 22.534 4.44694 22.7058 5.37329 22.5821C6.29963 22.4584 7.16333 22.0456 7.84137 21.4024C8.5194 20.7593 8.9772 19.9185 9.14955 19H12.7296L16.8995 25.65C17.2145 26.1615 17.6561 26.583 18.1816 26.8738C18.7072 27.1646 19.2989 27.3148 19.8995 27.31H21.5595V28.59C21.5595 28.6946 21.5803 28.7981 21.6206 28.8946C21.661 28.9911 21.72 29.0787 21.7945 29.1522C21.8689 29.2257 21.9572 29.2836 22.0542 29.3228C22.1512 29.3619 22.255 29.3813 22.3596 29.38H26.8496C26.9541 29.3813 27.0579 29.3619 27.1549 29.3228C27.2519 29.2836 27.3402 29.2257 27.4146 29.1522C27.4891 29.0787 27.5481 28.9911 27.5885 28.8946C27.6288 28.7981 27.6496 28.6946 27.6495 28.59V24.19C27.6509 24.0846 27.6311 23.9799 27.5914 23.8823C27.5517 23.7846 27.4928 23.6959 27.4182 23.6213C27.3437 23.5468 27.2549 23.4879 27.1573 23.4482C27.0596 23.4084 26.955 23.3886 26.8496 23.39H22.3396C22.2345 23.39 22.1305 23.4107 22.0334 23.4509C21.9363 23.4911 21.8482 23.55 21.7739 23.6243C21.6996 23.6986 21.6406 23.7868 21.6004 23.8838C21.5602 23.9809 21.5396 24.0849 21.5396 24.19V25.31H19.8795C19.6226 25.3088 19.3701 25.2421 19.1461 25.1161C18.9221 24.9901 18.734 24.809 18.5996 24.59L15.0896 19H27.0896V21.66C27.0888 21.7847 27.1219 21.9073 27.1853 22.0147C27.2487 22.1221 27.34 22.2103 27.4496 22.27C27.5528 22.3297 27.6702 22.3608 27.7896 22.36C27.9168 22.3626 28.0419 22.3278 28.1495 22.26L34.2595 18.6C34.3639 18.5386 34.4502 18.4508 34.5099 18.3455C34.5696 18.2402 34.6005 18.121 34.5995 18C34.608 17.878 34.5848 17.756 34.5323 17.6456C34.4797 17.5352 34.3996 17.4403 34.2995 17.37ZM23.1395 25H25.9995V27.8H23.1395V25ZM28.5296 20.44V15.55L32.5295 17.97L28.5296 20.44Z" fill="#01070E"/>
</svg>
