<svg width="36" height="36" viewBox="0 0 36 36" fill="none" xmlns="http://www.w3.org/2000/svg">
<path d="M11.0901 14.5702C11.1901 14.5702 11.2901 14.5702 11.4001 14.5702C11.3255 13.9029 11.3559 13.228 11.4901 12.5702C11.1087 12.6432 10.7144 12.6085 10.3516 12.47C9.98879 12.3314 9.67175 12.0945 9.43605 11.7859C9.20034 11.4772 9.0553 11.109 9.0172 10.7225C8.97909 10.336 9.04942 9.94655 9.22031 9.59781C9.3912 9.24906 9.65588 8.95482 9.98465 8.74811C10.3134 8.54139 10.6933 8.43037 11.0817 8.4275C11.47 8.42462 11.8515 8.53002 12.1833 8.73185C12.5151 8.93368 12.7841 9.22397 12.9601 9.57016C13.4059 9.05596 13.9288 8.61404 14.5101 8.26016C14.1222 7.66751 13.587 7.18576 12.9569 6.8621C12.3269 6.53844 11.6235 6.38396 10.9158 6.41378C10.2081 6.44361 9.52032 6.65671 8.91973 7.03223C8.31913 7.40776 7.82636 7.93282 7.48966 8.55601C7.15296 9.17919 6.98388 9.87914 6.99898 10.5873C7.01407 11.2955 7.21282 11.9876 7.57576 12.5959C7.93871 13.2041 8.45341 13.7077 9.06945 14.0573C9.6855 14.4069 10.3818 14.5905 11.0901 14.5902V14.5702Z" fill="#01070E"/>
<path d="M12.9999 18.1402C12.4331 17.498 11.9982 16.7504 11.7199 15.9402H11.0899C9.90268 15.8973 8.71928 16.0989 7.61318 16.5324C6.50707 16.9659 5.50186 17.6221 4.65992 18.4602L4.41992 18.7402V25.7402H6.41992V19.5102C7.73064 18.4275 9.39061 17.8588 11.0899 17.9102C11.7335 17.9107 12.3747 17.9879 12.9999 18.1402Z" fill="#01070E"/>
<path d="M31.35 18.4202C30.5194 17.59 29.5273 16.9389 28.4351 16.5072C27.3429 16.0755 26.1738 15.8723 25 15.9102C24.68 15.9102 24.4 15.9102 24.1 15.9702C23.8069 16.8039 23.3476 17.5693 22.75 18.2202C23.4812 18.0091 24.239 17.9047 25 17.9102C26.6874 17.855 28.337 18.4167 29.64 19.4902V25.7602H31.64V18.7002L31.35 18.4202Z" fill="#01070E"/>
<path d="M18.1 19.7298C16.7929 19.6837 15.49 19.9027 14.2698 20.3736C13.0495 20.8445 11.9373 21.5576 11 22.4698L10.75 22.7498V30.0798C10.7539 30.2869 10.7987 30.4911 10.8819 30.6807C10.965 30.8704 11.0849 31.0417 11.2345 31.1849C11.3842 31.328 11.5606 31.4401 11.7538 31.5148C11.947 31.5894 12.153 31.6251 12.36 31.6198H23.83C24.037 31.6251 24.243 31.5894 24.4362 31.5148C24.6294 31.4401 24.8058 31.328 24.9555 31.1849C25.1051 31.0417 25.225 30.8704 25.3081 30.6807C25.3913 30.4911 25.4361 30.2869 25.44 30.0798V22.7298L25.19 22.4498C24.256 21.5371 23.1453 20.8251 21.926 20.3573C20.7068 19.8896 19.4048 19.676 18.1 19.7298ZM23.43 29.6098H12.73V23.5498C14.2414 22.3144 16.1489 21.6679 18.1 21.7298C20.036 21.6647 21.9298 22.3043 23.43 23.5298V29.6098Z" fill="#01070E"/>
<path d="M20.2808 14.2701C20.199 14.7311 19.9872 15.1592 19.6705 15.5041C19.3538 15.849 18.9452 16.0963 18.4928 16.217C18.0404 16.3377 17.5629 16.3267 17.1165 16.1855C16.67 16.0442 16.2732 15.7784 15.9726 15.4194C15.672 15.0604 15.4801 14.6231 15.4194 14.1588C15.3587 13.6945 15.4319 13.2225 15.6301 12.7984C15.8284 12.3742 16.1437 12.0154 16.5388 11.7642C16.9339 11.5129 17.3926 11.3797 17.8608 11.3801C18.2074 11.3881 18.5483 11.47 18.8608 11.6201C18.8117 10.9262 18.9608 10.2325 19.2908 9.6201C18.8166 9.44599 18.316 9.35466 17.8108 9.3501C16.9783 9.35356 16.1633 9.58943 15.4577 10.0311C14.752 10.4729 14.1837 11.1029 13.8168 11.8502C13.45 12.5975 13.2991 13.4324 13.3812 14.2608C13.4632 15.0893 13.7751 15.8783 14.2815 16.5391C14.7878 17.1999 15.4687 17.7061 16.2473 18.0007C17.0259 18.2954 17.8714 18.3667 18.6884 18.2067C19.5054 18.0468 20.2614 17.6618 20.8714 17.0953C21.4814 16.5287 21.921 15.8031 22.1408 15.0001C21.4655 14.9325 20.8219 14.6799 20.2808 14.2701Z" fill="#01070E"/>
<path d="M27.1807 0.79997L21.4607 10.71C21.3512 10.9037 21.2941 11.1226 21.2949 11.3451C21.2958 11.5676 21.3547 11.786 21.4657 11.9789C21.5768 12.1717 21.7362 12.3322 21.9282 12.4447C22.1202 12.5571 22.3382 12.6175 22.5607 12.62H34.0007C34.2232 12.6175 34.4413 12.5571 34.6333 12.4447C34.8253 12.3322 34.9847 12.1717 35.0958 11.9789C35.2068 11.786 35.2657 11.5676 35.2665 11.3451C35.2674 11.1226 35.2103 10.9037 35.1007 10.71L29.3907 0.79997C29.2779 0.607025 29.1166 0.446981 28.9227 0.335759C28.7288 0.224538 28.5092 0.166016 28.2857 0.166016C28.0622 0.166016 27.8426 0.224538 27.6488 0.335759C27.4549 0.446981 27.2935 0.607025 27.1807 0.79997Z" fill="#01070E"/>
</svg>
