<svg width="36" height="36" viewBox="0 0 36 36" fill="none" xmlns="http://www.w3.org/2000/svg">
<path d="M17.9 17.3001C20.6 17.3001 22.7 15.1001 22.7 12.4001C22.7 9.7001 20.5 7.6001 17.8 7.6001C15.1 7.6001 13 9.8001 13 12.4001C13 15.1001 15.2 17.3001 17.9 17.3001ZM17.8 9.6001C17.9 9.6001 17.9 9.6001 17.8 9.6001C19.4 9.6001 20.7 10.9001 20.7 12.5001C20.7 14.1001 19.4 15.3001 17.8 15.3001C16.2 15.3001 15 14.0001 15 12.5001C15 10.9001 16.3 9.6001 17.8 9.6001Z" fill="#01070E"/>
<path d="M32.7 16.6999C30.8 14.9999 28.3 14.0999 25.7 14.1999C25.4 14.1999 25.2 14.1999 24.9 14.1999C24.7 14.9999 24.4 15.6999 24 16.2999C24.6 16.1999 25.1 16.1999 25.7 16.1999C27.6 16.0999 29.5 16.6999 31 17.7999V24.9999H33V16.9999L32.7 16.6999Z" fill="#01070E"/>
<path d="M23.4 7.7998C23.9 6.5998 25.3 5.9998 26.6 6.4998C27.8 6.9998 28.4 8.3998 27.9 9.6998C27.5 10.5998 26.6 11.1998 25.7 11.1998C25.5 11.1998 25.2 11.1998 25 11.0998C25.1 11.5998 25.1 12.0998 25.1 12.4998C25.1 12.6998 25.1 12.8998 25.1 13.0998C25.3 13.0998 25.5 13.1998 25.7 13.1998C28.2 13.1998 30.2 11.1998 30.2 8.7998C30.2 6.2998 28.2 4.2998 25.8 4.2998C24.2 4.2998 22.8 5.0998 22 6.4998C22.5 6.7998 23 7.1998 23.4 7.7998Z" fill="#01070E"/>
<path d="M12 16.4C11.6 15.8 11.3 15.1 11.1 14.3C10.8 14.3 10.6 14.3 10.3 14.3C7.7 14.2 5.2 15.1 3.3 16.7L3 17V25H5V17.8C6.6 16.7 8.4 16.1 10.3 16.2C10.9 16.2 11.5 16.3 12 16.4Z" fill="#01070E"/>
<path d="M10.2998 13.1002C10.4998 13.1002 10.6998 13.1002 10.8998 13.0002C10.8998 12.8002 10.8998 12.6002 10.8998 12.4002C10.8998 11.9002 10.8998 11.4002 10.9998 11.0002C10.7998 11.1002 10.4998 11.1002 10.2998 11.1002C8.99977 11.1002 7.89977 10.0002 7.89977 8.70016C7.89977 7.40016 8.99977 6.30016 10.2998 6.30016C11.2998 6.30016 12.1998 6.90016 12.5998 7.80016C12.9998 7.30016 13.5998 6.80016 14.0998 6.40016C12.7998 4.30016 10.0998 3.60016 7.99977 4.90016C5.89977 6.20016 5.19977 8.90016 6.49977 11.0002C7.29977 12.3002 8.69977 13.1002 10.2998 13.1002Z" fill="#01070E"/>
<path d="M26.1 22.7L25.9 22.4C23.9 20.2 21.1 18.9 18.1 19C15.1 18.9 12.2 20.2 10.2 22.4L10 22.7V30.3C10 31.2 10.7 32 11.7 32H24.5C25.4 32 26.2 31.2 26.2 30.3V22.7H26.1ZM24.1 30H12V23.4C13.6 21.8 15.8 21 18.1 21C20.3 20.9 22.5 21.8 24.1 23.4V30Z" fill="#01070E"/>
</svg>
