<svg width="36" height="36" viewBox="0 0 36 36" fill="none" xmlns="http://www.w3.org/2000/svg">
<path d="M30.47 24.3698C28.8663 22.6748 26.9338 21.3247 24.7905 20.402C22.6473 19.4793 20.3384 19.0034 18.005 19.0034C15.6716 19.0034 13.3627 19.4793 11.2195 20.402C9.07623 21.3247 7.14369 22.6748 5.54 24.3698C5.19231 24.7412 4.99921 25.2311 5 25.7398V30.9998C5 31.5302 5.21072 32.0389 5.58579 32.414C5.96086 32.7891 6.46957 32.9998 7 32.9998H29C29.5304 32.9998 30.0391 32.7891 30.4142 32.414C30.7893 32.0389 31 31.5302 31 30.9998V25.7398C31.0035 25.2324 30.814 24.7427 30.47 24.3698ZM29 30.9998H7V25.7298C8.41723 24.2375 10.1233 23.0491 12.0144 22.2371C13.9054 21.425 15.942 21.0063 18 21.0063C20.0581 21.0063 22.0946 21.425 23.9856 22.2371C25.8767 23.0491 27.5828 24.2375 29 25.7298V30.9998Z" fill="#01070E"/>
<path d="M18.0002 17C19.6242 16.999 21.1974 16.4334 22.4502 15.4H22.2302C21.419 15.3864 20.635 15.1052 20.0002 14.6C19.1827 14.9519 18.2861 15.0793 17.4029 14.9689C16.5197 14.8585 15.682 14.5144 14.9763 13.972C14.2706 13.4297 13.7224 12.7088 13.3884 11.8838C13.0544 11.0588 12.9467 10.1596 13.0764 9.27902C13.2061 8.39848 13.5684 7.5685 14.1261 6.87481C14.6837 6.18112 15.4164 5.64886 16.2486 5.33298C17.0807 5.01711 17.982 4.92907 18.8595 5.07797C19.737 5.22687 20.5589 5.60731 21.2402 6.17999L22.2402 4.41999C21.3554 3.74978 20.3238 3.29961 19.2307 3.10662C18.1377 2.91362 17.0143 2.98335 15.9535 3.31003C14.8927 3.63671 13.9247 4.21099 13.1296 4.98547C12.3344 5.75994 11.7348 6.71241 11.3803 7.76427C11.0258 8.81613 10.9265 9.93722 11.0906 11.035C11.2547 12.1328 11.6776 13.1758 12.3242 14.078C12.9709 14.9802 13.8228 15.7157 14.8097 16.2237C15.7966 16.7318 16.8902 16.9978 18.0002 17Z" fill="#01070E"/>
<path d="M26.8504 1.13981L21.1304 10.9998C20.9973 11.1951 20.9209 11.4235 20.9097 11.6596C20.8984 11.8957 20.9527 12.1303 21.0666 12.3374C21.1806 12.5445 21.3496 12.716 21.555 12.8329C21.7604 12.9498 21.9942 13.0076 22.2304 12.9998H33.6804C33.9166 13.0076 34.1504 12.9498 34.3558 12.8329C34.5612 12.716 34.7302 12.5445 34.8441 12.3374C34.958 12.1303 35.0123 11.8957 35.0011 11.6596C34.9898 11.4235 34.9135 11.1951 34.7804 10.9998L29.0604 1.13981C28.9476 0.946869 28.7862 0.786825 28.5923 0.675603C28.3985 0.564381 28.1789 0.505859 27.9554 0.505859C27.7319 0.505859 27.5123 0.564381 27.3184 0.675603C27.1245 0.786825 26.9632 0.946869 26.8504 1.13981Z" fill="#01070E"/>
</svg>
