<svg width="36" height="36" viewBox="0 0 36 36" fill="none" xmlns="http://www.w3.org/2000/svg">
<path d="M32.12 10H3.88C3.38139 10 2.90321 10.1981 2.55064 10.5506C2.19807 10.9032 2 11.3814 2 11.88V30.12C2 30.6186 2.19807 31.0968 2.55064 31.4494C2.90321 31.8019 3.38139 32 3.88 32H32.12C32.6186 32 33.0968 31.8019 33.4494 31.4494C33.8019 31.0968 34 30.6186 34 30.12V11.88C34 11.3814 33.8019 10.9032 33.4494 10.5506C33.0968 10.1981 32.6186 10 32.12 10ZM32 30H4V12H32V30Z" fill="#01070E"/>
<path d="M30.1406 3C30.1406 2.73478 30.0353 2.48043 29.8477 2.29289C29.6602 2.10536 29.4058 2 29.1406 2H7.14062C6.87541 2 6.62105 2.10536 6.43352 2.29289C6.24598 2.48043 6.14062 2.73478 6.14062 3V4H30.1406V3Z" fill="#01070E"/>
<path d="M32.1191 7C32.1191 6.73478 32.0138 6.48043 31.8262 6.29289C31.6387 6.10536 31.3844 6 31.1191 6H5.11914C4.85392 6 4.59957 6.10536 4.41203 6.29289C4.2245 6.48043 4.11914 6.73478 4.11914 7V8H32.1191V7Z" fill="#01070E"/>
<path d="M12.8208 26.7899C13.0979 26.9697 13.4205 27.0668 13.7508 27.0699C13.9888 27.0694 14.224 27.0183 14.4408 26.9199L24.2108 22.5599C24.5128 22.4287 24.7699 22.2121 24.9505 21.9367C25.1311 21.6614 25.2273 21.3392 25.2273 21.0099C25.2273 20.6806 25.1311 20.3585 24.9505 20.0832C24.7699 19.8078 24.5128 19.5912 24.2108 19.4599L14.4408 15.0999C14.1822 14.9851 13.8991 14.9366 13.6171 14.9589C13.3351 14.9811 13.0631 15.0734 12.8258 15.2273C12.5884 15.3812 12.3932 15.592 12.2579 15.8404C12.1226 16.0888 12.0514 16.3671 12.0508 16.6499V25.3699C12.0513 25.6519 12.1219 25.9294 12.2563 26.1772C12.3908 26.4251 12.5847 26.6357 12.8208 26.7899ZM13.4508 16.6499C13.4505 16.5997 13.4632 16.5503 13.4877 16.5064C13.5123 16.4626 13.5478 16.4259 13.5908 16.3999C13.6431 16.3855 13.6984 16.3855 13.7508 16.3999C13.7903 16.3909 13.8313 16.3909 13.8708 16.3999L23.6408 20.7499C23.6959 20.7725 23.7428 20.8115 23.775 20.8615C23.8072 20.9116 23.8232 20.9704 23.8208 21.0299C23.8225 21.0881 23.8061 21.1453 23.7739 21.1937C23.7416 21.2421 23.6951 21.2792 23.6408 21.2999L13.8708 25.6599C13.8282 25.6845 13.7799 25.6975 13.7308 25.6975C13.6816 25.6975 13.6333 25.6845 13.5908 25.6599C13.5491 25.6326 13.5145 25.5956 13.4902 25.5521C13.4658 25.5086 13.4523 25.4598 13.4508 25.4099V16.6499Z" fill="#01070E"/>
</svg>
