<svg width="36" height="36" viewBox="0 0 36 36" fill="none" xmlns="http://www.w3.org/2000/svg">
<path d="M34 10.34C34.003 9.94665 33.8959 9.56031 33.691 9.22458C33.486 8.88884 33.1912 8.61709 32.84 8.44C32.5071 8.26121 32.1303 8.18041 31.7533 8.20696C31.3763 8.23351 31.0146 8.36632 30.71 8.59L26 11.6V8C26 7.46957 25.7893 6.96086 25.4142 6.58579C25.0391 6.21071 24.5304 6 24 6H6C4.93913 6 3.92172 6.42143 3.17157 7.17157C2.42143 7.92172 2 8.93913 2 10V26C2 27.0609 2.42143 28.0783 3.17157 28.8284C3.92172 29.5786 4.93913 30 6 30H24C24.5304 30 25.0391 29.7893 25.4142 29.4142C25.7893 29.0391 26 28.5304 26 28V24.4L30.64 27.4C30.9504 27.6377 31.3218 27.7826 31.7111 27.818C32.1004 27.8534 32.4918 27.7778 32.84 27.6C33.1974 27.4199 33.4963 27.1419 33.7017 26.7984C33.9071 26.4549 34.0105 26.0601 34 25.66V10.34ZM31.93 25.77C31.87 25.77 31.82 25.77 31.74 25.71L24 20.77V28H6C5.46957 28 4.96086 27.7893 4.58579 27.4142C4.21071 27.0391 4 26.5304 4 26V10C4 9.46957 4.21071 8.96086 4.58579 8.58579C4.96086 8.21071 5.46957 8 6 8H24V15.23L31.8 10.23C31.8189 10.2162 31.8416 10.2087 31.865 10.2087C31.8884 10.2087 31.9111 10.2162 31.93 10.23C31.9519 10.2385 31.9705 10.2537 31.9831 10.2735C31.9956 10.2933 32.0016 10.3166 32 10.34V25.66C32.0016 25.6834 31.9956 25.7067 31.9831 25.7265C31.9705 25.7463 31.9519 25.7615 31.93 25.77Z" fill="#01070E"/>
</svg>
