<svg width="36" height="36" viewBox="0 0 36 36" fill="none" xmlns="http://www.w3.org/2000/svg">
<path d="M4 8H2V10H4V8Z" fill="#01070E"/>
<path d="M7 10H31C31.2652 10 31.5196 9.89464 31.7071 9.70711C31.8946 9.51957 32 9.26522 32 9C32 8.73478 31.8946 8.48043 31.7071 8.29289C31.5196 8.10536 31.2652 8 31 8H7C6.73478 8 6.48043 8.10536 6.29289 8.29289C6.10536 8.48043 6 8.73478 6 9C6 9.26522 6.10536 9.51957 6.29289 9.70711C6.48043 9.89464 6.73478 10 7 10Z" fill="#01070E"/>
<path d="M4 14H2V16H4V14Z" fill="#01070E"/>
<path d="M31 14H7C6.73478 14 6.48043 14.1054 6.29289 14.2929C6.10536 14.4804 6 14.7348 6 15C6 15.2652 6.10536 15.5196 6.29289 15.7071C6.48043 15.8946 6.73478 16 7 16H31C31.2652 16 31.5196 15.8946 31.7071 15.7071C31.8946 15.5196 32 15.2652 32 15C32 14.7348 31.8946 14.4804 31.7071 14.2929C31.5196 14.1054 31.2652 14 31 14Z" fill="#01070E"/>
<path d="M4 20H2V22H4V20Z" fill="#01070E"/>
<path d="M31 20H7C6.73478 20 6.48043 20.1054 6.29289 20.2929C6.10536 20.4804 6 20.7348 6 21C6 21.2652 6.10536 21.5196 6.29289 21.7071C6.48043 21.8946 6.73478 22 7 22H31C31.2652 22 31.5196 21.8946 31.7071 21.7071C31.8946 21.5196 32 21.2652 32 21C32 20.7348 31.8946 20.4804 31.7071 20.2929C31.5196 20.1054 31.2652 20 31 20Z" fill="#01070E"/>
<path d="M4 26H2V28H4V26Z" fill="#01070E"/>
<path d="M31 26H7C6.73478 26 6.48043 26.1054 6.29289 26.2929C6.10536 26.4804 6 26.7348 6 27C6 27.2652 6.10536 27.5196 6.29289 27.7071C6.48043 27.8946 6.73478 28 7 28H31C31.2652 28 31.5196 27.8946 31.7071 27.7071C31.8946 27.5196 32 27.2652 32 27C32 26.7348 31.8946 26.4804 31.7071 26.2929C31.5196 26.1054 31.2652 26 31 26Z" fill="#01070E"/>
</svg>
