<svg width="36" height="36" viewBox="0 0 36 36" fill="none" xmlns="http://www.w3.org/2000/svg">
<path opacity="0.15" d="M33 0H3C1.34315 0 0 1.34315 0 3V33C0 34.6569 1.34315 36 3 36H33C34.6569 36 36 34.6569 36 33V3C36 1.34315 34.6569 0 33 0Z" fill="white"/>
<path d="M3.7904 14.8298C3.73308 14.6945 3.649 14.5722 3.54321 14.4702C3.43742 14.3683 3.3121 14.2887 3.17479 14.2364C3.03748 14.1841 2.89101 14.1601 2.74418 14.1658C2.59736 14.1716 2.45321 14.2069 2.3204 14.2698C2.18427 14.3288 2.06163 14.415 1.95999 14.5231C1.85835 14.6312 1.77984 14.7589 1.72929 14.8984C1.67873 15.0379 1.65719 15.1863 1.66598 15.3344C1.67477 15.4825 1.7137 15.6273 1.7804 15.7598L4.2504 21.1598C4.6404 22.0098 5.0504 22.4498 5.8204 22.4498C6.5904 22.4498 7.0004 21.9998 7.3904 21.1598L9.5604 16.3898C9.58628 16.3294 9.62961 16.2781 9.68484 16.2424C9.74007 16.2068 9.80469 16.1885 9.8704 16.1898C9.96323 16.1898 10.0522 16.2267 10.1179 16.2923C10.1835 16.358 10.2204 16.447 10.2204 16.5398V21.1498C10.1991 21.3121 10.2126 21.477 10.2601 21.6337C10.3076 21.7903 10.388 21.935 10.4959 22.058C10.6039 22.1811 10.7368 22.2797 10.8859 22.3473C11.0349 22.4148 11.1967 22.4498 11.3604 22.4498C11.5256 22.4508 11.6892 22.4168 11.8403 22.3501C11.9915 22.2833 12.1268 22.1853 12.2373 22.0625C12.3478 21.9397 12.4311 21.7949 12.4816 21.6376C12.5321 21.4802 12.5488 21.314 12.5304 21.1498V17.3798C12.5231 17.2186 12.5498 17.0576 12.6088 16.9073C12.6678 16.7571 12.7577 16.6209 12.8728 16.5077C12.9879 16.3945 13.1255 16.3068 13.2767 16.2503C13.4279 16.1938 13.5893 16.1698 13.7504 16.1798C13.909 16.1725 14.0674 16.1986 14.2152 16.2566C14.3631 16.3146 14.497 16.4031 14.6084 16.5163C14.7197 16.6295 14.8059 16.765 14.8614 16.9137C14.9169 17.0625 14.9404 17.2213 14.9304 17.3798V21.1498C14.9087 21.3149 14.9224 21.4828 14.9708 21.6421C15.0191 21.8015 15.101 21.9487 15.2108 22.0739C15.3206 22.1991 15.4559 22.2994 15.6075 22.3682C15.7592 22.4369 15.9239 22.4724 16.0904 22.4724C16.2569 22.4724 16.4216 22.4369 16.5733 22.3682C16.7249 22.2994 16.8602 22.1991 16.97 22.0739C17.0798 21.9487 17.1617 21.8015 17.21 21.6421C17.2584 21.4828 17.2721 21.3149 17.2504 21.1498V17.3798C17.2431 17.2186 17.2698 17.0576 17.3288 16.9073C17.3878 16.7571 17.4777 16.6209 17.5928 16.5077C17.7079 16.3945 17.8455 16.3068 17.9967 16.2503C18.1479 16.1938 18.3093 16.1698 18.4704 16.1798C18.629 16.1725 18.7874 16.1986 18.9352 16.2566C19.0831 16.3146 19.217 16.4031 19.3284 16.5163C19.4397 16.6295 19.5259 16.765 19.5814 16.9137C19.6369 17.0625 19.6604 17.2213 19.6504 17.3798V21.1498C19.6354 21.3105 19.6542 21.4726 19.7054 21.6256C19.7566 21.7787 19.8393 21.9194 19.948 22.0387C20.0567 22.158 20.1891 22.2533 20.3367 22.3185C20.4844 22.3837 20.644 22.4174 20.8054 22.4174C20.9668 22.4174 21.1264 22.3837 21.2741 22.3185C21.4217 22.2533 21.5541 22.158 21.6628 22.0387C21.7715 21.9194 21.8542 21.7787 21.9054 21.6256C21.9566 21.4726 21.9754 21.3105 21.9604 21.1498V16.8598C21.9606 16.4988 21.8882 16.1415 21.7474 15.8092C21.6066 15.4768 21.4004 15.1762 21.141 14.9251C20.8816 14.6741 20.5743 14.4779 20.2375 14.3481C19.9007 14.2184 19.5412 14.1577 19.1804 14.1698C18.2518 14.1852 17.3658 14.5619 16.7104 15.2198C16.4312 14.862 16.0677 14.5788 15.6524 14.3956C15.2371 14.2124 14.7829 14.1348 14.3304 14.1698C13.4584 14.2504 12.6384 14.62 12.0004 15.2198C11.7485 14.9067 11.4326 14.651 11.0739 14.4699C10.7152 14.2889 10.3219 14.1865 9.9204 14.1698C9.37107 14.1465 8.82891 14.3014 8.37478 14.6113C7.92065 14.9213 7.57887 15.3697 7.4004 15.8898L5.8204 19.6298L3.8204 14.8298" fill="white"/>
<path d="M33 14.1799C32.7525 14.1787 32.5113 14.258 32.3128 14.4059C32.1144 14.5539 31.9695 14.7624 31.9 14.9999L30.71 18.7299L29.5 15.0499C29.4315 14.7982 29.2814 14.5763 29.0734 14.4188C28.8653 14.2614 28.6109 14.1774 28.35 14.1799H28.25C27.9899 14.1808 27.7372 14.266 27.5297 14.4229C27.3223 14.5798 27.1715 14.7999 27.1 15.0499L25.91 18.7599L24.73 15.0499C24.6678 14.8023 24.525 14.5823 24.324 14.4248C24.123 14.2673 23.8754 14.1811 23.62 14.1799C23.4757 14.1746 23.3318 14.1982 23.1967 14.2495C23.0617 14.3007 22.9383 14.3785 22.8339 14.4783C22.7295 14.5781 22.6461 14.6977 22.5888 14.8303C22.5314 14.9628 22.5012 15.1055 22.5 15.2499C22.5035 15.4342 22.5373 15.6166 22.6 15.7899L24.6 21.4899C24.6626 21.7782 24.8236 22.0356 25.0554 22.2181C25.2871 22.4005 25.5751 22.4967 25.87 22.4899C26.1448 22.4898 26.4118 22.3984 26.629 22.2301C26.8462 22.0617 27.0013 21.826 27.07 21.5599L28.27 17.9199L29.47 21.5599C29.5427 21.8353 29.7072 22.0776 29.9363 22.2467C30.1654 22.4158 30.4455 22.5016 30.73 22.4899C31.0235 22.4971 31.3104 22.4024 31.542 22.222C31.7735 22.0415 31.9354 21.7863 32 21.4999L34 15.7299C34.0486 15.5744 34.0756 15.4129 34.08 15.2499C34.08 15.1086 34.052 14.9686 33.9976 14.8381C33.9432 14.7077 33.8635 14.5893 33.7631 14.4898C33.6627 14.3903 33.5435 14.3117 33.4125 14.2585C33.2816 14.2053 33.1414 14.1786 33 14.1799Z" fill="white"/>
</svg>
