<svg width="36" height="36" viewBox="0 0 36 36" fill="none" xmlns="http://www.w3.org/2000/svg">
<path d="M11 5H21.87L23 3H11C10.4696 3 9.96086 3.21071 9.58579 3.58579C9.21071 3.96086 9 4.46957 9 5V11.85H11V5Z" fill="#01070E"/>
<path d="M26.9998 15.3999H25.0098V17.9999H26.9998V15.3999Z" fill="#01070E"/>
<path d="M30 15.4V26H22V17C22 16.4696 21.7893 15.9609 21.4142 15.5858C21.0391 15.2107 20.5304 15 20 15H6C5.46957 15 4.96086 15.2107 4.58579 15.5858C4.21071 15.9609 4 16.4696 4 17V31C4 31.5304 4.21071 32.0391 4.58579 32.4142C4.96086 32.7893 5.46957 33 6 33H20C20.5304 33 21.0391 32.7893 21.4142 32.4142C21.7893 32.0391 22 31.5304 22 31V28H30C30.5304 28 31.0391 27.7893 31.4142 27.4142C31.7893 27.0391 32 26.5304 32 26V15.4H30ZM6 31V17H20V26H16V20H14V26C14 26.5304 14.2107 27.0391 14.5858 27.4142C14.9609 27.7893 15.4696 28 16 28H20V31H6Z" fill="#01070E"/>
<path d="M17 10V12H18.57C18.5209 11.3061 18.67 10.6124 19 10H17Z" fill="#01070E"/>
<path d="M26.8504 1.13981L21.1304 10.9998C20.9973 11.1951 20.9209 11.4235 20.9097 11.6596C20.8984 11.8957 20.9527 12.1303 21.0666 12.3374C21.1806 12.5445 21.3496 12.716 21.555 12.8329C21.7604 12.9498 21.9942 13.0076 22.2304 12.9998H33.6804C33.9166 13.0076 34.1504 12.9498 34.3558 12.8329C34.5612 12.716 34.7302 12.5445 34.8441 12.3374C34.958 12.1303 35.0123 11.8957 35.0011 11.6596C34.9898 11.4235 34.9135 11.1951 34.7804 10.9998L29.0604 1.13981C28.9476 0.946869 28.7862 0.786825 28.5923 0.675603C28.3985 0.564381 28.1789 0.505859 27.9554 0.505859C27.7319 0.505859 27.5123 0.564381 27.3184 0.675603C27.1245 0.786825 26.9632 0.946869 26.8504 1.13981Z" fill="#01070E"/>
</svg>
