<svg width="36" height="36" viewBox="0 0 36 36" fill="none" xmlns="http://www.w3.org/2000/svg">
<path d="M11 5H25V8H27V5C27 4.46957 26.7893 3.96086 26.4142 3.58579C26.0391 3.21071 25.5304 3 25 3H11C10.4696 3 9.96086 3.21071 9.58579 3.58579C9.21071 3.96086 9 4.46957 9 5V11.85H11V5Z" fill="#01070E"/>
<path d="M30 10H17V12H25V18H27V12H30V26H22V17C22 16.4696 21.7893 15.9609 21.4142 15.5858C21.0391 15.2107 20.5304 15 20 15H6C5.46957 15 4.96086 15.2107 4.58579 15.5858C4.21071 15.9609 4 16.4696 4 17V31C4 31.5304 4.21071 32.0391 4.58579 32.4142C4.96086 32.7893 5.46957 33 6 33H20C20.5304 33 21.0391 32.7893 21.4142 32.4142C21.7893 32.0391 22 31.5304 22 31V28H30C30.5304 28 31.0391 27.7893 31.4142 27.4142C31.7893 27.0391 32 26.5304 32 26V12C32 11.4696 31.7893 10.9609 31.4142 10.5858C31.0391 10.2107 30.5304 10 30 10ZM6 31V17H20V26H16V20H14V26C14 26.5304 14.2107 27.0391 14.5858 27.4142C14.9609 27.7893 15.4696 28 16 28H20V31H6Z" fill="#01070E"/>
</svg>
