<svg width="36" height="36" viewBox="0 0 36 36" fill="none" xmlns="http://www.w3.org/2000/svg">
<path d="M28 22H30V30H22V28H20V32H32V20H28V22Z" fill="#01070E"/>
<path d="M14 30H6V22H8V20H4V32H16V28H14V30Z" fill="#01070E"/>
<path d="M8 14H6V6H14V8H16V4H4V16H8V14Z" fill="#01070E"/>
<path d="M20 4V8H22V6H30V14H28V16H32V4H20Z" fill="#01070E"/>
<path d="M17 11H11V17H17V11Z" fill="#01070E"/>
<path d="M25 11H19V17H25V11Z" fill="#01070E"/>
<path d="M17 19H11V25H17V19Z" fill="#01070E"/>
<path d="M25 19H19V25H25V19Z" fill="#01070E"/>
</svg>
