<svg width="36" height="36" viewBox="0 0 36 36" fill="none" xmlns="http://www.w3.org/2000/svg">
<path d="M28 22H30V30H22V28H20V32H32V20H28V22Z" fill="#01070E"/>
<path d="M14 30H6V22H8V20H4V32H16V28H14V30Z" fill="#01070E"/>
<path d="M8 14H6V6H14V8H16V4H4V16H8V14Z" fill="#01070E"/>
<path d="M17 11H11V17H17V11Z" fill="#01070E"/>
<path d="M17 19H11V25H17V19Z" fill="#01070E"/>
<path d="M25 19H19V25H25V19Z" fill="#01070E"/>
<path d="M25 15.4H22.23C21.5769 15.4065 20.9338 15.2397 20.3664 14.9164C19.7989 14.5931 19.3274 14.1251 19 13.56V13.46V17H25V15.4Z" fill="#01070E"/>
<path d="M22.45 4H20V8H20.14L22.45 4Z" fill="#01070E"/>
<path d="M32 15.3999H28V15.9999H32V15.3999Z" fill="#01070E"/>
<path d="M26.8504 1.13981L21.1304 10.9998C20.9973 11.1951 20.9209 11.4235 20.9097 11.6596C20.8984 11.8957 20.9527 12.1303 21.0666 12.3374C21.1806 12.5445 21.3496 12.716 21.555 12.8329C21.7604 12.9498 21.9942 13.0076 22.2304 12.9998H33.6804C33.9166 13.0076 34.1504 12.9498 34.3558 12.8329C34.5612 12.716 34.7302 12.5445 34.8441 12.3374C34.958 12.1303 35.0123 11.8957 35.0011 11.6596C34.9898 11.4235 34.9135 11.1951 34.7804 10.9998L29.0604 1.13981C28.9476 0.946869 28.7862 0.786825 28.5923 0.675603C28.3985 0.564381 28.1789 0.505859 27.9554 0.505859C27.7319 0.505859 27.5123 0.564381 27.3184 0.675603C27.1245 0.786825 26.9632 0.946869 26.8504 1.13981Z" fill="#01070E"/>
</svg>
