<svg width="36" height="36" viewBox="0 0 36 36" fill="none" xmlns="http://www.w3.org/2000/svg">
<path d="M23.4091 25.2499C23.1905 25.2528 22.9769 25.184 22.8011 25.054C22.6254 24.924 22.497 24.74 22.4358 24.5301C22.3745 24.3203 22.3837 24.0961 22.462 23.892C22.5402 23.6879 22.6832 23.515 22.8691 23.3999C23.779 22.8319 24.5263 22.0379 25.0382 21.0953C25.5501 20.1527 25.809 19.0935 25.7899 18.021C25.7708 16.9486 25.4742 15.8993 24.929 14.9756C24.3838 14.0518 23.6087 13.285 22.6791 12.7499C22.5595 12.6873 22.4539 12.6013 22.3685 12.4969C22.2831 12.3925 22.2198 12.2719 22.1822 12.1424C22.1446 12.0129 22.1336 11.8771 22.1499 11.7432C22.1661 11.6093 22.2093 11.4801 22.2768 11.3633C22.3443 11.2466 22.4347 11.1447 22.5426 11.0637C22.6505 10.9828 22.7737 10.9246 22.9047 10.8925C23.0357 10.8604 23.1718 10.8551 23.3049 10.877C23.438 10.8989 23.5652 10.9475 23.6791 11.0199C24.903 11.7295 25.9227 12.7435 26.6394 13.9633C27.3561 15.1832 27.7454 16.5675 27.7695 17.9821C27.7937 19.3967 27.4518 20.7935 26.7772 22.0371C26.1026 23.2807 25.118 24.3288 23.9191 25.0799C23.7678 25.182 23.5914 25.2408 23.4091 25.2499Z" fill="#01070E"/>
<path d="M25.6202 31.1801C25.3963 31.1788 25.1793 31.1024 25.004 30.9631C24.8287 30.8237 24.7052 30.6296 24.6533 30.4118C24.6015 30.1939 24.6242 29.965 24.7179 29.7616C24.8117 29.5583 24.9709 29.3922 25.1702 29.2901C27.268 28.2565 29.032 26.6524 30.2597 24.662C31.4874 22.6716 32.1292 20.3754 32.1115 18.0368C32.0937 15.6983 31.4172 13.4121 30.1593 11.4405C28.9015 9.46893 27.1135 7.89184 25.0002 6.89014C24.8783 6.83535 24.7686 6.75667 24.6776 6.65875C24.5866 6.56084 24.5162 6.44568 24.4705 6.32007C24.4248 6.19447 24.4047 6.06098 24.4114 5.92748C24.4182 5.79399 24.4516 5.6632 24.5098 5.54286C24.568 5.42251 24.6497 5.31505 24.7501 5.22682C24.8505 5.13859 24.9676 5.07139 25.0944 5.02919C25.2212 4.98698 25.3552 4.97063 25.4885 4.9811C25.6217 4.99157 25.7515 5.02865 25.8702 5.09014C28.3249 6.24896 30.4032 8.07618 31.8668 10.3622C33.3304 12.6483 34.12 15.3006 34.145 18.0149C34.1701 20.7292 33.4296 23.3956 32.0084 25.7083C30.5873 28.0209 28.5431 29.8862 26.1102 31.0901C25.9571 31.161 25.7885 31.192 25.6202 31.1801Z" fill="#01070E"/>
<path d="M18 32.0599C17.7361 32.0601 17.4747 32.008 17.231 31.9068C16.9873 31.8055 16.7661 31.657 16.58 31.4698L9.14 23.9998H4C3.46957 23.9998 2.96086 23.7891 2.58579 23.4141C2.21071 23.039 2 22.5303 2 21.9998V13.9998C2 13.4694 2.21071 12.9607 2.58579 12.5856C2.96086 12.2106 3.46957 11.9998 4 11.9998H9.22L16.55 4.60985C16.8262 4.31911 17.1834 4.11811 17.5752 4.03294C17.9671 3.94777 18.3755 3.98235 18.7475 4.13221C19.1194 4.28207 19.4377 4.54028 19.6611 4.87332C19.8844 5.20636 20.0025 5.59885 20 5.99985V29.9998C20 30.3964 19.8821 30.784 19.6613 31.1134C19.4405 31.4428 19.1268 31.6992 18.76 31.8498C18.5231 31.9696 18.2648 32.041 18 32.0599ZM4 13.9998V21.9998H9.56C9.69231 22.0004 9.82319 22.0272 9.94507 22.0787C10.0669 22.1302 10.1774 22.2054 10.27 22.2998L18 30.0598V5.99985L10.35 13.6998C10.2574 13.7943 10.1469 13.8695 10.0251 13.921C9.90319 13.9725 9.77231 13.9993 9.64 13.9998H4Z" fill="#01070E"/>
</svg>
