<svg width="36" height="36" viewBox="0 0 36 36" fill="none" xmlns="http://www.w3.org/2000/svg">
<path d="M23.4091 25.1102C23.1905 25.1131 22.9769 25.0443 22.8011 24.9143C22.6254 24.7844 22.497 24.6004 22.4358 24.3905C22.3745 24.1806 22.3837 23.9565 22.462 23.7523C22.5402 23.5482 22.6832 23.3753 22.8691 23.2602C23.779 22.6922 24.5263 21.8983 25.0382 20.9556C25.5501 20.013 25.809 18.9539 25.7899 17.8814C25.7708 16.8089 25.4742 15.7597 24.929 14.8359C24.3838 13.9122 23.6087 13.1453 22.6791 12.6102C22.5595 12.5477 22.4539 12.4616 22.3685 12.3573C22.2831 12.2529 22.2198 12.1323 22.1822 12.0027C22.1446 11.8732 22.1336 11.7374 22.1499 11.6035C22.1661 11.4697 22.2093 11.3404 22.2768 11.2237C22.3443 11.1069 22.4347 11.005 22.5426 10.9241C22.6505 10.8432 22.7737 10.7849 22.9047 10.7528C23.0357 10.7207 23.1718 10.7155 23.3049 10.7374C23.438 10.7593 23.5652 10.8079 23.6791 10.8802C24.9176 11.5844 25.9516 12.5988 26.6794 13.8236C27.4071 15.0485 27.8036 16.4417 27.8299 17.8662C27.8561 19.2907 27.5112 20.6975 26.829 21.9483C26.1468 23.1991 25.1509 24.2509 23.9391 25.0002C23.7759 25.0849 23.5925 25.123 23.4091 25.1102Z" fill="#01070E"/>
<path d="M18 32.0001C17.7361 32.0003 17.4747 31.9483 17.231 31.847C16.9873 31.7457 16.7661 31.5972 16.58 31.4101L9.14 24.0001H4C3.46957 24.0001 2.96086 23.7894 2.58579 23.4143C2.21071 23.0392 2 22.5305 2 22.0001V14.0001C2 13.4696 2.21071 12.9609 2.58579 12.5859C2.96086 12.2108 3.46957 12.0001 4 12.0001H9.22L16.55 4.59007C16.8273 4.29802 17.1864 4.0965 17.5802 4.0119C17.9739 3.92731 18.3841 3.96356 18.7569 4.11594C19.1297 4.26831 19.4479 4.52969 19.6697 4.86587C19.8915 5.20205 20.0066 5.59737 20 6.00007V30.0001C20 30.3966 19.8821 30.7842 19.6613 31.1136C19.4405 31.443 19.1268 31.6994 18.76 31.8501C18.5189 31.9491 18.2607 32.0001 18 32.0001ZM4 14.0001V22.0001H9.56C9.82438 21.9959 10.0797 22.0965 10.27 22.2801L18 30.0001V6.00007L10.35 13.6801C10.2574 13.7746 10.1469 13.8497 10.0251 13.9012C9.90319 13.9527 9.77231 13.9795 9.64 13.9801L4 14.0001Z" fill="#01070E"/>
</svg>
