<svg width="36" height="36" viewBox="0 0 36 36" fill="none" xmlns="http://www.w3.org/2000/svg">
<path d="M25.8809 32.0001H12.0009C10.94 32.0001 9.92258 31.5786 9.17244 30.8285C8.42229 30.0783 8.00087 29.0609 8.00087 28.0001V11.4601L2.31087 5.77006C2.17043 5.63055 2.07456 5.4525 2.03539 5.25846C1.99623 5.06442 2.01553 4.86312 2.09087 4.68006C2.16522 4.499 2.29108 4.34374 2.45284 4.23353C2.6146 4.12332 2.80515 4.063 3.00087 4.06006H28.8609C29.1261 4.06006 29.3804 4.16542 29.568 4.35295C29.7555 4.54049 29.8609 4.79484 29.8609 5.06006V28.0001C29.8609 29.0575 29.4422 30.0719 28.6964 30.8214C27.9505 31.571 26.9383 31.9948 25.8809 32.0001ZM5.43087 6.00006L9.71087 10.3401C9.79189 10.4219 9.85298 10.5213 9.88939 10.6305C9.92581 10.7398 9.93658 10.856 9.92087 10.9701V27.9701C9.94606 28.5089 10.1748 29.0182 10.5608 29.3949C10.9469 29.7717 11.4615 29.988 12.0009 30.0001H25.8809C26.4244 30.0058 26.9489 29.8007 27.3443 29.4277C27.7397 29.0547 27.975 28.543 28.0009 28.0001V6.00006H5.43087Z" fill="#01070E"/>
<path d="M32.9994 16.0001C32.7342 16.0001 32.4798 15.8947 32.2923 15.7072C32.1047 15.5197 31.9994 15.2653 31.9994 15.0001V6.0001H28.8594C28.7337 6.01109 28.6071 5.99611 28.4874 5.95608C28.3677 5.91605 28.2576 5.85184 28.1638 5.76743C28.07 5.68301 27.9946 5.58021 27.9422 5.46541C27.8898 5.35061 27.8616 5.22626 27.8594 5.1001C27.8594 4.83488 27.9647 4.58053 28.1523 4.39299C28.3398 4.20545 28.5942 4.1001 28.8594 4.1001H32.9994C33.2646 4.1001 33.5189 4.20545 33.7065 4.39299C33.894 4.58053 33.9994 4.83488 33.9994 5.1001V15.0001C33.9994 15.2653 33.894 15.5197 33.7065 15.7072C33.5189 15.8947 33.2646 16.0001 32.9994 16.0001Z" fill="#01070E"/>
<path d="M24 11H18C17.7348 11 17.4804 10.8946 17.2929 10.7071C17.1054 10.5196 17 10.2652 17 10C17 9.73478 17.1054 9.48043 17.2929 9.29289C17.4804 9.10536 17.7348 9 18 9H24C24.2652 9 24.5196 9.10536 24.7071 9.29289C24.8946 9.48043 25 9.73478 25 10C25 10.2652 24.8946 10.5196 24.7071 10.7071C24.5196 10.8946 24.2652 11 24 11Z" fill="#01070E"/>
<path d="M24 15H21C20.7348 15 20.4804 14.8946 20.2929 14.7071C20.1054 14.5196 20 14.2652 20 14C20 13.7348 20.1054 13.4804 20.2929 13.2929C20.4804 13.1054 20.7348 13 21 13H24C24.2652 13 24.5196 13.1054 24.7071 13.2929C24.8946 13.4804 25 13.7348 25 14C25 14.2652 24.8946 14.5196 24.7071 14.7071C24.5196 14.8946 24.2652 15 24 15Z" fill="#01070E"/>
<path d="M24 19H18C17.7348 19 17.4804 18.8946 17.2929 18.7071C17.1054 18.5196 17 18.2652 17 18C17 17.7348 17.1054 17.4804 17.2929 17.2929C17.4804 17.1054 17.7348 17 18 17H24C24.2652 17 24.5196 17.1054 24.7071 17.2929C24.8946 17.4804 25 17.7348 25 18C25 18.2652 24.8946 18.5196 24.7071 18.7071C24.5196 18.8946 24.2652 19 24 19Z" fill="#01070E"/>
<path d="M24 27H18C17.7348 27 17.4804 26.8946 17.2929 26.7071C17.1054 26.5196 17 26.2652 17 26C17 25.7348 17.1054 25.4804 17.2929 25.2929C17.4804 25.1054 17.7348 25 18 25H24C24.2652 25 24.5196 25.1054 24.7071 25.2929C24.8946 25.4804 25 25.7348 25 26C25 26.2652 24.8946 26.5196 24.7071 26.7071C24.5196 26.8946 24.2652 27 24 27Z" fill="#01070E"/>
<path d="M24 23H21C20.7348 23 20.4804 22.8946 20.2929 22.7071C20.1054 22.5196 20 22.2652 20 22C20 21.7348 20.1054 21.4804 20.2929 21.2929C20.4804 21.1054 20.7348 21 21 21H24C24.2652 21 24.5196 21.1054 24.7071 21.2929C24.8946 21.4804 25 21.7348 25 22C25 22.2652 24.8946 22.5196 24.7071 22.7071C24.5196 22.8946 24.2652 23 24 23Z" fill="#01070E"/>
</svg>
