<svg width="36" height="36" viewBox="0 0 36 36" fill="none" xmlns="http://www.w3.org/2000/svg">
<path d="M3.61 6.41L9.19 12H4C3.46957 12 2.96086 12.2107 2.58579 12.5858C2.21071 12.9609 2 13.4696 2 14V22C2 22.5304 2.21071 23.0391 2.58579 23.4142C2.96086 23.7893 3.46957 24 4 24H9.14L16.55 31.47C16.7445 31.65 16.9729 31.7896 17.2218 31.8805C17.4707 31.9715 17.7352 32.0121 18 32C18.2607 32 18.5189 31.9491 18.76 31.85C19.1268 31.6993 19.4405 31.443 19.6613 31.1136C19.8821 30.7842 20 30.3966 20 30V22.77L25.89 28.66C25.64 28.81 25.4 28.95 25.14 29.08C24.9026 29.1993 24.7224 29.4081 24.6389 29.6603C24.5555 29.9126 24.5757 30.1876 24.695 30.425C24.8143 30.6624 25.0231 30.8426 25.2753 30.9261C25.5276 31.0095 25.8026 30.9893 26.04 30.87C26.4895 30.6431 26.9267 30.3927 27.35 30.12L29.63 32.4L31 31L5 5L3.61 6.41ZM18 30L10.27 22.23C10.0719 22.0646 9.81748 21.9822 9.56 22H4V14H9.64C9.77231 13.9995 9.90319 13.9727 10.0251 13.9212C10.1469 13.8697 10.2574 13.7945 10.35 13.7L10.61 13.44L18 20.81V30Z" fill="#01070E"/>
<path d="M24.8908 6.69018C26.6338 7.50426 28.1638 8.71208 29.3603 10.2184C30.5568 11.7248 31.387 13.4884 31.7855 15.3704C32.184 17.2524 32.1399 19.2012 31.6566 21.0632C31.1734 22.9252 30.2642 24.6495 29.0008 26.1002L30.4208 27.5202C31.9123 25.8427 32.9916 23.8402 33.5727 21.6721C34.1539 19.504 34.2208 17.2301 33.7683 15.0316C33.3158 12.833 32.3562 10.7705 30.9661 9.00812C29.5759 7.24577 27.7936 5.83228 25.7608 4.88018C25.6422 4.81869 25.5124 4.78161 25.3791 4.77114C25.2459 4.76067 25.1119 4.77702 24.985 4.81923C24.8582 4.86143 24.7411 4.92863 24.6407 5.01686C24.5403 5.10509 24.4586 5.21255 24.4004 5.3329C24.3423 5.45324 24.3088 5.58403 24.3021 5.71752C24.2953 5.85102 24.3154 5.98451 24.3611 6.11011C24.4068 6.23572 24.4773 6.35088 24.5682 6.44879C24.6592 6.54671 24.7689 6.62539 24.8908 6.68018V6.69018Z" fill="#01070E"/>
<path d="M22.6905 12.62C23.6317 13.1692 24.4136 13.9542 24.9589 14.8976C25.5043 15.841 25.7944 16.9103 25.8005 18C25.8005 19.3384 25.3653 20.6405 24.5605 21.71L26.0005 23.13C27.17 21.6764 27.8054 19.8656 27.8005 18C27.794 16.5607 27.4125 15.148 26.6935 13.9012C25.9745 12.6544 24.9429 11.6165 23.7005 10.89C23.5867 10.8176 23.4594 10.769 23.3264 10.7471C23.1933 10.7253 23.0571 10.7305 22.9262 10.7626C22.7952 10.7947 22.672 10.8529 22.5641 10.9339C22.4562 11.0148 22.3658 11.1167 22.2983 11.2334C22.2308 11.3502 22.1876 11.4794 22.1714 11.6133C22.1551 11.7472 22.1661 11.883 22.2037 12.0125C22.2412 12.142 22.3046 12.2626 22.39 12.367C22.4754 12.4714 22.581 12.5575 22.7005 12.62H22.6905Z" fill="#01070E"/>
<path d="M18 6.00013V15.1501L20 17.1501V6.00013C20.0003 5.60374 19.8828 5.21619 19.6625 4.88669C19.4421 4.55719 19.1288 4.30061 18.7623 4.14952C18.3958 3.99843 17.9927 3.95964 17.6042 4.0381C17.2156 4.11655 16.8591 4.30869 16.58 4.59013L12 9.17013L13.41 10.5801L18 6.00013Z" fill="#01070E"/>
</svg>
