<svg width="36" height="36" viewBox="0 0 36 36" fill="none" xmlns="http://www.w3.org/2000/svg">
<path d="M34.1004 4.0001L31.7104 1.6001C31.5389 1.42753 31.3347 1.29089 31.1098 1.19817C30.8849 1.10544 30.6437 1.05851 30.4004 1.0601C30.1298 1.0626 29.8623 1.11868 29.6134 1.22509C29.3646 1.3315 29.1392 1.48615 28.9504 1.6801L1.76043 29.2301C1.39196 29.5921 1.17786 30.0827 1.16294 30.599C1.14803 31.1153 1.33347 31.6174 1.68043 32.0001L4.08043 34.4301C4.2494 34.6081 4.45246 34.7503 4.67751 34.8482C4.90256 34.9461 5.14501 34.9978 5.39043 35.0001C5.66108 34.9976 5.92856 34.9415 6.17743 34.8351C6.4263 34.7287 6.65164 34.5741 6.84043 34.3801L34.0004 6.7901C34.3776 6.42989 34.5991 5.93662 34.6178 5.41543C34.6365 4.89425 34.4508 4.38638 34.1004 4.0001ZM5.42043 32.9301L3.16043 30.6501L24.1104 9.4301L26.3604 11.7101L5.42043 32.9301ZM32.6104 5.3901L27.4904 10.5701L25.2404 8.2901L30.3704 3.0901L32.6204 5.3701L32.6104 5.3901Z" fill="#01070E"/>
<path d="M32.5298 20.4701L34.6198 18.3801C34.7577 18.2279 34.8318 18.0286 34.8267 17.8233C34.8217 17.618 34.7379 17.4225 34.5927 17.2773C34.4475 17.1321 34.252 17.0483 34.0467 17.0432C33.8414 17.0382 33.642 17.1122 33.4898 17.2501L31.3998 19.3401L29.3098 17.2501C29.1576 17.1122 28.9583 17.0382 28.753 17.0432C28.5477 17.0483 28.3522 17.1321 28.207 17.2773C28.0618 17.4225 27.978 17.618 27.9729 17.8233C27.9678 18.0286 28.0419 18.2279 28.1798 18.3801L30.2698 20.4701L28.1798 22.5601C28.0419 22.7123 27.9678 22.9117 27.9729 23.117C27.978 23.3223 28.0618 23.5178 28.207 23.663C28.3522 23.8082 28.5477 23.892 28.753 23.897C28.9583 23.9021 29.1576 23.828 29.3098 23.6901L31.3998 21.6001L33.4898 23.6901C33.642 23.828 33.8414 23.9021 34.0467 23.897C34.252 23.892 34.4475 23.8082 34.5927 23.663C34.7379 23.5178 34.8217 23.3223 34.8267 23.117C34.8318 22.9117 34.7577 22.7123 34.6198 22.5601L32.5298 20.4701Z" fill="#01070E"/>
<path d="M14.7804 6.51016C14.9304 6.65977 15.1336 6.74379 15.3454 6.74379C15.5573 6.74379 15.7604 6.65977 15.9104 6.51016L17.4004 5.00016L18.8904 6.49016C19.0443 6.59338 19.2293 6.63996 19.4137 6.62195C19.5982 6.60394 19.7706 6.52245 19.9017 6.39142C20.0327 6.26038 20.1142 6.08792 20.1322 5.90348C20.1502 5.71904 20.1036 5.53407 20.0004 5.38016L18.5404 3.89016L20.0004 2.40016C20.1383 2.24798 20.2124 2.04861 20.2073 1.84331C20.2023 1.63802 20.1185 1.44253 19.9733 1.29732C19.8281 1.15211 19.6326 1.0683 19.4273 1.06324C19.222 1.05819 19.0226 1.13228 18.8704 1.27016L17.4004 2.76016L15.9104 1.27016C15.8376 1.18985 15.7493 1.12517 15.6508 1.08003C15.5523 1.03489 15.4456 1.01023 15.3373 1.00757C15.2289 1.0049 15.1212 1.02427 15.0206 1.06451C14.9199 1.10475 14.8285 1.16501 14.7519 1.24164C14.6753 1.31827 14.615 1.40967 14.5748 1.5103C14.5345 1.61092 14.5152 1.71868 14.5178 1.82702C14.5205 1.93536 14.5451 2.04202 14.5903 2.14055C14.6354 2.23907 14.7001 2.3274 14.7804 2.40016L16.2704 3.89016L14.7804 5.38016C14.6308 5.53014 14.5468 5.73333 14.5468 5.94516C14.5468 6.157 14.6308 6.36019 14.7804 6.51016Z" fill="#01070E"/>
<path d="M8.32924 15.2598C8.47922 15.4094 8.68241 15.4935 8.89425 15.4935C9.10608 15.4935 9.30927 15.4094 9.45924 15.2598L10.6192 14.0998L11.7792 15.2598C11.852 15.3401 11.9403 15.4048 12.0389 15.45C12.1374 15.4951 12.2441 15.5198 12.3524 15.5224C12.4607 15.5251 12.5685 15.5057 12.6691 15.4655C12.7697 15.4252 12.8611 15.365 12.9378 15.2884C13.0144 15.2117 13.0747 15.1203 13.1149 15.0197C13.1551 14.9191 13.1745 14.8113 13.1718 14.703C13.1692 14.5946 13.1445 14.488 13.0994 14.3894C13.0542 14.2909 12.9896 14.2026 12.9092 14.1298L11.7592 12.9998L12.9192 11.8398C12.9996 11.7671 13.0642 11.6787 13.1094 11.5802C13.1545 11.4817 13.1792 11.375 13.1818 11.2667C13.1845 11.1583 13.1651 11.0506 13.1249 10.95C13.0847 10.8493 13.0244 10.7579 12.9478 10.6813C12.8711 10.6047 12.7797 10.5444 12.6791 10.5042C12.5785 10.4639 12.4707 10.4446 12.3624 10.4472C12.2541 10.4499 12.1474 10.4746 12.0489 10.5197C11.9503 10.5648 11.862 10.6295 11.7892 10.7098L10.6292 11.8698L9.45924 10.6798C9.38648 10.5995 9.29815 10.5348 9.19963 10.4897C9.10111 10.4446 8.99444 10.4199 8.8861 10.4172C8.77776 10.4146 8.67001 10.4339 8.56938 10.4742C8.46875 10.5144 8.37735 10.5747 8.30072 10.6513C8.22409 10.7279 8.16383 10.8193 8.12359 10.92C8.08335 11.0206 8.06398 11.1283 8.06665 11.2367C8.06932 11.345 8.09397 11.4517 8.13911 11.5502C8.18425 11.6487 8.24894 11.7371 8.32924 11.8098L9.48924 12.9998L8.32924 14.1298C8.17963 14.2798 8.09561 14.483 8.09561 14.6948C8.09561 14.9067 8.17963 15.1099 8.32924 15.2598Z" fill="#01070E"/>
</svg>
