<svg width="36" height="36" viewBox="0 0 36 36" fill="none" xmlns="http://www.w3.org/2000/svg">
<path d="M17.9994 21.3202C18.3442 21.3202 18.6748 21.1832 18.9186 20.9394C19.1624 20.6956 19.2994 20.365 19.2994 20.0202V14.0002C19.2994 13.6554 19.1624 13.3248 18.9186 13.081C18.6748 12.8372 18.3442 12.7002 17.9994 12.7002C17.6546 12.7002 17.3239 12.8372 17.0801 13.081C16.8363 13.3248 16.6994 13.6554 16.6994 14.0002V20.0002C16.6967 20.1726 16.7284 20.3438 16.7925 20.5038C16.8567 20.6639 16.952 20.8095 17.073 20.9324C17.194 21.0552 17.3382 21.1528 17.4972 21.2194C17.6563 21.2859 17.827 21.3202 17.9994 21.3202Z" fill="#01070E"/>
<path d="M17.9492 25.77C18.7776 25.77 19.4492 25.0984 19.4492 24.27C19.4492 23.4416 18.7776 22.77 17.9492 22.77C17.1208 22.77 16.4492 23.4416 16.4492 24.27C16.4492 25.0984 17.1208 25.77 17.9492 25.77Z" fill="#01070E"/>
<path d="M30.3307 25.54L20.5907 7.60003C20.3328 7.12625 19.952 6.73075 19.4883 6.45518C19.0245 6.17962 18.4951 6.03418 17.9557 6.03418C17.4163 6.03418 16.8868 6.17962 16.4231 6.45518C15.9594 6.73075 15.5785 7.12625 15.3207 7.60003L5.57068 25.54C5.31548 25.9981 5.1848 26.515 5.19166 27.0393C5.19852 27.5637 5.34269 28.077 5.60978 28.5282C5.87687 28.9795 6.25757 29.3528 6.71392 29.611C7.17027 29.8693 7.68634 30.0034 8.21068 30H27.6907C28.2107 30.0005 28.722 29.8658 29.1742 29.6091C29.6265 29.3524 30.0043 28.9825 30.2705 28.5358C30.5367 28.0891 30.6823 27.5808 30.6928 27.0609C30.7034 26.5409 30.5786 26.0272 30.3307 25.57V25.54ZM28.5507 27.48C28.4622 27.6293 28.3363 27.753 28.1856 27.8389C28.0348 27.9248 27.8642 27.97 27.6907 27.97H8.21068C8.03685 27.9705 7.86591 27.9257 7.7147 27.8399C7.56349 27.7542 7.43725 27.6305 7.34841 27.4811C7.25957 27.3317 7.21121 27.1617 7.2081 26.9879C7.20499 26.8141 7.24724 26.6425 7.33068 26.49L17.0707 8.55003C17.1564 8.39128 17.2834 8.25867 17.4383 8.16624C17.5932 8.07381 17.7703 8.02501 17.9507 8.02501C18.1311 8.02501 18.3081 8.07381 18.463 8.16624C18.618 8.25867 18.745 8.39128 18.8307 8.55003L28.5707 26.49C28.6536 26.6426 28.6953 26.8141 28.6918 26.9877C28.6883 27.1613 28.6397 27.331 28.5507 27.48Z" fill="#01070E"/>
</svg>
