<svg width="36" height="36" viewBox="0 0 36 36" fill="none" xmlns="http://www.w3.org/2000/svg">
<path d="M17.9999 27.39C18.7345 27.39 19.3299 26.7945 19.3299 26.06C19.3299 25.3254 18.7345 24.73 17.9999 24.73C17.2654 24.73 16.6699 25.3254 16.6699 26.06C16.6699 26.7945 17.2654 27.39 17.9999 27.39Z" fill="#01070E"/>
<path d="M18 22.6099C17.7348 22.6099 17.4804 22.5045 17.2929 22.317C17.1054 22.1294 17 21.8751 17 21.6099V9.60986C17 9.34465 17.1054 9.09029 17.2929 8.90276C17.4804 8.71522 17.7348 8.60986 18 8.60986C18.2652 8.60986 18.5196 8.71522 18.7071 8.90276C18.8946 9.09029 19 9.34465 19 9.60986V21.6099C19 21.8751 18.8946 22.1294 18.7071 22.317C18.5196 22.5045 18.2652 22.6099 18 22.6099Z" fill="#01070E"/>
<path d="M15.0622 1.68123C15.63 0.649298 16.711 0.0102539 17.8851 0.0102539C19.0592 0.0102539 20.1402 0.649298 20.7087 1.68255L34.5987 27.2426C35.1409 28.2402 35.1175 29.4496 34.5373 30.4255C33.9571 31.4015 32.9058 31.9997 31.7701 32L4.02249 31.9998C2.87419 32.0255 1.79913 31.4376 1.20116 30.4569C0.603197 29.4763 0.572877 28.2514 1.12218 27.2412L15.0622 1.68123ZM2.87861 28.1978C2.67071 28.5801 2.6822 29.0442 2.90875 29.4157C3.13531 29.7873 3.54263 30.01 4.0001 30H31.7698C32.2 29.9999 32.5983 29.7733 32.8182 29.4035C33.038 29.0337 33.0469 28.5755 32.8415 28.1975L18.954 2.64211C18.7395 2.25238 18.3299 2.01025 17.8851 2.01025C17.4408 2.01025 17.0317 2.2518 16.817 2.64072L2.87861 28.1978Z" fill="#01070E"/>
</svg>
