<svg width="36" height="36" viewBox="0 0 36 36" fill="none" xmlns="http://www.w3.org/2000/svg">
<path d="M33.5493 8.20014C28.9322 5.1483 23.5167 3.52785 17.9822 3.54209C12.4477 3.55632 7.04062 5.20459 2.4393 8.28014C2.3303 8.35368 2.23685 8.44797 2.1643 8.55762C2.09174 8.66727 2.04149 8.79015 2.01642 8.91922C1.99135 9.04829 1.99194 9.18104 2.01817 9.30988C2.0444 9.43873 2.09576 9.56114 2.1693 9.67014C2.24284 9.77914 2.33712 9.87258 2.44678 9.94514C2.55643 10.0177 2.6793 10.0679 2.80838 10.093C2.93745 10.1181 3.0702 10.1175 3.19904 10.0913C3.32788 10.065 3.4503 10.0137 3.5593 9.94014C7.83342 7.0866 12.8546 5.55784 17.9937 5.54539C23.1329 5.53294 28.1614 7.03735 32.4493 9.87014C32.6707 10.0108 32.9386 10.0588 33.1951 10.0038C33.4516 9.94878 33.6763 9.79518 33.8206 9.57609C33.9649 9.357 34.0173 9.08998 33.9666 8.83259C33.9158 8.5752 33.766 8.34806 33.5493 8.20014Z" fill="#01070E"/>
<path d="M18.049 10.7202C13.8263 10.715 9.70254 11.9989 6.22905 14.4002C6.07173 14.5682 5.97718 14.7854 5.96135 15.015C5.94552 15.2446 6.00939 15.4726 6.14216 15.6606C6.27493 15.8486 6.46849 15.9851 6.69018 16.0469C6.91187 16.1088 7.14811 16.0923 7.35905 16.0002C10.4934 13.8569 14.202 12.7102 17.999 12.7102C21.7961 12.7102 25.5047 13.8569 28.639 16.0002C28.8578 16.1255 29.1157 16.1636 29.3613 16.1069C29.6069 16.0501 29.822 15.9027 29.9636 15.6942C30.1051 15.4856 30.1627 15.2313 30.1248 14.9821C30.0869 14.7329 29.9562 14.5072 29.759 14.3502C26.3104 11.9884 22.2289 10.7232 18.049 10.7202Z" fill="#01070E"/>
<path d="M18.0492 17.8999C15.1694 17.9048 12.3664 18.8298 10.0492 20.5399C9.85379 20.7028 9.72777 20.9341 9.69686 21.1867C9.66595 21.4392 9.73248 21.6941 9.88289 21.8993C10.0333 22.1045 10.2563 22.2447 10.5064 22.2913C10.7566 22.3378 11.0151 22.2873 11.2292 22.1499C13.1986 20.6964 15.5785 19.9054 18.0262 19.8911C20.4739 19.8767 22.8629 20.6396 24.8492 22.0699C24.9527 22.1696 25.0764 22.2459 25.212 22.2934C25.3476 22.341 25.4918 22.3588 25.6348 22.3457C25.7779 22.3325 25.9165 22.2886 26.0411 22.2171C26.1657 22.1456 26.2734 22.048 26.3569 21.9311C26.4404 21.8142 26.4977 21.6807 26.525 21.5396C26.5522 21.3985 26.5488 21.2533 26.5148 21.1137C26.4809 20.9741 26.4173 20.8434 26.3283 20.7306C26.2393 20.6178 26.1271 20.5255 25.9992 20.4599C23.6858 18.789 20.903 17.8929 18.0492 17.8999Z" fill="#01070E"/>
<path d="M18 24.4199C17.2089 24.4199 16.4355 24.6545 15.7777 25.094C15.1199 25.5336 14.6072 26.1583 14.3045 26.8892C14.0017 27.6201 13.9225 28.4244 14.0769 29.2003C14.2312 29.9762 14.6122 30.6889 15.1716 31.2483C15.731 31.8078 16.4437 32.1887 17.2196 32.3431C17.9956 32.4974 18.7998 32.4182 19.5307 32.1154C20.2616 31.8127 20.8864 31.3 21.3259 30.6422C21.7654 29.9844 22 29.211 22 28.4199C22 27.3591 21.5786 26.3416 20.8284 25.5915C20.0783 24.8414 19.0609 24.4199 18 24.4199ZM18 30.4199C17.6044 30.4199 17.2178 30.3026 16.8889 30.0829C16.56 29.8631 16.3036 29.5507 16.1522 29.1853C16.0009 28.8198 15.9613 28.4177 16.0384 28.0297C16.1156 27.6418 16.3061 27.2854 16.5858 27.0057C16.8655 26.726 17.2219 26.5355 17.6098 26.4584C17.9978 26.3812 18.3999 26.4208 18.7654 26.5722C19.1308 26.7235 19.4432 26.9799 19.6629 27.3088C19.8827 27.6377 20 28.0244 20 28.4199C20 28.9504 19.7893 29.4591 19.4142 29.8341C19.0391 30.2092 18.5304 30.4199 18 30.4199Z" fill="#01070E"/>
</svg>
