<svg width="36" height="36" viewBox="0 0 36 36" fill="none" xmlns="http://www.w3.org/2000/svg">
<path d="M19.4109 17.9998L26.701 10.7098C26.8648 10.5185 26.9504 10.2724 26.9407 10.0207C26.9309 9.76904 26.8266 9.5303 26.6485 9.35221C26.4704 9.17412 26.2317 9.06978 25.98 9.06006C25.7283 9.05034 25.4823 9.13595 25.291 9.29977L18.0009 16.5898L10.711 9.28977C10.5196 9.12595 10.2736 9.04034 10.0219 9.05006C9.77022 9.05978 9.53148 9.16412 9.35339 9.34221C9.17529 9.5203 9.07096 9.75904 9.06124 10.0107C9.05152 10.2624 9.13712 10.5085 9.30095 10.6998L16.591 17.9998L9.29095 25.2898C9.18627 25.3794 9.10125 25.4897 9.04122 25.6138C8.9812 25.7379 8.94747 25.873 8.94215 26.0107C8.93683 26.1484 8.96004 26.2858 9.01031 26.4141C9.06059 26.5424 9.13685 26.659 9.2343 26.7564C9.33175 26.8539 9.4483 26.9301 9.57663 26.9804C9.70495 27.0307 9.84228 27.0539 9.98 27.0486C10.1177 27.0433 10.2529 27.0095 10.3769 26.9495C10.501 26.8895 10.6113 26.8045 10.701 26.6998L18.0009 19.4098L25.291 26.6998C25.4823 26.8636 25.7283 26.9492 25.98 26.9395C26.2317 26.9298 26.4704 26.8254 26.6485 26.6473C26.8266 26.4692 26.9309 26.2305 26.9407 25.9788C26.9504 25.7271 26.8648 25.4811 26.701 25.2898L19.4109 17.9998Z" fill="#01070E"/>
</svg>
