<svg width="36" height="36" viewBox="0 0 36 36" fill="none" xmlns="http://www.w3.org/2000/svg">
<path d="M27.8906 9H7.89062C7.36019 9 6.85148 9.21071 6.47641 9.58579C6.10134 9.96086 5.89063 10.4696 5.89062 11V25C5.89063 25.5304 6.10134 26.0391 6.47641 26.4142C6.85148 26.7893 7.36019 27 7.89062 27H27.8906C28.4211 27 28.9298 26.7893 29.3048 26.4142C29.6799 26.0391 29.8906 25.5304 29.8906 25V11C29.8906 10.4696 29.6799 9.96086 29.3048 9.58579C28.9298 9.21071 28.4211 9 27.8906 9ZM7.89062 25V11H27.8906V25H7.89062Z" fill="#01070E"/>
</svg>
