<svg width="36" height="36" viewBox="0 0 36 36" fill="none" xmlns="http://www.w3.org/2000/svg">
<path d="M28 8H14C13.4696 8 12.9609 8.21071 12.5858 8.58579C12.2107 8.96086 12 9.46957 12 10V12H14V10H28V20H26V22H28C28.5304 22 29.0391 21.7893 29.4142 21.4142C29.7893 21.0391 30 20.5304 30 20V10C30 9.46957 29.7893 8.96086 29.4142 8.58579C29.0391 8.21071 28.5304 8 28 8Z" fill="#01070E"/>
<path d="M22 14H8C7.46957 14 6.96086 14.2107 6.58579 14.5858C6.21071 14.9609 6 15.4696 6 16V26C6 26.5304 6.21071 27.0391 6.58579 27.4142C6.96086 27.7893 7.46957 28 8 28H22C22.5304 28 23.0391 27.7893 23.4142 27.4142C23.7893 27.0391 24 26.5304 24 26V16C24 15.4696 23.7893 14.9609 23.4142 14.5858C23.0391 14.2107 22.5304 14 22 14ZM8 26V16H22V26H8Z" fill="#01070E"/>
</svg>
