<svg width="36" height="36" viewBox="0 0 36 36" fill="none" xmlns="http://www.w3.org/2000/svg">
<path d="M33 17.9998H28.75L29.25 15.9998H33C33.2652 15.9998 33.5196 15.8945 33.7071 15.7069C33.8946 15.5194 34 15.265 34 14.9998C34 14.7346 33.8946 14.4803 33.7071 14.2927C33.5196 14.1052 33.2652 13.9998 33 13.9998H29.74L31.91 5.23982C31.9267 5.00543 31.8603 4.77264 31.7224 4.58232C31.5846 4.39199 31.3842 4.25628 31.1563 4.19901C30.9283 4.14174 30.6876 4.16655 30.4761 4.2691C30.2647 4.37165 30.0961 4.54539 30 4.75983L27.68 13.9998H21.31L19 4.75983C18.9458 4.5436 18.8209 4.35168 18.6452 4.21454C18.4694 4.07741 18.2529 4.00293 18.03 4.00293C17.8071 4.00293 17.5906 4.07741 17.4148 4.21454C17.2391 4.35168 17.1142 4.5436 17.06 4.75983L14.79 13.9998H8.42L6.13 4.75983C6.05824 4.51147 5.89309 4.30056 5.6692 4.17133C5.4453 4.04211 5.18007 4.0046 4.92912 4.06669C4.67818 4.12878 4.46103 4.28564 4.32323 4.50436C4.18542 4.72308 4.13768 4.98666 4.19 5.23982L6.36 13.9998H3C2.73478 13.9998 2.48043 14.1052 2.29289 14.2927C2.10536 14.4803 2 14.7346 2 14.9998C2 15.265 2.10536 15.5194 2.29289 15.7069C2.48043 15.8945 2.73478 15.9998 3 15.9998H6.85L7.35 17.9998H3C2.73478 17.9998 2.48043 18.1052 2.29289 18.2927C2.10536 18.4803 2 18.7346 2 18.9998C2 19.265 2.10536 19.5194 2.29289 19.7069C2.48043 19.8945 2.73478 19.9998 3 19.9998H7.84L10.63 31.2398C10.6842 31.4561 10.8091 31.648 10.9848 31.7851C11.1606 31.9222 11.3771 31.9967 11.6 31.9967C11.8229 31.9967 12.0394 31.9222 12.2152 31.7851C12.3909 31.648 12.5158 31.4561 12.57 31.2398L15.36 19.9998H20.74L23.53 31.2398C23.5842 31.4561 23.7091 31.648 23.8848 31.7851C24.0606 31.9222 24.2771 31.9967 24.5 31.9967C24.7229 31.9967 24.9394 31.9222 25.1152 31.7851C25.2909 31.648 25.4158 31.4561 25.47 31.2398L28.25 19.9998H33C33.2652 19.9998 33.5196 19.8945 33.7071 19.7069C33.8946 19.5194 34 19.265 34 18.9998C34 18.7346 33.8946 18.4803 33.7071 18.2927C33.5196 18.1052 33.2652 17.9998 33 17.9998ZM27.18 15.9998L26.68 17.9998H22.3L21.8 15.9998H27.18ZM18 9.15982L19.25 13.9998H16.85L18 9.15982ZM8.91 15.9998H14.29L13.79 17.9998H9.41L8.91 15.9998ZM11.6 26.8398L9.91 19.9998H13.3L11.6 26.8398ZM15.85 17.9998L16.35 15.9998H19.74L20.24 17.9998H15.85ZM24.49 26.8398L22.8 19.9998H26.19L24.49 26.8398Z" fill="#01070E"/>
</svg>
