<svg width="36" height="36" viewBox="0 0 36 36" fill="none" xmlns="http://www.w3.org/2000/svg">
<path d="M33.18 26.1102L20.35 13.2802C20.7198 11.6053 20.6181 9.86074 20.0564 8.24015C19.4946 6.61957 18.4947 5.18637 17.1677 4.09969C15.8407 3.01301 14.2385 2.31535 12.5389 2.08419C10.8394 1.85302 9.10904 2.09739 7.53999 2.79016L6.19999 3.38016L11.58 8.76016L8.75999 11.5902L3.37999 6.21016L2.78999 7.54016C2.09326 9.10911 1.84589 10.8407 2.07544 12.542C2.305 14.2433 3.00246 15.8474 4.0901 17.1756C5.17775 18.5038 6.61284 19.5039 8.23545 20.0644C9.85807 20.6249 11.6045 20.7238 13.28 20.3502L26.11 33.1802C26.2957 33.3661 26.5163 33.5136 26.7591 33.6143C27.0019 33.7149 27.2622 33.7667 27.525 33.7667C27.7878 33.7667 28.0481 33.7149 28.2909 33.6143C28.5337 33.5136 28.7542 33.3661 28.94 33.1802L33.18 28.9402C33.3659 28.7544 33.5135 28.5338 33.6141 28.291C33.7148 28.0482 33.7666 27.788 33.7666 27.5252C33.7666 27.2623 33.7148 27.0021 33.6141 26.7593C33.5135 26.5165 33.3659 26.2959 33.18 26.1102ZM27.52 31.7702L13.88 18.1202L13.31 18.2802C12.2245 18.5975 11.08 18.6572 9.96743 18.4546C8.85484 18.252 7.80486 17.7926 6.90097 17.113C5.99707 16.4334 5.26419 15.5523 4.76059 14.5397C4.25699 13.5271 3.99655 12.411 3.99999 11.2802C3.99876 10.783 4.04902 10.287 4.14999 9.80016L8.75999 14.4102L14.42 8.75016L9.80999 4.15016C11.0399 3.89197 12.3157 3.95702 13.513 4.33896C14.7103 4.7209 15.7881 5.40668 16.6413 6.32939C17.4945 7.2521 18.094 8.38022 18.3812 9.60369C18.6684 10.8272 18.6335 12.1042 18.28 13.3102L18.12 13.8802L31.77 27.5302L27.52 31.7702Z" fill="#01070E"/>
<path d="M28.0487 28.011C28.5564 27.5034 28.5564 26.6802 28.0487 26.1726C27.5411 25.6649 26.7179 25.6649 26.2103 26.1726C25.7026 26.6802 25.7026 27.5034 26.2103 28.011C26.7179 28.5187 27.541 28.5187 28.0487 28.011Z" fill="#01070E"/>
</svg>
