<svg width="36" height="36" viewBox="0 0 36 36" fill="none" xmlns="http://www.w3.org/2000/svg">
<path d="M29.3398 4.55018C29.4146 4.44057 29.4669 4.31716 29.4935 4.18715C29.5202 4.05713 29.5207 3.92311 29.495 3.7929C29.4694 3.66269 29.418 3.53889 29.344 3.42872C29.27 3.31855 29.1748 3.22422 29.064 3.15121C28.9532 3.07821 28.8289 3.028 28.6985 3.0035C28.568 2.97901 28.434 2.98073 28.3042 3.00856C28.1745 3.03638 28.0515 3.08976 27.9426 3.16558C27.8337 3.2414 27.7409 3.33815 27.6698 3.45018L17.9998 18.2302L8.32979 3.45018C8.18187 3.23351 7.95472 3.08365 7.69733 3.03291C7.43994 2.98217 7.17292 3.0346 6.95383 3.17891C6.73475 3.32322 6.58114 3.54784 6.52614 3.80436C6.47113 4.06087 6.51913 4.32873 6.65979 4.55018L16.9998 20.3502V22.2002H11.9998C11.7876 22.2002 11.5841 22.2845 11.4341 22.4345C11.2841 22.5845 11.1998 22.788 11.1998 23.0002C11.1998 23.2124 11.2841 23.4158 11.4341 23.5659C11.5841 23.7159 11.7876 23.8002 11.9998 23.8002H16.9998V26.2002H11.9998C11.7876 26.2002 11.5841 26.2845 11.4341 26.4345C11.2841 26.5845 11.1998 26.788 11.1998 27.0002C11.1998 27.2124 11.2841 27.4158 11.4341 27.5659C11.5841 27.7159 11.7876 27.8002 11.9998 27.8002H16.9998V32.0002C16.9998 32.2654 17.1051 32.5197 17.2927 32.7073C17.4802 32.8948 17.7346 33.0002 17.9998 33.0002C18.265 33.0002 18.5194 32.8948 18.7069 32.7073C18.8944 32.5197 18.9998 32.2654 18.9998 32.0002V27.8002H23.9998C24.212 27.8002 24.4154 27.7159 24.5655 27.5659C24.7155 27.4158 24.7998 27.2124 24.7998 27.0002C24.7998 26.788 24.7155 26.5845 24.5655 26.4345C24.4154 26.2845 24.212 26.2002 23.9998 26.2002H18.9998V23.8002H23.9998C24.212 23.8002 24.4154 23.7159 24.5655 23.5659C24.7155 23.4158 24.7998 23.2124 24.7998 23.0002C24.7998 22.788 24.7155 22.5845 24.5655 22.4345C24.4154 22.2845 24.212 22.2002 23.9998 22.2002H18.9998V20.3502L29.3398 4.55018Z" fill="#01070E"/>
</svg>
