<svg width="36" height="36" viewBox="0 0 36 36" fill="none" xmlns="http://www.w3.org/2000/svg">
<path d="M16 4C13.6266 4 11.3066 4.70379 9.33316 6.02236C7.35977 7.34094 5.8217 9.21509 4.91345 11.4078C4.0052 13.6005 3.76756 16.0133 4.23058 18.3411C4.6936 20.6689 5.83649 22.8071 7.51472 24.4853C9.19295 26.1635 11.3312 27.3064 13.6589 27.7694C15.9867 28.2324 18.3995 27.9948 20.5922 27.0866C22.7849 26.1783 24.6591 24.6402 25.9776 22.6668C27.2962 20.6935 28 18.3734 28 16C28 12.8174 26.7357 9.76515 24.4853 7.51472C22.2348 5.26428 19.1826 4 16 4ZM16 25.91C14.0184 25.9099 12.0814 25.3211 10.4351 24.2182C8.78868 23.1154 7.50707 21.5483 6.75291 19.7158C5.99875 17.8832 5.80604 15.868 6.19925 13.9258C6.59245 11.9835 7.55384 10.2019 8.96138 8.80704C10.3689 7.41217 12.1592 6.46693 14.1049 6.0913C16.0506 5.71567 18.064 5.92659 19.8896 6.69729C21.7152 7.46798 23.2707 8.7637 24.3586 10.42C25.4465 12.0763 26.0178 14.0185 26 16C25.9763 18.6365 24.9122 21.157 23.0394 23.013C21.1666 24.8689 18.6367 25.9101 16 25.91Z" fill="#01070E"/>
<path d="M31.7104 29.69L26.5404 24.52C26.1144 25.0471 25.6497 25.5418 25.1504 26L30.3004 31.15C30.4917 31.3138 30.7378 31.3995 30.9894 31.3897C31.2411 31.38 31.4799 31.2757 31.658 31.0976C31.836 30.9195 31.9404 30.6807 31.9501 30.4291C31.9598 30.1774 31.8742 29.9313 31.7104 29.74V29.69Z" fill="#01070E"/>
<path d="M20 15H12C11.7348 15 11.4804 15.1054 11.2929 15.2929C11.1054 15.4804 11 15.7348 11 16C11 16.2652 11.1054 16.5196 11.2929 16.7071C11.4804 16.8946 11.7348 17 12 17H20C20.2652 17 20.5196 16.8946 20.7071 16.7071C20.8946 16.5196 21 16.2652 21 16C21 15.7348 20.8946 15.4804 20.7071 15.2929C20.5196 15.1054 20.2652 15 20 15Z" fill="#01070E"/>
</svg>
